%TF.GenerationSoftware,KiCad,Pcbnew,7.0.2-1.fc38*%
%TF.CreationDate,2023-06-07T17:49:04+02:00*%
%TF.ProjectId,gps_compass,6770735f-636f-46d7-9061-73732e6b6963,rev?*%
%TF.SameCoordinates,Original*%
%TF.FileFunction,Legend,Top*%
%TF.FilePolarity,Positive*%
%FSLAX46Y46*%
G04 Gerber Fmt 4.6, Leading zero omitted, Abs format (unit mm)*
G04 Created by KiCad (PCBNEW 7.0.2-1.fc38) date 2023-06-07 17:49:04*
%MOMM*%
%LPD*%
G01*
G04 APERTURE LIST*
%ADD10C,0.100000*%
%ADD11C,0.200000*%
%ADD12C,0.150000*%
%ADD13C,0.120000*%
G04 APERTURE END LIST*
D10*
X131142857Y-75502095D02*
X131295238Y-75502095D01*
X131295238Y-75502095D02*
X131371428Y-75540190D01*
X131371428Y-75540190D02*
X131447619Y-75616380D01*
X131447619Y-75616380D02*
X131485714Y-75768761D01*
X131485714Y-75768761D02*
X131485714Y-76035428D01*
X131485714Y-76035428D02*
X131447619Y-76187809D01*
X131447619Y-76187809D02*
X131371428Y-76264000D01*
X131371428Y-76264000D02*
X131295238Y-76302095D01*
X131295238Y-76302095D02*
X131142857Y-76302095D01*
X131142857Y-76302095D02*
X131066666Y-76264000D01*
X131066666Y-76264000D02*
X130990476Y-76187809D01*
X130990476Y-76187809D02*
X130952380Y-76035428D01*
X130952380Y-76035428D02*
X130952380Y-75768761D01*
X130952380Y-75768761D02*
X130990476Y-75616380D01*
X130990476Y-75616380D02*
X131066666Y-75540190D01*
X131066666Y-75540190D02*
X131142857Y-75502095D01*
X131828571Y-75768761D02*
X131828571Y-76302095D01*
X131828571Y-75844952D02*
X131866666Y-75806857D01*
X131866666Y-75806857D02*
X131942856Y-75768761D01*
X131942856Y-75768761D02*
X132057142Y-75768761D01*
X132057142Y-75768761D02*
X132133333Y-75806857D01*
X132133333Y-75806857D02*
X132171428Y-75883047D01*
X132171428Y-75883047D02*
X132171428Y-76302095D01*
X128342857Y-75502095D02*
X128495238Y-75502095D01*
X128495238Y-75502095D02*
X128571428Y-75540190D01*
X128571428Y-75540190D02*
X128647619Y-75616380D01*
X128647619Y-75616380D02*
X128685714Y-75768761D01*
X128685714Y-75768761D02*
X128685714Y-76035428D01*
X128685714Y-76035428D02*
X128647619Y-76187809D01*
X128647619Y-76187809D02*
X128571428Y-76264000D01*
X128571428Y-76264000D02*
X128495238Y-76302095D01*
X128495238Y-76302095D02*
X128342857Y-76302095D01*
X128342857Y-76302095D02*
X128266666Y-76264000D01*
X128266666Y-76264000D02*
X128190476Y-76187809D01*
X128190476Y-76187809D02*
X128152380Y-76035428D01*
X128152380Y-76035428D02*
X128152380Y-75768761D01*
X128152380Y-75768761D02*
X128190476Y-75616380D01*
X128190476Y-75616380D02*
X128266666Y-75540190D01*
X128266666Y-75540190D02*
X128342857Y-75502095D01*
X128914285Y-75768761D02*
X129219047Y-75768761D01*
X129028571Y-76302095D02*
X129028571Y-75616380D01*
X129028571Y-75616380D02*
X129066666Y-75540190D01*
X129066666Y-75540190D02*
X129142856Y-75502095D01*
X129142856Y-75502095D02*
X129219047Y-75502095D01*
X129371428Y-75768761D02*
X129676190Y-75768761D01*
X129485714Y-76302095D02*
X129485714Y-75616380D01*
X129485714Y-75616380D02*
X129523809Y-75540190D01*
X129523809Y-75540190D02*
X129599999Y-75502095D01*
X129599999Y-75502095D02*
X129676190Y-75502095D01*
X154209523Y-34840190D02*
X154133333Y-34802095D01*
X154133333Y-34802095D02*
X154019047Y-34802095D01*
X154019047Y-34802095D02*
X153904761Y-34840190D01*
X153904761Y-34840190D02*
X153828571Y-34916380D01*
X153828571Y-34916380D02*
X153790476Y-34992571D01*
X153790476Y-34992571D02*
X153752380Y-35144952D01*
X153752380Y-35144952D02*
X153752380Y-35259238D01*
X153752380Y-35259238D02*
X153790476Y-35411619D01*
X153790476Y-35411619D02*
X153828571Y-35487809D01*
X153828571Y-35487809D02*
X153904761Y-35564000D01*
X153904761Y-35564000D02*
X154019047Y-35602095D01*
X154019047Y-35602095D02*
X154095238Y-35602095D01*
X154095238Y-35602095D02*
X154209523Y-35564000D01*
X154209523Y-35564000D02*
X154247619Y-35525904D01*
X154247619Y-35525904D02*
X154247619Y-35259238D01*
X154247619Y-35259238D02*
X154095238Y-35259238D01*
X154590476Y-35602095D02*
X154590476Y-34802095D01*
X154590476Y-34802095D02*
X155047619Y-35602095D01*
X155047619Y-35602095D02*
X155047619Y-34802095D01*
X155428571Y-35602095D02*
X155428571Y-34802095D01*
X155428571Y-34802095D02*
X155619047Y-34802095D01*
X155619047Y-34802095D02*
X155733333Y-34840190D01*
X155733333Y-34840190D02*
X155809523Y-34916380D01*
X155809523Y-34916380D02*
X155847618Y-34992571D01*
X155847618Y-34992571D02*
X155885714Y-35144952D01*
X155885714Y-35144952D02*
X155885714Y-35259238D01*
X155885714Y-35259238D02*
X155847618Y-35411619D01*
X155847618Y-35411619D02*
X155809523Y-35487809D01*
X155809523Y-35487809D02*
X155733333Y-35564000D01*
X155733333Y-35564000D02*
X155619047Y-35602095D01*
X155619047Y-35602095D02*
X155428571Y-35602095D01*
X157347619Y-35602095D02*
X157080952Y-35221142D01*
X156890476Y-35602095D02*
X156890476Y-34802095D01*
X156890476Y-34802095D02*
X157195238Y-34802095D01*
X157195238Y-34802095D02*
X157271428Y-34840190D01*
X157271428Y-34840190D02*
X157309523Y-34878285D01*
X157309523Y-34878285D02*
X157347619Y-34954476D01*
X157347619Y-34954476D02*
X157347619Y-35068761D01*
X157347619Y-35068761D02*
X157309523Y-35144952D01*
X157309523Y-35144952D02*
X157271428Y-35183047D01*
X157271428Y-35183047D02*
X157195238Y-35221142D01*
X157195238Y-35221142D02*
X156890476Y-35221142D01*
X157614285Y-34802095D02*
X158147619Y-35602095D01*
X158147619Y-34802095D02*
X157614285Y-35602095D01*
X159376190Y-34802095D02*
X159833333Y-34802095D01*
X159604761Y-35602095D02*
X159604761Y-34802095D01*
X160023809Y-34802095D02*
X160557143Y-35602095D01*
X160557143Y-34802095D02*
X160023809Y-35602095D01*
D11*
X169142857Y-41092666D02*
X169380952Y-42492666D01*
X169380952Y-42492666D02*
X169571428Y-41492666D01*
X169571428Y-41492666D02*
X169761904Y-42492666D01*
X169761904Y-42492666D02*
X170000000Y-41092666D01*
X170809523Y-42492666D02*
X170809523Y-41759333D01*
X170809523Y-41759333D02*
X170761904Y-41626000D01*
X170761904Y-41626000D02*
X170666666Y-41559333D01*
X170666666Y-41559333D02*
X170476190Y-41559333D01*
X170476190Y-41559333D02*
X170380952Y-41626000D01*
X170809523Y-42426000D02*
X170714285Y-42492666D01*
X170714285Y-42492666D02*
X170476190Y-42492666D01*
X170476190Y-42492666D02*
X170380952Y-42426000D01*
X170380952Y-42426000D02*
X170333333Y-42292666D01*
X170333333Y-42292666D02*
X170333333Y-42159333D01*
X170333333Y-42159333D02*
X170380952Y-42026000D01*
X170380952Y-42026000D02*
X170476190Y-41959333D01*
X170476190Y-41959333D02*
X170714285Y-41959333D01*
X170714285Y-41959333D02*
X170809523Y-41892666D01*
X171428571Y-42492666D02*
X171333333Y-42426000D01*
X171333333Y-42426000D02*
X171285714Y-42292666D01*
X171285714Y-42292666D02*
X171285714Y-41092666D01*
X171809524Y-42492666D02*
X171809524Y-41092666D01*
X171904762Y-41959333D02*
X172190476Y-42492666D01*
X172190476Y-41559333D02*
X171809524Y-42092666D01*
X172666667Y-42426000D02*
X172666667Y-42492666D01*
X172666667Y-42492666D02*
X172619048Y-42626000D01*
X172619048Y-42626000D02*
X172571429Y-42692666D01*
X169380952Y-44760666D02*
X169285714Y-44694000D01*
X169285714Y-44694000D02*
X169238095Y-44560666D01*
X169238095Y-44560666D02*
X169238095Y-43360666D01*
X169904762Y-44760666D02*
X169809524Y-44694000D01*
X169809524Y-44694000D02*
X169761905Y-44627333D01*
X169761905Y-44627333D02*
X169714286Y-44494000D01*
X169714286Y-44494000D02*
X169714286Y-44094000D01*
X169714286Y-44094000D02*
X169761905Y-43960666D01*
X169761905Y-43960666D02*
X169809524Y-43894000D01*
X169809524Y-43894000D02*
X169904762Y-43827333D01*
X169904762Y-43827333D02*
X170047619Y-43827333D01*
X170047619Y-43827333D02*
X170142857Y-43894000D01*
X170142857Y-43894000D02*
X170190476Y-43960666D01*
X170190476Y-43960666D02*
X170238095Y-44094000D01*
X170238095Y-44094000D02*
X170238095Y-44494000D01*
X170238095Y-44494000D02*
X170190476Y-44627333D01*
X170190476Y-44627333D02*
X170142857Y-44694000D01*
X170142857Y-44694000D02*
X170047619Y-44760666D01*
X170047619Y-44760666D02*
X169904762Y-44760666D01*
X170619048Y-44694000D02*
X170714286Y-44760666D01*
X170714286Y-44760666D02*
X170904762Y-44760666D01*
X170904762Y-44760666D02*
X171000000Y-44694000D01*
X171000000Y-44694000D02*
X171047619Y-44560666D01*
X171047619Y-44560666D02*
X171047619Y-44494000D01*
X171047619Y-44494000D02*
X171000000Y-44360666D01*
X171000000Y-44360666D02*
X170904762Y-44294000D01*
X170904762Y-44294000D02*
X170761905Y-44294000D01*
X170761905Y-44294000D02*
X170666667Y-44227333D01*
X170666667Y-44227333D02*
X170619048Y-44094000D01*
X170619048Y-44094000D02*
X170619048Y-44027333D01*
X170619048Y-44027333D02*
X170666667Y-43894000D01*
X170666667Y-43894000D02*
X170761905Y-43827333D01*
X170761905Y-43827333D02*
X170904762Y-43827333D01*
X170904762Y-43827333D02*
X171000000Y-43894000D01*
X171857143Y-44694000D02*
X171761905Y-44760666D01*
X171761905Y-44760666D02*
X171571429Y-44760666D01*
X171571429Y-44760666D02*
X171476191Y-44694000D01*
X171476191Y-44694000D02*
X171428572Y-44560666D01*
X171428572Y-44560666D02*
X171428572Y-44027333D01*
X171428572Y-44027333D02*
X171476191Y-43894000D01*
X171476191Y-43894000D02*
X171571429Y-43827333D01*
X171571429Y-43827333D02*
X171761905Y-43827333D01*
X171761905Y-43827333D02*
X171857143Y-43894000D01*
X171857143Y-43894000D02*
X171904762Y-44027333D01*
X171904762Y-44027333D02*
X171904762Y-44160666D01*
X171904762Y-44160666D02*
X171428572Y-44294000D01*
X173000001Y-43827333D02*
X173238096Y-44760666D01*
X173476191Y-43827333D02*
X173238096Y-44760666D01*
X173238096Y-44760666D02*
X173142858Y-45094000D01*
X173142858Y-45094000D02*
X173095239Y-45160666D01*
X173095239Y-45160666D02*
X173000001Y-45227333D01*
X174000001Y-44760666D02*
X173904763Y-44694000D01*
X173904763Y-44694000D02*
X173857144Y-44627333D01*
X173857144Y-44627333D02*
X173809525Y-44494000D01*
X173809525Y-44494000D02*
X173809525Y-44094000D01*
X173809525Y-44094000D02*
X173857144Y-43960666D01*
X173857144Y-43960666D02*
X173904763Y-43894000D01*
X173904763Y-43894000D02*
X174000001Y-43827333D01*
X174000001Y-43827333D02*
X174142858Y-43827333D01*
X174142858Y-43827333D02*
X174238096Y-43894000D01*
X174238096Y-43894000D02*
X174285715Y-43960666D01*
X174285715Y-43960666D02*
X174333334Y-44094000D01*
X174333334Y-44094000D02*
X174333334Y-44494000D01*
X174333334Y-44494000D02*
X174285715Y-44627333D01*
X174285715Y-44627333D02*
X174238096Y-44694000D01*
X174238096Y-44694000D02*
X174142858Y-44760666D01*
X174142858Y-44760666D02*
X174000001Y-44760666D01*
X175190477Y-43827333D02*
X175190477Y-44760666D01*
X174761906Y-43827333D02*
X174761906Y-44560666D01*
X174761906Y-44560666D02*
X174809525Y-44694000D01*
X174809525Y-44694000D02*
X174904763Y-44760666D01*
X174904763Y-44760666D02*
X175047620Y-44760666D01*
X175047620Y-44760666D02*
X175142858Y-44694000D01*
X175142858Y-44694000D02*
X175190477Y-44627333D01*
X175666668Y-44760666D02*
X175666668Y-43827333D01*
X175666668Y-44094000D02*
X175714287Y-43960666D01*
X175714287Y-43960666D02*
X175761906Y-43894000D01*
X175761906Y-43894000D02*
X175857144Y-43827333D01*
X175857144Y-43827333D02*
X175952382Y-43827333D01*
X176238097Y-44694000D02*
X176333335Y-44760666D01*
X176333335Y-44760666D02*
X176523811Y-44760666D01*
X176523811Y-44760666D02*
X176619049Y-44694000D01*
X176619049Y-44694000D02*
X176666668Y-44560666D01*
X176666668Y-44560666D02*
X176666668Y-44494000D01*
X176666668Y-44494000D02*
X176619049Y-44360666D01*
X176619049Y-44360666D02*
X176523811Y-44294000D01*
X176523811Y-44294000D02*
X176380954Y-44294000D01*
X176380954Y-44294000D02*
X176285716Y-44227333D01*
X176285716Y-44227333D02*
X176238097Y-44094000D01*
X176238097Y-44094000D02*
X176238097Y-44027333D01*
X176238097Y-44027333D02*
X176285716Y-43894000D01*
X176285716Y-43894000D02*
X176380954Y-43827333D01*
X176380954Y-43827333D02*
X176523811Y-43827333D01*
X176523811Y-43827333D02*
X176619049Y-43894000D01*
X177476192Y-44694000D02*
X177380954Y-44760666D01*
X177380954Y-44760666D02*
X177190478Y-44760666D01*
X177190478Y-44760666D02*
X177095240Y-44694000D01*
X177095240Y-44694000D02*
X177047621Y-44560666D01*
X177047621Y-44560666D02*
X177047621Y-44027333D01*
X177047621Y-44027333D02*
X177095240Y-43894000D01*
X177095240Y-43894000D02*
X177190478Y-43827333D01*
X177190478Y-43827333D02*
X177380954Y-43827333D01*
X177380954Y-43827333D02*
X177476192Y-43894000D01*
X177476192Y-43894000D02*
X177523811Y-44027333D01*
X177523811Y-44027333D02*
X177523811Y-44160666D01*
X177523811Y-44160666D02*
X177047621Y-44294000D01*
X178095240Y-44760666D02*
X178000002Y-44694000D01*
X178000002Y-44694000D02*
X177952383Y-44560666D01*
X177952383Y-44560666D02*
X177952383Y-43360666D01*
X178333336Y-43827333D02*
X178714288Y-43827333D01*
X178476193Y-44760666D02*
X178476193Y-43560666D01*
X178476193Y-43560666D02*
X178523812Y-43427333D01*
X178523812Y-43427333D02*
X178619050Y-43360666D01*
X178619050Y-43360666D02*
X178714288Y-43360666D01*
X179095241Y-44694000D02*
X179095241Y-44760666D01*
X179095241Y-44760666D02*
X179047622Y-44894000D01*
X179047622Y-44894000D02*
X179000003Y-44960666D01*
X169238095Y-47028666D02*
X169238095Y-46095333D01*
X169238095Y-46362000D02*
X169285714Y-46228666D01*
X169285714Y-46228666D02*
X169333333Y-46162000D01*
X169333333Y-46162000D02*
X169428571Y-46095333D01*
X169428571Y-46095333D02*
X169523809Y-46095333D01*
X170238095Y-46962000D02*
X170142857Y-47028666D01*
X170142857Y-47028666D02*
X169952381Y-47028666D01*
X169952381Y-47028666D02*
X169857143Y-46962000D01*
X169857143Y-46962000D02*
X169809524Y-46828666D01*
X169809524Y-46828666D02*
X169809524Y-46295333D01*
X169809524Y-46295333D02*
X169857143Y-46162000D01*
X169857143Y-46162000D02*
X169952381Y-46095333D01*
X169952381Y-46095333D02*
X170142857Y-46095333D01*
X170142857Y-46095333D02*
X170238095Y-46162000D01*
X170238095Y-46162000D02*
X170285714Y-46295333D01*
X170285714Y-46295333D02*
X170285714Y-46428666D01*
X170285714Y-46428666D02*
X169809524Y-46562000D01*
X170571429Y-46095333D02*
X170952381Y-46095333D01*
X170714286Y-45628666D02*
X170714286Y-46828666D01*
X170714286Y-46828666D02*
X170761905Y-46962000D01*
X170761905Y-46962000D02*
X170857143Y-47028666D01*
X170857143Y-47028666D02*
X170952381Y-47028666D01*
X171714286Y-46095333D02*
X171714286Y-47028666D01*
X171285715Y-46095333D02*
X171285715Y-46828666D01*
X171285715Y-46828666D02*
X171333334Y-46962000D01*
X171333334Y-46962000D02*
X171428572Y-47028666D01*
X171428572Y-47028666D02*
X171571429Y-47028666D01*
X171571429Y-47028666D02*
X171666667Y-46962000D01*
X171666667Y-46962000D02*
X171714286Y-46895333D01*
X172190477Y-47028666D02*
X172190477Y-46095333D01*
X172190477Y-46362000D02*
X172238096Y-46228666D01*
X172238096Y-46228666D02*
X172285715Y-46162000D01*
X172285715Y-46162000D02*
X172380953Y-46095333D01*
X172380953Y-46095333D02*
X172476191Y-46095333D01*
X172809525Y-46095333D02*
X172809525Y-47028666D01*
X172809525Y-46228666D02*
X172857144Y-46162000D01*
X172857144Y-46162000D02*
X172952382Y-46095333D01*
X172952382Y-46095333D02*
X173095239Y-46095333D01*
X173095239Y-46095333D02*
X173190477Y-46162000D01*
X173190477Y-46162000D02*
X173238096Y-46295333D01*
X173238096Y-46295333D02*
X173238096Y-47028666D01*
D10*
%TO.C,R8*%
X117370095Y-51433332D02*
X116989142Y-51699999D01*
X117370095Y-51890475D02*
X116570095Y-51890475D01*
X116570095Y-51890475D02*
X116570095Y-51585713D01*
X116570095Y-51585713D02*
X116608190Y-51509523D01*
X116608190Y-51509523D02*
X116646285Y-51471428D01*
X116646285Y-51471428D02*
X116722476Y-51433332D01*
X116722476Y-51433332D02*
X116836761Y-51433332D01*
X116836761Y-51433332D02*
X116912952Y-51471428D01*
X116912952Y-51471428D02*
X116951047Y-51509523D01*
X116951047Y-51509523D02*
X116989142Y-51585713D01*
X116989142Y-51585713D02*
X116989142Y-51890475D01*
X116912952Y-50976190D02*
X116874857Y-51052380D01*
X116874857Y-51052380D02*
X116836761Y-51090475D01*
X116836761Y-51090475D02*
X116760571Y-51128571D01*
X116760571Y-51128571D02*
X116722476Y-51128571D01*
X116722476Y-51128571D02*
X116646285Y-51090475D01*
X116646285Y-51090475D02*
X116608190Y-51052380D01*
X116608190Y-51052380D02*
X116570095Y-50976190D01*
X116570095Y-50976190D02*
X116570095Y-50823809D01*
X116570095Y-50823809D02*
X116608190Y-50747618D01*
X116608190Y-50747618D02*
X116646285Y-50709523D01*
X116646285Y-50709523D02*
X116722476Y-50671428D01*
X116722476Y-50671428D02*
X116760571Y-50671428D01*
X116760571Y-50671428D02*
X116836761Y-50709523D01*
X116836761Y-50709523D02*
X116874857Y-50747618D01*
X116874857Y-50747618D02*
X116912952Y-50823809D01*
X116912952Y-50823809D02*
X116912952Y-50976190D01*
X116912952Y-50976190D02*
X116951047Y-51052380D01*
X116951047Y-51052380D02*
X116989142Y-51090475D01*
X116989142Y-51090475D02*
X117065333Y-51128571D01*
X117065333Y-51128571D02*
X117217714Y-51128571D01*
X117217714Y-51128571D02*
X117293904Y-51090475D01*
X117293904Y-51090475D02*
X117332000Y-51052380D01*
X117332000Y-51052380D02*
X117370095Y-50976190D01*
X117370095Y-50976190D02*
X117370095Y-50823809D01*
X117370095Y-50823809D02*
X117332000Y-50747618D01*
X117332000Y-50747618D02*
X117293904Y-50709523D01*
X117293904Y-50709523D02*
X117217714Y-50671428D01*
X117217714Y-50671428D02*
X117065333Y-50671428D01*
X117065333Y-50671428D02*
X116989142Y-50709523D01*
X116989142Y-50709523D02*
X116951047Y-50747618D01*
X116951047Y-50747618D02*
X116912952Y-50823809D01*
D12*
%TO.C,GY-271*%
X145615714Y-66970238D02*
X145520476Y-66922619D01*
X145520476Y-66922619D02*
X145377619Y-66922619D01*
X145377619Y-66922619D02*
X145234762Y-66970238D01*
X145234762Y-66970238D02*
X145139524Y-67065476D01*
X145139524Y-67065476D02*
X145091905Y-67160714D01*
X145091905Y-67160714D02*
X145044286Y-67351190D01*
X145044286Y-67351190D02*
X145044286Y-67494047D01*
X145044286Y-67494047D02*
X145091905Y-67684523D01*
X145091905Y-67684523D02*
X145139524Y-67779761D01*
X145139524Y-67779761D02*
X145234762Y-67875000D01*
X145234762Y-67875000D02*
X145377619Y-67922619D01*
X145377619Y-67922619D02*
X145472857Y-67922619D01*
X145472857Y-67922619D02*
X145615714Y-67875000D01*
X145615714Y-67875000D02*
X145663333Y-67827380D01*
X145663333Y-67827380D02*
X145663333Y-67494047D01*
X145663333Y-67494047D02*
X145472857Y-67494047D01*
X146282381Y-67446428D02*
X146282381Y-67922619D01*
X145949048Y-66922619D02*
X146282381Y-67446428D01*
X146282381Y-67446428D02*
X146615714Y-66922619D01*
X146949048Y-67541666D02*
X147710953Y-67541666D01*
X148139524Y-67017857D02*
X148187143Y-66970238D01*
X148187143Y-66970238D02*
X148282381Y-66922619D01*
X148282381Y-66922619D02*
X148520476Y-66922619D01*
X148520476Y-66922619D02*
X148615714Y-66970238D01*
X148615714Y-66970238D02*
X148663333Y-67017857D01*
X148663333Y-67017857D02*
X148710952Y-67113095D01*
X148710952Y-67113095D02*
X148710952Y-67208333D01*
X148710952Y-67208333D02*
X148663333Y-67351190D01*
X148663333Y-67351190D02*
X148091905Y-67922619D01*
X148091905Y-67922619D02*
X148710952Y-67922619D01*
X149044286Y-66922619D02*
X149710952Y-66922619D01*
X149710952Y-66922619D02*
X149282381Y-67922619D01*
X150615714Y-67922619D02*
X150044286Y-67922619D01*
X150330000Y-67922619D02*
X150330000Y-66922619D01*
X150330000Y-66922619D02*
X150234762Y-67065476D01*
X150234762Y-67065476D02*
X150139524Y-67160714D01*
X150139524Y-67160714D02*
X150044286Y-67208333D01*
D10*
X152776190Y-71602095D02*
X153042857Y-72402095D01*
X153042857Y-72402095D02*
X153309523Y-71602095D01*
X154033333Y-72325904D02*
X153995237Y-72364000D01*
X153995237Y-72364000D02*
X153880952Y-72402095D01*
X153880952Y-72402095D02*
X153804761Y-72402095D01*
X153804761Y-72402095D02*
X153690475Y-72364000D01*
X153690475Y-72364000D02*
X153614285Y-72287809D01*
X153614285Y-72287809D02*
X153576190Y-72211619D01*
X153576190Y-72211619D02*
X153538094Y-72059238D01*
X153538094Y-72059238D02*
X153538094Y-71944952D01*
X153538094Y-71944952D02*
X153576190Y-71792571D01*
X153576190Y-71792571D02*
X153614285Y-71716380D01*
X153614285Y-71716380D02*
X153690475Y-71640190D01*
X153690475Y-71640190D02*
X153804761Y-71602095D01*
X153804761Y-71602095D02*
X153880952Y-71602095D01*
X153880952Y-71602095D02*
X153995237Y-71640190D01*
X153995237Y-71640190D02*
X154033333Y-71678285D01*
X154833333Y-72325904D02*
X154795237Y-72364000D01*
X154795237Y-72364000D02*
X154680952Y-72402095D01*
X154680952Y-72402095D02*
X154604761Y-72402095D01*
X154604761Y-72402095D02*
X154490475Y-72364000D01*
X154490475Y-72364000D02*
X154414285Y-72287809D01*
X154414285Y-72287809D02*
X154376190Y-72211619D01*
X154376190Y-72211619D02*
X154338094Y-72059238D01*
X154338094Y-72059238D02*
X154338094Y-71944952D01*
X154338094Y-71944952D02*
X154376190Y-71792571D01*
X154376190Y-71792571D02*
X154414285Y-71716380D01*
X154414285Y-71716380D02*
X154490475Y-71640190D01*
X154490475Y-71640190D02*
X154604761Y-71602095D01*
X154604761Y-71602095D02*
X154680952Y-71602095D01*
X154680952Y-71602095D02*
X154795237Y-71640190D01*
X154795237Y-71640190D02*
X154833333Y-71678285D01*
X153209523Y-69140190D02*
X153133333Y-69102095D01*
X153133333Y-69102095D02*
X153019047Y-69102095D01*
X153019047Y-69102095D02*
X152904761Y-69140190D01*
X152904761Y-69140190D02*
X152828571Y-69216380D01*
X152828571Y-69216380D02*
X152790476Y-69292571D01*
X152790476Y-69292571D02*
X152752380Y-69444952D01*
X152752380Y-69444952D02*
X152752380Y-69559238D01*
X152752380Y-69559238D02*
X152790476Y-69711619D01*
X152790476Y-69711619D02*
X152828571Y-69787809D01*
X152828571Y-69787809D02*
X152904761Y-69864000D01*
X152904761Y-69864000D02*
X153019047Y-69902095D01*
X153019047Y-69902095D02*
X153095238Y-69902095D01*
X153095238Y-69902095D02*
X153209523Y-69864000D01*
X153209523Y-69864000D02*
X153247619Y-69825904D01*
X153247619Y-69825904D02*
X153247619Y-69559238D01*
X153247619Y-69559238D02*
X153095238Y-69559238D01*
X153590476Y-69902095D02*
X153590476Y-69102095D01*
X153590476Y-69102095D02*
X154047619Y-69902095D01*
X154047619Y-69902095D02*
X154047619Y-69102095D01*
X154428571Y-69902095D02*
X154428571Y-69102095D01*
X154428571Y-69102095D02*
X154619047Y-69102095D01*
X154619047Y-69102095D02*
X154733333Y-69140190D01*
X154733333Y-69140190D02*
X154809523Y-69216380D01*
X154809523Y-69216380D02*
X154847618Y-69292571D01*
X154847618Y-69292571D02*
X154885714Y-69444952D01*
X154885714Y-69444952D02*
X154885714Y-69559238D01*
X154885714Y-69559238D02*
X154847618Y-69711619D01*
X154847618Y-69711619D02*
X154809523Y-69787809D01*
X154809523Y-69787809D02*
X154733333Y-69864000D01*
X154733333Y-69864000D02*
X154619047Y-69902095D01*
X154619047Y-69902095D02*
X154428571Y-69902095D01*
X151890476Y-62202095D02*
X151890476Y-61402095D01*
X151890476Y-61402095D02*
X152080952Y-61402095D01*
X152080952Y-61402095D02*
X152195238Y-61440190D01*
X152195238Y-61440190D02*
X152271428Y-61516380D01*
X152271428Y-61516380D02*
X152309523Y-61592571D01*
X152309523Y-61592571D02*
X152347619Y-61744952D01*
X152347619Y-61744952D02*
X152347619Y-61859238D01*
X152347619Y-61859238D02*
X152309523Y-62011619D01*
X152309523Y-62011619D02*
X152271428Y-62087809D01*
X152271428Y-62087809D02*
X152195238Y-62164000D01*
X152195238Y-62164000D02*
X152080952Y-62202095D01*
X152080952Y-62202095D02*
X151890476Y-62202095D01*
X153147619Y-62202095D02*
X152880952Y-61821142D01*
X152690476Y-62202095D02*
X152690476Y-61402095D01*
X152690476Y-61402095D02*
X152995238Y-61402095D01*
X152995238Y-61402095D02*
X153071428Y-61440190D01*
X153071428Y-61440190D02*
X153109523Y-61478285D01*
X153109523Y-61478285D02*
X153147619Y-61554476D01*
X153147619Y-61554476D02*
X153147619Y-61668761D01*
X153147619Y-61668761D02*
X153109523Y-61744952D01*
X153109523Y-61744952D02*
X153071428Y-61783047D01*
X153071428Y-61783047D02*
X152995238Y-61821142D01*
X152995238Y-61821142D02*
X152690476Y-61821142D01*
X153490476Y-62202095D02*
X153490476Y-61402095D01*
X153490476Y-61402095D02*
X153680952Y-61402095D01*
X153680952Y-61402095D02*
X153795238Y-61440190D01*
X153795238Y-61440190D02*
X153871428Y-61516380D01*
X153871428Y-61516380D02*
X153909523Y-61592571D01*
X153909523Y-61592571D02*
X153947619Y-61744952D01*
X153947619Y-61744952D02*
X153947619Y-61859238D01*
X153947619Y-61859238D02*
X153909523Y-62011619D01*
X153909523Y-62011619D02*
X153871428Y-62087809D01*
X153871428Y-62087809D02*
X153795238Y-62164000D01*
X153795238Y-62164000D02*
X153680952Y-62202095D01*
X153680952Y-62202095D02*
X153490476Y-62202095D01*
X154442857Y-61821142D02*
X154442857Y-62202095D01*
X154176190Y-61402095D02*
X154442857Y-61821142D01*
X154442857Y-61821142D02*
X154709523Y-61402095D01*
X152852380Y-64764000D02*
X152966666Y-64802095D01*
X152966666Y-64802095D02*
X153157142Y-64802095D01*
X153157142Y-64802095D02*
X153233333Y-64764000D01*
X153233333Y-64764000D02*
X153271428Y-64725904D01*
X153271428Y-64725904D02*
X153309523Y-64649714D01*
X153309523Y-64649714D02*
X153309523Y-64573523D01*
X153309523Y-64573523D02*
X153271428Y-64497333D01*
X153271428Y-64497333D02*
X153233333Y-64459238D01*
X153233333Y-64459238D02*
X153157142Y-64421142D01*
X153157142Y-64421142D02*
X153004761Y-64383047D01*
X153004761Y-64383047D02*
X152928571Y-64344952D01*
X152928571Y-64344952D02*
X152890476Y-64306857D01*
X152890476Y-64306857D02*
X152852380Y-64230666D01*
X152852380Y-64230666D02*
X152852380Y-64154476D01*
X152852380Y-64154476D02*
X152890476Y-64078285D01*
X152890476Y-64078285D02*
X152928571Y-64040190D01*
X152928571Y-64040190D02*
X153004761Y-64002095D01*
X153004761Y-64002095D02*
X153195238Y-64002095D01*
X153195238Y-64002095D02*
X153309523Y-64040190D01*
X153652381Y-64802095D02*
X153652381Y-64002095D01*
X153652381Y-64002095D02*
X153842857Y-64002095D01*
X153842857Y-64002095D02*
X153957143Y-64040190D01*
X153957143Y-64040190D02*
X154033333Y-64116380D01*
X154033333Y-64116380D02*
X154071428Y-64192571D01*
X154071428Y-64192571D02*
X154109524Y-64344952D01*
X154109524Y-64344952D02*
X154109524Y-64459238D01*
X154109524Y-64459238D02*
X154071428Y-64611619D01*
X154071428Y-64611619D02*
X154033333Y-64687809D01*
X154033333Y-64687809D02*
X153957143Y-64764000D01*
X153957143Y-64764000D02*
X153842857Y-64802095D01*
X153842857Y-64802095D02*
X153652381Y-64802095D01*
X154414285Y-64573523D02*
X154795238Y-64573523D01*
X154338095Y-64802095D02*
X154604762Y-64002095D01*
X154604762Y-64002095D02*
X154871428Y-64802095D01*
X153052380Y-67264000D02*
X153166666Y-67302095D01*
X153166666Y-67302095D02*
X153357142Y-67302095D01*
X153357142Y-67302095D02*
X153433333Y-67264000D01*
X153433333Y-67264000D02*
X153471428Y-67225904D01*
X153471428Y-67225904D02*
X153509523Y-67149714D01*
X153509523Y-67149714D02*
X153509523Y-67073523D01*
X153509523Y-67073523D02*
X153471428Y-66997333D01*
X153471428Y-66997333D02*
X153433333Y-66959238D01*
X153433333Y-66959238D02*
X153357142Y-66921142D01*
X153357142Y-66921142D02*
X153204761Y-66883047D01*
X153204761Y-66883047D02*
X153128571Y-66844952D01*
X153128571Y-66844952D02*
X153090476Y-66806857D01*
X153090476Y-66806857D02*
X153052380Y-66730666D01*
X153052380Y-66730666D02*
X153052380Y-66654476D01*
X153052380Y-66654476D02*
X153090476Y-66578285D01*
X153090476Y-66578285D02*
X153128571Y-66540190D01*
X153128571Y-66540190D02*
X153204761Y-66502095D01*
X153204761Y-66502095D02*
X153395238Y-66502095D01*
X153395238Y-66502095D02*
X153509523Y-66540190D01*
X154309524Y-67225904D02*
X154271428Y-67264000D01*
X154271428Y-67264000D02*
X154157143Y-67302095D01*
X154157143Y-67302095D02*
X154080952Y-67302095D01*
X154080952Y-67302095D02*
X153966666Y-67264000D01*
X153966666Y-67264000D02*
X153890476Y-67187809D01*
X153890476Y-67187809D02*
X153852381Y-67111619D01*
X153852381Y-67111619D02*
X153814285Y-66959238D01*
X153814285Y-66959238D02*
X153814285Y-66844952D01*
X153814285Y-66844952D02*
X153852381Y-66692571D01*
X153852381Y-66692571D02*
X153890476Y-66616380D01*
X153890476Y-66616380D02*
X153966666Y-66540190D01*
X153966666Y-66540190D02*
X154080952Y-66502095D01*
X154080952Y-66502095D02*
X154157143Y-66502095D01*
X154157143Y-66502095D02*
X154271428Y-66540190D01*
X154271428Y-66540190D02*
X154309524Y-66578285D01*
X155033333Y-67302095D02*
X154652381Y-67302095D01*
X154652381Y-67302095D02*
X154652381Y-66502095D01*
D12*
%TO.C,LCD*%
X134209523Y-46202619D02*
X133733333Y-46202619D01*
X133733333Y-46202619D02*
X133733333Y-45202619D01*
X135114285Y-46107380D02*
X135066666Y-46155000D01*
X135066666Y-46155000D02*
X134923809Y-46202619D01*
X134923809Y-46202619D02*
X134828571Y-46202619D01*
X134828571Y-46202619D02*
X134685714Y-46155000D01*
X134685714Y-46155000D02*
X134590476Y-46059761D01*
X134590476Y-46059761D02*
X134542857Y-45964523D01*
X134542857Y-45964523D02*
X134495238Y-45774047D01*
X134495238Y-45774047D02*
X134495238Y-45631190D01*
X134495238Y-45631190D02*
X134542857Y-45440714D01*
X134542857Y-45440714D02*
X134590476Y-45345476D01*
X134590476Y-45345476D02*
X134685714Y-45250238D01*
X134685714Y-45250238D02*
X134828571Y-45202619D01*
X134828571Y-45202619D02*
X134923809Y-45202619D01*
X134923809Y-45202619D02*
X135066666Y-45250238D01*
X135066666Y-45250238D02*
X135114285Y-45297857D01*
X135542857Y-46202619D02*
X135542857Y-45202619D01*
X135542857Y-45202619D02*
X135780952Y-45202619D01*
X135780952Y-45202619D02*
X135923809Y-45250238D01*
X135923809Y-45250238D02*
X136019047Y-45345476D01*
X136019047Y-45345476D02*
X136066666Y-45440714D01*
X136066666Y-45440714D02*
X136114285Y-45631190D01*
X136114285Y-45631190D02*
X136114285Y-45774047D01*
X136114285Y-45774047D02*
X136066666Y-45964523D01*
X136066666Y-45964523D02*
X136019047Y-46059761D01*
X136019047Y-46059761D02*
X135923809Y-46155000D01*
X135923809Y-46155000D02*
X135780952Y-46202619D01*
X135780952Y-46202619D02*
X135542857Y-46202619D01*
D10*
X140025904Y-52052380D02*
X140064000Y-52090476D01*
X140064000Y-52090476D02*
X140102095Y-52204761D01*
X140102095Y-52204761D02*
X140102095Y-52280952D01*
X140102095Y-52280952D02*
X140064000Y-52395238D01*
X140064000Y-52395238D02*
X139987809Y-52471428D01*
X139987809Y-52471428D02*
X139911619Y-52509523D01*
X139911619Y-52509523D02*
X139759238Y-52547619D01*
X139759238Y-52547619D02*
X139644952Y-52547619D01*
X139644952Y-52547619D02*
X139492571Y-52509523D01*
X139492571Y-52509523D02*
X139416380Y-52471428D01*
X139416380Y-52471428D02*
X139340190Y-52395238D01*
X139340190Y-52395238D02*
X139302095Y-52280952D01*
X139302095Y-52280952D02*
X139302095Y-52204761D01*
X139302095Y-52204761D02*
X139340190Y-52090476D01*
X139340190Y-52090476D02*
X139378285Y-52052380D01*
X140064000Y-51747619D02*
X140102095Y-51633333D01*
X140102095Y-51633333D02*
X140102095Y-51442857D01*
X140102095Y-51442857D02*
X140064000Y-51366666D01*
X140064000Y-51366666D02*
X140025904Y-51328571D01*
X140025904Y-51328571D02*
X139949714Y-51290476D01*
X139949714Y-51290476D02*
X139873523Y-51290476D01*
X139873523Y-51290476D02*
X139797333Y-51328571D01*
X139797333Y-51328571D02*
X139759238Y-51366666D01*
X139759238Y-51366666D02*
X139721142Y-51442857D01*
X139721142Y-51442857D02*
X139683047Y-51595238D01*
X139683047Y-51595238D02*
X139644952Y-51671428D01*
X139644952Y-51671428D02*
X139606857Y-51709523D01*
X139606857Y-51709523D02*
X139530666Y-51747619D01*
X139530666Y-51747619D02*
X139454476Y-51747619D01*
X139454476Y-51747619D02*
X139378285Y-51709523D01*
X139378285Y-51709523D02*
X139340190Y-51671428D01*
X139340190Y-51671428D02*
X139302095Y-51595238D01*
X139302095Y-51595238D02*
X139302095Y-51404761D01*
X139302095Y-51404761D02*
X139340190Y-51290476D01*
X131702095Y-52523809D02*
X132502095Y-52257142D01*
X132502095Y-52257142D02*
X131702095Y-51990476D01*
X132425904Y-51266666D02*
X132464000Y-51304762D01*
X132464000Y-51304762D02*
X132502095Y-51419047D01*
X132502095Y-51419047D02*
X132502095Y-51495238D01*
X132502095Y-51495238D02*
X132464000Y-51609524D01*
X132464000Y-51609524D02*
X132387809Y-51685714D01*
X132387809Y-51685714D02*
X132311619Y-51723809D01*
X132311619Y-51723809D02*
X132159238Y-51761905D01*
X132159238Y-51761905D02*
X132044952Y-51761905D01*
X132044952Y-51761905D02*
X131892571Y-51723809D01*
X131892571Y-51723809D02*
X131816380Y-51685714D01*
X131816380Y-51685714D02*
X131740190Y-51609524D01*
X131740190Y-51609524D02*
X131702095Y-51495238D01*
X131702095Y-51495238D02*
X131702095Y-51419047D01*
X131702095Y-51419047D02*
X131740190Y-51304762D01*
X131740190Y-51304762D02*
X131778285Y-51266666D01*
X132425904Y-50466666D02*
X132464000Y-50504762D01*
X132464000Y-50504762D02*
X132502095Y-50619047D01*
X132502095Y-50619047D02*
X132502095Y-50695238D01*
X132502095Y-50695238D02*
X132464000Y-50809524D01*
X132464000Y-50809524D02*
X132387809Y-50885714D01*
X132387809Y-50885714D02*
X132311619Y-50923809D01*
X132311619Y-50923809D02*
X132159238Y-50961905D01*
X132159238Y-50961905D02*
X132044952Y-50961905D01*
X132044952Y-50961905D02*
X131892571Y-50923809D01*
X131892571Y-50923809D02*
X131816380Y-50885714D01*
X131816380Y-50885714D02*
X131740190Y-50809524D01*
X131740190Y-50809524D02*
X131702095Y-50695238D01*
X131702095Y-50695238D02*
X131702095Y-50619047D01*
X131702095Y-50619047D02*
X131740190Y-50504762D01*
X131740190Y-50504762D02*
X131778285Y-50466666D01*
X136802095Y-52485714D02*
X137602095Y-52295238D01*
X137602095Y-52295238D02*
X137030666Y-52142857D01*
X137030666Y-52142857D02*
X137602095Y-51990476D01*
X137602095Y-51990476D02*
X136802095Y-51800000D01*
X137602095Y-51038094D02*
X137221142Y-51304761D01*
X137602095Y-51495237D02*
X136802095Y-51495237D01*
X136802095Y-51495237D02*
X136802095Y-51190475D01*
X136802095Y-51190475D02*
X136840190Y-51114285D01*
X136840190Y-51114285D02*
X136878285Y-51076190D01*
X136878285Y-51076190D02*
X136954476Y-51038094D01*
X136954476Y-51038094D02*
X137068761Y-51038094D01*
X137068761Y-51038094D02*
X137144952Y-51076190D01*
X137144952Y-51076190D02*
X137183047Y-51114285D01*
X137183047Y-51114285D02*
X137221142Y-51190475D01*
X137221142Y-51190475D02*
X137221142Y-51495237D01*
X129140190Y-52090476D02*
X129102095Y-52166666D01*
X129102095Y-52166666D02*
X129102095Y-52280952D01*
X129102095Y-52280952D02*
X129140190Y-52395238D01*
X129140190Y-52395238D02*
X129216380Y-52471428D01*
X129216380Y-52471428D02*
X129292571Y-52509523D01*
X129292571Y-52509523D02*
X129444952Y-52547619D01*
X129444952Y-52547619D02*
X129559238Y-52547619D01*
X129559238Y-52547619D02*
X129711619Y-52509523D01*
X129711619Y-52509523D02*
X129787809Y-52471428D01*
X129787809Y-52471428D02*
X129864000Y-52395238D01*
X129864000Y-52395238D02*
X129902095Y-52280952D01*
X129902095Y-52280952D02*
X129902095Y-52204761D01*
X129902095Y-52204761D02*
X129864000Y-52090476D01*
X129864000Y-52090476D02*
X129825904Y-52052380D01*
X129825904Y-52052380D02*
X129559238Y-52052380D01*
X129559238Y-52052380D02*
X129559238Y-52204761D01*
X129902095Y-51709523D02*
X129102095Y-51709523D01*
X129102095Y-51709523D02*
X129902095Y-51252380D01*
X129902095Y-51252380D02*
X129102095Y-51252380D01*
X129902095Y-50871428D02*
X129102095Y-50871428D01*
X129102095Y-50871428D02*
X129102095Y-50680952D01*
X129102095Y-50680952D02*
X129140190Y-50566666D01*
X129140190Y-50566666D02*
X129216380Y-50490476D01*
X129216380Y-50490476D02*
X129292571Y-50452381D01*
X129292571Y-50452381D02*
X129444952Y-50414285D01*
X129444952Y-50414285D02*
X129559238Y-50414285D01*
X129559238Y-50414285D02*
X129711619Y-50452381D01*
X129711619Y-50452381D02*
X129787809Y-50490476D01*
X129787809Y-50490476D02*
X129864000Y-50566666D01*
X129864000Y-50566666D02*
X129902095Y-50680952D01*
X129902095Y-50680952D02*
X129902095Y-50871428D01*
X135002095Y-52509523D02*
X134202095Y-52509523D01*
X134202095Y-52509523D02*
X134202095Y-52319047D01*
X134202095Y-52319047D02*
X134240190Y-52204761D01*
X134240190Y-52204761D02*
X134316380Y-52128571D01*
X134316380Y-52128571D02*
X134392571Y-52090476D01*
X134392571Y-52090476D02*
X134544952Y-52052380D01*
X134544952Y-52052380D02*
X134659238Y-52052380D01*
X134659238Y-52052380D02*
X134811619Y-52090476D01*
X134811619Y-52090476D02*
X134887809Y-52128571D01*
X134887809Y-52128571D02*
X134964000Y-52204761D01*
X134964000Y-52204761D02*
X135002095Y-52319047D01*
X135002095Y-52319047D02*
X135002095Y-52509523D01*
X134773523Y-51747619D02*
X134773523Y-51366666D01*
X135002095Y-51823809D02*
X134202095Y-51557142D01*
X134202095Y-51557142D02*
X135002095Y-51290476D01*
%TO.C,R7*%
X111170095Y-55820832D02*
X110789142Y-56087499D01*
X111170095Y-56277975D02*
X110370095Y-56277975D01*
X110370095Y-56277975D02*
X110370095Y-55973213D01*
X110370095Y-55973213D02*
X110408190Y-55897023D01*
X110408190Y-55897023D02*
X110446285Y-55858928D01*
X110446285Y-55858928D02*
X110522476Y-55820832D01*
X110522476Y-55820832D02*
X110636761Y-55820832D01*
X110636761Y-55820832D02*
X110712952Y-55858928D01*
X110712952Y-55858928D02*
X110751047Y-55897023D01*
X110751047Y-55897023D02*
X110789142Y-55973213D01*
X110789142Y-55973213D02*
X110789142Y-56277975D01*
X110370095Y-55554166D02*
X110370095Y-55020832D01*
X110370095Y-55020832D02*
X111170095Y-55363690D01*
D12*
%TO.C,Oled*%
X133571904Y-47052619D02*
X133762380Y-47052619D01*
X133762380Y-47052619D02*
X133857618Y-47100238D01*
X133857618Y-47100238D02*
X133952856Y-47195476D01*
X133952856Y-47195476D02*
X134000475Y-47385952D01*
X134000475Y-47385952D02*
X134000475Y-47719285D01*
X134000475Y-47719285D02*
X133952856Y-47909761D01*
X133952856Y-47909761D02*
X133857618Y-48005000D01*
X133857618Y-48005000D02*
X133762380Y-48052619D01*
X133762380Y-48052619D02*
X133571904Y-48052619D01*
X133571904Y-48052619D02*
X133476666Y-48005000D01*
X133476666Y-48005000D02*
X133381428Y-47909761D01*
X133381428Y-47909761D02*
X133333809Y-47719285D01*
X133333809Y-47719285D02*
X133333809Y-47385952D01*
X133333809Y-47385952D02*
X133381428Y-47195476D01*
X133381428Y-47195476D02*
X133476666Y-47100238D01*
X133476666Y-47100238D02*
X133571904Y-47052619D01*
X134571904Y-48052619D02*
X134476666Y-48005000D01*
X134476666Y-48005000D02*
X134429047Y-47909761D01*
X134429047Y-47909761D02*
X134429047Y-47052619D01*
X135333809Y-48005000D02*
X135238571Y-48052619D01*
X135238571Y-48052619D02*
X135048095Y-48052619D01*
X135048095Y-48052619D02*
X134952857Y-48005000D01*
X134952857Y-48005000D02*
X134905238Y-47909761D01*
X134905238Y-47909761D02*
X134905238Y-47528809D01*
X134905238Y-47528809D02*
X134952857Y-47433571D01*
X134952857Y-47433571D02*
X135048095Y-47385952D01*
X135048095Y-47385952D02*
X135238571Y-47385952D01*
X135238571Y-47385952D02*
X135333809Y-47433571D01*
X135333809Y-47433571D02*
X135381428Y-47528809D01*
X135381428Y-47528809D02*
X135381428Y-47624047D01*
X135381428Y-47624047D02*
X134905238Y-47719285D01*
X136238571Y-48052619D02*
X136238571Y-47052619D01*
X136238571Y-48005000D02*
X136143333Y-48052619D01*
X136143333Y-48052619D02*
X135952857Y-48052619D01*
X135952857Y-48052619D02*
X135857619Y-48005000D01*
X135857619Y-48005000D02*
X135810000Y-47957380D01*
X135810000Y-47957380D02*
X135762381Y-47862142D01*
X135762381Y-47862142D02*
X135762381Y-47576428D01*
X135762381Y-47576428D02*
X135810000Y-47481190D01*
X135810000Y-47481190D02*
X135857619Y-47433571D01*
X135857619Y-47433571D02*
X135952857Y-47385952D01*
X135952857Y-47385952D02*
X136143333Y-47385952D01*
X136143333Y-47385952D02*
X136238571Y-47433571D01*
D10*
X129782380Y-56154000D02*
X129896666Y-56192095D01*
X129896666Y-56192095D02*
X130087142Y-56192095D01*
X130087142Y-56192095D02*
X130163333Y-56154000D01*
X130163333Y-56154000D02*
X130201428Y-56115904D01*
X130201428Y-56115904D02*
X130239523Y-56039714D01*
X130239523Y-56039714D02*
X130239523Y-55963523D01*
X130239523Y-55963523D02*
X130201428Y-55887333D01*
X130201428Y-55887333D02*
X130163333Y-55849238D01*
X130163333Y-55849238D02*
X130087142Y-55811142D01*
X130087142Y-55811142D02*
X129934761Y-55773047D01*
X129934761Y-55773047D02*
X129858571Y-55734952D01*
X129858571Y-55734952D02*
X129820476Y-55696857D01*
X129820476Y-55696857D02*
X129782380Y-55620666D01*
X129782380Y-55620666D02*
X129782380Y-55544476D01*
X129782380Y-55544476D02*
X129820476Y-55468285D01*
X129820476Y-55468285D02*
X129858571Y-55430190D01*
X129858571Y-55430190D02*
X129934761Y-55392095D01*
X129934761Y-55392095D02*
X130125238Y-55392095D01*
X130125238Y-55392095D02*
X130239523Y-55430190D01*
X130582381Y-56192095D02*
X130582381Y-55392095D01*
X130582381Y-55392095D02*
X130772857Y-55392095D01*
X130772857Y-55392095D02*
X130887143Y-55430190D01*
X130887143Y-55430190D02*
X130963333Y-55506380D01*
X130963333Y-55506380D02*
X131001428Y-55582571D01*
X131001428Y-55582571D02*
X131039524Y-55734952D01*
X131039524Y-55734952D02*
X131039524Y-55849238D01*
X131039524Y-55849238D02*
X131001428Y-56001619D01*
X131001428Y-56001619D02*
X130963333Y-56077809D01*
X130963333Y-56077809D02*
X130887143Y-56154000D01*
X130887143Y-56154000D02*
X130772857Y-56192095D01*
X130772857Y-56192095D02*
X130582381Y-56192095D01*
X131344285Y-55963523D02*
X131725238Y-55963523D01*
X131268095Y-56192095D02*
X131534762Y-55392095D01*
X131534762Y-55392095D02*
X131801428Y-56192095D01*
X137719523Y-55410190D02*
X137643333Y-55372095D01*
X137643333Y-55372095D02*
X137529047Y-55372095D01*
X137529047Y-55372095D02*
X137414761Y-55410190D01*
X137414761Y-55410190D02*
X137338571Y-55486380D01*
X137338571Y-55486380D02*
X137300476Y-55562571D01*
X137300476Y-55562571D02*
X137262380Y-55714952D01*
X137262380Y-55714952D02*
X137262380Y-55829238D01*
X137262380Y-55829238D02*
X137300476Y-55981619D01*
X137300476Y-55981619D02*
X137338571Y-56057809D01*
X137338571Y-56057809D02*
X137414761Y-56134000D01*
X137414761Y-56134000D02*
X137529047Y-56172095D01*
X137529047Y-56172095D02*
X137605238Y-56172095D01*
X137605238Y-56172095D02*
X137719523Y-56134000D01*
X137719523Y-56134000D02*
X137757619Y-56095904D01*
X137757619Y-56095904D02*
X137757619Y-55829238D01*
X137757619Y-55829238D02*
X137605238Y-55829238D01*
X138100476Y-56172095D02*
X138100476Y-55372095D01*
X138100476Y-55372095D02*
X138557619Y-56172095D01*
X138557619Y-56172095D02*
X138557619Y-55372095D01*
X138938571Y-56172095D02*
X138938571Y-55372095D01*
X138938571Y-55372095D02*
X139129047Y-55372095D01*
X139129047Y-55372095D02*
X139243333Y-55410190D01*
X139243333Y-55410190D02*
X139319523Y-55486380D01*
X139319523Y-55486380D02*
X139357618Y-55562571D01*
X139357618Y-55562571D02*
X139395714Y-55714952D01*
X139395714Y-55714952D02*
X139395714Y-55829238D01*
X139395714Y-55829238D02*
X139357618Y-55981619D01*
X139357618Y-55981619D02*
X139319523Y-56057809D01*
X139319523Y-56057809D02*
X139243333Y-56134000D01*
X139243333Y-56134000D02*
X139129047Y-56172095D01*
X139129047Y-56172095D02*
X138938571Y-56172095D01*
X134764285Y-55412095D02*
X135259523Y-55412095D01*
X135259523Y-55412095D02*
X134992857Y-55716857D01*
X134992857Y-55716857D02*
X135107142Y-55716857D01*
X135107142Y-55716857D02*
X135183333Y-55754952D01*
X135183333Y-55754952D02*
X135221428Y-55793047D01*
X135221428Y-55793047D02*
X135259523Y-55869238D01*
X135259523Y-55869238D02*
X135259523Y-56059714D01*
X135259523Y-56059714D02*
X135221428Y-56135904D01*
X135221428Y-56135904D02*
X135183333Y-56174000D01*
X135183333Y-56174000D02*
X135107142Y-56212095D01*
X135107142Y-56212095D02*
X134878571Y-56212095D01*
X134878571Y-56212095D02*
X134802380Y-56174000D01*
X134802380Y-56174000D02*
X134764285Y-56135904D01*
X135488095Y-55412095D02*
X135754762Y-56212095D01*
X135754762Y-56212095D02*
X136021428Y-55412095D01*
X136211904Y-55412095D02*
X136707142Y-55412095D01*
X136707142Y-55412095D02*
X136440476Y-55716857D01*
X136440476Y-55716857D02*
X136554761Y-55716857D01*
X136554761Y-55716857D02*
X136630952Y-55754952D01*
X136630952Y-55754952D02*
X136669047Y-55793047D01*
X136669047Y-55793047D02*
X136707142Y-55869238D01*
X136707142Y-55869238D02*
X136707142Y-56059714D01*
X136707142Y-56059714D02*
X136669047Y-56135904D01*
X136669047Y-56135904D02*
X136630952Y-56174000D01*
X136630952Y-56174000D02*
X136554761Y-56212095D01*
X136554761Y-56212095D02*
X136326190Y-56212095D01*
X136326190Y-56212095D02*
X136249999Y-56174000D01*
X136249999Y-56174000D02*
X136211904Y-56135904D01*
X132192380Y-56144000D02*
X132306666Y-56182095D01*
X132306666Y-56182095D02*
X132497142Y-56182095D01*
X132497142Y-56182095D02*
X132573333Y-56144000D01*
X132573333Y-56144000D02*
X132611428Y-56105904D01*
X132611428Y-56105904D02*
X132649523Y-56029714D01*
X132649523Y-56029714D02*
X132649523Y-55953523D01*
X132649523Y-55953523D02*
X132611428Y-55877333D01*
X132611428Y-55877333D02*
X132573333Y-55839238D01*
X132573333Y-55839238D02*
X132497142Y-55801142D01*
X132497142Y-55801142D02*
X132344761Y-55763047D01*
X132344761Y-55763047D02*
X132268571Y-55724952D01*
X132268571Y-55724952D02*
X132230476Y-55686857D01*
X132230476Y-55686857D02*
X132192380Y-55610666D01*
X132192380Y-55610666D02*
X132192380Y-55534476D01*
X132192380Y-55534476D02*
X132230476Y-55458285D01*
X132230476Y-55458285D02*
X132268571Y-55420190D01*
X132268571Y-55420190D02*
X132344761Y-55382095D01*
X132344761Y-55382095D02*
X132535238Y-55382095D01*
X132535238Y-55382095D02*
X132649523Y-55420190D01*
X133449524Y-56105904D02*
X133411428Y-56144000D01*
X133411428Y-56144000D02*
X133297143Y-56182095D01*
X133297143Y-56182095D02*
X133220952Y-56182095D01*
X133220952Y-56182095D02*
X133106666Y-56144000D01*
X133106666Y-56144000D02*
X133030476Y-56067809D01*
X133030476Y-56067809D02*
X132992381Y-55991619D01*
X132992381Y-55991619D02*
X132954285Y-55839238D01*
X132954285Y-55839238D02*
X132954285Y-55724952D01*
X132954285Y-55724952D02*
X132992381Y-55572571D01*
X132992381Y-55572571D02*
X133030476Y-55496380D01*
X133030476Y-55496380D02*
X133106666Y-55420190D01*
X133106666Y-55420190D02*
X133220952Y-55382095D01*
X133220952Y-55382095D02*
X133297143Y-55382095D01*
X133297143Y-55382095D02*
X133411428Y-55420190D01*
X133411428Y-55420190D02*
X133449524Y-55458285D01*
X134173333Y-56182095D02*
X133792381Y-56182095D01*
X133792381Y-56182095D02*
X133792381Y-55382095D01*
%TO.C,R4*%
X121620095Y-60133332D02*
X121239142Y-60399999D01*
X121620095Y-60590475D02*
X120820095Y-60590475D01*
X120820095Y-60590475D02*
X120820095Y-60285713D01*
X120820095Y-60285713D02*
X120858190Y-60209523D01*
X120858190Y-60209523D02*
X120896285Y-60171428D01*
X120896285Y-60171428D02*
X120972476Y-60133332D01*
X120972476Y-60133332D02*
X121086761Y-60133332D01*
X121086761Y-60133332D02*
X121162952Y-60171428D01*
X121162952Y-60171428D02*
X121201047Y-60209523D01*
X121201047Y-60209523D02*
X121239142Y-60285713D01*
X121239142Y-60285713D02*
X121239142Y-60590475D01*
X121086761Y-59447618D02*
X121620095Y-59447618D01*
X120782000Y-59638094D02*
X121353428Y-59828571D01*
X121353428Y-59828571D02*
X121353428Y-59333332D01*
D12*
%TO.C,GPS*%
X129085714Y-68610238D02*
X128990476Y-68562619D01*
X128990476Y-68562619D02*
X128847619Y-68562619D01*
X128847619Y-68562619D02*
X128704762Y-68610238D01*
X128704762Y-68610238D02*
X128609524Y-68705476D01*
X128609524Y-68705476D02*
X128561905Y-68800714D01*
X128561905Y-68800714D02*
X128514286Y-68991190D01*
X128514286Y-68991190D02*
X128514286Y-69134047D01*
X128514286Y-69134047D02*
X128561905Y-69324523D01*
X128561905Y-69324523D02*
X128609524Y-69419761D01*
X128609524Y-69419761D02*
X128704762Y-69515000D01*
X128704762Y-69515000D02*
X128847619Y-69562619D01*
X128847619Y-69562619D02*
X128942857Y-69562619D01*
X128942857Y-69562619D02*
X129085714Y-69515000D01*
X129085714Y-69515000D02*
X129133333Y-69467380D01*
X129133333Y-69467380D02*
X129133333Y-69134047D01*
X129133333Y-69134047D02*
X128942857Y-69134047D01*
X129561905Y-69562619D02*
X129561905Y-68562619D01*
X129561905Y-68562619D02*
X129942857Y-68562619D01*
X129942857Y-68562619D02*
X130038095Y-68610238D01*
X130038095Y-68610238D02*
X130085714Y-68657857D01*
X130085714Y-68657857D02*
X130133333Y-68753095D01*
X130133333Y-68753095D02*
X130133333Y-68895952D01*
X130133333Y-68895952D02*
X130085714Y-68991190D01*
X130085714Y-68991190D02*
X130038095Y-69038809D01*
X130038095Y-69038809D02*
X129942857Y-69086428D01*
X129942857Y-69086428D02*
X129561905Y-69086428D01*
X130514286Y-69515000D02*
X130657143Y-69562619D01*
X130657143Y-69562619D02*
X130895238Y-69562619D01*
X130895238Y-69562619D02*
X130990476Y-69515000D01*
X130990476Y-69515000D02*
X131038095Y-69467380D01*
X131038095Y-69467380D02*
X131085714Y-69372142D01*
X131085714Y-69372142D02*
X131085714Y-69276904D01*
X131085714Y-69276904D02*
X131038095Y-69181666D01*
X131038095Y-69181666D02*
X130990476Y-69134047D01*
X130990476Y-69134047D02*
X130895238Y-69086428D01*
X130895238Y-69086428D02*
X130704762Y-69038809D01*
X130704762Y-69038809D02*
X130609524Y-68991190D01*
X130609524Y-68991190D02*
X130561905Y-68943571D01*
X130561905Y-68943571D02*
X130514286Y-68848333D01*
X130514286Y-68848333D02*
X130514286Y-68753095D01*
X130514286Y-68753095D02*
X130561905Y-68657857D01*
X130561905Y-68657857D02*
X130609524Y-68610238D01*
X130609524Y-68610238D02*
X130704762Y-68562619D01*
X130704762Y-68562619D02*
X130942857Y-68562619D01*
X130942857Y-68562619D02*
X131085714Y-68610238D01*
D10*
%TO.C,R9*%
X117170095Y-47308332D02*
X116789142Y-47574999D01*
X117170095Y-47765475D02*
X116370095Y-47765475D01*
X116370095Y-47765475D02*
X116370095Y-47460713D01*
X116370095Y-47460713D02*
X116408190Y-47384523D01*
X116408190Y-47384523D02*
X116446285Y-47346428D01*
X116446285Y-47346428D02*
X116522476Y-47308332D01*
X116522476Y-47308332D02*
X116636761Y-47308332D01*
X116636761Y-47308332D02*
X116712952Y-47346428D01*
X116712952Y-47346428D02*
X116751047Y-47384523D01*
X116751047Y-47384523D02*
X116789142Y-47460713D01*
X116789142Y-47460713D02*
X116789142Y-47765475D01*
X117170095Y-46927380D02*
X117170095Y-46774999D01*
X117170095Y-46774999D02*
X117132000Y-46698809D01*
X117132000Y-46698809D02*
X117093904Y-46660713D01*
X117093904Y-46660713D02*
X116979619Y-46584523D01*
X116979619Y-46584523D02*
X116827238Y-46546428D01*
X116827238Y-46546428D02*
X116522476Y-46546428D01*
X116522476Y-46546428D02*
X116446285Y-46584523D01*
X116446285Y-46584523D02*
X116408190Y-46622618D01*
X116408190Y-46622618D02*
X116370095Y-46698809D01*
X116370095Y-46698809D02*
X116370095Y-46851190D01*
X116370095Y-46851190D02*
X116408190Y-46927380D01*
X116408190Y-46927380D02*
X116446285Y-46965475D01*
X116446285Y-46965475D02*
X116522476Y-47003571D01*
X116522476Y-47003571D02*
X116712952Y-47003571D01*
X116712952Y-47003571D02*
X116789142Y-46965475D01*
X116789142Y-46965475D02*
X116827238Y-46927380D01*
X116827238Y-46927380D02*
X116865333Y-46851190D01*
X116865333Y-46851190D02*
X116865333Y-46698809D01*
X116865333Y-46698809D02*
X116827238Y-46622618D01*
X116827238Y-46622618D02*
X116789142Y-46584523D01*
X116789142Y-46584523D02*
X116712952Y-46546428D01*
D12*
%TO.C,En*%
X111138809Y-64566666D02*
X111138809Y-64233333D01*
X111662619Y-64090476D02*
X111662619Y-64566666D01*
X111662619Y-64566666D02*
X110662619Y-64566666D01*
X110662619Y-64566666D02*
X110662619Y-64090476D01*
X110995952Y-63661904D02*
X111662619Y-63661904D01*
X111091190Y-63661904D02*
X111043571Y-63614285D01*
X111043571Y-63614285D02*
X110995952Y-63519047D01*
X110995952Y-63519047D02*
X110995952Y-63376190D01*
X110995952Y-63376190D02*
X111043571Y-63280952D01*
X111043571Y-63280952D02*
X111138809Y-63233333D01*
X111138809Y-63233333D02*
X111662619Y-63233333D01*
%TO.C,Prog*%
X116762619Y-60676190D02*
X115762619Y-60676190D01*
X115762619Y-60676190D02*
X115762619Y-60295238D01*
X115762619Y-60295238D02*
X115810238Y-60200000D01*
X115810238Y-60200000D02*
X115857857Y-60152381D01*
X115857857Y-60152381D02*
X115953095Y-60104762D01*
X115953095Y-60104762D02*
X116095952Y-60104762D01*
X116095952Y-60104762D02*
X116191190Y-60152381D01*
X116191190Y-60152381D02*
X116238809Y-60200000D01*
X116238809Y-60200000D02*
X116286428Y-60295238D01*
X116286428Y-60295238D02*
X116286428Y-60676190D01*
X116762619Y-59676190D02*
X116095952Y-59676190D01*
X116286428Y-59676190D02*
X116191190Y-59628571D01*
X116191190Y-59628571D02*
X116143571Y-59580952D01*
X116143571Y-59580952D02*
X116095952Y-59485714D01*
X116095952Y-59485714D02*
X116095952Y-59390476D01*
X116762619Y-58914285D02*
X116715000Y-59009523D01*
X116715000Y-59009523D02*
X116667380Y-59057142D01*
X116667380Y-59057142D02*
X116572142Y-59104761D01*
X116572142Y-59104761D02*
X116286428Y-59104761D01*
X116286428Y-59104761D02*
X116191190Y-59057142D01*
X116191190Y-59057142D02*
X116143571Y-59009523D01*
X116143571Y-59009523D02*
X116095952Y-58914285D01*
X116095952Y-58914285D02*
X116095952Y-58771428D01*
X116095952Y-58771428D02*
X116143571Y-58676190D01*
X116143571Y-58676190D02*
X116191190Y-58628571D01*
X116191190Y-58628571D02*
X116286428Y-58580952D01*
X116286428Y-58580952D02*
X116572142Y-58580952D01*
X116572142Y-58580952D02*
X116667380Y-58628571D01*
X116667380Y-58628571D02*
X116715000Y-58676190D01*
X116715000Y-58676190D02*
X116762619Y-58771428D01*
X116762619Y-58771428D02*
X116762619Y-58914285D01*
X116095952Y-57723809D02*
X116905476Y-57723809D01*
X116905476Y-57723809D02*
X117000714Y-57771428D01*
X117000714Y-57771428D02*
X117048333Y-57819047D01*
X117048333Y-57819047D02*
X117095952Y-57914285D01*
X117095952Y-57914285D02*
X117095952Y-58057142D01*
X117095952Y-58057142D02*
X117048333Y-58152380D01*
X116715000Y-57723809D02*
X116762619Y-57819047D01*
X116762619Y-57819047D02*
X116762619Y-58009523D01*
X116762619Y-58009523D02*
X116715000Y-58104761D01*
X116715000Y-58104761D02*
X116667380Y-58152380D01*
X116667380Y-58152380D02*
X116572142Y-58199999D01*
X116572142Y-58199999D02*
X116286428Y-58199999D01*
X116286428Y-58199999D02*
X116191190Y-58152380D01*
X116191190Y-58152380D02*
X116143571Y-58104761D01*
X116143571Y-58104761D02*
X116095952Y-58009523D01*
X116095952Y-58009523D02*
X116095952Y-57819047D01*
X116095952Y-57819047D02*
X116143571Y-57723809D01*
D10*
%TO.C,C3*%
X121493904Y-65595832D02*
X121532000Y-65633928D01*
X121532000Y-65633928D02*
X121570095Y-65748213D01*
X121570095Y-65748213D02*
X121570095Y-65824404D01*
X121570095Y-65824404D02*
X121532000Y-65938690D01*
X121532000Y-65938690D02*
X121455809Y-66014880D01*
X121455809Y-66014880D02*
X121379619Y-66052975D01*
X121379619Y-66052975D02*
X121227238Y-66091071D01*
X121227238Y-66091071D02*
X121112952Y-66091071D01*
X121112952Y-66091071D02*
X120960571Y-66052975D01*
X120960571Y-66052975D02*
X120884380Y-66014880D01*
X120884380Y-66014880D02*
X120808190Y-65938690D01*
X120808190Y-65938690D02*
X120770095Y-65824404D01*
X120770095Y-65824404D02*
X120770095Y-65748213D01*
X120770095Y-65748213D02*
X120808190Y-65633928D01*
X120808190Y-65633928D02*
X120846285Y-65595832D01*
X120770095Y-65329166D02*
X120770095Y-64833928D01*
X120770095Y-64833928D02*
X121074857Y-65100594D01*
X121074857Y-65100594D02*
X121074857Y-64986309D01*
X121074857Y-64986309D02*
X121112952Y-64910118D01*
X121112952Y-64910118D02*
X121151047Y-64872023D01*
X121151047Y-64872023D02*
X121227238Y-64833928D01*
X121227238Y-64833928D02*
X121417714Y-64833928D01*
X121417714Y-64833928D02*
X121493904Y-64872023D01*
X121493904Y-64872023D02*
X121532000Y-64910118D01*
X121532000Y-64910118D02*
X121570095Y-64986309D01*
X121570095Y-64986309D02*
X121570095Y-65214880D01*
X121570095Y-65214880D02*
X121532000Y-65291071D01*
X121532000Y-65291071D02*
X121493904Y-65329166D01*
%TO.C,C4*%
X119993904Y-72533332D02*
X120032000Y-72571428D01*
X120032000Y-72571428D02*
X120070095Y-72685713D01*
X120070095Y-72685713D02*
X120070095Y-72761904D01*
X120070095Y-72761904D02*
X120032000Y-72876190D01*
X120032000Y-72876190D02*
X119955809Y-72952380D01*
X119955809Y-72952380D02*
X119879619Y-72990475D01*
X119879619Y-72990475D02*
X119727238Y-73028571D01*
X119727238Y-73028571D02*
X119612952Y-73028571D01*
X119612952Y-73028571D02*
X119460571Y-72990475D01*
X119460571Y-72990475D02*
X119384380Y-72952380D01*
X119384380Y-72952380D02*
X119308190Y-72876190D01*
X119308190Y-72876190D02*
X119270095Y-72761904D01*
X119270095Y-72761904D02*
X119270095Y-72685713D01*
X119270095Y-72685713D02*
X119308190Y-72571428D01*
X119308190Y-72571428D02*
X119346285Y-72533332D01*
X119536761Y-71847618D02*
X120070095Y-71847618D01*
X119232000Y-72038094D02*
X119803428Y-72228571D01*
X119803428Y-72228571D02*
X119803428Y-71733332D01*
%TO.C,R10*%
X118470095Y-41314285D02*
X118089142Y-41580952D01*
X118470095Y-41771428D02*
X117670095Y-41771428D01*
X117670095Y-41771428D02*
X117670095Y-41466666D01*
X117670095Y-41466666D02*
X117708190Y-41390476D01*
X117708190Y-41390476D02*
X117746285Y-41352381D01*
X117746285Y-41352381D02*
X117822476Y-41314285D01*
X117822476Y-41314285D02*
X117936761Y-41314285D01*
X117936761Y-41314285D02*
X118012952Y-41352381D01*
X118012952Y-41352381D02*
X118051047Y-41390476D01*
X118051047Y-41390476D02*
X118089142Y-41466666D01*
X118089142Y-41466666D02*
X118089142Y-41771428D01*
X118470095Y-40552381D02*
X118470095Y-41009524D01*
X118470095Y-40780952D02*
X117670095Y-40780952D01*
X117670095Y-40780952D02*
X117784380Y-40857143D01*
X117784380Y-40857143D02*
X117860571Y-40933333D01*
X117860571Y-40933333D02*
X117898666Y-41009524D01*
X117670095Y-40057142D02*
X117670095Y-39980952D01*
X117670095Y-39980952D02*
X117708190Y-39904761D01*
X117708190Y-39904761D02*
X117746285Y-39866666D01*
X117746285Y-39866666D02*
X117822476Y-39828571D01*
X117822476Y-39828571D02*
X117974857Y-39790476D01*
X117974857Y-39790476D02*
X118165333Y-39790476D01*
X118165333Y-39790476D02*
X118317714Y-39828571D01*
X118317714Y-39828571D02*
X118393904Y-39866666D01*
X118393904Y-39866666D02*
X118432000Y-39904761D01*
X118432000Y-39904761D02*
X118470095Y-39980952D01*
X118470095Y-39980952D02*
X118470095Y-40057142D01*
X118470095Y-40057142D02*
X118432000Y-40133333D01*
X118432000Y-40133333D02*
X118393904Y-40171428D01*
X118393904Y-40171428D02*
X118317714Y-40209523D01*
X118317714Y-40209523D02*
X118165333Y-40247619D01*
X118165333Y-40247619D02*
X117974857Y-40247619D01*
X117974857Y-40247619D02*
X117822476Y-40209523D01*
X117822476Y-40209523D02*
X117746285Y-40171428D01*
X117746285Y-40171428D02*
X117708190Y-40133333D01*
X117708190Y-40133333D02*
X117670095Y-40057142D01*
D13*
%TO.C,SWdown1*%
X172100000Y-56850000D02*
X173600000Y-56850000D01*
X176100000Y-55600000D02*
X176100000Y-51100000D01*
X169600000Y-51100000D02*
X169600000Y-55600000D01*
X173600000Y-49850000D02*
X172100000Y-49850000D01*
%TO.C,R8*%
X116477500Y-54154724D02*
X116477500Y-53645276D01*
X117522500Y-54154724D02*
X117522500Y-53645276D01*
%TO.C,SWright1*%
X162800000Y-47300000D02*
X164300000Y-47300000D01*
X166800000Y-46050000D02*
X166800000Y-41550000D01*
X160300000Y-41550000D02*
X160300000Y-46050000D01*
X164300000Y-40300000D02*
X162800000Y-40300000D01*
%TO.C,R7*%
X110277500Y-52845276D02*
X110277500Y-53354724D01*
X111322500Y-52845276D02*
X111322500Y-53354724D01*
%TO.C,SWleft1*%
X162800000Y-56850000D02*
X164300000Y-56850000D01*
X166800000Y-55600000D02*
X166800000Y-51100000D01*
X160300000Y-51100000D02*
X160300000Y-55600000D01*
X164300000Y-49850000D02*
X162800000Y-49850000D01*
%TO.C,SWb1*%
X175200000Y-66400000D02*
X176700000Y-66400000D01*
X179200000Y-65150000D02*
X179200000Y-60650000D01*
X172700000Y-60650000D02*
X172700000Y-65150000D01*
X176700000Y-59400000D02*
X175200000Y-59400000D01*
%TO.C,R4*%
X121772500Y-62495276D02*
X121772500Y-63004724D01*
X120727500Y-62495276D02*
X120727500Y-63004724D01*
%TO.C,SWa1*%
X162800000Y-66450000D02*
X164300000Y-66450000D01*
X166800000Y-65200000D02*
X166800000Y-60700000D01*
X160300000Y-60700000D02*
X160300000Y-65200000D01*
X164300000Y-59450000D02*
X162800000Y-59450000D01*
%TO.C,SWup1*%
X153500000Y-56850000D02*
X155000000Y-56850000D01*
X157500000Y-55600000D02*
X157500000Y-51100000D01*
X151000000Y-51100000D02*
X151000000Y-55600000D01*
X155000000Y-49850000D02*
X153500000Y-49850000D01*
%TO.C,R9*%
X117577500Y-47442224D02*
X117577500Y-46932776D01*
X118622500Y-47442224D02*
X118622500Y-46932776D01*
%TO.C,C3*%
X120465000Y-68523752D02*
X120465000Y-68001248D01*
X121935000Y-68523752D02*
X121935000Y-68001248D01*
%TO.C,C4*%
X121935000Y-72138748D02*
X121935000Y-72661252D01*
X120465000Y-72138748D02*
X120465000Y-72661252D01*
%TO.C,R10*%
X117577500Y-43842224D02*
X117577500Y-43332776D01*
X118622500Y-43842224D02*
X118622500Y-43332776D01*
%TD*%
M02*
