%TF.GenerationSoftware,KiCad,Pcbnew,7.0.5-1.fc38*%
%TF.CreationDate,2023-06-12T10:00:33+02:00*%
%TF.ProjectId,gps_compass,6770735f-636f-46d7-9061-73732e6b6963,rev?*%
%TF.SameCoordinates,Original*%
%TF.FileFunction,Copper,L1,Top*%
%TF.FilePolarity,Positive*%
%FSLAX46Y46*%
G04 Gerber Fmt 4.6, Leading zero omitted, Abs format (unit mm)*
G04 Created by KiCad (PCBNEW 7.0.5-1.fc38) date 2023-06-12 10:00:33*
%MOMM*%
%LPD*%
G01*
G04 APERTURE LIST*
G04 Aperture macros list*
%AMRoundRect*
0 Rectangle with rounded corners*
0 $1 Rounding radius*
0 $2 $3 $4 $5 $6 $7 $8 $9 X,Y pos of 4 corners*
0 Add a 4 corners polygon primitive as box body*
4,1,4,$2,$3,$4,$5,$6,$7,$8,$9,$2,$3,0*
0 Add four circle primitives for the rounded corners*
1,1,$1+$1,$2,$3*
1,1,$1+$1,$4,$5*
1,1,$1+$1,$6,$7*
1,1,$1+$1,$8,$9*
0 Add four rect primitives between the rounded corners*
20,1,$1+$1,$2,$3,$4,$5,0*
20,1,$1+$1,$4,$5,$6,$7,0*
20,1,$1+$1,$6,$7,$8,$9,0*
20,1,$1+$1,$8,$9,$2,$3,0*%
G04 Aperture macros list end*
%TA.AperFunction,SMDPad,CuDef*%
%ADD10R,1.550000X1.300000*%
%TD*%
%TA.AperFunction,SMDPad,CuDef*%
%ADD11RoundRect,0.237500X0.300000X0.237500X-0.300000X0.237500X-0.300000X-0.237500X0.300000X-0.237500X0*%
%TD*%
%TA.AperFunction,SMDPad,CuDef*%
%ADD12R,1.300000X1.550000*%
%TD*%
%TA.AperFunction,SMDPad,CuDef*%
%ADD13R,2.000000X1.600000*%
%TD*%
%TA.AperFunction,ComponentPad*%
%ADD14R,1.700000X1.700000*%
%TD*%
%TA.AperFunction,ComponentPad*%
%ADD15O,1.700000X1.700000*%
%TD*%
%TA.AperFunction,SMDPad,CuDef*%
%ADD16RoundRect,0.237500X0.250000X0.237500X-0.250000X0.237500X-0.250000X-0.237500X0.250000X-0.237500X0*%
%TD*%
%TA.AperFunction,SMDPad,CuDef*%
%ADD17R,1.800000X1.500000*%
%TD*%
%TA.AperFunction,SMDPad,CuDef*%
%ADD18R,1.500000X1.800000*%
%TD*%
%TA.AperFunction,ComponentPad*%
%ADD19C,0.700000*%
%TD*%
%TA.AperFunction,ComponentPad*%
%ADD20O,2.400000X0.900000*%
%TD*%
%TA.AperFunction,ComponentPad*%
%ADD21O,1.700000X0.900000*%
%TD*%
%TA.AperFunction,ComponentPad*%
%ADD22R,1.800000X1.800000*%
%TD*%
%TA.AperFunction,ComponentPad*%
%ADD23C,1.800000*%
%TD*%
%TA.AperFunction,ViaPad*%
%ADD24C,0.800000*%
%TD*%
%TA.AperFunction,Conductor*%
%ADD25C,0.250000*%
%TD*%
G04 APERTURE END LIST*
D10*
%TO.P,SWup1,1,A*%
%TO.N,B1*%
X122265000Y-56850000D03*
X114315000Y-56850000D03*
%TO.P,SWup1,2,B*%
%TO.N,GND*%
X122265000Y-52350000D03*
X114315000Y-52350000D03*
%TD*%
D11*
%TO.P,C3,1*%
%TO.N,+3V3*%
X78162500Y-75100000D03*
%TO.P,C3,2*%
%TO.N,GND*%
X76437500Y-75100000D03*
%TD*%
%TO.P,C9,1*%
%TO.N,+3V3*%
X78162500Y-73500000D03*
%TO.P,C9,2*%
%TO.N,GND*%
X76437500Y-73500000D03*
%TD*%
%TO.P,C8,1*%
%TO.N,+3V3*%
X78162500Y-71900000D03*
%TO.P,C8,2*%
%TO.N,GND*%
X76437500Y-71900000D03*
%TD*%
D12*
%TO.P,SWright1,1,A*%
%TO.N,B4*%
X124400000Y-66975000D03*
X124400000Y-59025000D03*
%TO.P,SWright1,2,B*%
%TO.N,GND*%
X128900000Y-66975000D03*
X128900000Y-59025000D03*
%TD*%
D13*
%TO.P,Prog,1,A*%
%TO.N,Net-(ESP32-S1-IO0)*%
X114400000Y-77750000D03*
%TO.P,Prog,2,B*%
%TO.N,GND*%
X119800000Y-77750000D03*
%TD*%
D10*
%TO.P,SWb1,1,A*%
%TO.N,B6*%
X134050000Y-73650000D03*
X126100000Y-73650000D03*
%TO.P,SWb1,2,B*%
%TO.N,GND*%
X134050000Y-69150000D03*
X126100000Y-69150000D03*
%TD*%
%TO.P,SWa1,1,A*%
%TO.N,B5*%
X122225000Y-65250000D03*
X114275000Y-65250000D03*
%TO.P,SWa1,2,B*%
%TO.N,GND*%
X122225000Y-60750000D03*
X114275000Y-60750000D03*
%TD*%
D14*
%TO.P,LCD,1,Pin_1*%
%TO.N,GND*%
X85200000Y-63350000D03*
D15*
%TO.P,LCD,2,Pin_2*%
%TO.N,VCC*%
X87740000Y-63350000D03*
%TO.P,LCD,3,Pin_3*%
%TO.N,lcd_data*%
X90280000Y-63350000D03*
%TO.P,LCD,4,Pin_4*%
%TO.N,lcd_wr*%
X92820000Y-63350000D03*
%TO.P,LCD,5,Pin_5*%
%TO.N,lcd_cs*%
X95360000Y-63350000D03*
%TD*%
D10*
%TO.P,SWdown1,1,A*%
%TO.N,B2*%
X122225000Y-73650000D03*
X114275000Y-73650000D03*
%TO.P,SWdown1,2,B*%
%TO.N,GND*%
X122225000Y-69150000D03*
X114275000Y-69150000D03*
%TD*%
D16*
%TO.P,R4,1*%
%TO.N,Net-(GPS1-~{RESET})*%
X78212500Y-69600000D03*
%TO.P,R4,2*%
%TO.N,+3V3*%
X76387500Y-69600000D03*
%TD*%
D11*
%TO.P,C4,1*%
%TO.N,+3V3*%
X78162500Y-76700000D03*
%TO.P,C4,2*%
%TO.N,GND*%
X76437500Y-76700000D03*
%TD*%
D17*
%TO.P,GPS,1,GND*%
%TO.N,GND*%
X80850000Y-73100000D03*
%TO.P,GPS,2,VCC_IO*%
%TO.N,+3V3*%
X80850000Y-75000000D03*
%TO.P,GPS,3,V_BCKP*%
X80850000Y-76900000D03*
%TO.P,GPS,4,GND*%
%TO.N,GND*%
X80850000Y-78800000D03*
%TO.P,GPS,5,GND*%
X80850000Y-80700000D03*
D18*
%TO.P,GPS,6,GND*%
X83650000Y-83500000D03*
%TO.P,GPS,7,TIMEPULSE*%
%TO.N,unconnected-(GPS1-TIMEPULSE-Pad7)*%
X85550000Y-83500000D03*
%TO.P,GPS,8,~{SAFEBOOT}*%
%TO.N,unconnected-(GPS1-~{SAFEBOOT}-Pad8)*%
X87450000Y-83500000D03*
%TO.P,GPS,9,SDA*%
%TO.N,SDA*%
X89350000Y-83500000D03*
%TO.P,GPS,10,GND*%
%TO.N,GND*%
X91250000Y-83500000D03*
D17*
%TO.P,GPS,11,GND*%
X94050000Y-80700000D03*
%TO.P,GPS,12,SCL*%
%TO.N,SCL*%
X94050000Y-78800000D03*
%TO.P,GPS,13,TXD*%
%TO.N,Net-(GPS1-TXD)*%
X94050000Y-76900000D03*
%TO.P,GPS,14,RXD*%
%TO.N,Net-(GPS1-RXD)*%
X94050000Y-75000000D03*
%TO.P,GPS,15,GND*%
%TO.N,GND*%
X94050000Y-73100000D03*
D18*
%TO.P,GPS,16,GND*%
X91250000Y-70300000D03*
%TO.P,GPS,17,VCC*%
%TO.N,+3V3*%
X89350000Y-70300000D03*
%TO.P,GPS,18,~{RESET}*%
%TO.N,Net-(GPS1-~{RESET})*%
X87450000Y-70300000D03*
%TO.P,GPS,19,EXTINT*%
%TO.N,unconnected-(GPS1-EXTINT-Pad19)*%
X85550000Y-70300000D03*
%TO.P,GPS,20,GND*%
%TO.N,GND*%
X83650000Y-70300000D03*
%TD*%
D12*
%TO.P,SWleft1,1,A*%
%TO.N,B3*%
X107600000Y-66985000D03*
X107600000Y-59035000D03*
%TO.P,SWleft1,2,B*%
%TO.N,GND*%
X112100000Y-66985000D03*
X112100000Y-59035000D03*
%TD*%
D13*
%TO.P,En,1,A*%
%TO.N,GND*%
X119800000Y-81850000D03*
%TO.P,En,2,B*%
%TO.N,Net-(ESP32-S1-EN)*%
X114400000Y-81850000D03*
%TD*%
D14*
%TO.P,Oled,1,Pin_1*%
%TO.N,GND*%
X94050000Y-66350000D03*
D15*
%TO.P,Oled,2,Pin_2*%
%TO.N,VCC*%
X91510000Y-66350000D03*
%TO.P,Oled,3,Pin_3*%
%TO.N,SCL*%
X88970000Y-66350000D03*
%TO.P,Oled,4,Pin_4*%
%TO.N,SDA*%
X86430000Y-66350000D03*
%TD*%
D14*
%TO.P,GY-271,1,Pin_1*%
%TO.N,VCC*%
X109600000Y-82080000D03*
D15*
%TO.P,GY-271,2,Pin_2*%
%TO.N,GND*%
X109600000Y-79540000D03*
%TO.P,GY-271,3,Pin_3*%
%TO.N,SCL*%
X109600000Y-77000000D03*
%TO.P,GY-271,4,Pin_4*%
%TO.N,SDA*%
X109600000Y-74460000D03*
%TO.P,GY-271,5,Pin_5*%
%TO.N,unconnected-(GY-271-Pin_5-Pad5)*%
X109600000Y-71920000D03*
%TD*%
D19*
%TO.P,J1,A1*%
%TO.N,N/C*%
X69325000Y-60025000D03*
%TO.P,J1,A4*%
X69325000Y-60875000D03*
%TO.P,J1,A5,CC1*%
%TO.N,Net-(J1-CC1)*%
X69325000Y-61725000D03*
%TO.P,J1,A6*%
%TO.N,N/C*%
X69325000Y-62575000D03*
%TO.P,J1,A7*%
X69325000Y-63425000D03*
%TO.P,J1,A8*%
X69325000Y-64275000D03*
%TO.P,J1,A9,VBUS*%
%TO.N,Net-(D1-A)*%
X69325000Y-65125000D03*
%TO.P,J1,A12,GND*%
%TO.N,GND*%
X69325000Y-65975000D03*
%TO.P,J1,B1*%
%TO.N,N/C*%
X67975000Y-65975000D03*
%TO.P,J1,B4*%
X67975000Y-65125000D03*
%TO.P,J1,B5,CC2*%
%TO.N,Net-(J1-CC2)*%
X67975000Y-64275000D03*
%TO.P,J1,B6*%
%TO.N,N/C*%
X67975000Y-63425000D03*
%TO.P,J1,B7*%
X67975000Y-62575000D03*
%TO.P,J1,B8*%
X67975000Y-61725000D03*
%TO.P,J1,B9,VBUS*%
%TO.N,Net-(D1-A)*%
X67975000Y-60875000D03*
%TO.P,J1,B12,GND*%
%TO.N,GND*%
X67975000Y-60025000D03*
D20*
%TO.P,J1,S1,SHIELD*%
X68345000Y-58675000D03*
D21*
X64965000Y-58675000D03*
D20*
X68345000Y-67325000D03*
D21*
X64965000Y-67325000D03*
%TD*%
D22*
%TO.P,LED,1,K*%
%TO.N,Net-(D3-K)*%
X72600000Y-52900000D03*
D23*
%TO.P,LED,2,A*%
%TO.N,Net-(D3-A)*%
X72600000Y-50360000D03*
%TD*%
D14*
%TO.P,Serial,1,Pin_1*%
%TO.N,GND*%
X67900000Y-55740000D03*
D15*
%TO.P,Serial,2,Pin_2*%
%TO.N,Net-(Serial1-Pin_2)*%
X67900000Y-53200000D03*
%TO.P,Serial,3,Pin_3*%
%TO.N,Net-(Serial1-Pin_3)*%
X67900000Y-50660000D03*
%TD*%
D24*
%TO.N,GND*%
X94100000Y-69800000D03*
X117000000Y-81800000D03*
X109800000Y-59900000D03*
X101100000Y-47000000D03*
X117000000Y-77300000D03*
X91100000Y-80200000D03*
X119500000Y-64400000D03*
X71700000Y-71300000D03*
X118270000Y-54200000D03*
X75400000Y-65500000D03*
X125800000Y-61400000D03*
X117600000Y-71400000D03*
X81500000Y-55100000D03*
X131600000Y-60700000D03*
X95300000Y-57600000D03*
X129600000Y-70300000D03*
X82200000Y-50400000D03*
X85100000Y-73000000D03*
X101600000Y-73700000D03*
%TO.N,+3V3*%
X78315000Y-56700000D03*
%TO.N,VCC*%
X87612299Y-53812299D03*
%TO.N,Net-(ESP32-S1-EN)*%
X119850000Y-52850000D03*
%TO.N,battery_level*%
X85800000Y-47900000D03*
X109400000Y-51800000D03*
%TO.N,B4*%
X117900000Y-58500000D03*
%TO.N,B5*%
X118100000Y-61000000D03*
%TO.N,B6*%
X117950000Y-63100000D03*
%TO.N,lcd_data*%
X112300000Y-61700000D03*
%TO.N,lcd_cs*%
X114500000Y-63550000D03*
%TO.N,lcd_wr*%
X111050000Y-62550000D03*
%TO.N,B3*%
X103550000Y-66350000D03*
%TO.N,B1*%
X103350000Y-57250000D03*
%TO.N,Net-(ESP32-S1-IO0)*%
X112100000Y-75500000D03*
%TO.N,B2*%
X99950000Y-64950000D03*
%TO.N,CS*%
X129250000Y-71550000D03*
X100700000Y-62100000D03*
%TO.N,CLK*%
X96750000Y-56350000D03*
X127100000Y-61800000D03*
%TO.N,MISO*%
X126200000Y-59600000D03*
X100800000Y-57100000D03*
%TO.N,SDA*%
X89350000Y-76800000D03*
X86700000Y-57900000D03*
%TO.N,SCL*%
X96300000Y-49800000D03*
%TO.N,MOSI*%
X101100000Y-53100000D03*
X127975000Y-63975000D03*
%TO.N,Net-(GPS1-TXD)*%
X98200000Y-73767304D03*
%TO.N,Net-(GPS1-RXD)*%
X96200000Y-73800000D03*
%TO.N,Net-(D3-A)*%
X102000000Y-49450000D03*
%TO.N,Net-(Serial1-Pin_3)*%
X91100000Y-50750000D03*
%TO.N,Net-(Serial1-Pin_2)*%
X91100000Y-52450000D03*
%TD*%
D25*
%TO.N,+3V3*%
X78162500Y-76700000D02*
X78362500Y-76900000D01*
X78162500Y-75100000D02*
X78162500Y-76700000D01*
X78362500Y-76900000D02*
X80850000Y-76900000D01*
X78262500Y-75000000D02*
X80850000Y-75000000D01*
X76387500Y-70125000D02*
X78162500Y-71900000D01*
X78162500Y-71900000D02*
X78162500Y-73500000D01*
X76325000Y-58690000D02*
X76325000Y-69537500D01*
X78315000Y-56700000D02*
X76325000Y-58690000D01*
X88600000Y-68400000D02*
X77587500Y-68400000D01*
X89350000Y-70300000D02*
X89350000Y-69150000D01*
X78162500Y-73500000D02*
X78162500Y-75100000D01*
X76387500Y-69600000D02*
X76387500Y-70125000D01*
X77587500Y-68400000D02*
X76387500Y-69600000D01*
X89350000Y-69150000D02*
X88600000Y-68400000D01*
%TO.N,VCC*%
X87600000Y-53824598D02*
X87600000Y-63210000D01*
X87600000Y-63210000D02*
X87740000Y-63350000D01*
%TO.N,Net-(ESP32-S1-EN)*%
X120400000Y-53400000D02*
X125350000Y-53400000D01*
X119850000Y-52850000D02*
X120400000Y-53400000D01*
X130600000Y-58650000D02*
X130600000Y-73600000D01*
X130600000Y-73600000D02*
X123900000Y-80300000D01*
X125350000Y-53400000D02*
X130600000Y-58650000D01*
X115950000Y-80300000D02*
X114400000Y-81850000D01*
X123900000Y-80300000D02*
X115950000Y-80300000D01*
%TO.N,battery_level*%
X109400000Y-51800000D02*
X105500000Y-47900000D01*
X105500000Y-47900000D02*
X85800000Y-47900000D01*
%TO.N,B4*%
X123775000Y-58400000D02*
X124400000Y-59025000D01*
X118000000Y-58400000D02*
X123775000Y-58400000D01*
%TO.N,B5*%
X118100000Y-61000000D02*
X119200000Y-61000000D01*
X122225000Y-64025000D02*
X122225000Y-65250000D01*
X119200000Y-61000000D02*
X122225000Y-64025000D01*
%TO.N,B6*%
X124650000Y-73650000D02*
X126100000Y-73650000D01*
X117950000Y-66950000D02*
X124650000Y-73650000D01*
X117950000Y-63100000D02*
X117950000Y-66950000D01*
%TO.N,lcd_data*%
X108190000Y-61700000D02*
X105390000Y-58900000D01*
X112300000Y-61700000D02*
X108190000Y-61700000D01*
X94730000Y-58900000D02*
X90280000Y-63350000D01*
X105390000Y-58900000D02*
X94730000Y-58900000D01*
%TO.N,lcd_cs*%
X108517208Y-63300000D02*
X105117208Y-59900000D01*
X105117208Y-59900000D02*
X98810000Y-59900000D01*
X98810000Y-59900000D02*
X95360000Y-63350000D01*
X114250000Y-63300000D02*
X108517208Y-63300000D01*
X114500000Y-63550000D02*
X114250000Y-63300000D01*
%TO.N,lcd_wr*%
X105253604Y-59400000D02*
X96770000Y-59400000D01*
X111000000Y-62500000D02*
X108353604Y-62500000D01*
X108353604Y-62500000D02*
X105253604Y-59400000D01*
X96770000Y-59400000D02*
X92820000Y-63350000D01*
%TO.N,B3*%
X104185000Y-66985000D02*
X103550000Y-66350000D01*
X107600000Y-66985000D02*
X104185000Y-66985000D01*
%TO.N,B1*%
X103350000Y-57250000D02*
X103750000Y-56850000D01*
X103750000Y-56850000D02*
X114315000Y-56850000D01*
%TO.N,Net-(ESP32-S1-IO0)*%
X112100000Y-75500000D02*
X112312036Y-75500000D01*
X112312036Y-75500000D02*
X114606018Y-77793982D01*
%TO.N,B2*%
X103350000Y-68350000D02*
X109536396Y-68350000D01*
X114275000Y-73088604D02*
X114275000Y-73650000D01*
X99950000Y-64950000D02*
X103350000Y-68350000D01*
X109536396Y-68350000D02*
X114275000Y-73088604D01*
%TO.N,CS*%
X103400000Y-65400000D02*
X108000000Y-65400000D01*
X129250000Y-73550000D02*
X129250000Y-71550000D01*
X117225000Y-74625000D02*
X128175000Y-74625000D01*
X100700000Y-62100000D02*
X100700000Y-62700000D01*
X128175000Y-74625000D02*
X129250000Y-73550000D01*
X100700000Y-62700000D02*
X103400000Y-65400000D01*
X108000000Y-65400000D02*
X117225000Y-74625000D01*
%TO.N,CLK*%
X127100000Y-58300000D02*
X124675000Y-55875000D01*
X124675000Y-55875000D02*
X97225000Y-55875000D01*
X127100000Y-61800000D02*
X127100000Y-58300000D01*
X97225000Y-55875000D02*
X96750000Y-56350000D01*
%TO.N,MISO*%
X106665000Y-57935000D02*
X116235000Y-57935000D01*
X100800000Y-57100000D02*
X101675000Y-57975000D01*
X106625000Y-57975000D02*
X106665000Y-57935000D01*
X116235000Y-57935000D02*
X117800000Y-59500000D01*
X117800000Y-59500000D02*
X122900000Y-59500000D01*
X122900000Y-59500000D02*
X123800000Y-60400000D01*
X123800000Y-60400000D02*
X125400000Y-60400000D01*
X101675000Y-57975000D02*
X106625000Y-57975000D01*
X125400000Y-60400000D02*
X126200000Y-59600000D01*
%TO.N,SDA*%
X86700000Y-57900000D02*
X86500000Y-58100000D01*
X86500000Y-58100000D02*
X86500000Y-66280000D01*
X86500000Y-66280000D02*
X86430000Y-66350000D01*
X89350000Y-76800000D02*
X89350000Y-83500000D01*
%TO.N,SCL*%
X94050000Y-78800000D02*
X104200000Y-78800000D01*
X94100000Y-52000000D02*
X94100000Y-57400000D01*
X99400000Y-68800000D02*
X107600000Y-77000000D01*
X88970000Y-66350000D02*
X89750000Y-66350000D01*
X88970000Y-62530000D02*
X88970000Y-66350000D01*
X92200000Y-68800000D02*
X99400000Y-68800000D01*
X106000000Y-77000000D02*
X109600000Y-77000000D01*
X89750000Y-66350000D02*
X92200000Y-68800000D01*
X104200000Y-78800000D02*
X106000000Y-77000000D01*
X94100000Y-57400000D02*
X88970000Y-62530000D01*
X107600000Y-77000000D02*
X109600000Y-77000000D01*
X96300000Y-49800000D02*
X94100000Y-52000000D01*
%TO.N,MOSI*%
X103200000Y-55200000D02*
X101100000Y-53100000D01*
X127925000Y-58225000D02*
X124900000Y-55200000D01*
X124900000Y-55200000D02*
X103200000Y-55200000D01*
X127925000Y-63925000D02*
X127925000Y-58225000D01*
X127975000Y-63975000D02*
X127925000Y-63925000D01*
%TO.N,Net-(GPS1-TXD)*%
X95067304Y-76900000D02*
X94050000Y-76900000D01*
X98200000Y-73767304D02*
X95067304Y-76900000D01*
%TO.N,Net-(GPS1-RXD)*%
X95000000Y-75000000D02*
X94050000Y-75000000D01*
X96200000Y-73800000D02*
X95000000Y-75000000D01*
%TO.N,Net-(GPS1-~{RESET})*%
X78712500Y-68900000D02*
X87200000Y-68900000D01*
X78012500Y-69600000D02*
X78712500Y-68900000D01*
X87450000Y-69150000D02*
X87450000Y-70300000D01*
X87200000Y-68900000D02*
X87450000Y-69150000D01*
%TO.N,Net-(D3-A)*%
X72600000Y-50360000D02*
X74160000Y-48800000D01*
X101300000Y-48800000D02*
X101950000Y-49450000D01*
X74160000Y-48800000D02*
X101300000Y-48800000D01*
%TO.N,Net-(Serial1-Pin_3)*%
X91100000Y-50750000D02*
X91100000Y-50800000D01*
X90260000Y-51640000D02*
X68880000Y-51640000D01*
X91100000Y-50800000D02*
X90260000Y-51640000D01*
X68880000Y-51640000D02*
X67900000Y-50660000D01*
%TO.N,Net-(Serial1-Pin_2)*%
X91100000Y-52450000D02*
X87949293Y-52450000D01*
X87949293Y-52450000D02*
X86199293Y-54200000D01*
X86199293Y-54200000D02*
X68900000Y-54200000D01*
X68900000Y-54200000D02*
X67900000Y-53200000D01*
%TD*%
%TA.AperFunction,Conductor*%
%TO.N,GND*%
G36*
X95771421Y-49195185D02*
G01*
X95817176Y-49247989D01*
X95827120Y-49317147D01*
X95806432Y-49369940D01*
X95719781Y-49495475D01*
X95719780Y-49495476D01*
X95663763Y-49643181D01*
X95644722Y-49800000D01*
X95644722Y-49800001D01*
X95650896Y-49850854D01*
X95639435Y-49919777D01*
X95615481Y-49953480D01*
X93871108Y-51697852D01*
X93851254Y-51713976D01*
X93842165Y-51719914D01*
X93842164Y-51719915D01*
X93820363Y-51747923D01*
X93815286Y-51753674D01*
X93812484Y-51756477D01*
X93812474Y-51756489D01*
X93799658Y-51774439D01*
X93798127Y-51776492D01*
X93765192Y-51818808D01*
X93761447Y-51825729D01*
X93757988Y-51832804D01*
X93742692Y-51884182D01*
X93741911Y-51886621D01*
X93724500Y-51937338D01*
X93723206Y-51945092D01*
X93722231Y-51952911D01*
X93724447Y-52006472D01*
X93724500Y-52009034D01*
X93724500Y-57193099D01*
X93704815Y-57260138D01*
X93688181Y-57280780D01*
X88741108Y-62227852D01*
X88721254Y-62243976D01*
X88712165Y-62249914D01*
X88712164Y-62249915D01*
X88690363Y-62277923D01*
X88685286Y-62283674D01*
X88682484Y-62286477D01*
X88682474Y-62286489D01*
X88669658Y-62304439D01*
X88668127Y-62306492D01*
X88635192Y-62348808D01*
X88631447Y-62355729D01*
X88627988Y-62362804D01*
X88612690Y-62414190D01*
X88611903Y-62416644D01*
X88610690Y-62420173D01*
X88570291Y-62477179D01*
X88505485Y-62503294D01*
X88436848Y-62490226D01*
X88409882Y-62471520D01*
X88406042Y-62468019D01*
X88406039Y-62468017D01*
X88232642Y-62360655D01*
X88232635Y-62360651D01*
X88163891Y-62334020D01*
X88054705Y-62291721D01*
X87999305Y-62249149D01*
X87975714Y-62183382D01*
X87975500Y-62176095D01*
X87975500Y-54415398D01*
X87995185Y-54348359D01*
X88017271Y-54322584D01*
X88102782Y-54246829D01*
X88192519Y-54116822D01*
X88248536Y-53969117D01*
X88267577Y-53812299D01*
X88262464Y-53770185D01*
X88248536Y-53655480D01*
X88223583Y-53589685D01*
X88192519Y-53507776D01*
X88102782Y-53377769D01*
X87984539Y-53273016D01*
X87984537Y-53273015D01*
X87984536Y-53273014D01*
X87919159Y-53238701D01*
X87868946Y-53190116D01*
X87852972Y-53122097D01*
X87876307Y-53056240D01*
X87889090Y-53041239D01*
X88068512Y-52861816D01*
X88129835Y-52828334D01*
X88156192Y-52825500D01*
X90503692Y-52825500D01*
X90570731Y-52845185D01*
X90605742Y-52879061D01*
X90608163Y-52882569D01*
X90609515Y-52884528D01*
X90609517Y-52884530D01*
X90727760Y-52989283D01*
X90727762Y-52989284D01*
X90867634Y-53062696D01*
X91021014Y-53100500D01*
X91021015Y-53100500D01*
X91178985Y-53100500D01*
X91332365Y-53062696D01*
X91370481Y-53042691D01*
X91472240Y-52989283D01*
X91590483Y-52884530D01*
X91680220Y-52754523D01*
X91736237Y-52606818D01*
X91755278Y-52450000D01*
X91751086Y-52415471D01*
X91736237Y-52293181D01*
X91704939Y-52210655D01*
X91680220Y-52145477D01*
X91590483Y-52015470D01*
X91472240Y-51910717D01*
X91472238Y-51910716D01*
X91472237Y-51910715D01*
X91332365Y-51837303D01*
X91178986Y-51799500D01*
X91178985Y-51799500D01*
X91021015Y-51799500D01*
X91021014Y-51799500D01*
X90936021Y-51820448D01*
X90866219Y-51817378D01*
X90809157Y-51777058D01*
X90782952Y-51712289D01*
X90795925Y-51643634D01*
X90818664Y-51612372D01*
X90994217Y-51436819D01*
X91055541Y-51403334D01*
X91081899Y-51400500D01*
X91178985Y-51400500D01*
X91332365Y-51362696D01*
X91370256Y-51342809D01*
X91472240Y-51289283D01*
X91590483Y-51184530D01*
X91680220Y-51054523D01*
X91736237Y-50906818D01*
X91755278Y-50750000D01*
X91747049Y-50682223D01*
X91736237Y-50593181D01*
X91695899Y-50486819D01*
X91680220Y-50445477D01*
X91590483Y-50315470D01*
X91472240Y-50210717D01*
X91472238Y-50210716D01*
X91472237Y-50210715D01*
X91332365Y-50137303D01*
X91178986Y-50099500D01*
X91178985Y-50099500D01*
X91021015Y-50099500D01*
X91021014Y-50099500D01*
X90867634Y-50137303D01*
X90727762Y-50210715D01*
X90609516Y-50315471D01*
X90519781Y-50445475D01*
X90519780Y-50445476D01*
X90463762Y-50593181D01*
X90444722Y-50749999D01*
X90444722Y-50750001D01*
X90456309Y-50845440D01*
X90444848Y-50914363D01*
X90420894Y-50948066D01*
X90140779Y-51228182D01*
X90079459Y-51261666D01*
X90053100Y-51264500D01*
X73607677Y-51264500D01*
X73540638Y-51244815D01*
X73494883Y-51192011D01*
X73484939Y-51122853D01*
X73508723Y-51065773D01*
X73509485Y-51064764D01*
X73582366Y-50968255D01*
X73634735Y-50863083D01*
X73677403Y-50777394D01*
X73677403Y-50777393D01*
X73677405Y-50777389D01*
X73735756Y-50572310D01*
X73755429Y-50360000D01*
X73735756Y-50147690D01*
X73677405Y-49942611D01*
X73674298Y-49936372D01*
X73662036Y-49867589D01*
X73688908Y-49803093D01*
X73697607Y-49793428D01*
X74279217Y-49211819D01*
X74340541Y-49178334D01*
X74366899Y-49175500D01*
X95704382Y-49175500D01*
X95771421Y-49195185D01*
G37*
%TD.AperFunction*%
%TA.AperFunction,Conductor*%
G36*
X90449191Y-40020185D02*
G01*
X90494946Y-40072989D01*
X90503770Y-40100310D01*
X90508941Y-40126308D01*
X90507519Y-40142184D01*
X90516692Y-40168397D01*
X90518982Y-40176787D01*
X90530119Y-40232772D01*
X90530263Y-40233497D01*
X90542913Y-40264038D01*
X90556229Y-40296186D01*
X90558086Y-40313466D01*
X90568073Y-40329360D01*
X90577640Y-40347877D01*
X90590606Y-40379179D01*
X90590607Y-40379181D01*
X90590609Y-40379184D01*
X90637057Y-40448698D01*
X90642808Y-40467066D01*
X90653826Y-40478084D01*
X90669247Y-40496874D01*
X90678210Y-40510288D01*
X90682076Y-40514999D01*
X90681969Y-40515086D01*
X90695192Y-40531667D01*
X90697065Y-40534648D01*
X90720297Y-40552376D01*
X90747621Y-40579700D01*
X90757673Y-40598110D01*
X90768333Y-40604808D01*
X90784913Y-40618030D01*
X90785001Y-40617924D01*
X90789711Y-40621789D01*
X90803126Y-40630753D01*
X90821916Y-40646174D01*
X90826985Y-40651243D01*
X90851299Y-40662941D01*
X90869496Y-40675100D01*
X90920821Y-40709394D01*
X90920823Y-40709395D01*
X90920827Y-40709397D01*
X90952118Y-40722358D01*
X90970638Y-40731925D01*
X90980017Y-40737818D01*
X91003810Y-40743769D01*
X91066503Y-40769737D01*
X91123219Y-40781018D01*
X91131608Y-40783309D01*
X91151057Y-40790114D01*
X91173692Y-40791059D01*
X91221153Y-40800499D01*
X91221156Y-40800500D01*
X91300956Y-40800500D01*
X91307904Y-40800890D01*
X91346678Y-40805259D01*
X91375876Y-40800500D01*
X93376000Y-40800500D01*
X93443039Y-40820185D01*
X93488794Y-40872989D01*
X93500000Y-40924500D01*
X93500000Y-45500000D01*
X125499801Y-45500000D01*
X125566840Y-45519685D01*
X125612595Y-45572489D01*
X125613357Y-45574190D01*
X125675826Y-45716606D01*
X125811833Y-45924782D01*
X125811836Y-45924785D01*
X125980256Y-46107738D01*
X126176491Y-46260474D01*
X126395190Y-46378828D01*
X126630386Y-46459571D01*
X126875665Y-46500500D01*
X127124335Y-46500500D01*
X127369614Y-46459571D01*
X127604810Y-46378828D01*
X127823509Y-46260474D01*
X128019744Y-46107738D01*
X128188164Y-45924785D01*
X128324173Y-45716607D01*
X128386642Y-45574190D01*
X128431599Y-45520704D01*
X128498335Y-45500014D01*
X128500199Y-45500000D01*
X131874889Y-45500000D01*
X131941928Y-45519685D01*
X131956969Y-45531054D01*
X132332556Y-45862731D01*
X132648142Y-46146886D01*
X132649459Y-46148109D01*
X133016725Y-46500500D01*
X133030751Y-46513958D01*
X133335405Y-46812297D01*
X133336763Y-46813669D01*
X133701463Y-47193764D01*
X133994482Y-47505797D01*
X133995759Y-47507200D01*
X134343489Y-47900965D01*
X134624110Y-48226067D01*
X134625306Y-48227495D01*
X134955708Y-48634361D01*
X135223268Y-48971937D01*
X135224382Y-48973386D01*
X135536948Y-49392565D01*
X135790864Y-49742050D01*
X135791898Y-49743517D01*
X136086299Y-50174414D01*
X136325931Y-50535089D01*
X136326884Y-50536569D01*
X136602768Y-50978526D01*
X136648794Y-51054524D01*
X136827537Y-51349664D01*
X136828410Y-51351152D01*
X137085400Y-51803438D01*
X137228953Y-52064559D01*
X137294857Y-52184438D01*
X137295651Y-52185931D01*
X137350858Y-52293182D01*
X137533385Y-52647781D01*
X137727057Y-53037930D01*
X137727714Y-53039301D01*
X137797620Y-53190116D01*
X137945903Y-53510028D01*
X138123339Y-53908553D01*
X138123980Y-53910045D01*
X138322300Y-54388834D01*
X138483070Y-54794890D01*
X138483636Y-54796375D01*
X138661852Y-55282543D01*
X138805643Y-55695459D01*
X138806136Y-55696933D01*
X138963968Y-56189610D01*
X139090471Y-56608606D01*
X139090893Y-56610067D01*
X139228167Y-57108617D01*
X139257041Y-57221075D01*
X139337068Y-57532760D01*
X139337421Y-57534204D01*
X139453921Y-58037767D01*
X139545033Y-58466416D01*
X139545319Y-58467840D01*
X139640863Y-58975539D01*
X139713990Y-59407888D01*
X139714210Y-59409289D01*
X139788659Y-59920279D01*
X139843645Y-60355535D01*
X139843803Y-60356910D01*
X139897059Y-60870403D01*
X139933781Y-61307719D01*
X139933879Y-61309065D01*
X139965827Y-61823659D01*
X139965892Y-61824904D01*
X139984246Y-62262809D01*
X139984287Y-62264123D01*
X139994943Y-62779559D01*
X139994956Y-62780840D01*
X139994956Y-63219158D01*
X139994943Y-63220439D01*
X139984287Y-63735875D01*
X139984246Y-63737189D01*
X139965892Y-64175094D01*
X139965827Y-64176339D01*
X139933879Y-64690933D01*
X139933781Y-64692279D01*
X139897060Y-65129584D01*
X139843803Y-65643088D01*
X139843645Y-65644463D01*
X139788659Y-66079719D01*
X139714210Y-66590709D01*
X139713990Y-66592110D01*
X139640863Y-67024459D01*
X139545319Y-67532158D01*
X139545033Y-67533582D01*
X139453921Y-67962231D01*
X139337421Y-68465794D01*
X139337068Y-68467238D01*
X139228171Y-68891367D01*
X139090893Y-69389931D01*
X139090471Y-69391392D01*
X138963968Y-69810388D01*
X138806136Y-70303065D01*
X138805643Y-70304539D01*
X138661852Y-70717455D01*
X138483636Y-71203623D01*
X138483070Y-71205108D01*
X138322300Y-71611164D01*
X138123980Y-72089953D01*
X138123339Y-72091445D01*
X137945903Y-72489970D01*
X137727743Y-72960638D01*
X137727029Y-72962126D01*
X137711595Y-72993218D01*
X137533386Y-73352217D01*
X137295651Y-73814067D01*
X137294857Y-73815560D01*
X137085409Y-74196545D01*
X136828410Y-74648846D01*
X136827537Y-74650334D01*
X136602773Y-75021464D01*
X136326884Y-75463429D01*
X136325931Y-75464909D01*
X136086299Y-75825584D01*
X135791898Y-76256481D01*
X135790864Y-76257948D01*
X135536948Y-76607433D01*
X135224382Y-77026612D01*
X135223268Y-77028061D01*
X134955708Y-77365637D01*
X134625306Y-77772503D01*
X134624110Y-77773931D01*
X134343526Y-78098991D01*
X133995759Y-78492798D01*
X133994482Y-78494201D01*
X133701463Y-78806234D01*
X133336763Y-79186329D01*
X133335405Y-79187701D01*
X133030751Y-79486040D01*
X132649526Y-79851826D01*
X132648086Y-79853164D01*
X132332572Y-80137253D01*
X131935151Y-80488211D01*
X131933632Y-80489509D01*
X131608087Y-80758824D01*
X131194934Y-81094332D01*
X131193335Y-81095588D01*
X130858810Y-81349505D01*
X130430149Y-81669142D01*
X130428471Y-81670350D01*
X130085972Y-81908394D01*
X129642061Y-82211688D01*
X129640306Y-82212844D01*
X129290925Y-82434567D01*
X128832143Y-82720953D01*
X128830312Y-82722052D01*
X128475255Y-82927045D01*
X128001717Y-83196110D01*
X127999812Y-83197149D01*
X127640318Y-83385086D01*
X127152277Y-83636303D01*
X127150300Y-83637276D01*
X126787978Y-83807772D01*
X126285202Y-84040817D01*
X126283155Y-84041721D01*
X125920213Y-84194289D01*
X125402054Y-84408917D01*
X125399939Y-84409748D01*
X125038536Y-84544151D01*
X124504354Y-84739969D01*
X124502174Y-84740723D01*
X124145188Y-84856713D01*
X123593679Y-85033392D01*
X123591436Y-85034064D01*
X123243149Y-85131308D01*
X122671518Y-85288705D01*
X122669217Y-85289292D01*
X122335291Y-85367614D01*
X121739590Y-85505431D01*
X121737232Y-85505928D01*
X121426568Y-85565189D01*
X120799425Y-85683213D01*
X120797015Y-85683617D01*
X120525816Y-85723665D01*
X119852678Y-85821739D01*
X119850220Y-85822047D01*
X119653441Y-85842730D01*
X118900948Y-85920772D01*
X118898445Y-85920980D01*
X118879729Y-85922158D01*
X118878929Y-85922208D01*
X117951737Y-85979772D01*
X117949176Y-85979878D01*
X117000617Y-85999487D01*
X116999336Y-85999500D01*
X83000644Y-85999500D01*
X82999371Y-85999487D01*
X82056803Y-85980125D01*
X82054259Y-85980020D01*
X81133428Y-85923212D01*
X81133389Y-85923198D01*
X81133327Y-85923205D01*
X81113462Y-85921964D01*
X81110974Y-85921758D01*
X80363469Y-85844725D01*
X80167547Y-85824259D01*
X80165105Y-85823955D01*
X79496152Y-85727113D01*
X79496154Y-85727095D01*
X79495913Y-85727078D01*
X79226508Y-85687543D01*
X79224115Y-85687144D01*
X78600775Y-85570593D01*
X78600780Y-85570564D01*
X78600469Y-85570535D01*
X78291926Y-85512046D01*
X78289585Y-85511555D01*
X77804115Y-85399973D01*
X77697418Y-85375449D01*
X77365391Y-85298066D01*
X77363105Y-85297487D01*
X76794918Y-85142073D01*
X76448515Y-85045977D01*
X76446288Y-85045314D01*
X75897601Y-84870720D01*
X75542859Y-84756211D01*
X75540722Y-84755477D01*
X75009323Y-84562014D01*
X74649948Y-84429254D01*
X74647848Y-84428435D01*
X74132290Y-84216376D01*
X73771317Y-84065670D01*
X73769284Y-84064778D01*
X73268762Y-83834438D01*
X73088061Y-83750000D01*
X82400000Y-83750000D01*
X82400000Y-84447844D01*
X82406401Y-84507372D01*
X82406403Y-84507379D01*
X82456645Y-84642086D01*
X82456649Y-84642093D01*
X82542809Y-84757187D01*
X82542812Y-84757190D01*
X82657906Y-84843350D01*
X82657913Y-84843354D01*
X82792620Y-84893596D01*
X82792627Y-84893598D01*
X82852155Y-84899999D01*
X82852172Y-84900000D01*
X83400000Y-84900000D01*
X83900000Y-84900000D01*
X84447828Y-84900000D01*
X84447844Y-84899999D01*
X84507372Y-84893598D01*
X84507379Y-84893596D01*
X84642086Y-84843354D01*
X84642093Y-84843350D01*
X84757185Y-84757191D01*
X84757190Y-84757186D01*
X84799859Y-84700189D01*
X84855793Y-84658318D01*
X84899126Y-84650500D01*
X86324676Y-84650500D01*
X86324677Y-84650499D01*
X86397735Y-84635967D01*
X86397737Y-84635967D01*
X86397737Y-84635966D01*
X86397740Y-84635966D01*
X86431112Y-84613667D01*
X86497786Y-84592791D01*
X86565166Y-84611275D01*
X86568829Y-84613628D01*
X86602260Y-84635966D01*
X86602262Y-84635966D01*
X86602263Y-84635967D01*
X86675321Y-84650499D01*
X86675324Y-84650500D01*
X86675326Y-84650500D01*
X88224676Y-84650500D01*
X88224677Y-84650499D01*
X88297735Y-84635967D01*
X88297737Y-84635967D01*
X88297737Y-84635966D01*
X88297740Y-84635966D01*
X88331112Y-84613667D01*
X88397786Y-84592791D01*
X88465166Y-84611275D01*
X88468829Y-84613628D01*
X88502260Y-84635966D01*
X88502262Y-84635966D01*
X88502263Y-84635967D01*
X88575321Y-84650499D01*
X88575324Y-84650500D01*
X90000874Y-84650500D01*
X90067913Y-84670185D01*
X90100141Y-84700189D01*
X90142809Y-84757186D01*
X90142814Y-84757191D01*
X90257906Y-84843350D01*
X90257913Y-84843354D01*
X90392620Y-84893596D01*
X90392627Y-84893598D01*
X90452155Y-84899999D01*
X90452172Y-84900000D01*
X91000000Y-84900000D01*
X91000000Y-83750000D01*
X91500000Y-83750000D01*
X91500000Y-84900000D01*
X92047828Y-84900000D01*
X92047844Y-84899999D01*
X92107372Y-84893598D01*
X92107379Y-84893596D01*
X92242086Y-84843354D01*
X92242093Y-84843350D01*
X92357187Y-84757190D01*
X92357190Y-84757187D01*
X92443350Y-84642093D01*
X92443354Y-84642086D01*
X92493596Y-84507379D01*
X92493598Y-84507372D01*
X92499999Y-84447844D01*
X92500000Y-84447827D01*
X92500000Y-83750000D01*
X91500000Y-83750000D01*
X91000000Y-83750000D01*
X91000000Y-82100000D01*
X91500000Y-82100000D01*
X91500000Y-83250000D01*
X92500000Y-83250000D01*
X92500000Y-82552172D01*
X92499999Y-82552155D01*
X92493598Y-82492627D01*
X92493596Y-82492620D01*
X92443354Y-82357913D01*
X92443350Y-82357906D01*
X92357190Y-82242812D01*
X92357187Y-82242809D01*
X92242093Y-82156649D01*
X92242086Y-82156645D01*
X92107379Y-82106403D01*
X92107372Y-82106401D01*
X92047844Y-82100000D01*
X91500000Y-82100000D01*
X91000000Y-82100000D01*
X90452155Y-82100000D01*
X90392627Y-82106401D01*
X90392620Y-82106403D01*
X90257913Y-82156645D01*
X90257906Y-82156649D01*
X90142814Y-82242808D01*
X90142809Y-82242813D01*
X90100141Y-82299811D01*
X90044207Y-82341682D01*
X90000874Y-82349500D01*
X89849500Y-82349500D01*
X89782461Y-82329815D01*
X89736706Y-82277011D01*
X89725500Y-82225500D01*
X89725500Y-80950000D01*
X92650000Y-80950000D01*
X92650000Y-81497844D01*
X92656401Y-81557372D01*
X92656403Y-81557379D01*
X92706645Y-81692086D01*
X92706649Y-81692093D01*
X92792809Y-81807187D01*
X92792812Y-81807190D01*
X92907906Y-81893350D01*
X92907913Y-81893354D01*
X93042620Y-81943596D01*
X93042627Y-81943598D01*
X93102155Y-81949999D01*
X93102172Y-81950000D01*
X93800000Y-81950000D01*
X93800000Y-80950000D01*
X94300000Y-80950000D01*
X94300000Y-81950000D01*
X94997828Y-81950000D01*
X94997844Y-81949999D01*
X95057372Y-81943598D01*
X95057379Y-81943596D01*
X95192086Y-81893354D01*
X95192093Y-81893350D01*
X95307187Y-81807190D01*
X95307190Y-81807187D01*
X95393350Y-81692093D01*
X95393354Y-81692086D01*
X95443596Y-81557379D01*
X95443598Y-81557372D01*
X95449999Y-81497844D01*
X95450000Y-81497827D01*
X95450000Y-80950000D01*
X94300000Y-80950000D01*
X93800000Y-80950000D01*
X92650000Y-80950000D01*
X89725500Y-80950000D01*
X89725500Y-77392202D01*
X89745185Y-77325163D01*
X89767274Y-77299386D01*
X89840482Y-77234531D01*
X89840887Y-77233944D01*
X89930220Y-77104523D01*
X89986237Y-76956818D01*
X90005278Y-76800000D01*
X90001563Y-76769399D01*
X89986237Y-76643181D01*
X89936977Y-76513294D01*
X89930220Y-76495477D01*
X89840483Y-76365470D01*
X89722240Y-76260717D01*
X89722238Y-76260716D01*
X89722237Y-76260715D01*
X89582365Y-76187303D01*
X89428986Y-76149500D01*
X89428985Y-76149500D01*
X89271015Y-76149500D01*
X89271014Y-76149500D01*
X89117634Y-76187303D01*
X88977762Y-76260715D01*
X88977759Y-76260717D01*
X88977760Y-76260717D01*
X88868287Y-76357701D01*
X88859516Y-76365471D01*
X88769781Y-76495475D01*
X88769780Y-76495476D01*
X88713762Y-76643181D01*
X88694722Y-76799999D01*
X88694722Y-76800000D01*
X88713762Y-76956818D01*
X88769780Y-77104523D01*
X88769781Y-77104524D01*
X88859517Y-77234531D01*
X88932726Y-77299386D01*
X88969853Y-77358574D01*
X88974500Y-77392202D01*
X88974500Y-82225500D01*
X88954815Y-82292539D01*
X88902011Y-82338294D01*
X88850500Y-82349500D01*
X88575323Y-82349500D01*
X88502264Y-82364032D01*
X88502260Y-82364033D01*
X88468890Y-82386331D01*
X88402212Y-82407208D01*
X88334832Y-82388723D01*
X88331110Y-82386331D01*
X88297739Y-82364033D01*
X88297735Y-82364032D01*
X88224677Y-82349500D01*
X88224674Y-82349500D01*
X86675326Y-82349500D01*
X86675323Y-82349500D01*
X86602264Y-82364032D01*
X86602260Y-82364033D01*
X86568890Y-82386331D01*
X86502212Y-82407208D01*
X86434832Y-82388723D01*
X86431110Y-82386331D01*
X86397739Y-82364033D01*
X86397735Y-82364032D01*
X86324677Y-82349500D01*
X86324674Y-82349500D01*
X84899126Y-82349500D01*
X84832087Y-82329815D01*
X84799859Y-82299811D01*
X84757190Y-82242813D01*
X84757185Y-82242808D01*
X84642093Y-82156649D01*
X84642086Y-82156645D01*
X84507379Y-82106403D01*
X84507372Y-82106401D01*
X84447844Y-82100000D01*
X83900000Y-82100000D01*
X83900000Y-84900000D01*
X83400000Y-84900000D01*
X83400000Y-83750000D01*
X82400000Y-83750000D01*
X73088061Y-83750000D01*
X72908507Y-83666098D01*
X72906543Y-83665138D01*
X72420636Y-83416858D01*
X72099161Y-83250000D01*
X82400000Y-83250000D01*
X83400000Y-83250000D01*
X83400000Y-82100000D01*
X82852155Y-82100000D01*
X82792627Y-82106401D01*
X82792620Y-82106403D01*
X82657913Y-82156645D01*
X82657906Y-82156649D01*
X82542812Y-82242809D01*
X82542809Y-82242812D01*
X82456649Y-82357906D01*
X82456645Y-82357913D01*
X82406403Y-82492620D01*
X82406401Y-82492627D01*
X82400000Y-82552155D01*
X82400000Y-83250000D01*
X72099161Y-83250000D01*
X72062898Y-83231178D01*
X72061006Y-83230154D01*
X71589550Y-82964297D01*
X71524547Y-82927045D01*
X71236044Y-82761708D01*
X71234261Y-82760645D01*
X70777316Y-82477633D01*
X70429308Y-82258466D01*
X70427565Y-82257327D01*
X69985270Y-81957579D01*
X69884268Y-81887937D01*
X69644043Y-81722296D01*
X69642406Y-81721127D01*
X69214993Y-81405095D01*
X68881667Y-81154168D01*
X68880096Y-81152946D01*
X68690099Y-81000005D01*
X71494357Y-81000005D01*
X71514890Y-81247812D01*
X71514892Y-81247824D01*
X71575936Y-81488881D01*
X71675826Y-81716606D01*
X71811833Y-81924782D01*
X71835047Y-81949999D01*
X71980256Y-82107738D01*
X72176491Y-82260474D01*
X72176493Y-82260475D01*
X72356529Y-82357906D01*
X72395190Y-82378828D01*
X72630386Y-82459571D01*
X72875665Y-82500500D01*
X73124335Y-82500500D01*
X73369614Y-82459571D01*
X73604810Y-82378828D01*
X73823509Y-82260474D01*
X74019744Y-82107738D01*
X74188164Y-81924785D01*
X74324173Y-81716607D01*
X74424063Y-81488881D01*
X74485108Y-81247821D01*
X74485192Y-81246810D01*
X74505643Y-81000005D01*
X74505643Y-80999994D01*
X74501500Y-80950000D01*
X79450000Y-80950000D01*
X79450000Y-81497844D01*
X79456401Y-81557372D01*
X79456403Y-81557379D01*
X79506645Y-81692086D01*
X79506649Y-81692093D01*
X79592809Y-81807187D01*
X79592812Y-81807190D01*
X79707906Y-81893350D01*
X79707913Y-81893354D01*
X79842620Y-81943596D01*
X79842627Y-81943598D01*
X79902155Y-81949999D01*
X79902172Y-81950000D01*
X80600000Y-81950000D01*
X80600000Y-80950000D01*
X81100000Y-80950000D01*
X81100000Y-81950000D01*
X81797828Y-81950000D01*
X81797844Y-81949999D01*
X81857372Y-81943598D01*
X81857379Y-81943596D01*
X81992086Y-81893354D01*
X81992093Y-81893350D01*
X82107187Y-81807190D01*
X82107190Y-81807187D01*
X82193350Y-81692093D01*
X82193354Y-81692086D01*
X82243596Y-81557379D01*
X82243598Y-81557372D01*
X82249999Y-81497844D01*
X82250000Y-81497827D01*
X82250000Y-80950000D01*
X81100000Y-80950000D01*
X80600000Y-80950000D01*
X79450000Y-80950000D01*
X74501500Y-80950000D01*
X74485109Y-80752187D01*
X74485107Y-80752175D01*
X74424063Y-80511118D01*
X74324173Y-80283393D01*
X74188166Y-80075217D01*
X74118536Y-79999579D01*
X74019744Y-79892262D01*
X73823509Y-79739526D01*
X73823507Y-79739525D01*
X73823506Y-79739524D01*
X73604811Y-79621172D01*
X73604802Y-79621169D01*
X73369616Y-79540429D01*
X73124335Y-79499500D01*
X72875665Y-79499500D01*
X72630383Y-79540429D01*
X72395197Y-79621169D01*
X72395188Y-79621172D01*
X72176493Y-79739524D01*
X71980257Y-79892261D01*
X71811833Y-80075217D01*
X71675826Y-80283393D01*
X71575936Y-80511118D01*
X71514892Y-80752175D01*
X71514890Y-80752187D01*
X71494357Y-80999994D01*
X71494357Y-81000005D01*
X68690099Y-81000005D01*
X68467879Y-80821125D01*
X68290324Y-80675500D01*
X68143390Y-80554989D01*
X68141906Y-80553731D01*
X68095486Y-80513113D01*
X67745199Y-80206607D01*
X67507778Y-79994753D01*
X67446345Y-79939935D01*
X67430568Y-79925857D01*
X67429137Y-79924540D01*
X67395170Y-79892262D01*
X67245302Y-79749844D01*
X67048375Y-79562706D01*
X66933086Y-79450873D01*
X66744257Y-79267704D01*
X66742975Y-79266421D01*
X66533200Y-79050000D01*
X79450000Y-79050000D01*
X79450000Y-79597844D01*
X79456401Y-79657372D01*
X79456403Y-79657380D01*
X79474786Y-79706667D01*
X79479770Y-79776359D01*
X79474786Y-79793333D01*
X79456403Y-79842619D01*
X79456401Y-79842627D01*
X79450000Y-79902155D01*
X79450000Y-80450000D01*
X80600000Y-80450000D01*
X80600000Y-79050000D01*
X81100000Y-79050000D01*
X81100000Y-80450000D01*
X82250000Y-80450000D01*
X82250000Y-79902172D01*
X82249999Y-79902155D01*
X82243597Y-79842622D01*
X82243597Y-79842621D01*
X82225214Y-79793335D01*
X82220228Y-79723644D01*
X82225214Y-79706665D01*
X82243597Y-79657378D01*
X82243597Y-79657377D01*
X82249999Y-79597844D01*
X82250000Y-79597827D01*
X82250000Y-79050000D01*
X81100000Y-79050000D01*
X80600000Y-79050000D01*
X79450000Y-79050000D01*
X66533200Y-79050000D01*
X66378570Y-78890471D01*
X66085864Y-78581876D01*
X66084594Y-78580496D01*
X65736861Y-78190936D01*
X65456311Y-77869348D01*
X65455186Y-77868018D01*
X65124495Y-77465422D01*
X64975605Y-77279683D01*
X64856817Y-77131495D01*
X64855727Y-77130093D01*
X64789459Y-77042299D01*
X64719790Y-76950000D01*
X75400001Y-76950000D01*
X75400001Y-76986654D01*
X75410319Y-77087652D01*
X75464546Y-77251300D01*
X75464551Y-77251311D01*
X75555052Y-77398034D01*
X75555055Y-77398038D01*
X75676961Y-77519944D01*
X75676965Y-77519947D01*
X75823688Y-77610448D01*
X75823699Y-77610453D01*
X75987347Y-77664680D01*
X76088351Y-77674999D01*
X76187500Y-77674998D01*
X76187500Y-76950000D01*
X75400001Y-76950000D01*
X64719790Y-76950000D01*
X64542544Y-76715181D01*
X64347532Y-76450000D01*
X75400000Y-76450000D01*
X76187500Y-76450000D01*
X76187500Y-75350000D01*
X75400001Y-75350000D01*
X75400001Y-75386654D01*
X75410319Y-75487652D01*
X75464546Y-75651300D01*
X75464551Y-75651311D01*
X75555052Y-75798034D01*
X75555055Y-75798038D01*
X75569336Y-75812319D01*
X75602821Y-75873642D01*
X75597837Y-75943334D01*
X75569336Y-75987681D01*
X75555055Y-76001961D01*
X75555052Y-76001965D01*
X75464551Y-76148688D01*
X75464546Y-76148699D01*
X75410319Y-76312347D01*
X75400000Y-76413345D01*
X75400000Y-76450000D01*
X64347532Y-76450000D01*
X64288297Y-76369451D01*
X64287319Y-76368081D01*
X63991995Y-75941460D01*
X63823342Y-75690906D01*
X63751780Y-75584591D01*
X63750863Y-75583185D01*
X63473772Y-75145533D01*
X63391337Y-75011326D01*
X63292244Y-74850000D01*
X75400000Y-74850000D01*
X76187500Y-74850000D01*
X76187500Y-73750000D01*
X75400001Y-73750000D01*
X75400001Y-73786654D01*
X75410319Y-73887652D01*
X75464546Y-74051300D01*
X75464551Y-74051311D01*
X75555052Y-74198034D01*
X75555055Y-74198038D01*
X75569336Y-74212319D01*
X75602821Y-74273642D01*
X75597837Y-74343334D01*
X75569336Y-74387681D01*
X75555055Y-74401961D01*
X75555052Y-74401965D01*
X75464551Y-74548688D01*
X75464546Y-74548699D01*
X75410319Y-74712347D01*
X75400000Y-74813345D01*
X75400000Y-74850000D01*
X63292244Y-74850000D01*
X63248176Y-74778255D01*
X63247306Y-74776793D01*
X62988834Y-74328846D01*
X62977666Y-74308842D01*
X62778303Y-73951753D01*
X62777567Y-73950393D01*
X62537980Y-73492728D01*
X62531948Y-73480781D01*
X62415427Y-73250000D01*
X75400000Y-73250000D01*
X76187500Y-73250000D01*
X76187500Y-72150000D01*
X75400001Y-72150000D01*
X75400001Y-72186654D01*
X75410319Y-72287652D01*
X75464546Y-72451300D01*
X75464551Y-72451311D01*
X75555052Y-72598034D01*
X75555055Y-72598038D01*
X75569336Y-72612319D01*
X75602821Y-72673642D01*
X75597837Y-72743334D01*
X75569336Y-72787681D01*
X75555055Y-72801961D01*
X75555052Y-72801965D01*
X75464551Y-72948688D01*
X75464546Y-72948699D01*
X75410319Y-73112347D01*
X75400000Y-73213345D01*
X75400000Y-73250000D01*
X62415427Y-73250000D01*
X62343006Y-73106564D01*
X62342339Y-73105199D01*
X62122023Y-72638665D01*
X62116136Y-72625688D01*
X61943013Y-72244111D01*
X61942452Y-72242829D01*
X61741657Y-71768059D01*
X61714134Y-71700000D01*
X61693914Y-71650000D01*
X75400000Y-71650000D01*
X76187500Y-71650000D01*
X76187500Y-70924999D01*
X76088360Y-70925000D01*
X76088344Y-70925001D01*
X75987347Y-70935319D01*
X75823699Y-70989546D01*
X75823688Y-70989551D01*
X75676965Y-71080052D01*
X75676961Y-71080055D01*
X75555055Y-71201961D01*
X75555052Y-71201965D01*
X75464551Y-71348688D01*
X75464546Y-71348699D01*
X75410319Y-71512347D01*
X75400000Y-71613345D01*
X75400000Y-71650000D01*
X61693914Y-71650000D01*
X61579064Y-71366004D01*
X61578529Y-71364633D01*
X61397578Y-70882493D01*
X61251678Y-70473511D01*
X61251200Y-70472118D01*
X61120095Y-70073780D01*
X61090354Y-69983417D01*
X61059546Y-69884190D01*
X75649500Y-69884190D01*
X75655748Y-69942299D01*
X75692970Y-70042093D01*
X75704788Y-70073778D01*
X75788884Y-70186116D01*
X75901222Y-70270212D01*
X76032701Y-70319251D01*
X76032991Y-70319359D01*
X76078618Y-70352848D01*
X76079522Y-70351867D01*
X76087080Y-70358825D01*
X76087081Y-70358826D01*
X76126554Y-70395164D01*
X76128349Y-70396886D01*
X76651182Y-70919719D01*
X76684666Y-70981040D01*
X76687500Y-71007398D01*
X76687500Y-77674999D01*
X76786640Y-77674999D01*
X76786654Y-77674998D01*
X76887652Y-77664680D01*
X77051300Y-77610453D01*
X77051311Y-77610448D01*
X77198034Y-77519947D01*
X77198038Y-77519944D01*
X77319945Y-77398037D01*
X77357204Y-77337631D01*
X77409152Y-77290906D01*
X77478114Y-77279683D01*
X77537052Y-77303460D01*
X77596536Y-77347989D01*
X77620110Y-77365637D01*
X77626222Y-77370212D01*
X77718594Y-77404665D01*
X77757700Y-77419251D01*
X77815809Y-77425499D01*
X77815826Y-77425500D01*
X78509174Y-77425500D01*
X78509190Y-77425499D01*
X78567299Y-77419251D01*
X78587225Y-77411819D01*
X78698778Y-77370212D01*
X78792258Y-77300232D01*
X78857722Y-77275816D01*
X78866569Y-77275500D01*
X79575500Y-77275500D01*
X79642539Y-77295185D01*
X79688294Y-77347989D01*
X79699500Y-77399500D01*
X79699500Y-77550873D01*
X79679815Y-77617912D01*
X79649812Y-77650139D01*
X79592814Y-77692807D01*
X79592808Y-77692814D01*
X79506649Y-77807906D01*
X79506645Y-77807913D01*
X79456403Y-77942620D01*
X79456401Y-77942627D01*
X79450000Y-78002155D01*
X79450000Y-78550000D01*
X82250000Y-78550000D01*
X82250000Y-78002172D01*
X82249999Y-78002155D01*
X82243598Y-77942627D01*
X82243596Y-77942620D01*
X82193354Y-77807913D01*
X82193350Y-77807906D01*
X82107191Y-77692814D01*
X82107185Y-77692807D01*
X82050188Y-77650139D01*
X82008318Y-77594205D01*
X82000500Y-77550873D01*
X82000500Y-76125323D01*
X82000499Y-76125321D01*
X81985967Y-76052264D01*
X81985967Y-76052262D01*
X81985966Y-76052260D01*
X81963667Y-76018887D01*
X81942791Y-75952214D01*
X81961275Y-75884834D01*
X81963628Y-75881170D01*
X81985966Y-75847740D01*
X82000500Y-75774674D01*
X82000500Y-74349125D01*
X82020185Y-74282086D01*
X82050189Y-74249858D01*
X82107189Y-74207187D01*
X82107190Y-74207186D01*
X82193352Y-74092088D01*
X82193354Y-74092086D01*
X82243596Y-73957379D01*
X82243598Y-73957372D01*
X82250000Y-73897836D01*
X82250000Y-73350000D01*
X79450000Y-73350000D01*
X79450000Y-73897836D01*
X79456401Y-73957372D01*
X79456403Y-73957379D01*
X79506645Y-74092086D01*
X79506647Y-74092088D01*
X79592809Y-74207186D01*
X79592810Y-74207187D01*
X79649811Y-74249858D01*
X79691682Y-74305792D01*
X79699500Y-74349125D01*
X79699500Y-74500500D01*
X79679815Y-74567539D01*
X79627011Y-74613294D01*
X79575500Y-74624500D01*
X78955993Y-74624500D01*
X78888954Y-74604815D01*
X78856727Y-74574812D01*
X78811116Y-74513884D01*
X78698778Y-74429788D01*
X78662295Y-74416180D01*
X78606362Y-74374307D01*
X78581947Y-74308842D01*
X78596800Y-74240570D01*
X78646207Y-74191165D01*
X78662287Y-74183822D01*
X78698778Y-74170212D01*
X78811116Y-74086116D01*
X78895212Y-73973778D01*
X78944251Y-73842299D01*
X78946164Y-73824504D01*
X78950499Y-73784190D01*
X78950500Y-73784173D01*
X78950500Y-73215826D01*
X78950499Y-73215809D01*
X78944251Y-73157700D01*
X78915605Y-73080899D01*
X78895212Y-73026222D01*
X78811116Y-72913884D01*
X78725778Y-72850000D01*
X79450000Y-72850000D01*
X80600000Y-72850000D01*
X80600000Y-71850000D01*
X81100000Y-71850000D01*
X81100000Y-72850000D01*
X82250000Y-72850000D01*
X92650000Y-72850000D01*
X93800000Y-72850000D01*
X93800000Y-71850000D01*
X94300000Y-71850000D01*
X94300000Y-72850000D01*
X95450000Y-72850000D01*
X95450000Y-72302172D01*
X95449999Y-72302155D01*
X95443598Y-72242627D01*
X95443596Y-72242620D01*
X95393354Y-72107913D01*
X95393350Y-72107906D01*
X95307190Y-71992812D01*
X95307187Y-71992809D01*
X95192093Y-71906649D01*
X95192086Y-71906645D01*
X95057379Y-71856403D01*
X95057372Y-71856401D01*
X94997844Y-71850000D01*
X94300000Y-71850000D01*
X93800000Y-71850000D01*
X93102155Y-71850000D01*
X93042627Y-71856401D01*
X93042620Y-71856403D01*
X92907913Y-71906645D01*
X92907906Y-71906649D01*
X92792812Y-71992809D01*
X92792809Y-71992812D01*
X92706649Y-72107906D01*
X92706645Y-72107913D01*
X92656403Y-72242620D01*
X92656401Y-72242627D01*
X92650000Y-72302155D01*
X92650000Y-72850000D01*
X82250000Y-72850000D01*
X82250000Y-72302172D01*
X82249999Y-72302155D01*
X82243598Y-72242627D01*
X82243596Y-72242620D01*
X82193354Y-72107913D01*
X82193350Y-72107906D01*
X82107190Y-71992812D01*
X82107187Y-71992809D01*
X81992093Y-71906649D01*
X81992086Y-71906645D01*
X81857379Y-71856403D01*
X81857372Y-71856401D01*
X81797844Y-71850000D01*
X81100000Y-71850000D01*
X80600000Y-71850000D01*
X79902155Y-71850000D01*
X79842627Y-71856401D01*
X79842620Y-71856403D01*
X79707913Y-71906645D01*
X79707906Y-71906649D01*
X79592812Y-71992809D01*
X79592809Y-71992812D01*
X79506649Y-72107906D01*
X79506645Y-72107913D01*
X79456403Y-72242620D01*
X79456401Y-72242627D01*
X79450000Y-72302155D01*
X79450000Y-72850000D01*
X78725778Y-72850000D01*
X78698778Y-72829788D01*
X78698778Y-72829787D01*
X78662295Y-72816180D01*
X78606362Y-72774307D01*
X78581947Y-72708842D01*
X78596800Y-72640570D01*
X78646207Y-72591165D01*
X78662287Y-72583822D01*
X78698778Y-72570212D01*
X78811116Y-72486116D01*
X78895212Y-72373778D01*
X78944251Y-72242299D01*
X78944628Y-72238794D01*
X78950499Y-72184190D01*
X78950500Y-72184173D01*
X78950500Y-71615826D01*
X78950499Y-71615809D01*
X78944251Y-71557700D01*
X78904267Y-71450500D01*
X78895212Y-71426222D01*
X78811116Y-71313884D01*
X78719735Y-71245476D01*
X78698780Y-71229789D01*
X78698778Y-71229788D01*
X78672144Y-71219854D01*
X78567299Y-71180748D01*
X78509190Y-71174500D01*
X78509174Y-71174500D01*
X78019399Y-71174500D01*
X77952360Y-71154815D01*
X77931718Y-71138181D01*
X77343538Y-70550000D01*
X82400000Y-70550000D01*
X82400000Y-71247844D01*
X82406401Y-71307372D01*
X82406403Y-71307379D01*
X82456645Y-71442086D01*
X82456649Y-71442093D01*
X82542809Y-71557187D01*
X82542812Y-71557190D01*
X82657906Y-71643350D01*
X82657913Y-71643354D01*
X82792620Y-71693596D01*
X82792627Y-71693598D01*
X82852155Y-71699999D01*
X82852172Y-71700000D01*
X83400000Y-71700000D01*
X83400000Y-70550000D01*
X82400000Y-70550000D01*
X77343538Y-70550000D01*
X77059326Y-70265788D01*
X77025841Y-70204465D01*
X77030825Y-70134773D01*
X77047741Y-70103795D01*
X77070212Y-70073778D01*
X77119251Y-69942299D01*
X77119250Y-69942299D01*
X77125499Y-69884190D01*
X77125500Y-69884173D01*
X77125500Y-69444399D01*
X77145185Y-69377360D01*
X77161819Y-69356718D01*
X77262819Y-69255718D01*
X77324142Y-69222233D01*
X77393834Y-69227217D01*
X77449767Y-69269089D01*
X77474184Y-69334553D01*
X77474500Y-69343399D01*
X77474500Y-69884190D01*
X77480748Y-69942299D01*
X77517970Y-70042093D01*
X77529788Y-70073778D01*
X77613884Y-70186116D01*
X77726222Y-70270212D01*
X77818594Y-70304665D01*
X77857700Y-70319251D01*
X77915809Y-70325499D01*
X77915826Y-70325500D01*
X78509174Y-70325500D01*
X78509190Y-70325499D01*
X78567299Y-70319251D01*
X78567298Y-70319250D01*
X78698778Y-70270212D01*
X78811116Y-70186116D01*
X78895212Y-70073778D01*
X78944251Y-69942299D01*
X78944250Y-69942298D01*
X78950499Y-69884190D01*
X78950500Y-69884173D01*
X78950500Y-69399500D01*
X78970185Y-69332461D01*
X79022989Y-69286706D01*
X79074500Y-69275500D01*
X82276000Y-69275500D01*
X82343039Y-69295185D01*
X82388794Y-69347989D01*
X82400000Y-69399500D01*
X82400000Y-70050000D01*
X83776000Y-70050000D01*
X83843039Y-70069685D01*
X83888794Y-70122489D01*
X83900000Y-70174000D01*
X83900000Y-71700000D01*
X84447828Y-71700000D01*
X84447844Y-71699999D01*
X84507372Y-71693598D01*
X84507379Y-71693596D01*
X84642086Y-71643354D01*
X84642093Y-71643350D01*
X84757185Y-71557191D01*
X84757190Y-71557186D01*
X84799859Y-71500189D01*
X84855793Y-71458318D01*
X84899126Y-71450500D01*
X86324676Y-71450500D01*
X86324677Y-71450499D01*
X86397735Y-71435967D01*
X86397737Y-71435967D01*
X86397737Y-71435966D01*
X86397740Y-71435966D01*
X86431112Y-71413667D01*
X86497786Y-71392791D01*
X86565166Y-71411275D01*
X86568829Y-71413628D01*
X86602260Y-71435966D01*
X86602262Y-71435966D01*
X86602263Y-71435967D01*
X86675321Y-71450499D01*
X86675324Y-71450500D01*
X86675326Y-71450500D01*
X88224676Y-71450500D01*
X88224677Y-71450499D01*
X88297735Y-71435967D01*
X88297737Y-71435967D01*
X88297737Y-71435966D01*
X88297740Y-71435966D01*
X88331112Y-71413667D01*
X88397786Y-71392791D01*
X88465166Y-71411275D01*
X88468829Y-71413628D01*
X88502260Y-71435966D01*
X88502262Y-71435966D01*
X88502263Y-71435967D01*
X88575321Y-71450499D01*
X88575324Y-71450500D01*
X90000874Y-71450500D01*
X90067913Y-71470185D01*
X90100141Y-71500189D01*
X90142809Y-71557186D01*
X90142814Y-71557191D01*
X90257906Y-71643350D01*
X90257913Y-71643354D01*
X90392620Y-71693596D01*
X90392627Y-71693598D01*
X90452155Y-71699999D01*
X90452172Y-71700000D01*
X91000000Y-71700000D01*
X91000000Y-70550000D01*
X91500000Y-70550000D01*
X91500000Y-71700000D01*
X92047828Y-71700000D01*
X92047844Y-71699999D01*
X92107372Y-71693598D01*
X92107379Y-71693596D01*
X92242086Y-71643354D01*
X92242093Y-71643350D01*
X92357187Y-71557190D01*
X92357190Y-71557187D01*
X92443350Y-71442093D01*
X92443354Y-71442086D01*
X92493596Y-71307379D01*
X92493598Y-71307372D01*
X92499999Y-71247844D01*
X92500000Y-71247827D01*
X92500000Y-70550000D01*
X91500000Y-70550000D01*
X91000000Y-70550000D01*
X91000000Y-68900000D01*
X90452155Y-68900000D01*
X90392627Y-68906401D01*
X90392620Y-68906403D01*
X90257913Y-68956645D01*
X90257906Y-68956649D01*
X90142814Y-69042808D01*
X90142809Y-69042813D01*
X90100141Y-69099811D01*
X90044207Y-69141682D01*
X90000874Y-69149500D01*
X89837847Y-69149500D01*
X89770808Y-69129815D01*
X89725053Y-69077011D01*
X89716651Y-69047374D01*
X89714866Y-69041380D01*
X89714866Y-69041374D01*
X89714863Y-69041367D01*
X89712622Y-69033840D01*
X89710065Y-69026395D01*
X89710065Y-69026390D01*
X89684536Y-68979217D01*
X89683404Y-68977018D01*
X89659826Y-68928789D01*
X89659824Y-68928787D01*
X89659824Y-68928786D01*
X89655276Y-68922416D01*
X89650420Y-68916176D01*
X89650419Y-68916174D01*
X89632848Y-68899999D01*
X89610974Y-68879862D01*
X89609148Y-68878111D01*
X88902149Y-68171111D01*
X88886022Y-68151252D01*
X88880086Y-68142167D01*
X88880083Y-68142163D01*
X88852074Y-68120363D01*
X88846310Y-68115272D01*
X88843515Y-68112477D01*
X88825550Y-68099652D01*
X88823512Y-68098133D01*
X88783024Y-68066619D01*
X88781188Y-68065190D01*
X88774274Y-68061448D01*
X88767197Y-68057988D01*
X88715816Y-68042691D01*
X88713377Y-68041910D01*
X88662661Y-68024500D01*
X88654923Y-68023208D01*
X88647085Y-68022231D01*
X88597826Y-68024269D01*
X88593523Y-68024447D01*
X88590966Y-68024500D01*
X77639304Y-68024500D01*
X77613859Y-68021861D01*
X77603233Y-68019633D01*
X77603229Y-68019633D01*
X77568009Y-68024023D01*
X77560333Y-68024500D01*
X77556386Y-68024500D01*
X77553127Y-68025043D01*
X77534605Y-68028133D01*
X77532074Y-68028502D01*
X77478873Y-68035134D01*
X77471344Y-68037375D01*
X77463888Y-68039935D01*
X77433004Y-68056649D01*
X77417069Y-68065273D01*
X77416747Y-68065447D01*
X77414469Y-68066619D01*
X77366291Y-68090172D01*
X77359881Y-68094748D01*
X77353675Y-68099579D01*
X77317351Y-68139036D01*
X77315578Y-68140884D01*
X76912181Y-68544281D01*
X76850858Y-68577766D01*
X76781167Y-68572782D01*
X76725233Y-68530911D01*
X76700816Y-68465446D01*
X76700500Y-68456600D01*
X76700500Y-58896899D01*
X76720185Y-58829860D01*
X76736819Y-58809218D01*
X78159218Y-57386819D01*
X78220541Y-57353334D01*
X78246899Y-57350500D01*
X78393985Y-57350500D01*
X78547365Y-57312696D01*
X78575386Y-57297989D01*
X78687240Y-57239283D01*
X78805483Y-57134530D01*
X78895220Y-57004523D01*
X78951237Y-56856818D01*
X78970278Y-56700000D01*
X78966086Y-56665471D01*
X78951237Y-56543181D01*
X78925189Y-56474500D01*
X78895220Y-56395477D01*
X78805483Y-56265470D01*
X78687240Y-56160717D01*
X78687238Y-56160716D01*
X78687237Y-56160715D01*
X78547365Y-56087303D01*
X78393986Y-56049500D01*
X78393985Y-56049500D01*
X78236015Y-56049500D01*
X78236014Y-56049500D01*
X78082634Y-56087303D01*
X77942762Y-56160715D01*
X77910146Y-56189610D01*
X77834847Y-56256319D01*
X77824516Y-56265471D01*
X77734781Y-56395475D01*
X77734780Y-56395476D01*
X77678763Y-56543181D01*
X77659722Y-56700000D01*
X77659722Y-56700001D01*
X77665896Y-56750854D01*
X77654435Y-56819777D01*
X77630481Y-56853480D01*
X76096108Y-58387852D01*
X76076254Y-58403976D01*
X76067165Y-58409914D01*
X76067164Y-58409915D01*
X76045363Y-58437923D01*
X76040286Y-58443674D01*
X76037484Y-58446477D01*
X76037474Y-58446489D01*
X76024658Y-58464439D01*
X76023127Y-58466492D01*
X75990192Y-58508808D01*
X75986447Y-58515729D01*
X75982988Y-58522804D01*
X75967692Y-58574182D01*
X75966911Y-58576621D01*
X75949500Y-58627338D01*
X75948206Y-58635092D01*
X75947231Y-58642911D01*
X75949447Y-58696472D01*
X75949500Y-58699034D01*
X75949500Y-68831577D01*
X75929815Y-68898616D01*
X75899811Y-68930843D01*
X75788886Y-69013882D01*
X75788885Y-69013883D01*
X75788884Y-69013884D01*
X75779522Y-69026390D01*
X75704789Y-69126219D01*
X75655748Y-69257700D01*
X75649500Y-69315809D01*
X75649500Y-69884190D01*
X61059546Y-69884190D01*
X61029917Y-69788758D01*
X60961455Y-69568246D01*
X60961048Y-69566875D01*
X60959830Y-69562590D01*
X60820488Y-69072272D01*
X60708894Y-68651769D01*
X60708605Y-68650625D01*
X60588498Y-68150768D01*
X60494441Y-67725705D01*
X60494202Y-67724564D01*
X60464703Y-67575000D01*
X63644529Y-67575000D01*
X63707685Y-67745527D01*
X63707687Y-67745531D01*
X63809892Y-67909503D01*
X63943002Y-68049534D01*
X63943003Y-68049535D01*
X64101586Y-68159913D01*
X64279137Y-68236106D01*
X64468394Y-68275000D01*
X64715000Y-68275000D01*
X64715000Y-67625000D01*
X65215000Y-67625000D01*
X65215000Y-68275000D01*
X65413176Y-68275000D01*
X65557221Y-68260352D01*
X65741561Y-68202515D01*
X65741571Y-68202510D01*
X65910498Y-68108748D01*
X65910505Y-68108743D01*
X66057105Y-67982892D01*
X66175368Y-67830109D01*
X66175370Y-67830105D01*
X66260457Y-67656643D01*
X66281596Y-67575000D01*
X66674529Y-67575000D01*
X66737685Y-67745527D01*
X66737687Y-67745531D01*
X66839892Y-67909503D01*
X66973002Y-68049534D01*
X66973003Y-68049535D01*
X67131586Y-68159913D01*
X67309137Y-68236106D01*
X67498394Y-68275000D01*
X68095000Y-68275000D01*
X68095000Y-67625000D01*
X68595000Y-67625000D01*
X68595000Y-68275000D01*
X69143176Y-68275000D01*
X69287221Y-68260352D01*
X69471561Y-68202515D01*
X69471571Y-68202510D01*
X69640498Y-68108748D01*
X69640505Y-68108743D01*
X69787105Y-67982892D01*
X69905368Y-67830109D01*
X69905370Y-67830105D01*
X69990457Y-67656643D01*
X70011596Y-67575000D01*
X69261111Y-67575000D01*
X69300610Y-67550543D01*
X69368201Y-67461038D01*
X69398895Y-67353160D01*
X69388546Y-67241479D01*
X69338552Y-67141078D01*
X69266069Y-67075000D01*
X70015471Y-67075000D01*
X69952314Y-66904472D01*
X69952312Y-66904468D01*
X69850111Y-66740502D01*
X69834533Y-66724114D01*
X69809592Y-66723799D01*
X69803905Y-66726905D01*
X69734213Y-66721921D01*
X69689866Y-66693420D01*
X69059127Y-66062680D01*
X69036176Y-66020649D01*
X69125000Y-66020649D01*
X69164613Y-66102905D01*
X69235992Y-66159827D01*
X69302468Y-66175000D01*
X69347532Y-66175000D01*
X69414008Y-66159827D01*
X69485387Y-66102905D01*
X69525000Y-66020649D01*
X69525000Y-65975000D01*
X69678553Y-65975000D01*
X70076651Y-66373097D01*
X70105791Y-66322628D01*
X70161003Y-66152702D01*
X70161004Y-66152700D01*
X70179681Y-65975000D01*
X70161004Y-65797299D01*
X70161003Y-65797297D01*
X70105790Y-65627368D01*
X70076652Y-65576900D01*
X70076651Y-65576900D01*
X69946710Y-65706841D01*
X69923932Y-65719278D01*
X69919305Y-65732152D01*
X69906842Y-65746710D01*
X69678553Y-65975000D01*
X69525000Y-65975000D01*
X69525000Y-65929351D01*
X69485387Y-65847095D01*
X69414008Y-65790173D01*
X69347532Y-65775000D01*
X69302468Y-65775000D01*
X69235992Y-65790173D01*
X69164613Y-65847095D01*
X69125000Y-65929351D01*
X69125000Y-66020649D01*
X69036176Y-66020649D01*
X69025642Y-66001357D01*
X69030626Y-65931665D01*
X69059127Y-65887318D01*
X69185232Y-65761213D01*
X69246555Y-65727728D01*
X69289095Y-65725955D01*
X69325000Y-65730682D01*
X69481762Y-65710044D01*
X69627841Y-65649536D01*
X69743676Y-65560652D01*
X69751590Y-65557593D01*
X69760647Y-65543683D01*
X69849536Y-65427841D01*
X69910044Y-65281762D01*
X69928422Y-65142164D01*
X69930682Y-65125001D01*
X69930682Y-65124998D01*
X69914242Y-65000125D01*
X69910044Y-64968238D01*
X69849536Y-64822159D01*
X69849535Y-64822158D01*
X69849535Y-64822157D01*
X69813722Y-64775485D01*
X69788528Y-64710316D01*
X69802566Y-64641871D01*
X69813715Y-64624523D01*
X69849536Y-64577841D01*
X69910044Y-64431762D01*
X69928931Y-64288304D01*
X69930682Y-64275001D01*
X69930682Y-64274998D01*
X69910044Y-64118239D01*
X69910043Y-64118237D01*
X69861767Y-64001686D01*
X69849538Y-63972163D01*
X69849535Y-63972157D01*
X69823840Y-63938671D01*
X69813722Y-63925485D01*
X69788528Y-63860318D01*
X69802566Y-63791873D01*
X69813723Y-63774513D01*
X69833101Y-63749260D01*
X69849536Y-63727841D01*
X69910044Y-63581762D01*
X69929271Y-63435717D01*
X69930682Y-63425001D01*
X69930682Y-63424998D01*
X69910044Y-63268239D01*
X69910043Y-63268237D01*
X69849536Y-63122159D01*
X69832532Y-63099999D01*
X69813722Y-63075485D01*
X69788528Y-63010316D01*
X69802566Y-62941871D01*
X69813713Y-62924525D01*
X69849536Y-62877841D01*
X69910044Y-62731762D01*
X69930682Y-62575000D01*
X69928801Y-62560715D01*
X69912222Y-62434784D01*
X69910044Y-62418238D01*
X69858555Y-62293933D01*
X69849538Y-62272163D01*
X69849535Y-62272158D01*
X69848521Y-62270837D01*
X69815538Y-62227852D01*
X69813722Y-62225485D01*
X69788528Y-62160316D01*
X69802566Y-62091871D01*
X69813713Y-62074525D01*
X69849536Y-62027841D01*
X69910044Y-61881762D01*
X69926445Y-61757187D01*
X69930682Y-61725001D01*
X69930682Y-61724998D01*
X69910044Y-61568239D01*
X69910043Y-61568237D01*
X69860168Y-61447827D01*
X69849538Y-61422163D01*
X69849535Y-61422158D01*
X69813722Y-61375485D01*
X69788528Y-61310316D01*
X69802566Y-61241871D01*
X69813713Y-61224525D01*
X69849536Y-61177841D01*
X69910044Y-61031762D01*
X69930682Y-60875000D01*
X69929782Y-60868167D01*
X69910044Y-60718239D01*
X69910044Y-60718238D01*
X69849536Y-60572159D01*
X69849535Y-60572158D01*
X69849535Y-60572157D01*
X69813722Y-60525485D01*
X69788528Y-60460316D01*
X69802566Y-60391871D01*
X69813715Y-60374523D01*
X69849536Y-60327841D01*
X69910044Y-60181762D01*
X69926008Y-60060500D01*
X69930682Y-60025001D01*
X69930682Y-60024998D01*
X69916895Y-59920279D01*
X69910044Y-59868238D01*
X69849536Y-59722159D01*
X69753282Y-59596718D01*
X69730034Y-59578879D01*
X69688833Y-59522451D01*
X69684679Y-59452705D01*
X69718893Y-59391785D01*
X69724754Y-59386418D01*
X69787106Y-59332891D01*
X69905368Y-59180109D01*
X69905370Y-59180105D01*
X69990457Y-59006643D01*
X70011596Y-58925000D01*
X69261111Y-58925000D01*
X69300610Y-58900543D01*
X69368201Y-58811038D01*
X69398895Y-58703160D01*
X69388546Y-58591479D01*
X69338552Y-58491078D01*
X69266069Y-58425000D01*
X70015471Y-58425000D01*
X69952314Y-58254472D01*
X69952312Y-58254468D01*
X69850107Y-58090496D01*
X69716997Y-57950465D01*
X69716996Y-57950464D01*
X69558413Y-57840086D01*
X69380862Y-57763893D01*
X69191606Y-57725000D01*
X68595000Y-57725000D01*
X68595000Y-58375000D01*
X68095000Y-58375000D01*
X68095000Y-57725000D01*
X67546824Y-57725000D01*
X67402778Y-57739647D01*
X67218438Y-57797484D01*
X67218428Y-57797489D01*
X67049501Y-57891251D01*
X67049494Y-57891256D01*
X66902894Y-58017107D01*
X66784631Y-58169890D01*
X66784629Y-58169894D01*
X66699542Y-58343356D01*
X66678404Y-58425000D01*
X67428889Y-58425000D01*
X67389390Y-58449457D01*
X67321799Y-58538962D01*
X67291105Y-58646840D01*
X67301454Y-58758521D01*
X67351448Y-58858922D01*
X67423931Y-58925000D01*
X66674529Y-58925000D01*
X66737685Y-59095527D01*
X66737687Y-59095531D01*
X66839892Y-59259503D01*
X66973002Y-59399534D01*
X66973003Y-59399535D01*
X67131588Y-59509914D01*
X67137086Y-59512966D01*
X67136466Y-59514081D01*
X67185100Y-59554296D01*
X67206325Y-59620863D01*
X67195644Y-59674144D01*
X67194211Y-59677363D01*
X67138996Y-59847297D01*
X67138995Y-59847299D01*
X67120318Y-60025000D01*
X67138995Y-60202700D01*
X67138996Y-60202702D01*
X67194206Y-60372624D01*
X67194209Y-60372630D01*
X67223347Y-60423098D01*
X67353293Y-60293152D01*
X67376062Y-60280718D01*
X67380689Y-60267850D01*
X67393152Y-60253293D01*
X67575796Y-60070649D01*
X67775000Y-60070649D01*
X67814613Y-60152905D01*
X67885992Y-60209827D01*
X67952468Y-60225000D01*
X67997532Y-60225000D01*
X68064008Y-60209827D01*
X68135387Y-60152905D01*
X68175000Y-60070649D01*
X68175000Y-59979351D01*
X68135387Y-59897095D01*
X68064008Y-59840173D01*
X67997532Y-59825000D01*
X67952468Y-59825000D01*
X67885992Y-59840173D01*
X67814613Y-59897095D01*
X67775000Y-59979351D01*
X67775000Y-60070649D01*
X67575796Y-60070649D01*
X67887318Y-59759127D01*
X67948641Y-59725642D01*
X68018333Y-59730626D01*
X68062680Y-59759127D01*
X68240871Y-59937318D01*
X68274356Y-59998641D01*
X68269372Y-60068333D01*
X68240871Y-60112680D01*
X68114766Y-60238785D01*
X68053443Y-60272270D01*
X68010903Y-60274044D01*
X67988011Y-60271030D01*
X67975000Y-60269318D01*
X67974998Y-60269318D01*
X67974997Y-60269318D01*
X67818239Y-60289955D01*
X67818237Y-60289956D01*
X67672157Y-60350464D01*
X67556319Y-60439350D01*
X67548406Y-60442408D01*
X67539350Y-60456319D01*
X67450464Y-60572157D01*
X67389956Y-60718237D01*
X67389955Y-60718239D01*
X67369318Y-60874998D01*
X67369318Y-60875001D01*
X67389955Y-61031760D01*
X67389956Y-61031762D01*
X67450464Y-61177841D01*
X67486277Y-61224515D01*
X67511470Y-61289684D01*
X67497431Y-61358129D01*
X67486277Y-61375485D01*
X67450464Y-61422158D01*
X67389956Y-61568237D01*
X67389955Y-61568239D01*
X67369318Y-61724998D01*
X67369318Y-61725001D01*
X67389955Y-61881760D01*
X67389956Y-61881762D01*
X67450464Y-62027842D01*
X67486276Y-62074513D01*
X67511470Y-62139682D01*
X67497431Y-62208127D01*
X67486278Y-62225483D01*
X67450464Y-62272158D01*
X67389956Y-62418237D01*
X67389955Y-62418239D01*
X67369318Y-62574998D01*
X67369318Y-62575001D01*
X67389955Y-62731760D01*
X67389956Y-62731762D01*
X67450464Y-62877841D01*
X67486277Y-62924515D01*
X67511470Y-62989684D01*
X67497431Y-63058129D01*
X67486277Y-63075485D01*
X67450464Y-63122158D01*
X67389956Y-63268237D01*
X67389955Y-63268239D01*
X67369318Y-63424998D01*
X67369318Y-63425001D01*
X67389955Y-63581760D01*
X67389956Y-63581762D01*
X67450464Y-63727842D01*
X67486276Y-63774513D01*
X67511470Y-63839682D01*
X67497431Y-63908127D01*
X67486278Y-63925483D01*
X67450464Y-63972158D01*
X67389956Y-64118237D01*
X67389955Y-64118239D01*
X67369318Y-64274998D01*
X67369318Y-64275001D01*
X67389955Y-64431760D01*
X67389957Y-64431765D01*
X67450461Y-64577836D01*
X67450462Y-64577837D01*
X67450464Y-64577841D01*
X67486275Y-64624511D01*
X67486277Y-64624513D01*
X67511471Y-64689682D01*
X67497432Y-64758127D01*
X67486278Y-64775484D01*
X67450464Y-64822158D01*
X67389956Y-64968237D01*
X67389955Y-64968239D01*
X67369318Y-65124998D01*
X67369318Y-65125001D01*
X67389955Y-65281760D01*
X67389956Y-65281762D01*
X67450464Y-65427842D01*
X67486276Y-65474513D01*
X67511470Y-65539682D01*
X67497431Y-65608127D01*
X67486278Y-65625483D01*
X67450464Y-65672158D01*
X67389956Y-65818237D01*
X67389955Y-65818239D01*
X67369318Y-65974998D01*
X67369318Y-65975001D01*
X67389955Y-66131760D01*
X67389956Y-66131762D01*
X67434106Y-66238349D01*
X67441575Y-66307819D01*
X67410300Y-66370298D01*
X67356667Y-66404115D01*
X67218435Y-66447485D01*
X67218428Y-66447489D01*
X67049501Y-66541251D01*
X67049494Y-66541256D01*
X66902894Y-66667107D01*
X66784631Y-66819890D01*
X66784629Y-66819894D01*
X66699542Y-66993356D01*
X66678404Y-67075000D01*
X67428889Y-67075000D01*
X67389390Y-67099457D01*
X67321799Y-67188962D01*
X67291105Y-67296840D01*
X67301454Y-67408521D01*
X67351448Y-67508922D01*
X67423931Y-67575000D01*
X66674529Y-67575000D01*
X66281596Y-67575000D01*
X65531111Y-67575000D01*
X65570610Y-67550543D01*
X65638201Y-67461038D01*
X65668895Y-67353160D01*
X65658546Y-67241479D01*
X65608552Y-67141078D01*
X65536069Y-67075000D01*
X66285471Y-67075000D01*
X66222314Y-66904472D01*
X66222312Y-66904468D01*
X66120107Y-66740496D01*
X65986997Y-66600465D01*
X65986996Y-66600464D01*
X65828413Y-66490086D01*
X65650862Y-66413893D01*
X65461606Y-66375000D01*
X65215000Y-66375000D01*
X65215000Y-67025000D01*
X64715000Y-67025000D01*
X64715000Y-66375000D01*
X64516824Y-66375000D01*
X64372778Y-66389647D01*
X64188438Y-66447484D01*
X64188428Y-66447489D01*
X64019501Y-66541251D01*
X64019494Y-66541256D01*
X63872894Y-66667107D01*
X63754631Y-66819890D01*
X63754629Y-66819894D01*
X63669542Y-66993356D01*
X63648404Y-67075000D01*
X64398889Y-67075000D01*
X64359390Y-67099457D01*
X64291799Y-67188962D01*
X64261105Y-67296840D01*
X64271454Y-67408521D01*
X64321448Y-67508922D01*
X64393931Y-67575000D01*
X63644529Y-67575000D01*
X60464703Y-67575000D01*
X60394762Y-67220389D01*
X60318460Y-66791687D01*
X60318247Y-66790401D01*
X60310921Y-66743100D01*
X60239633Y-66282827D01*
X60181211Y-65851101D01*
X60181062Y-65849910D01*
X60123373Y-65339657D01*
X60121434Y-65318838D01*
X60082949Y-64905669D01*
X60082856Y-64904537D01*
X60046206Y-64392876D01*
X60046148Y-64391921D01*
X60023841Y-63956997D01*
X60023798Y-63955959D01*
X60008194Y-63443308D01*
X60008171Y-63442172D01*
X60003986Y-63006852D01*
X60003986Y-63005749D01*
X60009447Y-62492825D01*
X60009471Y-62491704D01*
X60023421Y-62056123D01*
X60049970Y-61543302D01*
X60050053Y-61541982D01*
X60052607Y-61507372D01*
X60082104Y-61107566D01*
X60129710Y-60596046D01*
X60129834Y-60594861D01*
X60179921Y-60162307D01*
X60248521Y-59652958D01*
X60248681Y-59651864D01*
X60316706Y-59221903D01*
X60369187Y-58925000D01*
X63644529Y-58925000D01*
X63707685Y-59095527D01*
X63707687Y-59095531D01*
X63809892Y-59259503D01*
X63943002Y-59399534D01*
X63943003Y-59399535D01*
X64101586Y-59509913D01*
X64279137Y-59586106D01*
X64468394Y-59625000D01*
X64715000Y-59625000D01*
X64715000Y-58975000D01*
X65215000Y-58975000D01*
X65215000Y-59625000D01*
X65413176Y-59625000D01*
X65557221Y-59610352D01*
X65741561Y-59552515D01*
X65741571Y-59552510D01*
X65910498Y-59458748D01*
X65910505Y-59458743D01*
X66057105Y-59332892D01*
X66175368Y-59180109D01*
X66175370Y-59180105D01*
X66260457Y-59006643D01*
X66281596Y-58925000D01*
X65531111Y-58925000D01*
X65570610Y-58900543D01*
X65638201Y-58811038D01*
X65668895Y-58703160D01*
X65658546Y-58591479D01*
X65608552Y-58491078D01*
X65536069Y-58425000D01*
X66285471Y-58425000D01*
X66222314Y-58254472D01*
X66222312Y-58254468D01*
X66120107Y-58090496D01*
X65986997Y-57950465D01*
X65986996Y-57950464D01*
X65828413Y-57840086D01*
X65650862Y-57763893D01*
X65461606Y-57725000D01*
X65215000Y-57725000D01*
X65215000Y-58375000D01*
X64715000Y-58375000D01*
X64715000Y-57725000D01*
X64516824Y-57725000D01*
X64372778Y-57739647D01*
X64188438Y-57797484D01*
X64188428Y-57797489D01*
X64019501Y-57891251D01*
X64019494Y-57891256D01*
X63872894Y-58017107D01*
X63754631Y-58169890D01*
X63754629Y-58169894D01*
X63669542Y-58343356D01*
X63648404Y-58425000D01*
X64398889Y-58425000D01*
X64359390Y-58449457D01*
X64291799Y-58538962D01*
X64261105Y-58646840D01*
X64271454Y-58758521D01*
X64321448Y-58858922D01*
X64393931Y-58925000D01*
X63644529Y-58925000D01*
X60369187Y-58925000D01*
X60406197Y-58715617D01*
X60406431Y-58714385D01*
X60492206Y-58288047D01*
X60602478Y-57785564D01*
X60602761Y-57784346D01*
X60706146Y-57362196D01*
X60837008Y-56864479D01*
X60837393Y-56863083D01*
X60902602Y-56637844D01*
X66550000Y-56637844D01*
X66556401Y-56697372D01*
X66556403Y-56697379D01*
X66606645Y-56832086D01*
X66606649Y-56832093D01*
X66692809Y-56947187D01*
X66692812Y-56947190D01*
X66807906Y-57033350D01*
X66807913Y-57033354D01*
X66942620Y-57083596D01*
X66942627Y-57083598D01*
X67002155Y-57089999D01*
X67002172Y-57090000D01*
X67650000Y-57090000D01*
X67650000Y-56175501D01*
X67757685Y-56224680D01*
X67864237Y-56240000D01*
X67935763Y-56240000D01*
X68042315Y-56224680D01*
X68150000Y-56175501D01*
X68150000Y-57090000D01*
X68797828Y-57090000D01*
X68797844Y-57089999D01*
X68857372Y-57083598D01*
X68857379Y-57083596D01*
X68992086Y-57033354D01*
X68992093Y-57033350D01*
X69107187Y-56947190D01*
X69107190Y-56947187D01*
X69193350Y-56832093D01*
X69193354Y-56832086D01*
X69243596Y-56697379D01*
X69243598Y-56697372D01*
X69249999Y-56637844D01*
X69250000Y-56637827D01*
X69250000Y-55990000D01*
X68333686Y-55990000D01*
X68359493Y-55949844D01*
X68400000Y-55811889D01*
X68400000Y-55668111D01*
X68359493Y-55530156D01*
X68333686Y-55490000D01*
X69250000Y-55490000D01*
X69250000Y-54842172D01*
X69249999Y-54842155D01*
X69243598Y-54782627D01*
X69243596Y-54782620D01*
X69228757Y-54742833D01*
X69223773Y-54673142D01*
X69257258Y-54611819D01*
X69318581Y-54578334D01*
X69344939Y-54575500D01*
X86147489Y-54575500D01*
X86172934Y-54578139D01*
X86176733Y-54578935D01*
X86183561Y-54580367D01*
X86204518Y-54577754D01*
X86218785Y-54575977D01*
X86226461Y-54575500D01*
X86230405Y-54575500D01*
X86230407Y-54575500D01*
X86252188Y-54571864D01*
X86254695Y-54571499D01*
X86307919Y-54564866D01*
X86307921Y-54564864D01*
X86315434Y-54562628D01*
X86322899Y-54560066D01*
X86322899Y-54560065D01*
X86322903Y-54560065D01*
X86370056Y-54534547D01*
X86372297Y-54533392D01*
X86420504Y-54509826D01*
X86420507Y-54509822D01*
X86426887Y-54505268D01*
X86433113Y-54500421D01*
X86433119Y-54500419D01*
X86469456Y-54460944D01*
X86471158Y-54459170D01*
X86837687Y-54092641D01*
X86899008Y-54059158D01*
X86968700Y-54064142D01*
X87024633Y-54106014D01*
X87027638Y-54110773D01*
X87027818Y-54110649D01*
X87121816Y-54246830D01*
X87182726Y-54300790D01*
X87219853Y-54359979D01*
X87224500Y-54393606D01*
X87224500Y-57235507D01*
X87204815Y-57302546D01*
X87152011Y-57348301D01*
X87082853Y-57358245D01*
X87042874Y-57345304D01*
X87001974Y-57323838D01*
X86932365Y-57287304D01*
X86932362Y-57287303D01*
X86778986Y-57249500D01*
X86778985Y-57249500D01*
X86621015Y-57249500D01*
X86621014Y-57249500D01*
X86467634Y-57287303D01*
X86327762Y-57360715D01*
X86275722Y-57406818D01*
X86212694Y-57462656D01*
X86209516Y-57465471D01*
X86119781Y-57595475D01*
X86119780Y-57595476D01*
X86063762Y-57743181D01*
X86044722Y-57899999D01*
X86044722Y-57900000D01*
X86063762Y-58056817D01*
X86068534Y-58069399D01*
X86116442Y-58195723D01*
X86124500Y-58239691D01*
X86124500Y-61876000D01*
X86104815Y-61943039D01*
X86052011Y-61988794D01*
X86000500Y-62000000D01*
X85450000Y-62000000D01*
X85450000Y-62914498D01*
X85342315Y-62865320D01*
X85235763Y-62850000D01*
X85164237Y-62850000D01*
X85057685Y-62865320D01*
X84950000Y-62914498D01*
X84950000Y-62000000D01*
X84302155Y-62000000D01*
X84242627Y-62006401D01*
X84242620Y-62006403D01*
X84107913Y-62056645D01*
X84107906Y-62056649D01*
X83992812Y-62142809D01*
X83992809Y-62142812D01*
X83906649Y-62257906D01*
X83906645Y-62257913D01*
X83856403Y-62392620D01*
X83856401Y-62392627D01*
X83850000Y-62452155D01*
X83850000Y-63100000D01*
X84766314Y-63100000D01*
X84740507Y-63140156D01*
X84700000Y-63278111D01*
X84700000Y-63421889D01*
X84740507Y-63559844D01*
X84766314Y-63600000D01*
X83850000Y-63600000D01*
X83850000Y-64247844D01*
X83856401Y-64307372D01*
X83856403Y-64307379D01*
X83906645Y-64442086D01*
X83906649Y-64442093D01*
X83992809Y-64557187D01*
X83992812Y-64557190D01*
X84107906Y-64643350D01*
X84107913Y-64643354D01*
X84242620Y-64693596D01*
X84242627Y-64693598D01*
X84302155Y-64699999D01*
X84302172Y-64700000D01*
X84950000Y-64700000D01*
X84950000Y-63785501D01*
X85057685Y-63834680D01*
X85164237Y-63850000D01*
X85235763Y-63850000D01*
X85342315Y-63834680D01*
X85450000Y-63785501D01*
X85450000Y-64700000D01*
X86000500Y-64700000D01*
X86067539Y-64719685D01*
X86113294Y-64772489D01*
X86124500Y-64824000D01*
X86124499Y-65203212D01*
X86104814Y-65270252D01*
X86052010Y-65316007D01*
X86045294Y-65318838D01*
X85937371Y-65360648D01*
X85937359Y-65360653D01*
X85763960Y-65468017D01*
X85763958Y-65468019D01*
X85613237Y-65605418D01*
X85490327Y-65768178D01*
X85399422Y-65950739D01*
X85399417Y-65950752D01*
X85343602Y-66146917D01*
X85324785Y-66349999D01*
X85324785Y-66350000D01*
X85343602Y-66553082D01*
X85399417Y-66749247D01*
X85399422Y-66749260D01*
X85490327Y-66931821D01*
X85613237Y-67094581D01*
X85763958Y-67231980D01*
X85763960Y-67231982D01*
X85829432Y-67272520D01*
X85937363Y-67339348D01*
X86127544Y-67413024D01*
X86328024Y-67450500D01*
X86328026Y-67450500D01*
X86531974Y-67450500D01*
X86531976Y-67450500D01*
X86732456Y-67413024D01*
X86922637Y-67339348D01*
X87096041Y-67231981D01*
X87246764Y-67094579D01*
X87369673Y-66931821D01*
X87460582Y-66749250D01*
X87516397Y-66553083D01*
X87535215Y-66350000D01*
X87531306Y-66307819D01*
X87516397Y-66146917D01*
X87482960Y-66029399D01*
X87460582Y-65950750D01*
X87369673Y-65768179D01*
X87297161Y-65672158D01*
X87246762Y-65605418D01*
X87096042Y-65468020D01*
X87096041Y-65468019D01*
X86961198Y-65384528D01*
X86934222Y-65367825D01*
X86887587Y-65315797D01*
X86875500Y-65262398D01*
X86875500Y-64331137D01*
X86895185Y-64264098D01*
X86947989Y-64218343D01*
X87017147Y-64208399D01*
X87068552Y-64229820D01*
X87069084Y-64228963D01*
X87143434Y-64274998D01*
X87247363Y-64339348D01*
X87437544Y-64413024D01*
X87638024Y-64450500D01*
X87638026Y-64450500D01*
X87841974Y-64450500D01*
X87841976Y-64450500D01*
X88042456Y-64413024D01*
X88232637Y-64339348D01*
X88405225Y-64232486D01*
X88472583Y-64213931D01*
X88539282Y-64234739D01*
X88584144Y-64288304D01*
X88594500Y-64337914D01*
X88594500Y-65230330D01*
X88574815Y-65297369D01*
X88522011Y-65343124D01*
X88515295Y-65345956D01*
X88477371Y-65360647D01*
X88477359Y-65360653D01*
X88303960Y-65468017D01*
X88303958Y-65468019D01*
X88153237Y-65605418D01*
X88030327Y-65768178D01*
X87939422Y-65950739D01*
X87939417Y-65950752D01*
X87883602Y-66146917D01*
X87864785Y-66349999D01*
X87864785Y-66350000D01*
X87883602Y-66553082D01*
X87939417Y-66749247D01*
X87939422Y-66749260D01*
X88030327Y-66931821D01*
X88153237Y-67094581D01*
X88303958Y-67231980D01*
X88303960Y-67231982D01*
X88369432Y-67272520D01*
X88477363Y-67339348D01*
X88667544Y-67413024D01*
X88868024Y-67450500D01*
X88868026Y-67450500D01*
X89071974Y-67450500D01*
X89071976Y-67450500D01*
X89272456Y-67413024D01*
X89462637Y-67339348D01*
X89636041Y-67231981D01*
X89755576Y-67123011D01*
X89791001Y-67090717D01*
X89792677Y-67092555D01*
X89843243Y-67061805D01*
X89913091Y-67063540D01*
X89962895Y-67093932D01*
X91557282Y-68688319D01*
X91590767Y-68749642D01*
X91585783Y-68819334D01*
X91543911Y-68875267D01*
X91513324Y-68886675D01*
X91500000Y-68900000D01*
X91500000Y-70050000D01*
X92500000Y-70050000D01*
X92500000Y-69352172D01*
X92499999Y-69352155D01*
X92495763Y-69312756D01*
X92508168Y-69243996D01*
X92555778Y-69192859D01*
X92619052Y-69175500D01*
X99193101Y-69175500D01*
X99260140Y-69195185D01*
X99280782Y-69211819D01*
X106481782Y-76412819D01*
X106515267Y-76474142D01*
X106510283Y-76543834D01*
X106468411Y-76599767D01*
X106402947Y-76624184D01*
X106394101Y-76624500D01*
X106051804Y-76624500D01*
X106026357Y-76621861D01*
X106023713Y-76621306D01*
X106015729Y-76619632D01*
X105980509Y-76624023D01*
X105972832Y-76624500D01*
X105968884Y-76624500D01*
X105947104Y-76628134D01*
X105944570Y-76628503D01*
X105891369Y-76635135D01*
X105883844Y-76637375D01*
X105876388Y-76639935D01*
X105829232Y-76665453D01*
X105826956Y-76666624D01*
X105778791Y-76690171D01*
X105772398Y-76694735D01*
X105766173Y-76699580D01*
X105729862Y-76739024D01*
X105728088Y-76740872D01*
X104887139Y-77581823D01*
X104080781Y-78388181D01*
X104019458Y-78421666D01*
X103993100Y-78424500D01*
X95324500Y-78424500D01*
X95257461Y-78404815D01*
X95211706Y-78352011D01*
X95200500Y-78300500D01*
X95200500Y-78025323D01*
X95200499Y-78025321D01*
X95185967Y-77952264D01*
X95185967Y-77952262D01*
X95185964Y-77952257D01*
X95163667Y-77918887D01*
X95142791Y-77852214D01*
X95161275Y-77784834D01*
X95163628Y-77781170D01*
X95185966Y-77747740D01*
X95200500Y-77674674D01*
X95200500Y-77330258D01*
X95220185Y-77263219D01*
X95270037Y-77218859D01*
X95288515Y-77209826D01*
X95288517Y-77209823D01*
X95288519Y-77209823D01*
X95294898Y-77205268D01*
X95301124Y-77200421D01*
X95301130Y-77200419D01*
X95337467Y-77160944D01*
X95339169Y-77159170D01*
X98044216Y-74454123D01*
X98105540Y-74420638D01*
X98131898Y-74417804D01*
X98278985Y-74417804D01*
X98432365Y-74380000D01*
X98471567Y-74359425D01*
X98572240Y-74306587D01*
X98690483Y-74201834D01*
X98780220Y-74071827D01*
X98836237Y-73924122D01*
X98855278Y-73767304D01*
X98848732Y-73713388D01*
X98836237Y-73610485D01*
X98792620Y-73495477D01*
X98780220Y-73462781D01*
X98690483Y-73332774D01*
X98572240Y-73228021D01*
X98572238Y-73228020D01*
X98572237Y-73228019D01*
X98432365Y-73154607D01*
X98278986Y-73116804D01*
X98278985Y-73116804D01*
X98121015Y-73116804D01*
X98121014Y-73116804D01*
X97967634Y-73154607D01*
X97827762Y-73228019D01*
X97709516Y-73332775D01*
X97619781Y-73462779D01*
X97619780Y-73462780D01*
X97563763Y-73610485D01*
X97544722Y-73767304D01*
X97544722Y-73767305D01*
X97550896Y-73818158D01*
X97539435Y-73887081D01*
X97515481Y-73920784D01*
X95372129Y-76064136D01*
X95310806Y-76097621D01*
X95241114Y-76092637D01*
X95185181Y-76050765D01*
X95181363Y-76045371D01*
X95163667Y-76018887D01*
X95142791Y-75952214D01*
X95161275Y-75884834D01*
X95163628Y-75881170D01*
X95185966Y-75847740D01*
X95200500Y-75774674D01*
X95200500Y-75385005D01*
X95220185Y-75317966D01*
X95233269Y-75301024D01*
X95233826Y-75300419D01*
X95270163Y-75260944D01*
X95271865Y-75259170D01*
X96044217Y-74486819D01*
X96105540Y-74453334D01*
X96131898Y-74450500D01*
X96278985Y-74450500D01*
X96432365Y-74412696D01*
X96452811Y-74401965D01*
X96572240Y-74339283D01*
X96690483Y-74234530D01*
X96780220Y-74104523D01*
X96836237Y-73956818D01*
X96855278Y-73800000D01*
X96853357Y-73784174D01*
X96836237Y-73643181D01*
X96793653Y-73530898D01*
X96780220Y-73495477D01*
X96690483Y-73365470D01*
X96572240Y-73260717D01*
X96572238Y-73260716D01*
X96572237Y-73260715D01*
X96432365Y-73187303D01*
X96278986Y-73149500D01*
X96278985Y-73149500D01*
X96121015Y-73149500D01*
X96121014Y-73149500D01*
X95967634Y-73187303D01*
X95827762Y-73260715D01*
X95709516Y-73365471D01*
X95676050Y-73413955D01*
X95621767Y-73457945D01*
X95552318Y-73465605D01*
X95489753Y-73434501D01*
X95453936Y-73374510D01*
X95450943Y-73350943D01*
X95450000Y-73350000D01*
X92650000Y-73350000D01*
X92650000Y-73897836D01*
X92656401Y-73957372D01*
X92656403Y-73957379D01*
X92706645Y-74092086D01*
X92706647Y-74092088D01*
X92792809Y-74207186D01*
X92792810Y-74207187D01*
X92849811Y-74249858D01*
X92891682Y-74305792D01*
X92899500Y-74349125D01*
X92899500Y-75774678D01*
X92914032Y-75847735D01*
X92914034Y-75847741D01*
X92936331Y-75881112D01*
X92957207Y-75947790D01*
X92938721Y-76015169D01*
X92936331Y-76018888D01*
X92914034Y-76052258D01*
X92914032Y-76052264D01*
X92899500Y-76125321D01*
X92899500Y-77674678D01*
X92914032Y-77747735D01*
X92914033Y-77747737D01*
X92914034Y-77747740D01*
X92936330Y-77781109D01*
X92957208Y-77847785D01*
X92938724Y-77915166D01*
X92936331Y-77918888D01*
X92914035Y-77952257D01*
X92914032Y-77952264D01*
X92899500Y-78025321D01*
X92899500Y-79450873D01*
X92879815Y-79517912D01*
X92849812Y-79550139D01*
X92792814Y-79592807D01*
X92792808Y-79592814D01*
X92706649Y-79707906D01*
X92706645Y-79707913D01*
X92656403Y-79842620D01*
X92656401Y-79842627D01*
X92650000Y-79902155D01*
X92650000Y-80450000D01*
X95450000Y-80450000D01*
X95450000Y-79902172D01*
X95449999Y-79902155D01*
X95443598Y-79842627D01*
X95443596Y-79842620D01*
X95393354Y-79707913D01*
X95393350Y-79707906D01*
X95307191Y-79592814D01*
X95307185Y-79592807D01*
X95250188Y-79550139D01*
X95208318Y-79494205D01*
X95200500Y-79450873D01*
X95200500Y-79299500D01*
X95220185Y-79232461D01*
X95272989Y-79186706D01*
X95324500Y-79175500D01*
X104148196Y-79175500D01*
X104173641Y-79178139D01*
X104177440Y-79178935D01*
X104184268Y-79180367D01*
X104205225Y-79177754D01*
X104219492Y-79175977D01*
X104227168Y-79175500D01*
X104231112Y-79175500D01*
X104231114Y-79175500D01*
X104252895Y-79171864D01*
X104255402Y-79171499D01*
X104308626Y-79164866D01*
X104308628Y-79164864D01*
X104316141Y-79162628D01*
X104323606Y-79160066D01*
X104323606Y-79160065D01*
X104323610Y-79160065D01*
X104370763Y-79134547D01*
X104373004Y-79133392D01*
X104421211Y-79109826D01*
X104421214Y-79109822D01*
X104427594Y-79105268D01*
X104433820Y-79100421D01*
X104433826Y-79100419D01*
X104470163Y-79060944D01*
X104471865Y-79059170D01*
X106119217Y-77411819D01*
X106180541Y-77378334D01*
X106206899Y-77375500D01*
X107527226Y-77375500D01*
X107542561Y-77377736D01*
X107542716Y-77376497D01*
X107552909Y-77377767D01*
X107552911Y-77377768D01*
X107552912Y-77377767D01*
X107552913Y-77377768D01*
X107577412Y-77376754D01*
X107606475Y-77375552D01*
X107609033Y-77375500D01*
X108480815Y-77375500D01*
X108547854Y-77395185D01*
X108591813Y-77444225D01*
X108660327Y-77581821D01*
X108660329Y-77581823D01*
X108783237Y-77744581D01*
X108933958Y-77881980D01*
X108933960Y-77881982D01*
X108993566Y-77918888D01*
X109107363Y-77989348D01*
X109188283Y-78020696D01*
X109243685Y-78063269D01*
X109267276Y-78129035D01*
X109251565Y-78197116D01*
X109201542Y-78245895D01*
X109175586Y-78256097D01*
X109136519Y-78266565D01*
X109136507Y-78266570D01*
X108922422Y-78366399D01*
X108922420Y-78366400D01*
X108728926Y-78501886D01*
X108728920Y-78501891D01*
X108561891Y-78668920D01*
X108561886Y-78668926D01*
X108426400Y-78862420D01*
X108426399Y-78862422D01*
X108326570Y-79076507D01*
X108326567Y-79076513D01*
X108269364Y-79289999D01*
X108269364Y-79290000D01*
X109166314Y-79290000D01*
X109140507Y-79330156D01*
X109100000Y-79468111D01*
X109100000Y-79611889D01*
X109140507Y-79749844D01*
X109166314Y-79790000D01*
X108269364Y-79790000D01*
X108326567Y-80003486D01*
X108326570Y-80003492D01*
X108426399Y-80217578D01*
X108561894Y-80411082D01*
X108728917Y-80578105D01*
X108922421Y-80713600D01*
X108985723Y-80743118D01*
X109038162Y-80789290D01*
X109057314Y-80856484D01*
X109037098Y-80923365D01*
X108983933Y-80968700D01*
X108933318Y-80979500D01*
X108725323Y-80979500D01*
X108652264Y-80994032D01*
X108652260Y-80994033D01*
X108569399Y-81049399D01*
X108514033Y-81132260D01*
X108514032Y-81132264D01*
X108499500Y-81205321D01*
X108499500Y-82954678D01*
X108514032Y-83027735D01*
X108514033Y-83027739D01*
X108532405Y-83055235D01*
X108569399Y-83110601D01*
X108628365Y-83150000D01*
X108652260Y-83165966D01*
X108652264Y-83165967D01*
X108725321Y-83180499D01*
X108725324Y-83180500D01*
X108725326Y-83180500D01*
X110474676Y-83180500D01*
X110474677Y-83180499D01*
X110547740Y-83165966D01*
X110630601Y-83110601D01*
X110685966Y-83027740D01*
X110700500Y-82954674D01*
X110700500Y-81205326D01*
X110700500Y-81205325D01*
X110700500Y-81205323D01*
X110700499Y-81205321D01*
X110685967Y-81132264D01*
X110685966Y-81132260D01*
X110661463Y-81095588D01*
X110630601Y-81049399D01*
X110559894Y-81002155D01*
X110547739Y-80994033D01*
X110547735Y-80994032D01*
X110474677Y-80979500D01*
X110474674Y-80979500D01*
X110266682Y-80979500D01*
X110199643Y-80959815D01*
X110153888Y-80907011D01*
X110143944Y-80837853D01*
X110172969Y-80774297D01*
X110214277Y-80743118D01*
X110277578Y-80713600D01*
X110471082Y-80578105D01*
X110638105Y-80411082D01*
X110773600Y-80217578D01*
X110873429Y-80003492D01*
X110873432Y-80003486D01*
X110930636Y-79790000D01*
X110033686Y-79790000D01*
X110059493Y-79749844D01*
X110100000Y-79611889D01*
X110100000Y-79468111D01*
X110059493Y-79330156D01*
X110033686Y-79290000D01*
X110930636Y-79290000D01*
X110930635Y-79289999D01*
X110873432Y-79076513D01*
X110873429Y-79076507D01*
X110773600Y-78862422D01*
X110773599Y-78862420D01*
X110638113Y-78668926D01*
X110638108Y-78668920D01*
X110471082Y-78501894D01*
X110277578Y-78366399D01*
X110063492Y-78266570D01*
X110063477Y-78266564D01*
X110024414Y-78256097D01*
X109964754Y-78219732D01*
X109934226Y-78156885D01*
X109942521Y-78087509D01*
X109987007Y-78033632D01*
X110011710Y-78020698D01*
X110092637Y-77989348D01*
X110266041Y-77881981D01*
X110416764Y-77744579D01*
X110539673Y-77581821D01*
X110630582Y-77399250D01*
X110686397Y-77203083D01*
X110705215Y-77000000D01*
X110686397Y-76796917D01*
X110630582Y-76600750D01*
X110626629Y-76592812D01*
X110555518Y-76450000D01*
X110539673Y-76418179D01*
X110480704Y-76340091D01*
X110416762Y-76255418D01*
X110266041Y-76118019D01*
X110266039Y-76118017D01*
X110092642Y-76010655D01*
X110092635Y-76010651D01*
X109918868Y-75943334D01*
X109902456Y-75936976D01*
X109701976Y-75899500D01*
X109498024Y-75899500D01*
X109297544Y-75936976D01*
X109297541Y-75936976D01*
X109297541Y-75936977D01*
X109107364Y-76010651D01*
X109107357Y-76010655D01*
X108933960Y-76118017D01*
X108933958Y-76118019D01*
X108783237Y-76255418D01*
X108663977Y-76413345D01*
X108660327Y-76418179D01*
X108591813Y-76555773D01*
X108544313Y-76607008D01*
X108480815Y-76624500D01*
X107806899Y-76624500D01*
X107739860Y-76604815D01*
X107719218Y-76588181D01*
X105591037Y-74460000D01*
X108494785Y-74460000D01*
X108513602Y-74663082D01*
X108569417Y-74859247D01*
X108569422Y-74859260D01*
X108660327Y-75041821D01*
X108783237Y-75204581D01*
X108933958Y-75341980D01*
X108933960Y-75341982D01*
X109027776Y-75400070D01*
X109107363Y-75449348D01*
X109297544Y-75523024D01*
X109498024Y-75560500D01*
X109498026Y-75560500D01*
X109701974Y-75560500D01*
X109701976Y-75560500D01*
X109902456Y-75523024D01*
X109961888Y-75500000D01*
X111444722Y-75500000D01*
X111463762Y-75656818D01*
X111508461Y-75774678D01*
X111519780Y-75804523D01*
X111609517Y-75934530D01*
X111727760Y-76039283D01*
X111727762Y-76039284D01*
X111867634Y-76112696D01*
X112021014Y-76150500D01*
X112021015Y-76150500D01*
X112178985Y-76150500D01*
X112313664Y-76117305D01*
X112383466Y-76120374D01*
X112431020Y-76150021D01*
X113113181Y-76832182D01*
X113146666Y-76893505D01*
X113149500Y-76919863D01*
X113149500Y-78574678D01*
X113164032Y-78647735D01*
X113164033Y-78647739D01*
X113164034Y-78647740D01*
X113219399Y-78730601D01*
X113302259Y-78785966D01*
X113302260Y-78785966D01*
X113302264Y-78785967D01*
X113375321Y-78800499D01*
X113375324Y-78800500D01*
X113375326Y-78800500D01*
X115424676Y-78800500D01*
X115424677Y-78800499D01*
X115497740Y-78785966D01*
X115580601Y-78730601D01*
X115635966Y-78647740D01*
X115650500Y-78574674D01*
X115650500Y-78000000D01*
X118300000Y-78000000D01*
X118300000Y-78597844D01*
X118306401Y-78657372D01*
X118306403Y-78657379D01*
X118356645Y-78792086D01*
X118356649Y-78792093D01*
X118442809Y-78907187D01*
X118442812Y-78907190D01*
X118557906Y-78993350D01*
X118557913Y-78993354D01*
X118692620Y-79043596D01*
X118692627Y-79043598D01*
X118752155Y-79049999D01*
X118752172Y-79050000D01*
X119550000Y-79050000D01*
X119550000Y-79049999D01*
X120049999Y-79049999D01*
X120050000Y-79050000D01*
X120847828Y-79050000D01*
X120847844Y-79049999D01*
X120907372Y-79043598D01*
X120907379Y-79043596D01*
X121042086Y-78993354D01*
X121042093Y-78993350D01*
X121157187Y-78907190D01*
X121157190Y-78907187D01*
X121243350Y-78792093D01*
X121243354Y-78792086D01*
X121293596Y-78657379D01*
X121293598Y-78657372D01*
X121299999Y-78597844D01*
X121300000Y-78597827D01*
X121300000Y-78000000D01*
X120050000Y-78000000D01*
X120049999Y-79049999D01*
X119550000Y-79049999D01*
X119550000Y-78000000D01*
X118300000Y-78000000D01*
X115650500Y-78000000D01*
X115650500Y-77500000D01*
X118300000Y-77500000D01*
X119550000Y-77500000D01*
X120049999Y-77500000D01*
X121300000Y-77500000D01*
X121300000Y-76902172D01*
X121299999Y-76902155D01*
X121293598Y-76842627D01*
X121293596Y-76842620D01*
X121243354Y-76707913D01*
X121243350Y-76707906D01*
X121157190Y-76592812D01*
X121157187Y-76592809D01*
X121042093Y-76506649D01*
X121042086Y-76506645D01*
X120907379Y-76456403D01*
X120907372Y-76456401D01*
X120847844Y-76450000D01*
X120050000Y-76450000D01*
X120049999Y-77500000D01*
X119550000Y-77500000D01*
X119550000Y-76450000D01*
X118752155Y-76450000D01*
X118692627Y-76456401D01*
X118692620Y-76456403D01*
X118557913Y-76506645D01*
X118557906Y-76506649D01*
X118442812Y-76592809D01*
X118442809Y-76592812D01*
X118356649Y-76707906D01*
X118356645Y-76707913D01*
X118306403Y-76842620D01*
X118306401Y-76842627D01*
X118300000Y-76902155D01*
X118300000Y-77500000D01*
X115650500Y-77500000D01*
X115650500Y-76925326D01*
X115650500Y-76925325D01*
X115650500Y-76925323D01*
X115650499Y-76925321D01*
X115635967Y-76852264D01*
X115635966Y-76852260D01*
X115635966Y-76852259D01*
X115580601Y-76769399D01*
X115525235Y-76732405D01*
X115497739Y-76714033D01*
X115497735Y-76714032D01*
X115424677Y-76699500D01*
X115424674Y-76699500D01*
X114093936Y-76699500D01*
X114026897Y-76679815D01*
X114006255Y-76663181D01*
X112773401Y-75430327D01*
X112739916Y-75369004D01*
X112737986Y-75357588D01*
X112736237Y-75343182D01*
X112736237Y-75343181D01*
X112704357Y-75259122D01*
X112680220Y-75195477D01*
X112590483Y-75065470D01*
X112472240Y-74960717D01*
X112472238Y-74960716D01*
X112472237Y-74960715D01*
X112332365Y-74887303D01*
X112178986Y-74849500D01*
X112178985Y-74849500D01*
X112021015Y-74849500D01*
X112021014Y-74849500D01*
X111867634Y-74887303D01*
X111727762Y-74960715D01*
X111703394Y-74982303D01*
X111636212Y-75041821D01*
X111609516Y-75065471D01*
X111519781Y-75195475D01*
X111519780Y-75195476D01*
X111463762Y-75343181D01*
X111444722Y-75499999D01*
X111444722Y-75500000D01*
X109961888Y-75500000D01*
X110092637Y-75449348D01*
X110266041Y-75341981D01*
X110416764Y-75204579D01*
X110539673Y-75041821D01*
X110630582Y-74859250D01*
X110686397Y-74663083D01*
X110705215Y-74460000D01*
X110704670Y-74454123D01*
X110686397Y-74256917D01*
X110686326Y-74256666D01*
X110630582Y-74060750D01*
X110625876Y-74051300D01*
X110575598Y-73950327D01*
X110539673Y-73878179D01*
X110455944Y-73767304D01*
X110416762Y-73715418D01*
X110266041Y-73578019D01*
X110266039Y-73578017D01*
X110092642Y-73470655D01*
X110092635Y-73470651D01*
X109946284Y-73413955D01*
X109902456Y-73396976D01*
X109701976Y-73359500D01*
X109498024Y-73359500D01*
X109297544Y-73396976D01*
X109297541Y-73396976D01*
X109297541Y-73396977D01*
X109107364Y-73470651D01*
X109107357Y-73470655D01*
X108933960Y-73578017D01*
X108933958Y-73578019D01*
X108783237Y-73715418D01*
X108660327Y-73878178D01*
X108569422Y-74060739D01*
X108569417Y-74060752D01*
X108513602Y-74256917D01*
X108494785Y-74459999D01*
X108494785Y-74460000D01*
X105591037Y-74460000D01*
X103722202Y-72591165D01*
X103051037Y-71920000D01*
X108494785Y-71920000D01*
X108513602Y-72123082D01*
X108569417Y-72319247D01*
X108569422Y-72319260D01*
X108660327Y-72501821D01*
X108783237Y-72664581D01*
X108915688Y-72785325D01*
X108933941Y-72801965D01*
X108933958Y-72801980D01*
X108933960Y-72801982D01*
X109031489Y-72862369D01*
X109107363Y-72909348D01*
X109297544Y-72983024D01*
X109498024Y-73020500D01*
X109498026Y-73020500D01*
X109701974Y-73020500D01*
X109701976Y-73020500D01*
X109902456Y-72983024D01*
X110092637Y-72909348D01*
X110266041Y-72801981D01*
X110406822Y-72673642D01*
X110416762Y-72664581D01*
X110416764Y-72664579D01*
X110539673Y-72501821D01*
X110630582Y-72319250D01*
X110686397Y-72123083D01*
X110705215Y-71920000D01*
X110686397Y-71716917D01*
X110630582Y-71520750D01*
X110539673Y-71338179D01*
X110416764Y-71175421D01*
X110416762Y-71175418D01*
X110266041Y-71038019D01*
X110266039Y-71038017D01*
X110092642Y-70930655D01*
X110092635Y-70930651D01*
X109968385Y-70882517D01*
X109902456Y-70856976D01*
X109701976Y-70819500D01*
X109498024Y-70819500D01*
X109297544Y-70856976D01*
X109297541Y-70856976D01*
X109297541Y-70856977D01*
X109107364Y-70930651D01*
X109107357Y-70930655D01*
X108933960Y-71038017D01*
X108933958Y-71038019D01*
X108783237Y-71175418D01*
X108660327Y-71338178D01*
X108569422Y-71520739D01*
X108569417Y-71520752D01*
X108513602Y-71716917D01*
X108494785Y-71919999D01*
X108494785Y-71920000D01*
X103051037Y-71920000D01*
X99702149Y-68571111D01*
X99686022Y-68551252D01*
X99680086Y-68542167D01*
X99680083Y-68542163D01*
X99652074Y-68520363D01*
X99646310Y-68515272D01*
X99643515Y-68512477D01*
X99625550Y-68499652D01*
X99623512Y-68498133D01*
X99581189Y-68465191D01*
X99581188Y-68465190D01*
X99574274Y-68461448D01*
X99567197Y-68457988D01*
X99515816Y-68442691D01*
X99513377Y-68441910D01*
X99462661Y-68424500D01*
X99454923Y-68423208D01*
X99447085Y-68422231D01*
X99397826Y-68424269D01*
X99393523Y-68424447D01*
X99390966Y-68424500D01*
X92406899Y-68424500D01*
X92339860Y-68404815D01*
X92319218Y-68388181D01*
X91584172Y-67653135D01*
X91550687Y-67591812D01*
X91555671Y-67522120D01*
X91597543Y-67466187D01*
X91649064Y-67443567D01*
X91812456Y-67413024D01*
X92002637Y-67339348D01*
X92176041Y-67231981D01*
X92326764Y-67094579D01*
X92449673Y-66931821D01*
X92460013Y-66911056D01*
X92465000Y-66901041D01*
X92512503Y-66849803D01*
X92580165Y-66832382D01*
X92646506Y-66854307D01*
X92690461Y-66908619D01*
X92700000Y-66956312D01*
X92700000Y-67247844D01*
X92706401Y-67307372D01*
X92706403Y-67307379D01*
X92756645Y-67442086D01*
X92756649Y-67442093D01*
X92842809Y-67557187D01*
X92842812Y-67557190D01*
X92957906Y-67643350D01*
X92957913Y-67643354D01*
X93092620Y-67693596D01*
X93092627Y-67693598D01*
X93152155Y-67699999D01*
X93152172Y-67700000D01*
X93800000Y-67700000D01*
X93800000Y-66785501D01*
X93907685Y-66834680D01*
X94014237Y-66850000D01*
X94085763Y-66850000D01*
X94192315Y-66834680D01*
X94300000Y-66785501D01*
X94300000Y-67700000D01*
X94947828Y-67700000D01*
X94947844Y-67699999D01*
X95007372Y-67693598D01*
X95007379Y-67693596D01*
X95142086Y-67643354D01*
X95142093Y-67643350D01*
X95257187Y-67557190D01*
X95257190Y-67557187D01*
X95343350Y-67442093D01*
X95343354Y-67442086D01*
X95393596Y-67307379D01*
X95393598Y-67307372D01*
X95399999Y-67247844D01*
X95400000Y-67247827D01*
X95400000Y-66600000D01*
X94483686Y-66600000D01*
X94509493Y-66559844D01*
X94550000Y-66421889D01*
X94550000Y-66278111D01*
X94509493Y-66140156D01*
X94483686Y-66100000D01*
X95400000Y-66100000D01*
X95400000Y-65452172D01*
X95399999Y-65452155D01*
X95393598Y-65392627D01*
X95393596Y-65392620D01*
X95343354Y-65257913D01*
X95343350Y-65257906D01*
X95257190Y-65142812D01*
X95257187Y-65142809D01*
X95142093Y-65056649D01*
X95142086Y-65056645D01*
X95007379Y-65006403D01*
X95007372Y-65006401D01*
X94947844Y-65000000D01*
X94300000Y-65000000D01*
X94300000Y-65914498D01*
X94192315Y-65865320D01*
X94085763Y-65850000D01*
X94014237Y-65850000D01*
X93907685Y-65865320D01*
X93800000Y-65914498D01*
X93800000Y-65000000D01*
X93152155Y-65000000D01*
X93092627Y-65006401D01*
X93092620Y-65006403D01*
X92957913Y-65056645D01*
X92957906Y-65056649D01*
X92842812Y-65142809D01*
X92842809Y-65142812D01*
X92756649Y-65257906D01*
X92756645Y-65257913D01*
X92706403Y-65392620D01*
X92706401Y-65392627D01*
X92700000Y-65452155D01*
X92700000Y-65743687D01*
X92680315Y-65810726D01*
X92627511Y-65856481D01*
X92558353Y-65866425D01*
X92494797Y-65837400D01*
X92465000Y-65798960D01*
X92463120Y-65795185D01*
X92449673Y-65768179D01*
X92433461Y-65746710D01*
X92326762Y-65605418D01*
X92176041Y-65468019D01*
X92176039Y-65468017D01*
X92002642Y-65360655D01*
X92002639Y-65360653D01*
X92002637Y-65360652D01*
X92002636Y-65360651D01*
X92002635Y-65360651D01*
X91885499Y-65315273D01*
X91812456Y-65286976D01*
X91611976Y-65249500D01*
X91408024Y-65249500D01*
X91207544Y-65286976D01*
X91207541Y-65286976D01*
X91207541Y-65286977D01*
X91017364Y-65360651D01*
X91017357Y-65360655D01*
X90843960Y-65468017D01*
X90843958Y-65468019D01*
X90693237Y-65605418D01*
X90570327Y-65768178D01*
X90479422Y-65950739D01*
X90479417Y-65950752D01*
X90423603Y-66146917D01*
X90418662Y-66200234D01*
X90392875Y-66265171D01*
X90336074Y-66305858D01*
X90266293Y-66309377D01*
X90207510Y-66276472D01*
X90070595Y-66139557D01*
X90039010Y-66085812D01*
X90000582Y-65950750D01*
X89977097Y-65903585D01*
X89909674Y-65768180D01*
X89786762Y-65605418D01*
X89636041Y-65468019D01*
X89636039Y-65468017D01*
X89462640Y-65360653D01*
X89462628Y-65360647D01*
X89424705Y-65345956D01*
X89369304Y-65303383D01*
X89345714Y-65237616D01*
X89345500Y-65230330D01*
X89345500Y-64950000D01*
X99294722Y-64950000D01*
X99313762Y-65106818D01*
X99338146Y-65171111D01*
X99369780Y-65254523D01*
X99459517Y-65384530D01*
X99577760Y-65489283D01*
X99577762Y-65489284D01*
X99717634Y-65562696D01*
X99871014Y-65600500D01*
X100018101Y-65600500D01*
X100085140Y-65620185D01*
X100105782Y-65636819D01*
X103047849Y-68578886D01*
X103063977Y-68598745D01*
X103069916Y-68607836D01*
X103097932Y-68629641D01*
X103103693Y-68634730D01*
X103106482Y-68637519D01*
X103124433Y-68650335D01*
X103126489Y-68651868D01*
X103168810Y-68684809D01*
X103175704Y-68688539D01*
X103182798Y-68692008D01*
X103182801Y-68692010D01*
X103234223Y-68707318D01*
X103236583Y-68708075D01*
X103287340Y-68725500D01*
X103287342Y-68725500D01*
X103295072Y-68726790D01*
X103302910Y-68727767D01*
X103302912Y-68727768D01*
X103302913Y-68727767D01*
X103302914Y-68727768D01*
X103327413Y-68726754D01*
X103356476Y-68725552D01*
X103359034Y-68725500D01*
X109329497Y-68725500D01*
X109396536Y-68745185D01*
X109417178Y-68761819D01*
X113309669Y-72654310D01*
X113343154Y-72715633D01*
X113338170Y-72785325D01*
X113325091Y-72810881D01*
X113319399Y-72819398D01*
X113319399Y-72819399D01*
X113303373Y-72843383D01*
X113264033Y-72902260D01*
X113264032Y-72902264D01*
X113249500Y-72975321D01*
X113249500Y-74324678D01*
X113264032Y-74397735D01*
X113264033Y-74397739D01*
X113272092Y-74409800D01*
X113319399Y-74480601D01*
X113379796Y-74520956D01*
X113402260Y-74535966D01*
X113402264Y-74535967D01*
X113475321Y-74550499D01*
X113475324Y-74550500D01*
X113475326Y-74550500D01*
X115074676Y-74550500D01*
X115074677Y-74550499D01*
X115147740Y-74535966D01*
X115230601Y-74480601D01*
X115285966Y-74397740D01*
X115300500Y-74324674D01*
X115300499Y-73530897D01*
X115320183Y-73463859D01*
X115372987Y-73418104D01*
X115442146Y-73408160D01*
X115505702Y-73437185D01*
X115512180Y-73443217D01*
X116922849Y-74853886D01*
X116938977Y-74873745D01*
X116944916Y-74882836D01*
X116972932Y-74904641D01*
X116978693Y-74909730D01*
X116981482Y-74912519D01*
X116999433Y-74925335D01*
X117001489Y-74926868D01*
X117043810Y-74959809D01*
X117050704Y-74963539D01*
X117057798Y-74967008D01*
X117057801Y-74967010D01*
X117109223Y-74982318D01*
X117111583Y-74983075D01*
X117162340Y-75000500D01*
X117162342Y-75000500D01*
X117170072Y-75001790D01*
X117177910Y-75002767D01*
X117177912Y-75002768D01*
X117177913Y-75002767D01*
X117177914Y-75002768D01*
X117202413Y-75001754D01*
X117231476Y-75000552D01*
X117234034Y-75000500D01*
X128123196Y-75000500D01*
X128148641Y-75003139D01*
X128152440Y-75003935D01*
X128159268Y-75005367D01*
X128180225Y-75002754D01*
X128194492Y-75000977D01*
X128202168Y-75000500D01*
X128206112Y-75000500D01*
X128206114Y-75000500D01*
X128227895Y-74996864D01*
X128230402Y-74996499D01*
X128283626Y-74989866D01*
X128283628Y-74989864D01*
X128291141Y-74987628D01*
X128298606Y-74985066D01*
X128298606Y-74985065D01*
X128298610Y-74985065D01*
X128345763Y-74959547D01*
X128348022Y-74958383D01*
X128389758Y-74937980D01*
X128458628Y-74926220D01*
X128522926Y-74953562D01*
X128562234Y-75011326D01*
X128564073Y-75081171D01*
X128531899Y-75137061D01*
X123780781Y-79888181D01*
X123719458Y-79921666D01*
X123693100Y-79924500D01*
X116001804Y-79924500D01*
X115976359Y-79921861D01*
X115965733Y-79919633D01*
X115965730Y-79919633D01*
X115930508Y-79924023D01*
X115922832Y-79924500D01*
X115918886Y-79924500D01*
X115897126Y-79928130D01*
X115894603Y-79928498D01*
X115841371Y-79935134D01*
X115833857Y-79937371D01*
X115826387Y-79939935D01*
X115785477Y-79962074D01*
X115780161Y-79964952D01*
X115779246Y-79965447D01*
X115776970Y-79966618D01*
X115728792Y-79990171D01*
X115722375Y-79994753D01*
X115716175Y-79999579D01*
X115679851Y-80039036D01*
X115678078Y-80040884D01*
X114955781Y-80763181D01*
X114894458Y-80796666D01*
X114868100Y-80799500D01*
X113375323Y-80799500D01*
X113302264Y-80814032D01*
X113302260Y-80814033D01*
X113219399Y-80869399D01*
X113164033Y-80952260D01*
X113164032Y-80952264D01*
X113149500Y-81025321D01*
X113149500Y-82674678D01*
X113164032Y-82747735D01*
X113164033Y-82747739D01*
X113164034Y-82747740D01*
X113219399Y-82830601D01*
X113302259Y-82885965D01*
X113302260Y-82885966D01*
X113302264Y-82885967D01*
X113375321Y-82900499D01*
X113375324Y-82900500D01*
X113375326Y-82900500D01*
X115424676Y-82900500D01*
X115424677Y-82900499D01*
X115497740Y-82885966D01*
X115580601Y-82830601D01*
X115635966Y-82747740D01*
X115650500Y-82674674D01*
X115650500Y-82100000D01*
X118300000Y-82100000D01*
X118300000Y-82697844D01*
X118306401Y-82757372D01*
X118306403Y-82757379D01*
X118356645Y-82892086D01*
X118356649Y-82892093D01*
X118442809Y-83007187D01*
X118442812Y-83007190D01*
X118557906Y-83093350D01*
X118557913Y-83093354D01*
X118692620Y-83143596D01*
X118692627Y-83143598D01*
X118752155Y-83149999D01*
X118752172Y-83150000D01*
X119550000Y-83150000D01*
X119550000Y-83149999D01*
X120049999Y-83149999D01*
X120050000Y-83150000D01*
X120847828Y-83150000D01*
X120847844Y-83149999D01*
X120907372Y-83143598D01*
X120907379Y-83143596D01*
X121042086Y-83093354D01*
X121042093Y-83093350D01*
X121157187Y-83007190D01*
X121157190Y-83007187D01*
X121243350Y-82892093D01*
X121243354Y-82892086D01*
X121293596Y-82757379D01*
X121293598Y-82757372D01*
X121299999Y-82697844D01*
X121300000Y-82697827D01*
X121300000Y-82100000D01*
X120050000Y-82100000D01*
X120049999Y-83149999D01*
X119550000Y-83149999D01*
X119550000Y-82100000D01*
X118300000Y-82100000D01*
X115650500Y-82100000D01*
X115650500Y-81181898D01*
X115670185Y-81114860D01*
X115686819Y-81094218D01*
X116069219Y-80711819D01*
X116130542Y-80678334D01*
X116156900Y-80675500D01*
X118227439Y-80675500D01*
X118294478Y-80695185D01*
X118340233Y-80747989D01*
X118350177Y-80817147D01*
X118343621Y-80842833D01*
X118306403Y-80942619D01*
X118306401Y-80942627D01*
X118300000Y-81002155D01*
X118300000Y-81600000D01*
X121300000Y-81600000D01*
X121300000Y-81002172D01*
X121299999Y-81002155D01*
X121299768Y-81000005D01*
X125494357Y-81000005D01*
X125514890Y-81247812D01*
X125514892Y-81247824D01*
X125575936Y-81488881D01*
X125675826Y-81716606D01*
X125811833Y-81924782D01*
X125835047Y-81949999D01*
X125980256Y-82107738D01*
X126176491Y-82260474D01*
X126176493Y-82260475D01*
X126356529Y-82357906D01*
X126395190Y-82378828D01*
X126630386Y-82459571D01*
X126875665Y-82500500D01*
X127124335Y-82500500D01*
X127369614Y-82459571D01*
X127604810Y-82378828D01*
X127823509Y-82260474D01*
X128019744Y-82107738D01*
X128188164Y-81924785D01*
X128324173Y-81716607D01*
X128424063Y-81488881D01*
X128485108Y-81247821D01*
X128485192Y-81246810D01*
X128505643Y-81000005D01*
X128505643Y-80999994D01*
X128485109Y-80752187D01*
X128485107Y-80752175D01*
X128424063Y-80511118D01*
X128324173Y-80283393D01*
X128188166Y-80075217D01*
X128118536Y-79999579D01*
X128019744Y-79892262D01*
X127823509Y-79739526D01*
X127823507Y-79739525D01*
X127823506Y-79739524D01*
X127604811Y-79621172D01*
X127604802Y-79621169D01*
X127369616Y-79540429D01*
X127124335Y-79499500D01*
X126875665Y-79499500D01*
X126630383Y-79540429D01*
X126395197Y-79621169D01*
X126395188Y-79621172D01*
X126176493Y-79739524D01*
X125980257Y-79892261D01*
X125811833Y-80075217D01*
X125675826Y-80283393D01*
X125575936Y-80511118D01*
X125514892Y-80752175D01*
X125514890Y-80752187D01*
X125494357Y-80999994D01*
X125494357Y-81000005D01*
X121299768Y-81000005D01*
X121293598Y-80942627D01*
X121293596Y-80942619D01*
X121256379Y-80842833D01*
X121251395Y-80773141D01*
X121284880Y-80711818D01*
X121346204Y-80678334D01*
X121372561Y-80675500D01*
X123848196Y-80675500D01*
X123873641Y-80678139D01*
X123877440Y-80678935D01*
X123884268Y-80680367D01*
X123905225Y-80677754D01*
X123919492Y-80675977D01*
X123927168Y-80675500D01*
X123931112Y-80675500D01*
X123931114Y-80675500D01*
X123952895Y-80671864D01*
X123955402Y-80671499D01*
X124008626Y-80664866D01*
X124008628Y-80664864D01*
X124016141Y-80662628D01*
X124023606Y-80660066D01*
X124023606Y-80660065D01*
X124023610Y-80660065D01*
X124070763Y-80634547D01*
X124073004Y-80633392D01*
X124121211Y-80609826D01*
X124121214Y-80609822D01*
X124127594Y-80605268D01*
X124133820Y-80600421D01*
X124133826Y-80600419D01*
X124170163Y-80560944D01*
X124171865Y-80559170D01*
X130406358Y-74324678D01*
X133024500Y-74324678D01*
X133039032Y-74397735D01*
X133039033Y-74397739D01*
X133047092Y-74409800D01*
X133094399Y-74480601D01*
X133154796Y-74520956D01*
X133177260Y-74535966D01*
X133177264Y-74535967D01*
X133250321Y-74550499D01*
X133250324Y-74550500D01*
X133250326Y-74550500D01*
X134849676Y-74550500D01*
X134849677Y-74550499D01*
X134922740Y-74535966D01*
X135005601Y-74480601D01*
X135060966Y-74397740D01*
X135075500Y-74324674D01*
X135075500Y-72975326D01*
X135075500Y-72975325D01*
X135075500Y-72975323D01*
X135075499Y-72975321D01*
X135060967Y-72902264D01*
X135060966Y-72902260D01*
X135034312Y-72862369D01*
X135005601Y-72819399D01*
X134922740Y-72764034D01*
X134922739Y-72764033D01*
X134922735Y-72764032D01*
X134849677Y-72749500D01*
X134849674Y-72749500D01*
X133250326Y-72749500D01*
X133250323Y-72749500D01*
X133177264Y-72764032D01*
X133177260Y-72764033D01*
X133094399Y-72819399D01*
X133039033Y-72902260D01*
X133039032Y-72902264D01*
X133024500Y-72975321D01*
X133024500Y-74324678D01*
X130406358Y-74324678D01*
X130828892Y-73902144D01*
X130848741Y-73886025D01*
X130857836Y-73880084D01*
X130879644Y-73852062D01*
X130884721Y-73846316D01*
X130887520Y-73843518D01*
X130900354Y-73825540D01*
X130901877Y-73823498D01*
X130934807Y-73781192D01*
X130938547Y-73774280D01*
X130942006Y-73767203D01*
X130942010Y-73767199D01*
X130957319Y-73715772D01*
X130958073Y-73713419D01*
X130975500Y-73662660D01*
X130975500Y-73662656D01*
X130976790Y-73654924D01*
X130977768Y-73647085D01*
X130975553Y-73593527D01*
X130975500Y-73590964D01*
X130975500Y-69400000D01*
X132775000Y-69400000D01*
X132775000Y-69847844D01*
X132781401Y-69907372D01*
X132781403Y-69907379D01*
X132831645Y-70042086D01*
X132831649Y-70042093D01*
X132917809Y-70157187D01*
X132917812Y-70157190D01*
X133032906Y-70243350D01*
X133032913Y-70243354D01*
X133167620Y-70293596D01*
X133167627Y-70293598D01*
X133227155Y-70299999D01*
X133227172Y-70300000D01*
X133800000Y-70300000D01*
X133800000Y-69400000D01*
X134300000Y-69400000D01*
X134300000Y-70300000D01*
X134872828Y-70300000D01*
X134872844Y-70299999D01*
X134932372Y-70293598D01*
X134932379Y-70293596D01*
X135067086Y-70243354D01*
X135067093Y-70243350D01*
X135182187Y-70157190D01*
X135182190Y-70157187D01*
X135268350Y-70042093D01*
X135268354Y-70042086D01*
X135318596Y-69907379D01*
X135318598Y-69907372D01*
X135324999Y-69847844D01*
X135325000Y-69847827D01*
X135325000Y-69400000D01*
X134300000Y-69400000D01*
X133800000Y-69400000D01*
X132775000Y-69400000D01*
X130975500Y-69400000D01*
X130975500Y-68899999D01*
X132774999Y-68899999D01*
X132775000Y-68900000D01*
X133800000Y-68900000D01*
X133800000Y-68000000D01*
X134300000Y-68000000D01*
X134300000Y-68900000D01*
X135325000Y-68900000D01*
X135325000Y-68452172D01*
X135324999Y-68452155D01*
X135318598Y-68392627D01*
X135318596Y-68392620D01*
X135268354Y-68257913D01*
X135268350Y-68257906D01*
X135182190Y-68142812D01*
X135182187Y-68142809D01*
X135067093Y-68056649D01*
X135067086Y-68056645D01*
X134932379Y-68006403D01*
X134932372Y-68006401D01*
X134872844Y-68000000D01*
X134300000Y-68000000D01*
X133800000Y-68000000D01*
X133227155Y-68000000D01*
X133167627Y-68006401D01*
X133167620Y-68006403D01*
X133032913Y-68056645D01*
X133032906Y-68056649D01*
X132917812Y-68142809D01*
X132917809Y-68142812D01*
X132831649Y-68257906D01*
X132831645Y-68257913D01*
X132781403Y-68392620D01*
X132781401Y-68392627D01*
X132775000Y-68452155D01*
X132775000Y-68452172D01*
X132774999Y-68899999D01*
X130975500Y-68899999D01*
X130975500Y-63000001D01*
X135143139Y-63000001D01*
X135163560Y-63285518D01*
X135163561Y-63285525D01*
X135221765Y-63553082D01*
X135224406Y-63565222D01*
X135277219Y-63706818D01*
X135324439Y-63833422D01*
X135324441Y-63833426D01*
X135461618Y-64084648D01*
X135461623Y-64084656D01*
X135633156Y-64313798D01*
X135633172Y-64313816D01*
X135835559Y-64516203D01*
X135835577Y-64516219D01*
X136064719Y-64687752D01*
X136064727Y-64687757D01*
X136315949Y-64824934D01*
X136315953Y-64824936D01*
X136315955Y-64824937D01*
X136584154Y-64924970D01*
X136863859Y-64985816D01*
X137127380Y-65004663D01*
X137149375Y-65006237D01*
X137149376Y-65006237D01*
X137149377Y-65006237D01*
X137169797Y-65004776D01*
X137434893Y-64985816D01*
X137714598Y-64924970D01*
X137982797Y-64824937D01*
X138234030Y-64687754D01*
X138463182Y-64516213D01*
X138665589Y-64313806D01*
X138837130Y-64084654D01*
X138974313Y-63833421D01*
X139074346Y-63565222D01*
X139135192Y-63285517D01*
X139154240Y-63019202D01*
X139155613Y-63000001D01*
X139155613Y-62999998D01*
X139149978Y-62921211D01*
X139135192Y-62714483D01*
X139074346Y-62434778D01*
X138974313Y-62166579D01*
X138970894Y-62160318D01*
X138837133Y-61915351D01*
X138837128Y-61915343D01*
X138665595Y-61686201D01*
X138665579Y-61686183D01*
X138463192Y-61483796D01*
X138463174Y-61483780D01*
X138234032Y-61312247D01*
X138234024Y-61312242D01*
X137982802Y-61175065D01*
X137982798Y-61175063D01*
X137881119Y-61137139D01*
X137714598Y-61075030D01*
X137714594Y-61075029D01*
X137714591Y-61075028D01*
X137434901Y-61014185D01*
X137434894Y-61014184D01*
X137149377Y-60993763D01*
X137149375Y-60993763D01*
X136863857Y-61014184D01*
X136863850Y-61014185D01*
X136584160Y-61075028D01*
X136584155Y-61075029D01*
X136584154Y-61075030D01*
X136568432Y-61080894D01*
X136315953Y-61175063D01*
X136315949Y-61175065D01*
X136064727Y-61312242D01*
X136064719Y-61312247D01*
X135835577Y-61483780D01*
X135835559Y-61483796D01*
X135633172Y-61686183D01*
X135633156Y-61686201D01*
X135461623Y-61915343D01*
X135461618Y-61915351D01*
X135324441Y-62166573D01*
X135324439Y-62166577D01*
X135272254Y-62306492D01*
X135229854Y-62420173D01*
X135224404Y-62434784D01*
X135163561Y-62714474D01*
X135163560Y-62714481D01*
X135143139Y-62999998D01*
X135143139Y-63000001D01*
X130975500Y-63000001D01*
X130975500Y-58701804D01*
X130978139Y-58676359D01*
X130979239Y-58671111D01*
X130980367Y-58665732D01*
X130977523Y-58642912D01*
X130975977Y-58630506D01*
X130975500Y-58622830D01*
X130975500Y-58618889D01*
X130975499Y-58618883D01*
X130975351Y-58617999D01*
X130971866Y-58597116D01*
X130971500Y-58594598D01*
X130967867Y-58565453D01*
X130964866Y-58541374D01*
X130964864Y-58541370D01*
X130962622Y-58533840D01*
X130960065Y-58526395D01*
X130960065Y-58526390D01*
X130934536Y-58479217D01*
X130933404Y-58477018D01*
X130909826Y-58428789D01*
X130909824Y-58428787D01*
X130909824Y-58428786D01*
X130905267Y-58422404D01*
X130900417Y-58416172D01*
X130860973Y-58379861D01*
X130859147Y-58378110D01*
X125652149Y-53171111D01*
X125636022Y-53151252D01*
X125630086Y-53142167D01*
X125630083Y-53142163D01*
X125602074Y-53120363D01*
X125596310Y-53115272D01*
X125593515Y-53112477D01*
X125576738Y-53100500D01*
X125575543Y-53099647D01*
X125573512Y-53098133D01*
X125531189Y-53065191D01*
X125531188Y-53065190D01*
X125524274Y-53061448D01*
X125517197Y-53057988D01*
X125465816Y-53042691D01*
X125463377Y-53041910D01*
X125412661Y-53024500D01*
X125404923Y-53023208D01*
X125397085Y-53022231D01*
X125347826Y-53024269D01*
X125343523Y-53024447D01*
X125340966Y-53024500D01*
X123664000Y-53024500D01*
X123596961Y-53004815D01*
X123551206Y-52952011D01*
X123540000Y-52900500D01*
X123540000Y-52600000D01*
X120990000Y-52600000D01*
X120990000Y-52900500D01*
X120970315Y-52967539D01*
X120917511Y-53013294D01*
X120866000Y-53024500D01*
X120624057Y-53024500D01*
X120557018Y-53004815D01*
X120511263Y-52952011D01*
X120500961Y-52885554D01*
X120505278Y-52850000D01*
X120499298Y-52800750D01*
X120486237Y-52693182D01*
X120430220Y-52545477D01*
X120340483Y-52415470D01*
X120222240Y-52310717D01*
X120222238Y-52310716D01*
X120222237Y-52310715D01*
X120082365Y-52237303D01*
X119928986Y-52199500D01*
X119928985Y-52199500D01*
X119771015Y-52199500D01*
X119771014Y-52199500D01*
X119617634Y-52237303D01*
X119477762Y-52310715D01*
X119359516Y-52415471D01*
X119269781Y-52545475D01*
X119269780Y-52545476D01*
X119213762Y-52693181D01*
X119194721Y-52849999D01*
X119194721Y-52850000D01*
X119213762Y-53006818D01*
X119253834Y-53112477D01*
X119269780Y-53154523D01*
X119359517Y-53284530D01*
X119477760Y-53389283D01*
X119477762Y-53389284D01*
X119617634Y-53462696D01*
X119771014Y-53500500D01*
X119918101Y-53500500D01*
X119985140Y-53520185D01*
X120005782Y-53536819D01*
X120097849Y-53628886D01*
X120113977Y-53648745D01*
X120119916Y-53657836D01*
X120147932Y-53679641D01*
X120153693Y-53684730D01*
X120156482Y-53687519D01*
X120174433Y-53700335D01*
X120176489Y-53701868D01*
X120218810Y-53734809D01*
X120225722Y-53738549D01*
X120232801Y-53742010D01*
X120284200Y-53757312D01*
X120286594Y-53758079D01*
X120311341Y-53766574D01*
X120337339Y-53775500D01*
X120345079Y-53776791D01*
X120352909Y-53777767D01*
X120352911Y-53777768D01*
X120352912Y-53777767D01*
X120352913Y-53777768D01*
X120377412Y-53776754D01*
X120406475Y-53775552D01*
X120409033Y-53775500D01*
X125143101Y-53775500D01*
X125210140Y-53795185D01*
X125230782Y-53811819D01*
X129113681Y-57694718D01*
X129147166Y-57756041D01*
X129150000Y-57782399D01*
X129150000Y-60300000D01*
X129597828Y-60300000D01*
X129597844Y-60299999D01*
X129657372Y-60293598D01*
X129657379Y-60293596D01*
X129792086Y-60243354D01*
X129792093Y-60243350D01*
X129907187Y-60157190D01*
X129907190Y-60157187D01*
X129998669Y-60034989D01*
X130000493Y-60036354D01*
X130041049Y-59995782D01*
X130109319Y-59980916D01*
X130174788Y-60005319D01*
X130216672Y-60061244D01*
X130224499Y-60104602D01*
X130224499Y-65895396D01*
X130204814Y-65962435D01*
X130152010Y-66008190D01*
X130082852Y-66018134D01*
X130019296Y-65989109D01*
X129999422Y-65964446D01*
X129998669Y-65965011D01*
X129907190Y-65842812D01*
X129907187Y-65842809D01*
X129792093Y-65756649D01*
X129792086Y-65756645D01*
X129657379Y-65706403D01*
X129657372Y-65706401D01*
X129597844Y-65700000D01*
X129150000Y-65700000D01*
X129150000Y-68250000D01*
X129597828Y-68250000D01*
X129597844Y-68249999D01*
X129657372Y-68243598D01*
X129657379Y-68243596D01*
X129792086Y-68193354D01*
X129792093Y-68193350D01*
X129907187Y-68107190D01*
X129907190Y-68107187D01*
X129998669Y-67984989D01*
X130000492Y-67986354D01*
X130041059Y-67945778D01*
X130109330Y-67930918D01*
X130174797Y-67955327D01*
X130216675Y-68011255D01*
X130224499Y-68054603D01*
X130224499Y-73393100D01*
X130204814Y-73460139D01*
X130188180Y-73480781D01*
X129757753Y-73911207D01*
X129696430Y-73944692D01*
X129626738Y-73939708D01*
X129570805Y-73897836D01*
X129546388Y-73832372D01*
X129561240Y-73764099D01*
X129572217Y-73747366D01*
X129584809Y-73731189D01*
X129584810Y-73731183D01*
X129588543Y-73724287D01*
X129592005Y-73717205D01*
X129592010Y-73717199D01*
X129607322Y-73665763D01*
X129608087Y-73663380D01*
X129625500Y-73612660D01*
X129625500Y-73612656D01*
X129626796Y-73604893D01*
X129627769Y-73597088D01*
X129625552Y-73543510D01*
X129625499Y-73540946D01*
X129625499Y-72816179D01*
X129625499Y-72142198D01*
X129645184Y-72075163D01*
X129667269Y-72049390D01*
X129740483Y-71984530D01*
X129830220Y-71854523D01*
X129886237Y-71706818D01*
X129905278Y-71550000D01*
X129901727Y-71520750D01*
X129886237Y-71393181D01*
X129853696Y-71307379D01*
X129830220Y-71245477D01*
X129740483Y-71115470D01*
X129622240Y-71010717D01*
X129622238Y-71010716D01*
X129622237Y-71010715D01*
X129482365Y-70937303D01*
X129328986Y-70899500D01*
X129328985Y-70899500D01*
X129171015Y-70899500D01*
X129171014Y-70899500D01*
X129017634Y-70937303D01*
X128877762Y-71010715D01*
X128759516Y-71115471D01*
X128669781Y-71245475D01*
X128669780Y-71245476D01*
X128613762Y-71393181D01*
X128594721Y-71549999D01*
X128594721Y-71550000D01*
X128613762Y-71706818D01*
X128637003Y-71768098D01*
X128669780Y-71854523D01*
X128671078Y-71856403D01*
X128759517Y-71984531D01*
X128832725Y-72049386D01*
X128869852Y-72108575D01*
X128874499Y-72142202D01*
X128874500Y-73343100D01*
X128854815Y-73410139D01*
X128838181Y-73430781D01*
X128055781Y-74213181D01*
X127994458Y-74246666D01*
X127968100Y-74249500D01*
X127249500Y-74249500D01*
X127182461Y-74229815D01*
X127136706Y-74177011D01*
X127125500Y-74125500D01*
X127125500Y-72975323D01*
X127125499Y-72975321D01*
X127110967Y-72902264D01*
X127110966Y-72902260D01*
X127084312Y-72862369D01*
X127055601Y-72819399D01*
X126972740Y-72764034D01*
X126972739Y-72764033D01*
X126972735Y-72764032D01*
X126899677Y-72749500D01*
X126899674Y-72749500D01*
X125300326Y-72749500D01*
X125300323Y-72749500D01*
X125227264Y-72764032D01*
X125227260Y-72764033D01*
X125144399Y-72819399D01*
X125089033Y-72902260D01*
X125089032Y-72902264D01*
X125074500Y-72975321D01*
X125074500Y-73150500D01*
X125054815Y-73217539D01*
X125002011Y-73263294D01*
X124950500Y-73274500D01*
X124856899Y-73274500D01*
X124789860Y-73254815D01*
X124769218Y-73238181D01*
X121990699Y-70459662D01*
X121957214Y-70398339D01*
X121962198Y-70328647D01*
X121975000Y-70308727D01*
X121975000Y-69400000D01*
X122475000Y-69400000D01*
X122475000Y-70300000D01*
X123047828Y-70300000D01*
X123047844Y-70299999D01*
X123107372Y-70293598D01*
X123107379Y-70293596D01*
X123242086Y-70243354D01*
X123242093Y-70243350D01*
X123357187Y-70157190D01*
X123357190Y-70157187D01*
X123443350Y-70042093D01*
X123443354Y-70042086D01*
X123493596Y-69907379D01*
X123493598Y-69907372D01*
X123499999Y-69847844D01*
X123500000Y-69847827D01*
X123500000Y-69400000D01*
X124825000Y-69400000D01*
X124825000Y-69847844D01*
X124831401Y-69907372D01*
X124831403Y-69907379D01*
X124881645Y-70042086D01*
X124881649Y-70042093D01*
X124967809Y-70157187D01*
X124967812Y-70157190D01*
X125082906Y-70243350D01*
X125082913Y-70243354D01*
X125217620Y-70293596D01*
X125217627Y-70293598D01*
X125277155Y-70299999D01*
X125277172Y-70300000D01*
X125850000Y-70300000D01*
X125850000Y-69400000D01*
X126350000Y-69400000D01*
X126350000Y-70300000D01*
X126922828Y-70300000D01*
X126922844Y-70299999D01*
X126982372Y-70293598D01*
X126982379Y-70293596D01*
X127117086Y-70243354D01*
X127117093Y-70243350D01*
X127232187Y-70157190D01*
X127232190Y-70157187D01*
X127318350Y-70042093D01*
X127318354Y-70042086D01*
X127368596Y-69907379D01*
X127368598Y-69907372D01*
X127374999Y-69847844D01*
X127375000Y-69847827D01*
X127375000Y-69400000D01*
X126350000Y-69400000D01*
X125850000Y-69400000D01*
X124825000Y-69400000D01*
X123500000Y-69400000D01*
X122475000Y-69400000D01*
X121975000Y-69400000D01*
X120982399Y-69400000D01*
X120915360Y-69380315D01*
X120894718Y-69363681D01*
X120431037Y-68900000D01*
X120950000Y-68900000D01*
X121975000Y-68900000D01*
X121975000Y-68000000D01*
X122475000Y-68000000D01*
X122475000Y-68900000D01*
X123500000Y-68900000D01*
X123500000Y-68452172D01*
X123499999Y-68452155D01*
X123493598Y-68392627D01*
X123493596Y-68392620D01*
X123443354Y-68257913D01*
X123443350Y-68257906D01*
X123357190Y-68142812D01*
X123357187Y-68142809D01*
X123242093Y-68056649D01*
X123242086Y-68056645D01*
X123107379Y-68006403D01*
X123107372Y-68006401D01*
X123047844Y-68000000D01*
X122475000Y-68000000D01*
X121975000Y-68000000D01*
X121402155Y-68000000D01*
X121342627Y-68006401D01*
X121342620Y-68006403D01*
X121207913Y-68056645D01*
X121207906Y-68056649D01*
X121092812Y-68142809D01*
X121092809Y-68142812D01*
X121006649Y-68257906D01*
X121006645Y-68257913D01*
X120956403Y-68392620D01*
X120956401Y-68392627D01*
X120950000Y-68452155D01*
X120950000Y-68900000D01*
X120431037Y-68900000D01*
X119305715Y-67774678D01*
X123499500Y-67774678D01*
X123514032Y-67847735D01*
X123514033Y-67847739D01*
X123521125Y-67858353D01*
X123569399Y-67930601D01*
X123635100Y-67974500D01*
X123652260Y-67985966D01*
X123652264Y-67985967D01*
X123725321Y-68000499D01*
X123725324Y-68000500D01*
X124826623Y-68000500D01*
X124893662Y-68020185D01*
X124939417Y-68072989D01*
X124949361Y-68142147D01*
X124925889Y-68198812D01*
X124881647Y-68257910D01*
X124881645Y-68257913D01*
X124831403Y-68392620D01*
X124831401Y-68392627D01*
X124825000Y-68452155D01*
X124825000Y-68900000D01*
X125850000Y-68900000D01*
X125850000Y-68000000D01*
X126350000Y-68000000D01*
X126350000Y-68900000D01*
X127375000Y-68900000D01*
X127375000Y-68452172D01*
X127374999Y-68452155D01*
X127368598Y-68392627D01*
X127368596Y-68392620D01*
X127318354Y-68257913D01*
X127318350Y-68257906D01*
X127232190Y-68142812D01*
X127232187Y-68142809D01*
X127117093Y-68056649D01*
X127117086Y-68056645D01*
X126982379Y-68006403D01*
X126982372Y-68006401D01*
X126922844Y-68000000D01*
X126350000Y-68000000D01*
X125850000Y-68000000D01*
X125406774Y-68000000D01*
X125339735Y-67980315D01*
X125293980Y-67927511D01*
X125284036Y-67858353D01*
X125285157Y-67851808D01*
X125300500Y-67774676D01*
X125300500Y-67225000D01*
X127750000Y-67225000D01*
X127750000Y-67797844D01*
X127756401Y-67857372D01*
X127756403Y-67857379D01*
X127806645Y-67992086D01*
X127806649Y-67992093D01*
X127892809Y-68107187D01*
X127892812Y-68107190D01*
X128007906Y-68193350D01*
X128007913Y-68193354D01*
X128142620Y-68243596D01*
X128142627Y-68243598D01*
X128202155Y-68249999D01*
X128202172Y-68250000D01*
X128649999Y-68250000D01*
X128650000Y-67225000D01*
X127750000Y-67225000D01*
X125300500Y-67225000D01*
X125300500Y-66724999D01*
X127749999Y-66724999D01*
X127750000Y-66725000D01*
X128650000Y-66725000D01*
X128649999Y-66724999D01*
X128650000Y-65700000D01*
X128202155Y-65700000D01*
X128142627Y-65706401D01*
X128142620Y-65706403D01*
X128007913Y-65756645D01*
X128007906Y-65756649D01*
X127892812Y-65842809D01*
X127892809Y-65842812D01*
X127806649Y-65957906D01*
X127806645Y-65957913D01*
X127756403Y-66092620D01*
X127756401Y-66092627D01*
X127750000Y-66152155D01*
X127750000Y-66152172D01*
X127749999Y-66724999D01*
X125300500Y-66724999D01*
X125300500Y-66175323D01*
X125300499Y-66175321D01*
X125285967Y-66102264D01*
X125285966Y-66102260D01*
X125284456Y-66100000D01*
X125230601Y-66019399D01*
X125164149Y-65974998D01*
X125147739Y-65964033D01*
X125147735Y-65964032D01*
X125074677Y-65949500D01*
X125074674Y-65949500D01*
X123725326Y-65949500D01*
X123725323Y-65949500D01*
X123652264Y-65964032D01*
X123652260Y-65964033D01*
X123569399Y-66019399D01*
X123514033Y-66102260D01*
X123514032Y-66102264D01*
X123499500Y-66175321D01*
X123499500Y-67774678D01*
X119305715Y-67774678D01*
X118361818Y-66830781D01*
X118328333Y-66769458D01*
X118325499Y-66743100D01*
X118325499Y-65230330D01*
X118325499Y-63692198D01*
X118345184Y-63625163D01*
X118367269Y-63599390D01*
X118440483Y-63534530D01*
X118530220Y-63404523D01*
X118586237Y-63256818D01*
X118605278Y-63100000D01*
X118595468Y-63019202D01*
X118586237Y-62943181D01*
X118550898Y-62850000D01*
X118530220Y-62795477D01*
X118440483Y-62665470D01*
X118322240Y-62560717D01*
X118322238Y-62560716D01*
X118322237Y-62560715D01*
X118182365Y-62487303D01*
X118028986Y-62449500D01*
X118028985Y-62449500D01*
X117871015Y-62449500D01*
X117871014Y-62449500D01*
X117717634Y-62487303D01*
X117577762Y-62560715D01*
X117541084Y-62593209D01*
X117464500Y-62661056D01*
X117459516Y-62665471D01*
X117369781Y-62795475D01*
X117369780Y-62795476D01*
X117313762Y-62943181D01*
X117294721Y-63099999D01*
X117294721Y-63100000D01*
X117313762Y-63256818D01*
X117365479Y-63393182D01*
X117369780Y-63404523D01*
X117381767Y-63421889D01*
X117459517Y-63534531D01*
X117532726Y-63599386D01*
X117569853Y-63658574D01*
X117574500Y-63692202D01*
X117574500Y-66898196D01*
X117571862Y-66923634D01*
X117569633Y-66934268D01*
X117569633Y-66934269D01*
X117569633Y-66934271D01*
X117574023Y-66969491D01*
X117574500Y-66977167D01*
X117574500Y-66981116D01*
X117578129Y-67002865D01*
X117578498Y-67005399D01*
X117585134Y-67058626D01*
X117587373Y-67066147D01*
X117589935Y-67073611D01*
X117601284Y-67094581D01*
X117615447Y-67120754D01*
X117616609Y-67123011D01*
X117640172Y-67171208D01*
X117644742Y-67177609D01*
X117649581Y-67183826D01*
X117689053Y-67220163D01*
X117690874Y-67221911D01*
X123006781Y-72537819D01*
X123040266Y-72599142D01*
X123035282Y-72668834D01*
X122993410Y-72724767D01*
X122927946Y-72749184D01*
X122919100Y-72749500D01*
X121425323Y-72749500D01*
X121352264Y-72764032D01*
X121352260Y-72764033D01*
X121269399Y-72819399D01*
X121214033Y-72902260D01*
X121214032Y-72902264D01*
X121199500Y-72975321D01*
X121199500Y-74125500D01*
X121179815Y-74192539D01*
X121127011Y-74238294D01*
X121075500Y-74249500D01*
X117431899Y-74249500D01*
X117364860Y-74229815D01*
X117344218Y-74213181D01*
X113642718Y-70511681D01*
X113609233Y-70450358D01*
X113614217Y-70380666D01*
X113656089Y-70324733D01*
X113721553Y-70300316D01*
X113730399Y-70300000D01*
X114025000Y-70300000D01*
X114025000Y-69400000D01*
X114525000Y-69400000D01*
X114525000Y-70300000D01*
X115097828Y-70300000D01*
X115097844Y-70299999D01*
X115157372Y-70293598D01*
X115157379Y-70293596D01*
X115292086Y-70243354D01*
X115292093Y-70243350D01*
X115407187Y-70157190D01*
X115407190Y-70157187D01*
X115493350Y-70042093D01*
X115493354Y-70042086D01*
X115543596Y-69907379D01*
X115543598Y-69907372D01*
X115549999Y-69847844D01*
X115550000Y-69847827D01*
X115550000Y-69400000D01*
X114525000Y-69400000D01*
X114025000Y-69400000D01*
X113000000Y-69400000D01*
X113000000Y-69569600D01*
X112980315Y-69636639D01*
X112927511Y-69682394D01*
X112858353Y-69692338D01*
X112794797Y-69663313D01*
X112788319Y-69657281D01*
X111602719Y-68471681D01*
X111569234Y-68410358D01*
X111574218Y-68340666D01*
X111616090Y-68284733D01*
X111681554Y-68260316D01*
X111690400Y-68260000D01*
X111850000Y-68260000D01*
X111850000Y-67235000D01*
X112350000Y-67235000D01*
X112350000Y-68260000D01*
X112797828Y-68260000D01*
X112797844Y-68259999D01*
X112865087Y-68252769D01*
X112865293Y-68254686D01*
X112924849Y-68257876D01*
X112981523Y-68298740D01*
X113007108Y-68363757D01*
X113006891Y-68388071D01*
X113000000Y-68452155D01*
X113000000Y-68900000D01*
X114025000Y-68900000D01*
X114025000Y-68000000D01*
X114525000Y-68000000D01*
X114525000Y-68900000D01*
X115550000Y-68900000D01*
X115550000Y-68452172D01*
X115549999Y-68452155D01*
X115543598Y-68392627D01*
X115543596Y-68392620D01*
X115493354Y-68257913D01*
X115493350Y-68257906D01*
X115407190Y-68142812D01*
X115407187Y-68142809D01*
X115292093Y-68056649D01*
X115292086Y-68056645D01*
X115157379Y-68006403D01*
X115157372Y-68006401D01*
X115097844Y-68000000D01*
X114525000Y-68000000D01*
X114025000Y-68000000D01*
X113452155Y-68000000D01*
X113384913Y-68007231D01*
X113384707Y-68005317D01*
X113325124Y-68002114D01*
X113268459Y-67961237D01*
X113242889Y-67896215D01*
X113243108Y-67871926D01*
X113249999Y-67807839D01*
X113250000Y-67807827D01*
X113250000Y-67235000D01*
X112350000Y-67235000D01*
X111850000Y-67235000D01*
X110950000Y-67235000D01*
X110950000Y-67519600D01*
X110930315Y-67586639D01*
X110877511Y-67632394D01*
X110808353Y-67642338D01*
X110744797Y-67613313D01*
X110738319Y-67607281D01*
X109866038Y-66735000D01*
X110950000Y-66735000D01*
X111850000Y-66735000D01*
X111850000Y-65710000D01*
X111402155Y-65710000D01*
X111342627Y-65716401D01*
X111342620Y-65716403D01*
X111207913Y-65766645D01*
X111207906Y-65766649D01*
X111092812Y-65852809D01*
X111092809Y-65852812D01*
X111006649Y-65967906D01*
X111006645Y-65967913D01*
X110956403Y-66102620D01*
X110956401Y-66102627D01*
X110950000Y-66162155D01*
X110950000Y-66735000D01*
X109866038Y-66735000D01*
X108302149Y-65171111D01*
X108286022Y-65151252D01*
X108280086Y-65142167D01*
X108280083Y-65142163D01*
X108252074Y-65120363D01*
X108246310Y-65115272D01*
X108243515Y-65112477D01*
X108225550Y-65099652D01*
X108223512Y-65098133D01*
X108181189Y-65065191D01*
X108181188Y-65065190D01*
X108174274Y-65061448D01*
X108167197Y-65057988D01*
X108115816Y-65042691D01*
X108113377Y-65041910D01*
X108062661Y-65024500D01*
X108054923Y-65023208D01*
X108047085Y-65022231D01*
X107997826Y-65024269D01*
X107993523Y-65024447D01*
X107990966Y-65024500D01*
X103606899Y-65024500D01*
X103539860Y-65004815D01*
X103519218Y-64988181D01*
X101212544Y-62681506D01*
X101179059Y-62620183D01*
X101184043Y-62550491D01*
X101198172Y-62523389D01*
X101280220Y-62404523D01*
X101336237Y-62256818D01*
X101355278Y-62100000D01*
X101350119Y-62057507D01*
X101336237Y-61943181D01*
X101312945Y-61881765D01*
X101280220Y-61795477D01*
X101190483Y-61665470D01*
X101072240Y-61560717D01*
X101072238Y-61560716D01*
X101072237Y-61560715D01*
X100932365Y-61487303D01*
X100778986Y-61449500D01*
X100778985Y-61449500D01*
X100621015Y-61449500D01*
X100621014Y-61449500D01*
X100467634Y-61487303D01*
X100327762Y-61560715D01*
X100319270Y-61568238D01*
X100235905Y-61642093D01*
X100209516Y-61665471D01*
X100119781Y-61795475D01*
X100119780Y-61795476D01*
X100063762Y-61943181D01*
X100044722Y-62099999D01*
X100044722Y-62100000D01*
X100063762Y-62256818D01*
X100119779Y-62404522D01*
X100119780Y-62404523D01*
X100140668Y-62434784D01*
X100209517Y-62534531D01*
X100277611Y-62594855D01*
X100314738Y-62654044D01*
X100317108Y-62674228D01*
X100318362Y-62674072D01*
X100324023Y-62719491D01*
X100324500Y-62727167D01*
X100324500Y-62731116D01*
X100328129Y-62752865D01*
X100328498Y-62755399D01*
X100335134Y-62808626D01*
X100337373Y-62816147D01*
X100339935Y-62823611D01*
X100352677Y-62847157D01*
X100365447Y-62870754D01*
X100366609Y-62873011D01*
X100390172Y-62921208D01*
X100394742Y-62927609D01*
X100399581Y-62933826D01*
X100439053Y-62970163D01*
X100440874Y-62971911D01*
X103097849Y-65628886D01*
X103113978Y-65648747D01*
X103119915Y-65657835D01*
X103124773Y-65661616D01*
X103165586Y-65718327D01*
X103169261Y-65788100D01*
X103134630Y-65848783D01*
X103130843Y-65852281D01*
X103130244Y-65852812D01*
X103059516Y-65915470D01*
X102969781Y-66045475D01*
X102969780Y-66045476D01*
X102913762Y-66193181D01*
X102894722Y-66349999D01*
X102894722Y-66350000D01*
X102913762Y-66506818D01*
X102965492Y-66643217D01*
X102969780Y-66654523D01*
X103059517Y-66784530D01*
X103177760Y-66889283D01*
X103177762Y-66889284D01*
X103317634Y-66962696D01*
X103471014Y-67000500D01*
X103618101Y-67000500D01*
X103685140Y-67020185D01*
X103705782Y-67036819D01*
X103882849Y-67213886D01*
X103898977Y-67233745D01*
X103904916Y-67242836D01*
X103911328Y-67247827D01*
X103932929Y-67264639D01*
X103938691Y-67269728D01*
X103941483Y-67272520D01*
X103941485Y-67272522D01*
X103959440Y-67285342D01*
X103961494Y-67286873D01*
X103974300Y-67296840D01*
X104003811Y-67319809D01*
X104003815Y-67319810D01*
X104010735Y-67323555D01*
X104017802Y-67327011D01*
X104058057Y-67338994D01*
X104069198Y-67342311D01*
X104071596Y-67343079D01*
X104099363Y-67352612D01*
X104122338Y-67360500D01*
X104130101Y-67361795D01*
X104137911Y-67362768D01*
X104137912Y-67362769D01*
X104137912Y-67362768D01*
X104137913Y-67362769D01*
X104170713Y-67361412D01*
X104191488Y-67360552D01*
X104194050Y-67360500D01*
X106575500Y-67360500D01*
X106642539Y-67380185D01*
X106688294Y-67432989D01*
X106699500Y-67484500D01*
X106699500Y-67784678D01*
X106707781Y-67826309D01*
X106701554Y-67895900D01*
X106658691Y-67951078D01*
X106592801Y-67974322D01*
X106586164Y-67974500D01*
X103556899Y-67974500D01*
X103489860Y-67954815D01*
X103469218Y-67938181D01*
X100634517Y-65103480D01*
X100601032Y-65042157D01*
X100599102Y-65000857D01*
X100605278Y-64950000D01*
X100586237Y-64793182D01*
X100530220Y-64645477D01*
X100440483Y-64515470D01*
X100322240Y-64410717D01*
X100322238Y-64410716D01*
X100322237Y-64410715D01*
X100182365Y-64337303D01*
X100028986Y-64299500D01*
X100028985Y-64299500D01*
X99871015Y-64299500D01*
X99871014Y-64299500D01*
X99717634Y-64337303D01*
X99577762Y-64410715D01*
X99459516Y-64515471D01*
X99369781Y-64645475D01*
X99369780Y-64645476D01*
X99313762Y-64793181D01*
X99294722Y-64949999D01*
X99294722Y-64950000D01*
X89345500Y-64950000D01*
X89345500Y-64268081D01*
X89365185Y-64201042D01*
X89417989Y-64155287D01*
X89487147Y-64145343D01*
X89550703Y-64174368D01*
X89552988Y-64176399D01*
X89613959Y-64231981D01*
X89787363Y-64339348D01*
X89977544Y-64413024D01*
X90178024Y-64450500D01*
X90178026Y-64450500D01*
X90381974Y-64450500D01*
X90381976Y-64450500D01*
X90582456Y-64413024D01*
X90772637Y-64339348D01*
X90946041Y-64231981D01*
X91096764Y-64094579D01*
X91219673Y-63931821D01*
X91310582Y-63749250D01*
X91366397Y-63553083D01*
X91385215Y-63350000D01*
X91366397Y-63146917D01*
X91310582Y-62950750D01*
X91310581Y-62950748D01*
X91309013Y-62945237D01*
X91310994Y-62944673D01*
X91305902Y-62884174D01*
X91338614Y-62822435D01*
X91339629Y-62821406D01*
X94849217Y-59311819D01*
X94910541Y-59278334D01*
X94936899Y-59275500D01*
X96064101Y-59275500D01*
X96131140Y-59295185D01*
X96176895Y-59347989D01*
X96186839Y-59417147D01*
X96157814Y-59480703D01*
X96151782Y-59487181D01*
X93345028Y-62293933D01*
X93283705Y-62327418D01*
X93214013Y-62322434D01*
X93212554Y-62321879D01*
X93122461Y-62286977D01*
X93122456Y-62286976D01*
X92921976Y-62249500D01*
X92718024Y-62249500D01*
X92517544Y-62286976D01*
X92517541Y-62286976D01*
X92517541Y-62286977D01*
X92327364Y-62360651D01*
X92327357Y-62360655D01*
X92153960Y-62468017D01*
X92153958Y-62468019D01*
X92003237Y-62605418D01*
X91880327Y-62768178D01*
X91789422Y-62950739D01*
X91789417Y-62950752D01*
X91733602Y-63146917D01*
X91714785Y-63349999D01*
X91714785Y-63350000D01*
X91733602Y-63553082D01*
X91789417Y-63749247D01*
X91789422Y-63749260D01*
X91880327Y-63931821D01*
X92003237Y-64094581D01*
X92117936Y-64199142D01*
X92151588Y-64229820D01*
X92153958Y-64231980D01*
X92153960Y-64231982D01*
X92213479Y-64268834D01*
X92327363Y-64339348D01*
X92517544Y-64413024D01*
X92718024Y-64450500D01*
X92718026Y-64450500D01*
X92921974Y-64450500D01*
X92921976Y-64450500D01*
X93122456Y-64413024D01*
X93312637Y-64339348D01*
X93486041Y-64231981D01*
X93636764Y-64094579D01*
X93759673Y-63931821D01*
X93850582Y-63749250D01*
X93906397Y-63553083D01*
X93925215Y-63350000D01*
X93906397Y-63146917D01*
X93850582Y-62950750D01*
X93850581Y-62950748D01*
X93849013Y-62945237D01*
X93850994Y-62944673D01*
X93845902Y-62884174D01*
X93878614Y-62822435D01*
X93879629Y-62821406D01*
X96889217Y-59811819D01*
X96950541Y-59778334D01*
X96976899Y-59775500D01*
X98104101Y-59775500D01*
X98171140Y-59795185D01*
X98216895Y-59847989D01*
X98226839Y-59917147D01*
X98197814Y-59980703D01*
X98191782Y-59987181D01*
X95885028Y-62293933D01*
X95823705Y-62327418D01*
X95754013Y-62322434D01*
X95752554Y-62321879D01*
X95662461Y-62286977D01*
X95662456Y-62286976D01*
X95461976Y-62249500D01*
X95258024Y-62249500D01*
X95057544Y-62286976D01*
X95057541Y-62286976D01*
X95057541Y-62286977D01*
X94867364Y-62360651D01*
X94867357Y-62360655D01*
X94693960Y-62468017D01*
X94693958Y-62468019D01*
X94543237Y-62605418D01*
X94420327Y-62768178D01*
X94329422Y-62950739D01*
X94329417Y-62950752D01*
X94273602Y-63146917D01*
X94254785Y-63349999D01*
X94254785Y-63350000D01*
X94273602Y-63553082D01*
X94329417Y-63749247D01*
X94329422Y-63749260D01*
X94420327Y-63931821D01*
X94543237Y-64094581D01*
X94657936Y-64199142D01*
X94691588Y-64229820D01*
X94693958Y-64231980D01*
X94693960Y-64231982D01*
X94753479Y-64268834D01*
X94867363Y-64339348D01*
X95057544Y-64413024D01*
X95258024Y-64450500D01*
X95258026Y-64450500D01*
X95461974Y-64450500D01*
X95461976Y-64450500D01*
X95662456Y-64413024D01*
X95852637Y-64339348D01*
X96026041Y-64231981D01*
X96176764Y-64094579D01*
X96299673Y-63931821D01*
X96390582Y-63749250D01*
X96446397Y-63553083D01*
X96465215Y-63350000D01*
X96446397Y-63146917D01*
X96390582Y-62950750D01*
X96390581Y-62950748D01*
X96389013Y-62945237D01*
X96390994Y-62944673D01*
X96385902Y-62884174D01*
X96418614Y-62822435D01*
X96419627Y-62821409D01*
X98929218Y-60311819D01*
X98990542Y-60278334D01*
X99016900Y-60275500D01*
X104910309Y-60275500D01*
X104977348Y-60295185D01*
X104997990Y-60311819D01*
X108215057Y-63528886D01*
X108231185Y-63548745D01*
X108237124Y-63557836D01*
X108265140Y-63579641D01*
X108270901Y-63584730D01*
X108273690Y-63587519D01*
X108291171Y-63600000D01*
X108291641Y-63600335D01*
X108293697Y-63601868D01*
X108336018Y-63634809D01*
X108342912Y-63638539D01*
X108350006Y-63642008D01*
X108350009Y-63642010D01*
X108401431Y-63657318D01*
X108403791Y-63658075D01*
X108454548Y-63675500D01*
X108454550Y-63675500D01*
X108462280Y-63676790D01*
X108470118Y-63677767D01*
X108470120Y-63677768D01*
X108470121Y-63677767D01*
X108470122Y-63677768D01*
X108494621Y-63676754D01*
X108523684Y-63675552D01*
X108526242Y-63675500D01*
X113766295Y-63675500D01*
X113833334Y-63695185D01*
X113879089Y-63747989D01*
X113882232Y-63755518D01*
X113919780Y-63854523D01*
X114009517Y-63984530D01*
X114127760Y-64089283D01*
X114164580Y-64108608D01*
X114178100Y-64115704D01*
X114228312Y-64164289D01*
X114244286Y-64232308D01*
X114220950Y-64298166D01*
X114165714Y-64340952D01*
X114120473Y-64349500D01*
X113475323Y-64349500D01*
X113402264Y-64364032D01*
X113402260Y-64364033D01*
X113319399Y-64419399D01*
X113264033Y-64502260D01*
X113264032Y-64502264D01*
X113249500Y-64575321D01*
X113249500Y-65711622D01*
X113229815Y-65778661D01*
X113177011Y-65824416D01*
X113107853Y-65834360D01*
X113051189Y-65810889D01*
X112992089Y-65766647D01*
X112992086Y-65766645D01*
X112857379Y-65716403D01*
X112857372Y-65716401D01*
X112797844Y-65710000D01*
X112350000Y-65710000D01*
X112350000Y-66735000D01*
X113250000Y-66735000D01*
X113250000Y-66256774D01*
X113269685Y-66189735D01*
X113322489Y-66143980D01*
X113391647Y-66134036D01*
X113398192Y-66135157D01*
X113475323Y-66150500D01*
X113475326Y-66150500D01*
X115074676Y-66150500D01*
X115074677Y-66150499D01*
X115147740Y-66135966D01*
X115230601Y-66080601D01*
X115285966Y-65997740D01*
X115300500Y-65924674D01*
X115300500Y-64575326D01*
X115300500Y-64575325D01*
X115300500Y-64575323D01*
X115300499Y-64575321D01*
X115285967Y-64502264D01*
X115285966Y-64502260D01*
X115273171Y-64483111D01*
X115230601Y-64419399D01*
X115147740Y-64364034D01*
X115147739Y-64364033D01*
X115147735Y-64364032D01*
X115074677Y-64349500D01*
X115074674Y-64349500D01*
X114879527Y-64349500D01*
X114812488Y-64329815D01*
X114766733Y-64277011D01*
X114756789Y-64207853D01*
X114785814Y-64144297D01*
X114821900Y-64115704D01*
X114829707Y-64111605D01*
X114872240Y-64089283D01*
X114990483Y-63984530D01*
X115080220Y-63854523D01*
X115136237Y-63706818D01*
X115155278Y-63550000D01*
X115142186Y-63442172D01*
X115136237Y-63393181D01*
X115095408Y-63285525D01*
X115080220Y-63245477D01*
X114990483Y-63115470D01*
X114872240Y-63010717D01*
X114872238Y-63010716D01*
X114872237Y-63010715D01*
X114732365Y-62937303D01*
X114578986Y-62899500D01*
X114578985Y-62899500D01*
X114421015Y-62899500D01*
X114421011Y-62899500D01*
X114340398Y-62919368D01*
X114307334Y-62921316D01*
X114307355Y-62921807D01*
X114255566Y-62923949D01*
X114243523Y-62924447D01*
X114240966Y-62924500D01*
X111783326Y-62924500D01*
X111716287Y-62904815D01*
X111670532Y-62852011D01*
X111660588Y-62782853D01*
X111667382Y-62756532D01*
X111686237Y-62706818D01*
X111705278Y-62550000D01*
X111691351Y-62435304D01*
X111686237Y-62393182D01*
X111681364Y-62380333D01*
X111654525Y-62309565D01*
X111649159Y-62239907D01*
X111682306Y-62178401D01*
X111743444Y-62144579D01*
X111813162Y-62149180D01*
X111852694Y-62172782D01*
X111927759Y-62239282D01*
X111927761Y-62239284D01*
X112067634Y-62312696D01*
X112221014Y-62350500D01*
X112221015Y-62350500D01*
X112378985Y-62350500D01*
X112532365Y-62312696D01*
X112538321Y-62309570D01*
X112672240Y-62239283D01*
X112790483Y-62134530D01*
X112880220Y-62004523D01*
X112936237Y-61856818D01*
X112938704Y-61836495D01*
X112966323Y-61772319D01*
X113024256Y-61733260D01*
X113094109Y-61731723D01*
X113136111Y-61752174D01*
X113257906Y-61843350D01*
X113257913Y-61843354D01*
X113392620Y-61893596D01*
X113392627Y-61893598D01*
X113452155Y-61899999D01*
X113452172Y-61900000D01*
X114025000Y-61900000D01*
X114025000Y-61000000D01*
X114525000Y-61000000D01*
X114525000Y-61900000D01*
X115097828Y-61900000D01*
X115097844Y-61899999D01*
X115157372Y-61893598D01*
X115157379Y-61893596D01*
X115292086Y-61843354D01*
X115292093Y-61843350D01*
X115407187Y-61757190D01*
X115407190Y-61757187D01*
X115493350Y-61642093D01*
X115493354Y-61642086D01*
X115543596Y-61507379D01*
X115543598Y-61507372D01*
X115549999Y-61447844D01*
X115550000Y-61447827D01*
X115550000Y-61000000D01*
X117444721Y-61000000D01*
X117463762Y-61156818D01*
X117514152Y-61289684D01*
X117519780Y-61304523D01*
X117609517Y-61434530D01*
X117727760Y-61539283D01*
X117735189Y-61543182D01*
X117867634Y-61612696D01*
X118021014Y-61650500D01*
X118021015Y-61650500D01*
X118178985Y-61650500D01*
X118332365Y-61612696D01*
X118384555Y-61585304D01*
X118472240Y-61539283D01*
X118590483Y-61434530D01*
X118594257Y-61429061D01*
X118648537Y-61385071D01*
X118696308Y-61375500D01*
X118993101Y-61375500D01*
X119060140Y-61395185D01*
X119080782Y-61411819D01*
X121806782Y-64137819D01*
X121840267Y-64199142D01*
X121835283Y-64268834D01*
X121793411Y-64324767D01*
X121727947Y-64349184D01*
X121719101Y-64349500D01*
X121425323Y-64349500D01*
X121352264Y-64364032D01*
X121352260Y-64364033D01*
X121269399Y-64419399D01*
X121214033Y-64502260D01*
X121214032Y-64502264D01*
X121199500Y-64575321D01*
X121199500Y-65924678D01*
X121214032Y-65997735D01*
X121214033Y-65997739D01*
X121221016Y-66008190D01*
X121269399Y-66080601D01*
X121345965Y-66131760D01*
X121352260Y-66135966D01*
X121352264Y-66135967D01*
X121425321Y-66150499D01*
X121425324Y-66150500D01*
X121425326Y-66150500D01*
X123024676Y-66150500D01*
X123024677Y-66150499D01*
X123097740Y-66135966D01*
X123180601Y-66080601D01*
X123235966Y-65997740D01*
X123250500Y-65924674D01*
X123250500Y-64575326D01*
X123250500Y-64575325D01*
X123250500Y-64575323D01*
X123250499Y-64575321D01*
X123235967Y-64502264D01*
X123235966Y-64502260D01*
X123223171Y-64483111D01*
X123180601Y-64419399D01*
X123097740Y-64364034D01*
X123097739Y-64364033D01*
X123097735Y-64364032D01*
X123024677Y-64349500D01*
X123024674Y-64349500D01*
X122724500Y-64349500D01*
X122657461Y-64329815D01*
X122611706Y-64277011D01*
X122600500Y-64225500D01*
X122600500Y-64076804D01*
X122603139Y-64051359D01*
X122604554Y-64044608D01*
X122605367Y-64040732D01*
X122603498Y-64025740D01*
X122600977Y-64005506D01*
X122600500Y-63997830D01*
X122600500Y-63993889D01*
X122600499Y-63993883D01*
X122598938Y-63984530D01*
X122596866Y-63972116D01*
X122596500Y-63969598D01*
X122591002Y-63925487D01*
X122589866Y-63916374D01*
X122589864Y-63916370D01*
X122587622Y-63908840D01*
X122585065Y-63901395D01*
X122585065Y-63901390D01*
X122559536Y-63854217D01*
X122558404Y-63852018D01*
X122534826Y-63803789D01*
X122534824Y-63803787D01*
X122534824Y-63803786D01*
X122530267Y-63797404D01*
X122525417Y-63791172D01*
X122485973Y-63754861D01*
X122484147Y-63753110D01*
X119731038Y-61000000D01*
X120950000Y-61000000D01*
X120950000Y-61447844D01*
X120956401Y-61507372D01*
X120956403Y-61507379D01*
X121006645Y-61642086D01*
X121006649Y-61642093D01*
X121092809Y-61757187D01*
X121092812Y-61757190D01*
X121207906Y-61843350D01*
X121207913Y-61843354D01*
X121342620Y-61893596D01*
X121342627Y-61893598D01*
X121402155Y-61899999D01*
X121402172Y-61900000D01*
X121975000Y-61900000D01*
X121975000Y-61000000D01*
X120950000Y-61000000D01*
X119731038Y-61000000D01*
X119502149Y-60771111D01*
X119486022Y-60751252D01*
X119480086Y-60742167D01*
X119480083Y-60742163D01*
X119452074Y-60720363D01*
X119446310Y-60715272D01*
X119443515Y-60712477D01*
X119427557Y-60701085D01*
X119425543Y-60699647D01*
X119423512Y-60698133D01*
X119381189Y-60665191D01*
X119381188Y-60665190D01*
X119374274Y-60661448D01*
X119367197Y-60657988D01*
X119315816Y-60642691D01*
X119313377Y-60641910D01*
X119262661Y-60624500D01*
X119254923Y-60623208D01*
X119247085Y-60622231D01*
X119197826Y-60624269D01*
X119193523Y-60624447D01*
X119190966Y-60624500D01*
X118696308Y-60624500D01*
X118629269Y-60604815D01*
X118594257Y-60570938D01*
X118590483Y-60565470D01*
X118472240Y-60460717D01*
X118472238Y-60460716D01*
X118472237Y-60460715D01*
X118332365Y-60387303D01*
X118178986Y-60349500D01*
X118178985Y-60349500D01*
X118021015Y-60349500D01*
X118021014Y-60349500D01*
X117867634Y-60387303D01*
X117727762Y-60460715D01*
X117609516Y-60565471D01*
X117519781Y-60695475D01*
X117519780Y-60695476D01*
X117463762Y-60843181D01*
X117444721Y-60999999D01*
X117444721Y-61000000D01*
X115550000Y-61000000D01*
X114525000Y-61000000D01*
X114025000Y-61000000D01*
X113000000Y-61000000D01*
X113000000Y-61175569D01*
X112980315Y-61242608D01*
X112927511Y-61288363D01*
X112858353Y-61298307D01*
X112794797Y-61269282D01*
X112793773Y-61268385D01*
X112790483Y-61265470D01*
X112672240Y-61160717D01*
X112672238Y-61160716D01*
X112672237Y-61160715D01*
X112532365Y-61087303D01*
X112378986Y-61049500D01*
X112378985Y-61049500D01*
X112221015Y-61049500D01*
X112221014Y-61049500D01*
X112067634Y-61087303D01*
X111927762Y-61160715D01*
X111809516Y-61265470D01*
X111807505Y-61268385D01*
X111805742Y-61270938D01*
X111751463Y-61314929D01*
X111703692Y-61324500D01*
X108396899Y-61324500D01*
X108329860Y-61304815D01*
X108309218Y-61288181D01*
X107293218Y-60272181D01*
X107259733Y-60210858D01*
X107264717Y-60141166D01*
X107306589Y-60085233D01*
X107372053Y-60060816D01*
X107380899Y-60060500D01*
X108274676Y-60060500D01*
X108274677Y-60060499D01*
X108347740Y-60045966D01*
X108430601Y-59990601D01*
X108485966Y-59907740D01*
X108500500Y-59834674D01*
X108500500Y-59285000D01*
X110950000Y-59285000D01*
X110950000Y-59857844D01*
X110956401Y-59917372D01*
X110956403Y-59917379D01*
X111006645Y-60052086D01*
X111006649Y-60052093D01*
X111092809Y-60167187D01*
X111092812Y-60167190D01*
X111207906Y-60253350D01*
X111207913Y-60253354D01*
X111342620Y-60303596D01*
X111342627Y-60303598D01*
X111402155Y-60309999D01*
X111402172Y-60310000D01*
X111850000Y-60310000D01*
X111850000Y-59285000D01*
X112350000Y-59285000D01*
X112350000Y-60310000D01*
X112797828Y-60310000D01*
X112797839Y-60309999D01*
X112862741Y-60303020D01*
X112931501Y-60315424D01*
X112982639Y-60363033D01*
X112999999Y-60426308D01*
X112999999Y-60499999D01*
X113000000Y-60500000D01*
X114025000Y-60500000D01*
X114025000Y-59600000D01*
X114525000Y-59600000D01*
X114525000Y-60500000D01*
X115550000Y-60500000D01*
X115550000Y-60052172D01*
X115549999Y-60052155D01*
X115543598Y-59992627D01*
X115543596Y-59992620D01*
X115493354Y-59857913D01*
X115493350Y-59857906D01*
X115407190Y-59742812D01*
X115407187Y-59742809D01*
X115292093Y-59656649D01*
X115292086Y-59656645D01*
X115157379Y-59606403D01*
X115157372Y-59606401D01*
X115097844Y-59600000D01*
X114525000Y-59600000D01*
X114025000Y-59600000D01*
X113452155Y-59600000D01*
X113387256Y-59606979D01*
X113318497Y-59594574D01*
X113267359Y-59546965D01*
X113250000Y-59483690D01*
X113250000Y-59285000D01*
X112350000Y-59285000D01*
X111850000Y-59285000D01*
X110950000Y-59285000D01*
X108500500Y-59285000D01*
X108500500Y-58434499D01*
X108520185Y-58367461D01*
X108572989Y-58321706D01*
X108624500Y-58310500D01*
X110826000Y-58310500D01*
X110893039Y-58330185D01*
X110938794Y-58382989D01*
X110950000Y-58434500D01*
X110950000Y-58785000D01*
X113250000Y-58785000D01*
X113250000Y-58434500D01*
X113269685Y-58367461D01*
X113322489Y-58321706D01*
X113374000Y-58310500D01*
X116028101Y-58310500D01*
X116095140Y-58330185D01*
X116115782Y-58346819D01*
X117497849Y-59728886D01*
X117513977Y-59748745D01*
X117519916Y-59757836D01*
X117547932Y-59779641D01*
X117553693Y-59784730D01*
X117556482Y-59787519D01*
X117567219Y-59795185D01*
X117574433Y-59800335D01*
X117576489Y-59801868D01*
X117618810Y-59834809D01*
X117625722Y-59838549D01*
X117632801Y-59842010D01*
X117684200Y-59857312D01*
X117686594Y-59858079D01*
X117711341Y-59866574D01*
X117737339Y-59875500D01*
X117745079Y-59876791D01*
X117752909Y-59877767D01*
X117752911Y-59877768D01*
X117752912Y-59877767D01*
X117752913Y-59877768D01*
X117777412Y-59876754D01*
X117806475Y-59875552D01*
X117809033Y-59875500D01*
X120830948Y-59875500D01*
X120897987Y-59895185D01*
X120943742Y-59947989D01*
X120954237Y-60012756D01*
X120950000Y-60052155D01*
X120950000Y-60500000D01*
X122351000Y-60500000D01*
X122418039Y-60519685D01*
X122463794Y-60572489D01*
X122475000Y-60624000D01*
X122475000Y-61900000D01*
X123047828Y-61900000D01*
X123047844Y-61899999D01*
X123107372Y-61893598D01*
X123107379Y-61893596D01*
X123242086Y-61843354D01*
X123242093Y-61843350D01*
X123357187Y-61757190D01*
X123357190Y-61757187D01*
X123443350Y-61642093D01*
X123443354Y-61642086D01*
X123493596Y-61507379D01*
X123493598Y-61507372D01*
X123499999Y-61447844D01*
X123500000Y-61447827D01*
X123500000Y-60868768D01*
X123519685Y-60801729D01*
X123572489Y-60755974D01*
X123641647Y-60746030D01*
X123659372Y-60749920D01*
X123684169Y-60757303D01*
X123686610Y-60758085D01*
X123737338Y-60775500D01*
X123745079Y-60776791D01*
X123752909Y-60777767D01*
X123752911Y-60777768D01*
X123752912Y-60777767D01*
X123752913Y-60777768D01*
X123777412Y-60776754D01*
X123806475Y-60775552D01*
X123809033Y-60775500D01*
X125348196Y-60775500D01*
X125373641Y-60778139D01*
X125377440Y-60778935D01*
X125384268Y-60780367D01*
X125405225Y-60777754D01*
X125419492Y-60775977D01*
X125427168Y-60775500D01*
X125431112Y-60775500D01*
X125431114Y-60775500D01*
X125452895Y-60771864D01*
X125455402Y-60771499D01*
X125508626Y-60764866D01*
X125508628Y-60764864D01*
X125516141Y-60762628D01*
X125523606Y-60760066D01*
X125523606Y-60760065D01*
X125523610Y-60760065D01*
X125570763Y-60734547D01*
X125573004Y-60733392D01*
X125621211Y-60709826D01*
X125621214Y-60709822D01*
X125627594Y-60705268D01*
X125633819Y-60700422D01*
X125633826Y-60700419D01*
X125670162Y-60660945D01*
X125671864Y-60659171D01*
X126044217Y-60286819D01*
X126105541Y-60253334D01*
X126131899Y-60250500D01*
X126278985Y-60250500D01*
X126432365Y-60212696D01*
X126542874Y-60154695D01*
X126611380Y-60140970D01*
X126676434Y-60166462D01*
X126717379Y-60223077D01*
X126724499Y-60264492D01*
X126724499Y-61207797D01*
X126704814Y-61274836D01*
X126682726Y-61300612D01*
X126609518Y-61365468D01*
X126519781Y-61495475D01*
X126519780Y-61495476D01*
X126463762Y-61643181D01*
X126444721Y-61799999D01*
X126444721Y-61800000D01*
X126463762Y-61956818D01*
X126498930Y-62049546D01*
X126519780Y-62104523D01*
X126609517Y-62234530D01*
X126727760Y-62339283D01*
X126727762Y-62339284D01*
X126867634Y-62412696D01*
X127021014Y-62450500D01*
X127021015Y-62450500D01*
X127178985Y-62450500D01*
X127332361Y-62412697D01*
X127332361Y-62412696D01*
X127332365Y-62412696D01*
X127367875Y-62394058D01*
X127436380Y-62380333D01*
X127501434Y-62405824D01*
X127542379Y-62462439D01*
X127549500Y-62503855D01*
X127549500Y-63427092D01*
X127529815Y-63494131D01*
X127507728Y-63519907D01*
X127484517Y-63540469D01*
X127484515Y-63540472D01*
X127394781Y-63670475D01*
X127394780Y-63670476D01*
X127338762Y-63818181D01*
X127319721Y-63974999D01*
X127319721Y-63975000D01*
X127338762Y-64131818D01*
X127382766Y-64247844D01*
X127394780Y-64279523D01*
X127484517Y-64409530D01*
X127602760Y-64514283D01*
X127602762Y-64514284D01*
X127742634Y-64587696D01*
X127896014Y-64625500D01*
X127896015Y-64625500D01*
X128053985Y-64625500D01*
X128207365Y-64587696D01*
X128226142Y-64577841D01*
X128347240Y-64514283D01*
X128465483Y-64409530D01*
X128555220Y-64279523D01*
X128611237Y-64131818D01*
X128630278Y-63975000D01*
X128629931Y-63972138D01*
X128611237Y-63818181D01*
X128580022Y-63735875D01*
X128555220Y-63670477D01*
X128465483Y-63540470D01*
X128347240Y-63435717D01*
X128347239Y-63435716D01*
X128342272Y-63431316D01*
X128305145Y-63372126D01*
X128300499Y-63338500D01*
X128300499Y-60424000D01*
X128320184Y-60356961D01*
X128372988Y-60311206D01*
X128424499Y-60300000D01*
X128650000Y-60300000D01*
X128650000Y-57750000D01*
X128202155Y-57750000D01*
X128142627Y-57756401D01*
X128142617Y-57756403D01*
X128104260Y-57770710D01*
X128034569Y-57775694D01*
X127973247Y-57742209D01*
X125202149Y-54971111D01*
X125186022Y-54951252D01*
X125180086Y-54942167D01*
X125180083Y-54942163D01*
X125152074Y-54920363D01*
X125146310Y-54915272D01*
X125143515Y-54912477D01*
X125125550Y-54899652D01*
X125123512Y-54898133D01*
X125081189Y-54865191D01*
X125081188Y-54865190D01*
X125074274Y-54861448D01*
X125067197Y-54857988D01*
X125015816Y-54842691D01*
X125013377Y-54841910D01*
X124962661Y-54824500D01*
X124954923Y-54823208D01*
X124947085Y-54822231D01*
X124897826Y-54824269D01*
X124893523Y-54824447D01*
X124890966Y-54824500D01*
X103406900Y-54824500D01*
X103339861Y-54804815D01*
X103319219Y-54788181D01*
X101784518Y-53253480D01*
X101751033Y-53192157D01*
X101749103Y-53150852D01*
X101755278Y-53100000D01*
X101736237Y-52943182D01*
X101680220Y-52795477D01*
X101590483Y-52665470D01*
X101516582Y-52600000D01*
X113040000Y-52600000D01*
X113040000Y-53047844D01*
X113046401Y-53107372D01*
X113046403Y-53107379D01*
X113096645Y-53242086D01*
X113096649Y-53242093D01*
X113182809Y-53357187D01*
X113182812Y-53357190D01*
X113297906Y-53443350D01*
X113297913Y-53443354D01*
X113432620Y-53493596D01*
X113432627Y-53493598D01*
X113492155Y-53499999D01*
X113492172Y-53500000D01*
X114065000Y-53500000D01*
X114065000Y-52600000D01*
X114565000Y-52600000D01*
X114565000Y-53500000D01*
X115137828Y-53500000D01*
X115137844Y-53499999D01*
X115197372Y-53493598D01*
X115197379Y-53493596D01*
X115332086Y-53443354D01*
X115332093Y-53443350D01*
X115447187Y-53357190D01*
X115447190Y-53357187D01*
X115533350Y-53242093D01*
X115533354Y-53242086D01*
X115583596Y-53107379D01*
X115583598Y-53107372D01*
X115589999Y-53047844D01*
X115590000Y-53047827D01*
X115590000Y-52600000D01*
X114565000Y-52600000D01*
X114065000Y-52600000D01*
X113040000Y-52600000D01*
X101516582Y-52600000D01*
X101472240Y-52560717D01*
X101472238Y-52560716D01*
X101472237Y-52560715D01*
X101332365Y-52487303D01*
X101178986Y-52449500D01*
X101178985Y-52449500D01*
X101021015Y-52449500D01*
X101021014Y-52449500D01*
X100867634Y-52487303D01*
X100727762Y-52560715D01*
X100609516Y-52665471D01*
X100519781Y-52795475D01*
X100519780Y-52795476D01*
X100463762Y-52943181D01*
X100444722Y-53099999D01*
X100444722Y-53100000D01*
X100463762Y-53256818D01*
X100519234Y-53403083D01*
X100519780Y-53404523D01*
X100609517Y-53534530D01*
X100727760Y-53639283D01*
X100727762Y-53639284D01*
X100867634Y-53712696D01*
X101021014Y-53750500D01*
X101168101Y-53750500D01*
X101235140Y-53770185D01*
X101255782Y-53786819D01*
X102756782Y-55287819D01*
X102790267Y-55349142D01*
X102785283Y-55418834D01*
X102743411Y-55474767D01*
X102677947Y-55499184D01*
X102669101Y-55499500D01*
X97276804Y-55499500D01*
X97251357Y-55496861D01*
X97248713Y-55496306D01*
X97240729Y-55494632D01*
X97205509Y-55499023D01*
X97197832Y-55499500D01*
X97193884Y-55499500D01*
X97172104Y-55503134D01*
X97169570Y-55503503D01*
X97116369Y-55510135D01*
X97108844Y-55512375D01*
X97101388Y-55514935D01*
X97054232Y-55540453D01*
X97051956Y-55541624D01*
X97003791Y-55565171D01*
X96997398Y-55569735D01*
X96991173Y-55574580D01*
X96954862Y-55614024D01*
X96953089Y-55615871D01*
X96905781Y-55663180D01*
X96844458Y-55696666D01*
X96818099Y-55699500D01*
X96671014Y-55699500D01*
X96517634Y-55737303D01*
X96377762Y-55810715D01*
X96259516Y-55915471D01*
X96169781Y-56045475D01*
X96169780Y-56045476D01*
X96113762Y-56193181D01*
X96094722Y-56349999D01*
X96094722Y-56350000D01*
X96113762Y-56506818D01*
X96169779Y-56654523D01*
X96169780Y-56654523D01*
X96259517Y-56784530D01*
X96377760Y-56889283D01*
X96377762Y-56889284D01*
X96517634Y-56962696D01*
X96671014Y-57000500D01*
X96671015Y-57000500D01*
X96828985Y-57000500D01*
X96982365Y-56962696D01*
X97011909Y-56947190D01*
X97122240Y-56889283D01*
X97240483Y-56784530D01*
X97330220Y-56654523D01*
X97386237Y-56506818D01*
X97399756Y-56395475D01*
X97404118Y-56359554D01*
X97431740Y-56295376D01*
X97489674Y-56256319D01*
X97527214Y-56250500D01*
X100515739Y-56250500D01*
X100582778Y-56270185D01*
X100628533Y-56322989D01*
X100638477Y-56392147D01*
X100609452Y-56455703D01*
X100573365Y-56484296D01*
X100427762Y-56560714D01*
X100309516Y-56665471D01*
X100219781Y-56795475D01*
X100219780Y-56795476D01*
X100163762Y-56943181D01*
X100144722Y-57099999D01*
X100144722Y-57100000D01*
X100163762Y-57256818D01*
X100213066Y-57386819D01*
X100219780Y-57404523D01*
X100309517Y-57534530D01*
X100427760Y-57639283D01*
X100427762Y-57639284D01*
X100567634Y-57712696D01*
X100721014Y-57750500D01*
X100868100Y-57750500D01*
X100935139Y-57770185D01*
X100955781Y-57786819D01*
X101372850Y-58203888D01*
X101388975Y-58223744D01*
X101394913Y-58232832D01*
X101394916Y-58232836D01*
X101422925Y-58254636D01*
X101428687Y-58259725D01*
X101431482Y-58262520D01*
X101431484Y-58262522D01*
X101449441Y-58275342D01*
X101451497Y-58276874D01*
X101484610Y-58302647D01*
X101525422Y-58359356D01*
X101529097Y-58429129D01*
X101494466Y-58489812D01*
X101432525Y-58522140D01*
X101408447Y-58524500D01*
X94781804Y-58524500D01*
X94756357Y-58521861D01*
X94753713Y-58521306D01*
X94745729Y-58519632D01*
X94710509Y-58524023D01*
X94702832Y-58524500D01*
X94698884Y-58524500D01*
X94677104Y-58528134D01*
X94674570Y-58528503D01*
X94621369Y-58535135D01*
X94613844Y-58537375D01*
X94606388Y-58539935D01*
X94559232Y-58565453D01*
X94556956Y-58566624D01*
X94508791Y-58590171D01*
X94502398Y-58594735D01*
X94496173Y-58599580D01*
X94459862Y-58639024D01*
X94458089Y-58640872D01*
X90805027Y-62293933D01*
X90743704Y-62327418D01*
X90674012Y-62322434D01*
X90672605Y-62321899D01*
X90608846Y-62297199D01*
X90582459Y-62286977D01*
X90582458Y-62286976D01*
X90582456Y-62286976D01*
X90381976Y-62249500D01*
X90178024Y-62249500D01*
X90138876Y-62256818D01*
X90083994Y-62267077D01*
X90014479Y-62260046D01*
X89959801Y-62216548D01*
X89937319Y-62150394D01*
X89954172Y-62082587D01*
X89973526Y-62057510D01*
X94328889Y-57702146D01*
X94348746Y-57686022D01*
X94357836Y-57680084D01*
X94379651Y-57652054D01*
X94384719Y-57646316D01*
X94387520Y-57643517D01*
X94400368Y-57625521D01*
X94401853Y-57623529D01*
X94434809Y-57581189D01*
X94434810Y-57581183D01*
X94438543Y-57574287D01*
X94442005Y-57567205D01*
X94442010Y-57567199D01*
X94457322Y-57515763D01*
X94458087Y-57513380D01*
X94462271Y-57501193D01*
X94475500Y-57462660D01*
X94475500Y-57462656D01*
X94476795Y-57454895D01*
X94477769Y-57447086D01*
X94476541Y-57417405D01*
X94475552Y-57393509D01*
X94475500Y-57390950D01*
X94475500Y-52206899D01*
X94495185Y-52139860D01*
X94511819Y-52119218D01*
X96144218Y-50486819D01*
X96205541Y-50453334D01*
X96231899Y-50450500D01*
X96378985Y-50450500D01*
X96532365Y-50412696D01*
X96532365Y-50412695D01*
X96672240Y-50339283D01*
X96790483Y-50234530D01*
X96880220Y-50104523D01*
X96936237Y-49956818D01*
X96955278Y-49800000D01*
X96939573Y-49670652D01*
X96936237Y-49643181D01*
X96912879Y-49581593D01*
X96880220Y-49495477D01*
X96793567Y-49369938D01*
X96771685Y-49303586D01*
X96789150Y-49235934D01*
X96840418Y-49188464D01*
X96895618Y-49175500D01*
X101093101Y-49175500D01*
X101160140Y-49195185D01*
X101180782Y-49211819D01*
X101310068Y-49341105D01*
X101343553Y-49402428D01*
X101345483Y-49443731D01*
X101344722Y-49449999D01*
X101344722Y-49450000D01*
X101363762Y-49606818D01*
X101387973Y-49670655D01*
X101419780Y-49754523D01*
X101509517Y-49884530D01*
X101627760Y-49989283D01*
X101627762Y-49989284D01*
X101767634Y-50062696D01*
X101921014Y-50100500D01*
X101921015Y-50100500D01*
X102078985Y-50100500D01*
X102232365Y-50062696D01*
X102232365Y-50062695D01*
X102372240Y-49989283D01*
X102490483Y-49884530D01*
X102580220Y-49754523D01*
X102636237Y-49606818D01*
X102655278Y-49450000D01*
X102640186Y-49325701D01*
X102636237Y-49293181D01*
X102605380Y-49211819D01*
X102580220Y-49145477D01*
X102490483Y-49015470D01*
X102372240Y-48910717D01*
X102372238Y-48910716D01*
X102372237Y-48910715D01*
X102232365Y-48837303D01*
X102078986Y-48799500D01*
X102078985Y-48799500D01*
X101921015Y-48799500D01*
X101921010Y-48799500D01*
X101916326Y-48800655D01*
X101846524Y-48797583D01*
X101798976Y-48767938D01*
X101602149Y-48571111D01*
X101586022Y-48551252D01*
X101580086Y-48542167D01*
X101580083Y-48542163D01*
X101552074Y-48520363D01*
X101546310Y-48515272D01*
X101543516Y-48512478D01*
X101526626Y-48500420D01*
X101483503Y-48445446D01*
X101476945Y-48375885D01*
X101509037Y-48313821D01*
X101569588Y-48278960D01*
X101598676Y-48275500D01*
X105293101Y-48275500D01*
X105360140Y-48295185D01*
X105380782Y-48311819D01*
X108715481Y-51646518D01*
X108748966Y-51707841D01*
X108750896Y-51749143D01*
X108744722Y-51799997D01*
X108744722Y-51800000D01*
X108763762Y-51956818D01*
X108817875Y-52099500D01*
X108819780Y-52104523D01*
X108909517Y-52234530D01*
X109027760Y-52339283D01*
X109027762Y-52339284D01*
X109167634Y-52412696D01*
X109321014Y-52450500D01*
X109321015Y-52450500D01*
X109478985Y-52450500D01*
X109632365Y-52412696D01*
X109632365Y-52412695D01*
X109772240Y-52339283D01*
X109890483Y-52234530D01*
X109980220Y-52104523D01*
X109981935Y-52100000D01*
X113040000Y-52100000D01*
X114065000Y-52100000D01*
X114065000Y-51200000D01*
X114565000Y-51200000D01*
X114565000Y-52100000D01*
X115590000Y-52100000D01*
X120990000Y-52100000D01*
X122015000Y-52100000D01*
X122015000Y-51200000D01*
X122515000Y-51200000D01*
X122515000Y-52100000D01*
X123540000Y-52100000D01*
X123540000Y-51652172D01*
X123539999Y-51652155D01*
X123533598Y-51592627D01*
X123533596Y-51592620D01*
X123483354Y-51457913D01*
X123483350Y-51457906D01*
X123397190Y-51342812D01*
X123397187Y-51342809D01*
X123282093Y-51256649D01*
X123282086Y-51256645D01*
X123147379Y-51206403D01*
X123147372Y-51206401D01*
X123087844Y-51200000D01*
X122515000Y-51200000D01*
X122015000Y-51200000D01*
X121442155Y-51200000D01*
X121382627Y-51206401D01*
X121382620Y-51206403D01*
X121247913Y-51256645D01*
X121247906Y-51256649D01*
X121132812Y-51342809D01*
X121132809Y-51342812D01*
X121046649Y-51457906D01*
X121046645Y-51457913D01*
X120996403Y-51592620D01*
X120996401Y-51592627D01*
X120990000Y-51652155D01*
X120990000Y-52100000D01*
X115590000Y-52100000D01*
X115590000Y-51652172D01*
X115589999Y-51652155D01*
X115583598Y-51592627D01*
X115583596Y-51592620D01*
X115533354Y-51457913D01*
X115533350Y-51457906D01*
X115447190Y-51342812D01*
X115447187Y-51342809D01*
X115332093Y-51256649D01*
X115332086Y-51256645D01*
X115197379Y-51206403D01*
X115197372Y-51206401D01*
X115137844Y-51200000D01*
X114565000Y-51200000D01*
X114065000Y-51200000D01*
X113492155Y-51200000D01*
X113432627Y-51206401D01*
X113432620Y-51206403D01*
X113297913Y-51256645D01*
X113297906Y-51256649D01*
X113182812Y-51342809D01*
X113182809Y-51342812D01*
X113096649Y-51457906D01*
X113096645Y-51457913D01*
X113046403Y-51592620D01*
X113046401Y-51592627D01*
X113040000Y-51652155D01*
X113040000Y-52100000D01*
X109981935Y-52100000D01*
X110036237Y-51956818D01*
X110055278Y-51800000D01*
X110049994Y-51756477D01*
X110036237Y-51643181D01*
X109997857Y-51541982D01*
X109980220Y-51495477D01*
X109890483Y-51365470D01*
X109772240Y-51260717D01*
X109772238Y-51260716D01*
X109772237Y-51260715D01*
X109632365Y-51187303D01*
X109478986Y-51149500D01*
X109478985Y-51149500D01*
X109331900Y-51149500D01*
X109264861Y-51129815D01*
X109244219Y-51113181D01*
X105802149Y-47671111D01*
X105786022Y-47651252D01*
X105780086Y-47642167D01*
X105780083Y-47642163D01*
X105752074Y-47620363D01*
X105746310Y-47615272D01*
X105743515Y-47612477D01*
X105725550Y-47599652D01*
X105723512Y-47598133D01*
X105681189Y-47565191D01*
X105681188Y-47565190D01*
X105674274Y-47561448D01*
X105667197Y-47557988D01*
X105615816Y-47542691D01*
X105613377Y-47541910D01*
X105562661Y-47524500D01*
X105554923Y-47523208D01*
X105547085Y-47522231D01*
X105497826Y-47524269D01*
X105493523Y-47524447D01*
X105490966Y-47524500D01*
X86396308Y-47524500D01*
X86329269Y-47504815D01*
X86294257Y-47470938D01*
X86290483Y-47465470D01*
X86172240Y-47360717D01*
X86172238Y-47360716D01*
X86172237Y-47360715D01*
X86032365Y-47287303D01*
X85878986Y-47249500D01*
X85878985Y-47249500D01*
X85721015Y-47249500D01*
X85721014Y-47249500D01*
X85567634Y-47287303D01*
X85427762Y-47360715D01*
X85309516Y-47465471D01*
X85219781Y-47595475D01*
X85219780Y-47595476D01*
X85163762Y-47743181D01*
X85144722Y-47899999D01*
X85144722Y-47900000D01*
X85163762Y-48056818D01*
X85219780Y-48204523D01*
X85219780Y-48204524D01*
X85237407Y-48230060D01*
X85259290Y-48296414D01*
X85241825Y-48364066D01*
X85190557Y-48411536D01*
X85135357Y-48424500D01*
X74211804Y-48424500D01*
X74186359Y-48421861D01*
X74175733Y-48419633D01*
X74175730Y-48419633D01*
X74140508Y-48424023D01*
X74132832Y-48424500D01*
X74128886Y-48424500D01*
X74107126Y-48428130D01*
X74104603Y-48428498D01*
X74051371Y-48435134D01*
X74043857Y-48437371D01*
X74036387Y-48439935D01*
X73989246Y-48465447D01*
X73986970Y-48466618D01*
X73938792Y-48490171D01*
X73932375Y-48494753D01*
X73926175Y-48499579D01*
X73889851Y-48539036D01*
X73888078Y-48540884D01*
X73163676Y-49265285D01*
X73102353Y-49298770D01*
X73032661Y-49293786D01*
X73031233Y-49293243D01*
X72916198Y-49248679D01*
X72706610Y-49209500D01*
X72493390Y-49209500D01*
X72283802Y-49248679D01*
X72283799Y-49248679D01*
X72283799Y-49248680D01*
X72084982Y-49325701D01*
X72084980Y-49325702D01*
X71903699Y-49437947D01*
X71746127Y-49581593D01*
X71617632Y-49751746D01*
X71522596Y-49942605D01*
X71522596Y-49942607D01*
X71464244Y-50147689D01*
X71446491Y-50339284D01*
X71444571Y-50360000D01*
X71464244Y-50572310D01*
X71495517Y-50682223D01*
X71522596Y-50777392D01*
X71522596Y-50777394D01*
X71617632Y-50968253D01*
X71617634Y-50968255D01*
X71686358Y-51059260D01*
X71691277Y-51065773D01*
X71715969Y-51131134D01*
X71701404Y-51199469D01*
X71652207Y-51249081D01*
X71592323Y-51264500D01*
X69086899Y-51264500D01*
X69019860Y-51244815D01*
X68999218Y-51228181D01*
X68959709Y-51188672D01*
X68926224Y-51127349D01*
X68930666Y-51065234D01*
X68929013Y-51064764D01*
X68953550Y-50978526D01*
X68986397Y-50863083D01*
X69005215Y-50660000D01*
X68999023Y-50593181D01*
X68986397Y-50456917D01*
X68952927Y-50339284D01*
X68930582Y-50260750D01*
X68839673Y-50078179D01*
X68737294Y-49942607D01*
X68716762Y-49915418D01*
X68566041Y-49778019D01*
X68566039Y-49778017D01*
X68392642Y-49670655D01*
X68392635Y-49670651D01*
X68227861Y-49606818D01*
X68202456Y-49596976D01*
X68001976Y-49559500D01*
X67798024Y-49559500D01*
X67597544Y-49596976D01*
X67597541Y-49596976D01*
X67597541Y-49596977D01*
X67407364Y-49670651D01*
X67407357Y-49670655D01*
X67233960Y-49778017D01*
X67233958Y-49778019D01*
X67083237Y-49915418D01*
X66960327Y-50078178D01*
X66869422Y-50260739D01*
X66869417Y-50260752D01*
X66813602Y-50456917D01*
X66794785Y-50659999D01*
X66794785Y-50660000D01*
X66813602Y-50863082D01*
X66869417Y-51059247D01*
X66869422Y-51059260D01*
X66960327Y-51241821D01*
X67083237Y-51404581D01*
X67233958Y-51541980D01*
X67233960Y-51541982D01*
X67315744Y-51592620D01*
X67407363Y-51649348D01*
X67597544Y-51723024D01*
X67798024Y-51760500D01*
X67798026Y-51760500D01*
X68001974Y-51760500D01*
X68001976Y-51760500D01*
X68202456Y-51723024D01*
X68292556Y-51688118D01*
X68362174Y-51682256D01*
X68423914Y-51714965D01*
X68425027Y-51716064D01*
X68577849Y-51868886D01*
X68593977Y-51888745D01*
X68599916Y-51897836D01*
X68627932Y-51919641D01*
X68633693Y-51924730D01*
X68636482Y-51927519D01*
X68654433Y-51940335D01*
X68656489Y-51941868D01*
X68698810Y-51974809D01*
X68705722Y-51978549D01*
X68712801Y-51982010D01*
X68764200Y-51997312D01*
X68766594Y-51998079D01*
X68772379Y-52000065D01*
X68817339Y-52015500D01*
X68825079Y-52016791D01*
X68832909Y-52017767D01*
X68832911Y-52017768D01*
X68832912Y-52017767D01*
X68832913Y-52017768D01*
X68857412Y-52016754D01*
X68886475Y-52015552D01*
X68889033Y-52015500D01*
X71325500Y-52015500D01*
X71392539Y-52035185D01*
X71438294Y-52087989D01*
X71449500Y-52139500D01*
X71449500Y-53700500D01*
X71429815Y-53767539D01*
X71377011Y-53813294D01*
X71325500Y-53824500D01*
X69106899Y-53824500D01*
X69039860Y-53804815D01*
X69019218Y-53788181D01*
X68959709Y-53728672D01*
X68926224Y-53667349D01*
X68930666Y-53605234D01*
X68929013Y-53604764D01*
X68930583Y-53599247D01*
X68986397Y-53403083D01*
X69005215Y-53200000D01*
X68990638Y-53042691D01*
X68986397Y-52996917D01*
X68971108Y-52943182D01*
X68930582Y-52800750D01*
X68927956Y-52795477D01*
X68863221Y-52665470D01*
X68839673Y-52618179D01*
X68716764Y-52455421D01*
X68716762Y-52455418D01*
X68566041Y-52318019D01*
X68566039Y-52318017D01*
X68392642Y-52210655D01*
X68392635Y-52210651D01*
X68297546Y-52173813D01*
X68202456Y-52136976D01*
X68001976Y-52099500D01*
X67798024Y-52099500D01*
X67597544Y-52136976D01*
X67597541Y-52136976D01*
X67597541Y-52136977D01*
X67407364Y-52210651D01*
X67407357Y-52210655D01*
X67233960Y-52318017D01*
X67233958Y-52318019D01*
X67083237Y-52455418D01*
X66960327Y-52618178D01*
X66869422Y-52800739D01*
X66869417Y-52800752D01*
X66813602Y-52996917D01*
X66794785Y-53199999D01*
X66794785Y-53200000D01*
X66813602Y-53403082D01*
X66869417Y-53599247D01*
X66869422Y-53599260D01*
X66960327Y-53781821D01*
X67083237Y-53944581D01*
X67233958Y-54081980D01*
X67233960Y-54081982D01*
X67360889Y-54160573D01*
X67407525Y-54212601D01*
X67418629Y-54281583D01*
X67390676Y-54345617D01*
X67332541Y-54384373D01*
X67295612Y-54390000D01*
X67002155Y-54390000D01*
X66942627Y-54396401D01*
X66942620Y-54396403D01*
X66807913Y-54446645D01*
X66807906Y-54446649D01*
X66692812Y-54532809D01*
X66692809Y-54532812D01*
X66606649Y-54647906D01*
X66606645Y-54647913D01*
X66556403Y-54782620D01*
X66556401Y-54782627D01*
X66550000Y-54842155D01*
X66550000Y-55490000D01*
X67466314Y-55490000D01*
X67440507Y-55530156D01*
X67400000Y-55668111D01*
X67400000Y-55811889D01*
X67440507Y-55949844D01*
X67466314Y-55990000D01*
X66550000Y-55990000D01*
X66550000Y-56637844D01*
X60902602Y-56637844D01*
X60958131Y-56446041D01*
X61109456Y-55953681D01*
X61109883Y-55952354D01*
X61247714Y-55541173D01*
X61419283Y-55055008D01*
X61419760Y-55053711D01*
X61574428Y-54649032D01*
X61766031Y-54169786D01*
X61766517Y-54168618D01*
X61937672Y-53771242D01*
X62148994Y-53299822D01*
X62149619Y-53298476D01*
X62336841Y-52909241D01*
X62567644Y-52446294D01*
X62568332Y-52444960D01*
X62771192Y-52064604D01*
X63021203Y-51610813D01*
X63021971Y-51609464D01*
X63240012Y-51238683D01*
X63508925Y-50794753D01*
X63509777Y-50793391D01*
X63742507Y-50432865D01*
X64029959Y-49999546D01*
X64030887Y-49998190D01*
X64277748Y-49648616D01*
X64583406Y-49226561D01*
X64584409Y-49225219D01*
X64844830Y-48887227D01*
X65168366Y-48477061D01*
X65169408Y-48475779D01*
X65442794Y-48149965D01*
X65783760Y-47752429D01*
X65784954Y-47751079D01*
X66070512Y-47438186D01*
X66428666Y-47053751D01*
X66429852Y-47052518D01*
X66726867Y-46753109D01*
X67101838Y-46382390D01*
X67103112Y-46381169D01*
X67410794Y-46095806D01*
X67802220Y-45739387D01*
X67803562Y-45738205D01*
X68121001Y-45467475D01*
X68528566Y-45125895D01*
X68530058Y-45124687D01*
X68689220Y-45000005D01*
X71494357Y-45000005D01*
X71514890Y-45247812D01*
X71514892Y-45247824D01*
X71575936Y-45488881D01*
X71675826Y-45716606D01*
X71811833Y-45924782D01*
X71811836Y-45924785D01*
X71980256Y-46107738D01*
X72176491Y-46260474D01*
X72395190Y-46378828D01*
X72630386Y-46459571D01*
X72875665Y-46500500D01*
X73124335Y-46500500D01*
X73369614Y-46459571D01*
X73604810Y-46378828D01*
X73823509Y-46260474D01*
X74019744Y-46107738D01*
X74188164Y-45924785D01*
X74324173Y-45716607D01*
X74424063Y-45488881D01*
X74485108Y-45247821D01*
X74485192Y-45246810D01*
X74505643Y-45000005D01*
X74505643Y-44999994D01*
X74485109Y-44752187D01*
X74485107Y-44752175D01*
X74424063Y-44511118D01*
X74324173Y-44283393D01*
X74188166Y-44075217D01*
X74166557Y-44051744D01*
X74019744Y-43892262D01*
X73823509Y-43739526D01*
X73823507Y-43739525D01*
X73823506Y-43739524D01*
X73604811Y-43621172D01*
X73604802Y-43621169D01*
X73369616Y-43540429D01*
X73124335Y-43499500D01*
X72875665Y-43499500D01*
X72630383Y-43540429D01*
X72395197Y-43621169D01*
X72395188Y-43621172D01*
X72176493Y-43739524D01*
X71980257Y-43892261D01*
X71811833Y-44075217D01*
X71675826Y-44283393D01*
X71575936Y-44511118D01*
X71514892Y-44752175D01*
X71514890Y-44752187D01*
X71494357Y-44999994D01*
X71494357Y-45000005D01*
X68689220Y-45000005D01*
X68856256Y-44869154D01*
X69279625Y-44542966D01*
X69281256Y-44541751D01*
X69615192Y-44301895D01*
X70054200Y-43991527D01*
X70055884Y-43990379D01*
X70396332Y-43766717D01*
X70850914Y-43472570D01*
X70852606Y-43471516D01*
X71198409Y-43264409D01*
X71668407Y-42986981D01*
X71670149Y-42985994D01*
X72019554Y-42796023D01*
X72505271Y-42535597D01*
X72507074Y-42534671D01*
X72669251Y-42455055D01*
X81849500Y-42455055D01*
X81890210Y-42620226D01*
X81969263Y-42770849D01*
X81969266Y-42770852D01*
X82082071Y-42898183D01*
X82168293Y-42957698D01*
X82222068Y-42994817D01*
X82222069Y-42994817D01*
X82222070Y-42994818D01*
X82381128Y-43055140D01*
X82457028Y-43064356D01*
X82507626Y-43070500D01*
X82507628Y-43070500D01*
X82592374Y-43070500D01*
X82634538Y-43065380D01*
X82718872Y-43055140D01*
X82877930Y-42994818D01*
X83017929Y-42898183D01*
X83130734Y-42770852D01*
X83209790Y-42620225D01*
X83250500Y-42455056D01*
X83250500Y-42455055D01*
X84849500Y-42455055D01*
X84890210Y-42620226D01*
X84969263Y-42770849D01*
X84969266Y-42770852D01*
X85082071Y-42898183D01*
X85168293Y-42957698D01*
X85222068Y-42994817D01*
X85222069Y-42994817D01*
X85222070Y-42994818D01*
X85381128Y-43055140D01*
X85457028Y-43064356D01*
X85507626Y-43070500D01*
X85507628Y-43070500D01*
X85592374Y-43070500D01*
X85634538Y-43065380D01*
X85718872Y-43055140D01*
X85877930Y-42994818D01*
X86017929Y-42898183D01*
X86130734Y-42770852D01*
X86209790Y-42620225D01*
X86250500Y-42455056D01*
X86250500Y-42455055D01*
X90749500Y-42455055D01*
X90790210Y-42620226D01*
X90869263Y-42770849D01*
X90869266Y-42770852D01*
X90982071Y-42898183D01*
X91068293Y-42957698D01*
X91122068Y-42994817D01*
X91122069Y-42994817D01*
X91122070Y-42994818D01*
X91281128Y-43055140D01*
X91357028Y-43064356D01*
X91407626Y-43070500D01*
X91407628Y-43070500D01*
X91492374Y-43070500D01*
X91534538Y-43065380D01*
X91618872Y-43055140D01*
X91777930Y-42994818D01*
X91917929Y-42898183D01*
X92030734Y-42770852D01*
X92109790Y-42620225D01*
X92150500Y-42455056D01*
X92150500Y-42284944D01*
X92109790Y-42119775D01*
X92109017Y-42118302D01*
X92030736Y-41969150D01*
X92002848Y-41937671D01*
X91917929Y-41841817D01*
X91868177Y-41807475D01*
X91777931Y-41745182D01*
X91618874Y-41684860D01*
X91618868Y-41684859D01*
X91492374Y-41669500D01*
X91492372Y-41669500D01*
X91407628Y-41669500D01*
X91407626Y-41669500D01*
X91281131Y-41684859D01*
X91281125Y-41684860D01*
X91122068Y-41745182D01*
X90982072Y-41841816D01*
X90869263Y-41969150D01*
X90790210Y-42119773D01*
X90749500Y-42284944D01*
X90749500Y-42455055D01*
X86250500Y-42455055D01*
X86250500Y-42284944D01*
X86209790Y-42119775D01*
X86209017Y-42118302D01*
X86130736Y-41969150D01*
X86102848Y-41937671D01*
X86017929Y-41841817D01*
X85968177Y-41807475D01*
X85877931Y-41745182D01*
X85718874Y-41684860D01*
X85718868Y-41684859D01*
X85592374Y-41669500D01*
X85592372Y-41669500D01*
X85507628Y-41669500D01*
X85507626Y-41669500D01*
X85381131Y-41684859D01*
X85381125Y-41684860D01*
X85222068Y-41745182D01*
X85082072Y-41841816D01*
X84969263Y-41969150D01*
X84890210Y-42119773D01*
X84849500Y-42284944D01*
X84849500Y-42455055D01*
X83250500Y-42455055D01*
X83250500Y-42284944D01*
X83209790Y-42119775D01*
X83209017Y-42118302D01*
X83130736Y-41969150D01*
X83102848Y-41937671D01*
X83017929Y-41841817D01*
X82968177Y-41807475D01*
X82877931Y-41745182D01*
X82718874Y-41684860D01*
X82718868Y-41684859D01*
X82592374Y-41669500D01*
X82592372Y-41669500D01*
X82507628Y-41669500D01*
X82507626Y-41669500D01*
X82381131Y-41684859D01*
X82381125Y-41684860D01*
X82222068Y-41745182D01*
X82082072Y-41841816D01*
X81969263Y-41969150D01*
X81890210Y-42119773D01*
X81849500Y-42284944D01*
X81849500Y-42455055D01*
X72669251Y-42455055D01*
X72858242Y-42362275D01*
X73360037Y-42119208D01*
X73361997Y-42118302D01*
X73712563Y-41963961D01*
X74231373Y-41738465D01*
X74233368Y-41737641D01*
X74580491Y-41601767D01*
X75117673Y-41394073D01*
X75119742Y-41393318D01*
X75459387Y-41276425D01*
X76017490Y-41086597D01*
X76019579Y-41085931D01*
X76346035Y-40988572D01*
X76929165Y-40816602D01*
X76931432Y-40815981D01*
X77235671Y-40738878D01*
X77851313Y-40584494D01*
X77853581Y-40583972D01*
X78119387Y-40528269D01*
X78782265Y-40390701D01*
X78784524Y-40390279D01*
X78978592Y-40357976D01*
X79720445Y-40235553D01*
X79722764Y-40235218D01*
X79742110Y-40232821D01*
X79742410Y-40232784D01*
X79742413Y-40232808D01*
X79742497Y-40232773D01*
X80658377Y-40120038D01*
X80660837Y-40119787D01*
X81480653Y-40052908D01*
X81549070Y-40067076D01*
X81598967Y-40115985D01*
X81610828Y-40145618D01*
X81616371Y-40167176D01*
X81615831Y-40183081D01*
X81626839Y-40210148D01*
X81629457Y-40218075D01*
X81643479Y-40272618D01*
X81669344Y-40327543D01*
X81672054Y-40344947D01*
X81683841Y-40362116D01*
X81693797Y-40379470D01*
X81707947Y-40409518D01*
X81707949Y-40409522D01*
X81752430Y-40470715D01*
X81759033Y-40489208D01*
X81772022Y-40501401D01*
X81787456Y-40518901D01*
X81796911Y-40531909D01*
X81796916Y-40531913D01*
X81796917Y-40531915D01*
X81796974Y-40531968D01*
X81797348Y-40532404D01*
X81800780Y-40536295D01*
X81800727Y-40536341D01*
X81814335Y-40552194D01*
X81817561Y-40556893D01*
X81841971Y-40574207D01*
X81862183Y-40593180D01*
X81873078Y-40611716D01*
X81885903Y-40619376D01*
X81902579Y-40631950D01*
X81902622Y-40631895D01*
X81906715Y-40635069D01*
X81907178Y-40635418D01*
X81907241Y-40635477D01*
X81907243Y-40635478D01*
X81920814Y-40644088D01*
X81939255Y-40658387D01*
X81946028Y-40664745D01*
X81971122Y-40676004D01*
X82035012Y-40716538D01*
X82065890Y-40728760D01*
X82083840Y-40737600D01*
X82095070Y-40744307D01*
X82119260Y-40749884D01*
X82175706Y-40772227D01*
X82231053Y-40782782D01*
X82239117Y-40784891D01*
X82260107Y-40791918D01*
X82282677Y-40792627D01*
X82324342Y-40800574D01*
X82324342Y-40800573D01*
X82324343Y-40800574D01*
X82400189Y-40800500D01*
X82400500Y-40800500D01*
X82401233Y-40800500D01*
X82407943Y-40800858D01*
X82447091Y-40805090D01*
X82474873Y-40800500D01*
X85624123Y-40800500D01*
X85643933Y-40806317D01*
X85692095Y-40800890D01*
X85699043Y-40800500D01*
X85778843Y-40800500D01*
X85826305Y-40791059D01*
X85842179Y-40792479D01*
X85868387Y-40783309D01*
X85876769Y-40781020D01*
X85933497Y-40769737D01*
X85996185Y-40743770D01*
X86013464Y-40741913D01*
X86029355Y-40731928D01*
X86047871Y-40722362D01*
X86079179Y-40709394D01*
X86134908Y-40672156D01*
X86148698Y-40662943D01*
X86167064Y-40657192D01*
X86178079Y-40646177D01*
X86196873Y-40630753D01*
X86210290Y-40621788D01*
X86214999Y-40617924D01*
X86215086Y-40618031D01*
X86231670Y-40604805D01*
X86234648Y-40602933D01*
X86252378Y-40579700D01*
X86279700Y-40552378D01*
X86298109Y-40542325D01*
X86304805Y-40531670D01*
X86318031Y-40515086D01*
X86317924Y-40514999D01*
X86321788Y-40510290D01*
X86321790Y-40510288D01*
X86330754Y-40496871D01*
X86346177Y-40478079D01*
X86351242Y-40473013D01*
X86362943Y-40448698D01*
X86389119Y-40409522D01*
X86409394Y-40379179D01*
X86422362Y-40347871D01*
X86431928Y-40329355D01*
X86437818Y-40319980D01*
X86443770Y-40296186D01*
X86469737Y-40233497D01*
X86481020Y-40176769D01*
X86483309Y-40168387D01*
X86490112Y-40148944D01*
X86491058Y-40126305D01*
X86496230Y-40100305D01*
X86528618Y-40038395D01*
X86589335Y-40003823D01*
X86617848Y-40000500D01*
X90382152Y-40000500D01*
X90449191Y-40020185D01*
G37*
%TD.AperFunction*%
%TD*%
M02*
