M48
; DRILL file {KiCad 7.0.5-1.fc38} date lun 12 giu 2023, 10:00:37
; FORMAT={-:-/ absolute / inch / decimal}
; #@! TF.CreationDate,2023-06-12T10:00:37+02:00
; #@! TF.GenerationSoftware,Kicad,Pcbnew,7.0.5-1.fc38
; #@! TF.FileFunction,Plated,1,2,PTH
FMAT,2
INCH
; #@! TA.AperFunction,Plated,PTH,ViaDrill
T1C0.0157
; #@! TA.AperFunction,Plated,PTH,ComponentDrill
T2C0.0157
; #@! TA.AperFunction,Plated,PTH,ComponentDrill
T3C0.0236
; #@! TA.AperFunction,Plated,PTH,ComponentDrill
T4C0.0354
; #@! TA.AperFunction,Plated,PTH,ComponentDrill
T5C0.0394
%
G90
G05
T1
X2.8228Y-2.8071
X2.9685Y-2.5787
X3.0833Y-2.2323
X3.2087Y-2.1693
X3.2362Y-1.9843
X3.3504Y-2.874
X3.378Y-1.8858
X3.4134Y-2.2795
X3.4493Y-2.1186
X3.5177Y-3.0236
X3.5866Y-1.998
X3.5866Y-2.065
X3.5866Y-3.1575
X3.7047Y-2.748
X3.752Y-2.2677
X3.7874Y-2.9055
X3.7913Y-1.9606
X3.8091Y-2.2185
X3.8661Y-2.9042
X3.935Y-2.5571
X3.9646Y-2.4449
X3.9685Y-2.248
X3.9803Y-1.8504
X3.9803Y-2.0906
X4.0Y-2.9016
X4.0157Y-1.9469
X4.0689Y-2.2539
X4.0768Y-2.6122
X4.3071Y-2.0394
X4.3228Y-2.3583
X4.372Y-2.4626
X4.4134Y-2.9724
X4.4213Y-2.4291
X4.5079Y-2.502
X4.6063Y-3.0433
X4.6063Y-3.2205
X4.6299Y-2.811
X4.6417Y-2.3031
X4.6437Y-2.4843
X4.6496Y-2.4016
X4.6563Y-2.1339
X4.7047Y-2.5354
X4.7185Y-2.0807
X4.9528Y-2.4173
X4.9685Y-2.3465
X5.0039Y-2.4331
X5.0384Y-2.5187
X5.0886Y-2.8169
X5.1024Y-2.7677
X5.1811Y-2.3898
T2
X2.6762Y-2.3632
X2.6762Y-2.3967
X2.6762Y-2.4301
X2.6762Y-2.4636
X2.6762Y-2.497
X2.6762Y-2.5305
X2.6762Y-2.564
X2.6762Y-2.5974
X2.7293Y-2.3632
X2.7293Y-2.3967
X2.7293Y-2.4301
X2.7293Y-2.4636
X2.7293Y-2.497
X2.7293Y-2.5305
X2.7293Y-2.564
X2.7293Y-2.5974
T4
X2.8583Y-1.9827
X2.8583Y-2.0827
T5
X2.6732Y-1.9945
X2.6732Y-2.0945
X2.6732Y-2.1945
X3.3543Y-2.4941
X3.4028Y-2.6122
X3.4543Y-2.4941
X3.5028Y-2.6122
X3.5543Y-2.4941
X3.6028Y-2.6122
X3.6543Y-2.4941
X3.7028Y-2.6122
X3.7543Y-2.4941
X4.315Y-2.8315
X4.315Y-2.9315
X4.315Y-3.0315
X4.315Y-3.1315
X4.315Y-3.2315
T3
G00X2.5734Y-2.31
M15
G01X2.5419Y-2.31
M16
G05
G00X2.5734Y-2.6506
M15
G01X2.5419Y-2.6506
M16
G05
G00X2.7203Y-2.31
M15
G01X2.6612Y-2.31
M16
G05
G00X2.7203Y-2.6506
M15
G01X2.6612Y-2.6506
M16
G05
T0
M30
