%TF.GenerationSoftware,KiCad,Pcbnew,7.0.2-1.fc38*%
%TF.CreationDate,2023-06-09T15:19:37+02:00*%
%TF.ProjectId,gps_compass,6770735f-636f-46d7-9061-73732e6b6963,rev?*%
%TF.SameCoordinates,Original*%
%TF.FileFunction,Soldermask,Top*%
%TF.FilePolarity,Negative*%
%FSLAX46Y46*%
G04 Gerber Fmt 4.6, Leading zero omitted, Abs format (unit mm)*
G04 Created by KiCad (PCBNEW 7.0.2-1.fc38) date 2023-06-09 15:19:37*
%MOMM*%
%LPD*%
G01*
G04 APERTURE LIST*
G04 Aperture macros list*
%AMRoundRect*
0 Rectangle with rounded corners*
0 $1 Rounding radius*
0 $2 $3 $4 $5 $6 $7 $8 $9 X,Y pos of 4 corners*
0 Add a 4 corners polygon primitive as box body*
4,1,4,$2,$3,$4,$5,$6,$7,$8,$9,$2,$3,0*
0 Add four circle primitives for the rounded corners*
1,1,$1+$1,$2,$3*
1,1,$1+$1,$4,$5*
1,1,$1+$1,$6,$7*
1,1,$1+$1,$8,$9*
0 Add four rect primitives between the rounded corners*
20,1,$1+$1,$2,$3,$4,$5,0*
20,1,$1+$1,$4,$5,$6,$7,0*
20,1,$1+$1,$6,$7,$8,$9,0*
20,1,$1+$1,$8,$9,$2,$3,0*%
G04 Aperture macros list end*
%ADD10C,0.900000*%
%ADD11R,1.700000X1.700000*%
%ADD12O,1.700000X1.700000*%
%ADD13R,1.550000X1.300000*%
%ADD14RoundRect,0.237500X0.300000X0.237500X-0.300000X0.237500X-0.300000X-0.237500X0.300000X-0.237500X0*%
%ADD15R,1.300000X1.550000*%
%ADD16R,2.000000X1.600000*%
%ADD17RoundRect,0.237500X0.250000X0.237500X-0.250000X0.237500X-0.250000X-0.237500X0.250000X-0.237500X0*%
%ADD18RoundRect,0.000001X-0.900000X-0.750000X0.900000X-0.750000X0.900000X0.750000X-0.900000X0.750000X0*%
%ADD19RoundRect,0.000001X-0.750000X-0.900000X0.750000X-0.900000X0.750000X0.900000X-0.750000X0.900000X0*%
%ADD20O,2.400000X0.900000*%
%ADD21O,1.700000X0.900000*%
%ADD22C,0.700000*%
%ADD23C,1.800000*%
%ADD24R,1.800000X1.800000*%
G04 APERTURE END LIST*
D10*
%TO.C,MAIN*%
X82550000Y-42370000D03*
X85550000Y-42370000D03*
%TD*%
D11*
%TO.C,GY-271*%
X109600000Y-82080000D03*
D12*
X109600000Y-79540000D03*
X109600000Y-77000000D03*
X109600000Y-74460000D03*
X109600000Y-71920000D03*
%TD*%
D13*
%TO.C,SWup1*%
X122265000Y-56850000D03*
X114315000Y-56850000D03*
X122265000Y-52350000D03*
X114315000Y-52350000D03*
%TD*%
D14*
%TO.C,C3*%
X78162500Y-75100000D03*
X76437500Y-75100000D03*
%TD*%
%TO.C,C9*%
X78162500Y-73500000D03*
X76437500Y-73500000D03*
%TD*%
%TO.C,C8*%
X78162500Y-71900000D03*
X76437500Y-71900000D03*
%TD*%
D15*
%TO.C,SWright1*%
X124400000Y-66975000D03*
X124400000Y-59025000D03*
X128900000Y-66975000D03*
X128900000Y-59025000D03*
%TD*%
D16*
%TO.C,Prog*%
X114400000Y-77750000D03*
X119800000Y-77750000D03*
%TD*%
D13*
%TO.C,SWb1*%
X134050000Y-73650000D03*
X126100000Y-73650000D03*
X134050000Y-69150000D03*
X126100000Y-69150000D03*
%TD*%
%TO.C,SWa1*%
X122225000Y-65250000D03*
X114275000Y-65250000D03*
X122225000Y-60750000D03*
X114275000Y-60750000D03*
%TD*%
D11*
%TO.C,LCD*%
X85200000Y-63350000D03*
D12*
X87740000Y-63350000D03*
X90280000Y-63350000D03*
X92820000Y-63350000D03*
X95360000Y-63350000D03*
%TD*%
D13*
%TO.C,SWdown1*%
X122225000Y-73650000D03*
X114275000Y-73650000D03*
X122225000Y-69150000D03*
X114275000Y-69150000D03*
%TD*%
D17*
%TO.C,R4*%
X76387500Y-69600000D03*
X78212500Y-69600000D03*
%TD*%
D14*
%TO.C,C4*%
X78162500Y-76700000D03*
X76437500Y-76700000D03*
%TD*%
D18*
%TO.C,GPS*%
X80850000Y-73100000D03*
X80850000Y-75000000D03*
X80850000Y-76900000D03*
X80850000Y-78800000D03*
X80850000Y-80700000D03*
D19*
X83650000Y-83500000D03*
X85550000Y-83500000D03*
X87450000Y-83500000D03*
X89350000Y-83500000D03*
X91250000Y-83500000D03*
D18*
X94050000Y-80700000D03*
X94050000Y-78800000D03*
X94050000Y-76900000D03*
X94050000Y-75000000D03*
X94050000Y-73100000D03*
D19*
X91250000Y-70300000D03*
X89350000Y-70300000D03*
X87450000Y-70300000D03*
X85550000Y-70300000D03*
X83650000Y-70300000D03*
%TD*%
D15*
%TO.C,SWleft1*%
X107600000Y-66985000D03*
X107600000Y-59035000D03*
X112100000Y-66985000D03*
X112100000Y-59035000D03*
%TD*%
D16*
%TO.C,En*%
X119800000Y-81850000D03*
X114400000Y-81850000D03*
%TD*%
D11*
%TO.C,Oled*%
X94050000Y-66350000D03*
D12*
X91510000Y-66350000D03*
X88970000Y-66350000D03*
X86430000Y-66350000D03*
%TD*%
D10*
%TO.C,ESP*%
X91450000Y-42370000D03*
X94450000Y-42370000D03*
%TD*%
D11*
%TO.C,Serial*%
X68250000Y-55800000D03*
D12*
X68250000Y-53260000D03*
X68250000Y-50720000D03*
%TD*%
D20*
%TO.C,J1*%
X68345000Y-67325000D03*
D21*
X64965000Y-67325000D03*
D20*
X68345000Y-58675000D03*
D21*
X64965000Y-58675000D03*
D22*
X67975000Y-60025000D03*
X67975000Y-60875000D03*
X67975000Y-61725000D03*
X67975000Y-62575000D03*
X67975000Y-63425000D03*
X67975000Y-64275000D03*
X67975000Y-65125000D03*
X67975000Y-65975000D03*
X69325000Y-65975000D03*
X69325000Y-65125000D03*
X69325000Y-64275000D03*
X69325000Y-63425000D03*
X69325000Y-62575000D03*
X69325000Y-61725000D03*
X69325000Y-60875000D03*
X69325000Y-60025000D03*
%TD*%
D23*
%TO.C,LED*%
X72600000Y-50685000D03*
D24*
X72600000Y-53225000D03*
%TD*%
M02*
