%TF.GenerationSoftware,KiCad,Pcbnew,7.0.2-1.fc38*%
%TF.CreationDate,2023-06-09T15:19:36+02:00*%
%TF.ProjectId,gps_compass,6770735f-636f-46d7-9061-73732e6b6963,rev?*%
%TF.SameCoordinates,Original*%
%TF.FileFunction,Copper,L1,Top*%
%TF.FilePolarity,Positive*%
%FSLAX46Y46*%
G04 Gerber Fmt 4.6, Leading zero omitted, Abs format (unit mm)*
G04 Created by KiCad (PCBNEW 7.0.2-1.fc38) date 2023-06-09 15:19:36*
%MOMM*%
%LPD*%
G01*
G04 APERTURE LIST*
G04 Aperture macros list*
%AMRoundRect*
0 Rectangle with rounded corners*
0 $1 Rounding radius*
0 $2 $3 $4 $5 $6 $7 $8 $9 X,Y pos of 4 corners*
0 Add a 4 corners polygon primitive as box body*
4,1,4,$2,$3,$4,$5,$6,$7,$8,$9,$2,$3,0*
0 Add four circle primitives for the rounded corners*
1,1,$1+$1,$2,$3*
1,1,$1+$1,$4,$5*
1,1,$1+$1,$6,$7*
1,1,$1+$1,$8,$9*
0 Add four rect primitives between the rounded corners*
20,1,$1+$1,$2,$3,$4,$5,0*
20,1,$1+$1,$4,$5,$6,$7,0*
20,1,$1+$1,$6,$7,$8,$9,0*
20,1,$1+$1,$8,$9,$2,$3,0*%
G04 Aperture macros list end*
%TA.AperFunction,ComponentPad*%
%ADD10R,1.700000X1.700000*%
%TD*%
%TA.AperFunction,ComponentPad*%
%ADD11O,1.700000X1.700000*%
%TD*%
%TA.AperFunction,SMDPad,CuDef*%
%ADD12R,1.550000X1.300000*%
%TD*%
%TA.AperFunction,SMDPad,CuDef*%
%ADD13RoundRect,0.237500X0.300000X0.237500X-0.300000X0.237500X-0.300000X-0.237500X0.300000X-0.237500X0*%
%TD*%
%TA.AperFunction,SMDPad,CuDef*%
%ADD14R,1.300000X1.550000*%
%TD*%
%TA.AperFunction,SMDPad,CuDef*%
%ADD15R,2.000000X1.600000*%
%TD*%
%TA.AperFunction,SMDPad,CuDef*%
%ADD16RoundRect,0.237500X0.250000X0.237500X-0.250000X0.237500X-0.250000X-0.237500X0.250000X-0.237500X0*%
%TD*%
%TA.AperFunction,SMDPad,CuDef*%
%ADD17R,1.800000X1.500000*%
%TD*%
%TA.AperFunction,SMDPad,CuDef*%
%ADD18R,1.500000X1.800000*%
%TD*%
%TA.AperFunction,ComponentPad*%
%ADD19O,2.400000X0.900000*%
%TD*%
%TA.AperFunction,ComponentPad*%
%ADD20O,1.700000X0.900000*%
%TD*%
%TA.AperFunction,ComponentPad*%
%ADD21C,0.700000*%
%TD*%
%TA.AperFunction,ComponentPad*%
%ADD22C,1.800000*%
%TD*%
%TA.AperFunction,ComponentPad*%
%ADD23R,1.800000X1.800000*%
%TD*%
%TA.AperFunction,ViaPad*%
%ADD24C,0.800000*%
%TD*%
%TA.AperFunction,Conductor*%
%ADD25C,0.250000*%
%TD*%
G04 APERTURE END LIST*
D10*
%TO.P,GY-271,1,Pin_1*%
%TO.N,VCC*%
X109600000Y-82080000D03*
D11*
%TO.P,GY-271,2,Pin_2*%
%TO.N,GND*%
X109600000Y-79540000D03*
%TO.P,GY-271,3,Pin_3*%
%TO.N,SCL*%
X109600000Y-77000000D03*
%TO.P,GY-271,4,Pin_4*%
%TO.N,SDA*%
X109600000Y-74460000D03*
%TO.P,GY-271,5,Pin_5*%
%TO.N,unconnected-(GY-271-Pin_5-Pad5)*%
X109600000Y-71920000D03*
%TD*%
D12*
%TO.P,SWup1,1,A*%
%TO.N,N/C*%
X122265000Y-56850000D03*
%TO.N,B1*%
X114315000Y-56850000D03*
%TO.P,SWup1,2,B*%
%TO.N,GND*%
X122265000Y-52350000D03*
X114315000Y-52350000D03*
%TD*%
D13*
%TO.P,C3,1*%
%TO.N,+3V3*%
X78162500Y-75100000D03*
%TO.P,C3,2*%
%TO.N,GND*%
X76437500Y-75100000D03*
%TD*%
%TO.P,C9,1*%
%TO.N,+3V3*%
X78162500Y-73500000D03*
%TO.P,C9,2*%
%TO.N,GND*%
X76437500Y-73500000D03*
%TD*%
%TO.P,C8,1*%
%TO.N,+3V3*%
X78162500Y-71900000D03*
%TO.P,C8,2*%
%TO.N,GND*%
X76437500Y-71900000D03*
%TD*%
D14*
%TO.P,SWright1,1,A*%
%TO.N,N/C*%
X124400000Y-66975000D03*
%TO.N,B4*%
X124400000Y-59025000D03*
%TO.P,SWright1,2,B*%
%TO.N,GND*%
X128900000Y-66975000D03*
X128900000Y-59025000D03*
%TD*%
D15*
%TO.P,Prog,1,A*%
%TO.N,Net-(ESP32-S1-IO0)*%
X114400000Y-77750000D03*
%TO.P,Prog,2,B*%
%TO.N,GND*%
X119800000Y-77750000D03*
%TD*%
D12*
%TO.P,SWb1,1,A*%
%TO.N,N/C*%
X134050000Y-73650000D03*
%TO.N,B6*%
X126100000Y-73650000D03*
%TO.P,SWb1,2,B*%
%TO.N,GND*%
X134050000Y-69150000D03*
X126100000Y-69150000D03*
%TD*%
%TO.P,SWa1,1,A*%
%TO.N,B5*%
X122225000Y-65250000D03*
%TO.N,N/C*%
X114275000Y-65250000D03*
%TO.P,SWa1,2,B*%
%TO.N,GND*%
X122225000Y-60750000D03*
X114275000Y-60750000D03*
%TD*%
D10*
%TO.P,LCD,1,Pin_1*%
%TO.N,GND*%
X85200000Y-63350000D03*
D11*
%TO.P,LCD,2,Pin_2*%
%TO.N,VCC*%
X87740000Y-63350000D03*
%TO.P,LCD,3,Pin_3*%
%TO.N,lcd_data*%
X90280000Y-63350000D03*
%TO.P,LCD,4,Pin_4*%
%TO.N,lcd_wr*%
X92820000Y-63350000D03*
%TO.P,LCD,5,Pin_5*%
%TO.N,lcd_cs*%
X95360000Y-63350000D03*
%TD*%
D12*
%TO.P,SWdown1,1,A*%
%TO.N,N/C*%
X122225000Y-73650000D03*
%TO.N,B2*%
X114275000Y-73650000D03*
%TO.P,SWdown1,2,B*%
%TO.N,GND*%
X122225000Y-69150000D03*
X114275000Y-69150000D03*
%TD*%
D16*
%TO.P,R4,2*%
%TO.N,+3V3*%
X76387500Y-69600000D03*
%TO.P,R4,1*%
%TO.N,Net-(GPS1-~{RESET})*%
X78212500Y-69600000D03*
%TD*%
D13*
%TO.P,C4,1*%
%TO.N,+3V3*%
X78162500Y-76700000D03*
%TO.P,C4,2*%
%TO.N,GND*%
X76437500Y-76700000D03*
%TD*%
D17*
%TO.P,GPS,1,GND*%
%TO.N,GND*%
X80850000Y-73100000D03*
%TO.P,GPS,2,VCC_IO*%
%TO.N,+3V3*%
X80850000Y-75000000D03*
%TO.P,GPS,3,V_BCKP*%
X80850000Y-76900000D03*
%TO.P,GPS,4,GND*%
%TO.N,GND*%
X80850000Y-78800000D03*
%TO.P,GPS,5,GND*%
X80850000Y-80700000D03*
D18*
%TO.P,GPS,6,GND*%
X83650000Y-83500000D03*
%TO.P,GPS,7,TIMEPULSE*%
%TO.N,unconnected-(GPS1-TIMEPULSE-Pad7)*%
X85550000Y-83500000D03*
%TO.P,GPS,8,~{SAFEBOOT}*%
%TO.N,unconnected-(GPS1-~{SAFEBOOT}-Pad8)*%
X87450000Y-83500000D03*
%TO.P,GPS,9,SDA*%
%TO.N,SDA*%
X89350000Y-83500000D03*
%TO.P,GPS,10,GND*%
%TO.N,GND*%
X91250000Y-83500000D03*
D17*
%TO.P,GPS,11,GND*%
X94050000Y-80700000D03*
%TO.P,GPS,12,SCL*%
%TO.N,SCL*%
X94050000Y-78800000D03*
%TO.P,GPS,13,TXD*%
%TO.N,Net-(GPS1-TXD)*%
X94050000Y-76900000D03*
%TO.P,GPS,14,RXD*%
%TO.N,Net-(GPS1-RXD)*%
X94050000Y-75000000D03*
%TO.P,GPS,15,GND*%
%TO.N,GND*%
X94050000Y-73100000D03*
D18*
%TO.P,GPS,16,GND*%
X91250000Y-70300000D03*
%TO.P,GPS,17,VCC*%
%TO.N,+3V3*%
X89350000Y-70300000D03*
%TO.P,GPS,18,~{RESET}*%
%TO.N,Net-(GPS1-~{RESET})*%
X87450000Y-70300000D03*
%TO.P,GPS,19,EXTINT*%
%TO.N,unconnected-(GPS1-EXTINT-Pad19)*%
X85550000Y-70300000D03*
%TO.P,GPS,20,GND*%
%TO.N,GND*%
X83650000Y-70300000D03*
%TD*%
D14*
%TO.P,SWleft1,1,A*%
%TO.N,B3*%
X107600000Y-66985000D03*
%TO.N,N/C*%
X107600000Y-59035000D03*
%TO.P,SWleft1,2,B*%
%TO.N,GND*%
X112100000Y-66985000D03*
X112100000Y-59035000D03*
%TD*%
D15*
%TO.P,En,1,A*%
%TO.N,GND*%
X119800000Y-81850000D03*
%TO.P,En,2,B*%
%TO.N,Net-(ESP32-S1-EN)*%
X114400000Y-81850000D03*
%TD*%
D10*
%TO.P,Oled,1,Pin_1*%
%TO.N,GND*%
X94050000Y-66350000D03*
D11*
%TO.P,Oled,2,Pin_2*%
%TO.N,VCC*%
X91510000Y-66350000D03*
%TO.P,Oled,3,Pin_3*%
%TO.N,SCL*%
X88970000Y-66350000D03*
%TO.P,Oled,4,Pin_4*%
%TO.N,SDA*%
X86430000Y-66350000D03*
%TD*%
D10*
%TO.P,Serial,1,Pin_1*%
%TO.N,GND*%
X68250000Y-55800000D03*
D11*
%TO.P,Serial,2,Pin_2*%
%TO.N,Net-(Serial1-Pin_2)*%
X68250000Y-53260000D03*
%TO.P,Serial,3,Pin_3*%
%TO.N,Net-(Serial1-Pin_3)*%
X68250000Y-50720000D03*
%TD*%
D19*
%TO.P,J1,S1,SHIELD*%
%TO.N,GND*%
X68345000Y-67325000D03*
D20*
X64965000Y-67325000D03*
D19*
X68345000Y-58675000D03*
D20*
X64965000Y-58675000D03*
D21*
%TO.P,J1,B12,GND*%
X67975000Y-60025000D03*
%TO.P,J1,B9,VBUS*%
%TO.N,Net-(D1-A)*%
X67975000Y-60875000D03*
%TO.P,J1,B8*%
%TO.N,N/C*%
X67975000Y-61725000D03*
%TO.P,J1,B7*%
X67975000Y-62575000D03*
%TO.P,J1,B6*%
X67975000Y-63425000D03*
%TO.P,J1,B5,CC2*%
%TO.N,Net-(J1-CC2)*%
X67975000Y-64275000D03*
%TO.P,J1,B4*%
%TO.N,N/C*%
X67975000Y-65125000D03*
%TO.P,J1,B1*%
X67975000Y-65975000D03*
%TO.P,J1,A12,GND*%
%TO.N,GND*%
X69325000Y-65975000D03*
%TO.P,J1,A9,VBUS*%
%TO.N,Net-(D1-A)*%
X69325000Y-65125000D03*
%TO.P,J1,A8*%
%TO.N,N/C*%
X69325000Y-64275000D03*
%TO.P,J1,A7*%
X69325000Y-63425000D03*
%TO.P,J1,A6*%
X69325000Y-62575000D03*
%TO.P,J1,A5,CC1*%
%TO.N,Net-(J1-CC1)*%
X69325000Y-61725000D03*
%TO.P,J1,A4*%
%TO.N,N/C*%
X69325000Y-60875000D03*
%TO.P,J1,A1*%
X69325000Y-60025000D03*
%TD*%
D22*
%TO.P,LED,2,A*%
%TO.N,Net-(ESP32-S1-IO32)*%
X72600000Y-50685000D03*
D23*
%TO.P,LED,1,K*%
%TO.N,Net-(LED1-K)*%
X72600000Y-53225000D03*
%TD*%
D24*
%TO.N,GND*%
X109800000Y-59900000D03*
X117000000Y-77300000D03*
X131600000Y-60700000D03*
X125800000Y-61400000D03*
%TO.N,MISO*%
X126200000Y-59600000D03*
X100800000Y-57100000D03*
%TO.N,GND*%
X101100000Y-47000000D03*
%TO.N,VCC*%
X87612299Y-53812299D03*
%TO.N,GND*%
X81500000Y-55100000D03*
X71700000Y-71300000D03*
X94100000Y-69800000D03*
X101600000Y-73700000D03*
%TO.N,SCL*%
X96300000Y-49800000D03*
%TO.N,SDA*%
X89350000Y-76800000D03*
%TO.N,GND*%
X117000000Y-81800000D03*
X129600000Y-70300000D03*
X119500000Y-64400000D03*
X91100000Y-80200000D03*
%TO.N,+3V3*%
X78315000Y-56700000D03*
%TO.N,GND*%
X85100000Y-73000000D03*
X118270000Y-54200000D03*
X75400000Y-65500000D03*
X117600000Y-71400000D03*
X95300000Y-57600000D03*
X82200000Y-50400000D03*
%TO.N,Net-(ESP32-S1-EN)*%
X119850000Y-52850000D03*
%TO.N,Net-(ESP32-S1-IO32)*%
X102000000Y-49450000D03*
%TO.N,battery_level*%
X85800000Y-47900000D03*
X109400000Y-51800000D03*
%TO.N,B4*%
X117900000Y-58500000D03*
%TO.N,B5*%
X118100000Y-61000000D03*
%TO.N,B6*%
X117950000Y-63100000D03*
%TO.N,lcd_data*%
X112300000Y-61700000D03*
%TO.N,lcd_cs*%
X114500000Y-63550000D03*
%TO.N,lcd_wr*%
X111050000Y-62550000D03*
%TO.N,B3*%
X103550000Y-66350000D03*
%TO.N,B1*%
X103350000Y-57250000D03*
%TO.N,Net-(ESP32-S1-IO0)*%
X112100000Y-75500000D03*
%TO.N,B2*%
X99950000Y-64950000D03*
%TO.N,CS*%
X129250000Y-71550000D03*
X100700000Y-62100000D03*
%TO.N,CLK*%
X96750000Y-56350000D03*
X127100000Y-61800000D03*
%TO.N,SDA*%
X86700000Y-57900000D03*
%TO.N,MOSI*%
X101100000Y-53100000D03*
X127975000Y-63975000D03*
%TO.N,Net-(GPS1-TXD)*%
X98200000Y-73767304D03*
%TO.N,Net-(GPS1-RXD)*%
X96200000Y-73800000D03*
%TO.N,Net-(Serial1-Pin_3)*%
X91100000Y-50750000D03*
%TO.N,Net-(Serial1-Pin_2)*%
X91100000Y-52450000D03*
%TD*%
D25*
%TO.N,Net-(ESP32-S1-EN)*%
X120400000Y-53400000D02*
X125350000Y-53400000D01*
X119850000Y-52850000D02*
X120400000Y-53400000D01*
X130600000Y-73600000D02*
X123900000Y-80300000D01*
X125350000Y-53400000D02*
X130600000Y-58650000D01*
X130600000Y-58650000D02*
X130600000Y-73600000D01*
X123900000Y-80300000D02*
X115950000Y-80300000D01*
X115950000Y-80300000D02*
X114400000Y-81850000D01*
%TO.N,Net-(ESP32-S1-IO0)*%
X112100000Y-75500000D02*
X112312036Y-75500000D01*
X112312036Y-75500000D02*
X114606018Y-77793982D01*
%TO.N,MISO*%
X100800000Y-57100000D02*
X101675000Y-57975000D01*
X101675000Y-57975000D02*
X106625000Y-57975000D01*
X106625000Y-57975000D02*
X106665000Y-57935000D01*
X125400000Y-60400000D02*
X126200000Y-59600000D01*
X106665000Y-57935000D02*
X116235000Y-57935000D01*
X116235000Y-57935000D02*
X117800000Y-59500000D01*
X117800000Y-59500000D02*
X122900000Y-59500000D01*
X122900000Y-59500000D02*
X123800000Y-60400000D01*
X123800000Y-60400000D02*
X125400000Y-60400000D01*
%TO.N,CLK*%
X127100000Y-61800000D02*
X127100000Y-58300000D01*
X127100000Y-58300000D02*
X124675000Y-55875000D01*
X124675000Y-55875000D02*
X97225000Y-55875000D01*
X97225000Y-55875000D02*
X96750000Y-56350000D01*
%TO.N,MOSI*%
X127975000Y-63975000D02*
X127925000Y-63925000D01*
X127925000Y-58225000D02*
X124900000Y-55200000D01*
X124900000Y-55200000D02*
X103200000Y-55200000D01*
X127925000Y-63925000D02*
X127925000Y-58225000D01*
X103200000Y-55200000D02*
X101100000Y-53100000D01*
%TO.N,B1*%
X103350000Y-57250000D02*
X103750000Y-56850000D01*
X103750000Y-56850000D02*
X114315000Y-56850000D01*
%TO.N,battery_level*%
X105500000Y-47900000D02*
X85800000Y-47900000D01*
X109400000Y-51800000D02*
X105500000Y-47900000D01*
%TO.N,B4*%
X118000000Y-58400000D02*
X123775000Y-58400000D01*
X123775000Y-58400000D02*
X124400000Y-59025000D01*
%TO.N,B5*%
X118100000Y-61000000D02*
X119200000Y-61000000D01*
X119200000Y-61000000D02*
X122225000Y-64025000D01*
X122225000Y-64025000D02*
X122225000Y-65250000D01*
%TO.N,B6*%
X117950000Y-63100000D02*
X117950000Y-66950000D01*
X117950000Y-66950000D02*
X124650000Y-73650000D01*
X124650000Y-73650000D02*
X126100000Y-73650000D01*
%TO.N,lcd_cs*%
X114500000Y-63550000D02*
X114250000Y-63300000D01*
X114250000Y-63300000D02*
X108517208Y-63300000D01*
X108517208Y-63300000D02*
X105117208Y-59900000D01*
X105117208Y-59900000D02*
X98810000Y-59900000D01*
X98810000Y-59900000D02*
X95360000Y-63350000D01*
%TO.N,lcd_data*%
X112300000Y-61700000D02*
X108190000Y-61700000D01*
X105390000Y-58900000D02*
X94730000Y-58900000D01*
X108190000Y-61700000D02*
X105390000Y-58900000D01*
X94730000Y-58900000D02*
X90280000Y-63350000D01*
%TO.N,lcd_wr*%
X111000000Y-62500000D02*
X108353604Y-62500000D01*
X108353604Y-62500000D02*
X105253604Y-59400000D01*
X105253604Y-59400000D02*
X96770000Y-59400000D01*
X96770000Y-59400000D02*
X92820000Y-63350000D01*
%TO.N,CS*%
X100700000Y-62100000D02*
X100700000Y-62700000D01*
X100700000Y-62700000D02*
X103400000Y-65400000D01*
X103400000Y-65400000D02*
X108000000Y-65400000D01*
X117225000Y-74625000D02*
X128175000Y-74625000D01*
X108000000Y-65400000D02*
X117225000Y-74625000D01*
X128175000Y-74625000D02*
X129250000Y-73550000D01*
X129250000Y-73550000D02*
X129250000Y-71550000D01*
%TO.N,SCL*%
X99400000Y-68800000D02*
X107600000Y-77000000D01*
X92200000Y-68800000D02*
X99400000Y-68800000D01*
X89750000Y-66350000D02*
X92200000Y-68800000D01*
X107600000Y-77000000D02*
X109600000Y-77000000D01*
X88970000Y-66350000D02*
X89750000Y-66350000D01*
%TO.N,SDA*%
X86700000Y-57900000D02*
X86500000Y-58100000D01*
X86500000Y-58100000D02*
X86500000Y-66280000D01*
X86500000Y-66280000D02*
X86430000Y-66350000D01*
%TO.N,B2*%
X99950000Y-64950000D02*
X103350000Y-68350000D01*
X103350000Y-68350000D02*
X109536396Y-68350000D01*
X109536396Y-68350000D02*
X114275000Y-73088604D01*
X114275000Y-73088604D02*
X114275000Y-73650000D01*
%TO.N,Net-(ESP32-S1-IO32)*%
X72600000Y-50685000D02*
X74485000Y-48800000D01*
X74485000Y-48800000D02*
X101300000Y-48800000D01*
X101300000Y-48800000D02*
X101950000Y-49450000D01*
%TO.N,SCL*%
X94100000Y-57400000D02*
X88970000Y-62530000D01*
X96300000Y-49800000D02*
X94100000Y-52000000D01*
X94100000Y-52000000D02*
X94100000Y-57400000D01*
X88970000Y-62530000D02*
X88970000Y-66350000D01*
%TO.N,VCC*%
X87600000Y-53824598D02*
X87600000Y-63210000D01*
X87600000Y-63210000D02*
X87740000Y-63350000D01*
%TO.N,Net-(Serial1-Pin_3)*%
X73107412Y-51910000D02*
X69440000Y-51910000D01*
X73117412Y-51900000D02*
X73107412Y-51910000D01*
X84300000Y-51900000D02*
X73117412Y-51900000D01*
X91100000Y-50750000D02*
X85450000Y-50750000D01*
X69440000Y-51910000D02*
X68250000Y-50720000D01*
X85450000Y-50750000D02*
X84300000Y-51900000D01*
%TO.N,Net-(Serial1-Pin_2)*%
X91100000Y-52450000D02*
X85950000Y-52450000D01*
X85950000Y-52450000D02*
X85300000Y-53100000D01*
X85300000Y-53100000D02*
X75600000Y-53100000D01*
X75600000Y-53100000D02*
X74100000Y-54600000D01*
X74100000Y-54600000D02*
X69590000Y-54600000D01*
X69590000Y-54600000D02*
X68250000Y-53260000D01*
%TO.N,+3V3*%
X78315000Y-56700000D02*
X76325000Y-58690000D01*
X76325000Y-58690000D02*
X76325000Y-69537500D01*
%TO.N,SCL*%
X94050000Y-78800000D02*
X104200000Y-78800000D01*
X104200000Y-78800000D02*
X106000000Y-77000000D01*
X106000000Y-77000000D02*
X109600000Y-77000000D01*
%TO.N,SDA*%
X89350000Y-76800000D02*
X89350000Y-83500000D01*
%TO.N,Net-(GPS1-TXD)*%
X98200000Y-73767304D02*
X95067304Y-76900000D01*
X95067304Y-76900000D02*
X94050000Y-76900000D01*
%TO.N,+3V3*%
X89350000Y-70300000D02*
X89350000Y-69150000D01*
X89350000Y-69150000D02*
X88600000Y-68400000D01*
X88600000Y-68400000D02*
X77587500Y-68400000D01*
X77587500Y-68400000D02*
X76387500Y-69600000D01*
X78162500Y-76700000D02*
X78362500Y-76900000D01*
X78362500Y-76900000D02*
X80850000Y-76900000D01*
%TO.N,Net-(GPS1-~{RESET})*%
X78712500Y-68900000D02*
X87200000Y-68900000D01*
X78012500Y-69600000D02*
X78712500Y-68900000D01*
X87200000Y-68900000D02*
X87450000Y-69150000D01*
X87450000Y-69150000D02*
X87450000Y-70300000D01*
%TO.N,+3V3*%
X76387500Y-69600000D02*
X76387500Y-70125000D01*
X76387500Y-70125000D02*
X78162500Y-71900000D01*
X78262500Y-75000000D02*
X80850000Y-75000000D01*
X78162500Y-75100000D02*
X78162500Y-76700000D01*
X78162500Y-73500000D02*
X78162500Y-75100000D01*
X78162500Y-71900000D02*
X78162500Y-73500000D01*
%TO.N,Net-(GPS1-RXD)*%
X96200000Y-73800000D02*
X95000000Y-75000000D01*
X95000000Y-75000000D02*
X94050000Y-75000000D01*
%TO.N,B3*%
X104185000Y-66985000D02*
X103550000Y-66350000D01*
X107600000Y-66985000D02*
X104185000Y-66985000D01*
%TD*%
%TA.AperFunction,Conductor*%
%TO.N,GND*%
G36*
X90449192Y-40020185D02*
G01*
X90494947Y-40072989D01*
X90503771Y-40100314D01*
X90508941Y-40126311D01*
X90507519Y-40142185D01*
X90515255Y-40164293D01*
X90519830Y-40181052D01*
X90530262Y-40233495D01*
X90556229Y-40296184D01*
X90558087Y-40313465D01*
X90568075Y-40329361D01*
X90577640Y-40347876D01*
X90590606Y-40379179D01*
X90634037Y-40444178D01*
X90637058Y-40448699D01*
X90642809Y-40467067D01*
X90653828Y-40478086D01*
X90669249Y-40496876D01*
X90678562Y-40510814D01*
X90695189Y-40531663D01*
X90697062Y-40534644D01*
X90720298Y-40552376D01*
X90747622Y-40579700D01*
X90757675Y-40598111D01*
X90768335Y-40604809D01*
X90789183Y-40621435D01*
X90789707Y-40621785D01*
X90789711Y-40621789D01*
X90803128Y-40630754D01*
X90821913Y-40646171D01*
X90826981Y-40651239D01*
X90851297Y-40662939D01*
X90920821Y-40709394D01*
X90952127Y-40722361D01*
X90970637Y-40731924D01*
X90980018Y-40737818D01*
X91003810Y-40743769D01*
X91051882Y-40763680D01*
X91066505Y-40769738D01*
X91118951Y-40780170D01*
X91135713Y-40784745D01*
X91151054Y-40790113D01*
X91173689Y-40791057D01*
X91221158Y-40800500D01*
X91221159Y-40800500D01*
X91297477Y-40800500D01*
X91311361Y-40801280D01*
X91346677Y-40805259D01*
X91375876Y-40800500D01*
X93376000Y-40800500D01*
X93443039Y-40820185D01*
X93488794Y-40872989D01*
X93500000Y-40924500D01*
X93500000Y-45500000D01*
X125499801Y-45500000D01*
X125566840Y-45519685D01*
X125612595Y-45572489D01*
X125613338Y-45574147D01*
X125675827Y-45716607D01*
X125811836Y-45924785D01*
X125980256Y-46107738D01*
X126045667Y-46158650D01*
X126176485Y-46260470D01*
X126176487Y-46260471D01*
X126176491Y-46260474D01*
X126395190Y-46378828D01*
X126630386Y-46459571D01*
X126875665Y-46500500D01*
X127124335Y-46500500D01*
X127369614Y-46459571D01*
X127604810Y-46378828D01*
X127823509Y-46260474D01*
X128019744Y-46107738D01*
X128188164Y-45924785D01*
X128324173Y-45716607D01*
X128386643Y-45574188D01*
X128431599Y-45520704D01*
X128498336Y-45500014D01*
X128500199Y-45500000D01*
X131874889Y-45500000D01*
X131941928Y-45519685D01*
X131956967Y-45531053D01*
X132081248Y-45640803D01*
X132332538Y-45862715D01*
X132401472Y-45924783D01*
X132600052Y-46103586D01*
X132647356Y-46146178D01*
X132650222Y-46148842D01*
X132766567Y-46260474D01*
X133030761Y-46513968D01*
X133334716Y-46811623D01*
X133337430Y-46814365D01*
X133701468Y-47193769D01*
X133930997Y-47438193D01*
X133993834Y-47505107D01*
X133996385Y-47507908D01*
X134076743Y-47598905D01*
X134343483Y-47900958D01*
X134623502Y-48225364D01*
X134625891Y-48228218D01*
X134955690Y-48634340D01*
X135222700Y-48971222D01*
X135224927Y-48974118D01*
X135536949Y-49392566D01*
X135790338Y-49741326D01*
X135792403Y-49744257D01*
X136086307Y-50174425D01*
X136325445Y-50534358D01*
X136327349Y-50537314D01*
X136602756Y-50978507D01*
X136740773Y-51206400D01*
X136827091Y-51348927D01*
X136828836Y-51351901D01*
X137085382Y-51803405D01*
X137294490Y-52183771D01*
X137296027Y-52186661D01*
X137512300Y-52606818D01*
X137533387Y-52647784D01*
X137726658Y-53037126D01*
X137728090Y-53040111D01*
X137945920Y-53510063D01*
X138123009Y-53907814D01*
X138124289Y-53910792D01*
X138322298Y-54388829D01*
X138482778Y-54794153D01*
X138483908Y-54797119D01*
X138661859Y-55282562D01*
X138805389Y-55694727D01*
X138806373Y-55697672D01*
X138963984Y-56189659D01*
X139090252Y-56607880D01*
X139091094Y-56610797D01*
X139228162Y-57108599D01*
X139336884Y-57532043D01*
X139337587Y-57534925D01*
X139453917Y-58037747D01*
X139544883Y-58465709D01*
X139545452Y-58468551D01*
X139640857Y-58975504D01*
X139713872Y-59407191D01*
X139714312Y-59409987D01*
X139788661Y-59920288D01*
X139843559Y-60354852D01*
X139843874Y-60357595D01*
X139897060Y-60870419D01*
X139933725Y-61307049D01*
X139933921Y-61309734D01*
X139965789Y-61823036D01*
X139965918Y-61825527D01*
X139984218Y-62262151D01*
X139984301Y-62264781D01*
X139994930Y-62778918D01*
X139994956Y-62781481D01*
X139994956Y-63218517D01*
X139994930Y-63221080D01*
X139984301Y-63735217D01*
X139984218Y-63737847D01*
X139965918Y-64174471D01*
X139965789Y-64176962D01*
X139933921Y-64690260D01*
X139933724Y-64692952D01*
X139897060Y-65129580D01*
X139843874Y-65642402D01*
X139843558Y-65645146D01*
X139788661Y-66079711D01*
X139772631Y-66189734D01*
X139714342Y-66589815D01*
X139714313Y-66590011D01*
X139713872Y-66592807D01*
X139640857Y-67024495D01*
X139545452Y-67531448D01*
X139544882Y-67534290D01*
X139453917Y-67962252D01*
X139337587Y-68465073D01*
X139336883Y-68467955D01*
X139228162Y-68891400D01*
X139091094Y-69389201D01*
X139090252Y-69392118D01*
X138963984Y-69810340D01*
X138806373Y-70302326D01*
X138805389Y-70305271D01*
X138661859Y-70717437D01*
X138483909Y-71202879D01*
X138482778Y-71205845D01*
X138322298Y-71611170D01*
X138124290Y-72089205D01*
X138123010Y-72092184D01*
X137945920Y-72489936D01*
X137728090Y-72959888D01*
X137726657Y-72962873D01*
X137533387Y-73352215D01*
X137296038Y-73813317D01*
X137294450Y-73816300D01*
X137085388Y-74196584D01*
X136828835Y-74648098D01*
X136827090Y-74651071D01*
X136602759Y-75021488D01*
X136327350Y-75462684D01*
X136325445Y-75465640D01*
X136086307Y-75825573D01*
X135792403Y-76255741D01*
X135790338Y-76258672D01*
X135536949Y-76607433D01*
X135224927Y-77025880D01*
X135222700Y-77028776D01*
X134955691Y-77365659D01*
X134625892Y-77771781D01*
X134623502Y-77774635D01*
X134343483Y-78099041D01*
X133996387Y-78492088D01*
X133993834Y-78494891D01*
X133701468Y-78806230D01*
X133337430Y-79185633D01*
X133334715Y-79188375D01*
X133030761Y-79486030D01*
X132650233Y-79851146D01*
X132647356Y-79853820D01*
X132332538Y-80137284D01*
X131935900Y-80487549D01*
X131932863Y-80490145D01*
X131608189Y-80758740D01*
X131195723Y-81093692D01*
X131192525Y-81096203D01*
X130858846Y-81349479D01*
X130430978Y-81668525D01*
X130427624Y-81670940D01*
X130085941Y-81908416D01*
X129642929Y-82211095D01*
X129639419Y-82213407D01*
X129290920Y-82434571D01*
X128833048Y-82720388D01*
X128829387Y-82722586D01*
X128475192Y-82927082D01*
X128002661Y-83195574D01*
X127998852Y-83197651D01*
X127640331Y-83385081D01*
X127153256Y-83635799D01*
X127149303Y-83637745D01*
X126788126Y-83807703D01*
X126286217Y-84040346D01*
X126282123Y-84042155D01*
X125920206Y-84194292D01*
X125403103Y-84408481D01*
X125398874Y-84410143D01*
X125038580Y-84544136D01*
X124505437Y-84739572D01*
X124501077Y-84741079D01*
X124145286Y-84856682D01*
X123594793Y-85033035D01*
X123590309Y-85034379D01*
X123243065Y-85131332D01*
X122672663Y-85288390D01*
X122668061Y-85289563D01*
X122335373Y-85367595D01*
X121740763Y-85505159D01*
X121736049Y-85506154D01*
X121426655Y-85565174D01*
X120800625Y-85682987D01*
X120795807Y-85683796D01*
X120525935Y-85723648D01*
X119853904Y-85821560D01*
X119848988Y-85822177D01*
X119653526Y-85842721D01*
X118902198Y-85920642D01*
X118897196Y-85921059D01*
X118881563Y-85922043D01*
X118878830Y-85922214D01*
X117953017Y-85979693D01*
X117947896Y-85979905D01*
X117001258Y-85999474D01*
X116998695Y-85999500D01*
X83001281Y-85999500D01*
X82998734Y-85999474D01*
X82058076Y-85980151D01*
X82052988Y-85979942D01*
X81133273Y-85923203D01*
X81114727Y-85922043D01*
X81109753Y-85921632D01*
X80363013Y-85844678D01*
X80168794Y-85824390D01*
X80163911Y-85823782D01*
X79495648Y-85727040D01*
X79227734Y-85687723D01*
X79222948Y-85686925D01*
X78600629Y-85570566D01*
X78293102Y-85512269D01*
X78288421Y-85511288D01*
X77697371Y-85375439D01*
X77366538Y-85298333D01*
X77361969Y-85297176D01*
X76794732Y-85142022D01*
X76449634Y-85046287D01*
X76445182Y-85044962D01*
X75897544Y-84870702D01*
X75812815Y-84843352D01*
X75543957Y-84756565D01*
X75539630Y-84755080D01*
X75009191Y-84561966D01*
X74651005Y-84429645D01*
X74646806Y-84428006D01*
X74132207Y-84216342D01*
X73772340Y-84066096D01*
X73768276Y-84064313D01*
X73268694Y-83834407D01*
X73088060Y-83750000D01*
X82400000Y-83750000D01*
X82400000Y-84444518D01*
X82400354Y-84451132D01*
X82406400Y-84507371D01*
X82456647Y-84642089D01*
X82542811Y-84757188D01*
X82657910Y-84843352D01*
X82792628Y-84893599D01*
X82848867Y-84899645D01*
X82855482Y-84900000D01*
X83400000Y-84900000D01*
X83900000Y-84900000D01*
X84444518Y-84900000D01*
X84451132Y-84899645D01*
X84507371Y-84893599D01*
X84642089Y-84843352D01*
X84757189Y-84757188D01*
X84799859Y-84700189D01*
X84855793Y-84658318D01*
X84899126Y-84650500D01*
X86324675Y-84650500D01*
X86349029Y-84645655D01*
X86397740Y-84635966D01*
X86431111Y-84613668D01*
X86497787Y-84592791D01*
X86565167Y-84611276D01*
X86568854Y-84613645D01*
X86602260Y-84635966D01*
X86633042Y-84642089D01*
X86675325Y-84650500D01*
X86675326Y-84650500D01*
X88224675Y-84650500D01*
X88249029Y-84645655D01*
X88297740Y-84635966D01*
X88331111Y-84613668D01*
X88397787Y-84592791D01*
X88465167Y-84611276D01*
X88468854Y-84613645D01*
X88502260Y-84635966D01*
X88533042Y-84642089D01*
X88575325Y-84650500D01*
X90000874Y-84650500D01*
X90067913Y-84670185D01*
X90100141Y-84700189D01*
X90142810Y-84757188D01*
X90257910Y-84843352D01*
X90392628Y-84893599D01*
X90448867Y-84899645D01*
X90455482Y-84900000D01*
X91000000Y-84900000D01*
X91000000Y-83750000D01*
X91500000Y-83750000D01*
X91500000Y-84900000D01*
X92044518Y-84900000D01*
X92051132Y-84899645D01*
X92107371Y-84893599D01*
X92242089Y-84843352D01*
X92357188Y-84757188D01*
X92443352Y-84642089D01*
X92493599Y-84507371D01*
X92499645Y-84451132D01*
X92500000Y-84444518D01*
X92500000Y-83750000D01*
X91500000Y-83750000D01*
X91000000Y-83750000D01*
X91000000Y-82100000D01*
X91500000Y-82100000D01*
X91500000Y-83250000D01*
X92500000Y-83250000D01*
X92500000Y-82555481D01*
X92499645Y-82548867D01*
X92493599Y-82492628D01*
X92443352Y-82357910D01*
X92357188Y-82242811D01*
X92242089Y-82156647D01*
X92107371Y-82106400D01*
X92051132Y-82100354D01*
X92044518Y-82100000D01*
X91500000Y-82100000D01*
X91000000Y-82100000D01*
X90455482Y-82100000D01*
X90448867Y-82100354D01*
X90392628Y-82106400D01*
X90257910Y-82156647D01*
X90142810Y-82242811D01*
X90100141Y-82299811D01*
X90044207Y-82341682D01*
X90000874Y-82349500D01*
X89849500Y-82349500D01*
X89782461Y-82329815D01*
X89736706Y-82277011D01*
X89725500Y-82225500D01*
X89725500Y-80950000D01*
X92650000Y-80950000D01*
X92650000Y-81494518D01*
X92650354Y-81501132D01*
X92656400Y-81557371D01*
X92706647Y-81692089D01*
X92792811Y-81807188D01*
X92907910Y-81893352D01*
X93042628Y-81943599D01*
X93098867Y-81949645D01*
X93105482Y-81950000D01*
X93800000Y-81950000D01*
X93800000Y-80950000D01*
X94300000Y-80950000D01*
X94300000Y-81950000D01*
X94994518Y-81950000D01*
X95001132Y-81949645D01*
X95057371Y-81943599D01*
X95192089Y-81893352D01*
X95307188Y-81807188D01*
X95393352Y-81692089D01*
X95443599Y-81557371D01*
X95449645Y-81501132D01*
X95450000Y-81494518D01*
X95450000Y-80950000D01*
X94300000Y-80950000D01*
X93800000Y-80950000D01*
X92650000Y-80950000D01*
X89725500Y-80950000D01*
X89725500Y-77392202D01*
X89745185Y-77325163D01*
X89767269Y-77299390D01*
X89840483Y-77234530D01*
X89930220Y-77104523D01*
X89986237Y-76956818D01*
X90005278Y-76800000D01*
X89986237Y-76643182D01*
X89930220Y-76495477D01*
X89871373Y-76410222D01*
X89840484Y-76365471D01*
X89839361Y-76364476D01*
X89722240Y-76260717D01*
X89708994Y-76253764D01*
X89582364Y-76187303D01*
X89428985Y-76149500D01*
X89271015Y-76149500D01*
X89117635Y-76187303D01*
X88977761Y-76260716D01*
X88859515Y-76365471D01*
X88769780Y-76495476D01*
X88713763Y-76643181D01*
X88694721Y-76800000D01*
X88713763Y-76956818D01*
X88769780Y-77104523D01*
X88859515Y-77234528D01*
X88859516Y-77234529D01*
X88859517Y-77234530D01*
X88932727Y-77299387D01*
X88969853Y-77358574D01*
X88974500Y-77392202D01*
X88974500Y-82225500D01*
X88954815Y-82292539D01*
X88902011Y-82338294D01*
X88850500Y-82349500D01*
X88575325Y-82349500D01*
X88502259Y-82364034D01*
X88468889Y-82386331D01*
X88402211Y-82407208D01*
X88334832Y-82388722D01*
X88331111Y-82386331D01*
X88297740Y-82364034D01*
X88224675Y-82349500D01*
X88224674Y-82349500D01*
X86675326Y-82349500D01*
X86675325Y-82349500D01*
X86602259Y-82364034D01*
X86568889Y-82386331D01*
X86502211Y-82407208D01*
X86434832Y-82388722D01*
X86431111Y-82386331D01*
X86397740Y-82364034D01*
X86324675Y-82349500D01*
X86324674Y-82349500D01*
X84899126Y-82349500D01*
X84832087Y-82329815D01*
X84799859Y-82299811D01*
X84757189Y-82242811D01*
X84642089Y-82156647D01*
X84507371Y-82106400D01*
X84451132Y-82100354D01*
X84444518Y-82100000D01*
X83900000Y-82100000D01*
X83900000Y-84900000D01*
X83400000Y-84900000D01*
X83400000Y-83750000D01*
X82400000Y-83750000D01*
X73088060Y-83750000D01*
X72909518Y-83666571D01*
X72905593Y-83664652D01*
X72420568Y-83416824D01*
X72099159Y-83250000D01*
X82400000Y-83250000D01*
X83400000Y-83250000D01*
X83400000Y-82100000D01*
X82855482Y-82100000D01*
X82848867Y-82100354D01*
X82792628Y-82106400D01*
X82657910Y-82156647D01*
X82542811Y-82242811D01*
X82456647Y-82357910D01*
X82406400Y-82492628D01*
X82400354Y-82548867D01*
X82400000Y-82555481D01*
X82400000Y-83250000D01*
X72099159Y-83250000D01*
X72063875Y-83231686D01*
X72060092Y-83229638D01*
X71589500Y-82964269D01*
X71236998Y-82762255D01*
X71233364Y-82760088D01*
X70777271Y-82477604D01*
X70430190Y-82259021D01*
X70426706Y-82256744D01*
X69985280Y-81957586D01*
X69644928Y-81722907D01*
X69641596Y-81720528D01*
X69214969Y-81405078D01*
X68882471Y-81154774D01*
X68879295Y-81152301D01*
X68690093Y-81000000D01*
X71494356Y-81000000D01*
X71514891Y-81247816D01*
X71514891Y-81247819D01*
X71514892Y-81247821D01*
X71575937Y-81488881D01*
X71578410Y-81494518D01*
X71675825Y-81716604D01*
X71675827Y-81716607D01*
X71811836Y-81924785D01*
X71980256Y-82107738D01*
X71980259Y-82107740D01*
X72176485Y-82260470D01*
X72176487Y-82260471D01*
X72176491Y-82260474D01*
X72395190Y-82378828D01*
X72630386Y-82459571D01*
X72875665Y-82500500D01*
X73124335Y-82500500D01*
X73369614Y-82459571D01*
X73604810Y-82378828D01*
X73823509Y-82260474D01*
X74019744Y-82107738D01*
X74188164Y-81924785D01*
X74324173Y-81716607D01*
X74424063Y-81488881D01*
X74485108Y-81247821D01*
X74505643Y-81000000D01*
X74501500Y-80950000D01*
X79450000Y-80950000D01*
X79450000Y-81494518D01*
X79450354Y-81501132D01*
X79456400Y-81557371D01*
X79506647Y-81692089D01*
X79592811Y-81807188D01*
X79707910Y-81893352D01*
X79842628Y-81943599D01*
X79898867Y-81949645D01*
X79905482Y-81950000D01*
X80600000Y-81950000D01*
X80600000Y-80950000D01*
X81100000Y-80950000D01*
X81100000Y-81950000D01*
X81794518Y-81950000D01*
X81801132Y-81949645D01*
X81857371Y-81943599D01*
X81992089Y-81893352D01*
X82107188Y-81807188D01*
X82193352Y-81692089D01*
X82243599Y-81557371D01*
X82249645Y-81501132D01*
X82250000Y-81494518D01*
X82250000Y-80950000D01*
X81100000Y-80950000D01*
X80600000Y-80950000D01*
X79450000Y-80950000D01*
X74501500Y-80950000D01*
X74485108Y-80752179D01*
X74424063Y-80511119D01*
X74324173Y-80283393D01*
X74188164Y-80075215D01*
X74019744Y-79892262D01*
X73966918Y-79851146D01*
X73823514Y-79739529D01*
X73823510Y-79739526D01*
X73823509Y-79739526D01*
X73604810Y-79621172D01*
X73604806Y-79621170D01*
X73604805Y-79621170D01*
X73369615Y-79540429D01*
X73124335Y-79499500D01*
X72875665Y-79499500D01*
X72630384Y-79540429D01*
X72395194Y-79621170D01*
X72176485Y-79739529D01*
X71980259Y-79892259D01*
X71980256Y-79892261D01*
X71980256Y-79892262D01*
X71881462Y-79999581D01*
X71811837Y-80075214D01*
X71675825Y-80283395D01*
X71602746Y-80450000D01*
X71575937Y-80511119D01*
X71529325Y-80695185D01*
X71514891Y-80752183D01*
X71494356Y-81000000D01*
X68690093Y-81000000D01*
X68467837Y-80821091D01*
X68144181Y-80555637D01*
X68141163Y-80553080D01*
X67978880Y-80411081D01*
X67745178Y-80206588D01*
X67431283Y-79926496D01*
X67428475Y-79923910D01*
X67137857Y-79647740D01*
X67048336Y-79562669D01*
X66745014Y-79268440D01*
X66742314Y-79265739D01*
X66533200Y-79050000D01*
X79450000Y-79050000D01*
X79450000Y-79594518D01*
X79450354Y-79601132D01*
X79456400Y-79657373D01*
X79474786Y-79706667D01*
X79479770Y-79776359D01*
X79474786Y-79793333D01*
X79456400Y-79842626D01*
X79450354Y-79898867D01*
X79450000Y-79905481D01*
X79450000Y-80450000D01*
X80600000Y-80450000D01*
X80600000Y-79050000D01*
X81100000Y-79050000D01*
X81100000Y-80450000D01*
X82250000Y-80450000D01*
X82250000Y-79905481D01*
X82249646Y-79898885D01*
X82243597Y-79842620D01*
X82225214Y-79793333D01*
X82220229Y-79723642D01*
X82225214Y-79706663D01*
X82243597Y-79657376D01*
X82249646Y-79601114D01*
X82250000Y-79594518D01*
X82250000Y-79050000D01*
X81100000Y-79050000D01*
X80600000Y-79050000D01*
X79450000Y-79050000D01*
X66533200Y-79050000D01*
X66378484Y-78890382D01*
X66086527Y-78582576D01*
X66083988Y-78579817D01*
X65736817Y-78190887D01*
X65588344Y-78020696D01*
X65456958Y-77870091D01*
X65454618Y-77867327D01*
X65124472Y-77465394D01*
X64857414Y-77132240D01*
X64855196Y-77129390D01*
X64789458Y-77042299D01*
X64719790Y-76950000D01*
X75400001Y-76950000D01*
X75400001Y-76983497D01*
X75400321Y-76989779D01*
X75410318Y-77087650D01*
X75464546Y-77251301D01*
X75555056Y-77398040D01*
X75676959Y-77519943D01*
X75823698Y-77610453D01*
X75987348Y-77664681D01*
X76085222Y-77674680D01*
X76091500Y-77674999D01*
X76187500Y-77674998D01*
X76187500Y-76950000D01*
X75400001Y-76950000D01*
X64719790Y-76950000D01*
X64542524Y-76715153D01*
X64537197Y-76707910D01*
X64347532Y-76450000D01*
X75400000Y-76450000D01*
X76187500Y-76450000D01*
X76187500Y-75350000D01*
X75400001Y-75350000D01*
X75400001Y-75383497D01*
X75400321Y-75389779D01*
X75410318Y-75487650D01*
X75464546Y-75651301D01*
X75555056Y-75798040D01*
X75569335Y-75812319D01*
X75602820Y-75873642D01*
X75597836Y-75943334D01*
X75569335Y-75987681D01*
X75555056Y-76001959D01*
X75464546Y-76148698D01*
X75410318Y-76312348D01*
X75400319Y-76410222D01*
X75400000Y-76416500D01*
X75400000Y-76450000D01*
X64347532Y-76450000D01*
X64288810Y-76370148D01*
X64286780Y-76367302D01*
X64114216Y-76118019D01*
X63991960Y-75941409D01*
X63914066Y-75825688D01*
X63752267Y-75585317D01*
X63750419Y-75582485D01*
X63473749Y-75145497D01*
X63338060Y-74924590D01*
X63292244Y-74850000D01*
X75400000Y-74850000D01*
X76187500Y-74850000D01*
X76187500Y-73750000D01*
X75400001Y-73750000D01*
X75400001Y-73783497D01*
X75400321Y-73789779D01*
X75410318Y-73887650D01*
X75464546Y-74051301D01*
X75555056Y-74198040D01*
X75569335Y-74212319D01*
X75602820Y-74273642D01*
X75597836Y-74343334D01*
X75569335Y-74387681D01*
X75555056Y-74401959D01*
X75464546Y-74548698D01*
X75410318Y-74712348D01*
X75400319Y-74810222D01*
X75400000Y-74816500D01*
X75400000Y-74850000D01*
X63292244Y-74850000D01*
X63248646Y-74779021D01*
X63246904Y-74776097D01*
X63210120Y-74712348D01*
X62988792Y-74328774D01*
X62987445Y-74326361D01*
X62799465Y-73989658D01*
X62778752Y-73952558D01*
X62777166Y-73949625D01*
X62626681Y-73662167D01*
X62537979Y-73492727D01*
X62415426Y-73250000D01*
X75400000Y-73250000D01*
X76187500Y-73250000D01*
X76187500Y-72150000D01*
X75400001Y-72150000D01*
X75400001Y-72183497D01*
X75400321Y-72189779D01*
X75410318Y-72287650D01*
X75464546Y-72451301D01*
X75555056Y-72598040D01*
X75569335Y-72612319D01*
X75602820Y-72673642D01*
X75597836Y-72743334D01*
X75569335Y-72787681D01*
X75555056Y-72801959D01*
X75464546Y-72948698D01*
X75410318Y-73112348D01*
X75400319Y-73210222D01*
X75400000Y-73216500D01*
X75400000Y-73250000D01*
X62415426Y-73250000D01*
X62343406Y-73107358D01*
X62341979Y-73104436D01*
X62302341Y-73020500D01*
X62122019Y-72638655D01*
X61943395Y-72244952D01*
X61942116Y-72242033D01*
X61871541Y-72075163D01*
X61741651Y-71768045D01*
X61693913Y-71650000D01*
X75400000Y-71650000D01*
X76187500Y-71650000D01*
X76187500Y-70924999D01*
X76091504Y-70925000D01*
X76085219Y-70925321D01*
X75987349Y-70935318D01*
X75823698Y-70989546D01*
X75676959Y-71080056D01*
X75555056Y-71201959D01*
X75464546Y-71348698D01*
X75410318Y-71512348D01*
X75400319Y-71610222D01*
X75400000Y-71616500D01*
X75400000Y-71650000D01*
X61693913Y-71650000D01*
X61590055Y-71393181D01*
X61579365Y-71366746D01*
X61578245Y-71363876D01*
X61397549Y-70882416D01*
X61251935Y-70474233D01*
X61250956Y-70471375D01*
X61249820Y-70467925D01*
X61112268Y-70050000D01*
X61090334Y-69983357D01*
X61059540Y-69884174D01*
X75649500Y-69884174D01*
X75655749Y-69942299D01*
X75704788Y-70073778D01*
X75788884Y-70186116D01*
X75901222Y-70270212D01*
X76030419Y-70318400D01*
X76069346Y-70347539D01*
X76071858Y-70344812D01*
X76087080Y-70358825D01*
X76087081Y-70358826D01*
X76125608Y-70394293D01*
X76129280Y-70397817D01*
X76651182Y-70919719D01*
X76684666Y-70981040D01*
X76687500Y-71007398D01*
X76687500Y-77674999D01*
X76783497Y-77674999D01*
X76789779Y-77674678D01*
X76887650Y-77664681D01*
X77051301Y-77610453D01*
X77198040Y-77519943D01*
X77319943Y-77398040D01*
X77357204Y-77337631D01*
X77409152Y-77290907D01*
X77478114Y-77279684D01*
X77537053Y-77303461D01*
X77620140Y-77365659D01*
X77626222Y-77370212D01*
X77757701Y-77419251D01*
X77815826Y-77425500D01*
X77819136Y-77425500D01*
X78505864Y-77425500D01*
X78509174Y-77425500D01*
X78567299Y-77419251D01*
X78698778Y-77370212D01*
X78758956Y-77325163D01*
X78792259Y-77300233D01*
X78857723Y-77275816D01*
X78866569Y-77275500D01*
X79575500Y-77275500D01*
X79642539Y-77295185D01*
X79688294Y-77347989D01*
X79699500Y-77399500D01*
X79699500Y-77550874D01*
X79679815Y-77617913D01*
X79649811Y-77650141D01*
X79592811Y-77692810D01*
X79506647Y-77807910D01*
X79456400Y-77942628D01*
X79450354Y-77998867D01*
X79450000Y-78005481D01*
X79450000Y-78550000D01*
X82250000Y-78550000D01*
X82250000Y-78005481D01*
X82249645Y-77998867D01*
X82243599Y-77942628D01*
X82193352Y-77807910D01*
X82107188Y-77692810D01*
X82050189Y-77650141D01*
X82008318Y-77594207D01*
X82000500Y-77550874D01*
X82000500Y-76842628D01*
X82000500Y-76125326D01*
X81985966Y-76052260D01*
X81963668Y-76018888D01*
X81942791Y-75952213D01*
X81961276Y-75884833D01*
X81963645Y-75881145D01*
X81985966Y-75847740D01*
X82000500Y-75774674D01*
X82000500Y-74349125D01*
X82020185Y-74282086D01*
X82050190Y-74249858D01*
X82107188Y-74207190D01*
X82193352Y-74092089D01*
X82243599Y-73957371D01*
X82249645Y-73901132D01*
X82250000Y-73894518D01*
X82250000Y-73350000D01*
X79450000Y-73350000D01*
X79450000Y-73894518D01*
X79450354Y-73901132D01*
X79456400Y-73957371D01*
X79506647Y-74092089D01*
X79592811Y-74207190D01*
X79649810Y-74249858D01*
X79691682Y-74305791D01*
X79699500Y-74349125D01*
X79699500Y-74500500D01*
X79679815Y-74567539D01*
X79627011Y-74613294D01*
X79575500Y-74624500D01*
X78955993Y-74624500D01*
X78888954Y-74604815D01*
X78856726Y-74574811D01*
X78811116Y-74513884D01*
X78774962Y-74486819D01*
X78698778Y-74429788D01*
X78698776Y-74429787D01*
X78662295Y-74416180D01*
X78606363Y-74374308D01*
X78581947Y-74308843D01*
X78596800Y-74240570D01*
X78646206Y-74191166D01*
X78662287Y-74183822D01*
X78698778Y-74170212D01*
X78811116Y-74086116D01*
X78895212Y-73973778D01*
X78944251Y-73842299D01*
X78950500Y-73784174D01*
X78950500Y-73215826D01*
X78944251Y-73157701D01*
X78895212Y-73026222D01*
X78811116Y-72913884D01*
X78725778Y-72850000D01*
X79450000Y-72850000D01*
X80600000Y-72850000D01*
X80600000Y-71850000D01*
X81100000Y-71850000D01*
X81100000Y-72850000D01*
X82250000Y-72850000D01*
X92650000Y-72850000D01*
X93800000Y-72850000D01*
X93800000Y-71850000D01*
X94300000Y-71850000D01*
X94300000Y-72850000D01*
X95450000Y-72850000D01*
X95450000Y-72305481D01*
X95449645Y-72298867D01*
X95443599Y-72242628D01*
X95393352Y-72107910D01*
X95307188Y-71992811D01*
X95192089Y-71906647D01*
X95057371Y-71856400D01*
X95001132Y-71850354D01*
X94994518Y-71850000D01*
X94300000Y-71850000D01*
X93800000Y-71850000D01*
X93105482Y-71850000D01*
X93098867Y-71850354D01*
X93042628Y-71856400D01*
X92907910Y-71906647D01*
X92792811Y-71992811D01*
X92706647Y-72107910D01*
X92656400Y-72242628D01*
X92650354Y-72298867D01*
X92650000Y-72305481D01*
X92650000Y-72850000D01*
X82250000Y-72850000D01*
X82250000Y-72305481D01*
X82249645Y-72298867D01*
X82243599Y-72242628D01*
X82193352Y-72107910D01*
X82107188Y-71992811D01*
X81992089Y-71906647D01*
X81857371Y-71856400D01*
X81801132Y-71850354D01*
X81794518Y-71850000D01*
X81100000Y-71850000D01*
X80600000Y-71850000D01*
X79905482Y-71850000D01*
X79898867Y-71850354D01*
X79842628Y-71856400D01*
X79707910Y-71906647D01*
X79592811Y-71992811D01*
X79506647Y-72107910D01*
X79456400Y-72242628D01*
X79450354Y-72298867D01*
X79450000Y-72305481D01*
X79450000Y-72850000D01*
X78725778Y-72850000D01*
X78698778Y-72829788D01*
X78698776Y-72829787D01*
X78662295Y-72816180D01*
X78606363Y-72774308D01*
X78581947Y-72708843D01*
X78596800Y-72640570D01*
X78646206Y-72591166D01*
X78662287Y-72583822D01*
X78698778Y-72570212D01*
X78811116Y-72486116D01*
X78895212Y-72373778D01*
X78944251Y-72242299D01*
X78950500Y-72184174D01*
X78950500Y-71615826D01*
X78944251Y-71557701D01*
X78895212Y-71426222D01*
X78811116Y-71313884D01*
X78698778Y-71229788D01*
X78567299Y-71180749D01*
X78567298Y-71180748D01*
X78512460Y-71174853D01*
X78512454Y-71174852D01*
X78509174Y-71174500D01*
X78505864Y-71174500D01*
X78019399Y-71174500D01*
X77952360Y-71154815D01*
X77931718Y-71138181D01*
X77343538Y-70550000D01*
X82400000Y-70550000D01*
X82400000Y-71244518D01*
X82400354Y-71251132D01*
X82406400Y-71307371D01*
X82456647Y-71442089D01*
X82542811Y-71557188D01*
X82657910Y-71643352D01*
X82792628Y-71693599D01*
X82848867Y-71699645D01*
X82855482Y-71700000D01*
X83400000Y-71700000D01*
X83400000Y-70550000D01*
X82400000Y-70550000D01*
X77343538Y-70550000D01*
X77059325Y-70265787D01*
X77025840Y-70204464D01*
X77030824Y-70134772D01*
X77047736Y-70103802D01*
X77070212Y-70073778D01*
X77119251Y-69942299D01*
X77125500Y-69884174D01*
X77125500Y-69444398D01*
X77145185Y-69377360D01*
X77161819Y-69356718D01*
X77262819Y-69255718D01*
X77324142Y-69222233D01*
X77393834Y-69227217D01*
X77449767Y-69269089D01*
X77474184Y-69334553D01*
X77474500Y-69343398D01*
X77474500Y-69884174D01*
X77480749Y-69942299D01*
X77529788Y-70073778D01*
X77613884Y-70186116D01*
X77726222Y-70270212D01*
X77857701Y-70319251D01*
X77915826Y-70325500D01*
X77919136Y-70325500D01*
X78505864Y-70325500D01*
X78509174Y-70325500D01*
X78567299Y-70319251D01*
X78698778Y-70270212D01*
X78811116Y-70186116D01*
X78895212Y-70073778D01*
X78944251Y-69942299D01*
X78950500Y-69884174D01*
X78950500Y-69399499D01*
X78970185Y-69332461D01*
X79022989Y-69286706D01*
X79074500Y-69275500D01*
X82276000Y-69275500D01*
X82343039Y-69295185D01*
X82388794Y-69347989D01*
X82400000Y-69399500D01*
X82400000Y-70050000D01*
X83776000Y-70050000D01*
X83843039Y-70069685D01*
X83888794Y-70122489D01*
X83900000Y-70174000D01*
X83900000Y-71700000D01*
X84444518Y-71700000D01*
X84451132Y-71699645D01*
X84507371Y-71693599D01*
X84642089Y-71643352D01*
X84757189Y-71557188D01*
X84799859Y-71500189D01*
X84855793Y-71458318D01*
X84899126Y-71450500D01*
X86324675Y-71450500D01*
X86349029Y-71445655D01*
X86397740Y-71435966D01*
X86431111Y-71413668D01*
X86497787Y-71392791D01*
X86565167Y-71411276D01*
X86568854Y-71413645D01*
X86602260Y-71435966D01*
X86633042Y-71442089D01*
X86675325Y-71450500D01*
X86675326Y-71450500D01*
X88224675Y-71450500D01*
X88249029Y-71445655D01*
X88297740Y-71435966D01*
X88331111Y-71413668D01*
X88397787Y-71392791D01*
X88465167Y-71411276D01*
X88468854Y-71413645D01*
X88502260Y-71435966D01*
X88533042Y-71442089D01*
X88575325Y-71450500D01*
X90000874Y-71450500D01*
X90067913Y-71470185D01*
X90100141Y-71500189D01*
X90142810Y-71557188D01*
X90257910Y-71643352D01*
X90392628Y-71693599D01*
X90448867Y-71699645D01*
X90455482Y-71700000D01*
X91000000Y-71700000D01*
X91000000Y-70550000D01*
X91500000Y-70550000D01*
X91500000Y-71700000D01*
X92044518Y-71700000D01*
X92051132Y-71699645D01*
X92107371Y-71693599D01*
X92242089Y-71643352D01*
X92357188Y-71557188D01*
X92443352Y-71442089D01*
X92493599Y-71307371D01*
X92499645Y-71251132D01*
X92500000Y-71244518D01*
X92500000Y-70550000D01*
X91500000Y-70550000D01*
X91000000Y-70550000D01*
X91000000Y-68900000D01*
X90455482Y-68900000D01*
X90448867Y-68900354D01*
X90392628Y-68906400D01*
X90257910Y-68956647D01*
X90142810Y-69042811D01*
X90100141Y-69099811D01*
X90044207Y-69141682D01*
X90000874Y-69149500D01*
X89837847Y-69149500D01*
X89770808Y-69129815D01*
X89725053Y-69077011D01*
X89714799Y-69040834D01*
X89713891Y-69033550D01*
X89713821Y-69033332D01*
X89710065Y-69026392D01*
X89710065Y-69026390D01*
X89685148Y-68980348D01*
X89682828Y-68975840D01*
X89659826Y-68928789D01*
X89659825Y-68928788D01*
X89656360Y-68921700D01*
X89656225Y-68921519D01*
X89645647Y-68911781D01*
X89611892Y-68880707D01*
X89608219Y-68877182D01*
X88902149Y-68171111D01*
X88886022Y-68151253D01*
X88880083Y-68142162D01*
X88855110Y-68122725D01*
X88843593Y-68112554D01*
X88843519Y-68112480D01*
X88826594Y-68100397D01*
X88822480Y-68097330D01*
X88781189Y-68065191D01*
X88781186Y-68065190D01*
X88774963Y-68060346D01*
X88774761Y-68060242D01*
X88767200Y-68057990D01*
X88767199Y-68057990D01*
X88717036Y-68043055D01*
X88712174Y-68041497D01*
X88693640Y-68035135D01*
X88655202Y-68021939D01*
X88654969Y-68021906D01*
X88615265Y-68023548D01*
X88594806Y-68024394D01*
X88589684Y-68024500D01*
X77639304Y-68024500D01*
X77613858Y-68021861D01*
X77603232Y-68019633D01*
X77571825Y-68023548D01*
X77556488Y-68024500D01*
X77556385Y-68024500D01*
X77543787Y-68026601D01*
X77535865Y-68027923D01*
X77530803Y-68028661D01*
X77471060Y-68036108D01*
X77470812Y-68036188D01*
X77417874Y-68064837D01*
X77413318Y-68067182D01*
X77359217Y-68093630D01*
X77359005Y-68093788D01*
X77318219Y-68138093D01*
X77314672Y-68141789D01*
X76912181Y-68544281D01*
X76850858Y-68577766D01*
X76781167Y-68572782D01*
X76725233Y-68530911D01*
X76700816Y-68465446D01*
X76700500Y-68456600D01*
X76700500Y-58896899D01*
X76720185Y-58829860D01*
X76736819Y-58809218D01*
X78159218Y-57386819D01*
X78220541Y-57353334D01*
X78246899Y-57350500D01*
X78393985Y-57350500D01*
X78547365Y-57312696D01*
X78687240Y-57239283D01*
X78805483Y-57134530D01*
X78895220Y-57004523D01*
X78951237Y-56856818D01*
X78970278Y-56700000D01*
X78951237Y-56543182D01*
X78895220Y-56395477D01*
X78805483Y-56265470D01*
X78687240Y-56160717D01*
X78630235Y-56130798D01*
X78547364Y-56087303D01*
X78393985Y-56049500D01*
X78236015Y-56049500D01*
X78082635Y-56087303D01*
X77942761Y-56160716D01*
X77824515Y-56265471D01*
X77734780Y-56395476D01*
X77678763Y-56543181D01*
X77659721Y-56700000D01*
X77665896Y-56750853D01*
X77654435Y-56819777D01*
X77630481Y-56853480D01*
X76096108Y-58387852D01*
X76076254Y-58403976D01*
X76067165Y-58409914D01*
X76047722Y-58434894D01*
X76037563Y-58446398D01*
X76037484Y-58446476D01*
X76037479Y-58446482D01*
X76037480Y-58446482D01*
X76025390Y-58463414D01*
X76022341Y-58467504D01*
X75985354Y-58515024D01*
X75985237Y-58515253D01*
X75968057Y-58572955D01*
X75966495Y-58577831D01*
X75946941Y-58634792D01*
X75946906Y-58635034D01*
X75949394Y-58695191D01*
X75949500Y-58700315D01*
X75949500Y-68831577D01*
X75929815Y-68898616D01*
X75899811Y-68930844D01*
X75788884Y-69013883D01*
X75704788Y-69126222D01*
X75655749Y-69257700D01*
X75652631Y-69286706D01*
X75649500Y-69315826D01*
X75649500Y-69884174D01*
X61059540Y-69884174D01*
X61036617Y-69810340D01*
X60961694Y-69569016D01*
X60960861Y-69566218D01*
X60820481Y-69072248D01*
X60709079Y-68652465D01*
X60708432Y-68649902D01*
X60588488Y-68150722D01*
X60494616Y-67726503D01*
X60494049Y-67723786D01*
X60477985Y-67642338D01*
X60464704Y-67575000D01*
X63644529Y-67575000D01*
X63707685Y-67745530D01*
X63809890Y-67909501D01*
X63943003Y-68049535D01*
X64101585Y-68159912D01*
X64279137Y-68236106D01*
X64468395Y-68275000D01*
X64715000Y-68275000D01*
X64715000Y-67625000D01*
X65215000Y-67625000D01*
X65215000Y-68275000D01*
X65410033Y-68275000D01*
X65416298Y-68274682D01*
X65557222Y-68260351D01*
X65741569Y-68202511D01*
X65910503Y-68108746D01*
X66057104Y-67982894D01*
X66175368Y-67830109D01*
X66260458Y-67656641D01*
X66281597Y-67575000D01*
X66674529Y-67575000D01*
X66737685Y-67745530D01*
X66839890Y-67909501D01*
X66973003Y-68049535D01*
X67131585Y-68159912D01*
X67309137Y-68236106D01*
X67498395Y-68275000D01*
X68095000Y-68275000D01*
X68095000Y-67625000D01*
X68595000Y-67625000D01*
X68595000Y-68275000D01*
X69140033Y-68275000D01*
X69146298Y-68274682D01*
X69287222Y-68260351D01*
X69471569Y-68202511D01*
X69640503Y-68108746D01*
X69787104Y-67982894D01*
X69905368Y-67830109D01*
X69990458Y-67656641D01*
X70011597Y-67575000D01*
X69261111Y-67575000D01*
X69300610Y-67550543D01*
X69368201Y-67461038D01*
X69398895Y-67353160D01*
X69388546Y-67241479D01*
X69338552Y-67141078D01*
X69266069Y-67075000D01*
X70015471Y-67075000D01*
X70015471Y-67074999D01*
X69952314Y-66904470D01*
X69850111Y-66740502D01*
X69834533Y-66724114D01*
X69809592Y-66723799D01*
X69803905Y-66726905D01*
X69734213Y-66721921D01*
X69689866Y-66693420D01*
X69059127Y-66062680D01*
X69036176Y-66020649D01*
X69125000Y-66020649D01*
X69164613Y-66102905D01*
X69235992Y-66159827D01*
X69302468Y-66175000D01*
X69347532Y-66175000D01*
X69414008Y-66159827D01*
X69485387Y-66102905D01*
X69525000Y-66020649D01*
X69525000Y-65975000D01*
X69678553Y-65975000D01*
X70076651Y-66373097D01*
X70105790Y-66322629D01*
X70161004Y-66152699D01*
X70179681Y-65975000D01*
X70161004Y-65797300D01*
X70105791Y-65627371D01*
X70076651Y-65576900D01*
X69946713Y-65706838D01*
X69923931Y-65719277D01*
X69919302Y-65732156D01*
X69906839Y-65746713D01*
X69678553Y-65974999D01*
X69678553Y-65975000D01*
X69525000Y-65975000D01*
X69525000Y-65929351D01*
X69485387Y-65847095D01*
X69414008Y-65790173D01*
X69347532Y-65775000D01*
X69302468Y-65775000D01*
X69235992Y-65790173D01*
X69164613Y-65847095D01*
X69125000Y-65929351D01*
X69125000Y-66020649D01*
X69036176Y-66020649D01*
X69025642Y-66001357D01*
X69030626Y-65931665D01*
X69059127Y-65887318D01*
X69185232Y-65761213D01*
X69246555Y-65727728D01*
X69289095Y-65725955D01*
X69325000Y-65730682D01*
X69481762Y-65710044D01*
X69627841Y-65649536D01*
X69743671Y-65560656D01*
X69751590Y-65557594D01*
X69760654Y-65543674D01*
X69849536Y-65427841D01*
X69910044Y-65281762D01*
X69930682Y-65125000D01*
X69910044Y-64968238D01*
X69849536Y-64822159D01*
X69813721Y-64775483D01*
X69788528Y-64710316D01*
X69802566Y-64641872D01*
X69813723Y-64624513D01*
X69849536Y-64577841D01*
X69910044Y-64431762D01*
X69930682Y-64275000D01*
X69910044Y-64118238D01*
X69849536Y-63972159D01*
X69813722Y-63925485D01*
X69788528Y-63860318D01*
X69802566Y-63791873D01*
X69813723Y-63774513D01*
X69830859Y-63752181D01*
X69849536Y-63727841D01*
X69910044Y-63581762D01*
X69930682Y-63425000D01*
X69910044Y-63268238D01*
X69849536Y-63122159D01*
X69813722Y-63075485D01*
X69788528Y-63010318D01*
X69802566Y-62941873D01*
X69813723Y-62924513D01*
X69813733Y-62924500D01*
X69849536Y-62877841D01*
X69910044Y-62731762D01*
X69930682Y-62575000D01*
X69910044Y-62418238D01*
X69849536Y-62272159D01*
X69813722Y-62225485D01*
X69788528Y-62160318D01*
X69802566Y-62091873D01*
X69813723Y-62074513D01*
X69827432Y-62056647D01*
X69849536Y-62027841D01*
X69910044Y-61881762D01*
X69930682Y-61725000D01*
X69910044Y-61568238D01*
X69849536Y-61422159D01*
X69813722Y-61375485D01*
X69788528Y-61310318D01*
X69802566Y-61241873D01*
X69813723Y-61224513D01*
X69813725Y-61224511D01*
X69849536Y-61177841D01*
X69910044Y-61031762D01*
X69930682Y-60875000D01*
X69910044Y-60718238D01*
X69849536Y-60572159D01*
X69813721Y-60525483D01*
X69788528Y-60460316D01*
X69802566Y-60391872D01*
X69813721Y-60374515D01*
X69849536Y-60327841D01*
X69910044Y-60181762D01*
X69930682Y-60025000D01*
X69910044Y-59868238D01*
X69849536Y-59722159D01*
X69797136Y-59653870D01*
X69753283Y-59596719D01*
X69753282Y-59596718D01*
X69730035Y-59578880D01*
X69688834Y-59522453D01*
X69684679Y-59452707D01*
X69718891Y-59391786D01*
X69724755Y-59386417D01*
X69787106Y-59332892D01*
X69905368Y-59180109D01*
X69990458Y-59006641D01*
X70011597Y-58925000D01*
X69261111Y-58925000D01*
X69300610Y-58900543D01*
X69368201Y-58811038D01*
X69398895Y-58703160D01*
X69388546Y-58591479D01*
X69338552Y-58491078D01*
X69266069Y-58425000D01*
X70015471Y-58425000D01*
X70015471Y-58424999D01*
X69952314Y-58254469D01*
X69850109Y-58090498D01*
X69716996Y-57950464D01*
X69558414Y-57840087D01*
X69380862Y-57763893D01*
X69191605Y-57725000D01*
X68595000Y-57725000D01*
X68595000Y-58375000D01*
X68095000Y-58375000D01*
X68095000Y-57725000D01*
X67549967Y-57725000D01*
X67543701Y-57725317D01*
X67402777Y-57739648D01*
X67218430Y-57797488D01*
X67049496Y-57891253D01*
X66902895Y-58017105D01*
X66784631Y-58169890D01*
X66699541Y-58343358D01*
X66678403Y-58425000D01*
X67428889Y-58425000D01*
X67389390Y-58449457D01*
X67321799Y-58538962D01*
X67291105Y-58646840D01*
X67301454Y-58758521D01*
X67351448Y-58858922D01*
X67423931Y-58925000D01*
X66674529Y-58925000D01*
X66737685Y-59095530D01*
X66839890Y-59259501D01*
X66973003Y-59399535D01*
X67141935Y-59517116D01*
X67141227Y-59518132D01*
X67184811Y-59554171D01*
X67206037Y-59620739D01*
X67195000Y-59663923D01*
X67198236Y-59664975D01*
X67138995Y-59847300D01*
X67120318Y-60024999D01*
X67138995Y-60202699D01*
X67194208Y-60372630D01*
X67223346Y-60423098D01*
X67223347Y-60423098D01*
X67353291Y-60293154D01*
X67376065Y-60280718D01*
X67380692Y-60267848D01*
X67393155Y-60253291D01*
X67575797Y-60070649D01*
X67775000Y-60070649D01*
X67814613Y-60152905D01*
X67885992Y-60209827D01*
X67952468Y-60225000D01*
X67997532Y-60225000D01*
X68064008Y-60209827D01*
X68135387Y-60152905D01*
X68175000Y-60070649D01*
X68175000Y-59979351D01*
X68135387Y-59897095D01*
X68064008Y-59840173D01*
X67997532Y-59825000D01*
X67952468Y-59825000D01*
X67885992Y-59840173D01*
X67814613Y-59897095D01*
X67775000Y-59979351D01*
X67775000Y-60070649D01*
X67575797Y-60070649D01*
X67887318Y-59759127D01*
X67948641Y-59725642D01*
X68018332Y-59730626D01*
X68062680Y-59759127D01*
X68240871Y-59937318D01*
X68274356Y-59998641D01*
X68269372Y-60068333D01*
X68240871Y-60112680D01*
X68114766Y-60238785D01*
X68053443Y-60272270D01*
X68010903Y-60274044D01*
X67974998Y-60269317D01*
X67818237Y-60289956D01*
X67672159Y-60350463D01*
X67556322Y-60439348D01*
X67548406Y-60442407D01*
X67539348Y-60456321D01*
X67450463Y-60572159D01*
X67389956Y-60718237D01*
X67369317Y-60875000D01*
X67389956Y-61031762D01*
X67450463Y-61177840D01*
X67486277Y-61224515D01*
X67511470Y-61289684D01*
X67497431Y-61358129D01*
X67486277Y-61375485D01*
X67450463Y-61422159D01*
X67389956Y-61568237D01*
X67369317Y-61724999D01*
X67389956Y-61881762D01*
X67450463Y-62027840D01*
X67486277Y-62074515D01*
X67511470Y-62139684D01*
X67497431Y-62208129D01*
X67486277Y-62225485D01*
X67450463Y-62272159D01*
X67389956Y-62418237D01*
X67369317Y-62575000D01*
X67389956Y-62731762D01*
X67450463Y-62877840D01*
X67486277Y-62924515D01*
X67511470Y-62989684D01*
X67497431Y-63058129D01*
X67486277Y-63075485D01*
X67450463Y-63122159D01*
X67389956Y-63268237D01*
X67369317Y-63424999D01*
X67389956Y-63581762D01*
X67450463Y-63727840D01*
X67486276Y-63774513D01*
X67511470Y-63839682D01*
X67497431Y-63908127D01*
X67486277Y-63925483D01*
X67450464Y-63972156D01*
X67389956Y-64118237D01*
X67369317Y-64275000D01*
X67389956Y-64431762D01*
X67450463Y-64577840D01*
X67486276Y-64624513D01*
X67511470Y-64689682D01*
X67497431Y-64758127D01*
X67486277Y-64775483D01*
X67450464Y-64822156D01*
X67389956Y-64968237D01*
X67369317Y-65124999D01*
X67389956Y-65281762D01*
X67450463Y-65427840D01*
X67486277Y-65474515D01*
X67511470Y-65539684D01*
X67497431Y-65608129D01*
X67486277Y-65625485D01*
X67450463Y-65672159D01*
X67389956Y-65818237D01*
X67369317Y-65975000D01*
X67389956Y-66131762D01*
X67434106Y-66238351D01*
X67441575Y-66307820D01*
X67410299Y-66370299D01*
X67356666Y-66404116D01*
X67218430Y-66447488D01*
X67049496Y-66541253D01*
X66902895Y-66667105D01*
X66784631Y-66819890D01*
X66699541Y-66993358D01*
X66678403Y-67075000D01*
X67428889Y-67075000D01*
X67389390Y-67099457D01*
X67321799Y-67188962D01*
X67291105Y-67296840D01*
X67301454Y-67408521D01*
X67351448Y-67508922D01*
X67423931Y-67575000D01*
X66674529Y-67575000D01*
X66281597Y-67575000D01*
X65531111Y-67575000D01*
X65570610Y-67550543D01*
X65638201Y-67461038D01*
X65668895Y-67353160D01*
X65658546Y-67241479D01*
X65608552Y-67141078D01*
X65536069Y-67075000D01*
X66285471Y-67075000D01*
X66285471Y-67074999D01*
X66222314Y-66904469D01*
X66120109Y-66740498D01*
X65986996Y-66600464D01*
X65828414Y-66490087D01*
X65650862Y-66413893D01*
X65461605Y-66375000D01*
X65215000Y-66375000D01*
X65215000Y-67025000D01*
X64715000Y-67025000D01*
X64715000Y-66375000D01*
X64519967Y-66375000D01*
X64513701Y-66375317D01*
X64372777Y-66389648D01*
X64188430Y-66447488D01*
X64019496Y-66541253D01*
X63872895Y-66667105D01*
X63754631Y-66819890D01*
X63669541Y-66993358D01*
X63648403Y-67075000D01*
X64398889Y-67075000D01*
X64359390Y-67099457D01*
X64291799Y-67188962D01*
X64261105Y-67296840D01*
X64271454Y-67408521D01*
X64321448Y-67508922D01*
X64393931Y-67575000D01*
X63644529Y-67575000D01*
X60464704Y-67575000D01*
X60394758Y-67220372D01*
X60394562Y-67219268D01*
X60318578Y-66792351D01*
X60318160Y-66789843D01*
X60239633Y-66282828D01*
X60228457Y-66200233D01*
X60181302Y-65851781D01*
X60180987Y-65849241D01*
X60123368Y-65339615D01*
X60083008Y-64906306D01*
X60082811Y-64903911D01*
X60046251Y-64393496D01*
X60046114Y-64391271D01*
X60023874Y-63957664D01*
X60023781Y-63955389D01*
X60008211Y-63443866D01*
X60008163Y-63441470D01*
X60003992Y-63007507D01*
X60003992Y-63005094D01*
X60009440Y-62493472D01*
X60009494Y-62490973D01*
X60023420Y-62056145D01*
X60049944Y-61543806D01*
X60050093Y-61541420D01*
X60082101Y-61107605D01*
X60129652Y-60596677D01*
X60129905Y-60594249D01*
X60179921Y-60162306D01*
X60248427Y-59653657D01*
X60248787Y-59651191D01*
X60316706Y-59221899D01*
X60369186Y-58925000D01*
X63644529Y-58925000D01*
X63707685Y-59095530D01*
X63809890Y-59259501D01*
X63943003Y-59399535D01*
X64101585Y-59509912D01*
X64279137Y-59586106D01*
X64468395Y-59625000D01*
X64715000Y-59625000D01*
X64715000Y-58975000D01*
X65215000Y-58975000D01*
X65215000Y-59625000D01*
X65410033Y-59625000D01*
X65416298Y-59624682D01*
X65557222Y-59610351D01*
X65741569Y-59552511D01*
X65910503Y-59458746D01*
X66057104Y-59332894D01*
X66175368Y-59180109D01*
X66260458Y-59006641D01*
X66281597Y-58925000D01*
X65531111Y-58925000D01*
X65570610Y-58900543D01*
X65638201Y-58811038D01*
X65668895Y-58703160D01*
X65658546Y-58591479D01*
X65608552Y-58491078D01*
X65536069Y-58425000D01*
X66285471Y-58425000D01*
X66285471Y-58424999D01*
X66222314Y-58254469D01*
X66120109Y-58090498D01*
X65986996Y-57950464D01*
X65828414Y-57840087D01*
X65650862Y-57763893D01*
X65461605Y-57725000D01*
X65215000Y-57725000D01*
X65215000Y-58375000D01*
X64715000Y-58375000D01*
X64715000Y-57725000D01*
X64519967Y-57725000D01*
X64513701Y-57725317D01*
X64372777Y-57739648D01*
X64188430Y-57797488D01*
X64019496Y-57891253D01*
X63872895Y-58017105D01*
X63754631Y-58169890D01*
X63669541Y-58343358D01*
X63648403Y-58425000D01*
X64398889Y-58425000D01*
X64359390Y-58449457D01*
X64291799Y-58538962D01*
X64261105Y-58646840D01*
X64271454Y-58758521D01*
X64321448Y-58858922D01*
X64393931Y-58925000D01*
X63644529Y-58925000D01*
X60369186Y-58925000D01*
X60406070Y-58716337D01*
X60406564Y-58713721D01*
X60492209Y-58288037D01*
X60602318Y-57786295D01*
X60602942Y-57783607D01*
X60706146Y-57362194D01*
X60836828Y-56865165D01*
X60837594Y-56862388D01*
X60886194Y-56694518D01*
X66900000Y-56694518D01*
X66900354Y-56701132D01*
X66906400Y-56757371D01*
X66956647Y-56892089D01*
X67042811Y-57007188D01*
X67157910Y-57093352D01*
X67292628Y-57143599D01*
X67348867Y-57149645D01*
X67355482Y-57150000D01*
X68000000Y-57150000D01*
X68000000Y-56235501D01*
X68107685Y-56284680D01*
X68214237Y-56300000D01*
X68285763Y-56300000D01*
X68392315Y-56284680D01*
X68500000Y-56235501D01*
X68500000Y-57150000D01*
X69144518Y-57150000D01*
X69151132Y-57149645D01*
X69207371Y-57143599D01*
X69342089Y-57093352D01*
X69457188Y-57007188D01*
X69543352Y-56892089D01*
X69593599Y-56757371D01*
X69599645Y-56701132D01*
X69600000Y-56694518D01*
X69600000Y-56050000D01*
X68683686Y-56050000D01*
X68709493Y-56009844D01*
X68750000Y-55871889D01*
X68750000Y-55728111D01*
X68709493Y-55590156D01*
X68683686Y-55550000D01*
X69600000Y-55550000D01*
X69600000Y-55099500D01*
X69619685Y-55032461D01*
X69672489Y-54986706D01*
X69724000Y-54975500D01*
X74048195Y-54975500D01*
X74073641Y-54978139D01*
X74077440Y-54978935D01*
X74084268Y-54980367D01*
X74114138Y-54976643D01*
X74115677Y-54976452D01*
X74131014Y-54975500D01*
X74131111Y-54975500D01*
X74131114Y-54975500D01*
X74151643Y-54972073D01*
X74156659Y-54971342D01*
X74208626Y-54964866D01*
X74208628Y-54964864D01*
X74216457Y-54963889D01*
X74216666Y-54963822D01*
X74223607Y-54960065D01*
X74223610Y-54960065D01*
X74269666Y-54935140D01*
X74274144Y-54932835D01*
X74321211Y-54909826D01*
X74321212Y-54909824D01*
X74328308Y-54906356D01*
X74328476Y-54906230D01*
X74333824Y-54900419D01*
X74333826Y-54900419D01*
X74369294Y-54861889D01*
X74372795Y-54858240D01*
X75719217Y-53511819D01*
X75780541Y-53478334D01*
X75806899Y-53475500D01*
X85248195Y-53475500D01*
X85273641Y-53478139D01*
X85277440Y-53478935D01*
X85284268Y-53480367D01*
X85314138Y-53476643D01*
X85315677Y-53476452D01*
X85331014Y-53475500D01*
X85331111Y-53475500D01*
X85331114Y-53475500D01*
X85351643Y-53472073D01*
X85356659Y-53471342D01*
X85408626Y-53464866D01*
X85408628Y-53464864D01*
X85416457Y-53463889D01*
X85416666Y-53463822D01*
X85423607Y-53460065D01*
X85423610Y-53460065D01*
X85469666Y-53435140D01*
X85474144Y-53432835D01*
X85521211Y-53409826D01*
X85521212Y-53409824D01*
X85528308Y-53406356D01*
X85528476Y-53406230D01*
X85533824Y-53400419D01*
X85533826Y-53400419D01*
X85569293Y-53361890D01*
X85572770Y-53358265D01*
X86069220Y-52861816D01*
X86130542Y-52828334D01*
X86156900Y-52825500D01*
X90503692Y-52825500D01*
X90570731Y-52845185D01*
X90605743Y-52879062D01*
X90609515Y-52884528D01*
X90609516Y-52884529D01*
X90609517Y-52884530D01*
X90727760Y-52989283D01*
X90867635Y-53062696D01*
X91021015Y-53100500D01*
X91178985Y-53100500D01*
X91332365Y-53062696D01*
X91472240Y-52989283D01*
X91590483Y-52884530D01*
X91680220Y-52754523D01*
X91736237Y-52606818D01*
X91755278Y-52450000D01*
X91736237Y-52293182D01*
X91680220Y-52145477D01*
X91616697Y-52053448D01*
X91590484Y-52015471D01*
X91578880Y-52005191D01*
X91472240Y-51910717D01*
X91419345Y-51882955D01*
X91332364Y-51837303D01*
X91178985Y-51799500D01*
X91021015Y-51799500D01*
X90867635Y-51837303D01*
X90727761Y-51910716D01*
X90609515Y-52015471D01*
X90605743Y-52020938D01*
X90551462Y-52064929D01*
X90503692Y-52074500D01*
X86001804Y-52074500D01*
X85976358Y-52071861D01*
X85965732Y-52069633D01*
X85934323Y-52073548D01*
X85918986Y-52074500D01*
X85918884Y-52074500D01*
X85898399Y-52077918D01*
X85893332Y-52078657D01*
X85833567Y-52086107D01*
X85833312Y-52086189D01*
X85780370Y-52114838D01*
X85775820Y-52117180D01*
X85721715Y-52143632D01*
X85721505Y-52143788D01*
X85680719Y-52188093D01*
X85677172Y-52191789D01*
X85180781Y-52688181D01*
X85119458Y-52721666D01*
X85093100Y-52724500D01*
X75651803Y-52724500D01*
X75626357Y-52721861D01*
X75615731Y-52719633D01*
X75584324Y-52723548D01*
X75568987Y-52724500D01*
X75568886Y-52724500D01*
X75548359Y-52727924D01*
X75543300Y-52728661D01*
X75483556Y-52736109D01*
X75483316Y-52736186D01*
X75430359Y-52764844D01*
X75425805Y-52767188D01*
X75371721Y-52793628D01*
X75371506Y-52793788D01*
X75330729Y-52838082D01*
X75327183Y-52841777D01*
X73980781Y-54188181D01*
X73919458Y-54221666D01*
X73893100Y-54224500D01*
X73874500Y-54224500D01*
X73807461Y-54204815D01*
X73761706Y-54152011D01*
X73750500Y-54100500D01*
X73750500Y-52399500D01*
X73770185Y-52332461D01*
X73822989Y-52286706D01*
X73874500Y-52275500D01*
X84248195Y-52275500D01*
X84273641Y-52278139D01*
X84277440Y-52278935D01*
X84284268Y-52280367D01*
X84314138Y-52276643D01*
X84315677Y-52276452D01*
X84331014Y-52275500D01*
X84331111Y-52275500D01*
X84331114Y-52275500D01*
X84351643Y-52272073D01*
X84356659Y-52271342D01*
X84408626Y-52264866D01*
X84408628Y-52264864D01*
X84416457Y-52263889D01*
X84416666Y-52263822D01*
X84423607Y-52260065D01*
X84423610Y-52260065D01*
X84469666Y-52235140D01*
X84474144Y-52232835D01*
X84521211Y-52209826D01*
X84521212Y-52209824D01*
X84528308Y-52206356D01*
X84528476Y-52206230D01*
X84533824Y-52200419D01*
X84533826Y-52200419D01*
X84569294Y-52161889D01*
X84572795Y-52158240D01*
X85569217Y-51161819D01*
X85630541Y-51128334D01*
X85656899Y-51125500D01*
X90503692Y-51125500D01*
X90570731Y-51145185D01*
X90605743Y-51179062D01*
X90609515Y-51184528D01*
X90609516Y-51184529D01*
X90609517Y-51184530D01*
X90727760Y-51289283D01*
X90867635Y-51362696D01*
X91021015Y-51400500D01*
X91178985Y-51400500D01*
X91332365Y-51362696D01*
X91472240Y-51289283D01*
X91590483Y-51184530D01*
X91680220Y-51054523D01*
X91736237Y-50906818D01*
X91755278Y-50750000D01*
X91736237Y-50593182D01*
X91680220Y-50445477D01*
X91606920Y-50339283D01*
X91590484Y-50315471D01*
X91553496Y-50282703D01*
X91472240Y-50210717D01*
X91416584Y-50181506D01*
X91332364Y-50137303D01*
X91178985Y-50099500D01*
X91021015Y-50099500D01*
X90867635Y-50137303D01*
X90727761Y-50210716D01*
X90609515Y-50315471D01*
X90605743Y-50320938D01*
X90551462Y-50364929D01*
X90503692Y-50374500D01*
X85501804Y-50374500D01*
X85476358Y-50371861D01*
X85465732Y-50369633D01*
X85434323Y-50373548D01*
X85418986Y-50374500D01*
X85418884Y-50374500D01*
X85398381Y-50377920D01*
X85393320Y-50378657D01*
X85333572Y-50386105D01*
X85333308Y-50386190D01*
X85280365Y-50414840D01*
X85275814Y-50417183D01*
X85221718Y-50443630D01*
X85221505Y-50443788D01*
X85180719Y-50488093D01*
X85177172Y-50491789D01*
X84180781Y-51488181D01*
X84119458Y-51521666D01*
X84093100Y-51524500D01*
X73656763Y-51524500D01*
X73589724Y-51504815D01*
X73543969Y-51452011D01*
X73534025Y-51382853D01*
X73557810Y-51325772D01*
X73582366Y-51293255D01*
X73677405Y-51102389D01*
X73735756Y-50897310D01*
X73755429Y-50685000D01*
X73735756Y-50472690D01*
X73729442Y-50450500D01*
X73677405Y-50267611D01*
X73674298Y-50261371D01*
X73662037Y-50192585D01*
X73688910Y-50128090D01*
X73697607Y-50118428D01*
X74604217Y-49211819D01*
X74665541Y-49178334D01*
X74691899Y-49175500D01*
X95704382Y-49175500D01*
X95771421Y-49195185D01*
X95817176Y-49247989D01*
X95827120Y-49317147D01*
X95806432Y-49369940D01*
X95719779Y-49495476D01*
X95663763Y-49643181D01*
X95644721Y-49800000D01*
X95650896Y-49850853D01*
X95639435Y-49919777D01*
X95615481Y-49953480D01*
X93871108Y-51697852D01*
X93851254Y-51713976D01*
X93842165Y-51719914D01*
X93822722Y-51744894D01*
X93812563Y-51756398D01*
X93812484Y-51756476D01*
X93812479Y-51756482D01*
X93812480Y-51756482D01*
X93800390Y-51773414D01*
X93797341Y-51777504D01*
X93760354Y-51825024D01*
X93760237Y-51825253D01*
X93743057Y-51882955D01*
X93741495Y-51887831D01*
X93721941Y-51944792D01*
X93721906Y-51945034D01*
X93724394Y-52005191D01*
X93724500Y-52010315D01*
X93724500Y-57193099D01*
X93704815Y-57260138D01*
X93688181Y-57280780D01*
X88741108Y-62227852D01*
X88721254Y-62243976D01*
X88712165Y-62249914D01*
X88692722Y-62274894D01*
X88682563Y-62286398D01*
X88682484Y-62286476D01*
X88678739Y-62291722D01*
X88670390Y-62303414D01*
X88667341Y-62307504D01*
X88630354Y-62355024D01*
X88630237Y-62355253D01*
X88613057Y-62412955D01*
X88611484Y-62417862D01*
X88610690Y-62420173D01*
X88570291Y-62477179D01*
X88505485Y-62503294D01*
X88436848Y-62490226D01*
X88409882Y-62471520D01*
X88406041Y-62468019D01*
X88232640Y-62360653D01*
X88177127Y-62339147D01*
X88054705Y-62291721D01*
X87999305Y-62249149D01*
X87975714Y-62183382D01*
X87975500Y-62176095D01*
X87975500Y-54415398D01*
X87995185Y-54348359D01*
X88017271Y-54322584D01*
X88102782Y-54246829D01*
X88192519Y-54116822D01*
X88248536Y-53969117D01*
X88267577Y-53812299D01*
X88248536Y-53655481D01*
X88192519Y-53507776D01*
X88102782Y-53377769D01*
X87984539Y-53273016D01*
X87959739Y-53260000D01*
X87844663Y-53199602D01*
X87691284Y-53161799D01*
X87533314Y-53161799D01*
X87379934Y-53199602D01*
X87240060Y-53273015D01*
X87121814Y-53377770D01*
X87032079Y-53507775D01*
X86976062Y-53655480D01*
X86957020Y-53812299D01*
X86976062Y-53969117D01*
X87032079Y-54116822D01*
X87121814Y-54246827D01*
X87121815Y-54246828D01*
X87121816Y-54246829D01*
X87182728Y-54300791D01*
X87219853Y-54359979D01*
X87224500Y-54393606D01*
X87224500Y-57235508D01*
X87204815Y-57302547D01*
X87152011Y-57348302D01*
X87082853Y-57358246D01*
X87042873Y-57345304D01*
X86932364Y-57287303D01*
X86778985Y-57249500D01*
X86621015Y-57249500D01*
X86467635Y-57287303D01*
X86327761Y-57360716D01*
X86209515Y-57465471D01*
X86119780Y-57595476D01*
X86063763Y-57743181D01*
X86044721Y-57900000D01*
X86058941Y-58017105D01*
X86063763Y-58056818D01*
X86106645Y-58169890D01*
X86116442Y-58195721D01*
X86124500Y-58239692D01*
X86124500Y-61876000D01*
X86104815Y-61943039D01*
X86052011Y-61988794D01*
X86000500Y-62000000D01*
X85450000Y-62000000D01*
X85450000Y-62914498D01*
X85342315Y-62865320D01*
X85235763Y-62850000D01*
X85164237Y-62850000D01*
X85057685Y-62865320D01*
X84950000Y-62914498D01*
X84950000Y-62000000D01*
X84305482Y-62000000D01*
X84298867Y-62000354D01*
X84242628Y-62006400D01*
X84107910Y-62056647D01*
X83992811Y-62142811D01*
X83906647Y-62257910D01*
X83856400Y-62392628D01*
X83850354Y-62448867D01*
X83850000Y-62455481D01*
X83850000Y-63100000D01*
X84766314Y-63100000D01*
X84740507Y-63140156D01*
X84700000Y-63278111D01*
X84700000Y-63421889D01*
X84740507Y-63559844D01*
X84766314Y-63600000D01*
X83850000Y-63600000D01*
X83850000Y-64244518D01*
X83850354Y-64251132D01*
X83856400Y-64307371D01*
X83906647Y-64442089D01*
X83992811Y-64557188D01*
X84107910Y-64643352D01*
X84242628Y-64693599D01*
X84298867Y-64699645D01*
X84305482Y-64700000D01*
X84950000Y-64700000D01*
X84950000Y-63785501D01*
X85057685Y-63834680D01*
X85164237Y-63850000D01*
X85235763Y-63850000D01*
X85342315Y-63834680D01*
X85450000Y-63785501D01*
X85450000Y-64700000D01*
X86000500Y-64700000D01*
X86067539Y-64719685D01*
X86113294Y-64772489D01*
X86124500Y-64824000D01*
X86124500Y-65203212D01*
X86104815Y-65270251D01*
X86052011Y-65316006D01*
X86045295Y-65318838D01*
X85937362Y-65360651D01*
X85763958Y-65468018D01*
X85613236Y-65605419D01*
X85490324Y-65768181D01*
X85399418Y-65950748D01*
X85343602Y-66146916D01*
X85324785Y-66349999D01*
X85343602Y-66553083D01*
X85399418Y-66749251D01*
X85490324Y-66931818D01*
X85613236Y-67094580D01*
X85763958Y-67231981D01*
X85913639Y-67324659D01*
X85937363Y-67339348D01*
X86127544Y-67413024D01*
X86328024Y-67450500D01*
X86328026Y-67450500D01*
X86531974Y-67450500D01*
X86531976Y-67450500D01*
X86732456Y-67413024D01*
X86922637Y-67339348D01*
X87096041Y-67231981D01*
X87214313Y-67124162D01*
X87246763Y-67094580D01*
X87246764Y-67094579D01*
X87369673Y-66931821D01*
X87369673Y-66931819D01*
X87369675Y-66931818D01*
X87442485Y-66785593D01*
X87460582Y-66749250D01*
X87516397Y-66553083D01*
X87535215Y-66350000D01*
X87516397Y-66146917D01*
X87514473Y-66140156D01*
X87480470Y-66020649D01*
X87460582Y-65950750D01*
X87428997Y-65887318D01*
X87369675Y-65768181D01*
X87246763Y-65605419D01*
X87096043Y-65468020D01*
X86934222Y-65367825D01*
X86887587Y-65315797D01*
X86875500Y-65262398D01*
X86875500Y-64331723D01*
X86895185Y-64264684D01*
X86947989Y-64218929D01*
X87017147Y-64208985D01*
X87064778Y-64226296D01*
X87073957Y-64231979D01*
X87073959Y-64231981D01*
X87247363Y-64339348D01*
X87437544Y-64413024D01*
X87638024Y-64450500D01*
X87638026Y-64450500D01*
X87841974Y-64450500D01*
X87841976Y-64450500D01*
X88042456Y-64413024D01*
X88232637Y-64339348D01*
X88405225Y-64232486D01*
X88472583Y-64213931D01*
X88539282Y-64234739D01*
X88584144Y-64288304D01*
X88594500Y-64337914D01*
X88594500Y-65230330D01*
X88574815Y-65297369D01*
X88522011Y-65343124D01*
X88515296Y-65345956D01*
X88477361Y-65360652D01*
X88303958Y-65468018D01*
X88153236Y-65605419D01*
X88030324Y-65768181D01*
X87939418Y-65950748D01*
X87883602Y-66146916D01*
X87864785Y-66349999D01*
X87883602Y-66553083D01*
X87939418Y-66749251D01*
X88030324Y-66931818D01*
X88153236Y-67094580D01*
X88303958Y-67231981D01*
X88453639Y-67324659D01*
X88477363Y-67339348D01*
X88667544Y-67413024D01*
X88868024Y-67450500D01*
X88868026Y-67450500D01*
X89071974Y-67450500D01*
X89071976Y-67450500D01*
X89272456Y-67413024D01*
X89462637Y-67339348D01*
X89631165Y-67235000D01*
X89636038Y-67231983D01*
X89636038Y-67231982D01*
X89636041Y-67231981D01*
X89786764Y-67094579D01*
X89786768Y-67094573D01*
X89791740Y-67090041D01*
X89854544Y-67059424D01*
X89923932Y-67067621D01*
X89962960Y-67093997D01*
X91557282Y-68688319D01*
X91590767Y-68749642D01*
X91585783Y-68819334D01*
X91543911Y-68875267D01*
X91513324Y-68886675D01*
X91500000Y-68900000D01*
X91500000Y-70050000D01*
X92500000Y-70050000D01*
X92500000Y-69355481D01*
X92499645Y-69348869D01*
X92495763Y-69312756D01*
X92508168Y-69243996D01*
X92555778Y-69192859D01*
X92619052Y-69175500D01*
X99193101Y-69175500D01*
X99260140Y-69195185D01*
X99280782Y-69211819D01*
X106481782Y-76412819D01*
X106515267Y-76474142D01*
X106510283Y-76543834D01*
X106468411Y-76599767D01*
X106402947Y-76624184D01*
X106394101Y-76624500D01*
X106051803Y-76624500D01*
X106026357Y-76621861D01*
X106015731Y-76619633D01*
X105984324Y-76623548D01*
X105968987Y-76624500D01*
X105968886Y-76624500D01*
X105948359Y-76627924D01*
X105943300Y-76628661D01*
X105883556Y-76636109D01*
X105883316Y-76636186D01*
X105830359Y-76664844D01*
X105825805Y-76667188D01*
X105771721Y-76693628D01*
X105771506Y-76693788D01*
X105730729Y-76738082D01*
X105727183Y-76741777D01*
X104080781Y-78388181D01*
X104019458Y-78421666D01*
X103993100Y-78424500D01*
X95324500Y-78424500D01*
X95257461Y-78404815D01*
X95211706Y-78352011D01*
X95200500Y-78300500D01*
X95200500Y-78190887D01*
X95200500Y-78025326D01*
X95185966Y-77952260D01*
X95163668Y-77918888D01*
X95142791Y-77852213D01*
X95161276Y-77784833D01*
X95163645Y-77781145D01*
X95185966Y-77747740D01*
X95200500Y-77674674D01*
X95200500Y-77330258D01*
X95220185Y-77263219D01*
X95270039Y-77218857D01*
X95288515Y-77209826D01*
X95288516Y-77209824D01*
X95295611Y-77206356D01*
X95295780Y-77206230D01*
X95301128Y-77200419D01*
X95301130Y-77200419D01*
X95336598Y-77161889D01*
X95340099Y-77158240D01*
X98044216Y-74454123D01*
X98105540Y-74420638D01*
X98131898Y-74417804D01*
X98278985Y-74417804D01*
X98432365Y-74380000D01*
X98572240Y-74306587D01*
X98690483Y-74201834D01*
X98780220Y-74071827D01*
X98836237Y-73924122D01*
X98855278Y-73767304D01*
X98836237Y-73610486D01*
X98780220Y-73462781D01*
X98702373Y-73350000D01*
X98690484Y-73332775D01*
X98690483Y-73332774D01*
X98572240Y-73228021D01*
X98555309Y-73219135D01*
X98432364Y-73154607D01*
X98278985Y-73116804D01*
X98121015Y-73116804D01*
X97967635Y-73154607D01*
X97827761Y-73228020D01*
X97709515Y-73332775D01*
X97619780Y-73462780D01*
X97563763Y-73610485D01*
X97544721Y-73767304D01*
X97550896Y-73818157D01*
X97539435Y-73887081D01*
X97515481Y-73920784D01*
X95372129Y-76064136D01*
X95310806Y-76097621D01*
X95241114Y-76092637D01*
X95185181Y-76050765D01*
X95181363Y-76045371D01*
X95163667Y-76018887D01*
X95142791Y-75952214D01*
X95161275Y-75884834D01*
X95163645Y-75881145D01*
X95185966Y-75847740D01*
X95200500Y-75774674D01*
X95200500Y-75385005D01*
X95220185Y-75317966D01*
X95233269Y-75301024D01*
X95233826Y-75300419D01*
X95269293Y-75261890D01*
X95272795Y-75258240D01*
X96044217Y-74486819D01*
X96105540Y-74453334D01*
X96131898Y-74450500D01*
X96278985Y-74450500D01*
X96432365Y-74412696D01*
X96572240Y-74339283D01*
X96690483Y-74234530D01*
X96780220Y-74104523D01*
X96836237Y-73956818D01*
X96855278Y-73800000D01*
X96836237Y-73643182D01*
X96780220Y-73495477D01*
X96735351Y-73430473D01*
X96690484Y-73365471D01*
X96665232Y-73343100D01*
X96572240Y-73260717D01*
X96509942Y-73228020D01*
X96432364Y-73187303D01*
X96278985Y-73149500D01*
X96121015Y-73149500D01*
X95967635Y-73187303D01*
X95827761Y-73260716D01*
X95709515Y-73365471D01*
X95676050Y-73413955D01*
X95621767Y-73457945D01*
X95552318Y-73465605D01*
X95489753Y-73434501D01*
X95453936Y-73374510D01*
X95450943Y-73350943D01*
X95450000Y-73350000D01*
X92650000Y-73350000D01*
X92650000Y-73894518D01*
X92650354Y-73901132D01*
X92656400Y-73957371D01*
X92706647Y-74092089D01*
X92792811Y-74207190D01*
X92849810Y-74249858D01*
X92891682Y-74305791D01*
X92899500Y-74349125D01*
X92899500Y-75774674D01*
X92914033Y-75847738D01*
X92914033Y-75847739D01*
X92914034Y-75847740D01*
X92936331Y-75881111D01*
X92957208Y-75947786D01*
X92938723Y-76015166D01*
X92936332Y-76018887D01*
X92914034Y-76052259D01*
X92899500Y-76125325D01*
X92899500Y-77674674D01*
X92914034Y-77747740D01*
X92936331Y-77781111D01*
X92957208Y-77847789D01*
X92938722Y-77915168D01*
X92936331Y-77918889D01*
X92914034Y-77952259D01*
X92899500Y-78025325D01*
X92899500Y-79450874D01*
X92879815Y-79517913D01*
X92849811Y-79550141D01*
X92792811Y-79592810D01*
X92706647Y-79707910D01*
X92656400Y-79842628D01*
X92650354Y-79898867D01*
X92650000Y-79905481D01*
X92650000Y-80450000D01*
X95450000Y-80450000D01*
X95450000Y-79905481D01*
X95449645Y-79898867D01*
X95443599Y-79842628D01*
X95393352Y-79707910D01*
X95307188Y-79592810D01*
X95250189Y-79550141D01*
X95208318Y-79494207D01*
X95200500Y-79450874D01*
X95200500Y-79299500D01*
X95220185Y-79232461D01*
X95272989Y-79186706D01*
X95324500Y-79175500D01*
X104148195Y-79175500D01*
X104173641Y-79178139D01*
X104177440Y-79178935D01*
X104184268Y-79180367D01*
X104214138Y-79176643D01*
X104215677Y-79176452D01*
X104231014Y-79175500D01*
X104231111Y-79175500D01*
X104231114Y-79175500D01*
X104251643Y-79172073D01*
X104256659Y-79171342D01*
X104308626Y-79164866D01*
X104308628Y-79164864D01*
X104316457Y-79163889D01*
X104316666Y-79163822D01*
X104323607Y-79160065D01*
X104323610Y-79160065D01*
X104369666Y-79135140D01*
X104374144Y-79132835D01*
X104421211Y-79109826D01*
X104421212Y-79109824D01*
X104428308Y-79106356D01*
X104428476Y-79106230D01*
X104433824Y-79100419D01*
X104433826Y-79100419D01*
X104469294Y-79061889D01*
X104472795Y-79058240D01*
X106119217Y-77411819D01*
X106180541Y-77378334D01*
X106206899Y-77375500D01*
X107527226Y-77375500D01*
X107545029Y-77378093D01*
X107552908Y-77377767D01*
X107552911Y-77377768D01*
X107605192Y-77375605D01*
X107610315Y-77375500D01*
X108480814Y-77375500D01*
X108547853Y-77395185D01*
X108591814Y-77444229D01*
X108660324Y-77581818D01*
X108783236Y-77744580D01*
X108933958Y-77881981D01*
X109107361Y-77989347D01*
X109107363Y-77989348D01*
X109188285Y-78020697D01*
X109243686Y-78063268D01*
X109267277Y-78129035D01*
X109251566Y-78197115D01*
X109201543Y-78245895D01*
X109175586Y-78256097D01*
X109136511Y-78266567D01*
X108922421Y-78366400D01*
X108728921Y-78501890D01*
X108561890Y-78668921D01*
X108426400Y-78862421D01*
X108326569Y-79076507D01*
X108269364Y-79289999D01*
X108269364Y-79290000D01*
X109166314Y-79290000D01*
X109140507Y-79330156D01*
X109100000Y-79468111D01*
X109100000Y-79611889D01*
X109140507Y-79749844D01*
X109166314Y-79790000D01*
X108269364Y-79790000D01*
X108326569Y-80003492D01*
X108426399Y-80217576D01*
X108561893Y-80411081D01*
X108728918Y-80578106D01*
X108922423Y-80713600D01*
X108985723Y-80743118D01*
X109038162Y-80789290D01*
X109057314Y-80856484D01*
X109037098Y-80923365D01*
X108983933Y-80968700D01*
X108933318Y-80979500D01*
X108725325Y-80979500D01*
X108652261Y-80994033D01*
X108569399Y-81049399D01*
X108514033Y-81132261D01*
X108499500Y-81205325D01*
X108499500Y-82954674D01*
X108514033Y-83027738D01*
X108514033Y-83027739D01*
X108514034Y-83027740D01*
X108569399Y-83110601D01*
X108652260Y-83165966D01*
X108688792Y-83173232D01*
X108725325Y-83180500D01*
X108725326Y-83180500D01*
X110474675Y-83180500D01*
X110499029Y-83175655D01*
X110547740Y-83165966D01*
X110630601Y-83110601D01*
X110685966Y-83027740D01*
X110700500Y-82954674D01*
X110700500Y-81205326D01*
X110685966Y-81132260D01*
X110630601Y-81049399D01*
X110547740Y-80994034D01*
X110547739Y-80994033D01*
X110547738Y-80994033D01*
X110474675Y-80979500D01*
X110474674Y-80979500D01*
X110266682Y-80979500D01*
X110199643Y-80959815D01*
X110153888Y-80907011D01*
X110143944Y-80837853D01*
X110172969Y-80774297D01*
X110214277Y-80743118D01*
X110277576Y-80713600D01*
X110471081Y-80578106D01*
X110638106Y-80411081D01*
X110773600Y-80217576D01*
X110873430Y-80003492D01*
X110930636Y-79790000D01*
X110033686Y-79790000D01*
X110059493Y-79749844D01*
X110100000Y-79611889D01*
X110100000Y-79468111D01*
X110059493Y-79330156D01*
X110033686Y-79290000D01*
X110930636Y-79290000D01*
X110930635Y-79289999D01*
X110873430Y-79076507D01*
X110773599Y-78862421D01*
X110638109Y-78668921D01*
X110471081Y-78501893D01*
X110277576Y-78366399D01*
X110063488Y-78266567D01*
X110024413Y-78256097D01*
X109964753Y-78219732D01*
X109934225Y-78156885D01*
X109942520Y-78087509D01*
X109987006Y-78033632D01*
X110011710Y-78020698D01*
X110092637Y-77989348D01*
X110266041Y-77881981D01*
X110376690Y-77781111D01*
X110416763Y-77744580D01*
X110469549Y-77674680D01*
X110539673Y-77581821D01*
X110539673Y-77581819D01*
X110539675Y-77581818D01*
X110617687Y-77425146D01*
X110630582Y-77399250D01*
X110686397Y-77203083D01*
X110705215Y-77000000D01*
X110686397Y-76796917D01*
X110678567Y-76769399D01*
X110649485Y-76667188D01*
X110630582Y-76600750D01*
X110624323Y-76588181D01*
X110539675Y-76418181D01*
X110416763Y-76255419D01*
X110266041Y-76118018D01*
X110092638Y-76010652D01*
X109902457Y-75936976D01*
X109835629Y-75924484D01*
X109701976Y-75899500D01*
X109498024Y-75899500D01*
X109397783Y-75918238D01*
X109297542Y-75936976D01*
X109107361Y-76010652D01*
X108933958Y-76118018D01*
X108783236Y-76255419D01*
X108660324Y-76418181D01*
X108591814Y-76555771D01*
X108544312Y-76607008D01*
X108480814Y-76624500D01*
X107806899Y-76624500D01*
X107739860Y-76604815D01*
X107719218Y-76588181D01*
X105591037Y-74460000D01*
X108494785Y-74460000D01*
X108496380Y-74477221D01*
X108513602Y-74663083D01*
X108569418Y-74859251D01*
X108660324Y-75041818D01*
X108783236Y-75204580D01*
X108933958Y-75341981D01*
X109095978Y-75442299D01*
X109107363Y-75449348D01*
X109297544Y-75523024D01*
X109498024Y-75560500D01*
X109498026Y-75560500D01*
X109701974Y-75560500D01*
X109701976Y-75560500D01*
X109902456Y-75523024D01*
X109961888Y-75500000D01*
X111444721Y-75500000D01*
X111463763Y-75656818D01*
X111519780Y-75804523D01*
X111609515Y-75934528D01*
X111609516Y-75934529D01*
X111609517Y-75934530D01*
X111727760Y-76039283D01*
X111867635Y-76112696D01*
X112021015Y-76150500D01*
X112178983Y-76150500D01*
X112178985Y-76150500D01*
X112313668Y-76117304D01*
X112383465Y-76120373D01*
X112431019Y-76150020D01*
X113113180Y-76832181D01*
X113146665Y-76893504D01*
X113149499Y-76919862D01*
X113149499Y-78574674D01*
X113164033Y-78647738D01*
X113164033Y-78647739D01*
X113164034Y-78647740D01*
X113219399Y-78730601D01*
X113302260Y-78785966D01*
X113333042Y-78792089D01*
X113375325Y-78800500D01*
X113375326Y-78800500D01*
X115424675Y-78800500D01*
X115449029Y-78795655D01*
X115497740Y-78785966D01*
X115580601Y-78730601D01*
X115635966Y-78647740D01*
X115650500Y-78574674D01*
X115650500Y-78000000D01*
X118300000Y-78000000D01*
X118300000Y-78594518D01*
X118300354Y-78601132D01*
X118306400Y-78657371D01*
X118356647Y-78792089D01*
X118442811Y-78907188D01*
X118557910Y-78993352D01*
X118692628Y-79043599D01*
X118748867Y-79049645D01*
X118755482Y-79050000D01*
X119550000Y-79050000D01*
X119550000Y-79049999D01*
X120049999Y-79049999D01*
X120050000Y-79050000D01*
X120844518Y-79050000D01*
X120851132Y-79049645D01*
X120907371Y-79043599D01*
X121042089Y-78993352D01*
X121157188Y-78907188D01*
X121243352Y-78792089D01*
X121293599Y-78657371D01*
X121299645Y-78601132D01*
X121300000Y-78594518D01*
X121300000Y-78000000D01*
X120050000Y-78000000D01*
X120049999Y-79049999D01*
X119550000Y-79049999D01*
X119550000Y-78000000D01*
X118300000Y-78000000D01*
X115650500Y-78000000D01*
X115650500Y-77500000D01*
X118300000Y-77500000D01*
X119550000Y-77500000D01*
X120049999Y-77500000D01*
X121300000Y-77500000D01*
X121300000Y-76905481D01*
X121299645Y-76898867D01*
X121293599Y-76842628D01*
X121243352Y-76707910D01*
X121157188Y-76592811D01*
X121042089Y-76506647D01*
X120907371Y-76456400D01*
X120851132Y-76450354D01*
X120844518Y-76450000D01*
X120050000Y-76450000D01*
X120049999Y-77500000D01*
X119550000Y-77500000D01*
X119550000Y-76450000D01*
X118755482Y-76450000D01*
X118748867Y-76450354D01*
X118692628Y-76456400D01*
X118557910Y-76506647D01*
X118442811Y-76592811D01*
X118356647Y-76707910D01*
X118306400Y-76842628D01*
X118300354Y-76898867D01*
X118300000Y-76905481D01*
X118300000Y-77500000D01*
X115650500Y-77500000D01*
X115650500Y-76925326D01*
X115635966Y-76852260D01*
X115580601Y-76769399D01*
X115497740Y-76714034D01*
X115497739Y-76714033D01*
X115497738Y-76714033D01*
X115424675Y-76699500D01*
X115424674Y-76699500D01*
X114093936Y-76699500D01*
X114026897Y-76679815D01*
X114006255Y-76663181D01*
X112773401Y-75430327D01*
X112739916Y-75369004D01*
X112737986Y-75357590D01*
X112736237Y-75343182D01*
X112680220Y-75195477D01*
X112590483Y-75065470D01*
X112472240Y-74960717D01*
X112428917Y-74937979D01*
X112332364Y-74887303D01*
X112178985Y-74849500D01*
X112021015Y-74849500D01*
X111867635Y-74887303D01*
X111727761Y-74960716D01*
X111609515Y-75065471D01*
X111519780Y-75195476D01*
X111463763Y-75343181D01*
X111444721Y-75500000D01*
X109961888Y-75500000D01*
X110092637Y-75449348D01*
X110266041Y-75341981D01*
X110416764Y-75204579D01*
X110539673Y-75041821D01*
X110539673Y-75041819D01*
X110539675Y-75041818D01*
X110617746Y-74885028D01*
X110630582Y-74859250D01*
X110686397Y-74663083D01*
X110705215Y-74460000D01*
X110686397Y-74256917D01*
X110686326Y-74256669D01*
X110644115Y-74108313D01*
X110630582Y-74060750D01*
X110613030Y-74025500D01*
X110539675Y-73878181D01*
X110416763Y-73715419D01*
X110266041Y-73578018D01*
X110092638Y-73470652D01*
X109902457Y-73396976D01*
X109835629Y-73384484D01*
X109701976Y-73359500D01*
X109498024Y-73359500D01*
X109397783Y-73378238D01*
X109297542Y-73396976D01*
X109107361Y-73470652D01*
X108933958Y-73578018D01*
X108783236Y-73715419D01*
X108660324Y-73878181D01*
X108569418Y-74060748D01*
X108513602Y-74256916D01*
X108494785Y-74459999D01*
X108494785Y-74460000D01*
X105591037Y-74460000D01*
X103722203Y-72591166D01*
X103051037Y-71920000D01*
X108494785Y-71920000D01*
X108513602Y-72123083D01*
X108569418Y-72319251D01*
X108660324Y-72501818D01*
X108783236Y-72664580D01*
X108933958Y-72801981D01*
X109095915Y-72902260D01*
X109107363Y-72909348D01*
X109297544Y-72983024D01*
X109498024Y-73020500D01*
X109498026Y-73020500D01*
X109701974Y-73020500D01*
X109701976Y-73020500D01*
X109902456Y-72983024D01*
X110092637Y-72909348D01*
X110266041Y-72801981D01*
X110406822Y-72673642D01*
X110416763Y-72664580D01*
X110424519Y-72654310D01*
X110539673Y-72501821D01*
X110539673Y-72501819D01*
X110539675Y-72501818D01*
X110603431Y-72373777D01*
X110630582Y-72319250D01*
X110686397Y-72123083D01*
X110705215Y-71920000D01*
X110686397Y-71716917D01*
X110679762Y-71693599D01*
X110658575Y-71619135D01*
X110630582Y-71520750D01*
X110583513Y-71426222D01*
X110539675Y-71338181D01*
X110416763Y-71175419D01*
X110266041Y-71038018D01*
X110092638Y-70930652D01*
X109902457Y-70856976D01*
X109835629Y-70844484D01*
X109701976Y-70819500D01*
X109498024Y-70819500D01*
X109397783Y-70838238D01*
X109297542Y-70856976D01*
X109107361Y-70930652D01*
X108933958Y-71038018D01*
X108783236Y-71175419D01*
X108660324Y-71338181D01*
X108569418Y-71520748D01*
X108513602Y-71716916D01*
X108494785Y-71920000D01*
X103051037Y-71920000D01*
X99702149Y-68571111D01*
X99686022Y-68551253D01*
X99680083Y-68542162D01*
X99655110Y-68522725D01*
X99643593Y-68512554D01*
X99643519Y-68512480D01*
X99626594Y-68500397D01*
X99622480Y-68497330D01*
X99581189Y-68465191D01*
X99581186Y-68465190D01*
X99574963Y-68460346D01*
X99574761Y-68460242D01*
X99567200Y-68457990D01*
X99567199Y-68457990D01*
X99517036Y-68443055D01*
X99512174Y-68441497D01*
X99500780Y-68437586D01*
X99455202Y-68421939D01*
X99454969Y-68421906D01*
X99409910Y-68423769D01*
X99394806Y-68424394D01*
X99389684Y-68424500D01*
X92406899Y-68424500D01*
X92339860Y-68404815D01*
X92319218Y-68388181D01*
X91584172Y-67653135D01*
X91550687Y-67591812D01*
X91555671Y-67522120D01*
X91597543Y-67466187D01*
X91649064Y-67443567D01*
X91812456Y-67413024D01*
X92002637Y-67339348D01*
X92176041Y-67231981D01*
X92294313Y-67124162D01*
X92326763Y-67094580D01*
X92326764Y-67094579D01*
X92449673Y-66931821D01*
X92465000Y-66901039D01*
X92512502Y-66849804D01*
X92580165Y-66832382D01*
X92646505Y-66854307D01*
X92690461Y-66908618D01*
X92700000Y-66956312D01*
X92700000Y-67244518D01*
X92700354Y-67251132D01*
X92706400Y-67307371D01*
X92756647Y-67442089D01*
X92842811Y-67557188D01*
X92957910Y-67643352D01*
X93092628Y-67693599D01*
X93148867Y-67699645D01*
X93155482Y-67700000D01*
X93800000Y-67700000D01*
X93800000Y-66785501D01*
X93907685Y-66834680D01*
X94014237Y-66850000D01*
X94085763Y-66850000D01*
X94192315Y-66834680D01*
X94300000Y-66785501D01*
X94300000Y-67700000D01*
X94944518Y-67700000D01*
X94951132Y-67699645D01*
X95007371Y-67693599D01*
X95142089Y-67643352D01*
X95257188Y-67557188D01*
X95343352Y-67442089D01*
X95393599Y-67307371D01*
X95399645Y-67251132D01*
X95400000Y-67244518D01*
X95400000Y-66600000D01*
X94483686Y-66600000D01*
X94509493Y-66559844D01*
X94550000Y-66421889D01*
X94550000Y-66278111D01*
X94509493Y-66140156D01*
X94483686Y-66100000D01*
X95400000Y-66100000D01*
X95400000Y-65455481D01*
X95399645Y-65448867D01*
X95393599Y-65392628D01*
X95343352Y-65257910D01*
X95257188Y-65142811D01*
X95142089Y-65056647D01*
X95007371Y-65006400D01*
X94951132Y-65000354D01*
X94944518Y-65000000D01*
X94300000Y-65000000D01*
X94300000Y-65914498D01*
X94192315Y-65865320D01*
X94085763Y-65850000D01*
X94014237Y-65850000D01*
X93907685Y-65865320D01*
X93800000Y-65914498D01*
X93800000Y-65000000D01*
X93155482Y-65000000D01*
X93148867Y-65000354D01*
X93092628Y-65006400D01*
X92957910Y-65056647D01*
X92842811Y-65142811D01*
X92756647Y-65257910D01*
X92706400Y-65392628D01*
X92700354Y-65448867D01*
X92700000Y-65455481D01*
X92700000Y-65743687D01*
X92680315Y-65810726D01*
X92627511Y-65856481D01*
X92558353Y-65866425D01*
X92494797Y-65837400D01*
X92465000Y-65798959D01*
X92449673Y-65768179D01*
X92326763Y-65605419D01*
X92176041Y-65468018D01*
X92002638Y-65360652D01*
X91812457Y-65286976D01*
X91745629Y-65274484D01*
X91611976Y-65249500D01*
X91408024Y-65249500D01*
X91307783Y-65268238D01*
X91207542Y-65286976D01*
X91017361Y-65360652D01*
X90843958Y-65468018D01*
X90693236Y-65605419D01*
X90570324Y-65768181D01*
X90479418Y-65950748D01*
X90423602Y-66146916D01*
X90418662Y-66200233D01*
X90392875Y-66265170D01*
X90336075Y-66305857D01*
X90266294Y-66309377D01*
X90207510Y-66276472D01*
X90070594Y-66139556D01*
X90039010Y-66085812D01*
X90000582Y-65950750D01*
X89989927Y-65929351D01*
X89909675Y-65768181D01*
X89786763Y-65605419D01*
X89636041Y-65468018D01*
X89462638Y-65360652D01*
X89424704Y-65345956D01*
X89369303Y-65303382D01*
X89345714Y-65237615D01*
X89345500Y-65230330D01*
X89345500Y-64950000D01*
X99294721Y-64950000D01*
X99313763Y-65106818D01*
X99369780Y-65254523D01*
X99459515Y-65384528D01*
X99459516Y-65384529D01*
X99459517Y-65384530D01*
X99577760Y-65489283D01*
X99693445Y-65550000D01*
X99717635Y-65562696D01*
X99871015Y-65600500D01*
X100018101Y-65600500D01*
X100085140Y-65620185D01*
X100105782Y-65636819D01*
X103047850Y-68578887D01*
X103063977Y-68598746D01*
X103069915Y-68607835D01*
X103094894Y-68627277D01*
X103106412Y-68637449D01*
X103106481Y-68637518D01*
X103123389Y-68649590D01*
X103127494Y-68652650D01*
X103168811Y-68684809D01*
X103168812Y-68684809D01*
X103175043Y-68689659D01*
X103175234Y-68689757D01*
X103182800Y-68692009D01*
X103182801Y-68692010D01*
X103232955Y-68706941D01*
X103237792Y-68708490D01*
X103287340Y-68725500D01*
X103294797Y-68728060D01*
X103295030Y-68728093D01*
X103302909Y-68727767D01*
X103302912Y-68727768D01*
X103355193Y-68725605D01*
X103360316Y-68725500D01*
X109329497Y-68725500D01*
X109396536Y-68745185D01*
X109417178Y-68761819D01*
X113309669Y-72654310D01*
X113343154Y-72715633D01*
X113338170Y-72785325D01*
X113325091Y-72810881D01*
X113319399Y-72819398D01*
X113319399Y-72819399D01*
X113290689Y-72862368D01*
X113264033Y-72902261D01*
X113249500Y-72975325D01*
X113249500Y-74324674D01*
X113264033Y-74397738D01*
X113264033Y-74397739D01*
X113264034Y-74397740D01*
X113319399Y-74480601D01*
X113402260Y-74535966D01*
X113438792Y-74543232D01*
X113475325Y-74550500D01*
X113475326Y-74550500D01*
X115074675Y-74550500D01*
X115099029Y-74545655D01*
X115147740Y-74535966D01*
X115230601Y-74480601D01*
X115285966Y-74397740D01*
X115300500Y-74324674D01*
X115300499Y-73530897D01*
X115320183Y-73463859D01*
X115372987Y-73418104D01*
X115442146Y-73408160D01*
X115505702Y-73437185D01*
X115512180Y-73443217D01*
X116922850Y-74853887D01*
X116938977Y-74873746D01*
X116944916Y-74882836D01*
X116950655Y-74887303D01*
X116969894Y-74902277D01*
X116981412Y-74912449D01*
X116981481Y-74912518D01*
X116998389Y-74924590D01*
X117002494Y-74927650D01*
X117043811Y-74959809D01*
X117043812Y-74959809D01*
X117050043Y-74964659D01*
X117050234Y-74964757D01*
X117057800Y-74967009D01*
X117057801Y-74967010D01*
X117107955Y-74981941D01*
X117112792Y-74983490D01*
X117162340Y-75000500D01*
X117169797Y-75003060D01*
X117170030Y-75003093D01*
X117177909Y-75002767D01*
X117177912Y-75002768D01*
X117230193Y-75000605D01*
X117235316Y-75000500D01*
X128123195Y-75000500D01*
X128148641Y-75003139D01*
X128152440Y-75003935D01*
X128159268Y-75005367D01*
X128189138Y-75001643D01*
X128190677Y-75001452D01*
X128206014Y-75000500D01*
X128206111Y-75000500D01*
X128206114Y-75000500D01*
X128226643Y-74997073D01*
X128231659Y-74996342D01*
X128283626Y-74989866D01*
X128283628Y-74989864D01*
X128291457Y-74988889D01*
X128291666Y-74988822D01*
X128298607Y-74985065D01*
X128298610Y-74985065D01*
X128344666Y-74960140D01*
X128349125Y-74957844D01*
X128389762Y-74937978D01*
X128458633Y-74926222D01*
X128522930Y-74953566D01*
X128562236Y-75011331D01*
X128564072Y-75081177D01*
X128531899Y-75137062D01*
X123780781Y-79888181D01*
X123719458Y-79921666D01*
X123693100Y-79924500D01*
X116001805Y-79924500D01*
X115976359Y-79921861D01*
X115965733Y-79919633D01*
X115965732Y-79919633D01*
X115952503Y-79921282D01*
X115934323Y-79923548D01*
X115918986Y-79924500D01*
X115918884Y-79924500D01*
X115898399Y-79927918D01*
X115893332Y-79928657D01*
X115833567Y-79936107D01*
X115833312Y-79936189D01*
X115780370Y-79964838D01*
X115775820Y-79967180D01*
X115721715Y-79993632D01*
X115721505Y-79993788D01*
X115680719Y-80038093D01*
X115677172Y-80041789D01*
X114955781Y-80763181D01*
X114894458Y-80796666D01*
X114868100Y-80799500D01*
X113375325Y-80799500D01*
X113302261Y-80814033D01*
X113219399Y-80869399D01*
X113164033Y-80952261D01*
X113149500Y-81025325D01*
X113149500Y-82674674D01*
X113164033Y-82747738D01*
X113164033Y-82747739D01*
X113164034Y-82747740D01*
X113219399Y-82830601D01*
X113302260Y-82885966D01*
X113333042Y-82892089D01*
X113375325Y-82900500D01*
X113375326Y-82900500D01*
X115424675Y-82900500D01*
X115449029Y-82895655D01*
X115497740Y-82885966D01*
X115580601Y-82830601D01*
X115635966Y-82747740D01*
X115650500Y-82674674D01*
X115650500Y-82100000D01*
X118300000Y-82100000D01*
X118300000Y-82694518D01*
X118300354Y-82701132D01*
X118306400Y-82757371D01*
X118356647Y-82892089D01*
X118442811Y-83007188D01*
X118557910Y-83093352D01*
X118692628Y-83143599D01*
X118748867Y-83149645D01*
X118755482Y-83150000D01*
X119550000Y-83150000D01*
X119550000Y-83149999D01*
X120049999Y-83149999D01*
X120050000Y-83150000D01*
X120844518Y-83150000D01*
X120851132Y-83149645D01*
X120907371Y-83143599D01*
X121042089Y-83093352D01*
X121157188Y-83007188D01*
X121243352Y-82892089D01*
X121293599Y-82757371D01*
X121299645Y-82701132D01*
X121300000Y-82694518D01*
X121300000Y-82100000D01*
X120050000Y-82100000D01*
X120049999Y-83149999D01*
X119550000Y-83149999D01*
X119550000Y-82100000D01*
X118300000Y-82100000D01*
X115650500Y-82100000D01*
X115650500Y-81181898D01*
X115670185Y-81114860D01*
X115686819Y-81094218D01*
X116069219Y-80711819D01*
X116130542Y-80678334D01*
X116156900Y-80675500D01*
X118227440Y-80675500D01*
X118294479Y-80695185D01*
X118340234Y-80747989D01*
X118350178Y-80817147D01*
X118343622Y-80842834D01*
X118306400Y-80942628D01*
X118300354Y-80998867D01*
X118300000Y-81005481D01*
X118300000Y-81600000D01*
X121300000Y-81600000D01*
X121300000Y-81005481D01*
X121299706Y-81000000D01*
X125494356Y-81000000D01*
X125514891Y-81247816D01*
X125514891Y-81247819D01*
X125514892Y-81247821D01*
X125575937Y-81488881D01*
X125578410Y-81494518D01*
X125675825Y-81716604D01*
X125675827Y-81716607D01*
X125811836Y-81924785D01*
X125980256Y-82107738D01*
X125980259Y-82107740D01*
X126176485Y-82260470D01*
X126176487Y-82260471D01*
X126176491Y-82260474D01*
X126395190Y-82378828D01*
X126630386Y-82459571D01*
X126875665Y-82500500D01*
X127124335Y-82500500D01*
X127369614Y-82459571D01*
X127604810Y-82378828D01*
X127823509Y-82260474D01*
X128019744Y-82107738D01*
X128188164Y-81924785D01*
X128324173Y-81716607D01*
X128424063Y-81488881D01*
X128485108Y-81247821D01*
X128505643Y-81000000D01*
X128485108Y-80752179D01*
X128424063Y-80511119D01*
X128324173Y-80283393D01*
X128188164Y-80075215D01*
X128019744Y-79892262D01*
X127966918Y-79851146D01*
X127823514Y-79739529D01*
X127823510Y-79739526D01*
X127823509Y-79739526D01*
X127604810Y-79621172D01*
X127604806Y-79621170D01*
X127604805Y-79621170D01*
X127369615Y-79540429D01*
X127124335Y-79499500D01*
X126875665Y-79499500D01*
X126630384Y-79540429D01*
X126395194Y-79621170D01*
X126176485Y-79739529D01*
X125980259Y-79892259D01*
X125980256Y-79892261D01*
X125980256Y-79892262D01*
X125881462Y-79999581D01*
X125811837Y-80075214D01*
X125675825Y-80283395D01*
X125602746Y-80450000D01*
X125575937Y-80511119D01*
X125529325Y-80695185D01*
X125514891Y-80752183D01*
X125494356Y-81000000D01*
X121299706Y-81000000D01*
X121299645Y-80998867D01*
X121293599Y-80942628D01*
X121256378Y-80842834D01*
X121251394Y-80773142D01*
X121284879Y-80711819D01*
X121346202Y-80678334D01*
X121372560Y-80675500D01*
X123848195Y-80675500D01*
X123873641Y-80678139D01*
X123877440Y-80678935D01*
X123884268Y-80680367D01*
X123914138Y-80676643D01*
X123915677Y-80676452D01*
X123931014Y-80675500D01*
X123931111Y-80675500D01*
X123931114Y-80675500D01*
X123951643Y-80672073D01*
X123956659Y-80671342D01*
X124008626Y-80664866D01*
X124008628Y-80664864D01*
X124016457Y-80663889D01*
X124016666Y-80663822D01*
X124023607Y-80660065D01*
X124023610Y-80660065D01*
X124069666Y-80635140D01*
X124074144Y-80632835D01*
X124121211Y-80609826D01*
X124121212Y-80609824D01*
X124128308Y-80606356D01*
X124128476Y-80606230D01*
X124133824Y-80600419D01*
X124133826Y-80600419D01*
X124169294Y-80561889D01*
X124172795Y-80558240D01*
X130406362Y-74324674D01*
X133024500Y-74324674D01*
X133039033Y-74397738D01*
X133039033Y-74397739D01*
X133039034Y-74397740D01*
X133094399Y-74480601D01*
X133177260Y-74535966D01*
X133213792Y-74543232D01*
X133250325Y-74550500D01*
X133250326Y-74550500D01*
X134849675Y-74550500D01*
X134874029Y-74545655D01*
X134922740Y-74535966D01*
X135005601Y-74480601D01*
X135060966Y-74397740D01*
X135075500Y-74324674D01*
X135075500Y-72975326D01*
X135060966Y-72902260D01*
X135005601Y-72819399D01*
X134922740Y-72764034D01*
X134922739Y-72764033D01*
X134922738Y-72764033D01*
X134849675Y-72749500D01*
X134849674Y-72749500D01*
X133250326Y-72749500D01*
X133250325Y-72749500D01*
X133177261Y-72764033D01*
X133094399Y-72819399D01*
X133039033Y-72902261D01*
X133024500Y-72975325D01*
X133024500Y-74324674D01*
X130406362Y-74324674D01*
X130828892Y-73902144D01*
X130848743Y-73886024D01*
X130857836Y-73880084D01*
X130877280Y-73855101D01*
X130887453Y-73843584D01*
X130887520Y-73843518D01*
X130899619Y-73826570D01*
X130902641Y-73822515D01*
X130934809Y-73781189D01*
X130934810Y-73781185D01*
X130939666Y-73774947D01*
X130939753Y-73774778D01*
X130942008Y-73767200D01*
X130942010Y-73767199D01*
X130956951Y-73717009D01*
X130958479Y-73712238D01*
X130975500Y-73662660D01*
X130975500Y-73662655D01*
X130978060Y-73655199D01*
X130978093Y-73654970D01*
X130977767Y-73647090D01*
X130977768Y-73647088D01*
X130975605Y-73594806D01*
X130975500Y-73589684D01*
X130975500Y-69400000D01*
X132775000Y-69400000D01*
X132775000Y-69844518D01*
X132775354Y-69851132D01*
X132781400Y-69907371D01*
X132831647Y-70042089D01*
X132917811Y-70157188D01*
X133032910Y-70243352D01*
X133167628Y-70293599D01*
X133223867Y-70299645D01*
X133230482Y-70300000D01*
X133800000Y-70300000D01*
X133800000Y-69400000D01*
X134300000Y-69400000D01*
X134300000Y-70300000D01*
X134869518Y-70300000D01*
X134876132Y-70299645D01*
X134932371Y-70293599D01*
X135067089Y-70243352D01*
X135182188Y-70157188D01*
X135268352Y-70042089D01*
X135318599Y-69907371D01*
X135324645Y-69851132D01*
X135325000Y-69844518D01*
X135325000Y-69400000D01*
X134300000Y-69400000D01*
X133800000Y-69400000D01*
X132775000Y-69400000D01*
X130975500Y-69400000D01*
X130975500Y-68900000D01*
X132775000Y-68900000D01*
X133800000Y-68900000D01*
X133800000Y-68000000D01*
X134300000Y-68000000D01*
X134300000Y-68900000D01*
X135325000Y-68900000D01*
X135325000Y-68455481D01*
X135324645Y-68448867D01*
X135318599Y-68392628D01*
X135268352Y-68257910D01*
X135182188Y-68142811D01*
X135067089Y-68056647D01*
X134932371Y-68006400D01*
X134876132Y-68000354D01*
X134869518Y-68000000D01*
X134300000Y-68000000D01*
X133800000Y-68000000D01*
X133230482Y-68000000D01*
X133223867Y-68000354D01*
X133167628Y-68006400D01*
X133032910Y-68056647D01*
X132917811Y-68142811D01*
X132831647Y-68257910D01*
X132781400Y-68392628D01*
X132775354Y-68448867D01*
X132775000Y-68455481D01*
X132775000Y-68900000D01*
X130975500Y-68900000D01*
X130975500Y-63000000D01*
X135143138Y-63000000D01*
X135163560Y-63285517D01*
X135224405Y-63565220D01*
X135324438Y-63833422D01*
X135461620Y-64084652D01*
X135499539Y-64135305D01*
X135633163Y-64313806D01*
X135835570Y-64516213D01*
X136003431Y-64641872D01*
X136064723Y-64687755D01*
X136315953Y-64824937D01*
X136494754Y-64891625D01*
X136584154Y-64924970D01*
X136863859Y-64985816D01*
X137149376Y-65006237D01*
X137434893Y-64985816D01*
X137714598Y-64924970D01*
X137893397Y-64858281D01*
X137982798Y-64824937D01*
X138223326Y-64693599D01*
X138234030Y-64687754D01*
X138463182Y-64516213D01*
X138665589Y-64313806D01*
X138837130Y-64084654D01*
X138891803Y-63984528D01*
X138974313Y-63833422D01*
X139021533Y-63706818D01*
X139074346Y-63565222D01*
X139135192Y-63285517D01*
X139155613Y-63000000D01*
X139135192Y-62714483D01*
X139074346Y-62434778D01*
X139026875Y-62307504D01*
X138974313Y-62166577D01*
X138837131Y-61915347D01*
X138769892Y-61825527D01*
X138665589Y-61686194D01*
X138463182Y-61483787D01*
X138331313Y-61385071D01*
X138234028Y-61312244D01*
X137982798Y-61175062D01*
X137714596Y-61075029D01*
X137434893Y-61014184D01*
X137149376Y-60993762D01*
X136863858Y-61014184D01*
X136584155Y-61075029D01*
X136315953Y-61175062D01*
X136064723Y-61312244D01*
X135835567Y-61483789D01*
X135633165Y-61686191D01*
X135461620Y-61915347D01*
X135324438Y-62166577D01*
X135224405Y-62434779D01*
X135163560Y-62714482D01*
X135143138Y-63000000D01*
X130975500Y-63000000D01*
X130975500Y-58701804D01*
X130978139Y-58676357D01*
X130979239Y-58671111D01*
X130980367Y-58665732D01*
X130976452Y-58634323D01*
X130975500Y-58618986D01*
X130975500Y-58618887D01*
X130972414Y-58600397D01*
X130972075Y-58598369D01*
X130971341Y-58593325D01*
X130963891Y-58533550D01*
X130963821Y-58533332D01*
X130960065Y-58526392D01*
X130960065Y-58526390D01*
X130935148Y-58480348D01*
X130932828Y-58475840D01*
X130909826Y-58428789D01*
X130909825Y-58428788D01*
X130906360Y-58421700D01*
X130906225Y-58421519D01*
X130893619Y-58409914D01*
X130861891Y-58380706D01*
X130858218Y-58377181D01*
X125652149Y-53171111D01*
X125636022Y-53151253D01*
X125635759Y-53150851D01*
X125630084Y-53142164D01*
X125630083Y-53142162D01*
X125605110Y-53122725D01*
X125593593Y-53112554D01*
X125593519Y-53112480D01*
X125576594Y-53100397D01*
X125572480Y-53097330D01*
X125531189Y-53065191D01*
X125531186Y-53065190D01*
X125524963Y-53060346D01*
X125524761Y-53060242D01*
X125517200Y-53057990D01*
X125517199Y-53057990D01*
X125467036Y-53043055D01*
X125462174Y-53041497D01*
X125449440Y-53037126D01*
X125405202Y-53021939D01*
X125404969Y-53021906D01*
X125359910Y-53023769D01*
X125344806Y-53024394D01*
X125339684Y-53024500D01*
X123664000Y-53024500D01*
X123596961Y-53004815D01*
X123551206Y-52952011D01*
X123540000Y-52900500D01*
X123540000Y-52600000D01*
X120990000Y-52600000D01*
X120990000Y-52900500D01*
X120970315Y-52967539D01*
X120917511Y-53013294D01*
X120866000Y-53024500D01*
X120624057Y-53024500D01*
X120557018Y-53004815D01*
X120511263Y-52952011D01*
X120500961Y-52885553D01*
X120501085Y-52884530D01*
X120505278Y-52850000D01*
X120486237Y-52693182D01*
X120430220Y-52545477D01*
X120378894Y-52471118D01*
X120340484Y-52415471D01*
X120298208Y-52378018D01*
X120222240Y-52310717D01*
X120188830Y-52293182D01*
X120082364Y-52237303D01*
X119928985Y-52199500D01*
X119771015Y-52199500D01*
X119617635Y-52237303D01*
X119477761Y-52310716D01*
X119359515Y-52415471D01*
X119269780Y-52545476D01*
X119213763Y-52693181D01*
X119194721Y-52850000D01*
X119213763Y-53006818D01*
X119269780Y-53154523D01*
X119359515Y-53284528D01*
X119359516Y-53284529D01*
X119359517Y-53284530D01*
X119477760Y-53389283D01*
X119580779Y-53443352D01*
X119617635Y-53462696D01*
X119771015Y-53500500D01*
X119918101Y-53500500D01*
X119985140Y-53520185D01*
X120005782Y-53536819D01*
X120097850Y-53628887D01*
X120113977Y-53648746D01*
X120118376Y-53655480D01*
X120119916Y-53657836D01*
X120144894Y-53677277D01*
X120156412Y-53687449D01*
X120156481Y-53687518D01*
X120173389Y-53699590D01*
X120177499Y-53702654D01*
X120225044Y-53739660D01*
X120225233Y-53739757D01*
X120232801Y-53742010D01*
X120282959Y-53756943D01*
X120287819Y-53758499D01*
X120337340Y-53775500D01*
X120337342Y-53775500D01*
X120344796Y-53778059D01*
X120345029Y-53778093D01*
X120352908Y-53777767D01*
X120352911Y-53777768D01*
X120405192Y-53775605D01*
X120410315Y-53775500D01*
X125143101Y-53775500D01*
X125210140Y-53795185D01*
X125230782Y-53811819D01*
X129113681Y-57694718D01*
X129147166Y-57756041D01*
X129150000Y-57782399D01*
X129150000Y-60300000D01*
X129594518Y-60300000D01*
X129601132Y-60299645D01*
X129657371Y-60293599D01*
X129792089Y-60243352D01*
X129907190Y-60157187D01*
X130001232Y-60031562D01*
X130057165Y-59989690D01*
X130126857Y-59984706D01*
X130188180Y-60018190D01*
X130221665Y-60079513D01*
X130224499Y-60105872D01*
X130224499Y-65894126D01*
X130204814Y-65961165D01*
X130152010Y-66006920D01*
X130082852Y-66016864D01*
X130019296Y-65987839D01*
X130001232Y-65968437D01*
X129907188Y-65842811D01*
X129792089Y-65756647D01*
X129657371Y-65706400D01*
X129601132Y-65700354D01*
X129594518Y-65700000D01*
X129150000Y-65700000D01*
X129150000Y-68250000D01*
X129594518Y-68250000D01*
X129601132Y-68249645D01*
X129657371Y-68243599D01*
X129792089Y-68193352D01*
X129907190Y-68107187D01*
X130001232Y-67981563D01*
X130057165Y-67939691D01*
X130126857Y-67934707D01*
X130188180Y-67968192D01*
X130221665Y-68029515D01*
X130224499Y-68055873D01*
X130224499Y-73393100D01*
X130204814Y-73460139D01*
X130188180Y-73480781D01*
X129757753Y-73911207D01*
X129696430Y-73944692D01*
X129626738Y-73939708D01*
X129570805Y-73897836D01*
X129546388Y-73832372D01*
X129561240Y-73764099D01*
X129572211Y-73747374D01*
X129584809Y-73731189D01*
X129584810Y-73731185D01*
X129589668Y-73724944D01*
X129589753Y-73724779D01*
X129592539Y-73715421D01*
X129606954Y-73667001D01*
X129608491Y-73662202D01*
X129625500Y-73612660D01*
X129625500Y-73612658D01*
X129628062Y-73605196D01*
X129628095Y-73604967D01*
X129625605Y-73544791D01*
X129625499Y-73539664D01*
X129625499Y-72816180D01*
X129625499Y-72142198D01*
X129645184Y-72075163D01*
X129667269Y-72049390D01*
X129740483Y-71984530D01*
X129830220Y-71854523D01*
X129886237Y-71706818D01*
X129905278Y-71550000D01*
X129886237Y-71393182D01*
X129830220Y-71245477D01*
X129740483Y-71115470D01*
X129622240Y-71010717D01*
X129565696Y-70981040D01*
X129482364Y-70937303D01*
X129328985Y-70899500D01*
X129171015Y-70899500D01*
X129017635Y-70937303D01*
X128877761Y-71010716D01*
X128759515Y-71115471D01*
X128669780Y-71245476D01*
X128613763Y-71393181D01*
X128594721Y-71550000D01*
X128613763Y-71706818D01*
X128669780Y-71854523D01*
X128759515Y-71984528D01*
X128759516Y-71984529D01*
X128759517Y-71984530D01*
X128832727Y-72049387D01*
X128869853Y-72108574D01*
X128874500Y-72142202D01*
X128874500Y-73343100D01*
X128854815Y-73410139D01*
X128838181Y-73430781D01*
X128055781Y-74213181D01*
X127994458Y-74246666D01*
X127968100Y-74249500D01*
X127249500Y-74249500D01*
X127182461Y-74229815D01*
X127136706Y-74177011D01*
X127125500Y-74125500D01*
X127125500Y-72975325D01*
X127110966Y-72902261D01*
X127110966Y-72902260D01*
X127055601Y-72819399D01*
X126972740Y-72764034D01*
X126972739Y-72764033D01*
X126972738Y-72764033D01*
X126899675Y-72749500D01*
X126899674Y-72749500D01*
X125300326Y-72749500D01*
X125300325Y-72749500D01*
X125227261Y-72764033D01*
X125144399Y-72819399D01*
X125089033Y-72902261D01*
X125074500Y-72975325D01*
X125074500Y-73150500D01*
X125054815Y-73217539D01*
X125002011Y-73263294D01*
X124950500Y-73274500D01*
X124856899Y-73274500D01*
X124789860Y-73254815D01*
X124769218Y-73238181D01*
X121990699Y-70459662D01*
X121957214Y-70398339D01*
X121962198Y-70328647D01*
X121975000Y-70308727D01*
X121975000Y-69400000D01*
X122475000Y-69400000D01*
X122475000Y-70300000D01*
X123044518Y-70300000D01*
X123051132Y-70299645D01*
X123107371Y-70293599D01*
X123242089Y-70243352D01*
X123357188Y-70157188D01*
X123443352Y-70042089D01*
X123493599Y-69907371D01*
X123499645Y-69851132D01*
X123500000Y-69844518D01*
X123500000Y-69400000D01*
X124825000Y-69400000D01*
X124825000Y-69844518D01*
X124825354Y-69851132D01*
X124831400Y-69907371D01*
X124881647Y-70042089D01*
X124967811Y-70157188D01*
X125082910Y-70243352D01*
X125217628Y-70293599D01*
X125273867Y-70299645D01*
X125280482Y-70300000D01*
X125850000Y-70300000D01*
X125850000Y-69400000D01*
X126350000Y-69400000D01*
X126350000Y-70300000D01*
X126919518Y-70300000D01*
X126926132Y-70299645D01*
X126982371Y-70293599D01*
X127117089Y-70243352D01*
X127232188Y-70157188D01*
X127318352Y-70042089D01*
X127368599Y-69907371D01*
X127374645Y-69851132D01*
X127375000Y-69844518D01*
X127375000Y-69400000D01*
X126350000Y-69400000D01*
X125850000Y-69400000D01*
X124825000Y-69400000D01*
X123500000Y-69400000D01*
X122475000Y-69400000D01*
X121975000Y-69400000D01*
X120982399Y-69400000D01*
X120915360Y-69380315D01*
X120894718Y-69363681D01*
X120431037Y-68900000D01*
X120950000Y-68900000D01*
X121975000Y-68900000D01*
X121975000Y-68000000D01*
X122475000Y-68000000D01*
X122475000Y-68900000D01*
X123500000Y-68900000D01*
X123500000Y-68455481D01*
X123499645Y-68448867D01*
X123493599Y-68392628D01*
X123443352Y-68257910D01*
X123357188Y-68142811D01*
X123242089Y-68056647D01*
X123107371Y-68006400D01*
X123051132Y-68000354D01*
X123044518Y-68000000D01*
X122475000Y-68000000D01*
X121975000Y-68000000D01*
X121405482Y-68000000D01*
X121398867Y-68000354D01*
X121342628Y-68006400D01*
X121207910Y-68056647D01*
X121092811Y-68142811D01*
X121006647Y-68257910D01*
X120956400Y-68392628D01*
X120950354Y-68448867D01*
X120950000Y-68455481D01*
X120950000Y-68900000D01*
X120431037Y-68900000D01*
X119305711Y-67774674D01*
X123499500Y-67774674D01*
X123514033Y-67847738D01*
X123514033Y-67847739D01*
X123514034Y-67847740D01*
X123569399Y-67930601D01*
X123652260Y-67985966D01*
X123680056Y-67991495D01*
X123725325Y-68000500D01*
X124826623Y-68000500D01*
X124893662Y-68020185D01*
X124939417Y-68072989D01*
X124949361Y-68142147D01*
X124925890Y-68198811D01*
X124881647Y-68257911D01*
X124831400Y-68392628D01*
X124825354Y-68448867D01*
X124825000Y-68455481D01*
X124825000Y-68900000D01*
X125850000Y-68900000D01*
X125850000Y-68000000D01*
X126350000Y-68000000D01*
X126350000Y-68900000D01*
X127375000Y-68900000D01*
X127375000Y-68455481D01*
X127374645Y-68448867D01*
X127368599Y-68392628D01*
X127318352Y-68257910D01*
X127232188Y-68142811D01*
X127117089Y-68056647D01*
X126982371Y-68006400D01*
X126926132Y-68000354D01*
X126919518Y-68000000D01*
X126350000Y-68000000D01*
X125850000Y-68000000D01*
X125406774Y-68000000D01*
X125339735Y-67980315D01*
X125293980Y-67927511D01*
X125284036Y-67858353D01*
X125285157Y-67851808D01*
X125300500Y-67774674D01*
X125300500Y-67225000D01*
X127750000Y-67225000D01*
X127750000Y-67794518D01*
X127750354Y-67801132D01*
X127756400Y-67857371D01*
X127806647Y-67992089D01*
X127892811Y-68107188D01*
X128007910Y-68193352D01*
X128142628Y-68243599D01*
X128198867Y-68249645D01*
X128205482Y-68250000D01*
X128649999Y-68250000D01*
X128650000Y-67225000D01*
X127750000Y-67225000D01*
X125300500Y-67225000D01*
X125300500Y-66724999D01*
X127749999Y-66724999D01*
X127750000Y-66725000D01*
X128650000Y-66725000D01*
X128649999Y-66724999D01*
X128650000Y-65700000D01*
X128205482Y-65700000D01*
X128198867Y-65700354D01*
X128142628Y-65706400D01*
X128007910Y-65756647D01*
X127892811Y-65842811D01*
X127806647Y-65957910D01*
X127756400Y-66092628D01*
X127750354Y-66148867D01*
X127750000Y-66155481D01*
X127749999Y-66724999D01*
X125300500Y-66724999D01*
X125300500Y-66175325D01*
X125285966Y-66102261D01*
X125285966Y-66102260D01*
X125230601Y-66019399D01*
X125147740Y-65964034D01*
X125147739Y-65964033D01*
X125147738Y-65964033D01*
X125074675Y-65949500D01*
X125074674Y-65949500D01*
X123725326Y-65949500D01*
X123725325Y-65949500D01*
X123652261Y-65964033D01*
X123569399Y-66019399D01*
X123514033Y-66102261D01*
X123499500Y-66175325D01*
X123499500Y-67774674D01*
X119305711Y-67774674D01*
X118361818Y-66830781D01*
X118328333Y-66769458D01*
X118325499Y-66743100D01*
X118325499Y-65230330D01*
X118325499Y-63692198D01*
X118345184Y-63625163D01*
X118367269Y-63599390D01*
X118440483Y-63534530D01*
X118530220Y-63404523D01*
X118586237Y-63256818D01*
X118605278Y-63100000D01*
X118586237Y-62943182D01*
X118530220Y-62795477D01*
X118451552Y-62681506D01*
X118440484Y-62665471D01*
X118440483Y-62665470D01*
X118322240Y-62560717D01*
X118278490Y-62537755D01*
X118182364Y-62487303D01*
X118028985Y-62449500D01*
X117871015Y-62449500D01*
X117717635Y-62487303D01*
X117577761Y-62560716D01*
X117459515Y-62665471D01*
X117369780Y-62795476D01*
X117313763Y-62943181D01*
X117294721Y-63099999D01*
X117313763Y-63256818D01*
X117369780Y-63404523D01*
X117459515Y-63534528D01*
X117459516Y-63534529D01*
X117459517Y-63534530D01*
X117532727Y-63599387D01*
X117569853Y-63658574D01*
X117574500Y-63692202D01*
X117574500Y-66898196D01*
X117571861Y-66923642D01*
X117569633Y-66934267D01*
X117573548Y-66965676D01*
X117574500Y-66981013D01*
X117574500Y-66981116D01*
X117577918Y-67001602D01*
X117578657Y-67006670D01*
X117586107Y-67066438D01*
X117586185Y-67066682D01*
X117614827Y-67119608D01*
X117617171Y-67124162D01*
X117643634Y-67178292D01*
X117643777Y-67178482D01*
X117649579Y-67183824D01*
X117649581Y-67183826D01*
X117688108Y-67219293D01*
X117691780Y-67222817D01*
X123006781Y-72537819D01*
X123040266Y-72599142D01*
X123035282Y-72668834D01*
X122993410Y-72724767D01*
X122927946Y-72749184D01*
X122919100Y-72749500D01*
X121425325Y-72749500D01*
X121352261Y-72764033D01*
X121269399Y-72819399D01*
X121214033Y-72902261D01*
X121199499Y-72975325D01*
X121199500Y-74125500D01*
X121179815Y-74192539D01*
X121127011Y-74238294D01*
X121075500Y-74249500D01*
X117431899Y-74249500D01*
X117364860Y-74229815D01*
X117344218Y-74213181D01*
X113642718Y-70511681D01*
X113609233Y-70450358D01*
X113614217Y-70380666D01*
X113656089Y-70324733D01*
X113721553Y-70300316D01*
X113730399Y-70300000D01*
X114025000Y-70300000D01*
X114025000Y-69400000D01*
X114525000Y-69400000D01*
X114525000Y-70300000D01*
X115094518Y-70300000D01*
X115101132Y-70299645D01*
X115157371Y-70293599D01*
X115292089Y-70243352D01*
X115407188Y-70157188D01*
X115493352Y-70042089D01*
X115543599Y-69907371D01*
X115549645Y-69851132D01*
X115550000Y-69844518D01*
X115550000Y-69400000D01*
X114525000Y-69400000D01*
X114025000Y-69400000D01*
X113000000Y-69400000D01*
X113000000Y-69569600D01*
X112980315Y-69636639D01*
X112927511Y-69682394D01*
X112858353Y-69692338D01*
X112794797Y-69663313D01*
X112788319Y-69657281D01*
X111602719Y-68471681D01*
X111569234Y-68410358D01*
X111574218Y-68340666D01*
X111616090Y-68284733D01*
X111681554Y-68260316D01*
X111690400Y-68260000D01*
X111850000Y-68260000D01*
X111850000Y-67235000D01*
X112350000Y-67235000D01*
X112350000Y-68260000D01*
X112794518Y-68260000D01*
X112801130Y-68259645D01*
X112870271Y-68252212D01*
X112939031Y-68264617D01*
X112990168Y-68312227D01*
X113007448Y-68379926D01*
X113006817Y-68388754D01*
X113000353Y-68448880D01*
X113000000Y-68455481D01*
X113000000Y-68900000D01*
X114025000Y-68900000D01*
X114025000Y-68000000D01*
X114525000Y-68000000D01*
X114525000Y-68900000D01*
X115550000Y-68900000D01*
X115550000Y-68455481D01*
X115549645Y-68448867D01*
X115543599Y-68392628D01*
X115493352Y-68257910D01*
X115407188Y-68142811D01*
X115292089Y-68056647D01*
X115157371Y-68006400D01*
X115101132Y-68000354D01*
X115094518Y-68000000D01*
X114525000Y-68000000D01*
X114025000Y-68000000D01*
X113455482Y-68000000D01*
X113448882Y-68000353D01*
X113379726Y-68007788D01*
X113310966Y-67995381D01*
X113259830Y-67947771D01*
X113242551Y-67880071D01*
X113243183Y-67871243D01*
X113249645Y-67811132D01*
X113250000Y-67804518D01*
X113250000Y-67235000D01*
X112350000Y-67235000D01*
X111850000Y-67235000D01*
X110950000Y-67235000D01*
X110950000Y-67519600D01*
X110930315Y-67586639D01*
X110877511Y-67632394D01*
X110808353Y-67642338D01*
X110744797Y-67613313D01*
X110738319Y-67607281D01*
X109866037Y-66734999D01*
X110949999Y-66734999D01*
X110950000Y-66735000D01*
X111850000Y-66735000D01*
X111850000Y-65710000D01*
X111405482Y-65710000D01*
X111398867Y-65710354D01*
X111342628Y-65716400D01*
X111207910Y-65766647D01*
X111092811Y-65852811D01*
X111006647Y-65967910D01*
X110956400Y-66102628D01*
X110950354Y-66158867D01*
X110950000Y-66165481D01*
X110949999Y-66734999D01*
X109866037Y-66734999D01*
X108302149Y-65171111D01*
X108286022Y-65151253D01*
X108280083Y-65142162D01*
X108255110Y-65122725D01*
X108243593Y-65112554D01*
X108243519Y-65112480D01*
X108226594Y-65100397D01*
X108222480Y-65097330D01*
X108181189Y-65065191D01*
X108181186Y-65065190D01*
X108174963Y-65060346D01*
X108174761Y-65060242D01*
X108167200Y-65057990D01*
X108167199Y-65057990D01*
X108117036Y-65043055D01*
X108112174Y-65041497D01*
X108100780Y-65037586D01*
X108055202Y-65021939D01*
X108054969Y-65021906D01*
X108009910Y-65023769D01*
X107994806Y-65024394D01*
X107989684Y-65024500D01*
X103606899Y-65024500D01*
X103539860Y-65004815D01*
X103519218Y-64988181D01*
X101212544Y-62681506D01*
X101179059Y-62620183D01*
X101184043Y-62550491D01*
X101198172Y-62523389D01*
X101280220Y-62404523D01*
X101336237Y-62256818D01*
X101355278Y-62100000D01*
X101336237Y-61943182D01*
X101280220Y-61795477D01*
X101190483Y-61665470D01*
X101072240Y-61560717D01*
X101035473Y-61541420D01*
X100932364Y-61487303D01*
X100778985Y-61449500D01*
X100621015Y-61449500D01*
X100467635Y-61487303D01*
X100327761Y-61560716D01*
X100209515Y-61665471D01*
X100119780Y-61795476D01*
X100063763Y-61943181D01*
X100044721Y-62099999D01*
X100063763Y-62256818D01*
X100119780Y-62404523D01*
X100209515Y-62534528D01*
X100209516Y-62534529D01*
X100209517Y-62534530D01*
X100277288Y-62594569D01*
X100314415Y-62653757D01*
X100318110Y-62672048D01*
X100323548Y-62715676D01*
X100324500Y-62731013D01*
X100324500Y-62731116D01*
X100327918Y-62751602D01*
X100328657Y-62756670D01*
X100336107Y-62816438D01*
X100336185Y-62816682D01*
X100364827Y-62869608D01*
X100367171Y-62874162D01*
X100393634Y-62928292D01*
X100393777Y-62928482D01*
X100399579Y-62933824D01*
X100399581Y-62933826D01*
X100438108Y-62969293D01*
X100441780Y-62972817D01*
X103097850Y-65628887D01*
X103113977Y-65648746D01*
X103119915Y-65657835D01*
X103124774Y-65661617D01*
X103165587Y-65718328D01*
X103169260Y-65788101D01*
X103134629Y-65848784D01*
X103130838Y-65852285D01*
X103059517Y-65915468D01*
X102969780Y-66045476D01*
X102913763Y-66193181D01*
X102894721Y-66349999D01*
X102913763Y-66506818D01*
X102969780Y-66654523D01*
X103059515Y-66784528D01*
X103059516Y-66784529D01*
X103059517Y-66784530D01*
X103177760Y-66889283D01*
X103317635Y-66962696D01*
X103471015Y-67000500D01*
X103618101Y-67000500D01*
X103685140Y-67020185D01*
X103705782Y-67036819D01*
X103882850Y-67213887D01*
X103898977Y-67233746D01*
X103904915Y-67242836D01*
X103929893Y-67262277D01*
X103941410Y-67272448D01*
X103941481Y-67272519D01*
X103958397Y-67284597D01*
X103962505Y-67287660D01*
X104010041Y-67324659D01*
X104010232Y-67324756D01*
X104017799Y-67327009D01*
X104017801Y-67327010D01*
X104067974Y-67341947D01*
X104072804Y-67343494D01*
X104122340Y-67360500D01*
X104122342Y-67360500D01*
X104129799Y-67363060D01*
X104130033Y-67363094D01*
X104137909Y-67362768D01*
X104137912Y-67362769D01*
X104188227Y-67360687D01*
X104190207Y-67360606D01*
X104195331Y-67360500D01*
X106575500Y-67360500D01*
X106642539Y-67380185D01*
X106688294Y-67432989D01*
X106699500Y-67484500D01*
X106699500Y-67784674D01*
X106707781Y-67826308D01*
X106701555Y-67895899D01*
X106658693Y-67951077D01*
X106592804Y-67974322D01*
X106586165Y-67974500D01*
X103556899Y-67974500D01*
X103489860Y-67954815D01*
X103469218Y-67938181D01*
X100634518Y-65103481D01*
X100601033Y-65042158D01*
X100599103Y-65000852D01*
X100605278Y-64950000D01*
X100586237Y-64793182D01*
X100530220Y-64645477D01*
X100440483Y-64515470D01*
X100322240Y-64410717D01*
X100285189Y-64391271D01*
X100182364Y-64337303D01*
X100028985Y-64299500D01*
X99871015Y-64299500D01*
X99717635Y-64337303D01*
X99577761Y-64410716D01*
X99459515Y-64515471D01*
X99369780Y-64645476D01*
X99313763Y-64793181D01*
X99294721Y-64950000D01*
X89345500Y-64950000D01*
X89345500Y-64268081D01*
X89365185Y-64201042D01*
X89417989Y-64155287D01*
X89487147Y-64145343D01*
X89550703Y-64174368D01*
X89552988Y-64176399D01*
X89587492Y-64207853D01*
X89613961Y-64231983D01*
X89785047Y-64337914D01*
X89787363Y-64339348D01*
X89977544Y-64413024D01*
X90178024Y-64450500D01*
X90178026Y-64450500D01*
X90381974Y-64450500D01*
X90381976Y-64450500D01*
X90582456Y-64413024D01*
X90772637Y-64339348D01*
X90946041Y-64231981D01*
X91030170Y-64155287D01*
X91096763Y-64094580D01*
X91104259Y-64084654D01*
X91219673Y-63931821D01*
X91219673Y-63931819D01*
X91219675Y-63931818D01*
X91297784Y-63774952D01*
X91310582Y-63749250D01*
X91366397Y-63553083D01*
X91385215Y-63350000D01*
X91366397Y-63146917D01*
X91364473Y-63140156D01*
X91308308Y-62942758D01*
X91308894Y-62872891D01*
X91339891Y-62821144D01*
X94849217Y-59311819D01*
X94910541Y-59278334D01*
X94936899Y-59275500D01*
X96064101Y-59275500D01*
X96131140Y-59295185D01*
X96176895Y-59347989D01*
X96186839Y-59417147D01*
X96157814Y-59480703D01*
X96151782Y-59487181D01*
X93345028Y-62293933D01*
X93283705Y-62327418D01*
X93214013Y-62322434D01*
X93212555Y-62321879D01*
X93122459Y-62286977D01*
X93122458Y-62286976D01*
X93122456Y-62286976D01*
X92921976Y-62249500D01*
X92718024Y-62249500D01*
X92623995Y-62267077D01*
X92517542Y-62286976D01*
X92327361Y-62360652D01*
X92153958Y-62468018D01*
X92003236Y-62605419D01*
X91880324Y-62768181D01*
X91789418Y-62950748D01*
X91733602Y-63146916D01*
X91714785Y-63350000D01*
X91733602Y-63553083D01*
X91789418Y-63749251D01*
X91880324Y-63931818D01*
X92003236Y-64094580D01*
X92153958Y-64231981D01*
X92325047Y-64337914D01*
X92327363Y-64339348D01*
X92517544Y-64413024D01*
X92718024Y-64450500D01*
X92718026Y-64450500D01*
X92921974Y-64450500D01*
X92921976Y-64450500D01*
X93122456Y-64413024D01*
X93312637Y-64339348D01*
X93486041Y-64231981D01*
X93570170Y-64155287D01*
X93636763Y-64094580D01*
X93644259Y-64084654D01*
X93759673Y-63931821D01*
X93759673Y-63931819D01*
X93759675Y-63931818D01*
X93837784Y-63774952D01*
X93850582Y-63749250D01*
X93906397Y-63553083D01*
X93925215Y-63350000D01*
X93906397Y-63146917D01*
X93904473Y-63140156D01*
X93848308Y-62942758D01*
X93848894Y-62872891D01*
X93879891Y-62821144D01*
X96889217Y-59811819D01*
X96950541Y-59778334D01*
X96976899Y-59775500D01*
X98104101Y-59775500D01*
X98171140Y-59795185D01*
X98216895Y-59847989D01*
X98226839Y-59917147D01*
X98197814Y-59980703D01*
X98191782Y-59987181D01*
X95885028Y-62293933D01*
X95823705Y-62327418D01*
X95754013Y-62322434D01*
X95752555Y-62321879D01*
X95662459Y-62286977D01*
X95662458Y-62286976D01*
X95662456Y-62286976D01*
X95461976Y-62249500D01*
X95258024Y-62249500D01*
X95163995Y-62267077D01*
X95057542Y-62286976D01*
X94867361Y-62360652D01*
X94693958Y-62468018D01*
X94543236Y-62605419D01*
X94420324Y-62768181D01*
X94329418Y-62950748D01*
X94273602Y-63146916D01*
X94254785Y-63350000D01*
X94273602Y-63553083D01*
X94329418Y-63749251D01*
X94420324Y-63931818D01*
X94543236Y-64094580D01*
X94693958Y-64231981D01*
X94865047Y-64337914D01*
X94867363Y-64339348D01*
X95057544Y-64413024D01*
X95258024Y-64450500D01*
X95258026Y-64450500D01*
X95461974Y-64450500D01*
X95461976Y-64450500D01*
X95662456Y-64413024D01*
X95852637Y-64339348D01*
X96026041Y-64231981D01*
X96110170Y-64155287D01*
X96176763Y-64094580D01*
X96184259Y-64084654D01*
X96299673Y-63931821D01*
X96299673Y-63931819D01*
X96299675Y-63931818D01*
X96377784Y-63774952D01*
X96390582Y-63749250D01*
X96446397Y-63553083D01*
X96465215Y-63350000D01*
X96446397Y-63146917D01*
X96444473Y-63140156D01*
X96388308Y-62942758D01*
X96388894Y-62872891D01*
X96419891Y-62821144D01*
X98929218Y-60311819D01*
X98990542Y-60278334D01*
X99016900Y-60275500D01*
X104910309Y-60275500D01*
X104977348Y-60295185D01*
X104997990Y-60311819D01*
X108215058Y-63528887D01*
X108231185Y-63548746D01*
X108237123Y-63557835D01*
X108262102Y-63577277D01*
X108273620Y-63587449D01*
X108273689Y-63587518D01*
X108290597Y-63599590D01*
X108294702Y-63602650D01*
X108336019Y-63634809D01*
X108336020Y-63634809D01*
X108342251Y-63639659D01*
X108342442Y-63639757D01*
X108350008Y-63642009D01*
X108350009Y-63642010D01*
X108400163Y-63656941D01*
X108405000Y-63658490D01*
X108454548Y-63675500D01*
X108462005Y-63678060D01*
X108462238Y-63678093D01*
X108470117Y-63677767D01*
X108470120Y-63677768D01*
X108522401Y-63675605D01*
X108527524Y-63675500D01*
X113766294Y-63675500D01*
X113833333Y-63695185D01*
X113879088Y-63747989D01*
X113882236Y-63755529D01*
X113919779Y-63854522D01*
X114009515Y-63984528D01*
X114009516Y-63984529D01*
X114009517Y-63984530D01*
X114127760Y-64089283D01*
X114178101Y-64115704D01*
X114228313Y-64164289D01*
X114244287Y-64232308D01*
X114220951Y-64298166D01*
X114165715Y-64340953D01*
X114120474Y-64349500D01*
X113475325Y-64349500D01*
X113402261Y-64364033D01*
X113319399Y-64419399D01*
X113264033Y-64502261D01*
X113249499Y-64575325D01*
X113249499Y-65711622D01*
X113229814Y-65778662D01*
X113177010Y-65824416D01*
X113107852Y-65834360D01*
X113051188Y-65810889D01*
X112992089Y-65766647D01*
X112857371Y-65716400D01*
X112801132Y-65710354D01*
X112794518Y-65710000D01*
X112350000Y-65710000D01*
X112350000Y-66735000D01*
X113250000Y-66735000D01*
X113250000Y-66256773D01*
X113269685Y-66189734D01*
X113322489Y-66143979D01*
X113391647Y-66134035D01*
X113398193Y-66135156D01*
X113402257Y-66135964D01*
X113402260Y-66135966D01*
X113475326Y-66150500D01*
X113475327Y-66150500D01*
X115074675Y-66150500D01*
X115099029Y-66145655D01*
X115147740Y-66135966D01*
X115230601Y-66080601D01*
X115285966Y-65997740D01*
X115300500Y-65924674D01*
X115300500Y-64575326D01*
X115285966Y-64502260D01*
X115230601Y-64419399D01*
X115147740Y-64364034D01*
X115147739Y-64364033D01*
X115147738Y-64364033D01*
X115074675Y-64349500D01*
X115074674Y-64349500D01*
X114879526Y-64349500D01*
X114812487Y-64329815D01*
X114766732Y-64277011D01*
X114756788Y-64207853D01*
X114785813Y-64144297D01*
X114821897Y-64115704D01*
X114872240Y-64089283D01*
X114990483Y-63984530D01*
X115080220Y-63854523D01*
X115136237Y-63706818D01*
X115155278Y-63550000D01*
X115136237Y-63393182D01*
X115080220Y-63245477D01*
X115012189Y-63146916D01*
X114990484Y-63115471D01*
X114973021Y-63100000D01*
X114872240Y-63010717D01*
X114851821Y-63000000D01*
X114732364Y-62937303D01*
X114578985Y-62899500D01*
X114421015Y-62899500D01*
X114421013Y-62899500D01*
X114344181Y-62918436D01*
X114317615Y-62917804D01*
X114317763Y-62921377D01*
X114297088Y-62922232D01*
X114244806Y-62924394D01*
X114239684Y-62924500D01*
X111783326Y-62924500D01*
X111716287Y-62904815D01*
X111670532Y-62852011D01*
X111660588Y-62782853D01*
X111667384Y-62756529D01*
X111668290Y-62754140D01*
X111686237Y-62706818D01*
X111705278Y-62550000D01*
X111686237Y-62393182D01*
X111654525Y-62309566D01*
X111649159Y-62239905D01*
X111682306Y-62178399D01*
X111743444Y-62144577D01*
X111813162Y-62149179D01*
X111852691Y-62172779D01*
X111927760Y-62239283D01*
X112067635Y-62312696D01*
X112221015Y-62350500D01*
X112378985Y-62350500D01*
X112532365Y-62312696D01*
X112672240Y-62239283D01*
X112790483Y-62134530D01*
X112880220Y-62004523D01*
X112936237Y-61856818D01*
X112938704Y-61836494D01*
X112966324Y-61772317D01*
X113024258Y-61733260D01*
X113094111Y-61731724D01*
X113136111Y-61752173D01*
X113257911Y-61843352D01*
X113392628Y-61893599D01*
X113448867Y-61899645D01*
X113455482Y-61900000D01*
X114025000Y-61900000D01*
X114025000Y-61000000D01*
X114525000Y-61000000D01*
X114525000Y-61900000D01*
X115094518Y-61900000D01*
X115101132Y-61899645D01*
X115157371Y-61893599D01*
X115292089Y-61843352D01*
X115407188Y-61757188D01*
X115493352Y-61642089D01*
X115543599Y-61507371D01*
X115549645Y-61451132D01*
X115550000Y-61444518D01*
X115550000Y-61000000D01*
X114525000Y-61000000D01*
X114025000Y-61000000D01*
X113000000Y-61000000D01*
X113000000Y-61175569D01*
X112980315Y-61242608D01*
X112927511Y-61288363D01*
X112858353Y-61298307D01*
X112794797Y-61269282D01*
X112793774Y-61268385D01*
X112672241Y-61160718D01*
X112672240Y-61160717D01*
X112570925Y-61107542D01*
X112532364Y-61087303D01*
X112378985Y-61049500D01*
X112221015Y-61049500D01*
X112067635Y-61087303D01*
X111927761Y-61160716D01*
X111809515Y-61265471D01*
X111805743Y-61270938D01*
X111751462Y-61314929D01*
X111703692Y-61324500D01*
X108396899Y-61324500D01*
X108329860Y-61304815D01*
X108309218Y-61288181D01*
X108021036Y-60999999D01*
X117444721Y-60999999D01*
X117463763Y-61156818D01*
X117519780Y-61304523D01*
X117609515Y-61434528D01*
X117609516Y-61434529D01*
X117609517Y-61434530D01*
X117727760Y-61539283D01*
X117867635Y-61612696D01*
X118021015Y-61650500D01*
X118178985Y-61650500D01*
X118332365Y-61612696D01*
X118472240Y-61539283D01*
X118590483Y-61434530D01*
X118594257Y-61429061D01*
X118648538Y-61385071D01*
X118696308Y-61375500D01*
X118993101Y-61375500D01*
X119060140Y-61395185D01*
X119080782Y-61411819D01*
X121806782Y-64137819D01*
X121840267Y-64199142D01*
X121835283Y-64268834D01*
X121793411Y-64324767D01*
X121727947Y-64349184D01*
X121719101Y-64349500D01*
X121425325Y-64349500D01*
X121352261Y-64364033D01*
X121269399Y-64419399D01*
X121214033Y-64502261D01*
X121199500Y-64575325D01*
X121199500Y-65924674D01*
X121214033Y-65997738D01*
X121214033Y-65997739D01*
X121214034Y-65997740D01*
X121269399Y-66080601D01*
X121352260Y-66135966D01*
X121388792Y-66143232D01*
X121425325Y-66150500D01*
X121425326Y-66150500D01*
X123024675Y-66150500D01*
X123049029Y-66145655D01*
X123097740Y-66135966D01*
X123180601Y-66080601D01*
X123235966Y-65997740D01*
X123250500Y-65924674D01*
X123250500Y-64575326D01*
X123235966Y-64502260D01*
X123180601Y-64419399D01*
X123097740Y-64364034D01*
X123097739Y-64364033D01*
X123097738Y-64364033D01*
X123024675Y-64349500D01*
X123024674Y-64349500D01*
X122724500Y-64349500D01*
X122657461Y-64329815D01*
X122611706Y-64277011D01*
X122600500Y-64225500D01*
X122600500Y-64076804D01*
X122603139Y-64051357D01*
X122604554Y-64044608D01*
X122605367Y-64040732D01*
X122601452Y-64009323D01*
X122600500Y-63993986D01*
X122600500Y-63993887D01*
X122600500Y-63993886D01*
X122597075Y-63973369D01*
X122596341Y-63968325D01*
X122588891Y-63908550D01*
X122588821Y-63908332D01*
X122585065Y-63901392D01*
X122585065Y-63901390D01*
X122560148Y-63855348D01*
X122557828Y-63850840D01*
X122534826Y-63803789D01*
X122534825Y-63803788D01*
X122531360Y-63796700D01*
X122531225Y-63796519D01*
X122507797Y-63774952D01*
X122486891Y-63755706D01*
X122483218Y-63752181D01*
X119731038Y-61000000D01*
X120950000Y-61000000D01*
X120950000Y-61444518D01*
X120950354Y-61451132D01*
X120956400Y-61507371D01*
X121006647Y-61642089D01*
X121092811Y-61757188D01*
X121207910Y-61843352D01*
X121342628Y-61893599D01*
X121398867Y-61899645D01*
X121405482Y-61900000D01*
X121975000Y-61900000D01*
X121975000Y-61000000D01*
X120950000Y-61000000D01*
X119731038Y-61000000D01*
X119502149Y-60771111D01*
X119486022Y-60751253D01*
X119485152Y-60749922D01*
X119480084Y-60742164D01*
X119480083Y-60742162D01*
X119455110Y-60722725D01*
X119443593Y-60712554D01*
X119443519Y-60712480D01*
X119426594Y-60700397D01*
X119422480Y-60697330D01*
X119381189Y-60665191D01*
X119381186Y-60665190D01*
X119374963Y-60660346D01*
X119374761Y-60660242D01*
X119367200Y-60657990D01*
X119367199Y-60657990D01*
X119317036Y-60643055D01*
X119312174Y-60641497D01*
X119300780Y-60637586D01*
X119255202Y-60621939D01*
X119254969Y-60621906D01*
X119209910Y-60623769D01*
X119194806Y-60624394D01*
X119189684Y-60624500D01*
X118696308Y-60624500D01*
X118629269Y-60604815D01*
X118594257Y-60570938D01*
X118590484Y-60565471D01*
X118590483Y-60565470D01*
X118472240Y-60460717D01*
X118451819Y-60449999D01*
X118332364Y-60387303D01*
X118178985Y-60349500D01*
X118021015Y-60349500D01*
X117867635Y-60387303D01*
X117727761Y-60460716D01*
X117609515Y-60565471D01*
X117519780Y-60695476D01*
X117463763Y-60843181D01*
X117444721Y-60999999D01*
X108021036Y-60999999D01*
X107293218Y-60272181D01*
X107259733Y-60210858D01*
X107264717Y-60141166D01*
X107306589Y-60085233D01*
X107372053Y-60060816D01*
X107380899Y-60060500D01*
X108274675Y-60060500D01*
X108299906Y-60055481D01*
X108347740Y-60045966D01*
X108430601Y-59990601D01*
X108485966Y-59907740D01*
X108500500Y-59834674D01*
X108500500Y-59285000D01*
X110950000Y-59285000D01*
X110950000Y-59854518D01*
X110950354Y-59861132D01*
X110956400Y-59917371D01*
X111006647Y-60052089D01*
X111092811Y-60167188D01*
X111207910Y-60253352D01*
X111342628Y-60303599D01*
X111398867Y-60309645D01*
X111405482Y-60310000D01*
X111850000Y-60310000D01*
X111850000Y-59285000D01*
X112350000Y-59285000D01*
X112350000Y-60310000D01*
X112794518Y-60310000D01*
X112801130Y-60309645D01*
X112862744Y-60303021D01*
X112931503Y-60315425D01*
X112982641Y-60363035D01*
X113000000Y-60426310D01*
X113000000Y-60500000D01*
X114025000Y-60500000D01*
X114025000Y-59600000D01*
X114525000Y-59600000D01*
X114525000Y-60500000D01*
X115550000Y-60500000D01*
X115550000Y-60055481D01*
X115549645Y-60048867D01*
X115543599Y-59992628D01*
X115493352Y-59857910D01*
X115407188Y-59742811D01*
X115292089Y-59656647D01*
X115157371Y-59606400D01*
X115101132Y-59600354D01*
X115094518Y-59600000D01*
X114525000Y-59600000D01*
X114025000Y-59600000D01*
X113455482Y-59600000D01*
X113448883Y-59600353D01*
X113387254Y-59606979D01*
X113318495Y-59594573D01*
X113267358Y-59546962D01*
X113250000Y-59483689D01*
X113250000Y-59285000D01*
X112350000Y-59285000D01*
X111850000Y-59285000D01*
X110950000Y-59285000D01*
X108500500Y-59285000D01*
X108500500Y-58434499D01*
X108520185Y-58367461D01*
X108572989Y-58321706D01*
X108624500Y-58310500D01*
X110826000Y-58310500D01*
X110893039Y-58330185D01*
X110938794Y-58382989D01*
X110950000Y-58434500D01*
X110950000Y-58785000D01*
X113250000Y-58785000D01*
X113250000Y-58434500D01*
X113269685Y-58367461D01*
X113322489Y-58321706D01*
X113374000Y-58310500D01*
X116028101Y-58310500D01*
X116095140Y-58330185D01*
X116115782Y-58346819D01*
X117497850Y-59728887D01*
X117513977Y-59748746D01*
X117519915Y-59757835D01*
X117544894Y-59777277D01*
X117556412Y-59787449D01*
X117556481Y-59787518D01*
X117573389Y-59799590D01*
X117577499Y-59802654D01*
X117625044Y-59839660D01*
X117625233Y-59839757D01*
X117632801Y-59842010D01*
X117682959Y-59856943D01*
X117687819Y-59858499D01*
X117737340Y-59875500D01*
X117737342Y-59875500D01*
X117744796Y-59878059D01*
X117745029Y-59878093D01*
X117752908Y-59877767D01*
X117752911Y-59877768D01*
X117805192Y-59875605D01*
X117810315Y-59875500D01*
X120830948Y-59875500D01*
X120897987Y-59895185D01*
X120943742Y-59947989D01*
X120954237Y-60012756D01*
X120950354Y-60048869D01*
X120950000Y-60055481D01*
X120950000Y-60500000D01*
X122351000Y-60500000D01*
X122418039Y-60519685D01*
X122463794Y-60572489D01*
X122475000Y-60624000D01*
X122475000Y-61900000D01*
X123044518Y-61900000D01*
X123051132Y-61899645D01*
X123107371Y-61893599D01*
X123242089Y-61843352D01*
X123357188Y-61757188D01*
X123443352Y-61642089D01*
X123493599Y-61507371D01*
X123499645Y-61451132D01*
X123499999Y-61444518D01*
X123499999Y-60868768D01*
X123519683Y-60801729D01*
X123572487Y-60755974D01*
X123641646Y-60746030D01*
X123659370Y-60749920D01*
X123682989Y-60756951D01*
X123687819Y-60758499D01*
X123737340Y-60775500D01*
X123737342Y-60775500D01*
X123744796Y-60778059D01*
X123745029Y-60778093D01*
X123752908Y-60777767D01*
X123752911Y-60777768D01*
X123805192Y-60775605D01*
X123810315Y-60775500D01*
X125348195Y-60775500D01*
X125373641Y-60778139D01*
X125377440Y-60778935D01*
X125384268Y-60780367D01*
X125414138Y-60776643D01*
X125415677Y-60776452D01*
X125431014Y-60775500D01*
X125431111Y-60775500D01*
X125431114Y-60775500D01*
X125451643Y-60772073D01*
X125456659Y-60771342D01*
X125508626Y-60764866D01*
X125508628Y-60764864D01*
X125516457Y-60763889D01*
X125516666Y-60763822D01*
X125523607Y-60760065D01*
X125523610Y-60760065D01*
X125569666Y-60735140D01*
X125574144Y-60732835D01*
X125621211Y-60709826D01*
X125621212Y-60709824D01*
X125628308Y-60706356D01*
X125628476Y-60706230D01*
X125633824Y-60700419D01*
X125633826Y-60700419D01*
X125669293Y-60661890D01*
X125672794Y-60658241D01*
X126044217Y-60286819D01*
X126105541Y-60253334D01*
X126131899Y-60250500D01*
X126278985Y-60250500D01*
X126432361Y-60212697D01*
X126432361Y-60212696D01*
X126432365Y-60212696D01*
X126542877Y-60154693D01*
X126611380Y-60140969D01*
X126676433Y-60166460D01*
X126717378Y-60223076D01*
X126724499Y-60264491D01*
X126724499Y-61207797D01*
X126704814Y-61274836D01*
X126682726Y-61300612D01*
X126609517Y-61365468D01*
X126519780Y-61495476D01*
X126463763Y-61643181D01*
X126444721Y-61799999D01*
X126463763Y-61956818D01*
X126519780Y-62104523D01*
X126609515Y-62234528D01*
X126609516Y-62234529D01*
X126609517Y-62234530D01*
X126727760Y-62339283D01*
X126867635Y-62412696D01*
X127021015Y-62450500D01*
X127178985Y-62450500D01*
X127332365Y-62412696D01*
X127367872Y-62394060D01*
X127436380Y-62380333D01*
X127501434Y-62405824D01*
X127542379Y-62462439D01*
X127549500Y-62503855D01*
X127549500Y-63427092D01*
X127529815Y-63494131D01*
X127507728Y-63519907D01*
X127484516Y-63540470D01*
X127394780Y-63670476D01*
X127338763Y-63818181D01*
X127319721Y-63975000D01*
X127338763Y-64131818D01*
X127394780Y-64279523D01*
X127484515Y-64409528D01*
X127484516Y-64409529D01*
X127484517Y-64409530D01*
X127602760Y-64514283D01*
X127742635Y-64587696D01*
X127896015Y-64625500D01*
X128053985Y-64625500D01*
X128207365Y-64587696D01*
X128347240Y-64514283D01*
X128465483Y-64409530D01*
X128555220Y-64279523D01*
X128611237Y-64131818D01*
X128630278Y-63975000D01*
X128611237Y-63818182D01*
X128555220Y-63670477D01*
X128506149Y-63599385D01*
X128465484Y-63540471D01*
X128442272Y-63519907D01*
X128347240Y-63435717D01*
X128347236Y-63435715D01*
X128342272Y-63431317D01*
X128305146Y-63372128D01*
X128300499Y-63338501D01*
X128300499Y-60424000D01*
X128320184Y-60356961D01*
X128372988Y-60311206D01*
X128424499Y-60300000D01*
X128650000Y-60300000D01*
X128650000Y-57750000D01*
X128205482Y-57750000D01*
X128198867Y-57750354D01*
X128142624Y-57756401D01*
X128104260Y-57770710D01*
X128034569Y-57775694D01*
X127973247Y-57742209D01*
X125202149Y-54971111D01*
X125186022Y-54951253D01*
X125180083Y-54942162D01*
X125155110Y-54922725D01*
X125143593Y-54912554D01*
X125143519Y-54912480D01*
X125126594Y-54900397D01*
X125122480Y-54897330D01*
X125081189Y-54865191D01*
X125081186Y-54865190D01*
X125074963Y-54860346D01*
X125074761Y-54860242D01*
X125067200Y-54857990D01*
X125067199Y-54857990D01*
X125017036Y-54843055D01*
X125012174Y-54841497D01*
X125000780Y-54837586D01*
X124955202Y-54821939D01*
X124954969Y-54821906D01*
X124909910Y-54823769D01*
X124894806Y-54824394D01*
X124889684Y-54824500D01*
X103406900Y-54824500D01*
X103339861Y-54804815D01*
X103319219Y-54788181D01*
X101784518Y-53253480D01*
X101751033Y-53192157D01*
X101749103Y-53150854D01*
X101755278Y-53100000D01*
X101736237Y-52943182D01*
X101680220Y-52795477D01*
X101609611Y-52693182D01*
X101590484Y-52665471D01*
X101570519Y-52647784D01*
X101516582Y-52600000D01*
X113040000Y-52600000D01*
X113040000Y-53044518D01*
X113040354Y-53051132D01*
X113046400Y-53107371D01*
X113096647Y-53242089D01*
X113182811Y-53357188D01*
X113297910Y-53443352D01*
X113432628Y-53493599D01*
X113488867Y-53499645D01*
X113495482Y-53500000D01*
X114065000Y-53500000D01*
X114065000Y-52600000D01*
X114565000Y-52600000D01*
X114565000Y-53500000D01*
X115134518Y-53500000D01*
X115141132Y-53499645D01*
X115197371Y-53493599D01*
X115332089Y-53443352D01*
X115447188Y-53357188D01*
X115533352Y-53242089D01*
X115583599Y-53107371D01*
X115589645Y-53051132D01*
X115590000Y-53044518D01*
X115590000Y-52600000D01*
X114565000Y-52600000D01*
X114065000Y-52600000D01*
X113040000Y-52600000D01*
X101516582Y-52600000D01*
X101472240Y-52560717D01*
X101385933Y-52515419D01*
X101332364Y-52487303D01*
X101178985Y-52449500D01*
X101021015Y-52449500D01*
X100867635Y-52487303D01*
X100727761Y-52560716D01*
X100609515Y-52665471D01*
X100519780Y-52795476D01*
X100463763Y-52943181D01*
X100444721Y-53100000D01*
X100463763Y-53256818D01*
X100519780Y-53404523D01*
X100609515Y-53534528D01*
X100609516Y-53534529D01*
X100609517Y-53534530D01*
X100727760Y-53639283D01*
X100848502Y-53702654D01*
X100867635Y-53712696D01*
X101021015Y-53750500D01*
X101168101Y-53750500D01*
X101235140Y-53770185D01*
X101255782Y-53786819D01*
X102756782Y-55287819D01*
X102790267Y-55349142D01*
X102785283Y-55418834D01*
X102743411Y-55474767D01*
X102677947Y-55499184D01*
X102669101Y-55499500D01*
X97276803Y-55499500D01*
X97251357Y-55496861D01*
X97240731Y-55494633D01*
X97209324Y-55498548D01*
X97193987Y-55499500D01*
X97193886Y-55499500D01*
X97173359Y-55502924D01*
X97168300Y-55503661D01*
X97108556Y-55511109D01*
X97108316Y-55511186D01*
X97055359Y-55539844D01*
X97050805Y-55542188D01*
X96996721Y-55568628D01*
X96996506Y-55568788D01*
X96955729Y-55613082D01*
X96952184Y-55616776D01*
X96905781Y-55663180D01*
X96844458Y-55696666D01*
X96818099Y-55699500D01*
X96671015Y-55699500D01*
X96517635Y-55737303D01*
X96377761Y-55810716D01*
X96259515Y-55915471D01*
X96169780Y-56045476D01*
X96113763Y-56193181D01*
X96094721Y-56350000D01*
X96113763Y-56506818D01*
X96169780Y-56654523D01*
X96259515Y-56784528D01*
X96259516Y-56784529D01*
X96259517Y-56784530D01*
X96377760Y-56889283D01*
X96517635Y-56962696D01*
X96671015Y-57000500D01*
X96828985Y-57000500D01*
X96982365Y-56962696D01*
X97122240Y-56889283D01*
X97240483Y-56784530D01*
X97330220Y-56654523D01*
X97386237Y-56506818D01*
X97404118Y-56359552D01*
X97431740Y-56295375D01*
X97489674Y-56256319D01*
X97527214Y-56250500D01*
X100515739Y-56250500D01*
X100582778Y-56270185D01*
X100628533Y-56322989D01*
X100638477Y-56392147D01*
X100609452Y-56455703D01*
X100573366Y-56484296D01*
X100567634Y-56487304D01*
X100567635Y-56487304D01*
X100427760Y-56560717D01*
X100371231Y-56610797D01*
X100309515Y-56665471D01*
X100219780Y-56795476D01*
X100163763Y-56943181D01*
X100144721Y-57100000D01*
X100163763Y-57256818D01*
X100219780Y-57404523D01*
X100309515Y-57534528D01*
X100309516Y-57534529D01*
X100309517Y-57534530D01*
X100427760Y-57639283D01*
X100567635Y-57712696D01*
X100721015Y-57750500D01*
X100868100Y-57750500D01*
X100935139Y-57770185D01*
X100955781Y-57786819D01*
X101372850Y-58203888D01*
X101388974Y-58223742D01*
X101392267Y-58228781D01*
X101394916Y-58232836D01*
X101419890Y-58252274D01*
X101431408Y-58262446D01*
X101431482Y-58262520D01*
X101441410Y-58269608D01*
X101448399Y-58274598D01*
X101452508Y-58277662D01*
X101484608Y-58302646D01*
X101525421Y-58359356D01*
X101529096Y-58429129D01*
X101494465Y-58489812D01*
X101432524Y-58522140D01*
X101408446Y-58524500D01*
X94781803Y-58524500D01*
X94756357Y-58521861D01*
X94745731Y-58519633D01*
X94714324Y-58523548D01*
X94698987Y-58524500D01*
X94698886Y-58524500D01*
X94678359Y-58527924D01*
X94673300Y-58528661D01*
X94613556Y-58536109D01*
X94613316Y-58536186D01*
X94560359Y-58564844D01*
X94555805Y-58567188D01*
X94501721Y-58593628D01*
X94501506Y-58593788D01*
X94460729Y-58638082D01*
X94457183Y-58641777D01*
X90805027Y-62293933D01*
X90743704Y-62327418D01*
X90674012Y-62322434D01*
X90672553Y-62321879D01*
X90648848Y-62312696D01*
X90582456Y-62286976D01*
X90381976Y-62249500D01*
X90178024Y-62249500D01*
X90138876Y-62256818D01*
X90083994Y-62267077D01*
X90014479Y-62260046D01*
X89959801Y-62216548D01*
X89937319Y-62150394D01*
X89954172Y-62082587D01*
X89973526Y-62057510D01*
X94328889Y-57702146D01*
X94348741Y-57686025D01*
X94357836Y-57680084D01*
X94377277Y-57655104D01*
X94387449Y-57643587D01*
X94387520Y-57643517D01*
X94399614Y-57626576D01*
X94402648Y-57622508D01*
X94434809Y-57581189D01*
X94434809Y-57581187D01*
X94439666Y-57574948D01*
X94439753Y-57574779D01*
X94443206Y-57563181D01*
X94456954Y-57517001D01*
X94458491Y-57512202D01*
X94475500Y-57462660D01*
X94475500Y-57462656D01*
X94478060Y-57455199D01*
X94478094Y-57454966D01*
X94477768Y-57447090D01*
X94477769Y-57447088D01*
X94475606Y-57394792D01*
X94475500Y-57389668D01*
X94475500Y-52206899D01*
X94495185Y-52139860D01*
X94511819Y-52119218D01*
X96144218Y-50486819D01*
X96205541Y-50453334D01*
X96231899Y-50450500D01*
X96378985Y-50450500D01*
X96532365Y-50412696D01*
X96672240Y-50339283D01*
X96790483Y-50234530D01*
X96880220Y-50104523D01*
X96936237Y-49956818D01*
X96955278Y-49800000D01*
X96936237Y-49643182D01*
X96901464Y-49551492D01*
X96880220Y-49495476D01*
X96793568Y-49369940D01*
X96771685Y-49303586D01*
X96789150Y-49235934D01*
X96840418Y-49188464D01*
X96895618Y-49175500D01*
X101093101Y-49175500D01*
X101160140Y-49195185D01*
X101180782Y-49211819D01*
X101310067Y-49341104D01*
X101343552Y-49402427D01*
X101345483Y-49443726D01*
X101344721Y-49449998D01*
X101363763Y-49606818D01*
X101419780Y-49754523D01*
X101509515Y-49884528D01*
X101509516Y-49884529D01*
X101509517Y-49884530D01*
X101627760Y-49989283D01*
X101767635Y-50062696D01*
X101921015Y-50100500D01*
X102078985Y-50100500D01*
X102232365Y-50062696D01*
X102372240Y-49989283D01*
X102490483Y-49884530D01*
X102580220Y-49754523D01*
X102636237Y-49606818D01*
X102655278Y-49450000D01*
X102636237Y-49293182D01*
X102580220Y-49145477D01*
X102490483Y-49015470D01*
X102372240Y-48910717D01*
X102358994Y-48903764D01*
X102232364Y-48837303D01*
X102078985Y-48799500D01*
X101921015Y-48799500D01*
X101916328Y-48800655D01*
X101846526Y-48797583D01*
X101798976Y-48767938D01*
X101602149Y-48571111D01*
X101586022Y-48551253D01*
X101580083Y-48542162D01*
X101555110Y-48522725D01*
X101543593Y-48512554D01*
X101543517Y-48512478D01*
X101526626Y-48500419D01*
X101483502Y-48445445D01*
X101476946Y-48375884D01*
X101509038Y-48313821D01*
X101569589Y-48278960D01*
X101598676Y-48275500D01*
X105293101Y-48275500D01*
X105360140Y-48295185D01*
X105380782Y-48311819D01*
X108715481Y-51646518D01*
X108748966Y-51707841D01*
X108750896Y-51749144D01*
X108744721Y-51799998D01*
X108763763Y-51956818D01*
X108819780Y-52104523D01*
X108909515Y-52234528D01*
X108909516Y-52234529D01*
X108909517Y-52234530D01*
X109027760Y-52339283D01*
X109167635Y-52412696D01*
X109321015Y-52450500D01*
X109478985Y-52450500D01*
X109632365Y-52412696D01*
X109772240Y-52339283D01*
X109890483Y-52234530D01*
X109980220Y-52104523D01*
X109981935Y-52100000D01*
X113040000Y-52100000D01*
X114065000Y-52100000D01*
X114065000Y-51200000D01*
X114565000Y-51200000D01*
X114565000Y-52100000D01*
X115590000Y-52100000D01*
X120990000Y-52100000D01*
X122015000Y-52100000D01*
X122015000Y-51200000D01*
X122515000Y-51200000D01*
X122515000Y-52100000D01*
X123540000Y-52100000D01*
X123540000Y-51655481D01*
X123539645Y-51648867D01*
X123533599Y-51592628D01*
X123483352Y-51457910D01*
X123397188Y-51342811D01*
X123282089Y-51256647D01*
X123147371Y-51206400D01*
X123091132Y-51200354D01*
X123084518Y-51200000D01*
X122515000Y-51200000D01*
X122015000Y-51200000D01*
X121445482Y-51200000D01*
X121438867Y-51200354D01*
X121382628Y-51206400D01*
X121247910Y-51256647D01*
X121132811Y-51342811D01*
X121046647Y-51457910D01*
X120996400Y-51592628D01*
X120990354Y-51648867D01*
X120990000Y-51655481D01*
X120990000Y-52100000D01*
X115590000Y-52100000D01*
X115590000Y-51655481D01*
X115589645Y-51648867D01*
X115583599Y-51592628D01*
X115533352Y-51457910D01*
X115447188Y-51342811D01*
X115332089Y-51256647D01*
X115197371Y-51206400D01*
X115141132Y-51200354D01*
X115134518Y-51200000D01*
X114565000Y-51200000D01*
X114065000Y-51200000D01*
X113495482Y-51200000D01*
X113488867Y-51200354D01*
X113432628Y-51206400D01*
X113297910Y-51256647D01*
X113182811Y-51342811D01*
X113096647Y-51457910D01*
X113046400Y-51592628D01*
X113040354Y-51648867D01*
X113040000Y-51655481D01*
X113040000Y-52100000D01*
X109981935Y-52100000D01*
X110036237Y-51956818D01*
X110055278Y-51800000D01*
X110036237Y-51643182D01*
X109980220Y-51495477D01*
X109915100Y-51401134D01*
X109890484Y-51365471D01*
X109887352Y-51362696D01*
X109772240Y-51260717D01*
X109749641Y-51248856D01*
X109632364Y-51187303D01*
X109478985Y-51149500D01*
X109331900Y-51149500D01*
X109264861Y-51129815D01*
X109244219Y-51113181D01*
X105802149Y-47671111D01*
X105786022Y-47651253D01*
X105780083Y-47642162D01*
X105755110Y-47622725D01*
X105743593Y-47612554D01*
X105743519Y-47612480D01*
X105726594Y-47600397D01*
X105722480Y-47597330D01*
X105681189Y-47565191D01*
X105681186Y-47565190D01*
X105674963Y-47560346D01*
X105674761Y-47560242D01*
X105667200Y-47557990D01*
X105667199Y-47557990D01*
X105617036Y-47543055D01*
X105612174Y-47541497D01*
X105600780Y-47537586D01*
X105555202Y-47521939D01*
X105554969Y-47521906D01*
X105509910Y-47523769D01*
X105494806Y-47524394D01*
X105489684Y-47524500D01*
X86396308Y-47524500D01*
X86329269Y-47504815D01*
X86294257Y-47470938D01*
X86290484Y-47465471D01*
X86242388Y-47422862D01*
X86172240Y-47360717D01*
X86091367Y-47318271D01*
X86032364Y-47287303D01*
X85878985Y-47249500D01*
X85721015Y-47249500D01*
X85567635Y-47287303D01*
X85427761Y-47360716D01*
X85309515Y-47465471D01*
X85219780Y-47595476D01*
X85163763Y-47743181D01*
X85144721Y-47899999D01*
X85163763Y-48056818D01*
X85219779Y-48204522D01*
X85219780Y-48204523D01*
X85236135Y-48228218D01*
X85237407Y-48230060D01*
X85259290Y-48296414D01*
X85241825Y-48364066D01*
X85190557Y-48411536D01*
X85135357Y-48424500D01*
X74536804Y-48424500D01*
X74511358Y-48421861D01*
X74500732Y-48419633D01*
X74469323Y-48423548D01*
X74453986Y-48424500D01*
X74453884Y-48424500D01*
X74433381Y-48427920D01*
X74428320Y-48428657D01*
X74368572Y-48436105D01*
X74368308Y-48436190D01*
X74315365Y-48464840D01*
X74310814Y-48467183D01*
X74256718Y-48493630D01*
X74256505Y-48493788D01*
X74215719Y-48538093D01*
X74212172Y-48541789D01*
X73163675Y-49590285D01*
X73102352Y-49623770D01*
X73032660Y-49618786D01*
X73031234Y-49618243D01*
X72959064Y-49590285D01*
X72916199Y-49573679D01*
X72846335Y-49560619D01*
X72706610Y-49534500D01*
X72493390Y-49534500D01*
X72353664Y-49560619D01*
X72283801Y-49573679D01*
X72084982Y-49650701D01*
X71903698Y-49762947D01*
X71746126Y-49906594D01*
X71617631Y-50076747D01*
X71522595Y-50267609D01*
X71464243Y-50472689D01*
X71444571Y-50685000D01*
X71464243Y-50897310D01*
X71522595Y-51102390D01*
X71617632Y-51293252D01*
X71649742Y-51335773D01*
X71674434Y-51401134D01*
X71659869Y-51469469D01*
X71610671Y-51519082D01*
X71550788Y-51534500D01*
X69646899Y-51534500D01*
X69579860Y-51514815D01*
X69559218Y-51498181D01*
X69309893Y-51248856D01*
X69276408Y-51187533D01*
X69278308Y-51127240D01*
X69280580Y-51119252D01*
X69280582Y-51119250D01*
X69336397Y-50923083D01*
X69355215Y-50720000D01*
X69336397Y-50516917D01*
X69329247Y-50491789D01*
X69300267Y-50389935D01*
X69280582Y-50320750D01*
X69237649Y-50234528D01*
X69189675Y-50138181D01*
X69066763Y-49975419D01*
X68916041Y-49838018D01*
X68742638Y-49730652D01*
X68552457Y-49656976D01*
X68437697Y-49635524D01*
X68351976Y-49619500D01*
X68148024Y-49619500D01*
X68062303Y-49635524D01*
X67947542Y-49656976D01*
X67757361Y-49730652D01*
X67583958Y-49838018D01*
X67433236Y-49975419D01*
X67310324Y-50138181D01*
X67219418Y-50320748D01*
X67163602Y-50516916D01*
X67144785Y-50720000D01*
X67163602Y-50923083D01*
X67219418Y-51119251D01*
X67310324Y-51301818D01*
X67433236Y-51464580D01*
X67583958Y-51601981D01*
X67738796Y-51697852D01*
X67757363Y-51709348D01*
X67947544Y-51783024D01*
X68148024Y-51820500D01*
X68148026Y-51820500D01*
X68351974Y-51820500D01*
X68351976Y-51820500D01*
X68552456Y-51783024D01*
X68642552Y-51748119D01*
X68712176Y-51742257D01*
X68773916Y-51774967D01*
X68775028Y-51776065D01*
X69137850Y-52138887D01*
X69153977Y-52158746D01*
X69159916Y-52167836D01*
X69184128Y-52186681D01*
X69184894Y-52187277D01*
X69196412Y-52197449D01*
X69196482Y-52197519D01*
X69208683Y-52206230D01*
X69213389Y-52209590D01*
X69217494Y-52212650D01*
X69258811Y-52244809D01*
X69258812Y-52244809D01*
X69265043Y-52249659D01*
X69265234Y-52249757D01*
X69272800Y-52252009D01*
X69272801Y-52252010D01*
X69322955Y-52266941D01*
X69327792Y-52268490D01*
X69377340Y-52285500D01*
X69384797Y-52288060D01*
X69385030Y-52288093D01*
X69392909Y-52287767D01*
X69392912Y-52287768D01*
X69445193Y-52285605D01*
X69450316Y-52285500D01*
X71325500Y-52285500D01*
X71392539Y-52305185D01*
X71438294Y-52357989D01*
X71449500Y-52409500D01*
X71449500Y-54100500D01*
X71429815Y-54167539D01*
X71377011Y-54213294D01*
X71325500Y-54224500D01*
X69796899Y-54224500D01*
X69729860Y-54204815D01*
X69709218Y-54188181D01*
X69309893Y-53788856D01*
X69276408Y-53727533D01*
X69278308Y-53667240D01*
X69280580Y-53659252D01*
X69280582Y-53659250D01*
X69336397Y-53463083D01*
X69355215Y-53260000D01*
X69337164Y-53065191D01*
X69336397Y-53056916D01*
X69287348Y-52884530D01*
X69280582Y-52860750D01*
X69247239Y-52793788D01*
X69189675Y-52678181D01*
X69066763Y-52515419D01*
X68916041Y-52378018D01*
X68742638Y-52270652D01*
X68552457Y-52196976D01*
X68481815Y-52183771D01*
X68351976Y-52159500D01*
X68148024Y-52159500D01*
X68047783Y-52178238D01*
X67947542Y-52196976D01*
X67757361Y-52270652D01*
X67583958Y-52378018D01*
X67433236Y-52515419D01*
X67310324Y-52678181D01*
X67219418Y-52860748D01*
X67163602Y-53056916D01*
X67144785Y-53259999D01*
X67163602Y-53463083D01*
X67219418Y-53659251D01*
X67310324Y-53841818D01*
X67433236Y-54004580D01*
X67583956Y-54141979D01*
X67583958Y-54141980D01*
X67583959Y-54141981D01*
X67671540Y-54196209D01*
X67710890Y-54220573D01*
X67757525Y-54272601D01*
X67768629Y-54341583D01*
X67740676Y-54405617D01*
X67682541Y-54444373D01*
X67645612Y-54450000D01*
X67355482Y-54450000D01*
X67348867Y-54450354D01*
X67292628Y-54456400D01*
X67157910Y-54506647D01*
X67042811Y-54592811D01*
X66956647Y-54707910D01*
X66906400Y-54842628D01*
X66900354Y-54898867D01*
X66900000Y-54905481D01*
X66900000Y-55550000D01*
X67816314Y-55550000D01*
X67790507Y-55590156D01*
X67750000Y-55728111D01*
X67750000Y-55871889D01*
X67790507Y-56009844D01*
X67816314Y-56050000D01*
X66900000Y-56050000D01*
X66900000Y-56694518D01*
X60886194Y-56694518D01*
X60958122Y-56446071D01*
X61109249Y-55954357D01*
X61110113Y-55951667D01*
X61247706Y-55541198D01*
X61419035Y-55055711D01*
X61420054Y-55052939D01*
X61574410Y-54649078D01*
X61765708Y-54170596D01*
X61766908Y-54167707D01*
X61937642Y-53771310D01*
X62148676Y-53300532D01*
X62149987Y-53297709D01*
X62336815Y-52909294D01*
X62567279Y-52447025D01*
X62568762Y-52444152D01*
X62771171Y-52064642D01*
X63020796Y-51611552D01*
X63022423Y-51608693D01*
X63240026Y-51238660D01*
X63508479Y-50795488D01*
X63510249Y-50792660D01*
X63742499Y-50432877D01*
X64029476Y-50000274D01*
X64031385Y-49997485D01*
X64277748Y-49648615D01*
X64582920Y-49227232D01*
X64584934Y-49224536D01*
X64844831Y-48887225D01*
X65167819Y-48477755D01*
X65170026Y-48475041D01*
X65442756Y-48150008D01*
X65783191Y-47753093D01*
X65785567Y-47750408D01*
X66070458Y-47438244D01*
X66428022Y-47054443D01*
X66430551Y-47051813D01*
X66726808Y-46753167D01*
X67101153Y-46383066D01*
X67103889Y-46380447D01*
X67410777Y-46095821D01*
X67801490Y-45740053D01*
X67804333Y-45737548D01*
X68121020Y-45467459D01*
X68527748Y-45126581D01*
X68530879Y-45124044D01*
X68689226Y-45000000D01*
X71494356Y-45000000D01*
X71514891Y-45247816D01*
X71514891Y-45247819D01*
X71514892Y-45247821D01*
X71575937Y-45488881D01*
X71589449Y-45519685D01*
X71675825Y-45716604D01*
X71675827Y-45716607D01*
X71811836Y-45924785D01*
X71980256Y-46107738D01*
X72045667Y-46158649D01*
X72176485Y-46260470D01*
X72176487Y-46260471D01*
X72176491Y-46260474D01*
X72395190Y-46378828D01*
X72630386Y-46459571D01*
X72875665Y-46500500D01*
X73124335Y-46500500D01*
X73369614Y-46459571D01*
X73604810Y-46378828D01*
X73823509Y-46260474D01*
X74019744Y-46107738D01*
X74188164Y-45924785D01*
X74324173Y-45716607D01*
X74424063Y-45488881D01*
X74485108Y-45247821D01*
X74505643Y-45000000D01*
X74485108Y-44752179D01*
X74424063Y-44511119D01*
X74324173Y-44283393D01*
X74188164Y-44075215D01*
X74019744Y-43892262D01*
X73997612Y-43875036D01*
X73823514Y-43739529D01*
X73823510Y-43739526D01*
X73823509Y-43739526D01*
X73604810Y-43621172D01*
X73604806Y-43621170D01*
X73604805Y-43621170D01*
X73369615Y-43540429D01*
X73124335Y-43499500D01*
X72875665Y-43499500D01*
X72630384Y-43540429D01*
X72395194Y-43621170D01*
X72176485Y-43739529D01*
X71980259Y-43892259D01*
X71980256Y-43892261D01*
X71980256Y-43892262D01*
X71811837Y-44075214D01*
X71675825Y-44283395D01*
X71585780Y-44488678D01*
X71575937Y-44511119D01*
X71564231Y-44557346D01*
X71514891Y-44752183D01*
X71494356Y-45000000D01*
X68689226Y-45000000D01*
X68856224Y-44869179D01*
X69278844Y-44543568D01*
X69282045Y-44541185D01*
X69615027Y-44302011D01*
X70053370Y-43992114D01*
X70056757Y-43989805D01*
X70396315Y-43766728D01*
X70850045Y-43473132D01*
X70853538Y-43470957D01*
X71198331Y-43264455D01*
X71667470Y-42987534D01*
X71671143Y-42985453D01*
X72019408Y-42796102D01*
X72504258Y-42536141D01*
X72508139Y-42534148D01*
X72669249Y-42455055D01*
X81849500Y-42455055D01*
X81890209Y-42620224D01*
X81890210Y-42620225D01*
X81969266Y-42770852D01*
X82082071Y-42898183D01*
X82222070Y-42994818D01*
X82381128Y-43055140D01*
X82507628Y-43070500D01*
X82511377Y-43070500D01*
X82588623Y-43070500D01*
X82592372Y-43070500D01*
X82718872Y-43055140D01*
X82877930Y-42994818D01*
X83017929Y-42898183D01*
X83130734Y-42770852D01*
X83209790Y-42620225D01*
X83250500Y-42455056D01*
X83250500Y-42455055D01*
X84849500Y-42455055D01*
X84890209Y-42620224D01*
X84890210Y-42620225D01*
X84969266Y-42770852D01*
X85082071Y-42898183D01*
X85222070Y-42994818D01*
X85381128Y-43055140D01*
X85507628Y-43070500D01*
X85511377Y-43070500D01*
X85588623Y-43070500D01*
X85592372Y-43070500D01*
X85718872Y-43055140D01*
X85877930Y-42994818D01*
X86017929Y-42898183D01*
X86130734Y-42770852D01*
X86209790Y-42620225D01*
X86250500Y-42455056D01*
X86250500Y-42455055D01*
X90749500Y-42455055D01*
X90790209Y-42620224D01*
X90790210Y-42620225D01*
X90869266Y-42770852D01*
X90982071Y-42898183D01*
X91122070Y-42994818D01*
X91281128Y-43055140D01*
X91407628Y-43070500D01*
X91411377Y-43070500D01*
X91488623Y-43070500D01*
X91492372Y-43070500D01*
X91618872Y-43055140D01*
X91777930Y-42994818D01*
X91917929Y-42898183D01*
X92030734Y-42770852D01*
X92109790Y-42620225D01*
X92150500Y-42455056D01*
X92150500Y-42284944D01*
X92109790Y-42119775D01*
X92030734Y-41969148D01*
X91917929Y-41841817D01*
X91917928Y-41841816D01*
X91917927Y-41841815D01*
X91777930Y-41745182D01*
X91618872Y-41684860D01*
X91496092Y-41669951D01*
X91496080Y-41669950D01*
X91492372Y-41669500D01*
X91407628Y-41669500D01*
X91403920Y-41669950D01*
X91403907Y-41669951D01*
X91281127Y-41684860D01*
X91122069Y-41745182D01*
X90982072Y-41841815D01*
X90869265Y-41969149D01*
X90790209Y-42119775D01*
X90749500Y-42284944D01*
X90749500Y-42455055D01*
X86250500Y-42455055D01*
X86250500Y-42284944D01*
X86209790Y-42119775D01*
X86130734Y-41969148D01*
X86017929Y-41841817D01*
X86017928Y-41841816D01*
X86017927Y-41841815D01*
X85877930Y-41745182D01*
X85718872Y-41684860D01*
X85596092Y-41669951D01*
X85596080Y-41669950D01*
X85592372Y-41669500D01*
X85507628Y-41669500D01*
X85503920Y-41669950D01*
X85503907Y-41669951D01*
X85381127Y-41684860D01*
X85222069Y-41745182D01*
X85082072Y-41841815D01*
X84969265Y-41969149D01*
X84890209Y-42119775D01*
X84849500Y-42284944D01*
X84849500Y-42455055D01*
X83250500Y-42455055D01*
X83250500Y-42284944D01*
X83209790Y-42119775D01*
X83130734Y-41969148D01*
X83017929Y-41841817D01*
X83017928Y-41841816D01*
X83017927Y-41841815D01*
X82877930Y-41745182D01*
X82718872Y-41684860D01*
X82596092Y-41669951D01*
X82596080Y-41669950D01*
X82592372Y-41669500D01*
X82507628Y-41669500D01*
X82503920Y-41669950D01*
X82503907Y-41669951D01*
X82381127Y-41684860D01*
X82222069Y-41745182D01*
X82082072Y-41841815D01*
X81969265Y-41969149D01*
X81890209Y-42119775D01*
X81849500Y-42284944D01*
X81849500Y-42455055D01*
X72669249Y-42455055D01*
X72858119Y-42362334D01*
X73359076Y-42119674D01*
X73363023Y-42117850D01*
X73712445Y-41964012D01*
X74230329Y-41738918D01*
X74234481Y-41737205D01*
X74580388Y-41601807D01*
X75116594Y-41394491D01*
X75120835Y-41392942D01*
X75459384Y-41276426D01*
X76016354Y-41086984D01*
X76020710Y-41085594D01*
X76346030Y-40988573D01*
X76928031Y-40816936D01*
X76932577Y-40815690D01*
X77235575Y-40738902D01*
X77850143Y-40584787D01*
X77854766Y-40583724D01*
X78119685Y-40528207D01*
X78781063Y-40390950D01*
X78785741Y-40390076D01*
X78977884Y-40358093D01*
X79719179Y-40235762D01*
X79723983Y-40235067D01*
X79742122Y-40232819D01*
X80657108Y-40120194D01*
X80662088Y-40119685D01*
X80675943Y-40118554D01*
X81483298Y-40059225D01*
X81551593Y-40073943D01*
X81601095Y-40123252D01*
X81612472Y-40152012D01*
X81615627Y-40164282D01*
X81616374Y-40167186D01*
X81615833Y-40183083D01*
X81625268Y-40206282D01*
X81630497Y-40222119D01*
X81633422Y-40233495D01*
X81643482Y-40272624D01*
X81662715Y-40313465D01*
X81669350Y-40327555D01*
X81672060Y-40344960D01*
X81683846Y-40362127D01*
X81693801Y-40379479D01*
X81707947Y-40409519D01*
X81752435Y-40470721D01*
X81759038Y-40489215D01*
X81772027Y-40501408D01*
X81787461Y-40518907D01*
X81796916Y-40531915D01*
X81796973Y-40531968D01*
X81814333Y-40552193D01*
X81817559Y-40556892D01*
X81841969Y-40574205D01*
X81862186Y-40593184D01*
X81873080Y-40611716D01*
X81885902Y-40619375D01*
X81907182Y-40635422D01*
X81907241Y-40635477D01*
X81920821Y-40644092D01*
X81939254Y-40658386D01*
X81946024Y-40664741D01*
X81971118Y-40676002D01*
X82035012Y-40716538D01*
X82065882Y-40728757D01*
X82083833Y-40737598D01*
X82095058Y-40744302D01*
X82119246Y-40749879D01*
X82175706Y-40772227D01*
X82226934Y-40781996D01*
X82243059Y-40786214D01*
X82260082Y-40791913D01*
X82282651Y-40792622D01*
X82324342Y-40800574D01*
X82397847Y-40800502D01*
X82411294Y-40801220D01*
X82447082Y-40805088D01*
X82474858Y-40800500D01*
X85624123Y-40800500D01*
X85643933Y-40806317D01*
X85688638Y-40801280D01*
X85702522Y-40800500D01*
X85778843Y-40800500D01*
X85826305Y-40791059D01*
X85842180Y-40792479D01*
X85864282Y-40784746D01*
X85881033Y-40780172D01*
X85933497Y-40769737D01*
X85996185Y-40743770D01*
X86013464Y-40741912D01*
X86029357Y-40731927D01*
X86047878Y-40722359D01*
X86047888Y-40722355D01*
X86079179Y-40709394D01*
X86148702Y-40662940D01*
X86167066Y-40657189D01*
X86178082Y-40646174D01*
X86196867Y-40630756D01*
X86210289Y-40621789D01*
X86210292Y-40621785D01*
X86210808Y-40621441D01*
X86231667Y-40604807D01*
X86234644Y-40602935D01*
X86252374Y-40579703D01*
X86279701Y-40552376D01*
X86298110Y-40542324D01*
X86304807Y-40531667D01*
X86321441Y-40510808D01*
X86321785Y-40510292D01*
X86321789Y-40510289D01*
X86330756Y-40496867D01*
X86346174Y-40478082D01*
X86351239Y-40473016D01*
X86362936Y-40448707D01*
X86409394Y-40379179D01*
X86422360Y-40347876D01*
X86431927Y-40329357D01*
X86437815Y-40319985D01*
X86443769Y-40296189D01*
X86469737Y-40233497D01*
X86480172Y-40181033D01*
X86484746Y-40164282D01*
X86490112Y-40148945D01*
X86491059Y-40126306D01*
X86496230Y-40100309D01*
X86528614Y-40038398D01*
X86589330Y-40003824D01*
X86617847Y-40000500D01*
X90382153Y-40000500D01*
X90449192Y-40020185D01*
G37*
%TD.AperFunction*%
%TD*%
M02*
