%TF.GenerationSoftware,KiCad,Pcbnew,7.0.5-1.fc38*%
%TF.CreationDate,2023-06-12T10:00:34+02:00*%
%TF.ProjectId,gps_compass,6770735f-636f-46d7-9061-73732e6b6963,rev?*%
%TF.SameCoordinates,Original*%
%TF.FileFunction,Legend,Bot*%
%TF.FilePolarity,Positive*%
%FSLAX46Y46*%
G04 Gerber Fmt 4.6, Leading zero omitted, Abs format (unit mm)*
G04 Created by KiCad (PCBNEW 7.0.5-1.fc38) date 2023-06-12 10:00:34*
%MOMM*%
%LPD*%
G01*
G04 APERTURE LIST*
%ADD10C,0.100000*%
%ADD11C,0.150000*%
%ADD12C,0.120000*%
G04 APERTURE END LIST*
D10*
X85629449Y-45896895D02*
X85705639Y-45858800D01*
X85705639Y-45858800D02*
X85743734Y-45820704D01*
X85743734Y-45820704D02*
X85781830Y-45744514D01*
X85781830Y-45744514D02*
X85781830Y-45515942D01*
X85781830Y-45515942D02*
X85743734Y-45439752D01*
X85743734Y-45439752D02*
X85705639Y-45401657D01*
X85705639Y-45401657D02*
X85629449Y-45363561D01*
X85629449Y-45363561D02*
X85515163Y-45363561D01*
X85515163Y-45363561D02*
X85438972Y-45401657D01*
X85438972Y-45401657D02*
X85400877Y-45439752D01*
X85400877Y-45439752D02*
X85362782Y-45515942D01*
X85362782Y-45515942D02*
X85362782Y-45744514D01*
X85362782Y-45744514D02*
X85400877Y-45820704D01*
X85400877Y-45820704D02*
X85438972Y-45858800D01*
X85438972Y-45858800D02*
X85515163Y-45896895D01*
X85515163Y-45896895D02*
X85629449Y-45896895D01*
X85134210Y-45363561D02*
X84829448Y-45363561D01*
X85019924Y-45896895D02*
X85019924Y-45211180D01*
X85019924Y-45211180D02*
X84981829Y-45134990D01*
X84981829Y-45134990D02*
X84905639Y-45096895D01*
X84905639Y-45096895D02*
X84829448Y-45096895D01*
X84677067Y-45363561D02*
X84372305Y-45363561D01*
X84562781Y-45896895D02*
X84562781Y-45211180D01*
X84562781Y-45211180D02*
X84524686Y-45134990D01*
X84524686Y-45134990D02*
X84448496Y-45096895D01*
X84448496Y-45096895D02*
X84372305Y-45096895D01*
X83381829Y-45896895D02*
X83458019Y-45858800D01*
X83458019Y-45858800D02*
X83496114Y-45820704D01*
X83496114Y-45820704D02*
X83534210Y-45744514D01*
X83534210Y-45744514D02*
X83534210Y-45515942D01*
X83534210Y-45515942D02*
X83496114Y-45439752D01*
X83496114Y-45439752D02*
X83458019Y-45401657D01*
X83458019Y-45401657D02*
X83381829Y-45363561D01*
X83381829Y-45363561D02*
X83267543Y-45363561D01*
X83267543Y-45363561D02*
X83191352Y-45401657D01*
X83191352Y-45401657D02*
X83153257Y-45439752D01*
X83153257Y-45439752D02*
X83115162Y-45515942D01*
X83115162Y-45515942D02*
X83115162Y-45744514D01*
X83115162Y-45744514D02*
X83153257Y-45820704D01*
X83153257Y-45820704D02*
X83191352Y-45858800D01*
X83191352Y-45858800D02*
X83267543Y-45896895D01*
X83267543Y-45896895D02*
X83381829Y-45896895D01*
X82772304Y-45363561D02*
X82772304Y-45896895D01*
X82772304Y-45439752D02*
X82734209Y-45401657D01*
X82734209Y-45401657D02*
X82658019Y-45363561D01*
X82658019Y-45363561D02*
X82543733Y-45363561D01*
X82543733Y-45363561D02*
X82467542Y-45401657D01*
X82467542Y-45401657D02*
X82429447Y-45477847D01*
X82429447Y-45477847D02*
X82429447Y-45896895D01*
X70146895Y-53053408D02*
X69765942Y-52786741D01*
X70146895Y-52596265D02*
X69346895Y-52596265D01*
X69346895Y-52596265D02*
X69346895Y-52901027D01*
X69346895Y-52901027D02*
X69384990Y-52977217D01*
X69384990Y-52977217D02*
X69423085Y-53015312D01*
X69423085Y-53015312D02*
X69499276Y-53053408D01*
X69499276Y-53053408D02*
X69613561Y-53053408D01*
X69613561Y-53053408D02*
X69689752Y-53015312D01*
X69689752Y-53015312D02*
X69727847Y-52977217D01*
X69727847Y-52977217D02*
X69765942Y-52901027D01*
X69765942Y-52901027D02*
X69765942Y-52596265D01*
X69346895Y-53320074D02*
X70146895Y-53853408D01*
X69346895Y-53853408D02*
X70146895Y-53320074D01*
D11*
X104663220Y-81859819D02*
X104663220Y-80859819D01*
X104663220Y-80859819D02*
X104425125Y-80859819D01*
X104425125Y-80859819D02*
X104282268Y-80907438D01*
X104282268Y-80907438D02*
X104187030Y-81002676D01*
X104187030Y-81002676D02*
X104139411Y-81097914D01*
X104139411Y-81097914D02*
X104091792Y-81288390D01*
X104091792Y-81288390D02*
X104091792Y-81431247D01*
X104091792Y-81431247D02*
X104139411Y-81621723D01*
X104139411Y-81621723D02*
X104187030Y-81716961D01*
X104187030Y-81716961D02*
X104282268Y-81812200D01*
X104282268Y-81812200D02*
X104425125Y-81859819D01*
X104425125Y-81859819D02*
X104663220Y-81859819D01*
X103234649Y-81859819D02*
X103234649Y-81336009D01*
X103234649Y-81336009D02*
X103282268Y-81240771D01*
X103282268Y-81240771D02*
X103377506Y-81193152D01*
X103377506Y-81193152D02*
X103567982Y-81193152D01*
X103567982Y-81193152D02*
X103663220Y-81240771D01*
X103234649Y-81812200D02*
X103329887Y-81859819D01*
X103329887Y-81859819D02*
X103567982Y-81859819D01*
X103567982Y-81859819D02*
X103663220Y-81812200D01*
X103663220Y-81812200D02*
X103710839Y-81716961D01*
X103710839Y-81716961D02*
X103710839Y-81621723D01*
X103710839Y-81621723D02*
X103663220Y-81526485D01*
X103663220Y-81526485D02*
X103567982Y-81478866D01*
X103567982Y-81478866D02*
X103329887Y-81478866D01*
X103329887Y-81478866D02*
X103234649Y-81431247D01*
X102329887Y-81859819D02*
X102329887Y-80859819D01*
X102329887Y-81812200D02*
X102425125Y-81859819D01*
X102425125Y-81859819D02*
X102615601Y-81859819D01*
X102615601Y-81859819D02*
X102710839Y-81812200D01*
X102710839Y-81812200D02*
X102758458Y-81764580D01*
X102758458Y-81764580D02*
X102806077Y-81669342D01*
X102806077Y-81669342D02*
X102806077Y-81383628D01*
X102806077Y-81383628D02*
X102758458Y-81288390D01*
X102758458Y-81288390D02*
X102710839Y-81240771D01*
X102710839Y-81240771D02*
X102615601Y-81193152D01*
X102615601Y-81193152D02*
X102425125Y-81193152D01*
X102425125Y-81193152D02*
X102329887Y-81240771D01*
X101472744Y-81812200D02*
X101567982Y-81859819D01*
X101567982Y-81859819D02*
X101758458Y-81859819D01*
X101758458Y-81859819D02*
X101853696Y-81812200D01*
X101853696Y-81812200D02*
X101901315Y-81716961D01*
X101901315Y-81716961D02*
X101901315Y-81336009D01*
X101901315Y-81336009D02*
X101853696Y-81240771D01*
X101853696Y-81240771D02*
X101758458Y-81193152D01*
X101758458Y-81193152D02*
X101567982Y-81193152D01*
X101567982Y-81193152D02*
X101472744Y-81240771D01*
X101472744Y-81240771D02*
X101425125Y-81336009D01*
X101425125Y-81336009D02*
X101425125Y-81431247D01*
X101425125Y-81431247D02*
X101901315Y-81526485D01*
X101091791Y-80859819D02*
X100472744Y-80859819D01*
X100472744Y-80859819D02*
X100806077Y-81240771D01*
X100806077Y-81240771D02*
X100663220Y-81240771D01*
X100663220Y-81240771D02*
X100567982Y-81288390D01*
X100567982Y-81288390D02*
X100520363Y-81336009D01*
X100520363Y-81336009D02*
X100472744Y-81431247D01*
X100472744Y-81431247D02*
X100472744Y-81669342D01*
X100472744Y-81669342D02*
X100520363Y-81764580D01*
X100520363Y-81764580D02*
X100567982Y-81812200D01*
X100567982Y-81812200D02*
X100663220Y-81859819D01*
X100663220Y-81859819D02*
X100948934Y-81859819D01*
X100948934Y-81859819D02*
X101044172Y-81812200D01*
X101044172Y-81812200D02*
X101091791Y-81764580D01*
X99663220Y-81812200D02*
X99758458Y-81859819D01*
X99758458Y-81859819D02*
X99948934Y-81859819D01*
X99948934Y-81859819D02*
X100044172Y-81812200D01*
X100044172Y-81812200D02*
X100091791Y-81716961D01*
X100091791Y-81716961D02*
X100091791Y-81336009D01*
X100091791Y-81336009D02*
X100044172Y-81240771D01*
X100044172Y-81240771D02*
X99948934Y-81193152D01*
X99948934Y-81193152D02*
X99758458Y-81193152D01*
X99758458Y-81193152D02*
X99663220Y-81240771D01*
X99663220Y-81240771D02*
X99615601Y-81336009D01*
X99615601Y-81336009D02*
X99615601Y-81431247D01*
X99615601Y-81431247D02*
X100091791Y-81526485D01*
X98472743Y-80955057D02*
X98425124Y-80907438D01*
X98425124Y-80907438D02*
X98329886Y-80859819D01*
X98329886Y-80859819D02*
X98091791Y-80859819D01*
X98091791Y-80859819D02*
X97996553Y-80907438D01*
X97996553Y-80907438D02*
X97948934Y-80955057D01*
X97948934Y-80955057D02*
X97901315Y-81050295D01*
X97901315Y-81050295D02*
X97901315Y-81145533D01*
X97901315Y-81145533D02*
X97948934Y-81288390D01*
X97948934Y-81288390D02*
X98520362Y-81859819D01*
X98520362Y-81859819D02*
X97901315Y-81859819D01*
X97282267Y-80859819D02*
X97187029Y-80859819D01*
X97187029Y-80859819D02*
X97091791Y-80907438D01*
X97091791Y-80907438D02*
X97044172Y-80955057D01*
X97044172Y-80955057D02*
X96996553Y-81050295D01*
X96996553Y-81050295D02*
X96948934Y-81240771D01*
X96948934Y-81240771D02*
X96948934Y-81478866D01*
X96948934Y-81478866D02*
X96996553Y-81669342D01*
X96996553Y-81669342D02*
X97044172Y-81764580D01*
X97044172Y-81764580D02*
X97091791Y-81812200D01*
X97091791Y-81812200D02*
X97187029Y-81859819D01*
X97187029Y-81859819D02*
X97282267Y-81859819D01*
X97282267Y-81859819D02*
X97377505Y-81812200D01*
X97377505Y-81812200D02*
X97425124Y-81764580D01*
X97425124Y-81764580D02*
X97472743Y-81669342D01*
X97472743Y-81669342D02*
X97520362Y-81478866D01*
X97520362Y-81478866D02*
X97520362Y-81240771D01*
X97520362Y-81240771D02*
X97472743Y-81050295D01*
X97472743Y-81050295D02*
X97425124Y-80955057D01*
X97425124Y-80955057D02*
X97377505Y-80907438D01*
X97377505Y-80907438D02*
X97282267Y-80859819D01*
X96567981Y-80955057D02*
X96520362Y-80907438D01*
X96520362Y-80907438D02*
X96425124Y-80859819D01*
X96425124Y-80859819D02*
X96187029Y-80859819D01*
X96187029Y-80859819D02*
X96091791Y-80907438D01*
X96091791Y-80907438D02*
X96044172Y-80955057D01*
X96044172Y-80955057D02*
X95996553Y-81050295D01*
X95996553Y-81050295D02*
X95996553Y-81145533D01*
X95996553Y-81145533D02*
X96044172Y-81288390D01*
X96044172Y-81288390D02*
X96615600Y-81859819D01*
X96615600Y-81859819D02*
X95996553Y-81859819D01*
X95663219Y-80859819D02*
X95044172Y-80859819D01*
X95044172Y-80859819D02*
X95377505Y-81240771D01*
X95377505Y-81240771D02*
X95234648Y-81240771D01*
X95234648Y-81240771D02*
X95139410Y-81288390D01*
X95139410Y-81288390D02*
X95091791Y-81336009D01*
X95091791Y-81336009D02*
X95044172Y-81431247D01*
X95044172Y-81431247D02*
X95044172Y-81669342D01*
X95044172Y-81669342D02*
X95091791Y-81764580D01*
X95091791Y-81764580D02*
X95139410Y-81812200D01*
X95139410Y-81812200D02*
X95234648Y-81859819D01*
X95234648Y-81859819D02*
X95520362Y-81859819D01*
X95520362Y-81859819D02*
X95615600Y-81812200D01*
X95615600Y-81812200D02*
X95663219Y-81764580D01*
X104663220Y-82946009D02*
X104329887Y-82946009D01*
X104187030Y-83469819D02*
X104663220Y-83469819D01*
X104663220Y-83469819D02*
X104663220Y-82469819D01*
X104663220Y-82469819D02*
X104187030Y-82469819D01*
X103806077Y-83422200D02*
X103710839Y-83469819D01*
X103710839Y-83469819D02*
X103520363Y-83469819D01*
X103520363Y-83469819D02*
X103425125Y-83422200D01*
X103425125Y-83422200D02*
X103377506Y-83326961D01*
X103377506Y-83326961D02*
X103377506Y-83279342D01*
X103377506Y-83279342D02*
X103425125Y-83184104D01*
X103425125Y-83184104D02*
X103520363Y-83136485D01*
X103520363Y-83136485D02*
X103663220Y-83136485D01*
X103663220Y-83136485D02*
X103758458Y-83088866D01*
X103758458Y-83088866D02*
X103806077Y-82993628D01*
X103806077Y-82993628D02*
X103806077Y-82946009D01*
X103806077Y-82946009D02*
X103758458Y-82850771D01*
X103758458Y-82850771D02*
X103663220Y-82803152D01*
X103663220Y-82803152D02*
X103520363Y-82803152D01*
X103520363Y-82803152D02*
X103425125Y-82850771D01*
X102948934Y-82803152D02*
X102948934Y-83803152D01*
X102948934Y-82850771D02*
X102853696Y-82803152D01*
X102853696Y-82803152D02*
X102663220Y-82803152D01*
X102663220Y-82803152D02*
X102567982Y-82850771D01*
X102567982Y-82850771D02*
X102520363Y-82898390D01*
X102520363Y-82898390D02*
X102472744Y-82993628D01*
X102472744Y-82993628D02*
X102472744Y-83279342D01*
X102472744Y-83279342D02*
X102520363Y-83374580D01*
X102520363Y-83374580D02*
X102567982Y-83422200D01*
X102567982Y-83422200D02*
X102663220Y-83469819D01*
X102663220Y-83469819D02*
X102853696Y-83469819D01*
X102853696Y-83469819D02*
X102948934Y-83422200D01*
X102139410Y-82469819D02*
X101520363Y-82469819D01*
X101520363Y-82469819D02*
X101853696Y-82850771D01*
X101853696Y-82850771D02*
X101710839Y-82850771D01*
X101710839Y-82850771D02*
X101615601Y-82898390D01*
X101615601Y-82898390D02*
X101567982Y-82946009D01*
X101567982Y-82946009D02*
X101520363Y-83041247D01*
X101520363Y-83041247D02*
X101520363Y-83279342D01*
X101520363Y-83279342D02*
X101567982Y-83374580D01*
X101567982Y-83374580D02*
X101615601Y-83422200D01*
X101615601Y-83422200D02*
X101710839Y-83469819D01*
X101710839Y-83469819D02*
X101996553Y-83469819D01*
X101996553Y-83469819D02*
X102091791Y-83422200D01*
X102091791Y-83422200D02*
X102139410Y-83374580D01*
X101139410Y-82565057D02*
X101091791Y-82517438D01*
X101091791Y-82517438D02*
X100996553Y-82469819D01*
X100996553Y-82469819D02*
X100758458Y-82469819D01*
X100758458Y-82469819D02*
X100663220Y-82517438D01*
X100663220Y-82517438D02*
X100615601Y-82565057D01*
X100615601Y-82565057D02*
X100567982Y-82660295D01*
X100567982Y-82660295D02*
X100567982Y-82755533D01*
X100567982Y-82755533D02*
X100615601Y-82898390D01*
X100615601Y-82898390D02*
X101187029Y-83469819D01*
X101187029Y-83469819D02*
X100567982Y-83469819D01*
X98853696Y-82517438D02*
X98948934Y-82469819D01*
X98948934Y-82469819D02*
X99091791Y-82469819D01*
X99091791Y-82469819D02*
X99234648Y-82517438D01*
X99234648Y-82517438D02*
X99329886Y-82612676D01*
X99329886Y-82612676D02*
X99377505Y-82707914D01*
X99377505Y-82707914D02*
X99425124Y-82898390D01*
X99425124Y-82898390D02*
X99425124Y-83041247D01*
X99425124Y-83041247D02*
X99377505Y-83231723D01*
X99377505Y-83231723D02*
X99329886Y-83326961D01*
X99329886Y-83326961D02*
X99234648Y-83422200D01*
X99234648Y-83422200D02*
X99091791Y-83469819D01*
X99091791Y-83469819D02*
X98996553Y-83469819D01*
X98996553Y-83469819D02*
X98853696Y-83422200D01*
X98853696Y-83422200D02*
X98806077Y-83374580D01*
X98806077Y-83374580D02*
X98806077Y-83041247D01*
X98806077Y-83041247D02*
X98996553Y-83041247D01*
X98377505Y-82803152D02*
X98377505Y-83803152D01*
X98377505Y-82850771D02*
X98282267Y-82803152D01*
X98282267Y-82803152D02*
X98091791Y-82803152D01*
X98091791Y-82803152D02*
X97996553Y-82850771D01*
X97996553Y-82850771D02*
X97948934Y-82898390D01*
X97948934Y-82898390D02*
X97901315Y-82993628D01*
X97901315Y-82993628D02*
X97901315Y-83279342D01*
X97901315Y-83279342D02*
X97948934Y-83374580D01*
X97948934Y-83374580D02*
X97996553Y-83422200D01*
X97996553Y-83422200D02*
X98091791Y-83469819D01*
X98091791Y-83469819D02*
X98282267Y-83469819D01*
X98282267Y-83469819D02*
X98377505Y-83422200D01*
X97520362Y-83422200D02*
X97425124Y-83469819D01*
X97425124Y-83469819D02*
X97234648Y-83469819D01*
X97234648Y-83469819D02*
X97139410Y-83422200D01*
X97139410Y-83422200D02*
X97091791Y-83326961D01*
X97091791Y-83326961D02*
X97091791Y-83279342D01*
X97091791Y-83279342D02*
X97139410Y-83184104D01*
X97139410Y-83184104D02*
X97234648Y-83136485D01*
X97234648Y-83136485D02*
X97377505Y-83136485D01*
X97377505Y-83136485D02*
X97472743Y-83088866D01*
X97472743Y-83088866D02*
X97520362Y-82993628D01*
X97520362Y-82993628D02*
X97520362Y-82946009D01*
X97520362Y-82946009D02*
X97472743Y-82850771D01*
X97472743Y-82850771D02*
X97377505Y-82803152D01*
X97377505Y-82803152D02*
X97234648Y-82803152D01*
X97234648Y-82803152D02*
X97139410Y-82850771D01*
X96091791Y-83374580D02*
X96139410Y-83422200D01*
X96139410Y-83422200D02*
X96282267Y-83469819D01*
X96282267Y-83469819D02*
X96377505Y-83469819D01*
X96377505Y-83469819D02*
X96520362Y-83422200D01*
X96520362Y-83422200D02*
X96615600Y-83326961D01*
X96615600Y-83326961D02*
X96663219Y-83231723D01*
X96663219Y-83231723D02*
X96710838Y-83041247D01*
X96710838Y-83041247D02*
X96710838Y-82898390D01*
X96710838Y-82898390D02*
X96663219Y-82707914D01*
X96663219Y-82707914D02*
X96615600Y-82612676D01*
X96615600Y-82612676D02*
X96520362Y-82517438D01*
X96520362Y-82517438D02*
X96377505Y-82469819D01*
X96377505Y-82469819D02*
X96282267Y-82469819D01*
X96282267Y-82469819D02*
X96139410Y-82517438D01*
X96139410Y-82517438D02*
X96091791Y-82565057D01*
X95520362Y-83469819D02*
X95615600Y-83422200D01*
X95615600Y-83422200D02*
X95663219Y-83374580D01*
X95663219Y-83374580D02*
X95710838Y-83279342D01*
X95710838Y-83279342D02*
X95710838Y-82993628D01*
X95710838Y-82993628D02*
X95663219Y-82898390D01*
X95663219Y-82898390D02*
X95615600Y-82850771D01*
X95615600Y-82850771D02*
X95520362Y-82803152D01*
X95520362Y-82803152D02*
X95377505Y-82803152D01*
X95377505Y-82803152D02*
X95282267Y-82850771D01*
X95282267Y-82850771D02*
X95234648Y-82898390D01*
X95234648Y-82898390D02*
X95187029Y-82993628D01*
X95187029Y-82993628D02*
X95187029Y-83279342D01*
X95187029Y-83279342D02*
X95234648Y-83374580D01*
X95234648Y-83374580D02*
X95282267Y-83422200D01*
X95282267Y-83422200D02*
X95377505Y-83469819D01*
X95377505Y-83469819D02*
X95520362Y-83469819D01*
X94758457Y-83469819D02*
X94758457Y-82803152D01*
X94758457Y-82898390D02*
X94710838Y-82850771D01*
X94710838Y-82850771D02*
X94615600Y-82803152D01*
X94615600Y-82803152D02*
X94472743Y-82803152D01*
X94472743Y-82803152D02*
X94377505Y-82850771D01*
X94377505Y-82850771D02*
X94329886Y-82946009D01*
X94329886Y-82946009D02*
X94329886Y-83469819D01*
X94329886Y-82946009D02*
X94282267Y-82850771D01*
X94282267Y-82850771D02*
X94187029Y-82803152D01*
X94187029Y-82803152D02*
X94044172Y-82803152D01*
X94044172Y-82803152D02*
X93948933Y-82850771D01*
X93948933Y-82850771D02*
X93901314Y-82946009D01*
X93901314Y-82946009D02*
X93901314Y-83469819D01*
X93425124Y-82803152D02*
X93425124Y-83803152D01*
X93425124Y-82850771D02*
X93329886Y-82803152D01*
X93329886Y-82803152D02*
X93139410Y-82803152D01*
X93139410Y-82803152D02*
X93044172Y-82850771D01*
X93044172Y-82850771D02*
X92996553Y-82898390D01*
X92996553Y-82898390D02*
X92948934Y-82993628D01*
X92948934Y-82993628D02*
X92948934Y-83279342D01*
X92948934Y-83279342D02*
X92996553Y-83374580D01*
X92996553Y-83374580D02*
X93044172Y-83422200D01*
X93044172Y-83422200D02*
X93139410Y-83469819D01*
X93139410Y-83469819D02*
X93329886Y-83469819D01*
X93329886Y-83469819D02*
X93425124Y-83422200D01*
X92091791Y-83469819D02*
X92091791Y-82946009D01*
X92091791Y-82946009D02*
X92139410Y-82850771D01*
X92139410Y-82850771D02*
X92234648Y-82803152D01*
X92234648Y-82803152D02*
X92425124Y-82803152D01*
X92425124Y-82803152D02*
X92520362Y-82850771D01*
X92091791Y-83422200D02*
X92187029Y-83469819D01*
X92187029Y-83469819D02*
X92425124Y-83469819D01*
X92425124Y-83469819D02*
X92520362Y-83422200D01*
X92520362Y-83422200D02*
X92567981Y-83326961D01*
X92567981Y-83326961D02*
X92567981Y-83231723D01*
X92567981Y-83231723D02*
X92520362Y-83136485D01*
X92520362Y-83136485D02*
X92425124Y-83088866D01*
X92425124Y-83088866D02*
X92187029Y-83088866D01*
X92187029Y-83088866D02*
X92091791Y-83041247D01*
X91663219Y-83422200D02*
X91567981Y-83469819D01*
X91567981Y-83469819D02*
X91377505Y-83469819D01*
X91377505Y-83469819D02*
X91282267Y-83422200D01*
X91282267Y-83422200D02*
X91234648Y-83326961D01*
X91234648Y-83326961D02*
X91234648Y-83279342D01*
X91234648Y-83279342D02*
X91282267Y-83184104D01*
X91282267Y-83184104D02*
X91377505Y-83136485D01*
X91377505Y-83136485D02*
X91520362Y-83136485D01*
X91520362Y-83136485D02*
X91615600Y-83088866D01*
X91615600Y-83088866D02*
X91663219Y-82993628D01*
X91663219Y-82993628D02*
X91663219Y-82946009D01*
X91663219Y-82946009D02*
X91615600Y-82850771D01*
X91615600Y-82850771D02*
X91520362Y-82803152D01*
X91520362Y-82803152D02*
X91377505Y-82803152D01*
X91377505Y-82803152D02*
X91282267Y-82850771D01*
X90853695Y-83422200D02*
X90758457Y-83469819D01*
X90758457Y-83469819D02*
X90567981Y-83469819D01*
X90567981Y-83469819D02*
X90472743Y-83422200D01*
X90472743Y-83422200D02*
X90425124Y-83326961D01*
X90425124Y-83326961D02*
X90425124Y-83279342D01*
X90425124Y-83279342D02*
X90472743Y-83184104D01*
X90472743Y-83184104D02*
X90567981Y-83136485D01*
X90567981Y-83136485D02*
X90710838Y-83136485D01*
X90710838Y-83136485D02*
X90806076Y-83088866D01*
X90806076Y-83088866D02*
X90853695Y-82993628D01*
X90853695Y-82993628D02*
X90853695Y-82946009D01*
X90853695Y-82946009D02*
X90806076Y-82850771D01*
X90806076Y-82850771D02*
X90710838Y-82803152D01*
X90710838Y-82803152D02*
X90567981Y-82803152D01*
X90567981Y-82803152D02*
X90472743Y-82850771D01*
D10*
X69346895Y-50081979D02*
X69346895Y-50539122D01*
X70146895Y-50310550D02*
X69346895Y-50310550D01*
X69346895Y-50729598D02*
X70146895Y-51262932D01*
X69346895Y-51262932D02*
X70146895Y-50729598D01*
X94169449Y-46036895D02*
X94245639Y-45998800D01*
X94245639Y-45998800D02*
X94283734Y-45960704D01*
X94283734Y-45960704D02*
X94321830Y-45884514D01*
X94321830Y-45884514D02*
X94321830Y-45655942D01*
X94321830Y-45655942D02*
X94283734Y-45579752D01*
X94283734Y-45579752D02*
X94245639Y-45541657D01*
X94245639Y-45541657D02*
X94169449Y-45503561D01*
X94169449Y-45503561D02*
X94055163Y-45503561D01*
X94055163Y-45503561D02*
X93978972Y-45541657D01*
X93978972Y-45541657D02*
X93940877Y-45579752D01*
X93940877Y-45579752D02*
X93902782Y-45655942D01*
X93902782Y-45655942D02*
X93902782Y-45884514D01*
X93902782Y-45884514D02*
X93940877Y-45960704D01*
X93940877Y-45960704D02*
X93978972Y-45998800D01*
X93978972Y-45998800D02*
X94055163Y-46036895D01*
X94055163Y-46036895D02*
X94169449Y-46036895D01*
X93674210Y-45503561D02*
X93369448Y-45503561D01*
X93559924Y-46036895D02*
X93559924Y-45351180D01*
X93559924Y-45351180D02*
X93521829Y-45274990D01*
X93521829Y-45274990D02*
X93445639Y-45236895D01*
X93445639Y-45236895D02*
X93369448Y-45236895D01*
X93217067Y-45503561D02*
X92912305Y-45503561D01*
X93102781Y-46036895D02*
X93102781Y-45351180D01*
X93102781Y-45351180D02*
X93064686Y-45274990D01*
X93064686Y-45274990D02*
X92988496Y-45236895D01*
X92988496Y-45236895D02*
X92912305Y-45236895D01*
X91921829Y-46036895D02*
X91998019Y-45998800D01*
X91998019Y-45998800D02*
X92036114Y-45960704D01*
X92036114Y-45960704D02*
X92074210Y-45884514D01*
X92074210Y-45884514D02*
X92074210Y-45655942D01*
X92074210Y-45655942D02*
X92036114Y-45579752D01*
X92036114Y-45579752D02*
X91998019Y-45541657D01*
X91998019Y-45541657D02*
X91921829Y-45503561D01*
X91921829Y-45503561D02*
X91807543Y-45503561D01*
X91807543Y-45503561D02*
X91731352Y-45541657D01*
X91731352Y-45541657D02*
X91693257Y-45579752D01*
X91693257Y-45579752D02*
X91655162Y-45655942D01*
X91655162Y-45655942D02*
X91655162Y-45884514D01*
X91655162Y-45884514D02*
X91693257Y-45960704D01*
X91693257Y-45960704D02*
X91731352Y-45998800D01*
X91731352Y-45998800D02*
X91807543Y-46036895D01*
X91807543Y-46036895D02*
X91921829Y-46036895D01*
X91312304Y-45503561D02*
X91312304Y-46036895D01*
X91312304Y-45579752D02*
X91274209Y-45541657D01*
X91274209Y-45541657D02*
X91198019Y-45503561D01*
X91198019Y-45503561D02*
X91083733Y-45503561D01*
X91083733Y-45503561D02*
X91007542Y-45541657D01*
X91007542Y-45541657D02*
X90969447Y-45617847D01*
X90969447Y-45617847D02*
X90969447Y-46036895D01*
X69384990Y-55215312D02*
X69346895Y-55139122D01*
X69346895Y-55139122D02*
X69346895Y-55024836D01*
X69346895Y-55024836D02*
X69384990Y-54910550D01*
X69384990Y-54910550D02*
X69461180Y-54834360D01*
X69461180Y-54834360D02*
X69537371Y-54796265D01*
X69537371Y-54796265D02*
X69689752Y-54758169D01*
X69689752Y-54758169D02*
X69804038Y-54758169D01*
X69804038Y-54758169D02*
X69956419Y-54796265D01*
X69956419Y-54796265D02*
X70032609Y-54834360D01*
X70032609Y-54834360D02*
X70108800Y-54910550D01*
X70108800Y-54910550D02*
X70146895Y-55024836D01*
X70146895Y-55024836D02*
X70146895Y-55101027D01*
X70146895Y-55101027D02*
X70108800Y-55215312D01*
X70108800Y-55215312D02*
X70070704Y-55253408D01*
X70070704Y-55253408D02*
X69804038Y-55253408D01*
X69804038Y-55253408D02*
X69804038Y-55101027D01*
X70146895Y-55596265D02*
X69346895Y-55596265D01*
X69346895Y-55596265D02*
X70146895Y-56053408D01*
X70146895Y-56053408D02*
X69346895Y-56053408D01*
X70146895Y-56434360D02*
X69346895Y-56434360D01*
X69346895Y-56434360D02*
X69346895Y-56624836D01*
X69346895Y-56624836D02*
X69384990Y-56739122D01*
X69384990Y-56739122D02*
X69461180Y-56815312D01*
X69461180Y-56815312D02*
X69537371Y-56853407D01*
X69537371Y-56853407D02*
X69689752Y-56891503D01*
X69689752Y-56891503D02*
X69804038Y-56891503D01*
X69804038Y-56891503D02*
X69956419Y-56853407D01*
X69956419Y-56853407D02*
X70032609Y-56815312D01*
X70032609Y-56815312D02*
X70108800Y-56739122D01*
X70108800Y-56739122D02*
X70146895Y-56624836D01*
X70146895Y-56624836D02*
X70146895Y-56434360D01*
D11*
%TO.C,J1*%
X70254819Y-62666666D02*
X70969104Y-62666666D01*
X70969104Y-62666666D02*
X71111961Y-62619047D01*
X71111961Y-62619047D02*
X71207200Y-62523809D01*
X71207200Y-62523809D02*
X71254819Y-62380952D01*
X71254819Y-62380952D02*
X71254819Y-62285714D01*
X71254819Y-63666666D02*
X71254819Y-63095238D01*
X71254819Y-63380952D02*
X70254819Y-63380952D01*
X70254819Y-63380952D02*
X70397676Y-63285714D01*
X70397676Y-63285714D02*
X70492914Y-63190476D01*
X70492914Y-63190476D02*
X70540533Y-63095238D01*
%TO.C,R6*%
X75379166Y-56054819D02*
X75712499Y-55578628D01*
X75950594Y-56054819D02*
X75950594Y-55054819D01*
X75950594Y-55054819D02*
X75569642Y-55054819D01*
X75569642Y-55054819D02*
X75474404Y-55102438D01*
X75474404Y-55102438D02*
X75426785Y-55150057D01*
X75426785Y-55150057D02*
X75379166Y-55245295D01*
X75379166Y-55245295D02*
X75379166Y-55388152D01*
X75379166Y-55388152D02*
X75426785Y-55483390D01*
X75426785Y-55483390D02*
X75474404Y-55531009D01*
X75474404Y-55531009D02*
X75569642Y-55578628D01*
X75569642Y-55578628D02*
X75950594Y-55578628D01*
X74522023Y-55054819D02*
X74712499Y-55054819D01*
X74712499Y-55054819D02*
X74807737Y-55102438D01*
X74807737Y-55102438D02*
X74855356Y-55150057D01*
X74855356Y-55150057D02*
X74950594Y-55292914D01*
X74950594Y-55292914D02*
X74998213Y-55483390D01*
X74998213Y-55483390D02*
X74998213Y-55864342D01*
X74998213Y-55864342D02*
X74950594Y-55959580D01*
X74950594Y-55959580D02*
X74902975Y-56007200D01*
X74902975Y-56007200D02*
X74807737Y-56054819D01*
X74807737Y-56054819D02*
X74617261Y-56054819D01*
X74617261Y-56054819D02*
X74522023Y-56007200D01*
X74522023Y-56007200D02*
X74474404Y-55959580D01*
X74474404Y-55959580D02*
X74426785Y-55864342D01*
X74426785Y-55864342D02*
X74426785Y-55626247D01*
X74426785Y-55626247D02*
X74474404Y-55531009D01*
X74474404Y-55531009D02*
X74522023Y-55483390D01*
X74522023Y-55483390D02*
X74617261Y-55435771D01*
X74617261Y-55435771D02*
X74807737Y-55435771D01*
X74807737Y-55435771D02*
X74902975Y-55483390D01*
X74902975Y-55483390D02*
X74950594Y-55531009D01*
X74950594Y-55531009D02*
X74998213Y-55626247D01*
D10*
%TO.C,R5*%
X122123332Y-51654895D02*
X122389999Y-51273942D01*
X122580475Y-51654895D02*
X122580475Y-50854895D01*
X122580475Y-50854895D02*
X122275713Y-50854895D01*
X122275713Y-50854895D02*
X122199523Y-50892990D01*
X122199523Y-50892990D02*
X122161428Y-50931085D01*
X122161428Y-50931085D02*
X122123332Y-51007276D01*
X122123332Y-51007276D02*
X122123332Y-51121561D01*
X122123332Y-51121561D02*
X122161428Y-51197752D01*
X122161428Y-51197752D02*
X122199523Y-51235847D01*
X122199523Y-51235847D02*
X122275713Y-51273942D01*
X122275713Y-51273942D02*
X122580475Y-51273942D01*
X121399523Y-50854895D02*
X121780475Y-50854895D01*
X121780475Y-50854895D02*
X121818571Y-51235847D01*
X121818571Y-51235847D02*
X121780475Y-51197752D01*
X121780475Y-51197752D02*
X121704285Y-51159657D01*
X121704285Y-51159657D02*
X121513809Y-51159657D01*
X121513809Y-51159657D02*
X121437618Y-51197752D01*
X121437618Y-51197752D02*
X121399523Y-51235847D01*
X121399523Y-51235847D02*
X121361428Y-51312038D01*
X121361428Y-51312038D02*
X121361428Y-51502514D01*
X121361428Y-51502514D02*
X121399523Y-51578704D01*
X121399523Y-51578704D02*
X121437618Y-51616800D01*
X121437618Y-51616800D02*
X121513809Y-51654895D01*
X121513809Y-51654895D02*
X121704285Y-51654895D01*
X121704285Y-51654895D02*
X121780475Y-51616800D01*
X121780475Y-51616800D02*
X121818571Y-51578704D01*
%TO.C,R3*%
X73733332Y-71864895D02*
X73999999Y-71483942D01*
X74190475Y-71864895D02*
X74190475Y-71064895D01*
X74190475Y-71064895D02*
X73885713Y-71064895D01*
X73885713Y-71064895D02*
X73809523Y-71102990D01*
X73809523Y-71102990D02*
X73771428Y-71141085D01*
X73771428Y-71141085D02*
X73733332Y-71217276D01*
X73733332Y-71217276D02*
X73733332Y-71331561D01*
X73733332Y-71331561D02*
X73771428Y-71407752D01*
X73771428Y-71407752D02*
X73809523Y-71445847D01*
X73809523Y-71445847D02*
X73885713Y-71483942D01*
X73885713Y-71483942D02*
X74190475Y-71483942D01*
X73466666Y-71064895D02*
X72971428Y-71064895D01*
X72971428Y-71064895D02*
X73238094Y-71369657D01*
X73238094Y-71369657D02*
X73123809Y-71369657D01*
X73123809Y-71369657D02*
X73047618Y-71407752D01*
X73047618Y-71407752D02*
X73009523Y-71445847D01*
X73009523Y-71445847D02*
X72971428Y-71522038D01*
X72971428Y-71522038D02*
X72971428Y-71712514D01*
X72971428Y-71712514D02*
X73009523Y-71788704D01*
X73009523Y-71788704D02*
X73047618Y-71826800D01*
X73047618Y-71826800D02*
X73123809Y-71864895D01*
X73123809Y-71864895D02*
X73352380Y-71864895D01*
X73352380Y-71864895D02*
X73428571Y-71826800D01*
X73428571Y-71826800D02*
X73466666Y-71788704D01*
D11*
%TO.C,BT1*%
X74201009Y-62204285D02*
X74248628Y-62347142D01*
X74248628Y-62347142D02*
X74296247Y-62394761D01*
X74296247Y-62394761D02*
X74391485Y-62442380D01*
X74391485Y-62442380D02*
X74534342Y-62442380D01*
X74534342Y-62442380D02*
X74629580Y-62394761D01*
X74629580Y-62394761D02*
X74677200Y-62347142D01*
X74677200Y-62347142D02*
X74724819Y-62251904D01*
X74724819Y-62251904D02*
X74724819Y-61870952D01*
X74724819Y-61870952D02*
X73724819Y-61870952D01*
X73724819Y-61870952D02*
X73724819Y-62204285D01*
X73724819Y-62204285D02*
X73772438Y-62299523D01*
X73772438Y-62299523D02*
X73820057Y-62347142D01*
X73820057Y-62347142D02*
X73915295Y-62394761D01*
X73915295Y-62394761D02*
X74010533Y-62394761D01*
X74010533Y-62394761D02*
X74105771Y-62347142D01*
X74105771Y-62347142D02*
X74153390Y-62299523D01*
X74153390Y-62299523D02*
X74201009Y-62204285D01*
X74201009Y-62204285D02*
X74201009Y-61870952D01*
X73724819Y-62728095D02*
X73724819Y-63299523D01*
X74724819Y-63013809D02*
X73724819Y-63013809D01*
X74724819Y-64156666D02*
X74724819Y-63585238D01*
X74724819Y-63870952D02*
X73724819Y-63870952D01*
X73724819Y-63870952D02*
X73867676Y-63775714D01*
X73867676Y-63775714D02*
X73962914Y-63680476D01*
X73962914Y-63680476D02*
X74010533Y-63585238D01*
%TO.C,U3*%
X79761904Y-75234819D02*
X79761904Y-76044342D01*
X79761904Y-76044342D02*
X79714285Y-76139580D01*
X79714285Y-76139580D02*
X79666666Y-76187200D01*
X79666666Y-76187200D02*
X79571428Y-76234819D01*
X79571428Y-76234819D02*
X79380952Y-76234819D01*
X79380952Y-76234819D02*
X79285714Y-76187200D01*
X79285714Y-76187200D02*
X79238095Y-76139580D01*
X79238095Y-76139580D02*
X79190476Y-76044342D01*
X79190476Y-76044342D02*
X79190476Y-75234819D01*
X78809523Y-75234819D02*
X78190476Y-75234819D01*
X78190476Y-75234819D02*
X78523809Y-75615771D01*
X78523809Y-75615771D02*
X78380952Y-75615771D01*
X78380952Y-75615771D02*
X78285714Y-75663390D01*
X78285714Y-75663390D02*
X78238095Y-75711009D01*
X78238095Y-75711009D02*
X78190476Y-75806247D01*
X78190476Y-75806247D02*
X78190476Y-76044342D01*
X78190476Y-76044342D02*
X78238095Y-76139580D01*
X78238095Y-76139580D02*
X78285714Y-76187200D01*
X78285714Y-76187200D02*
X78380952Y-76234819D01*
X78380952Y-76234819D02*
X78666666Y-76234819D01*
X78666666Y-76234819D02*
X78761904Y-76187200D01*
X78761904Y-76187200D02*
X78809523Y-76139580D01*
D10*
%TO.C,C5*%
X86033332Y-47188704D02*
X86071428Y-47226800D01*
X86071428Y-47226800D02*
X86185713Y-47264895D01*
X86185713Y-47264895D02*
X86261904Y-47264895D01*
X86261904Y-47264895D02*
X86376190Y-47226800D01*
X86376190Y-47226800D02*
X86452380Y-47150609D01*
X86452380Y-47150609D02*
X86490475Y-47074419D01*
X86490475Y-47074419D02*
X86528571Y-46922038D01*
X86528571Y-46922038D02*
X86528571Y-46807752D01*
X86528571Y-46807752D02*
X86490475Y-46655371D01*
X86490475Y-46655371D02*
X86452380Y-46579180D01*
X86452380Y-46579180D02*
X86376190Y-46502990D01*
X86376190Y-46502990D02*
X86261904Y-46464895D01*
X86261904Y-46464895D02*
X86185713Y-46464895D01*
X86185713Y-46464895D02*
X86071428Y-46502990D01*
X86071428Y-46502990D02*
X86033332Y-46541085D01*
X85309523Y-46464895D02*
X85690475Y-46464895D01*
X85690475Y-46464895D02*
X85728571Y-46845847D01*
X85728571Y-46845847D02*
X85690475Y-46807752D01*
X85690475Y-46807752D02*
X85614285Y-46769657D01*
X85614285Y-46769657D02*
X85423809Y-46769657D01*
X85423809Y-46769657D02*
X85347618Y-46807752D01*
X85347618Y-46807752D02*
X85309523Y-46845847D01*
X85309523Y-46845847D02*
X85271428Y-46922038D01*
X85271428Y-46922038D02*
X85271428Y-47112514D01*
X85271428Y-47112514D02*
X85309523Y-47188704D01*
X85309523Y-47188704D02*
X85347618Y-47226800D01*
X85347618Y-47226800D02*
X85423809Y-47264895D01*
X85423809Y-47264895D02*
X85614285Y-47264895D01*
X85614285Y-47264895D02*
X85690475Y-47226800D01*
X85690475Y-47226800D02*
X85728571Y-47188704D01*
%TO.C,R10*%
X85914895Y-51285714D02*
X85533942Y-51019047D01*
X85914895Y-50828571D02*
X85114895Y-50828571D01*
X85114895Y-50828571D02*
X85114895Y-51133333D01*
X85114895Y-51133333D02*
X85152990Y-51209523D01*
X85152990Y-51209523D02*
X85191085Y-51247618D01*
X85191085Y-51247618D02*
X85267276Y-51285714D01*
X85267276Y-51285714D02*
X85381561Y-51285714D01*
X85381561Y-51285714D02*
X85457752Y-51247618D01*
X85457752Y-51247618D02*
X85495847Y-51209523D01*
X85495847Y-51209523D02*
X85533942Y-51133333D01*
X85533942Y-51133333D02*
X85533942Y-50828571D01*
X85914895Y-52047618D02*
X85914895Y-51590475D01*
X85914895Y-51819047D02*
X85114895Y-51819047D01*
X85114895Y-51819047D02*
X85229180Y-51742856D01*
X85229180Y-51742856D02*
X85305371Y-51666666D01*
X85305371Y-51666666D02*
X85343466Y-51590475D01*
X85114895Y-52542857D02*
X85114895Y-52619047D01*
X85114895Y-52619047D02*
X85152990Y-52695238D01*
X85152990Y-52695238D02*
X85191085Y-52733333D01*
X85191085Y-52733333D02*
X85267276Y-52771428D01*
X85267276Y-52771428D02*
X85419657Y-52809523D01*
X85419657Y-52809523D02*
X85610133Y-52809523D01*
X85610133Y-52809523D02*
X85762514Y-52771428D01*
X85762514Y-52771428D02*
X85838704Y-52733333D01*
X85838704Y-52733333D02*
X85876800Y-52695238D01*
X85876800Y-52695238D02*
X85914895Y-52619047D01*
X85914895Y-52619047D02*
X85914895Y-52542857D01*
X85914895Y-52542857D02*
X85876800Y-52466666D01*
X85876800Y-52466666D02*
X85838704Y-52428571D01*
X85838704Y-52428571D02*
X85762514Y-52390476D01*
X85762514Y-52390476D02*
X85610133Y-52352380D01*
X85610133Y-52352380D02*
X85419657Y-52352380D01*
X85419657Y-52352380D02*
X85267276Y-52390476D01*
X85267276Y-52390476D02*
X85191085Y-52428571D01*
X85191085Y-52428571D02*
X85152990Y-52466666D01*
X85152990Y-52466666D02*
X85114895Y-52542857D01*
%TO.C,R12*%
X128194895Y-74755714D02*
X127813942Y-74489047D01*
X128194895Y-74298571D02*
X127394895Y-74298571D01*
X127394895Y-74298571D02*
X127394895Y-74603333D01*
X127394895Y-74603333D02*
X127432990Y-74679523D01*
X127432990Y-74679523D02*
X127471085Y-74717618D01*
X127471085Y-74717618D02*
X127547276Y-74755714D01*
X127547276Y-74755714D02*
X127661561Y-74755714D01*
X127661561Y-74755714D02*
X127737752Y-74717618D01*
X127737752Y-74717618D02*
X127775847Y-74679523D01*
X127775847Y-74679523D02*
X127813942Y-74603333D01*
X127813942Y-74603333D02*
X127813942Y-74298571D01*
X128194895Y-75517618D02*
X128194895Y-75060475D01*
X128194895Y-75289047D02*
X127394895Y-75289047D01*
X127394895Y-75289047D02*
X127509180Y-75212856D01*
X127509180Y-75212856D02*
X127585371Y-75136666D01*
X127585371Y-75136666D02*
X127623466Y-75060475D01*
X127471085Y-75822380D02*
X127432990Y-75860476D01*
X127432990Y-75860476D02*
X127394895Y-75936666D01*
X127394895Y-75936666D02*
X127394895Y-76127142D01*
X127394895Y-76127142D02*
X127432990Y-76203333D01*
X127432990Y-76203333D02*
X127471085Y-76241428D01*
X127471085Y-76241428D02*
X127547276Y-76279523D01*
X127547276Y-76279523D02*
X127623466Y-76279523D01*
X127623466Y-76279523D02*
X127737752Y-76241428D01*
X127737752Y-76241428D02*
X128194895Y-75784285D01*
X128194895Y-75784285D02*
X128194895Y-76279523D01*
%TO.C,C16*%
X135264285Y-54638704D02*
X135302381Y-54676800D01*
X135302381Y-54676800D02*
X135416666Y-54714895D01*
X135416666Y-54714895D02*
X135492857Y-54714895D01*
X135492857Y-54714895D02*
X135607143Y-54676800D01*
X135607143Y-54676800D02*
X135683333Y-54600609D01*
X135683333Y-54600609D02*
X135721428Y-54524419D01*
X135721428Y-54524419D02*
X135759524Y-54372038D01*
X135759524Y-54372038D02*
X135759524Y-54257752D01*
X135759524Y-54257752D02*
X135721428Y-54105371D01*
X135721428Y-54105371D02*
X135683333Y-54029180D01*
X135683333Y-54029180D02*
X135607143Y-53952990D01*
X135607143Y-53952990D02*
X135492857Y-53914895D01*
X135492857Y-53914895D02*
X135416666Y-53914895D01*
X135416666Y-53914895D02*
X135302381Y-53952990D01*
X135302381Y-53952990D02*
X135264285Y-53991085D01*
X134502381Y-54714895D02*
X134959524Y-54714895D01*
X134730952Y-54714895D02*
X134730952Y-53914895D01*
X134730952Y-53914895D02*
X134807143Y-54029180D01*
X134807143Y-54029180D02*
X134883333Y-54105371D01*
X134883333Y-54105371D02*
X134959524Y-54143466D01*
X133816666Y-53914895D02*
X133969047Y-53914895D01*
X133969047Y-53914895D02*
X134045238Y-53952990D01*
X134045238Y-53952990D02*
X134083333Y-53991085D01*
X134083333Y-53991085D02*
X134159523Y-54105371D01*
X134159523Y-54105371D02*
X134197619Y-54257752D01*
X134197619Y-54257752D02*
X134197619Y-54562514D01*
X134197619Y-54562514D02*
X134159523Y-54638704D01*
X134159523Y-54638704D02*
X134121428Y-54676800D01*
X134121428Y-54676800D02*
X134045238Y-54714895D01*
X134045238Y-54714895D02*
X133892857Y-54714895D01*
X133892857Y-54714895D02*
X133816666Y-54676800D01*
X133816666Y-54676800D02*
X133778571Y-54638704D01*
X133778571Y-54638704D02*
X133740476Y-54562514D01*
X133740476Y-54562514D02*
X133740476Y-54372038D01*
X133740476Y-54372038D02*
X133778571Y-54295847D01*
X133778571Y-54295847D02*
X133816666Y-54257752D01*
X133816666Y-54257752D02*
X133892857Y-54219657D01*
X133892857Y-54219657D02*
X134045238Y-54219657D01*
X134045238Y-54219657D02*
X134121428Y-54257752D01*
X134121428Y-54257752D02*
X134159523Y-54295847D01*
X134159523Y-54295847D02*
X134197619Y-54372038D01*
%TO.C,R13*%
X124734895Y-74745714D02*
X124353942Y-74479047D01*
X124734895Y-74288571D02*
X123934895Y-74288571D01*
X123934895Y-74288571D02*
X123934895Y-74593333D01*
X123934895Y-74593333D02*
X123972990Y-74669523D01*
X123972990Y-74669523D02*
X124011085Y-74707618D01*
X124011085Y-74707618D02*
X124087276Y-74745714D01*
X124087276Y-74745714D02*
X124201561Y-74745714D01*
X124201561Y-74745714D02*
X124277752Y-74707618D01*
X124277752Y-74707618D02*
X124315847Y-74669523D01*
X124315847Y-74669523D02*
X124353942Y-74593333D01*
X124353942Y-74593333D02*
X124353942Y-74288571D01*
X124734895Y-75507618D02*
X124734895Y-75050475D01*
X124734895Y-75279047D02*
X123934895Y-75279047D01*
X123934895Y-75279047D02*
X124049180Y-75202856D01*
X124049180Y-75202856D02*
X124125371Y-75126666D01*
X124125371Y-75126666D02*
X124163466Y-75050475D01*
X123934895Y-75774285D02*
X123934895Y-76269523D01*
X123934895Y-76269523D02*
X124239657Y-76002857D01*
X124239657Y-76002857D02*
X124239657Y-76117142D01*
X124239657Y-76117142D02*
X124277752Y-76193333D01*
X124277752Y-76193333D02*
X124315847Y-76231428D01*
X124315847Y-76231428D02*
X124392038Y-76269523D01*
X124392038Y-76269523D02*
X124582514Y-76269523D01*
X124582514Y-76269523D02*
X124658704Y-76231428D01*
X124658704Y-76231428D02*
X124696800Y-76193333D01*
X124696800Y-76193333D02*
X124734895Y-76117142D01*
X124734895Y-76117142D02*
X124734895Y-75888571D01*
X124734895Y-75888571D02*
X124696800Y-75812380D01*
X124696800Y-75812380D02*
X124658704Y-75774285D01*
%TO.C,C19*%
X125954285Y-54698704D02*
X125992381Y-54736800D01*
X125992381Y-54736800D02*
X126106666Y-54774895D01*
X126106666Y-54774895D02*
X126182857Y-54774895D01*
X126182857Y-54774895D02*
X126297143Y-54736800D01*
X126297143Y-54736800D02*
X126373333Y-54660609D01*
X126373333Y-54660609D02*
X126411428Y-54584419D01*
X126411428Y-54584419D02*
X126449524Y-54432038D01*
X126449524Y-54432038D02*
X126449524Y-54317752D01*
X126449524Y-54317752D02*
X126411428Y-54165371D01*
X126411428Y-54165371D02*
X126373333Y-54089180D01*
X126373333Y-54089180D02*
X126297143Y-54012990D01*
X126297143Y-54012990D02*
X126182857Y-53974895D01*
X126182857Y-53974895D02*
X126106666Y-53974895D01*
X126106666Y-53974895D02*
X125992381Y-54012990D01*
X125992381Y-54012990D02*
X125954285Y-54051085D01*
X125192381Y-54774895D02*
X125649524Y-54774895D01*
X125420952Y-54774895D02*
X125420952Y-53974895D01*
X125420952Y-53974895D02*
X125497143Y-54089180D01*
X125497143Y-54089180D02*
X125573333Y-54165371D01*
X125573333Y-54165371D02*
X125649524Y-54203466D01*
X124811428Y-54774895D02*
X124659047Y-54774895D01*
X124659047Y-54774895D02*
X124582857Y-54736800D01*
X124582857Y-54736800D02*
X124544761Y-54698704D01*
X124544761Y-54698704D02*
X124468571Y-54584419D01*
X124468571Y-54584419D02*
X124430476Y-54432038D01*
X124430476Y-54432038D02*
X124430476Y-54127276D01*
X124430476Y-54127276D02*
X124468571Y-54051085D01*
X124468571Y-54051085D02*
X124506666Y-54012990D01*
X124506666Y-54012990D02*
X124582857Y-53974895D01*
X124582857Y-53974895D02*
X124735238Y-53974895D01*
X124735238Y-53974895D02*
X124811428Y-54012990D01*
X124811428Y-54012990D02*
X124849523Y-54051085D01*
X124849523Y-54051085D02*
X124887619Y-54127276D01*
X124887619Y-54127276D02*
X124887619Y-54317752D01*
X124887619Y-54317752D02*
X124849523Y-54393942D01*
X124849523Y-54393942D02*
X124811428Y-54432038D01*
X124811428Y-54432038D02*
X124735238Y-54470133D01*
X124735238Y-54470133D02*
X124582857Y-54470133D01*
X124582857Y-54470133D02*
X124506666Y-54432038D01*
X124506666Y-54432038D02*
X124468571Y-54393942D01*
X124468571Y-54393942D02*
X124430476Y-54317752D01*
D11*
%TO.C,LED*%
X76014819Y-50987142D02*
X76014819Y-50510952D01*
X76014819Y-50510952D02*
X75014819Y-50510952D01*
X75491009Y-51320476D02*
X75491009Y-51653809D01*
X76014819Y-51796666D02*
X76014819Y-51320476D01*
X76014819Y-51320476D02*
X75014819Y-51320476D01*
X75014819Y-51320476D02*
X75014819Y-51796666D01*
X76014819Y-52225238D02*
X75014819Y-52225238D01*
X75014819Y-52225238D02*
X75014819Y-52463333D01*
X75014819Y-52463333D02*
X75062438Y-52606190D01*
X75062438Y-52606190D02*
X75157676Y-52701428D01*
X75157676Y-52701428D02*
X75252914Y-52749047D01*
X75252914Y-52749047D02*
X75443390Y-52796666D01*
X75443390Y-52796666D02*
X75586247Y-52796666D01*
X75586247Y-52796666D02*
X75776723Y-52749047D01*
X75776723Y-52749047D02*
X75871961Y-52701428D01*
X75871961Y-52701428D02*
X75967200Y-52606190D01*
X75967200Y-52606190D02*
X76014819Y-52463333D01*
X76014819Y-52463333D02*
X76014819Y-52225238D01*
D10*
%TO.C,C2*%
X70588704Y-76846667D02*
X70626800Y-76808571D01*
X70626800Y-76808571D02*
X70664895Y-76694286D01*
X70664895Y-76694286D02*
X70664895Y-76618095D01*
X70664895Y-76618095D02*
X70626800Y-76503809D01*
X70626800Y-76503809D02*
X70550609Y-76427619D01*
X70550609Y-76427619D02*
X70474419Y-76389524D01*
X70474419Y-76389524D02*
X70322038Y-76351428D01*
X70322038Y-76351428D02*
X70207752Y-76351428D01*
X70207752Y-76351428D02*
X70055371Y-76389524D01*
X70055371Y-76389524D02*
X69979180Y-76427619D01*
X69979180Y-76427619D02*
X69902990Y-76503809D01*
X69902990Y-76503809D02*
X69864895Y-76618095D01*
X69864895Y-76618095D02*
X69864895Y-76694286D01*
X69864895Y-76694286D02*
X69902990Y-76808571D01*
X69902990Y-76808571D02*
X69941085Y-76846667D01*
X69941085Y-77151428D02*
X69902990Y-77189524D01*
X69902990Y-77189524D02*
X69864895Y-77265714D01*
X69864895Y-77265714D02*
X69864895Y-77456190D01*
X69864895Y-77456190D02*
X69902990Y-77532381D01*
X69902990Y-77532381D02*
X69941085Y-77570476D01*
X69941085Y-77570476D02*
X70017276Y-77608571D01*
X70017276Y-77608571D02*
X70093466Y-77608571D01*
X70093466Y-77608571D02*
X70207752Y-77570476D01*
X70207752Y-77570476D02*
X70664895Y-77113333D01*
X70664895Y-77113333D02*
X70664895Y-77608571D01*
D11*
%TO.C,Q1*%
X78945238Y-80140057D02*
X79040476Y-80092438D01*
X79040476Y-80092438D02*
X79135714Y-79997200D01*
X79135714Y-79997200D02*
X79278571Y-79854342D01*
X79278571Y-79854342D02*
X79373809Y-79806723D01*
X79373809Y-79806723D02*
X79469047Y-79806723D01*
X79421428Y-80044819D02*
X79516666Y-79997200D01*
X79516666Y-79997200D02*
X79611904Y-79901961D01*
X79611904Y-79901961D02*
X79659523Y-79711485D01*
X79659523Y-79711485D02*
X79659523Y-79378152D01*
X79659523Y-79378152D02*
X79611904Y-79187676D01*
X79611904Y-79187676D02*
X79516666Y-79092438D01*
X79516666Y-79092438D02*
X79421428Y-79044819D01*
X79421428Y-79044819D02*
X79230952Y-79044819D01*
X79230952Y-79044819D02*
X79135714Y-79092438D01*
X79135714Y-79092438D02*
X79040476Y-79187676D01*
X79040476Y-79187676D02*
X78992857Y-79378152D01*
X78992857Y-79378152D02*
X78992857Y-79711485D01*
X78992857Y-79711485D02*
X79040476Y-79901961D01*
X79040476Y-79901961D02*
X79135714Y-79997200D01*
X79135714Y-79997200D02*
X79230952Y-80044819D01*
X79230952Y-80044819D02*
X79421428Y-80044819D01*
X78040476Y-80044819D02*
X78611904Y-80044819D01*
X78326190Y-80044819D02*
X78326190Y-79044819D01*
X78326190Y-79044819D02*
X78421428Y-79187676D01*
X78421428Y-79187676D02*
X78516666Y-79282914D01*
X78516666Y-79282914D02*
X78611904Y-79330533D01*
%TO.C,MAIN*%
X79323808Y-43954819D02*
X79323808Y-42954819D01*
X79323808Y-42954819D02*
X78990475Y-43669104D01*
X78990475Y-43669104D02*
X78657142Y-42954819D01*
X78657142Y-42954819D02*
X78657142Y-43954819D01*
X78228570Y-43669104D02*
X77752380Y-43669104D01*
X78323808Y-43954819D02*
X77990475Y-42954819D01*
X77990475Y-42954819D02*
X77657142Y-43954819D01*
X77323808Y-43954819D02*
X77323808Y-42954819D01*
X76847618Y-43954819D02*
X76847618Y-42954819D01*
X76847618Y-42954819D02*
X76276190Y-43954819D01*
X76276190Y-43954819D02*
X76276190Y-42954819D01*
D10*
%TO.C,C1*%
X85330832Y-70988704D02*
X85368928Y-71026800D01*
X85368928Y-71026800D02*
X85483213Y-71064895D01*
X85483213Y-71064895D02*
X85559404Y-71064895D01*
X85559404Y-71064895D02*
X85673690Y-71026800D01*
X85673690Y-71026800D02*
X85749880Y-70950609D01*
X85749880Y-70950609D02*
X85787975Y-70874419D01*
X85787975Y-70874419D02*
X85826071Y-70722038D01*
X85826071Y-70722038D02*
X85826071Y-70607752D01*
X85826071Y-70607752D02*
X85787975Y-70455371D01*
X85787975Y-70455371D02*
X85749880Y-70379180D01*
X85749880Y-70379180D02*
X85673690Y-70302990D01*
X85673690Y-70302990D02*
X85559404Y-70264895D01*
X85559404Y-70264895D02*
X85483213Y-70264895D01*
X85483213Y-70264895D02*
X85368928Y-70302990D01*
X85368928Y-70302990D02*
X85330832Y-70341085D01*
X84568928Y-71064895D02*
X85026071Y-71064895D01*
X84797499Y-71064895D02*
X84797499Y-70264895D01*
X84797499Y-70264895D02*
X84873690Y-70379180D01*
X84873690Y-70379180D02*
X84949880Y-70455371D01*
X84949880Y-70455371D02*
X85026071Y-70493466D01*
%TO.C,D1*%
X72664895Y-65909524D02*
X71864895Y-65909524D01*
X71864895Y-65909524D02*
X71864895Y-66100000D01*
X71864895Y-66100000D02*
X71902990Y-66214286D01*
X71902990Y-66214286D02*
X71979180Y-66290476D01*
X71979180Y-66290476D02*
X72055371Y-66328571D01*
X72055371Y-66328571D02*
X72207752Y-66366667D01*
X72207752Y-66366667D02*
X72322038Y-66366667D01*
X72322038Y-66366667D02*
X72474419Y-66328571D01*
X72474419Y-66328571D02*
X72550609Y-66290476D01*
X72550609Y-66290476D02*
X72626800Y-66214286D01*
X72626800Y-66214286D02*
X72664895Y-66100000D01*
X72664895Y-66100000D02*
X72664895Y-65909524D01*
X72664895Y-67128571D02*
X72664895Y-66671428D01*
X72664895Y-66900000D02*
X71864895Y-66900000D01*
X71864895Y-66900000D02*
X71979180Y-66823809D01*
X71979180Y-66823809D02*
X72055371Y-66747619D01*
X72055371Y-66747619D02*
X72093466Y-66671428D01*
%TO.C,R15*%
X94214285Y-49764895D02*
X94480952Y-49383942D01*
X94671428Y-49764895D02*
X94671428Y-48964895D01*
X94671428Y-48964895D02*
X94366666Y-48964895D01*
X94366666Y-48964895D02*
X94290476Y-49002990D01*
X94290476Y-49002990D02*
X94252381Y-49041085D01*
X94252381Y-49041085D02*
X94214285Y-49117276D01*
X94214285Y-49117276D02*
X94214285Y-49231561D01*
X94214285Y-49231561D02*
X94252381Y-49307752D01*
X94252381Y-49307752D02*
X94290476Y-49345847D01*
X94290476Y-49345847D02*
X94366666Y-49383942D01*
X94366666Y-49383942D02*
X94671428Y-49383942D01*
X93452381Y-49764895D02*
X93909524Y-49764895D01*
X93680952Y-49764895D02*
X93680952Y-48964895D01*
X93680952Y-48964895D02*
X93757143Y-49079180D01*
X93757143Y-49079180D02*
X93833333Y-49155371D01*
X93833333Y-49155371D02*
X93909524Y-49193466D01*
X92728571Y-48964895D02*
X93109523Y-48964895D01*
X93109523Y-48964895D02*
X93147619Y-49345847D01*
X93147619Y-49345847D02*
X93109523Y-49307752D01*
X93109523Y-49307752D02*
X93033333Y-49269657D01*
X93033333Y-49269657D02*
X92842857Y-49269657D01*
X92842857Y-49269657D02*
X92766666Y-49307752D01*
X92766666Y-49307752D02*
X92728571Y-49345847D01*
X92728571Y-49345847D02*
X92690476Y-49422038D01*
X92690476Y-49422038D02*
X92690476Y-49612514D01*
X92690476Y-49612514D02*
X92728571Y-49688704D01*
X92728571Y-49688704D02*
X92766666Y-49726800D01*
X92766666Y-49726800D02*
X92842857Y-49764895D01*
X92842857Y-49764895D02*
X93033333Y-49764895D01*
X93033333Y-49764895D02*
X93109523Y-49726800D01*
X93109523Y-49726800D02*
X93147619Y-49688704D01*
%TO.C,C6*%
X81930832Y-52978704D02*
X81968928Y-53016800D01*
X81968928Y-53016800D02*
X82083213Y-53054895D01*
X82083213Y-53054895D02*
X82159404Y-53054895D01*
X82159404Y-53054895D02*
X82273690Y-53016800D01*
X82273690Y-53016800D02*
X82349880Y-52940609D01*
X82349880Y-52940609D02*
X82387975Y-52864419D01*
X82387975Y-52864419D02*
X82426071Y-52712038D01*
X82426071Y-52712038D02*
X82426071Y-52597752D01*
X82426071Y-52597752D02*
X82387975Y-52445371D01*
X82387975Y-52445371D02*
X82349880Y-52369180D01*
X82349880Y-52369180D02*
X82273690Y-52292990D01*
X82273690Y-52292990D02*
X82159404Y-52254895D01*
X82159404Y-52254895D02*
X82083213Y-52254895D01*
X82083213Y-52254895D02*
X81968928Y-52292990D01*
X81968928Y-52292990D02*
X81930832Y-52331085D01*
X81245118Y-52254895D02*
X81397499Y-52254895D01*
X81397499Y-52254895D02*
X81473690Y-52292990D01*
X81473690Y-52292990D02*
X81511785Y-52331085D01*
X81511785Y-52331085D02*
X81587975Y-52445371D01*
X81587975Y-52445371D02*
X81626071Y-52597752D01*
X81626071Y-52597752D02*
X81626071Y-52902514D01*
X81626071Y-52902514D02*
X81587975Y-52978704D01*
X81587975Y-52978704D02*
X81549880Y-53016800D01*
X81549880Y-53016800D02*
X81473690Y-53054895D01*
X81473690Y-53054895D02*
X81321309Y-53054895D01*
X81321309Y-53054895D02*
X81245118Y-53016800D01*
X81245118Y-53016800D02*
X81207023Y-52978704D01*
X81207023Y-52978704D02*
X81168928Y-52902514D01*
X81168928Y-52902514D02*
X81168928Y-52712038D01*
X81168928Y-52712038D02*
X81207023Y-52635847D01*
X81207023Y-52635847D02*
X81245118Y-52597752D01*
X81245118Y-52597752D02*
X81321309Y-52559657D01*
X81321309Y-52559657D02*
X81473690Y-52559657D01*
X81473690Y-52559657D02*
X81549880Y-52597752D01*
X81549880Y-52597752D02*
X81587975Y-52635847D01*
X81587975Y-52635847D02*
X81626071Y-52712038D01*
%TO.C,C18*%
X122904285Y-48168704D02*
X122942381Y-48206800D01*
X122942381Y-48206800D02*
X123056666Y-48244895D01*
X123056666Y-48244895D02*
X123132857Y-48244895D01*
X123132857Y-48244895D02*
X123247143Y-48206800D01*
X123247143Y-48206800D02*
X123323333Y-48130609D01*
X123323333Y-48130609D02*
X123361428Y-48054419D01*
X123361428Y-48054419D02*
X123399524Y-47902038D01*
X123399524Y-47902038D02*
X123399524Y-47787752D01*
X123399524Y-47787752D02*
X123361428Y-47635371D01*
X123361428Y-47635371D02*
X123323333Y-47559180D01*
X123323333Y-47559180D02*
X123247143Y-47482990D01*
X123247143Y-47482990D02*
X123132857Y-47444895D01*
X123132857Y-47444895D02*
X123056666Y-47444895D01*
X123056666Y-47444895D02*
X122942381Y-47482990D01*
X122942381Y-47482990D02*
X122904285Y-47521085D01*
X122142381Y-48244895D02*
X122599524Y-48244895D01*
X122370952Y-48244895D02*
X122370952Y-47444895D01*
X122370952Y-47444895D02*
X122447143Y-47559180D01*
X122447143Y-47559180D02*
X122523333Y-47635371D01*
X122523333Y-47635371D02*
X122599524Y-47673466D01*
X121685238Y-47787752D02*
X121761428Y-47749657D01*
X121761428Y-47749657D02*
X121799523Y-47711561D01*
X121799523Y-47711561D02*
X121837619Y-47635371D01*
X121837619Y-47635371D02*
X121837619Y-47597276D01*
X121837619Y-47597276D02*
X121799523Y-47521085D01*
X121799523Y-47521085D02*
X121761428Y-47482990D01*
X121761428Y-47482990D02*
X121685238Y-47444895D01*
X121685238Y-47444895D02*
X121532857Y-47444895D01*
X121532857Y-47444895D02*
X121456666Y-47482990D01*
X121456666Y-47482990D02*
X121418571Y-47521085D01*
X121418571Y-47521085D02*
X121380476Y-47597276D01*
X121380476Y-47597276D02*
X121380476Y-47635371D01*
X121380476Y-47635371D02*
X121418571Y-47711561D01*
X121418571Y-47711561D02*
X121456666Y-47749657D01*
X121456666Y-47749657D02*
X121532857Y-47787752D01*
X121532857Y-47787752D02*
X121685238Y-47787752D01*
X121685238Y-47787752D02*
X121761428Y-47825847D01*
X121761428Y-47825847D02*
X121799523Y-47863942D01*
X121799523Y-47863942D02*
X121837619Y-47940133D01*
X121837619Y-47940133D02*
X121837619Y-48092514D01*
X121837619Y-48092514D02*
X121799523Y-48168704D01*
X121799523Y-48168704D02*
X121761428Y-48206800D01*
X121761428Y-48206800D02*
X121685238Y-48244895D01*
X121685238Y-48244895D02*
X121532857Y-48244895D01*
X121532857Y-48244895D02*
X121456666Y-48206800D01*
X121456666Y-48206800D02*
X121418571Y-48168704D01*
X121418571Y-48168704D02*
X121380476Y-48092514D01*
X121380476Y-48092514D02*
X121380476Y-47940133D01*
X121380476Y-47940133D02*
X121418571Y-47863942D01*
X121418571Y-47863942D02*
X121456666Y-47825847D01*
X121456666Y-47825847D02*
X121532857Y-47787752D01*
%TO.C,C11*%
X112488704Y-77785714D02*
X112526800Y-77747618D01*
X112526800Y-77747618D02*
X112564895Y-77633333D01*
X112564895Y-77633333D02*
X112564895Y-77557142D01*
X112564895Y-77557142D02*
X112526800Y-77442856D01*
X112526800Y-77442856D02*
X112450609Y-77366666D01*
X112450609Y-77366666D02*
X112374419Y-77328571D01*
X112374419Y-77328571D02*
X112222038Y-77290475D01*
X112222038Y-77290475D02*
X112107752Y-77290475D01*
X112107752Y-77290475D02*
X111955371Y-77328571D01*
X111955371Y-77328571D02*
X111879180Y-77366666D01*
X111879180Y-77366666D02*
X111802990Y-77442856D01*
X111802990Y-77442856D02*
X111764895Y-77557142D01*
X111764895Y-77557142D02*
X111764895Y-77633333D01*
X111764895Y-77633333D02*
X111802990Y-77747618D01*
X111802990Y-77747618D02*
X111841085Y-77785714D01*
X112564895Y-78547618D02*
X112564895Y-78090475D01*
X112564895Y-78319047D02*
X111764895Y-78319047D01*
X111764895Y-78319047D02*
X111879180Y-78242856D01*
X111879180Y-78242856D02*
X111955371Y-78166666D01*
X111955371Y-78166666D02*
X111993466Y-78090475D01*
X112564895Y-79309523D02*
X112564895Y-78852380D01*
X112564895Y-79080952D02*
X111764895Y-79080952D01*
X111764895Y-79080952D02*
X111879180Y-79004761D01*
X111879180Y-79004761D02*
X111955371Y-78928571D01*
X111955371Y-78928571D02*
X111993466Y-78852380D01*
%TO.C,R9*%
X86033332Y-49464895D02*
X86299999Y-49083942D01*
X86490475Y-49464895D02*
X86490475Y-48664895D01*
X86490475Y-48664895D02*
X86185713Y-48664895D01*
X86185713Y-48664895D02*
X86109523Y-48702990D01*
X86109523Y-48702990D02*
X86071428Y-48741085D01*
X86071428Y-48741085D02*
X86033332Y-48817276D01*
X86033332Y-48817276D02*
X86033332Y-48931561D01*
X86033332Y-48931561D02*
X86071428Y-49007752D01*
X86071428Y-49007752D02*
X86109523Y-49045847D01*
X86109523Y-49045847D02*
X86185713Y-49083942D01*
X86185713Y-49083942D02*
X86490475Y-49083942D01*
X85652380Y-49464895D02*
X85499999Y-49464895D01*
X85499999Y-49464895D02*
X85423809Y-49426800D01*
X85423809Y-49426800D02*
X85385713Y-49388704D01*
X85385713Y-49388704D02*
X85309523Y-49274419D01*
X85309523Y-49274419D02*
X85271428Y-49122038D01*
X85271428Y-49122038D02*
X85271428Y-48817276D01*
X85271428Y-48817276D02*
X85309523Y-48741085D01*
X85309523Y-48741085D02*
X85347618Y-48702990D01*
X85347618Y-48702990D02*
X85423809Y-48664895D01*
X85423809Y-48664895D02*
X85576190Y-48664895D01*
X85576190Y-48664895D02*
X85652380Y-48702990D01*
X85652380Y-48702990D02*
X85690475Y-48741085D01*
X85690475Y-48741085D02*
X85728571Y-48817276D01*
X85728571Y-48817276D02*
X85728571Y-49007752D01*
X85728571Y-49007752D02*
X85690475Y-49083942D01*
X85690475Y-49083942D02*
X85652380Y-49122038D01*
X85652380Y-49122038D02*
X85576190Y-49160133D01*
X85576190Y-49160133D02*
X85423809Y-49160133D01*
X85423809Y-49160133D02*
X85347618Y-49122038D01*
X85347618Y-49122038D02*
X85309523Y-49083942D01*
X85309523Y-49083942D02*
X85271428Y-49007752D01*
%TO.C,C17*%
X122904285Y-49858704D02*
X122942381Y-49896800D01*
X122942381Y-49896800D02*
X123056666Y-49934895D01*
X123056666Y-49934895D02*
X123132857Y-49934895D01*
X123132857Y-49934895D02*
X123247143Y-49896800D01*
X123247143Y-49896800D02*
X123323333Y-49820609D01*
X123323333Y-49820609D02*
X123361428Y-49744419D01*
X123361428Y-49744419D02*
X123399524Y-49592038D01*
X123399524Y-49592038D02*
X123399524Y-49477752D01*
X123399524Y-49477752D02*
X123361428Y-49325371D01*
X123361428Y-49325371D02*
X123323333Y-49249180D01*
X123323333Y-49249180D02*
X123247143Y-49172990D01*
X123247143Y-49172990D02*
X123132857Y-49134895D01*
X123132857Y-49134895D02*
X123056666Y-49134895D01*
X123056666Y-49134895D02*
X122942381Y-49172990D01*
X122942381Y-49172990D02*
X122904285Y-49211085D01*
X122142381Y-49934895D02*
X122599524Y-49934895D01*
X122370952Y-49934895D02*
X122370952Y-49134895D01*
X122370952Y-49134895D02*
X122447143Y-49249180D01*
X122447143Y-49249180D02*
X122523333Y-49325371D01*
X122523333Y-49325371D02*
X122599524Y-49363466D01*
X121875714Y-49134895D02*
X121342380Y-49134895D01*
X121342380Y-49134895D02*
X121685238Y-49934895D01*
D11*
%TO.C,ESP*%
X97290475Y-45931009D02*
X96957142Y-45931009D01*
X96814285Y-46454819D02*
X97290475Y-46454819D01*
X97290475Y-46454819D02*
X97290475Y-45454819D01*
X97290475Y-45454819D02*
X96814285Y-45454819D01*
X96433332Y-46407200D02*
X96290475Y-46454819D01*
X96290475Y-46454819D02*
X96052380Y-46454819D01*
X96052380Y-46454819D02*
X95957142Y-46407200D01*
X95957142Y-46407200D02*
X95909523Y-46359580D01*
X95909523Y-46359580D02*
X95861904Y-46264342D01*
X95861904Y-46264342D02*
X95861904Y-46169104D01*
X95861904Y-46169104D02*
X95909523Y-46073866D01*
X95909523Y-46073866D02*
X95957142Y-46026247D01*
X95957142Y-46026247D02*
X96052380Y-45978628D01*
X96052380Y-45978628D02*
X96242856Y-45931009D01*
X96242856Y-45931009D02*
X96338094Y-45883390D01*
X96338094Y-45883390D02*
X96385713Y-45835771D01*
X96385713Y-45835771D02*
X96433332Y-45740533D01*
X96433332Y-45740533D02*
X96433332Y-45645295D01*
X96433332Y-45645295D02*
X96385713Y-45550057D01*
X96385713Y-45550057D02*
X96338094Y-45502438D01*
X96338094Y-45502438D02*
X96242856Y-45454819D01*
X96242856Y-45454819D02*
X96004761Y-45454819D01*
X96004761Y-45454819D02*
X95861904Y-45502438D01*
X95433332Y-46454819D02*
X95433332Y-45454819D01*
X95433332Y-45454819D02*
X95052380Y-45454819D01*
X95052380Y-45454819D02*
X94957142Y-45502438D01*
X94957142Y-45502438D02*
X94909523Y-45550057D01*
X94909523Y-45550057D02*
X94861904Y-45645295D01*
X94861904Y-45645295D02*
X94861904Y-45788152D01*
X94861904Y-45788152D02*
X94909523Y-45883390D01*
X94909523Y-45883390D02*
X94957142Y-45931009D01*
X94957142Y-45931009D02*
X95052380Y-45978628D01*
X95052380Y-45978628D02*
X95433332Y-45978628D01*
D10*
%TO.C,D2*%
X81314895Y-70319524D02*
X80514895Y-70319524D01*
X80514895Y-70319524D02*
X80514895Y-70510000D01*
X80514895Y-70510000D02*
X80552990Y-70624286D01*
X80552990Y-70624286D02*
X80629180Y-70700476D01*
X80629180Y-70700476D02*
X80705371Y-70738571D01*
X80705371Y-70738571D02*
X80857752Y-70776667D01*
X80857752Y-70776667D02*
X80972038Y-70776667D01*
X80972038Y-70776667D02*
X81124419Y-70738571D01*
X81124419Y-70738571D02*
X81200609Y-70700476D01*
X81200609Y-70700476D02*
X81276800Y-70624286D01*
X81276800Y-70624286D02*
X81314895Y-70510000D01*
X81314895Y-70510000D02*
X81314895Y-70319524D01*
X80591085Y-71081428D02*
X80552990Y-71119524D01*
X80552990Y-71119524D02*
X80514895Y-71195714D01*
X80514895Y-71195714D02*
X80514895Y-71386190D01*
X80514895Y-71386190D02*
X80552990Y-71462381D01*
X80552990Y-71462381D02*
X80591085Y-71500476D01*
X80591085Y-71500476D02*
X80667276Y-71538571D01*
X80667276Y-71538571D02*
X80743466Y-71538571D01*
X80743466Y-71538571D02*
X80857752Y-71500476D01*
X80857752Y-71500476D02*
X81314895Y-71043333D01*
X81314895Y-71043333D02*
X81314895Y-71538571D01*
%TO.C,C10*%
X114188704Y-77785714D02*
X114226800Y-77747618D01*
X114226800Y-77747618D02*
X114264895Y-77633333D01*
X114264895Y-77633333D02*
X114264895Y-77557142D01*
X114264895Y-77557142D02*
X114226800Y-77442856D01*
X114226800Y-77442856D02*
X114150609Y-77366666D01*
X114150609Y-77366666D02*
X114074419Y-77328571D01*
X114074419Y-77328571D02*
X113922038Y-77290475D01*
X113922038Y-77290475D02*
X113807752Y-77290475D01*
X113807752Y-77290475D02*
X113655371Y-77328571D01*
X113655371Y-77328571D02*
X113579180Y-77366666D01*
X113579180Y-77366666D02*
X113502990Y-77442856D01*
X113502990Y-77442856D02*
X113464895Y-77557142D01*
X113464895Y-77557142D02*
X113464895Y-77633333D01*
X113464895Y-77633333D02*
X113502990Y-77747618D01*
X113502990Y-77747618D02*
X113541085Y-77785714D01*
X114264895Y-78547618D02*
X114264895Y-78090475D01*
X114264895Y-78319047D02*
X113464895Y-78319047D01*
X113464895Y-78319047D02*
X113579180Y-78242856D01*
X113579180Y-78242856D02*
X113655371Y-78166666D01*
X113655371Y-78166666D02*
X113693466Y-78090475D01*
X113464895Y-79042857D02*
X113464895Y-79119047D01*
X113464895Y-79119047D02*
X113502990Y-79195238D01*
X113502990Y-79195238D02*
X113541085Y-79233333D01*
X113541085Y-79233333D02*
X113617276Y-79271428D01*
X113617276Y-79271428D02*
X113769657Y-79309523D01*
X113769657Y-79309523D02*
X113960133Y-79309523D01*
X113960133Y-79309523D02*
X114112514Y-79271428D01*
X114112514Y-79271428D02*
X114188704Y-79233333D01*
X114188704Y-79233333D02*
X114226800Y-79195238D01*
X114226800Y-79195238D02*
X114264895Y-79119047D01*
X114264895Y-79119047D02*
X114264895Y-79042857D01*
X114264895Y-79042857D02*
X114226800Y-78966666D01*
X114226800Y-78966666D02*
X114188704Y-78928571D01*
X114188704Y-78928571D02*
X114112514Y-78890476D01*
X114112514Y-78890476D02*
X113960133Y-78852380D01*
X113960133Y-78852380D02*
X113769657Y-78852380D01*
X113769657Y-78852380D02*
X113617276Y-78890476D01*
X113617276Y-78890476D02*
X113541085Y-78928571D01*
X113541085Y-78928571D02*
X113502990Y-78966666D01*
X113502990Y-78966666D02*
X113464895Y-79042857D01*
%TO.C,R14*%
X123014895Y-74735714D02*
X122633942Y-74469047D01*
X123014895Y-74278571D02*
X122214895Y-74278571D01*
X122214895Y-74278571D02*
X122214895Y-74583333D01*
X122214895Y-74583333D02*
X122252990Y-74659523D01*
X122252990Y-74659523D02*
X122291085Y-74697618D01*
X122291085Y-74697618D02*
X122367276Y-74735714D01*
X122367276Y-74735714D02*
X122481561Y-74735714D01*
X122481561Y-74735714D02*
X122557752Y-74697618D01*
X122557752Y-74697618D02*
X122595847Y-74659523D01*
X122595847Y-74659523D02*
X122633942Y-74583333D01*
X122633942Y-74583333D02*
X122633942Y-74278571D01*
X123014895Y-75497618D02*
X123014895Y-75040475D01*
X123014895Y-75269047D02*
X122214895Y-75269047D01*
X122214895Y-75269047D02*
X122329180Y-75192856D01*
X122329180Y-75192856D02*
X122405371Y-75116666D01*
X122405371Y-75116666D02*
X122443466Y-75040475D01*
X122481561Y-76183333D02*
X123014895Y-76183333D01*
X122176800Y-75992857D02*
X122748228Y-75802380D01*
X122748228Y-75802380D02*
X122748228Y-76297619D01*
%TO.C,R16*%
X94214285Y-54114895D02*
X94480952Y-53733942D01*
X94671428Y-54114895D02*
X94671428Y-53314895D01*
X94671428Y-53314895D02*
X94366666Y-53314895D01*
X94366666Y-53314895D02*
X94290476Y-53352990D01*
X94290476Y-53352990D02*
X94252381Y-53391085D01*
X94252381Y-53391085D02*
X94214285Y-53467276D01*
X94214285Y-53467276D02*
X94214285Y-53581561D01*
X94214285Y-53581561D02*
X94252381Y-53657752D01*
X94252381Y-53657752D02*
X94290476Y-53695847D01*
X94290476Y-53695847D02*
X94366666Y-53733942D01*
X94366666Y-53733942D02*
X94671428Y-53733942D01*
X93452381Y-54114895D02*
X93909524Y-54114895D01*
X93680952Y-54114895D02*
X93680952Y-53314895D01*
X93680952Y-53314895D02*
X93757143Y-53429180D01*
X93757143Y-53429180D02*
X93833333Y-53505371D01*
X93833333Y-53505371D02*
X93909524Y-53543466D01*
X92766666Y-53314895D02*
X92919047Y-53314895D01*
X92919047Y-53314895D02*
X92995238Y-53352990D01*
X92995238Y-53352990D02*
X93033333Y-53391085D01*
X93033333Y-53391085D02*
X93109523Y-53505371D01*
X93109523Y-53505371D02*
X93147619Y-53657752D01*
X93147619Y-53657752D02*
X93147619Y-53962514D01*
X93147619Y-53962514D02*
X93109523Y-54038704D01*
X93109523Y-54038704D02*
X93071428Y-54076800D01*
X93071428Y-54076800D02*
X92995238Y-54114895D01*
X92995238Y-54114895D02*
X92842857Y-54114895D01*
X92842857Y-54114895D02*
X92766666Y-54076800D01*
X92766666Y-54076800D02*
X92728571Y-54038704D01*
X92728571Y-54038704D02*
X92690476Y-53962514D01*
X92690476Y-53962514D02*
X92690476Y-53772038D01*
X92690476Y-53772038D02*
X92728571Y-53695847D01*
X92728571Y-53695847D02*
X92766666Y-53657752D01*
X92766666Y-53657752D02*
X92842857Y-53619657D01*
X92842857Y-53619657D02*
X92995238Y-53619657D01*
X92995238Y-53619657D02*
X93071428Y-53657752D01*
X93071428Y-53657752D02*
X93109523Y-53695847D01*
X93109523Y-53695847D02*
X93147619Y-53772038D01*
%TO.C,C15*%
X86514285Y-59788704D02*
X86552381Y-59826800D01*
X86552381Y-59826800D02*
X86666666Y-59864895D01*
X86666666Y-59864895D02*
X86742857Y-59864895D01*
X86742857Y-59864895D02*
X86857143Y-59826800D01*
X86857143Y-59826800D02*
X86933333Y-59750609D01*
X86933333Y-59750609D02*
X86971428Y-59674419D01*
X86971428Y-59674419D02*
X87009524Y-59522038D01*
X87009524Y-59522038D02*
X87009524Y-59407752D01*
X87009524Y-59407752D02*
X86971428Y-59255371D01*
X86971428Y-59255371D02*
X86933333Y-59179180D01*
X86933333Y-59179180D02*
X86857143Y-59102990D01*
X86857143Y-59102990D02*
X86742857Y-59064895D01*
X86742857Y-59064895D02*
X86666666Y-59064895D01*
X86666666Y-59064895D02*
X86552381Y-59102990D01*
X86552381Y-59102990D02*
X86514285Y-59141085D01*
X85752381Y-59864895D02*
X86209524Y-59864895D01*
X85980952Y-59864895D02*
X85980952Y-59064895D01*
X85980952Y-59064895D02*
X86057143Y-59179180D01*
X86057143Y-59179180D02*
X86133333Y-59255371D01*
X86133333Y-59255371D02*
X86209524Y-59293466D01*
X85028571Y-59064895D02*
X85409523Y-59064895D01*
X85409523Y-59064895D02*
X85447619Y-59445847D01*
X85447619Y-59445847D02*
X85409523Y-59407752D01*
X85409523Y-59407752D02*
X85333333Y-59369657D01*
X85333333Y-59369657D02*
X85142857Y-59369657D01*
X85142857Y-59369657D02*
X85066666Y-59407752D01*
X85066666Y-59407752D02*
X85028571Y-59445847D01*
X85028571Y-59445847D02*
X84990476Y-59522038D01*
X84990476Y-59522038D02*
X84990476Y-59712514D01*
X84990476Y-59712514D02*
X85028571Y-59788704D01*
X85028571Y-59788704D02*
X85066666Y-59826800D01*
X85066666Y-59826800D02*
X85142857Y-59864895D01*
X85142857Y-59864895D02*
X85333333Y-59864895D01*
X85333333Y-59864895D02*
X85409523Y-59826800D01*
X85409523Y-59826800D02*
X85447619Y-59788704D01*
D11*
%TO.C,microsd*%
X126349819Y-60300714D02*
X125683152Y-60300714D01*
X125778390Y-60300714D02*
X125730771Y-60348333D01*
X125730771Y-60348333D02*
X125683152Y-60443571D01*
X125683152Y-60443571D02*
X125683152Y-60586428D01*
X125683152Y-60586428D02*
X125730771Y-60681666D01*
X125730771Y-60681666D02*
X125826009Y-60729285D01*
X125826009Y-60729285D02*
X126349819Y-60729285D01*
X125826009Y-60729285D02*
X125730771Y-60776904D01*
X125730771Y-60776904D02*
X125683152Y-60872142D01*
X125683152Y-60872142D02*
X125683152Y-61014999D01*
X125683152Y-61014999D02*
X125730771Y-61110238D01*
X125730771Y-61110238D02*
X125826009Y-61157857D01*
X125826009Y-61157857D02*
X126349819Y-61157857D01*
X126349819Y-61634047D02*
X125683152Y-61634047D01*
X125349819Y-61634047D02*
X125397438Y-61586428D01*
X125397438Y-61586428D02*
X125445057Y-61634047D01*
X125445057Y-61634047D02*
X125397438Y-61681666D01*
X125397438Y-61681666D02*
X125349819Y-61634047D01*
X125349819Y-61634047D02*
X125445057Y-61634047D01*
X126302200Y-62538808D02*
X126349819Y-62443570D01*
X126349819Y-62443570D02*
X126349819Y-62253094D01*
X126349819Y-62253094D02*
X126302200Y-62157856D01*
X126302200Y-62157856D02*
X126254580Y-62110237D01*
X126254580Y-62110237D02*
X126159342Y-62062618D01*
X126159342Y-62062618D02*
X125873628Y-62062618D01*
X125873628Y-62062618D02*
X125778390Y-62110237D01*
X125778390Y-62110237D02*
X125730771Y-62157856D01*
X125730771Y-62157856D02*
X125683152Y-62253094D01*
X125683152Y-62253094D02*
X125683152Y-62443570D01*
X125683152Y-62443570D02*
X125730771Y-62538808D01*
X126349819Y-62967380D02*
X125683152Y-62967380D01*
X125873628Y-62967380D02*
X125778390Y-63014999D01*
X125778390Y-63014999D02*
X125730771Y-63062618D01*
X125730771Y-63062618D02*
X125683152Y-63157856D01*
X125683152Y-63157856D02*
X125683152Y-63253094D01*
X126349819Y-63729285D02*
X126302200Y-63634047D01*
X126302200Y-63634047D02*
X126254580Y-63586428D01*
X126254580Y-63586428D02*
X126159342Y-63538809D01*
X126159342Y-63538809D02*
X125873628Y-63538809D01*
X125873628Y-63538809D02*
X125778390Y-63586428D01*
X125778390Y-63586428D02*
X125730771Y-63634047D01*
X125730771Y-63634047D02*
X125683152Y-63729285D01*
X125683152Y-63729285D02*
X125683152Y-63872142D01*
X125683152Y-63872142D02*
X125730771Y-63967380D01*
X125730771Y-63967380D02*
X125778390Y-64014999D01*
X125778390Y-64014999D02*
X125873628Y-64062618D01*
X125873628Y-64062618D02*
X126159342Y-64062618D01*
X126159342Y-64062618D02*
X126254580Y-64014999D01*
X126254580Y-64014999D02*
X126302200Y-63967380D01*
X126302200Y-63967380D02*
X126349819Y-63872142D01*
X126349819Y-63872142D02*
X126349819Y-63729285D01*
X126302200Y-64443571D02*
X126349819Y-64538809D01*
X126349819Y-64538809D02*
X126349819Y-64729285D01*
X126349819Y-64729285D02*
X126302200Y-64824523D01*
X126302200Y-64824523D02*
X126206961Y-64872142D01*
X126206961Y-64872142D02*
X126159342Y-64872142D01*
X126159342Y-64872142D02*
X126064104Y-64824523D01*
X126064104Y-64824523D02*
X126016485Y-64729285D01*
X126016485Y-64729285D02*
X126016485Y-64586428D01*
X126016485Y-64586428D02*
X125968866Y-64491190D01*
X125968866Y-64491190D02*
X125873628Y-64443571D01*
X125873628Y-64443571D02*
X125826009Y-64443571D01*
X125826009Y-64443571D02*
X125730771Y-64491190D01*
X125730771Y-64491190D02*
X125683152Y-64586428D01*
X125683152Y-64586428D02*
X125683152Y-64729285D01*
X125683152Y-64729285D02*
X125730771Y-64824523D01*
X126349819Y-65729285D02*
X125349819Y-65729285D01*
X126302200Y-65729285D02*
X126349819Y-65634047D01*
X126349819Y-65634047D02*
X126349819Y-65443571D01*
X126349819Y-65443571D02*
X126302200Y-65348333D01*
X126302200Y-65348333D02*
X126254580Y-65300714D01*
X126254580Y-65300714D02*
X126159342Y-65253095D01*
X126159342Y-65253095D02*
X125873628Y-65253095D01*
X125873628Y-65253095D02*
X125778390Y-65300714D01*
X125778390Y-65300714D02*
X125730771Y-65348333D01*
X125730771Y-65348333D02*
X125683152Y-65443571D01*
X125683152Y-65443571D02*
X125683152Y-65634047D01*
X125683152Y-65634047D02*
X125730771Y-65729285D01*
%TO.C,ESP32-S*%
X110928094Y-50656009D02*
X110594761Y-50656009D01*
X110451904Y-51179819D02*
X110928094Y-51179819D01*
X110928094Y-51179819D02*
X110928094Y-50179819D01*
X110928094Y-50179819D02*
X110451904Y-50179819D01*
X110070951Y-51132200D02*
X109928094Y-51179819D01*
X109928094Y-51179819D02*
X109689999Y-51179819D01*
X109689999Y-51179819D02*
X109594761Y-51132200D01*
X109594761Y-51132200D02*
X109547142Y-51084580D01*
X109547142Y-51084580D02*
X109499523Y-50989342D01*
X109499523Y-50989342D02*
X109499523Y-50894104D01*
X109499523Y-50894104D02*
X109547142Y-50798866D01*
X109547142Y-50798866D02*
X109594761Y-50751247D01*
X109594761Y-50751247D02*
X109689999Y-50703628D01*
X109689999Y-50703628D02*
X109880475Y-50656009D01*
X109880475Y-50656009D02*
X109975713Y-50608390D01*
X109975713Y-50608390D02*
X110023332Y-50560771D01*
X110023332Y-50560771D02*
X110070951Y-50465533D01*
X110070951Y-50465533D02*
X110070951Y-50370295D01*
X110070951Y-50370295D02*
X110023332Y-50275057D01*
X110023332Y-50275057D02*
X109975713Y-50227438D01*
X109975713Y-50227438D02*
X109880475Y-50179819D01*
X109880475Y-50179819D02*
X109642380Y-50179819D01*
X109642380Y-50179819D02*
X109499523Y-50227438D01*
X109070951Y-51179819D02*
X109070951Y-50179819D01*
X109070951Y-50179819D02*
X108689999Y-50179819D01*
X108689999Y-50179819D02*
X108594761Y-50227438D01*
X108594761Y-50227438D02*
X108547142Y-50275057D01*
X108547142Y-50275057D02*
X108499523Y-50370295D01*
X108499523Y-50370295D02*
X108499523Y-50513152D01*
X108499523Y-50513152D02*
X108547142Y-50608390D01*
X108547142Y-50608390D02*
X108594761Y-50656009D01*
X108594761Y-50656009D02*
X108689999Y-50703628D01*
X108689999Y-50703628D02*
X109070951Y-50703628D01*
X108166189Y-50179819D02*
X107547142Y-50179819D01*
X107547142Y-50179819D02*
X107880475Y-50560771D01*
X107880475Y-50560771D02*
X107737618Y-50560771D01*
X107737618Y-50560771D02*
X107642380Y-50608390D01*
X107642380Y-50608390D02*
X107594761Y-50656009D01*
X107594761Y-50656009D02*
X107547142Y-50751247D01*
X107547142Y-50751247D02*
X107547142Y-50989342D01*
X107547142Y-50989342D02*
X107594761Y-51084580D01*
X107594761Y-51084580D02*
X107642380Y-51132200D01*
X107642380Y-51132200D02*
X107737618Y-51179819D01*
X107737618Y-51179819D02*
X108023332Y-51179819D01*
X108023332Y-51179819D02*
X108118570Y-51132200D01*
X108118570Y-51132200D02*
X108166189Y-51084580D01*
X107166189Y-50275057D02*
X107118570Y-50227438D01*
X107118570Y-50227438D02*
X107023332Y-50179819D01*
X107023332Y-50179819D02*
X106785237Y-50179819D01*
X106785237Y-50179819D02*
X106689999Y-50227438D01*
X106689999Y-50227438D02*
X106642380Y-50275057D01*
X106642380Y-50275057D02*
X106594761Y-50370295D01*
X106594761Y-50370295D02*
X106594761Y-50465533D01*
X106594761Y-50465533D02*
X106642380Y-50608390D01*
X106642380Y-50608390D02*
X107213808Y-51179819D01*
X107213808Y-51179819D02*
X106594761Y-51179819D01*
X106166189Y-50798866D02*
X105404285Y-50798866D01*
X104975713Y-51132200D02*
X104832856Y-51179819D01*
X104832856Y-51179819D02*
X104594761Y-51179819D01*
X104594761Y-51179819D02*
X104499523Y-51132200D01*
X104499523Y-51132200D02*
X104451904Y-51084580D01*
X104451904Y-51084580D02*
X104404285Y-50989342D01*
X104404285Y-50989342D02*
X104404285Y-50894104D01*
X104404285Y-50894104D02*
X104451904Y-50798866D01*
X104451904Y-50798866D02*
X104499523Y-50751247D01*
X104499523Y-50751247D02*
X104594761Y-50703628D01*
X104594761Y-50703628D02*
X104785237Y-50656009D01*
X104785237Y-50656009D02*
X104880475Y-50608390D01*
X104880475Y-50608390D02*
X104928094Y-50560771D01*
X104928094Y-50560771D02*
X104975713Y-50465533D01*
X104975713Y-50465533D02*
X104975713Y-50370295D01*
X104975713Y-50370295D02*
X104928094Y-50275057D01*
X104928094Y-50275057D02*
X104880475Y-50227438D01*
X104880475Y-50227438D02*
X104785237Y-50179819D01*
X104785237Y-50179819D02*
X104547142Y-50179819D01*
X104547142Y-50179819D02*
X104404285Y-50227438D01*
D10*
%TO.C,R7*%
X66764895Y-72816667D02*
X66383942Y-72550000D01*
X66764895Y-72359524D02*
X65964895Y-72359524D01*
X65964895Y-72359524D02*
X65964895Y-72664286D01*
X65964895Y-72664286D02*
X66002990Y-72740476D01*
X66002990Y-72740476D02*
X66041085Y-72778571D01*
X66041085Y-72778571D02*
X66117276Y-72816667D01*
X66117276Y-72816667D02*
X66231561Y-72816667D01*
X66231561Y-72816667D02*
X66307752Y-72778571D01*
X66307752Y-72778571D02*
X66345847Y-72740476D01*
X66345847Y-72740476D02*
X66383942Y-72664286D01*
X66383942Y-72664286D02*
X66383942Y-72359524D01*
X65964895Y-73083333D02*
X65964895Y-73616667D01*
X65964895Y-73616667D02*
X66764895Y-73273809D01*
D11*
%TO.C,Serial*%
X66257200Y-51063809D02*
X66304819Y-51206666D01*
X66304819Y-51206666D02*
X66304819Y-51444761D01*
X66304819Y-51444761D02*
X66257200Y-51539999D01*
X66257200Y-51539999D02*
X66209580Y-51587618D01*
X66209580Y-51587618D02*
X66114342Y-51635237D01*
X66114342Y-51635237D02*
X66019104Y-51635237D01*
X66019104Y-51635237D02*
X65923866Y-51587618D01*
X65923866Y-51587618D02*
X65876247Y-51539999D01*
X65876247Y-51539999D02*
X65828628Y-51444761D01*
X65828628Y-51444761D02*
X65781009Y-51254285D01*
X65781009Y-51254285D02*
X65733390Y-51159047D01*
X65733390Y-51159047D02*
X65685771Y-51111428D01*
X65685771Y-51111428D02*
X65590533Y-51063809D01*
X65590533Y-51063809D02*
X65495295Y-51063809D01*
X65495295Y-51063809D02*
X65400057Y-51111428D01*
X65400057Y-51111428D02*
X65352438Y-51159047D01*
X65352438Y-51159047D02*
X65304819Y-51254285D01*
X65304819Y-51254285D02*
X65304819Y-51492380D01*
X65304819Y-51492380D02*
X65352438Y-51635237D01*
X66257200Y-52444761D02*
X66304819Y-52349523D01*
X66304819Y-52349523D02*
X66304819Y-52159047D01*
X66304819Y-52159047D02*
X66257200Y-52063809D01*
X66257200Y-52063809D02*
X66161961Y-52016190D01*
X66161961Y-52016190D02*
X65781009Y-52016190D01*
X65781009Y-52016190D02*
X65685771Y-52063809D01*
X65685771Y-52063809D02*
X65638152Y-52159047D01*
X65638152Y-52159047D02*
X65638152Y-52349523D01*
X65638152Y-52349523D02*
X65685771Y-52444761D01*
X65685771Y-52444761D02*
X65781009Y-52492380D01*
X65781009Y-52492380D02*
X65876247Y-52492380D01*
X65876247Y-52492380D02*
X65971485Y-52016190D01*
X66304819Y-52920952D02*
X65638152Y-52920952D01*
X65828628Y-52920952D02*
X65733390Y-52968571D01*
X65733390Y-52968571D02*
X65685771Y-53016190D01*
X65685771Y-53016190D02*
X65638152Y-53111428D01*
X65638152Y-53111428D02*
X65638152Y-53206666D01*
X66304819Y-53540000D02*
X65638152Y-53540000D01*
X65304819Y-53540000D02*
X65352438Y-53492381D01*
X65352438Y-53492381D02*
X65400057Y-53540000D01*
X65400057Y-53540000D02*
X65352438Y-53587619D01*
X65352438Y-53587619D02*
X65304819Y-53540000D01*
X65304819Y-53540000D02*
X65400057Y-53540000D01*
X66304819Y-54444761D02*
X65781009Y-54444761D01*
X65781009Y-54444761D02*
X65685771Y-54397142D01*
X65685771Y-54397142D02*
X65638152Y-54301904D01*
X65638152Y-54301904D02*
X65638152Y-54111428D01*
X65638152Y-54111428D02*
X65685771Y-54016190D01*
X66257200Y-54444761D02*
X66304819Y-54349523D01*
X66304819Y-54349523D02*
X66304819Y-54111428D01*
X66304819Y-54111428D02*
X66257200Y-54016190D01*
X66257200Y-54016190D02*
X66161961Y-53968571D01*
X66161961Y-53968571D02*
X66066723Y-53968571D01*
X66066723Y-53968571D02*
X65971485Y-54016190D01*
X65971485Y-54016190D02*
X65923866Y-54111428D01*
X65923866Y-54111428D02*
X65923866Y-54349523D01*
X65923866Y-54349523D02*
X65876247Y-54444761D01*
X66304819Y-55063809D02*
X66257200Y-54968571D01*
X66257200Y-54968571D02*
X66161961Y-54920952D01*
X66161961Y-54920952D02*
X65304819Y-54920952D01*
D10*
%TO.C,R8*%
X73464895Y-59366667D02*
X73083942Y-59100000D01*
X73464895Y-58909524D02*
X72664895Y-58909524D01*
X72664895Y-58909524D02*
X72664895Y-59214286D01*
X72664895Y-59214286D02*
X72702990Y-59290476D01*
X72702990Y-59290476D02*
X72741085Y-59328571D01*
X72741085Y-59328571D02*
X72817276Y-59366667D01*
X72817276Y-59366667D02*
X72931561Y-59366667D01*
X72931561Y-59366667D02*
X73007752Y-59328571D01*
X73007752Y-59328571D02*
X73045847Y-59290476D01*
X73045847Y-59290476D02*
X73083942Y-59214286D01*
X73083942Y-59214286D02*
X73083942Y-58909524D01*
X73007752Y-59823809D02*
X72969657Y-59747619D01*
X72969657Y-59747619D02*
X72931561Y-59709524D01*
X72931561Y-59709524D02*
X72855371Y-59671428D01*
X72855371Y-59671428D02*
X72817276Y-59671428D01*
X72817276Y-59671428D02*
X72741085Y-59709524D01*
X72741085Y-59709524D02*
X72702990Y-59747619D01*
X72702990Y-59747619D02*
X72664895Y-59823809D01*
X72664895Y-59823809D02*
X72664895Y-59976190D01*
X72664895Y-59976190D02*
X72702990Y-60052381D01*
X72702990Y-60052381D02*
X72741085Y-60090476D01*
X72741085Y-60090476D02*
X72817276Y-60128571D01*
X72817276Y-60128571D02*
X72855371Y-60128571D01*
X72855371Y-60128571D02*
X72931561Y-60090476D01*
X72931561Y-60090476D02*
X72969657Y-60052381D01*
X72969657Y-60052381D02*
X73007752Y-59976190D01*
X73007752Y-59976190D02*
X73007752Y-59823809D01*
X73007752Y-59823809D02*
X73045847Y-59747619D01*
X73045847Y-59747619D02*
X73083942Y-59709524D01*
X73083942Y-59709524D02*
X73160133Y-59671428D01*
X73160133Y-59671428D02*
X73312514Y-59671428D01*
X73312514Y-59671428D02*
X73388704Y-59709524D01*
X73388704Y-59709524D02*
X73426800Y-59747619D01*
X73426800Y-59747619D02*
X73464895Y-59823809D01*
X73464895Y-59823809D02*
X73464895Y-59976190D01*
X73464895Y-59976190D02*
X73426800Y-60052381D01*
X73426800Y-60052381D02*
X73388704Y-60090476D01*
X73388704Y-60090476D02*
X73312514Y-60128571D01*
X73312514Y-60128571D02*
X73160133Y-60128571D01*
X73160133Y-60128571D02*
X73083942Y-60090476D01*
X73083942Y-60090476D02*
X73045847Y-60052381D01*
X73045847Y-60052381D02*
X73007752Y-59976190D01*
%TO.C,R2*%
X96664895Y-69866667D02*
X96283942Y-69600000D01*
X96664895Y-69409524D02*
X95864895Y-69409524D01*
X95864895Y-69409524D02*
X95864895Y-69714286D01*
X95864895Y-69714286D02*
X95902990Y-69790476D01*
X95902990Y-69790476D02*
X95941085Y-69828571D01*
X95941085Y-69828571D02*
X96017276Y-69866667D01*
X96017276Y-69866667D02*
X96131561Y-69866667D01*
X96131561Y-69866667D02*
X96207752Y-69828571D01*
X96207752Y-69828571D02*
X96245847Y-69790476D01*
X96245847Y-69790476D02*
X96283942Y-69714286D01*
X96283942Y-69714286D02*
X96283942Y-69409524D01*
X95941085Y-70171428D02*
X95902990Y-70209524D01*
X95902990Y-70209524D02*
X95864895Y-70285714D01*
X95864895Y-70285714D02*
X95864895Y-70476190D01*
X95864895Y-70476190D02*
X95902990Y-70552381D01*
X95902990Y-70552381D02*
X95941085Y-70590476D01*
X95941085Y-70590476D02*
X96017276Y-70628571D01*
X96017276Y-70628571D02*
X96093466Y-70628571D01*
X96093466Y-70628571D02*
X96207752Y-70590476D01*
X96207752Y-70590476D02*
X96664895Y-70133333D01*
X96664895Y-70133333D02*
X96664895Y-70628571D01*
%TO.C,C14*%
X86464285Y-61398704D02*
X86502381Y-61436800D01*
X86502381Y-61436800D02*
X86616666Y-61474895D01*
X86616666Y-61474895D02*
X86692857Y-61474895D01*
X86692857Y-61474895D02*
X86807143Y-61436800D01*
X86807143Y-61436800D02*
X86883333Y-61360609D01*
X86883333Y-61360609D02*
X86921428Y-61284419D01*
X86921428Y-61284419D02*
X86959524Y-61132038D01*
X86959524Y-61132038D02*
X86959524Y-61017752D01*
X86959524Y-61017752D02*
X86921428Y-60865371D01*
X86921428Y-60865371D02*
X86883333Y-60789180D01*
X86883333Y-60789180D02*
X86807143Y-60712990D01*
X86807143Y-60712990D02*
X86692857Y-60674895D01*
X86692857Y-60674895D02*
X86616666Y-60674895D01*
X86616666Y-60674895D02*
X86502381Y-60712990D01*
X86502381Y-60712990D02*
X86464285Y-60751085D01*
X85702381Y-61474895D02*
X86159524Y-61474895D01*
X85930952Y-61474895D02*
X85930952Y-60674895D01*
X85930952Y-60674895D02*
X86007143Y-60789180D01*
X86007143Y-60789180D02*
X86083333Y-60865371D01*
X86083333Y-60865371D02*
X86159524Y-60903466D01*
X85016666Y-60941561D02*
X85016666Y-61474895D01*
X85207142Y-60636800D02*
X85397619Y-61208228D01*
X85397619Y-61208228D02*
X84902380Y-61208228D01*
D11*
%TO.C,U1*%
X76354819Y-47038095D02*
X77164342Y-47038095D01*
X77164342Y-47038095D02*
X77259580Y-47085714D01*
X77259580Y-47085714D02*
X77307200Y-47133333D01*
X77307200Y-47133333D02*
X77354819Y-47228571D01*
X77354819Y-47228571D02*
X77354819Y-47419047D01*
X77354819Y-47419047D02*
X77307200Y-47514285D01*
X77307200Y-47514285D02*
X77259580Y-47561904D01*
X77259580Y-47561904D02*
X77164342Y-47609523D01*
X77164342Y-47609523D02*
X76354819Y-47609523D01*
X77354819Y-48609523D02*
X77354819Y-48038095D01*
X77354819Y-48323809D02*
X76354819Y-48323809D01*
X76354819Y-48323809D02*
X76497676Y-48228571D01*
X76497676Y-48228571D02*
X76592914Y-48133333D01*
X76592914Y-48133333D02*
X76640533Y-48038095D01*
D10*
%TO.C,R1*%
X98564895Y-69866667D02*
X98183942Y-69600000D01*
X98564895Y-69409524D02*
X97764895Y-69409524D01*
X97764895Y-69409524D02*
X97764895Y-69714286D01*
X97764895Y-69714286D02*
X97802990Y-69790476D01*
X97802990Y-69790476D02*
X97841085Y-69828571D01*
X97841085Y-69828571D02*
X97917276Y-69866667D01*
X97917276Y-69866667D02*
X98031561Y-69866667D01*
X98031561Y-69866667D02*
X98107752Y-69828571D01*
X98107752Y-69828571D02*
X98145847Y-69790476D01*
X98145847Y-69790476D02*
X98183942Y-69714286D01*
X98183942Y-69714286D02*
X98183942Y-69409524D01*
X98564895Y-70628571D02*
X98564895Y-70171428D01*
X98564895Y-70400000D02*
X97764895Y-70400000D01*
X97764895Y-70400000D02*
X97879180Y-70323809D01*
X97879180Y-70323809D02*
X97955371Y-70247619D01*
X97955371Y-70247619D02*
X97993466Y-70171428D01*
%TO.C,R11*%
X126464895Y-74735714D02*
X126083942Y-74469047D01*
X126464895Y-74278571D02*
X125664895Y-74278571D01*
X125664895Y-74278571D02*
X125664895Y-74583333D01*
X125664895Y-74583333D02*
X125702990Y-74659523D01*
X125702990Y-74659523D02*
X125741085Y-74697618D01*
X125741085Y-74697618D02*
X125817276Y-74735714D01*
X125817276Y-74735714D02*
X125931561Y-74735714D01*
X125931561Y-74735714D02*
X126007752Y-74697618D01*
X126007752Y-74697618D02*
X126045847Y-74659523D01*
X126045847Y-74659523D02*
X126083942Y-74583333D01*
X126083942Y-74583333D02*
X126083942Y-74278571D01*
X126464895Y-75497618D02*
X126464895Y-75040475D01*
X126464895Y-75269047D02*
X125664895Y-75269047D01*
X125664895Y-75269047D02*
X125779180Y-75192856D01*
X125779180Y-75192856D02*
X125855371Y-75116666D01*
X125855371Y-75116666D02*
X125893466Y-75040475D01*
X126464895Y-76259523D02*
X126464895Y-75802380D01*
X126464895Y-76030952D02*
X125664895Y-76030952D01*
X125664895Y-76030952D02*
X125779180Y-75954761D01*
X125779180Y-75954761D02*
X125855371Y-75878571D01*
X125855371Y-75878571D02*
X125893466Y-75802380D01*
%TO.C,C7*%
X81980832Y-51318704D02*
X82018928Y-51356800D01*
X82018928Y-51356800D02*
X82133213Y-51394895D01*
X82133213Y-51394895D02*
X82209404Y-51394895D01*
X82209404Y-51394895D02*
X82323690Y-51356800D01*
X82323690Y-51356800D02*
X82399880Y-51280609D01*
X82399880Y-51280609D02*
X82437975Y-51204419D01*
X82437975Y-51204419D02*
X82476071Y-51052038D01*
X82476071Y-51052038D02*
X82476071Y-50937752D01*
X82476071Y-50937752D02*
X82437975Y-50785371D01*
X82437975Y-50785371D02*
X82399880Y-50709180D01*
X82399880Y-50709180D02*
X82323690Y-50632990D01*
X82323690Y-50632990D02*
X82209404Y-50594895D01*
X82209404Y-50594895D02*
X82133213Y-50594895D01*
X82133213Y-50594895D02*
X82018928Y-50632990D01*
X82018928Y-50632990D02*
X81980832Y-50671085D01*
X81714166Y-50594895D02*
X81180832Y-50594895D01*
X81180832Y-50594895D02*
X81523690Y-51394895D01*
D12*
%TO.C,R6*%
X72854724Y-56122500D02*
X72345276Y-56122500D01*
X72854724Y-55077500D02*
X72345276Y-55077500D01*
%TO.C,R5*%
X119744724Y-51812500D02*
X119235276Y-51812500D01*
X119744724Y-50767500D02*
X119235276Y-50767500D01*
%TO.C,R3*%
X76354724Y-72022500D02*
X75845276Y-72022500D01*
X76354724Y-70977500D02*
X75845276Y-70977500D01*
%TO.C,BT1*%
X80870000Y-60065000D02*
X80870000Y-65915000D01*
X80430000Y-60065000D02*
X80870000Y-60065000D01*
X77270000Y-60065000D02*
X77710000Y-60065000D01*
X77270000Y-61755000D02*
X77270000Y-60065000D01*
X77270000Y-61755000D02*
X75470000Y-61755000D01*
X77270000Y-64225000D02*
X77270000Y-65915000D01*
X80870000Y-65915000D02*
X80430000Y-65915000D01*
X77270000Y-65915000D02*
X77710000Y-65915000D01*
%TO.C,U3*%
X73930000Y-72950000D02*
X75690000Y-72950000D01*
X75690000Y-76020000D02*
X73260000Y-76020000D01*
%TO.C,C5*%
X83003733Y-46390000D02*
X83296267Y-46390000D01*
X83003733Y-47410000D02*
X83296267Y-47410000D01*
%TO.C,R10*%
X84572500Y-51582776D02*
X84572500Y-52092224D01*
X83527500Y-51582776D02*
X83527500Y-52092224D01*
%TO.C,R12*%
X127277500Y-72654724D02*
X127277500Y-72145276D01*
X128322500Y-72654724D02*
X128322500Y-72145276D01*
%TO.C,C16*%
X131703733Y-53890000D02*
X131996267Y-53890000D01*
X131703733Y-54910000D02*
X131996267Y-54910000D01*
%TO.C,R13*%
X123827500Y-72654724D02*
X123827500Y-72145276D01*
X124872500Y-72654724D02*
X124872500Y-72145276D01*
%TO.C,C19*%
X128446267Y-54910000D02*
X128153733Y-54910000D01*
X128446267Y-53890000D02*
X128153733Y-53890000D01*
%TO.C,LED*%
X71520000Y-53190000D02*
X71364000Y-53190000D01*
X73836000Y-53190000D02*
X73680000Y-53190000D01*
X71521392Y-49957666D02*
G75*
G03*
X71364485Y-53189999I1078608J-1672334D01*
G01*
X71520164Y-50588871D02*
G75*
G03*
X71520001Y-52670960I1079836J-1041129D01*
G01*
X73679999Y-52670960D02*
G75*
G03*
X73679836Y-50588871I-1079999J1040960D01*
G01*
X73835515Y-53189999D02*
G75*
G03*
X73678608Y-49957666I-1235515J1559999D01*
G01*
%TO.C,C2*%
X70810000Y-74253733D02*
X70810000Y-74546267D01*
X69790000Y-74253733D02*
X69790000Y-74546267D01*
%TO.C,Q1*%
X74490000Y-78400000D02*
X74490000Y-79050000D01*
X74490000Y-78400000D02*
X74490000Y-77750000D01*
X77610000Y-78400000D02*
X77610000Y-80075000D01*
X77610000Y-78400000D02*
X77610000Y-77750000D01*
%TO.C,MAIN*%
X80600000Y-42770000D02*
X80600000Y-41980000D01*
X81200000Y-40970000D02*
X86900000Y-40970000D01*
X82450000Y-43820000D02*
X84150000Y-43820000D01*
X82650000Y-39680000D02*
X82850000Y-39470000D01*
X82650000Y-40970000D02*
X82650000Y-39680000D01*
X82850000Y-39470000D02*
X83750000Y-39470000D01*
X83950000Y-39680000D02*
X83750000Y-39470000D01*
X83950000Y-39680000D02*
X83950000Y-40970000D01*
X85450000Y-43820000D02*
X85650000Y-43820000D01*
X87500000Y-41980000D02*
X87500000Y-42770000D01*
%TO.C,C1*%
X82653733Y-70190000D02*
X82946267Y-70190000D01*
X82653733Y-71210000D02*
X82946267Y-71210000D01*
%TO.C,D1*%
X71565000Y-70560000D02*
X71565000Y-68100000D01*
X73035000Y-70560000D02*
X71565000Y-70560000D01*
X73035000Y-68100000D02*
X73035000Y-70560000D01*
%TO.C,R15*%
X93954724Y-51267500D02*
X93445276Y-51267500D01*
X93954724Y-50222500D02*
X93445276Y-50222500D01*
%TO.C,C6*%
X79191233Y-52190000D02*
X79483767Y-52190000D01*
X79191233Y-53210000D02*
X79483767Y-53210000D01*
%TO.C,C18*%
X119343733Y-47370000D02*
X119636267Y-47370000D01*
X119343733Y-48390000D02*
X119636267Y-48390000D01*
%TO.C,C11*%
X112710000Y-81053733D02*
X112710000Y-81346267D01*
X111690000Y-81053733D02*
X111690000Y-81346267D01*
%TO.C,R9*%
X82895276Y-48577500D02*
X83404724Y-48577500D01*
X82895276Y-49622500D02*
X83404724Y-49622500D01*
%TO.C,C17*%
X119343733Y-49070000D02*
X119636267Y-49070000D01*
X119343733Y-50090000D02*
X119636267Y-50090000D01*
%TO.C,ESP*%
X89500000Y-42770000D02*
X89500000Y-41980000D01*
X90100000Y-40970000D02*
X95800000Y-40970000D01*
X91350000Y-43820000D02*
X93050000Y-43820000D01*
X91550000Y-39680000D02*
X91750000Y-39470000D01*
X91550000Y-40970000D02*
X91550000Y-39680000D01*
X91750000Y-39470000D02*
X92650000Y-39470000D01*
X92850000Y-39680000D02*
X92650000Y-39470000D01*
X92850000Y-39680000D02*
X92850000Y-40970000D01*
X94350000Y-43820000D02*
X94550000Y-43820000D01*
X96400000Y-41980000D02*
X96400000Y-42770000D01*
%TO.C,D2*%
X81685000Y-71940000D02*
X81685000Y-74400000D01*
X80215000Y-71940000D02*
X81685000Y-71940000D01*
X80215000Y-74400000D02*
X80215000Y-71940000D01*
%TO.C,C10*%
X114410000Y-81053733D02*
X114410000Y-81346267D01*
X113390000Y-81053733D02*
X113390000Y-81346267D01*
%TO.C,R14*%
X122127500Y-72654724D02*
X122127500Y-72145276D01*
X123172500Y-72654724D02*
X123172500Y-72145276D01*
%TO.C,R16*%
X93954724Y-52922500D02*
X93445276Y-52922500D01*
X93954724Y-51877500D02*
X93445276Y-51877500D01*
%TO.C,C15*%
X89096267Y-60010000D02*
X88803733Y-60010000D01*
X89096267Y-58990000D02*
X88803733Y-58990000D01*
%TO.C,microsd*%
X122975000Y-56565000D02*
X128575000Y-56565000D01*
X119725000Y-56565000D02*
X118565000Y-56565000D01*
X118565000Y-56565000D02*
X118565000Y-67825000D01*
X118565000Y-69325000D02*
X118565000Y-69435000D01*
X122275000Y-69435000D02*
X128575000Y-69435000D01*
X118565000Y-69435000D02*
X120375000Y-69435000D01*
%TO.C,ESP32-S*%
X116470000Y-65025000D02*
X115470000Y-65025000D01*
X116470000Y-64405000D02*
X116470000Y-65025000D01*
X116470000Y-46005000D02*
X116850000Y-46005000D01*
X116470000Y-45585000D02*
X116470000Y-46005000D01*
X116470000Y-45585000D02*
X98230000Y-45585000D01*
X98230000Y-65025000D02*
X99230000Y-65025000D01*
X98230000Y-64405000D02*
X98230000Y-65025000D01*
X98230000Y-45585000D02*
X98230000Y-46005000D01*
%TO.C,R7*%
X66922500Y-70245276D02*
X66922500Y-70754724D01*
X65877500Y-70245276D02*
X65877500Y-70754724D01*
%TO.C,Serial*%
X66570000Y-49330000D02*
X69230000Y-49330000D01*
X66570000Y-54470000D02*
X66570000Y-49330000D01*
X66570000Y-54470000D02*
X69230000Y-54470000D01*
X67900000Y-57070000D02*
X69230000Y-57070000D01*
X69230000Y-54470000D02*
X69230000Y-49330000D01*
X69230000Y-57070000D02*
X69230000Y-55740000D01*
%TO.C,R8*%
X71277500Y-59754724D02*
X71277500Y-59245276D01*
X72322500Y-59754724D02*
X72322500Y-59245276D01*
%TO.C,R2*%
X96822500Y-67245276D02*
X96822500Y-67754724D01*
X95777500Y-67245276D02*
X95777500Y-67754724D01*
%TO.C,C14*%
X89096267Y-61610000D02*
X88803733Y-61610000D01*
X89096267Y-60590000D02*
X88803733Y-60590000D01*
%TO.C,U1*%
X77677500Y-47850000D02*
X77677500Y-48500000D01*
X77677500Y-47850000D02*
X77677500Y-47200000D01*
X80797500Y-47850000D02*
X80797500Y-49525000D01*
X80797500Y-47850000D02*
X80797500Y-47200000D01*
%TO.C,R1*%
X98722500Y-67245276D02*
X98722500Y-67754724D01*
X97677500Y-67245276D02*
X97677500Y-67754724D01*
%TO.C,R11*%
X125547500Y-72654724D02*
X125547500Y-72145276D01*
X126592500Y-72654724D02*
X126592500Y-72145276D01*
%TO.C,C7*%
X79201233Y-50530000D02*
X79493767Y-50530000D01*
X79201233Y-51550000D02*
X79493767Y-51550000D01*
%TD*%
M02*
