%TF.GenerationSoftware,KiCad,Pcbnew,7.0.2-1.fc38*%
%TF.CreationDate,2023-06-09T15:19:36+02:00*%
%TF.ProjectId,gps_compass,6770735f-636f-46d7-9061-73732e6b6963,rev?*%
%TF.SameCoordinates,Original*%
%TF.FileFunction,Legend,Top*%
%TF.FilePolarity,Positive*%
%FSLAX46Y46*%
G04 Gerber Fmt 4.6, Leading zero omitted, Abs format (unit mm)*
G04 Created by KiCad (PCBNEW 7.0.2-1.fc38) date 2023-06-09 15:19:36*
%MOMM*%
%LPD*%
G01*
G04 APERTURE LIST*
%ADD10C,0.100000*%
%ADD11C,0.260000*%
%ADD12C,0.150000*%
%ADD13C,0.120000*%
G04 APERTURE END LIST*
D10*
X66040190Y-56390476D02*
X66002095Y-56466666D01*
X66002095Y-56466666D02*
X66002095Y-56580952D01*
X66002095Y-56580952D02*
X66040190Y-56695238D01*
X66040190Y-56695238D02*
X66116380Y-56771428D01*
X66116380Y-56771428D02*
X66192571Y-56809523D01*
X66192571Y-56809523D02*
X66344952Y-56847619D01*
X66344952Y-56847619D02*
X66459238Y-56847619D01*
X66459238Y-56847619D02*
X66611619Y-56809523D01*
X66611619Y-56809523D02*
X66687809Y-56771428D01*
X66687809Y-56771428D02*
X66764000Y-56695238D01*
X66764000Y-56695238D02*
X66802095Y-56580952D01*
X66802095Y-56580952D02*
X66802095Y-56504761D01*
X66802095Y-56504761D02*
X66764000Y-56390476D01*
X66764000Y-56390476D02*
X66725904Y-56352380D01*
X66725904Y-56352380D02*
X66459238Y-56352380D01*
X66459238Y-56352380D02*
X66459238Y-56504761D01*
X66802095Y-56009523D02*
X66002095Y-56009523D01*
X66002095Y-56009523D02*
X66802095Y-55552380D01*
X66802095Y-55552380D02*
X66002095Y-55552380D01*
X66802095Y-55171428D02*
X66002095Y-55171428D01*
X66002095Y-55171428D02*
X66002095Y-54980952D01*
X66002095Y-54980952D02*
X66040190Y-54866666D01*
X66040190Y-54866666D02*
X66116380Y-54790476D01*
X66116380Y-54790476D02*
X66192571Y-54752381D01*
X66192571Y-54752381D02*
X66344952Y-54714285D01*
X66344952Y-54714285D02*
X66459238Y-54714285D01*
X66459238Y-54714285D02*
X66611619Y-54752381D01*
X66611619Y-54752381D02*
X66687809Y-54790476D01*
X66687809Y-54790476D02*
X66764000Y-54866666D01*
X66764000Y-54866666D02*
X66802095Y-54980952D01*
X66802095Y-54980952D02*
X66802095Y-55171428D01*
X66802095Y-53152380D02*
X66421142Y-53419047D01*
X66802095Y-53609523D02*
X66002095Y-53609523D01*
X66002095Y-53609523D02*
X66002095Y-53304761D01*
X66002095Y-53304761D02*
X66040190Y-53228571D01*
X66040190Y-53228571D02*
X66078285Y-53190476D01*
X66078285Y-53190476D02*
X66154476Y-53152380D01*
X66154476Y-53152380D02*
X66268761Y-53152380D01*
X66268761Y-53152380D02*
X66344952Y-53190476D01*
X66344952Y-53190476D02*
X66383047Y-53228571D01*
X66383047Y-53228571D02*
X66421142Y-53304761D01*
X66421142Y-53304761D02*
X66421142Y-53609523D01*
X66002095Y-52885714D02*
X66802095Y-52352380D01*
X66002095Y-52352380D02*
X66802095Y-52885714D01*
X66002095Y-51223809D02*
X66002095Y-50766666D01*
X66802095Y-50995238D02*
X66002095Y-50995238D01*
X66002095Y-50576190D02*
X66802095Y-50042856D01*
X66002095Y-50042856D02*
X66802095Y-50576190D01*
D11*
X107742857Y-42445238D02*
X108147619Y-44445238D01*
X108147619Y-44445238D02*
X108471428Y-43016666D01*
X108471428Y-43016666D02*
X108795238Y-44445238D01*
X108795238Y-44445238D02*
X109200000Y-42445238D01*
X110576190Y-44445238D02*
X110576190Y-43397619D01*
X110576190Y-43397619D02*
X110495237Y-43207142D01*
X110495237Y-43207142D02*
X110333333Y-43111904D01*
X110333333Y-43111904D02*
X110009523Y-43111904D01*
X110009523Y-43111904D02*
X109847618Y-43207142D01*
X110576190Y-44350000D02*
X110414285Y-44445238D01*
X110414285Y-44445238D02*
X110009523Y-44445238D01*
X110009523Y-44445238D02*
X109847618Y-44350000D01*
X109847618Y-44350000D02*
X109766666Y-44159523D01*
X109766666Y-44159523D02*
X109766666Y-43969047D01*
X109766666Y-43969047D02*
X109847618Y-43778571D01*
X109847618Y-43778571D02*
X110009523Y-43683333D01*
X110009523Y-43683333D02*
X110414285Y-43683333D01*
X110414285Y-43683333D02*
X110576190Y-43588095D01*
X111628571Y-44445238D02*
X111466666Y-44350000D01*
X111466666Y-44350000D02*
X111385713Y-44159523D01*
X111385713Y-44159523D02*
X111385713Y-42445238D01*
X112276189Y-44445238D02*
X112276189Y-42445238D01*
X112438094Y-43683333D02*
X112923808Y-44445238D01*
X112923808Y-43111904D02*
X112276189Y-43873809D01*
X113733332Y-44350000D02*
X113733332Y-44445238D01*
X113733332Y-44445238D02*
X113652379Y-44635714D01*
X113652379Y-44635714D02*
X113571427Y-44730952D01*
X108147619Y-47685238D02*
X107985714Y-47590000D01*
X107985714Y-47590000D02*
X107904761Y-47399523D01*
X107904761Y-47399523D02*
X107904761Y-45685238D01*
X109038095Y-47685238D02*
X108876190Y-47590000D01*
X108876190Y-47590000D02*
X108795237Y-47494761D01*
X108795237Y-47494761D02*
X108714285Y-47304285D01*
X108714285Y-47304285D02*
X108714285Y-46732857D01*
X108714285Y-46732857D02*
X108795237Y-46542380D01*
X108795237Y-46542380D02*
X108876190Y-46447142D01*
X108876190Y-46447142D02*
X109038095Y-46351904D01*
X109038095Y-46351904D02*
X109280952Y-46351904D01*
X109280952Y-46351904D02*
X109442856Y-46447142D01*
X109442856Y-46447142D02*
X109523809Y-46542380D01*
X109523809Y-46542380D02*
X109604761Y-46732857D01*
X109604761Y-46732857D02*
X109604761Y-47304285D01*
X109604761Y-47304285D02*
X109523809Y-47494761D01*
X109523809Y-47494761D02*
X109442856Y-47590000D01*
X109442856Y-47590000D02*
X109280952Y-47685238D01*
X109280952Y-47685238D02*
X109038095Y-47685238D01*
X110252380Y-47590000D02*
X110414285Y-47685238D01*
X110414285Y-47685238D02*
X110738094Y-47685238D01*
X110738094Y-47685238D02*
X110899999Y-47590000D01*
X110899999Y-47590000D02*
X110980951Y-47399523D01*
X110980951Y-47399523D02*
X110980951Y-47304285D01*
X110980951Y-47304285D02*
X110899999Y-47113809D01*
X110899999Y-47113809D02*
X110738094Y-47018571D01*
X110738094Y-47018571D02*
X110495237Y-47018571D01*
X110495237Y-47018571D02*
X110333332Y-46923333D01*
X110333332Y-46923333D02*
X110252380Y-46732857D01*
X110252380Y-46732857D02*
X110252380Y-46637619D01*
X110252380Y-46637619D02*
X110333332Y-46447142D01*
X110333332Y-46447142D02*
X110495237Y-46351904D01*
X110495237Y-46351904D02*
X110738094Y-46351904D01*
X110738094Y-46351904D02*
X110899999Y-46447142D01*
X111466665Y-46351904D02*
X112114284Y-46351904D01*
X111709522Y-45685238D02*
X111709522Y-47399523D01*
X111709522Y-47399523D02*
X111790475Y-47590000D01*
X111790475Y-47590000D02*
X111952380Y-47685238D01*
X111952380Y-47685238D02*
X112114284Y-47685238D01*
X113814285Y-46351904D02*
X114219047Y-47685238D01*
X114623808Y-46351904D02*
X114219047Y-47685238D01*
X114219047Y-47685238D02*
X114057142Y-48161428D01*
X114057142Y-48161428D02*
X113976189Y-48256666D01*
X113976189Y-48256666D02*
X113814285Y-48351904D01*
X115514285Y-47685238D02*
X115352380Y-47590000D01*
X115352380Y-47590000D02*
X115271427Y-47494761D01*
X115271427Y-47494761D02*
X115190475Y-47304285D01*
X115190475Y-47304285D02*
X115190475Y-46732857D01*
X115190475Y-46732857D02*
X115271427Y-46542380D01*
X115271427Y-46542380D02*
X115352380Y-46447142D01*
X115352380Y-46447142D02*
X115514285Y-46351904D01*
X115514285Y-46351904D02*
X115757142Y-46351904D01*
X115757142Y-46351904D02*
X115919046Y-46447142D01*
X115919046Y-46447142D02*
X115999999Y-46542380D01*
X115999999Y-46542380D02*
X116080951Y-46732857D01*
X116080951Y-46732857D02*
X116080951Y-47304285D01*
X116080951Y-47304285D02*
X115999999Y-47494761D01*
X115999999Y-47494761D02*
X115919046Y-47590000D01*
X115919046Y-47590000D02*
X115757142Y-47685238D01*
X115757142Y-47685238D02*
X115514285Y-47685238D01*
X117538094Y-46351904D02*
X117538094Y-47685238D01*
X116809522Y-46351904D02*
X116809522Y-47399523D01*
X116809522Y-47399523D02*
X116890475Y-47590000D01*
X116890475Y-47590000D02*
X117052380Y-47685238D01*
X117052380Y-47685238D02*
X117295237Y-47685238D01*
X117295237Y-47685238D02*
X117457141Y-47590000D01*
X117457141Y-47590000D02*
X117538094Y-47494761D01*
X118347617Y-47685238D02*
X118347617Y-46351904D01*
X118347617Y-46732857D02*
X118428570Y-46542380D01*
X118428570Y-46542380D02*
X118509522Y-46447142D01*
X118509522Y-46447142D02*
X118671427Y-46351904D01*
X118671427Y-46351904D02*
X118833332Y-46351904D01*
X119319046Y-47590000D02*
X119480951Y-47685238D01*
X119480951Y-47685238D02*
X119804760Y-47685238D01*
X119804760Y-47685238D02*
X119966665Y-47590000D01*
X119966665Y-47590000D02*
X120047617Y-47399523D01*
X120047617Y-47399523D02*
X120047617Y-47304285D01*
X120047617Y-47304285D02*
X119966665Y-47113809D01*
X119966665Y-47113809D02*
X119804760Y-47018571D01*
X119804760Y-47018571D02*
X119561903Y-47018571D01*
X119561903Y-47018571D02*
X119399998Y-46923333D01*
X119399998Y-46923333D02*
X119319046Y-46732857D01*
X119319046Y-46732857D02*
X119319046Y-46637619D01*
X119319046Y-46637619D02*
X119399998Y-46447142D01*
X119399998Y-46447142D02*
X119561903Y-46351904D01*
X119561903Y-46351904D02*
X119804760Y-46351904D01*
X119804760Y-46351904D02*
X119966665Y-46447142D01*
X121423807Y-47590000D02*
X121261903Y-47685238D01*
X121261903Y-47685238D02*
X120938093Y-47685238D01*
X120938093Y-47685238D02*
X120776188Y-47590000D01*
X120776188Y-47590000D02*
X120695236Y-47399523D01*
X120695236Y-47399523D02*
X120695236Y-46637619D01*
X120695236Y-46637619D02*
X120776188Y-46447142D01*
X120776188Y-46447142D02*
X120938093Y-46351904D01*
X120938093Y-46351904D02*
X121261903Y-46351904D01*
X121261903Y-46351904D02*
X121423807Y-46447142D01*
X121423807Y-46447142D02*
X121504760Y-46637619D01*
X121504760Y-46637619D02*
X121504760Y-46828095D01*
X121504760Y-46828095D02*
X120695236Y-47018571D01*
X122476189Y-47685238D02*
X122314284Y-47590000D01*
X122314284Y-47590000D02*
X122233331Y-47399523D01*
X122233331Y-47399523D02*
X122233331Y-45685238D01*
X122880950Y-46351904D02*
X123528569Y-46351904D01*
X123123807Y-47685238D02*
X123123807Y-45970952D01*
X123123807Y-45970952D02*
X123204760Y-45780476D01*
X123204760Y-45780476D02*
X123366665Y-45685238D01*
X123366665Y-45685238D02*
X123528569Y-45685238D01*
X124176189Y-47590000D02*
X124176189Y-47685238D01*
X124176189Y-47685238D02*
X124095236Y-47875714D01*
X124095236Y-47875714D02*
X124014284Y-47970952D01*
X107904761Y-50925238D02*
X107904761Y-49591904D01*
X107904761Y-49972857D02*
X107985714Y-49782380D01*
X107985714Y-49782380D02*
X108066666Y-49687142D01*
X108066666Y-49687142D02*
X108228571Y-49591904D01*
X108228571Y-49591904D02*
X108390476Y-49591904D01*
X109604761Y-50830000D02*
X109442857Y-50925238D01*
X109442857Y-50925238D02*
X109119047Y-50925238D01*
X109119047Y-50925238D02*
X108957142Y-50830000D01*
X108957142Y-50830000D02*
X108876190Y-50639523D01*
X108876190Y-50639523D02*
X108876190Y-49877619D01*
X108876190Y-49877619D02*
X108957142Y-49687142D01*
X108957142Y-49687142D02*
X109119047Y-49591904D01*
X109119047Y-49591904D02*
X109442857Y-49591904D01*
X109442857Y-49591904D02*
X109604761Y-49687142D01*
X109604761Y-49687142D02*
X109685714Y-49877619D01*
X109685714Y-49877619D02*
X109685714Y-50068095D01*
X109685714Y-50068095D02*
X108876190Y-50258571D01*
X110171428Y-49591904D02*
X110819047Y-49591904D01*
X110414285Y-48925238D02*
X110414285Y-50639523D01*
X110414285Y-50639523D02*
X110495238Y-50830000D01*
X110495238Y-50830000D02*
X110657143Y-50925238D01*
X110657143Y-50925238D02*
X110819047Y-50925238D01*
X112114286Y-49591904D02*
X112114286Y-50925238D01*
X111385714Y-49591904D02*
X111385714Y-50639523D01*
X111385714Y-50639523D02*
X111466667Y-50830000D01*
X111466667Y-50830000D02*
X111628572Y-50925238D01*
X111628572Y-50925238D02*
X111871429Y-50925238D01*
X111871429Y-50925238D02*
X112033333Y-50830000D01*
X112033333Y-50830000D02*
X112114286Y-50734761D01*
X112923809Y-50925238D02*
X112923809Y-49591904D01*
X112923809Y-49972857D02*
X113004762Y-49782380D01*
X113004762Y-49782380D02*
X113085714Y-49687142D01*
X113085714Y-49687142D02*
X113247619Y-49591904D01*
X113247619Y-49591904D02*
X113409524Y-49591904D01*
X113976190Y-49591904D02*
X113976190Y-50925238D01*
X113976190Y-49782380D02*
X114057143Y-49687142D01*
X114057143Y-49687142D02*
X114219048Y-49591904D01*
X114219048Y-49591904D02*
X114461905Y-49591904D01*
X114461905Y-49591904D02*
X114623809Y-49687142D01*
X114623809Y-49687142D02*
X114704762Y-49877619D01*
X114704762Y-49877619D02*
X114704762Y-50925238D01*
D12*
%TO.C,GY-271*%
X98585714Y-77190238D02*
X98490476Y-77142619D01*
X98490476Y-77142619D02*
X98347619Y-77142619D01*
X98347619Y-77142619D02*
X98204762Y-77190238D01*
X98204762Y-77190238D02*
X98109524Y-77285476D01*
X98109524Y-77285476D02*
X98061905Y-77380714D01*
X98061905Y-77380714D02*
X98014286Y-77571190D01*
X98014286Y-77571190D02*
X98014286Y-77714047D01*
X98014286Y-77714047D02*
X98061905Y-77904523D01*
X98061905Y-77904523D02*
X98109524Y-77999761D01*
X98109524Y-77999761D02*
X98204762Y-78095000D01*
X98204762Y-78095000D02*
X98347619Y-78142619D01*
X98347619Y-78142619D02*
X98442857Y-78142619D01*
X98442857Y-78142619D02*
X98585714Y-78095000D01*
X98585714Y-78095000D02*
X98633333Y-78047380D01*
X98633333Y-78047380D02*
X98633333Y-77714047D01*
X98633333Y-77714047D02*
X98442857Y-77714047D01*
X99252381Y-77666428D02*
X99252381Y-78142619D01*
X98919048Y-77142619D02*
X99252381Y-77666428D01*
X99252381Y-77666428D02*
X99585714Y-77142619D01*
X99919048Y-77761666D02*
X100680953Y-77761666D01*
X101109524Y-77237857D02*
X101157143Y-77190238D01*
X101157143Y-77190238D02*
X101252381Y-77142619D01*
X101252381Y-77142619D02*
X101490476Y-77142619D01*
X101490476Y-77142619D02*
X101585714Y-77190238D01*
X101585714Y-77190238D02*
X101633333Y-77237857D01*
X101633333Y-77237857D02*
X101680952Y-77333095D01*
X101680952Y-77333095D02*
X101680952Y-77428333D01*
X101680952Y-77428333D02*
X101633333Y-77571190D01*
X101633333Y-77571190D02*
X101061905Y-78142619D01*
X101061905Y-78142619D02*
X101680952Y-78142619D01*
X102014286Y-77142619D02*
X102680952Y-77142619D01*
X102680952Y-77142619D02*
X102252381Y-78142619D01*
X103585714Y-78142619D02*
X103014286Y-78142619D01*
X103300000Y-78142619D02*
X103300000Y-77142619D01*
X103300000Y-77142619D02*
X103204762Y-77285476D01*
X103204762Y-77285476D02*
X103109524Y-77380714D01*
X103109524Y-77380714D02*
X103014286Y-77428333D01*
D10*
X106022380Y-77484000D02*
X106136666Y-77522095D01*
X106136666Y-77522095D02*
X106327142Y-77522095D01*
X106327142Y-77522095D02*
X106403333Y-77484000D01*
X106403333Y-77484000D02*
X106441428Y-77445904D01*
X106441428Y-77445904D02*
X106479523Y-77369714D01*
X106479523Y-77369714D02*
X106479523Y-77293523D01*
X106479523Y-77293523D02*
X106441428Y-77217333D01*
X106441428Y-77217333D02*
X106403333Y-77179238D01*
X106403333Y-77179238D02*
X106327142Y-77141142D01*
X106327142Y-77141142D02*
X106174761Y-77103047D01*
X106174761Y-77103047D02*
X106098571Y-77064952D01*
X106098571Y-77064952D02*
X106060476Y-77026857D01*
X106060476Y-77026857D02*
X106022380Y-76950666D01*
X106022380Y-76950666D02*
X106022380Y-76874476D01*
X106022380Y-76874476D02*
X106060476Y-76798285D01*
X106060476Y-76798285D02*
X106098571Y-76760190D01*
X106098571Y-76760190D02*
X106174761Y-76722095D01*
X106174761Y-76722095D02*
X106365238Y-76722095D01*
X106365238Y-76722095D02*
X106479523Y-76760190D01*
X107279524Y-77445904D02*
X107241428Y-77484000D01*
X107241428Y-77484000D02*
X107127143Y-77522095D01*
X107127143Y-77522095D02*
X107050952Y-77522095D01*
X107050952Y-77522095D02*
X106936666Y-77484000D01*
X106936666Y-77484000D02*
X106860476Y-77407809D01*
X106860476Y-77407809D02*
X106822381Y-77331619D01*
X106822381Y-77331619D02*
X106784285Y-77179238D01*
X106784285Y-77179238D02*
X106784285Y-77064952D01*
X106784285Y-77064952D02*
X106822381Y-76912571D01*
X106822381Y-76912571D02*
X106860476Y-76836380D01*
X106860476Y-76836380D02*
X106936666Y-76760190D01*
X106936666Y-76760190D02*
X107050952Y-76722095D01*
X107050952Y-76722095D02*
X107127143Y-76722095D01*
X107127143Y-76722095D02*
X107241428Y-76760190D01*
X107241428Y-76760190D02*
X107279524Y-76798285D01*
X108003333Y-77522095D02*
X107622381Y-77522095D01*
X107622381Y-77522095D02*
X107622381Y-76722095D01*
X105822380Y-74984000D02*
X105936666Y-75022095D01*
X105936666Y-75022095D02*
X106127142Y-75022095D01*
X106127142Y-75022095D02*
X106203333Y-74984000D01*
X106203333Y-74984000D02*
X106241428Y-74945904D01*
X106241428Y-74945904D02*
X106279523Y-74869714D01*
X106279523Y-74869714D02*
X106279523Y-74793523D01*
X106279523Y-74793523D02*
X106241428Y-74717333D01*
X106241428Y-74717333D02*
X106203333Y-74679238D01*
X106203333Y-74679238D02*
X106127142Y-74641142D01*
X106127142Y-74641142D02*
X105974761Y-74603047D01*
X105974761Y-74603047D02*
X105898571Y-74564952D01*
X105898571Y-74564952D02*
X105860476Y-74526857D01*
X105860476Y-74526857D02*
X105822380Y-74450666D01*
X105822380Y-74450666D02*
X105822380Y-74374476D01*
X105822380Y-74374476D02*
X105860476Y-74298285D01*
X105860476Y-74298285D02*
X105898571Y-74260190D01*
X105898571Y-74260190D02*
X105974761Y-74222095D01*
X105974761Y-74222095D02*
X106165238Y-74222095D01*
X106165238Y-74222095D02*
X106279523Y-74260190D01*
X106622381Y-75022095D02*
X106622381Y-74222095D01*
X106622381Y-74222095D02*
X106812857Y-74222095D01*
X106812857Y-74222095D02*
X106927143Y-74260190D01*
X106927143Y-74260190D02*
X107003333Y-74336380D01*
X107003333Y-74336380D02*
X107041428Y-74412571D01*
X107041428Y-74412571D02*
X107079524Y-74564952D01*
X107079524Y-74564952D02*
X107079524Y-74679238D01*
X107079524Y-74679238D02*
X107041428Y-74831619D01*
X107041428Y-74831619D02*
X107003333Y-74907809D01*
X107003333Y-74907809D02*
X106927143Y-74984000D01*
X106927143Y-74984000D02*
X106812857Y-75022095D01*
X106812857Y-75022095D02*
X106622381Y-75022095D01*
X107384285Y-74793523D02*
X107765238Y-74793523D01*
X107308095Y-75022095D02*
X107574762Y-74222095D01*
X107574762Y-74222095D02*
X107841428Y-75022095D01*
X104860476Y-72422095D02*
X104860476Y-71622095D01*
X104860476Y-71622095D02*
X105050952Y-71622095D01*
X105050952Y-71622095D02*
X105165238Y-71660190D01*
X105165238Y-71660190D02*
X105241428Y-71736380D01*
X105241428Y-71736380D02*
X105279523Y-71812571D01*
X105279523Y-71812571D02*
X105317619Y-71964952D01*
X105317619Y-71964952D02*
X105317619Y-72079238D01*
X105317619Y-72079238D02*
X105279523Y-72231619D01*
X105279523Y-72231619D02*
X105241428Y-72307809D01*
X105241428Y-72307809D02*
X105165238Y-72384000D01*
X105165238Y-72384000D02*
X105050952Y-72422095D01*
X105050952Y-72422095D02*
X104860476Y-72422095D01*
X106117619Y-72422095D02*
X105850952Y-72041142D01*
X105660476Y-72422095D02*
X105660476Y-71622095D01*
X105660476Y-71622095D02*
X105965238Y-71622095D01*
X105965238Y-71622095D02*
X106041428Y-71660190D01*
X106041428Y-71660190D02*
X106079523Y-71698285D01*
X106079523Y-71698285D02*
X106117619Y-71774476D01*
X106117619Y-71774476D02*
X106117619Y-71888761D01*
X106117619Y-71888761D02*
X106079523Y-71964952D01*
X106079523Y-71964952D02*
X106041428Y-72003047D01*
X106041428Y-72003047D02*
X105965238Y-72041142D01*
X105965238Y-72041142D02*
X105660476Y-72041142D01*
X106460476Y-72422095D02*
X106460476Y-71622095D01*
X106460476Y-71622095D02*
X106650952Y-71622095D01*
X106650952Y-71622095D02*
X106765238Y-71660190D01*
X106765238Y-71660190D02*
X106841428Y-71736380D01*
X106841428Y-71736380D02*
X106879523Y-71812571D01*
X106879523Y-71812571D02*
X106917619Y-71964952D01*
X106917619Y-71964952D02*
X106917619Y-72079238D01*
X106917619Y-72079238D02*
X106879523Y-72231619D01*
X106879523Y-72231619D02*
X106841428Y-72307809D01*
X106841428Y-72307809D02*
X106765238Y-72384000D01*
X106765238Y-72384000D02*
X106650952Y-72422095D01*
X106650952Y-72422095D02*
X106460476Y-72422095D01*
X107412857Y-72041142D02*
X107412857Y-72422095D01*
X107146190Y-71622095D02*
X107412857Y-72041142D01*
X107412857Y-72041142D02*
X107679523Y-71622095D01*
X106179523Y-79360190D02*
X106103333Y-79322095D01*
X106103333Y-79322095D02*
X105989047Y-79322095D01*
X105989047Y-79322095D02*
X105874761Y-79360190D01*
X105874761Y-79360190D02*
X105798571Y-79436380D01*
X105798571Y-79436380D02*
X105760476Y-79512571D01*
X105760476Y-79512571D02*
X105722380Y-79664952D01*
X105722380Y-79664952D02*
X105722380Y-79779238D01*
X105722380Y-79779238D02*
X105760476Y-79931619D01*
X105760476Y-79931619D02*
X105798571Y-80007809D01*
X105798571Y-80007809D02*
X105874761Y-80084000D01*
X105874761Y-80084000D02*
X105989047Y-80122095D01*
X105989047Y-80122095D02*
X106065238Y-80122095D01*
X106065238Y-80122095D02*
X106179523Y-80084000D01*
X106179523Y-80084000D02*
X106217619Y-80045904D01*
X106217619Y-80045904D02*
X106217619Y-79779238D01*
X106217619Y-79779238D02*
X106065238Y-79779238D01*
X106560476Y-80122095D02*
X106560476Y-79322095D01*
X106560476Y-79322095D02*
X107017619Y-80122095D01*
X107017619Y-80122095D02*
X107017619Y-79322095D01*
X107398571Y-80122095D02*
X107398571Y-79322095D01*
X107398571Y-79322095D02*
X107589047Y-79322095D01*
X107589047Y-79322095D02*
X107703333Y-79360190D01*
X107703333Y-79360190D02*
X107779523Y-79436380D01*
X107779523Y-79436380D02*
X107817618Y-79512571D01*
X107817618Y-79512571D02*
X107855714Y-79664952D01*
X107855714Y-79664952D02*
X107855714Y-79779238D01*
X107855714Y-79779238D02*
X107817618Y-79931619D01*
X107817618Y-79931619D02*
X107779523Y-80007809D01*
X107779523Y-80007809D02*
X107703333Y-80084000D01*
X107703333Y-80084000D02*
X107589047Y-80122095D01*
X107589047Y-80122095D02*
X107398571Y-80122095D01*
X105746190Y-81822095D02*
X106012857Y-82622095D01*
X106012857Y-82622095D02*
X106279523Y-81822095D01*
X107003333Y-82545904D02*
X106965237Y-82584000D01*
X106965237Y-82584000D02*
X106850952Y-82622095D01*
X106850952Y-82622095D02*
X106774761Y-82622095D01*
X106774761Y-82622095D02*
X106660475Y-82584000D01*
X106660475Y-82584000D02*
X106584285Y-82507809D01*
X106584285Y-82507809D02*
X106546190Y-82431619D01*
X106546190Y-82431619D02*
X106508094Y-82279238D01*
X106508094Y-82279238D02*
X106508094Y-82164952D01*
X106508094Y-82164952D02*
X106546190Y-82012571D01*
X106546190Y-82012571D02*
X106584285Y-81936380D01*
X106584285Y-81936380D02*
X106660475Y-81860190D01*
X106660475Y-81860190D02*
X106774761Y-81822095D01*
X106774761Y-81822095D02*
X106850952Y-81822095D01*
X106850952Y-81822095D02*
X106965237Y-81860190D01*
X106965237Y-81860190D02*
X107003333Y-81898285D01*
X107803333Y-82545904D02*
X107765237Y-82584000D01*
X107765237Y-82584000D02*
X107650952Y-82622095D01*
X107650952Y-82622095D02*
X107574761Y-82622095D01*
X107574761Y-82622095D02*
X107460475Y-82584000D01*
X107460475Y-82584000D02*
X107384285Y-82507809D01*
X107384285Y-82507809D02*
X107346190Y-82431619D01*
X107346190Y-82431619D02*
X107308094Y-82279238D01*
X107308094Y-82279238D02*
X107308094Y-82164952D01*
X107308094Y-82164952D02*
X107346190Y-82012571D01*
X107346190Y-82012571D02*
X107384285Y-81936380D01*
X107384285Y-81936380D02*
X107460475Y-81860190D01*
X107460475Y-81860190D02*
X107574761Y-81822095D01*
X107574761Y-81822095D02*
X107650952Y-81822095D01*
X107650952Y-81822095D02*
X107765237Y-81860190D01*
X107765237Y-81860190D02*
X107803333Y-81898285D01*
%TO.C,C3*%
X74616667Y-75393904D02*
X74578571Y-75432000D01*
X74578571Y-75432000D02*
X74464286Y-75470095D01*
X74464286Y-75470095D02*
X74388095Y-75470095D01*
X74388095Y-75470095D02*
X74273809Y-75432000D01*
X74273809Y-75432000D02*
X74197619Y-75355809D01*
X74197619Y-75355809D02*
X74159524Y-75279619D01*
X74159524Y-75279619D02*
X74121428Y-75127238D01*
X74121428Y-75127238D02*
X74121428Y-75012952D01*
X74121428Y-75012952D02*
X74159524Y-74860571D01*
X74159524Y-74860571D02*
X74197619Y-74784380D01*
X74197619Y-74784380D02*
X74273809Y-74708190D01*
X74273809Y-74708190D02*
X74388095Y-74670095D01*
X74388095Y-74670095D02*
X74464286Y-74670095D01*
X74464286Y-74670095D02*
X74578571Y-74708190D01*
X74578571Y-74708190D02*
X74616667Y-74746285D01*
X74883333Y-74670095D02*
X75378571Y-74670095D01*
X75378571Y-74670095D02*
X75111905Y-74974857D01*
X75111905Y-74974857D02*
X75226190Y-74974857D01*
X75226190Y-74974857D02*
X75302381Y-75012952D01*
X75302381Y-75012952D02*
X75340476Y-75051047D01*
X75340476Y-75051047D02*
X75378571Y-75127238D01*
X75378571Y-75127238D02*
X75378571Y-75317714D01*
X75378571Y-75317714D02*
X75340476Y-75393904D01*
X75340476Y-75393904D02*
X75302381Y-75432000D01*
X75302381Y-75432000D02*
X75226190Y-75470095D01*
X75226190Y-75470095D02*
X74997619Y-75470095D01*
X74997619Y-75470095D02*
X74921428Y-75432000D01*
X74921428Y-75432000D02*
X74883333Y-75393904D01*
%TO.C,C9*%
X74731667Y-73803904D02*
X74693571Y-73842000D01*
X74693571Y-73842000D02*
X74579286Y-73880095D01*
X74579286Y-73880095D02*
X74503095Y-73880095D01*
X74503095Y-73880095D02*
X74388809Y-73842000D01*
X74388809Y-73842000D02*
X74312619Y-73765809D01*
X74312619Y-73765809D02*
X74274524Y-73689619D01*
X74274524Y-73689619D02*
X74236428Y-73537238D01*
X74236428Y-73537238D02*
X74236428Y-73422952D01*
X74236428Y-73422952D02*
X74274524Y-73270571D01*
X74274524Y-73270571D02*
X74312619Y-73194380D01*
X74312619Y-73194380D02*
X74388809Y-73118190D01*
X74388809Y-73118190D02*
X74503095Y-73080095D01*
X74503095Y-73080095D02*
X74579286Y-73080095D01*
X74579286Y-73080095D02*
X74693571Y-73118190D01*
X74693571Y-73118190D02*
X74731667Y-73156285D01*
X75112619Y-73880095D02*
X75265000Y-73880095D01*
X75265000Y-73880095D02*
X75341190Y-73842000D01*
X75341190Y-73842000D02*
X75379286Y-73803904D01*
X75379286Y-73803904D02*
X75455476Y-73689619D01*
X75455476Y-73689619D02*
X75493571Y-73537238D01*
X75493571Y-73537238D02*
X75493571Y-73232476D01*
X75493571Y-73232476D02*
X75455476Y-73156285D01*
X75455476Y-73156285D02*
X75417381Y-73118190D01*
X75417381Y-73118190D02*
X75341190Y-73080095D01*
X75341190Y-73080095D02*
X75188809Y-73080095D01*
X75188809Y-73080095D02*
X75112619Y-73118190D01*
X75112619Y-73118190D02*
X75074524Y-73156285D01*
X75074524Y-73156285D02*
X75036428Y-73232476D01*
X75036428Y-73232476D02*
X75036428Y-73422952D01*
X75036428Y-73422952D02*
X75074524Y-73499142D01*
X75074524Y-73499142D02*
X75112619Y-73537238D01*
X75112619Y-73537238D02*
X75188809Y-73575333D01*
X75188809Y-73575333D02*
X75341190Y-73575333D01*
X75341190Y-73575333D02*
X75417381Y-73537238D01*
X75417381Y-73537238D02*
X75455476Y-73499142D01*
X75455476Y-73499142D02*
X75493571Y-73422952D01*
%TO.C,C8*%
X74666667Y-72243904D02*
X74628571Y-72282000D01*
X74628571Y-72282000D02*
X74514286Y-72320095D01*
X74514286Y-72320095D02*
X74438095Y-72320095D01*
X74438095Y-72320095D02*
X74323809Y-72282000D01*
X74323809Y-72282000D02*
X74247619Y-72205809D01*
X74247619Y-72205809D02*
X74209524Y-72129619D01*
X74209524Y-72129619D02*
X74171428Y-71977238D01*
X74171428Y-71977238D02*
X74171428Y-71862952D01*
X74171428Y-71862952D02*
X74209524Y-71710571D01*
X74209524Y-71710571D02*
X74247619Y-71634380D01*
X74247619Y-71634380D02*
X74323809Y-71558190D01*
X74323809Y-71558190D02*
X74438095Y-71520095D01*
X74438095Y-71520095D02*
X74514286Y-71520095D01*
X74514286Y-71520095D02*
X74628571Y-71558190D01*
X74628571Y-71558190D02*
X74666667Y-71596285D01*
X75123809Y-71862952D02*
X75047619Y-71824857D01*
X75047619Y-71824857D02*
X75009524Y-71786761D01*
X75009524Y-71786761D02*
X74971428Y-71710571D01*
X74971428Y-71710571D02*
X74971428Y-71672476D01*
X74971428Y-71672476D02*
X75009524Y-71596285D01*
X75009524Y-71596285D02*
X75047619Y-71558190D01*
X75047619Y-71558190D02*
X75123809Y-71520095D01*
X75123809Y-71520095D02*
X75276190Y-71520095D01*
X75276190Y-71520095D02*
X75352381Y-71558190D01*
X75352381Y-71558190D02*
X75390476Y-71596285D01*
X75390476Y-71596285D02*
X75428571Y-71672476D01*
X75428571Y-71672476D02*
X75428571Y-71710571D01*
X75428571Y-71710571D02*
X75390476Y-71786761D01*
X75390476Y-71786761D02*
X75352381Y-71824857D01*
X75352381Y-71824857D02*
X75276190Y-71862952D01*
X75276190Y-71862952D02*
X75123809Y-71862952D01*
X75123809Y-71862952D02*
X75047619Y-71901047D01*
X75047619Y-71901047D02*
X75009524Y-71939142D01*
X75009524Y-71939142D02*
X74971428Y-72015333D01*
X74971428Y-72015333D02*
X74971428Y-72167714D01*
X74971428Y-72167714D02*
X75009524Y-72243904D01*
X75009524Y-72243904D02*
X75047619Y-72282000D01*
X75047619Y-72282000D02*
X75123809Y-72320095D01*
X75123809Y-72320095D02*
X75276190Y-72320095D01*
X75276190Y-72320095D02*
X75352381Y-72282000D01*
X75352381Y-72282000D02*
X75390476Y-72243904D01*
X75390476Y-72243904D02*
X75428571Y-72167714D01*
X75428571Y-72167714D02*
X75428571Y-72015333D01*
X75428571Y-72015333D02*
X75390476Y-71939142D01*
X75390476Y-71939142D02*
X75352381Y-71901047D01*
X75352381Y-71901047D02*
X75276190Y-71862952D01*
D12*
%TO.C,Prog*%
X121473809Y-78212619D02*
X121473809Y-77212619D01*
X121473809Y-77212619D02*
X121854761Y-77212619D01*
X121854761Y-77212619D02*
X121949999Y-77260238D01*
X121949999Y-77260238D02*
X121997618Y-77307857D01*
X121997618Y-77307857D02*
X122045237Y-77403095D01*
X122045237Y-77403095D02*
X122045237Y-77545952D01*
X122045237Y-77545952D02*
X121997618Y-77641190D01*
X121997618Y-77641190D02*
X121949999Y-77688809D01*
X121949999Y-77688809D02*
X121854761Y-77736428D01*
X121854761Y-77736428D02*
X121473809Y-77736428D01*
X122473809Y-78212619D02*
X122473809Y-77545952D01*
X122473809Y-77736428D02*
X122521428Y-77641190D01*
X122521428Y-77641190D02*
X122569047Y-77593571D01*
X122569047Y-77593571D02*
X122664285Y-77545952D01*
X122664285Y-77545952D02*
X122759523Y-77545952D01*
X123235714Y-78212619D02*
X123140476Y-78165000D01*
X123140476Y-78165000D02*
X123092857Y-78117380D01*
X123092857Y-78117380D02*
X123045238Y-78022142D01*
X123045238Y-78022142D02*
X123045238Y-77736428D01*
X123045238Y-77736428D02*
X123092857Y-77641190D01*
X123092857Y-77641190D02*
X123140476Y-77593571D01*
X123140476Y-77593571D02*
X123235714Y-77545952D01*
X123235714Y-77545952D02*
X123378571Y-77545952D01*
X123378571Y-77545952D02*
X123473809Y-77593571D01*
X123473809Y-77593571D02*
X123521428Y-77641190D01*
X123521428Y-77641190D02*
X123569047Y-77736428D01*
X123569047Y-77736428D02*
X123569047Y-78022142D01*
X123569047Y-78022142D02*
X123521428Y-78117380D01*
X123521428Y-78117380D02*
X123473809Y-78165000D01*
X123473809Y-78165000D02*
X123378571Y-78212619D01*
X123378571Y-78212619D02*
X123235714Y-78212619D01*
X124426190Y-77545952D02*
X124426190Y-78355476D01*
X124426190Y-78355476D02*
X124378571Y-78450714D01*
X124378571Y-78450714D02*
X124330952Y-78498333D01*
X124330952Y-78498333D02*
X124235714Y-78545952D01*
X124235714Y-78545952D02*
X124092857Y-78545952D01*
X124092857Y-78545952D02*
X123997619Y-78498333D01*
X124426190Y-78165000D02*
X124330952Y-78212619D01*
X124330952Y-78212619D02*
X124140476Y-78212619D01*
X124140476Y-78212619D02*
X124045238Y-78165000D01*
X124045238Y-78165000D02*
X123997619Y-78117380D01*
X123997619Y-78117380D02*
X123950000Y-78022142D01*
X123950000Y-78022142D02*
X123950000Y-77736428D01*
X123950000Y-77736428D02*
X123997619Y-77641190D01*
X123997619Y-77641190D02*
X124045238Y-77593571D01*
X124045238Y-77593571D02*
X124140476Y-77545952D01*
X124140476Y-77545952D02*
X124330952Y-77545952D01*
X124330952Y-77545952D02*
X124426190Y-77593571D01*
%TO.C,LCD*%
X89889523Y-55722619D02*
X89413333Y-55722619D01*
X89413333Y-55722619D02*
X89413333Y-54722619D01*
X90794285Y-55627380D02*
X90746666Y-55675000D01*
X90746666Y-55675000D02*
X90603809Y-55722619D01*
X90603809Y-55722619D02*
X90508571Y-55722619D01*
X90508571Y-55722619D02*
X90365714Y-55675000D01*
X90365714Y-55675000D02*
X90270476Y-55579761D01*
X90270476Y-55579761D02*
X90222857Y-55484523D01*
X90222857Y-55484523D02*
X90175238Y-55294047D01*
X90175238Y-55294047D02*
X90175238Y-55151190D01*
X90175238Y-55151190D02*
X90222857Y-54960714D01*
X90222857Y-54960714D02*
X90270476Y-54865476D01*
X90270476Y-54865476D02*
X90365714Y-54770238D01*
X90365714Y-54770238D02*
X90508571Y-54722619D01*
X90508571Y-54722619D02*
X90603809Y-54722619D01*
X90603809Y-54722619D02*
X90746666Y-54770238D01*
X90746666Y-54770238D02*
X90794285Y-54817857D01*
X91222857Y-55722619D02*
X91222857Y-54722619D01*
X91222857Y-54722619D02*
X91460952Y-54722619D01*
X91460952Y-54722619D02*
X91603809Y-54770238D01*
X91603809Y-54770238D02*
X91699047Y-54865476D01*
X91699047Y-54865476D02*
X91746666Y-54960714D01*
X91746666Y-54960714D02*
X91794285Y-55151190D01*
X91794285Y-55151190D02*
X91794285Y-55294047D01*
X91794285Y-55294047D02*
X91746666Y-55484523D01*
X91746666Y-55484523D02*
X91699047Y-55579761D01*
X91699047Y-55579761D02*
X91603809Y-55675000D01*
X91603809Y-55675000D02*
X91460952Y-55722619D01*
X91460952Y-55722619D02*
X91222857Y-55722619D01*
D10*
X92482095Y-62005714D02*
X93282095Y-61815238D01*
X93282095Y-61815238D02*
X92710666Y-61662857D01*
X92710666Y-61662857D02*
X93282095Y-61510476D01*
X93282095Y-61510476D02*
X92482095Y-61320000D01*
X93282095Y-60558094D02*
X92901142Y-60824761D01*
X93282095Y-61015237D02*
X92482095Y-61015237D01*
X92482095Y-61015237D02*
X92482095Y-60710475D01*
X92482095Y-60710475D02*
X92520190Y-60634285D01*
X92520190Y-60634285D02*
X92558285Y-60596190D01*
X92558285Y-60596190D02*
X92634476Y-60558094D01*
X92634476Y-60558094D02*
X92748761Y-60558094D01*
X92748761Y-60558094D02*
X92824952Y-60596190D01*
X92824952Y-60596190D02*
X92863047Y-60634285D01*
X92863047Y-60634285D02*
X92901142Y-60710475D01*
X92901142Y-60710475D02*
X92901142Y-61015237D01*
X84820190Y-61610476D02*
X84782095Y-61686666D01*
X84782095Y-61686666D02*
X84782095Y-61800952D01*
X84782095Y-61800952D02*
X84820190Y-61915238D01*
X84820190Y-61915238D02*
X84896380Y-61991428D01*
X84896380Y-61991428D02*
X84972571Y-62029523D01*
X84972571Y-62029523D02*
X85124952Y-62067619D01*
X85124952Y-62067619D02*
X85239238Y-62067619D01*
X85239238Y-62067619D02*
X85391619Y-62029523D01*
X85391619Y-62029523D02*
X85467809Y-61991428D01*
X85467809Y-61991428D02*
X85544000Y-61915238D01*
X85544000Y-61915238D02*
X85582095Y-61800952D01*
X85582095Y-61800952D02*
X85582095Y-61724761D01*
X85582095Y-61724761D02*
X85544000Y-61610476D01*
X85544000Y-61610476D02*
X85505904Y-61572380D01*
X85505904Y-61572380D02*
X85239238Y-61572380D01*
X85239238Y-61572380D02*
X85239238Y-61724761D01*
X85582095Y-61229523D02*
X84782095Y-61229523D01*
X84782095Y-61229523D02*
X85582095Y-60772380D01*
X85582095Y-60772380D02*
X84782095Y-60772380D01*
X85582095Y-60391428D02*
X84782095Y-60391428D01*
X84782095Y-60391428D02*
X84782095Y-60200952D01*
X84782095Y-60200952D02*
X84820190Y-60086666D01*
X84820190Y-60086666D02*
X84896380Y-60010476D01*
X84896380Y-60010476D02*
X84972571Y-59972381D01*
X84972571Y-59972381D02*
X85124952Y-59934285D01*
X85124952Y-59934285D02*
X85239238Y-59934285D01*
X85239238Y-59934285D02*
X85391619Y-59972381D01*
X85391619Y-59972381D02*
X85467809Y-60010476D01*
X85467809Y-60010476D02*
X85544000Y-60086666D01*
X85544000Y-60086666D02*
X85582095Y-60200952D01*
X85582095Y-60200952D02*
X85582095Y-60391428D01*
X87382095Y-62043809D02*
X88182095Y-61777142D01*
X88182095Y-61777142D02*
X87382095Y-61510476D01*
X88105904Y-60786666D02*
X88144000Y-60824762D01*
X88144000Y-60824762D02*
X88182095Y-60939047D01*
X88182095Y-60939047D02*
X88182095Y-61015238D01*
X88182095Y-61015238D02*
X88144000Y-61129524D01*
X88144000Y-61129524D02*
X88067809Y-61205714D01*
X88067809Y-61205714D02*
X87991619Y-61243809D01*
X87991619Y-61243809D02*
X87839238Y-61281905D01*
X87839238Y-61281905D02*
X87724952Y-61281905D01*
X87724952Y-61281905D02*
X87572571Y-61243809D01*
X87572571Y-61243809D02*
X87496380Y-61205714D01*
X87496380Y-61205714D02*
X87420190Y-61129524D01*
X87420190Y-61129524D02*
X87382095Y-61015238D01*
X87382095Y-61015238D02*
X87382095Y-60939047D01*
X87382095Y-60939047D02*
X87420190Y-60824762D01*
X87420190Y-60824762D02*
X87458285Y-60786666D01*
X88105904Y-59986666D02*
X88144000Y-60024762D01*
X88144000Y-60024762D02*
X88182095Y-60139047D01*
X88182095Y-60139047D02*
X88182095Y-60215238D01*
X88182095Y-60215238D02*
X88144000Y-60329524D01*
X88144000Y-60329524D02*
X88067809Y-60405714D01*
X88067809Y-60405714D02*
X87991619Y-60443809D01*
X87991619Y-60443809D02*
X87839238Y-60481905D01*
X87839238Y-60481905D02*
X87724952Y-60481905D01*
X87724952Y-60481905D02*
X87572571Y-60443809D01*
X87572571Y-60443809D02*
X87496380Y-60405714D01*
X87496380Y-60405714D02*
X87420190Y-60329524D01*
X87420190Y-60329524D02*
X87382095Y-60215238D01*
X87382095Y-60215238D02*
X87382095Y-60139047D01*
X87382095Y-60139047D02*
X87420190Y-60024762D01*
X87420190Y-60024762D02*
X87458285Y-59986666D01*
X90682095Y-62029523D02*
X89882095Y-62029523D01*
X89882095Y-62029523D02*
X89882095Y-61839047D01*
X89882095Y-61839047D02*
X89920190Y-61724761D01*
X89920190Y-61724761D02*
X89996380Y-61648571D01*
X89996380Y-61648571D02*
X90072571Y-61610476D01*
X90072571Y-61610476D02*
X90224952Y-61572380D01*
X90224952Y-61572380D02*
X90339238Y-61572380D01*
X90339238Y-61572380D02*
X90491619Y-61610476D01*
X90491619Y-61610476D02*
X90567809Y-61648571D01*
X90567809Y-61648571D02*
X90644000Y-61724761D01*
X90644000Y-61724761D02*
X90682095Y-61839047D01*
X90682095Y-61839047D02*
X90682095Y-62029523D01*
X90453523Y-61267619D02*
X90453523Y-60886666D01*
X90682095Y-61343809D02*
X89882095Y-61077142D01*
X89882095Y-61077142D02*
X90682095Y-60810476D01*
X95705904Y-61572380D02*
X95744000Y-61610476D01*
X95744000Y-61610476D02*
X95782095Y-61724761D01*
X95782095Y-61724761D02*
X95782095Y-61800952D01*
X95782095Y-61800952D02*
X95744000Y-61915238D01*
X95744000Y-61915238D02*
X95667809Y-61991428D01*
X95667809Y-61991428D02*
X95591619Y-62029523D01*
X95591619Y-62029523D02*
X95439238Y-62067619D01*
X95439238Y-62067619D02*
X95324952Y-62067619D01*
X95324952Y-62067619D02*
X95172571Y-62029523D01*
X95172571Y-62029523D02*
X95096380Y-61991428D01*
X95096380Y-61991428D02*
X95020190Y-61915238D01*
X95020190Y-61915238D02*
X94982095Y-61800952D01*
X94982095Y-61800952D02*
X94982095Y-61724761D01*
X94982095Y-61724761D02*
X95020190Y-61610476D01*
X95020190Y-61610476D02*
X95058285Y-61572380D01*
X95744000Y-61267619D02*
X95782095Y-61153333D01*
X95782095Y-61153333D02*
X95782095Y-60962857D01*
X95782095Y-60962857D02*
X95744000Y-60886666D01*
X95744000Y-60886666D02*
X95705904Y-60848571D01*
X95705904Y-60848571D02*
X95629714Y-60810476D01*
X95629714Y-60810476D02*
X95553523Y-60810476D01*
X95553523Y-60810476D02*
X95477333Y-60848571D01*
X95477333Y-60848571D02*
X95439238Y-60886666D01*
X95439238Y-60886666D02*
X95401142Y-60962857D01*
X95401142Y-60962857D02*
X95363047Y-61115238D01*
X95363047Y-61115238D02*
X95324952Y-61191428D01*
X95324952Y-61191428D02*
X95286857Y-61229523D01*
X95286857Y-61229523D02*
X95210666Y-61267619D01*
X95210666Y-61267619D02*
X95134476Y-61267619D01*
X95134476Y-61267619D02*
X95058285Y-61229523D01*
X95058285Y-61229523D02*
X95020190Y-61191428D01*
X95020190Y-61191428D02*
X94982095Y-61115238D01*
X94982095Y-61115238D02*
X94982095Y-60924761D01*
X94982095Y-60924761D02*
X95020190Y-60810476D01*
%TO.C,R4*%
X74766667Y-69970095D02*
X74500000Y-69589142D01*
X74309524Y-69970095D02*
X74309524Y-69170095D01*
X74309524Y-69170095D02*
X74614286Y-69170095D01*
X74614286Y-69170095D02*
X74690476Y-69208190D01*
X74690476Y-69208190D02*
X74728571Y-69246285D01*
X74728571Y-69246285D02*
X74766667Y-69322476D01*
X74766667Y-69322476D02*
X74766667Y-69436761D01*
X74766667Y-69436761D02*
X74728571Y-69512952D01*
X74728571Y-69512952D02*
X74690476Y-69551047D01*
X74690476Y-69551047D02*
X74614286Y-69589142D01*
X74614286Y-69589142D02*
X74309524Y-69589142D01*
X75452381Y-69436761D02*
X75452381Y-69970095D01*
X75261905Y-69132000D02*
X75071428Y-69703428D01*
X75071428Y-69703428D02*
X75566667Y-69703428D01*
%TO.C,C4*%
X74766667Y-76993904D02*
X74728571Y-77032000D01*
X74728571Y-77032000D02*
X74614286Y-77070095D01*
X74614286Y-77070095D02*
X74538095Y-77070095D01*
X74538095Y-77070095D02*
X74423809Y-77032000D01*
X74423809Y-77032000D02*
X74347619Y-76955809D01*
X74347619Y-76955809D02*
X74309524Y-76879619D01*
X74309524Y-76879619D02*
X74271428Y-76727238D01*
X74271428Y-76727238D02*
X74271428Y-76612952D01*
X74271428Y-76612952D02*
X74309524Y-76460571D01*
X74309524Y-76460571D02*
X74347619Y-76384380D01*
X74347619Y-76384380D02*
X74423809Y-76308190D01*
X74423809Y-76308190D02*
X74538095Y-76270095D01*
X74538095Y-76270095D02*
X74614286Y-76270095D01*
X74614286Y-76270095D02*
X74728571Y-76308190D01*
X74728571Y-76308190D02*
X74766667Y-76346285D01*
X75452381Y-76536761D02*
X75452381Y-77070095D01*
X75261905Y-76232000D02*
X75071428Y-76803428D01*
X75071428Y-76803428D02*
X75566667Y-76803428D01*
D12*
%TO.C,GPS*%
X86735714Y-76440238D02*
X86640476Y-76392619D01*
X86640476Y-76392619D02*
X86497619Y-76392619D01*
X86497619Y-76392619D02*
X86354762Y-76440238D01*
X86354762Y-76440238D02*
X86259524Y-76535476D01*
X86259524Y-76535476D02*
X86211905Y-76630714D01*
X86211905Y-76630714D02*
X86164286Y-76821190D01*
X86164286Y-76821190D02*
X86164286Y-76964047D01*
X86164286Y-76964047D02*
X86211905Y-77154523D01*
X86211905Y-77154523D02*
X86259524Y-77249761D01*
X86259524Y-77249761D02*
X86354762Y-77345000D01*
X86354762Y-77345000D02*
X86497619Y-77392619D01*
X86497619Y-77392619D02*
X86592857Y-77392619D01*
X86592857Y-77392619D02*
X86735714Y-77345000D01*
X86735714Y-77345000D02*
X86783333Y-77297380D01*
X86783333Y-77297380D02*
X86783333Y-76964047D01*
X86783333Y-76964047D02*
X86592857Y-76964047D01*
X87211905Y-77392619D02*
X87211905Y-76392619D01*
X87211905Y-76392619D02*
X87592857Y-76392619D01*
X87592857Y-76392619D02*
X87688095Y-76440238D01*
X87688095Y-76440238D02*
X87735714Y-76487857D01*
X87735714Y-76487857D02*
X87783333Y-76583095D01*
X87783333Y-76583095D02*
X87783333Y-76725952D01*
X87783333Y-76725952D02*
X87735714Y-76821190D01*
X87735714Y-76821190D02*
X87688095Y-76868809D01*
X87688095Y-76868809D02*
X87592857Y-76916428D01*
X87592857Y-76916428D02*
X87211905Y-76916428D01*
X88164286Y-77345000D02*
X88307143Y-77392619D01*
X88307143Y-77392619D02*
X88545238Y-77392619D01*
X88545238Y-77392619D02*
X88640476Y-77345000D01*
X88640476Y-77345000D02*
X88688095Y-77297380D01*
X88688095Y-77297380D02*
X88735714Y-77202142D01*
X88735714Y-77202142D02*
X88735714Y-77106904D01*
X88735714Y-77106904D02*
X88688095Y-77011666D01*
X88688095Y-77011666D02*
X88640476Y-76964047D01*
X88640476Y-76964047D02*
X88545238Y-76916428D01*
X88545238Y-76916428D02*
X88354762Y-76868809D01*
X88354762Y-76868809D02*
X88259524Y-76821190D01*
X88259524Y-76821190D02*
X88211905Y-76773571D01*
X88211905Y-76773571D02*
X88164286Y-76678333D01*
X88164286Y-76678333D02*
X88164286Y-76583095D01*
X88164286Y-76583095D02*
X88211905Y-76487857D01*
X88211905Y-76487857D02*
X88259524Y-76440238D01*
X88259524Y-76440238D02*
X88354762Y-76392619D01*
X88354762Y-76392619D02*
X88592857Y-76392619D01*
X88592857Y-76392619D02*
X88735714Y-76440238D01*
%TO.C,En*%
X121443333Y-81788809D02*
X121776666Y-81788809D01*
X121919523Y-82312619D02*
X121443333Y-82312619D01*
X121443333Y-82312619D02*
X121443333Y-81312619D01*
X121443333Y-81312619D02*
X121919523Y-81312619D01*
X122348095Y-81645952D02*
X122348095Y-82312619D01*
X122348095Y-81741190D02*
X122395714Y-81693571D01*
X122395714Y-81693571D02*
X122490952Y-81645952D01*
X122490952Y-81645952D02*
X122633809Y-81645952D01*
X122633809Y-81645952D02*
X122729047Y-81693571D01*
X122729047Y-81693571D02*
X122776666Y-81788809D01*
X122776666Y-81788809D02*
X122776666Y-82312619D01*
%TO.C,Oled*%
X89301904Y-56092619D02*
X89492380Y-56092619D01*
X89492380Y-56092619D02*
X89587618Y-56140238D01*
X89587618Y-56140238D02*
X89682856Y-56235476D01*
X89682856Y-56235476D02*
X89730475Y-56425952D01*
X89730475Y-56425952D02*
X89730475Y-56759285D01*
X89730475Y-56759285D02*
X89682856Y-56949761D01*
X89682856Y-56949761D02*
X89587618Y-57045000D01*
X89587618Y-57045000D02*
X89492380Y-57092619D01*
X89492380Y-57092619D02*
X89301904Y-57092619D01*
X89301904Y-57092619D02*
X89206666Y-57045000D01*
X89206666Y-57045000D02*
X89111428Y-56949761D01*
X89111428Y-56949761D02*
X89063809Y-56759285D01*
X89063809Y-56759285D02*
X89063809Y-56425952D01*
X89063809Y-56425952D02*
X89111428Y-56235476D01*
X89111428Y-56235476D02*
X89206666Y-56140238D01*
X89206666Y-56140238D02*
X89301904Y-56092619D01*
X90301904Y-57092619D02*
X90206666Y-57045000D01*
X90206666Y-57045000D02*
X90159047Y-56949761D01*
X90159047Y-56949761D02*
X90159047Y-56092619D01*
X91063809Y-57045000D02*
X90968571Y-57092619D01*
X90968571Y-57092619D02*
X90778095Y-57092619D01*
X90778095Y-57092619D02*
X90682857Y-57045000D01*
X90682857Y-57045000D02*
X90635238Y-56949761D01*
X90635238Y-56949761D02*
X90635238Y-56568809D01*
X90635238Y-56568809D02*
X90682857Y-56473571D01*
X90682857Y-56473571D02*
X90778095Y-56425952D01*
X90778095Y-56425952D02*
X90968571Y-56425952D01*
X90968571Y-56425952D02*
X91063809Y-56473571D01*
X91063809Y-56473571D02*
X91111428Y-56568809D01*
X91111428Y-56568809D02*
X91111428Y-56664047D01*
X91111428Y-56664047D02*
X90635238Y-56759285D01*
X91968571Y-57092619D02*
X91968571Y-56092619D01*
X91968571Y-57045000D02*
X91873333Y-57092619D01*
X91873333Y-57092619D02*
X91682857Y-57092619D01*
X91682857Y-57092619D02*
X91587619Y-57045000D01*
X91587619Y-57045000D02*
X91540000Y-56997380D01*
X91540000Y-56997380D02*
X91492381Y-56902142D01*
X91492381Y-56902142D02*
X91492381Y-56616428D01*
X91492381Y-56616428D02*
X91540000Y-56521190D01*
X91540000Y-56521190D02*
X91587619Y-56473571D01*
X91587619Y-56473571D02*
X91682857Y-56425952D01*
X91682857Y-56425952D02*
X91873333Y-56425952D01*
X91873333Y-56425952D02*
X91968571Y-56473571D01*
D10*
X87922380Y-65184000D02*
X88036666Y-65222095D01*
X88036666Y-65222095D02*
X88227142Y-65222095D01*
X88227142Y-65222095D02*
X88303333Y-65184000D01*
X88303333Y-65184000D02*
X88341428Y-65145904D01*
X88341428Y-65145904D02*
X88379523Y-65069714D01*
X88379523Y-65069714D02*
X88379523Y-64993523D01*
X88379523Y-64993523D02*
X88341428Y-64917333D01*
X88341428Y-64917333D02*
X88303333Y-64879238D01*
X88303333Y-64879238D02*
X88227142Y-64841142D01*
X88227142Y-64841142D02*
X88074761Y-64803047D01*
X88074761Y-64803047D02*
X87998571Y-64764952D01*
X87998571Y-64764952D02*
X87960476Y-64726857D01*
X87960476Y-64726857D02*
X87922380Y-64650666D01*
X87922380Y-64650666D02*
X87922380Y-64574476D01*
X87922380Y-64574476D02*
X87960476Y-64498285D01*
X87960476Y-64498285D02*
X87998571Y-64460190D01*
X87998571Y-64460190D02*
X88074761Y-64422095D01*
X88074761Y-64422095D02*
X88265238Y-64422095D01*
X88265238Y-64422095D02*
X88379523Y-64460190D01*
X89179524Y-65145904D02*
X89141428Y-65184000D01*
X89141428Y-65184000D02*
X89027143Y-65222095D01*
X89027143Y-65222095D02*
X88950952Y-65222095D01*
X88950952Y-65222095D02*
X88836666Y-65184000D01*
X88836666Y-65184000D02*
X88760476Y-65107809D01*
X88760476Y-65107809D02*
X88722381Y-65031619D01*
X88722381Y-65031619D02*
X88684285Y-64879238D01*
X88684285Y-64879238D02*
X88684285Y-64764952D01*
X88684285Y-64764952D02*
X88722381Y-64612571D01*
X88722381Y-64612571D02*
X88760476Y-64536380D01*
X88760476Y-64536380D02*
X88836666Y-64460190D01*
X88836666Y-64460190D02*
X88950952Y-64422095D01*
X88950952Y-64422095D02*
X89027143Y-64422095D01*
X89027143Y-64422095D02*
X89141428Y-64460190D01*
X89141428Y-64460190D02*
X89179524Y-64498285D01*
X89903333Y-65222095D02*
X89522381Y-65222095D01*
X89522381Y-65222095D02*
X89522381Y-64422095D01*
X93449523Y-64450190D02*
X93373333Y-64412095D01*
X93373333Y-64412095D02*
X93259047Y-64412095D01*
X93259047Y-64412095D02*
X93144761Y-64450190D01*
X93144761Y-64450190D02*
X93068571Y-64526380D01*
X93068571Y-64526380D02*
X93030476Y-64602571D01*
X93030476Y-64602571D02*
X92992380Y-64754952D01*
X92992380Y-64754952D02*
X92992380Y-64869238D01*
X92992380Y-64869238D02*
X93030476Y-65021619D01*
X93030476Y-65021619D02*
X93068571Y-65097809D01*
X93068571Y-65097809D02*
X93144761Y-65174000D01*
X93144761Y-65174000D02*
X93259047Y-65212095D01*
X93259047Y-65212095D02*
X93335238Y-65212095D01*
X93335238Y-65212095D02*
X93449523Y-65174000D01*
X93449523Y-65174000D02*
X93487619Y-65135904D01*
X93487619Y-65135904D02*
X93487619Y-64869238D01*
X93487619Y-64869238D02*
X93335238Y-64869238D01*
X93830476Y-65212095D02*
X93830476Y-64412095D01*
X93830476Y-64412095D02*
X94287619Y-65212095D01*
X94287619Y-65212095D02*
X94287619Y-64412095D01*
X94668571Y-65212095D02*
X94668571Y-64412095D01*
X94668571Y-64412095D02*
X94859047Y-64412095D01*
X94859047Y-64412095D02*
X94973333Y-64450190D01*
X94973333Y-64450190D02*
X95049523Y-64526380D01*
X95049523Y-64526380D02*
X95087618Y-64602571D01*
X95087618Y-64602571D02*
X95125714Y-64754952D01*
X95125714Y-64754952D02*
X95125714Y-64869238D01*
X95125714Y-64869238D02*
X95087618Y-65021619D01*
X95087618Y-65021619D02*
X95049523Y-65097809D01*
X95049523Y-65097809D02*
X94973333Y-65174000D01*
X94973333Y-65174000D02*
X94859047Y-65212095D01*
X94859047Y-65212095D02*
X94668571Y-65212095D01*
X85512380Y-65194000D02*
X85626666Y-65232095D01*
X85626666Y-65232095D02*
X85817142Y-65232095D01*
X85817142Y-65232095D02*
X85893333Y-65194000D01*
X85893333Y-65194000D02*
X85931428Y-65155904D01*
X85931428Y-65155904D02*
X85969523Y-65079714D01*
X85969523Y-65079714D02*
X85969523Y-65003523D01*
X85969523Y-65003523D02*
X85931428Y-64927333D01*
X85931428Y-64927333D02*
X85893333Y-64889238D01*
X85893333Y-64889238D02*
X85817142Y-64851142D01*
X85817142Y-64851142D02*
X85664761Y-64813047D01*
X85664761Y-64813047D02*
X85588571Y-64774952D01*
X85588571Y-64774952D02*
X85550476Y-64736857D01*
X85550476Y-64736857D02*
X85512380Y-64660666D01*
X85512380Y-64660666D02*
X85512380Y-64584476D01*
X85512380Y-64584476D02*
X85550476Y-64508285D01*
X85550476Y-64508285D02*
X85588571Y-64470190D01*
X85588571Y-64470190D02*
X85664761Y-64432095D01*
X85664761Y-64432095D02*
X85855238Y-64432095D01*
X85855238Y-64432095D02*
X85969523Y-64470190D01*
X86312381Y-65232095D02*
X86312381Y-64432095D01*
X86312381Y-64432095D02*
X86502857Y-64432095D01*
X86502857Y-64432095D02*
X86617143Y-64470190D01*
X86617143Y-64470190D02*
X86693333Y-64546380D01*
X86693333Y-64546380D02*
X86731428Y-64622571D01*
X86731428Y-64622571D02*
X86769524Y-64774952D01*
X86769524Y-64774952D02*
X86769524Y-64889238D01*
X86769524Y-64889238D02*
X86731428Y-65041619D01*
X86731428Y-65041619D02*
X86693333Y-65117809D01*
X86693333Y-65117809D02*
X86617143Y-65194000D01*
X86617143Y-65194000D02*
X86502857Y-65232095D01*
X86502857Y-65232095D02*
X86312381Y-65232095D01*
X87074285Y-65003523D02*
X87455238Y-65003523D01*
X86998095Y-65232095D02*
X87264762Y-64432095D01*
X87264762Y-64432095D02*
X87531428Y-65232095D01*
X90494285Y-64452095D02*
X90989523Y-64452095D01*
X90989523Y-64452095D02*
X90722857Y-64756857D01*
X90722857Y-64756857D02*
X90837142Y-64756857D01*
X90837142Y-64756857D02*
X90913333Y-64794952D01*
X90913333Y-64794952D02*
X90951428Y-64833047D01*
X90951428Y-64833047D02*
X90989523Y-64909238D01*
X90989523Y-64909238D02*
X90989523Y-65099714D01*
X90989523Y-65099714D02*
X90951428Y-65175904D01*
X90951428Y-65175904D02*
X90913333Y-65214000D01*
X90913333Y-65214000D02*
X90837142Y-65252095D01*
X90837142Y-65252095D02*
X90608571Y-65252095D01*
X90608571Y-65252095D02*
X90532380Y-65214000D01*
X90532380Y-65214000D02*
X90494285Y-65175904D01*
X91218095Y-64452095D02*
X91484762Y-65252095D01*
X91484762Y-65252095D02*
X91751428Y-64452095D01*
X91941904Y-64452095D02*
X92437142Y-64452095D01*
X92437142Y-64452095D02*
X92170476Y-64756857D01*
X92170476Y-64756857D02*
X92284761Y-64756857D01*
X92284761Y-64756857D02*
X92360952Y-64794952D01*
X92360952Y-64794952D02*
X92399047Y-64833047D01*
X92399047Y-64833047D02*
X92437142Y-64909238D01*
X92437142Y-64909238D02*
X92437142Y-65099714D01*
X92437142Y-65099714D02*
X92399047Y-65175904D01*
X92399047Y-65175904D02*
X92360952Y-65214000D01*
X92360952Y-65214000D02*
X92284761Y-65252095D01*
X92284761Y-65252095D02*
X92056190Y-65252095D01*
X92056190Y-65252095D02*
X91979999Y-65214000D01*
X91979999Y-65214000D02*
X91941904Y-65175904D01*
D13*
%TO.C,C3*%
X77446267Y-75610000D02*
X77153733Y-75610000D01*
X77446267Y-74590000D02*
X77153733Y-74590000D01*
%TO.C,C9*%
X77446267Y-74010000D02*
X77153733Y-74010000D01*
X77446267Y-72990000D02*
X77153733Y-72990000D01*
%TO.C,C8*%
X77446267Y-72410000D02*
X77153733Y-72410000D01*
X77446267Y-71390000D02*
X77153733Y-71390000D01*
%TO.C,R4*%
X77554724Y-69077500D02*
X77045276Y-69077500D01*
X77554724Y-70122500D02*
X77045276Y-70122500D01*
%TO.C,C4*%
X77446267Y-77210000D02*
X77153733Y-77210000D01*
X77446267Y-76190000D02*
X77153733Y-76190000D01*
%TO.C,J1*%
X66925000Y-67595000D02*
X66025000Y-67595000D01*
X63325000Y-67595000D02*
X60595000Y-67595000D01*
X70005000Y-58525000D02*
X70005000Y-67475000D01*
X66925000Y-58405000D02*
X66025000Y-58405000D01*
X63325000Y-58405000D02*
X60595000Y-58405000D01*
X60595000Y-58405000D02*
X60595000Y-67595000D01*
%TD*%
M02*
