%TF.GenerationSoftware,KiCad,Pcbnew,7.0.2-1.fc38*%
%TF.CreationDate,2023-06-09T15:19:36+02:00*%
%TF.ProjectId,gps_compass,6770735f-636f-46d7-9061-73732e6b6963,rev?*%
%TF.SameCoordinates,Original*%
%TF.FileFunction,Legend,Bot*%
%TF.FilePolarity,Positive*%
%FSLAX46Y46*%
G04 Gerber Fmt 4.6, Leading zero omitted, Abs format (unit mm)*
G04 Created by KiCad (PCBNEW 7.0.2-1.fc38) date 2023-06-09 15:19:36*
%MOMM*%
%LPD*%
G01*
G04 APERTURE LIST*
%ADD10C,0.100000*%
%ADD11C,0.150000*%
%ADD12C,0.120000*%
G04 APERTURE END LIST*
D10*
X69740190Y-55209523D02*
X69702095Y-55133333D01*
X69702095Y-55133333D02*
X69702095Y-55019047D01*
X69702095Y-55019047D02*
X69740190Y-54904761D01*
X69740190Y-54904761D02*
X69816380Y-54828571D01*
X69816380Y-54828571D02*
X69892571Y-54790476D01*
X69892571Y-54790476D02*
X70044952Y-54752380D01*
X70044952Y-54752380D02*
X70159238Y-54752380D01*
X70159238Y-54752380D02*
X70311619Y-54790476D01*
X70311619Y-54790476D02*
X70387809Y-54828571D01*
X70387809Y-54828571D02*
X70464000Y-54904761D01*
X70464000Y-54904761D02*
X70502095Y-55019047D01*
X70502095Y-55019047D02*
X70502095Y-55095238D01*
X70502095Y-55095238D02*
X70464000Y-55209523D01*
X70464000Y-55209523D02*
X70425904Y-55247619D01*
X70425904Y-55247619D02*
X70159238Y-55247619D01*
X70159238Y-55247619D02*
X70159238Y-55095238D01*
X70502095Y-55590476D02*
X69702095Y-55590476D01*
X69702095Y-55590476D02*
X70502095Y-56047619D01*
X70502095Y-56047619D02*
X69702095Y-56047619D01*
X70502095Y-56428571D02*
X69702095Y-56428571D01*
X69702095Y-56428571D02*
X69702095Y-56619047D01*
X69702095Y-56619047D02*
X69740190Y-56733333D01*
X69740190Y-56733333D02*
X69816380Y-56809523D01*
X69816380Y-56809523D02*
X69892571Y-56847618D01*
X69892571Y-56847618D02*
X70044952Y-56885714D01*
X70044952Y-56885714D02*
X70159238Y-56885714D01*
X70159238Y-56885714D02*
X70311619Y-56847618D01*
X70311619Y-56847618D02*
X70387809Y-56809523D01*
X70387809Y-56809523D02*
X70464000Y-56733333D01*
X70464000Y-56733333D02*
X70502095Y-56619047D01*
X70502095Y-56619047D02*
X70502095Y-56428571D01*
X70502095Y-53047619D02*
X70121142Y-52780952D01*
X70502095Y-52590476D02*
X69702095Y-52590476D01*
X69702095Y-52590476D02*
X69702095Y-52895238D01*
X69702095Y-52895238D02*
X69740190Y-52971428D01*
X69740190Y-52971428D02*
X69778285Y-53009523D01*
X69778285Y-53009523D02*
X69854476Y-53047619D01*
X69854476Y-53047619D02*
X69968761Y-53047619D01*
X69968761Y-53047619D02*
X70044952Y-53009523D01*
X70044952Y-53009523D02*
X70083047Y-52971428D01*
X70083047Y-52971428D02*
X70121142Y-52895238D01*
X70121142Y-52895238D02*
X70121142Y-52590476D01*
X69702095Y-53314285D02*
X70502095Y-53847619D01*
X69702095Y-53847619D02*
X70502095Y-53314285D01*
X69702095Y-50076190D02*
X69702095Y-50533333D01*
X70502095Y-50304761D02*
X69702095Y-50304761D01*
X69702095Y-50723809D02*
X70502095Y-51257143D01*
X69702095Y-51257143D02*
X70502095Y-50723809D01*
X93895238Y-46102095D02*
X93971428Y-46064000D01*
X93971428Y-46064000D02*
X94009523Y-46025904D01*
X94009523Y-46025904D02*
X94047619Y-45949714D01*
X94047619Y-45949714D02*
X94047619Y-45721142D01*
X94047619Y-45721142D02*
X94009523Y-45644952D01*
X94009523Y-45644952D02*
X93971428Y-45606857D01*
X93971428Y-45606857D02*
X93895238Y-45568761D01*
X93895238Y-45568761D02*
X93780952Y-45568761D01*
X93780952Y-45568761D02*
X93704761Y-45606857D01*
X93704761Y-45606857D02*
X93666666Y-45644952D01*
X93666666Y-45644952D02*
X93628571Y-45721142D01*
X93628571Y-45721142D02*
X93628571Y-45949714D01*
X93628571Y-45949714D02*
X93666666Y-46025904D01*
X93666666Y-46025904D02*
X93704761Y-46064000D01*
X93704761Y-46064000D02*
X93780952Y-46102095D01*
X93780952Y-46102095D02*
X93895238Y-46102095D01*
X93399999Y-45568761D02*
X93095237Y-45568761D01*
X93285713Y-46102095D02*
X93285713Y-45416380D01*
X93285713Y-45416380D02*
X93247618Y-45340190D01*
X93247618Y-45340190D02*
X93171428Y-45302095D01*
X93171428Y-45302095D02*
X93095237Y-45302095D01*
X92942856Y-45568761D02*
X92638094Y-45568761D01*
X92828570Y-46102095D02*
X92828570Y-45416380D01*
X92828570Y-45416380D02*
X92790475Y-45340190D01*
X92790475Y-45340190D02*
X92714285Y-45302095D01*
X92714285Y-45302095D02*
X92638094Y-45302095D01*
X91647618Y-46102095D02*
X91723808Y-46064000D01*
X91723808Y-46064000D02*
X91761903Y-46025904D01*
X91761903Y-46025904D02*
X91799999Y-45949714D01*
X91799999Y-45949714D02*
X91799999Y-45721142D01*
X91799999Y-45721142D02*
X91761903Y-45644952D01*
X91761903Y-45644952D02*
X91723808Y-45606857D01*
X91723808Y-45606857D02*
X91647618Y-45568761D01*
X91647618Y-45568761D02*
X91533332Y-45568761D01*
X91533332Y-45568761D02*
X91457141Y-45606857D01*
X91457141Y-45606857D02*
X91419046Y-45644952D01*
X91419046Y-45644952D02*
X91380951Y-45721142D01*
X91380951Y-45721142D02*
X91380951Y-45949714D01*
X91380951Y-45949714D02*
X91419046Y-46025904D01*
X91419046Y-46025904D02*
X91457141Y-46064000D01*
X91457141Y-46064000D02*
X91533332Y-46102095D01*
X91533332Y-46102095D02*
X91647618Y-46102095D01*
X91038093Y-45568761D02*
X91038093Y-46102095D01*
X91038093Y-45644952D02*
X90999998Y-45606857D01*
X90999998Y-45606857D02*
X90923808Y-45568761D01*
X90923808Y-45568761D02*
X90809522Y-45568761D01*
X90809522Y-45568761D02*
X90733331Y-45606857D01*
X90733331Y-45606857D02*
X90695236Y-45683047D01*
X90695236Y-45683047D02*
X90695236Y-46102095D01*
X85695238Y-45902095D02*
X85771428Y-45864000D01*
X85771428Y-45864000D02*
X85809523Y-45825904D01*
X85809523Y-45825904D02*
X85847619Y-45749714D01*
X85847619Y-45749714D02*
X85847619Y-45521142D01*
X85847619Y-45521142D02*
X85809523Y-45444952D01*
X85809523Y-45444952D02*
X85771428Y-45406857D01*
X85771428Y-45406857D02*
X85695238Y-45368761D01*
X85695238Y-45368761D02*
X85580952Y-45368761D01*
X85580952Y-45368761D02*
X85504761Y-45406857D01*
X85504761Y-45406857D02*
X85466666Y-45444952D01*
X85466666Y-45444952D02*
X85428571Y-45521142D01*
X85428571Y-45521142D02*
X85428571Y-45749714D01*
X85428571Y-45749714D02*
X85466666Y-45825904D01*
X85466666Y-45825904D02*
X85504761Y-45864000D01*
X85504761Y-45864000D02*
X85580952Y-45902095D01*
X85580952Y-45902095D02*
X85695238Y-45902095D01*
X85199999Y-45368761D02*
X84895237Y-45368761D01*
X85085713Y-45902095D02*
X85085713Y-45216380D01*
X85085713Y-45216380D02*
X85047618Y-45140190D01*
X85047618Y-45140190D02*
X84971428Y-45102095D01*
X84971428Y-45102095D02*
X84895237Y-45102095D01*
X84742856Y-45368761D02*
X84438094Y-45368761D01*
X84628570Y-45902095D02*
X84628570Y-45216380D01*
X84628570Y-45216380D02*
X84590475Y-45140190D01*
X84590475Y-45140190D02*
X84514285Y-45102095D01*
X84514285Y-45102095D02*
X84438094Y-45102095D01*
X83447618Y-45902095D02*
X83523808Y-45864000D01*
X83523808Y-45864000D02*
X83561903Y-45825904D01*
X83561903Y-45825904D02*
X83599999Y-45749714D01*
X83599999Y-45749714D02*
X83599999Y-45521142D01*
X83599999Y-45521142D02*
X83561903Y-45444952D01*
X83561903Y-45444952D02*
X83523808Y-45406857D01*
X83523808Y-45406857D02*
X83447618Y-45368761D01*
X83447618Y-45368761D02*
X83333332Y-45368761D01*
X83333332Y-45368761D02*
X83257141Y-45406857D01*
X83257141Y-45406857D02*
X83219046Y-45444952D01*
X83219046Y-45444952D02*
X83180951Y-45521142D01*
X83180951Y-45521142D02*
X83180951Y-45749714D01*
X83180951Y-45749714D02*
X83219046Y-45825904D01*
X83219046Y-45825904D02*
X83257141Y-45864000D01*
X83257141Y-45864000D02*
X83333332Y-45902095D01*
X83333332Y-45902095D02*
X83447618Y-45902095D01*
X82838093Y-45368761D02*
X82838093Y-45902095D01*
X82838093Y-45444952D02*
X82799998Y-45406857D01*
X82799998Y-45406857D02*
X82723808Y-45368761D01*
X82723808Y-45368761D02*
X82609522Y-45368761D01*
X82609522Y-45368761D02*
X82533331Y-45406857D01*
X82533331Y-45406857D02*
X82495236Y-45483047D01*
X82495236Y-45483047D02*
X82495236Y-45902095D01*
D11*
X104761904Y-81857619D02*
X104761904Y-80857619D01*
X104761904Y-80857619D02*
X104523809Y-80857619D01*
X104523809Y-80857619D02*
X104380952Y-80905238D01*
X104380952Y-80905238D02*
X104285714Y-81000476D01*
X104285714Y-81000476D02*
X104238095Y-81095714D01*
X104238095Y-81095714D02*
X104190476Y-81286190D01*
X104190476Y-81286190D02*
X104190476Y-81429047D01*
X104190476Y-81429047D02*
X104238095Y-81619523D01*
X104238095Y-81619523D02*
X104285714Y-81714761D01*
X104285714Y-81714761D02*
X104380952Y-81810000D01*
X104380952Y-81810000D02*
X104523809Y-81857619D01*
X104523809Y-81857619D02*
X104761904Y-81857619D01*
X103333333Y-81857619D02*
X103333333Y-81333809D01*
X103333333Y-81333809D02*
X103380952Y-81238571D01*
X103380952Y-81238571D02*
X103476190Y-81190952D01*
X103476190Y-81190952D02*
X103666666Y-81190952D01*
X103666666Y-81190952D02*
X103761904Y-81238571D01*
X103333333Y-81810000D02*
X103428571Y-81857619D01*
X103428571Y-81857619D02*
X103666666Y-81857619D01*
X103666666Y-81857619D02*
X103761904Y-81810000D01*
X103761904Y-81810000D02*
X103809523Y-81714761D01*
X103809523Y-81714761D02*
X103809523Y-81619523D01*
X103809523Y-81619523D02*
X103761904Y-81524285D01*
X103761904Y-81524285D02*
X103666666Y-81476666D01*
X103666666Y-81476666D02*
X103428571Y-81476666D01*
X103428571Y-81476666D02*
X103333333Y-81429047D01*
X102428571Y-81857619D02*
X102428571Y-80857619D01*
X102428571Y-81810000D02*
X102523809Y-81857619D01*
X102523809Y-81857619D02*
X102714285Y-81857619D01*
X102714285Y-81857619D02*
X102809523Y-81810000D01*
X102809523Y-81810000D02*
X102857142Y-81762380D01*
X102857142Y-81762380D02*
X102904761Y-81667142D01*
X102904761Y-81667142D02*
X102904761Y-81381428D01*
X102904761Y-81381428D02*
X102857142Y-81286190D01*
X102857142Y-81286190D02*
X102809523Y-81238571D01*
X102809523Y-81238571D02*
X102714285Y-81190952D01*
X102714285Y-81190952D02*
X102523809Y-81190952D01*
X102523809Y-81190952D02*
X102428571Y-81238571D01*
X101571428Y-81810000D02*
X101666666Y-81857619D01*
X101666666Y-81857619D02*
X101857142Y-81857619D01*
X101857142Y-81857619D02*
X101952380Y-81810000D01*
X101952380Y-81810000D02*
X101999999Y-81714761D01*
X101999999Y-81714761D02*
X101999999Y-81333809D01*
X101999999Y-81333809D02*
X101952380Y-81238571D01*
X101952380Y-81238571D02*
X101857142Y-81190952D01*
X101857142Y-81190952D02*
X101666666Y-81190952D01*
X101666666Y-81190952D02*
X101571428Y-81238571D01*
X101571428Y-81238571D02*
X101523809Y-81333809D01*
X101523809Y-81333809D02*
X101523809Y-81429047D01*
X101523809Y-81429047D02*
X101999999Y-81524285D01*
X101190475Y-80857619D02*
X100571428Y-80857619D01*
X100571428Y-80857619D02*
X100904761Y-81238571D01*
X100904761Y-81238571D02*
X100761904Y-81238571D01*
X100761904Y-81238571D02*
X100666666Y-81286190D01*
X100666666Y-81286190D02*
X100619047Y-81333809D01*
X100619047Y-81333809D02*
X100571428Y-81429047D01*
X100571428Y-81429047D02*
X100571428Y-81667142D01*
X100571428Y-81667142D02*
X100619047Y-81762380D01*
X100619047Y-81762380D02*
X100666666Y-81810000D01*
X100666666Y-81810000D02*
X100761904Y-81857619D01*
X100761904Y-81857619D02*
X101047618Y-81857619D01*
X101047618Y-81857619D02*
X101142856Y-81810000D01*
X101142856Y-81810000D02*
X101190475Y-81762380D01*
X99761904Y-81810000D02*
X99857142Y-81857619D01*
X99857142Y-81857619D02*
X100047618Y-81857619D01*
X100047618Y-81857619D02*
X100142856Y-81810000D01*
X100142856Y-81810000D02*
X100190475Y-81714761D01*
X100190475Y-81714761D02*
X100190475Y-81333809D01*
X100190475Y-81333809D02*
X100142856Y-81238571D01*
X100142856Y-81238571D02*
X100047618Y-81190952D01*
X100047618Y-81190952D02*
X99857142Y-81190952D01*
X99857142Y-81190952D02*
X99761904Y-81238571D01*
X99761904Y-81238571D02*
X99714285Y-81333809D01*
X99714285Y-81333809D02*
X99714285Y-81429047D01*
X99714285Y-81429047D02*
X100190475Y-81524285D01*
X98571427Y-80952857D02*
X98523808Y-80905238D01*
X98523808Y-80905238D02*
X98428570Y-80857619D01*
X98428570Y-80857619D02*
X98190475Y-80857619D01*
X98190475Y-80857619D02*
X98095237Y-80905238D01*
X98095237Y-80905238D02*
X98047618Y-80952857D01*
X98047618Y-80952857D02*
X97999999Y-81048095D01*
X97999999Y-81048095D02*
X97999999Y-81143333D01*
X97999999Y-81143333D02*
X98047618Y-81286190D01*
X98047618Y-81286190D02*
X98619046Y-81857619D01*
X98619046Y-81857619D02*
X97999999Y-81857619D01*
X97380951Y-80857619D02*
X97285713Y-80857619D01*
X97285713Y-80857619D02*
X97190475Y-80905238D01*
X97190475Y-80905238D02*
X97142856Y-80952857D01*
X97142856Y-80952857D02*
X97095237Y-81048095D01*
X97095237Y-81048095D02*
X97047618Y-81238571D01*
X97047618Y-81238571D02*
X97047618Y-81476666D01*
X97047618Y-81476666D02*
X97095237Y-81667142D01*
X97095237Y-81667142D02*
X97142856Y-81762380D01*
X97142856Y-81762380D02*
X97190475Y-81810000D01*
X97190475Y-81810000D02*
X97285713Y-81857619D01*
X97285713Y-81857619D02*
X97380951Y-81857619D01*
X97380951Y-81857619D02*
X97476189Y-81810000D01*
X97476189Y-81810000D02*
X97523808Y-81762380D01*
X97523808Y-81762380D02*
X97571427Y-81667142D01*
X97571427Y-81667142D02*
X97619046Y-81476666D01*
X97619046Y-81476666D02*
X97619046Y-81238571D01*
X97619046Y-81238571D02*
X97571427Y-81048095D01*
X97571427Y-81048095D02*
X97523808Y-80952857D01*
X97523808Y-80952857D02*
X97476189Y-80905238D01*
X97476189Y-80905238D02*
X97380951Y-80857619D01*
X96666665Y-80952857D02*
X96619046Y-80905238D01*
X96619046Y-80905238D02*
X96523808Y-80857619D01*
X96523808Y-80857619D02*
X96285713Y-80857619D01*
X96285713Y-80857619D02*
X96190475Y-80905238D01*
X96190475Y-80905238D02*
X96142856Y-80952857D01*
X96142856Y-80952857D02*
X96095237Y-81048095D01*
X96095237Y-81048095D02*
X96095237Y-81143333D01*
X96095237Y-81143333D02*
X96142856Y-81286190D01*
X96142856Y-81286190D02*
X96714284Y-81857619D01*
X96714284Y-81857619D02*
X96095237Y-81857619D01*
X95761903Y-80857619D02*
X95142856Y-80857619D01*
X95142856Y-80857619D02*
X95476189Y-81238571D01*
X95476189Y-81238571D02*
X95333332Y-81238571D01*
X95333332Y-81238571D02*
X95238094Y-81286190D01*
X95238094Y-81286190D02*
X95190475Y-81333809D01*
X95190475Y-81333809D02*
X95142856Y-81429047D01*
X95142856Y-81429047D02*
X95142856Y-81667142D01*
X95142856Y-81667142D02*
X95190475Y-81762380D01*
X95190475Y-81762380D02*
X95238094Y-81810000D01*
X95238094Y-81810000D02*
X95333332Y-81857619D01*
X95333332Y-81857619D02*
X95619046Y-81857619D01*
X95619046Y-81857619D02*
X95714284Y-81810000D01*
X95714284Y-81810000D02*
X95761903Y-81762380D01*
X104761904Y-82953809D02*
X104428571Y-82953809D01*
X104285714Y-83477619D02*
X104761904Y-83477619D01*
X104761904Y-83477619D02*
X104761904Y-82477619D01*
X104761904Y-82477619D02*
X104285714Y-82477619D01*
X103904761Y-83430000D02*
X103809523Y-83477619D01*
X103809523Y-83477619D02*
X103619047Y-83477619D01*
X103619047Y-83477619D02*
X103523809Y-83430000D01*
X103523809Y-83430000D02*
X103476190Y-83334761D01*
X103476190Y-83334761D02*
X103476190Y-83287142D01*
X103476190Y-83287142D02*
X103523809Y-83191904D01*
X103523809Y-83191904D02*
X103619047Y-83144285D01*
X103619047Y-83144285D02*
X103761904Y-83144285D01*
X103761904Y-83144285D02*
X103857142Y-83096666D01*
X103857142Y-83096666D02*
X103904761Y-83001428D01*
X103904761Y-83001428D02*
X103904761Y-82953809D01*
X103904761Y-82953809D02*
X103857142Y-82858571D01*
X103857142Y-82858571D02*
X103761904Y-82810952D01*
X103761904Y-82810952D02*
X103619047Y-82810952D01*
X103619047Y-82810952D02*
X103523809Y-82858571D01*
X103047618Y-82810952D02*
X103047618Y-83810952D01*
X103047618Y-82858571D02*
X102952380Y-82810952D01*
X102952380Y-82810952D02*
X102761904Y-82810952D01*
X102761904Y-82810952D02*
X102666666Y-82858571D01*
X102666666Y-82858571D02*
X102619047Y-82906190D01*
X102619047Y-82906190D02*
X102571428Y-83001428D01*
X102571428Y-83001428D02*
X102571428Y-83287142D01*
X102571428Y-83287142D02*
X102619047Y-83382380D01*
X102619047Y-83382380D02*
X102666666Y-83430000D01*
X102666666Y-83430000D02*
X102761904Y-83477619D01*
X102761904Y-83477619D02*
X102952380Y-83477619D01*
X102952380Y-83477619D02*
X103047618Y-83430000D01*
X102238094Y-82477619D02*
X101619047Y-82477619D01*
X101619047Y-82477619D02*
X101952380Y-82858571D01*
X101952380Y-82858571D02*
X101809523Y-82858571D01*
X101809523Y-82858571D02*
X101714285Y-82906190D01*
X101714285Y-82906190D02*
X101666666Y-82953809D01*
X101666666Y-82953809D02*
X101619047Y-83049047D01*
X101619047Y-83049047D02*
X101619047Y-83287142D01*
X101619047Y-83287142D02*
X101666666Y-83382380D01*
X101666666Y-83382380D02*
X101714285Y-83430000D01*
X101714285Y-83430000D02*
X101809523Y-83477619D01*
X101809523Y-83477619D02*
X102095237Y-83477619D01*
X102095237Y-83477619D02*
X102190475Y-83430000D01*
X102190475Y-83430000D02*
X102238094Y-83382380D01*
X101238094Y-82572857D02*
X101190475Y-82525238D01*
X101190475Y-82525238D02*
X101095237Y-82477619D01*
X101095237Y-82477619D02*
X100857142Y-82477619D01*
X100857142Y-82477619D02*
X100761904Y-82525238D01*
X100761904Y-82525238D02*
X100714285Y-82572857D01*
X100714285Y-82572857D02*
X100666666Y-82668095D01*
X100666666Y-82668095D02*
X100666666Y-82763333D01*
X100666666Y-82763333D02*
X100714285Y-82906190D01*
X100714285Y-82906190D02*
X101285713Y-83477619D01*
X101285713Y-83477619D02*
X100666666Y-83477619D01*
X98952380Y-82525238D02*
X99047618Y-82477619D01*
X99047618Y-82477619D02*
X99190475Y-82477619D01*
X99190475Y-82477619D02*
X99333332Y-82525238D01*
X99333332Y-82525238D02*
X99428570Y-82620476D01*
X99428570Y-82620476D02*
X99476189Y-82715714D01*
X99476189Y-82715714D02*
X99523808Y-82906190D01*
X99523808Y-82906190D02*
X99523808Y-83049047D01*
X99523808Y-83049047D02*
X99476189Y-83239523D01*
X99476189Y-83239523D02*
X99428570Y-83334761D01*
X99428570Y-83334761D02*
X99333332Y-83430000D01*
X99333332Y-83430000D02*
X99190475Y-83477619D01*
X99190475Y-83477619D02*
X99095237Y-83477619D01*
X99095237Y-83477619D02*
X98952380Y-83430000D01*
X98952380Y-83430000D02*
X98904761Y-83382380D01*
X98904761Y-83382380D02*
X98904761Y-83049047D01*
X98904761Y-83049047D02*
X99095237Y-83049047D01*
X98476189Y-82810952D02*
X98476189Y-83810952D01*
X98476189Y-82858571D02*
X98380951Y-82810952D01*
X98380951Y-82810952D02*
X98190475Y-82810952D01*
X98190475Y-82810952D02*
X98095237Y-82858571D01*
X98095237Y-82858571D02*
X98047618Y-82906190D01*
X98047618Y-82906190D02*
X97999999Y-83001428D01*
X97999999Y-83001428D02*
X97999999Y-83287142D01*
X97999999Y-83287142D02*
X98047618Y-83382380D01*
X98047618Y-83382380D02*
X98095237Y-83430000D01*
X98095237Y-83430000D02*
X98190475Y-83477619D01*
X98190475Y-83477619D02*
X98380951Y-83477619D01*
X98380951Y-83477619D02*
X98476189Y-83430000D01*
X97619046Y-83430000D02*
X97523808Y-83477619D01*
X97523808Y-83477619D02*
X97333332Y-83477619D01*
X97333332Y-83477619D02*
X97238094Y-83430000D01*
X97238094Y-83430000D02*
X97190475Y-83334761D01*
X97190475Y-83334761D02*
X97190475Y-83287142D01*
X97190475Y-83287142D02*
X97238094Y-83191904D01*
X97238094Y-83191904D02*
X97333332Y-83144285D01*
X97333332Y-83144285D02*
X97476189Y-83144285D01*
X97476189Y-83144285D02*
X97571427Y-83096666D01*
X97571427Y-83096666D02*
X97619046Y-83001428D01*
X97619046Y-83001428D02*
X97619046Y-82953809D01*
X97619046Y-82953809D02*
X97571427Y-82858571D01*
X97571427Y-82858571D02*
X97476189Y-82810952D01*
X97476189Y-82810952D02*
X97333332Y-82810952D01*
X97333332Y-82810952D02*
X97238094Y-82858571D01*
X96190475Y-83382380D02*
X96238094Y-83430000D01*
X96238094Y-83430000D02*
X96380951Y-83477619D01*
X96380951Y-83477619D02*
X96476189Y-83477619D01*
X96476189Y-83477619D02*
X96619046Y-83430000D01*
X96619046Y-83430000D02*
X96714284Y-83334761D01*
X96714284Y-83334761D02*
X96761903Y-83239523D01*
X96761903Y-83239523D02*
X96809522Y-83049047D01*
X96809522Y-83049047D02*
X96809522Y-82906190D01*
X96809522Y-82906190D02*
X96761903Y-82715714D01*
X96761903Y-82715714D02*
X96714284Y-82620476D01*
X96714284Y-82620476D02*
X96619046Y-82525238D01*
X96619046Y-82525238D02*
X96476189Y-82477619D01*
X96476189Y-82477619D02*
X96380951Y-82477619D01*
X96380951Y-82477619D02*
X96238094Y-82525238D01*
X96238094Y-82525238D02*
X96190475Y-82572857D01*
X95619046Y-83477619D02*
X95714284Y-83430000D01*
X95714284Y-83430000D02*
X95761903Y-83382380D01*
X95761903Y-83382380D02*
X95809522Y-83287142D01*
X95809522Y-83287142D02*
X95809522Y-83001428D01*
X95809522Y-83001428D02*
X95761903Y-82906190D01*
X95761903Y-82906190D02*
X95714284Y-82858571D01*
X95714284Y-82858571D02*
X95619046Y-82810952D01*
X95619046Y-82810952D02*
X95476189Y-82810952D01*
X95476189Y-82810952D02*
X95380951Y-82858571D01*
X95380951Y-82858571D02*
X95333332Y-82906190D01*
X95333332Y-82906190D02*
X95285713Y-83001428D01*
X95285713Y-83001428D02*
X95285713Y-83287142D01*
X95285713Y-83287142D02*
X95333332Y-83382380D01*
X95333332Y-83382380D02*
X95380951Y-83430000D01*
X95380951Y-83430000D02*
X95476189Y-83477619D01*
X95476189Y-83477619D02*
X95619046Y-83477619D01*
X94857141Y-83477619D02*
X94857141Y-82810952D01*
X94857141Y-82906190D02*
X94809522Y-82858571D01*
X94809522Y-82858571D02*
X94714284Y-82810952D01*
X94714284Y-82810952D02*
X94571427Y-82810952D01*
X94571427Y-82810952D02*
X94476189Y-82858571D01*
X94476189Y-82858571D02*
X94428570Y-82953809D01*
X94428570Y-82953809D02*
X94428570Y-83477619D01*
X94428570Y-82953809D02*
X94380951Y-82858571D01*
X94380951Y-82858571D02*
X94285713Y-82810952D01*
X94285713Y-82810952D02*
X94142856Y-82810952D01*
X94142856Y-82810952D02*
X94047617Y-82858571D01*
X94047617Y-82858571D02*
X93999998Y-82953809D01*
X93999998Y-82953809D02*
X93999998Y-83477619D01*
X93523808Y-82810952D02*
X93523808Y-83810952D01*
X93523808Y-82858571D02*
X93428570Y-82810952D01*
X93428570Y-82810952D02*
X93238094Y-82810952D01*
X93238094Y-82810952D02*
X93142856Y-82858571D01*
X93142856Y-82858571D02*
X93095237Y-82906190D01*
X93095237Y-82906190D02*
X93047618Y-83001428D01*
X93047618Y-83001428D02*
X93047618Y-83287142D01*
X93047618Y-83287142D02*
X93095237Y-83382380D01*
X93095237Y-83382380D02*
X93142856Y-83430000D01*
X93142856Y-83430000D02*
X93238094Y-83477619D01*
X93238094Y-83477619D02*
X93428570Y-83477619D01*
X93428570Y-83477619D02*
X93523808Y-83430000D01*
X92190475Y-83477619D02*
X92190475Y-82953809D01*
X92190475Y-82953809D02*
X92238094Y-82858571D01*
X92238094Y-82858571D02*
X92333332Y-82810952D01*
X92333332Y-82810952D02*
X92523808Y-82810952D01*
X92523808Y-82810952D02*
X92619046Y-82858571D01*
X92190475Y-83430000D02*
X92285713Y-83477619D01*
X92285713Y-83477619D02*
X92523808Y-83477619D01*
X92523808Y-83477619D02*
X92619046Y-83430000D01*
X92619046Y-83430000D02*
X92666665Y-83334761D01*
X92666665Y-83334761D02*
X92666665Y-83239523D01*
X92666665Y-83239523D02*
X92619046Y-83144285D01*
X92619046Y-83144285D02*
X92523808Y-83096666D01*
X92523808Y-83096666D02*
X92285713Y-83096666D01*
X92285713Y-83096666D02*
X92190475Y-83049047D01*
X91761903Y-83430000D02*
X91666665Y-83477619D01*
X91666665Y-83477619D02*
X91476189Y-83477619D01*
X91476189Y-83477619D02*
X91380951Y-83430000D01*
X91380951Y-83430000D02*
X91333332Y-83334761D01*
X91333332Y-83334761D02*
X91333332Y-83287142D01*
X91333332Y-83287142D02*
X91380951Y-83191904D01*
X91380951Y-83191904D02*
X91476189Y-83144285D01*
X91476189Y-83144285D02*
X91619046Y-83144285D01*
X91619046Y-83144285D02*
X91714284Y-83096666D01*
X91714284Y-83096666D02*
X91761903Y-83001428D01*
X91761903Y-83001428D02*
X91761903Y-82953809D01*
X91761903Y-82953809D02*
X91714284Y-82858571D01*
X91714284Y-82858571D02*
X91619046Y-82810952D01*
X91619046Y-82810952D02*
X91476189Y-82810952D01*
X91476189Y-82810952D02*
X91380951Y-82858571D01*
X90952379Y-83430000D02*
X90857141Y-83477619D01*
X90857141Y-83477619D02*
X90666665Y-83477619D01*
X90666665Y-83477619D02*
X90571427Y-83430000D01*
X90571427Y-83430000D02*
X90523808Y-83334761D01*
X90523808Y-83334761D02*
X90523808Y-83287142D01*
X90523808Y-83287142D02*
X90571427Y-83191904D01*
X90571427Y-83191904D02*
X90666665Y-83144285D01*
X90666665Y-83144285D02*
X90809522Y-83144285D01*
X90809522Y-83144285D02*
X90904760Y-83096666D01*
X90904760Y-83096666D02*
X90952379Y-83001428D01*
X90952379Y-83001428D02*
X90952379Y-82953809D01*
X90952379Y-82953809D02*
X90904760Y-82858571D01*
X90904760Y-82858571D02*
X90809522Y-82810952D01*
X90809522Y-82810952D02*
X90666665Y-82810952D01*
X90666665Y-82810952D02*
X90571427Y-82858571D01*
%TO.C,MAIN*%
X79323808Y-43962619D02*
X79323808Y-42962619D01*
X79323808Y-42962619D02*
X78990475Y-43676904D01*
X78990475Y-43676904D02*
X78657142Y-42962619D01*
X78657142Y-42962619D02*
X78657142Y-43962619D01*
X78228570Y-43676904D02*
X77752380Y-43676904D01*
X78323808Y-43962619D02*
X77990475Y-42962619D01*
X77990475Y-42962619D02*
X77657142Y-43962619D01*
X77323808Y-43962619D02*
X77323808Y-42962619D01*
X76847618Y-43962619D02*
X76847618Y-42962619D01*
X76847618Y-42962619D02*
X76276190Y-43962619D01*
X76276190Y-43962619D02*
X76276190Y-42962619D01*
D10*
%TO.C,R8*%
X73470095Y-59366667D02*
X73089142Y-59100000D01*
X73470095Y-58909524D02*
X72670095Y-58909524D01*
X72670095Y-58909524D02*
X72670095Y-59214286D01*
X72670095Y-59214286D02*
X72708190Y-59290476D01*
X72708190Y-59290476D02*
X72746285Y-59328571D01*
X72746285Y-59328571D02*
X72822476Y-59366667D01*
X72822476Y-59366667D02*
X72936761Y-59366667D01*
X72936761Y-59366667D02*
X73012952Y-59328571D01*
X73012952Y-59328571D02*
X73051047Y-59290476D01*
X73051047Y-59290476D02*
X73089142Y-59214286D01*
X73089142Y-59214286D02*
X73089142Y-58909524D01*
X73012952Y-59823809D02*
X72974857Y-59747619D01*
X72974857Y-59747619D02*
X72936761Y-59709524D01*
X72936761Y-59709524D02*
X72860571Y-59671428D01*
X72860571Y-59671428D02*
X72822476Y-59671428D01*
X72822476Y-59671428D02*
X72746285Y-59709524D01*
X72746285Y-59709524D02*
X72708190Y-59747619D01*
X72708190Y-59747619D02*
X72670095Y-59823809D01*
X72670095Y-59823809D02*
X72670095Y-59976190D01*
X72670095Y-59976190D02*
X72708190Y-60052381D01*
X72708190Y-60052381D02*
X72746285Y-60090476D01*
X72746285Y-60090476D02*
X72822476Y-60128571D01*
X72822476Y-60128571D02*
X72860571Y-60128571D01*
X72860571Y-60128571D02*
X72936761Y-60090476D01*
X72936761Y-60090476D02*
X72974857Y-60052381D01*
X72974857Y-60052381D02*
X73012952Y-59976190D01*
X73012952Y-59976190D02*
X73012952Y-59823809D01*
X73012952Y-59823809D02*
X73051047Y-59747619D01*
X73051047Y-59747619D02*
X73089142Y-59709524D01*
X73089142Y-59709524D02*
X73165333Y-59671428D01*
X73165333Y-59671428D02*
X73317714Y-59671428D01*
X73317714Y-59671428D02*
X73393904Y-59709524D01*
X73393904Y-59709524D02*
X73432000Y-59747619D01*
X73432000Y-59747619D02*
X73470095Y-59823809D01*
X73470095Y-59823809D02*
X73470095Y-59976190D01*
X73470095Y-59976190D02*
X73432000Y-60052381D01*
X73432000Y-60052381D02*
X73393904Y-60090476D01*
X73393904Y-60090476D02*
X73317714Y-60128571D01*
X73317714Y-60128571D02*
X73165333Y-60128571D01*
X73165333Y-60128571D02*
X73089142Y-60090476D01*
X73089142Y-60090476D02*
X73051047Y-60052381D01*
X73051047Y-60052381D02*
X73012952Y-59976190D01*
%TO.C,R5*%
X122123332Y-51660095D02*
X122389999Y-51279142D01*
X122580475Y-51660095D02*
X122580475Y-50860095D01*
X122580475Y-50860095D02*
X122275713Y-50860095D01*
X122275713Y-50860095D02*
X122199523Y-50898190D01*
X122199523Y-50898190D02*
X122161428Y-50936285D01*
X122161428Y-50936285D02*
X122123332Y-51012476D01*
X122123332Y-51012476D02*
X122123332Y-51126761D01*
X122123332Y-51126761D02*
X122161428Y-51202952D01*
X122161428Y-51202952D02*
X122199523Y-51241047D01*
X122199523Y-51241047D02*
X122275713Y-51279142D01*
X122275713Y-51279142D02*
X122580475Y-51279142D01*
X121399523Y-50860095D02*
X121780475Y-50860095D01*
X121780475Y-50860095D02*
X121818571Y-51241047D01*
X121818571Y-51241047D02*
X121780475Y-51202952D01*
X121780475Y-51202952D02*
X121704285Y-51164857D01*
X121704285Y-51164857D02*
X121513809Y-51164857D01*
X121513809Y-51164857D02*
X121437618Y-51202952D01*
X121437618Y-51202952D02*
X121399523Y-51241047D01*
X121399523Y-51241047D02*
X121361428Y-51317238D01*
X121361428Y-51317238D02*
X121361428Y-51507714D01*
X121361428Y-51507714D02*
X121399523Y-51583904D01*
X121399523Y-51583904D02*
X121437618Y-51622000D01*
X121437618Y-51622000D02*
X121513809Y-51660095D01*
X121513809Y-51660095D02*
X121704285Y-51660095D01*
X121704285Y-51660095D02*
X121780475Y-51622000D01*
X121780475Y-51622000D02*
X121818571Y-51583904D01*
%TO.C,R3*%
X73733332Y-71870095D02*
X73999999Y-71489142D01*
X74190475Y-71870095D02*
X74190475Y-71070095D01*
X74190475Y-71070095D02*
X73885713Y-71070095D01*
X73885713Y-71070095D02*
X73809523Y-71108190D01*
X73809523Y-71108190D02*
X73771428Y-71146285D01*
X73771428Y-71146285D02*
X73733332Y-71222476D01*
X73733332Y-71222476D02*
X73733332Y-71336761D01*
X73733332Y-71336761D02*
X73771428Y-71412952D01*
X73771428Y-71412952D02*
X73809523Y-71451047D01*
X73809523Y-71451047D02*
X73885713Y-71489142D01*
X73885713Y-71489142D02*
X74190475Y-71489142D01*
X73466666Y-71070095D02*
X72971428Y-71070095D01*
X72971428Y-71070095D02*
X73238094Y-71374857D01*
X73238094Y-71374857D02*
X73123809Y-71374857D01*
X73123809Y-71374857D02*
X73047618Y-71412952D01*
X73047618Y-71412952D02*
X73009523Y-71451047D01*
X73009523Y-71451047D02*
X72971428Y-71527238D01*
X72971428Y-71527238D02*
X72971428Y-71717714D01*
X72971428Y-71717714D02*
X73009523Y-71793904D01*
X73009523Y-71793904D02*
X73047618Y-71832000D01*
X73047618Y-71832000D02*
X73123809Y-71870095D01*
X73123809Y-71870095D02*
X73352380Y-71870095D01*
X73352380Y-71870095D02*
X73428571Y-71832000D01*
X73428571Y-71832000D02*
X73466666Y-71793904D01*
D11*
%TO.C,BT1*%
X74208809Y-62204285D02*
X74256428Y-62347142D01*
X74256428Y-62347142D02*
X74304047Y-62394761D01*
X74304047Y-62394761D02*
X74399285Y-62442380D01*
X74399285Y-62442380D02*
X74542142Y-62442380D01*
X74542142Y-62442380D02*
X74637380Y-62394761D01*
X74637380Y-62394761D02*
X74685000Y-62347142D01*
X74685000Y-62347142D02*
X74732619Y-62251904D01*
X74732619Y-62251904D02*
X74732619Y-61870952D01*
X74732619Y-61870952D02*
X73732619Y-61870952D01*
X73732619Y-61870952D02*
X73732619Y-62204285D01*
X73732619Y-62204285D02*
X73780238Y-62299523D01*
X73780238Y-62299523D02*
X73827857Y-62347142D01*
X73827857Y-62347142D02*
X73923095Y-62394761D01*
X73923095Y-62394761D02*
X74018333Y-62394761D01*
X74018333Y-62394761D02*
X74113571Y-62347142D01*
X74113571Y-62347142D02*
X74161190Y-62299523D01*
X74161190Y-62299523D02*
X74208809Y-62204285D01*
X74208809Y-62204285D02*
X74208809Y-61870952D01*
X73732619Y-62728095D02*
X73732619Y-63299523D01*
X74732619Y-63013809D02*
X73732619Y-63013809D01*
X74732619Y-64156666D02*
X74732619Y-63585238D01*
X74732619Y-63870952D02*
X73732619Y-63870952D01*
X73732619Y-63870952D02*
X73875476Y-63775714D01*
X73875476Y-63775714D02*
X73970714Y-63680476D01*
X73970714Y-63680476D02*
X74018333Y-63585238D01*
%TO.C,U3*%
X79761904Y-75242619D02*
X79761904Y-76052142D01*
X79761904Y-76052142D02*
X79714285Y-76147380D01*
X79714285Y-76147380D02*
X79666666Y-76195000D01*
X79666666Y-76195000D02*
X79571428Y-76242619D01*
X79571428Y-76242619D02*
X79380952Y-76242619D01*
X79380952Y-76242619D02*
X79285714Y-76195000D01*
X79285714Y-76195000D02*
X79238095Y-76147380D01*
X79238095Y-76147380D02*
X79190476Y-76052142D01*
X79190476Y-76052142D02*
X79190476Y-75242619D01*
X78809523Y-75242619D02*
X78190476Y-75242619D01*
X78190476Y-75242619D02*
X78523809Y-75623571D01*
X78523809Y-75623571D02*
X78380952Y-75623571D01*
X78380952Y-75623571D02*
X78285714Y-75671190D01*
X78285714Y-75671190D02*
X78238095Y-75718809D01*
X78238095Y-75718809D02*
X78190476Y-75814047D01*
X78190476Y-75814047D02*
X78190476Y-76052142D01*
X78190476Y-76052142D02*
X78238095Y-76147380D01*
X78238095Y-76147380D02*
X78285714Y-76195000D01*
X78285714Y-76195000D02*
X78380952Y-76242619D01*
X78380952Y-76242619D02*
X78666666Y-76242619D01*
X78666666Y-76242619D02*
X78761904Y-76195000D01*
X78761904Y-76195000D02*
X78809523Y-76147380D01*
D10*
%TO.C,C5*%
X86033332Y-47193904D02*
X86071428Y-47232000D01*
X86071428Y-47232000D02*
X86185713Y-47270095D01*
X86185713Y-47270095D02*
X86261904Y-47270095D01*
X86261904Y-47270095D02*
X86376190Y-47232000D01*
X86376190Y-47232000D02*
X86452380Y-47155809D01*
X86452380Y-47155809D02*
X86490475Y-47079619D01*
X86490475Y-47079619D02*
X86528571Y-46927238D01*
X86528571Y-46927238D02*
X86528571Y-46812952D01*
X86528571Y-46812952D02*
X86490475Y-46660571D01*
X86490475Y-46660571D02*
X86452380Y-46584380D01*
X86452380Y-46584380D02*
X86376190Y-46508190D01*
X86376190Y-46508190D02*
X86261904Y-46470095D01*
X86261904Y-46470095D02*
X86185713Y-46470095D01*
X86185713Y-46470095D02*
X86071428Y-46508190D01*
X86071428Y-46508190D02*
X86033332Y-46546285D01*
X85309523Y-46470095D02*
X85690475Y-46470095D01*
X85690475Y-46470095D02*
X85728571Y-46851047D01*
X85728571Y-46851047D02*
X85690475Y-46812952D01*
X85690475Y-46812952D02*
X85614285Y-46774857D01*
X85614285Y-46774857D02*
X85423809Y-46774857D01*
X85423809Y-46774857D02*
X85347618Y-46812952D01*
X85347618Y-46812952D02*
X85309523Y-46851047D01*
X85309523Y-46851047D02*
X85271428Y-46927238D01*
X85271428Y-46927238D02*
X85271428Y-47117714D01*
X85271428Y-47117714D02*
X85309523Y-47193904D01*
X85309523Y-47193904D02*
X85347618Y-47232000D01*
X85347618Y-47232000D02*
X85423809Y-47270095D01*
X85423809Y-47270095D02*
X85614285Y-47270095D01*
X85614285Y-47270095D02*
X85690475Y-47232000D01*
X85690475Y-47232000D02*
X85728571Y-47193904D01*
%TO.C,R10*%
X85920095Y-51285714D02*
X85539142Y-51019047D01*
X85920095Y-50828571D02*
X85120095Y-50828571D01*
X85120095Y-50828571D02*
X85120095Y-51133333D01*
X85120095Y-51133333D02*
X85158190Y-51209523D01*
X85158190Y-51209523D02*
X85196285Y-51247618D01*
X85196285Y-51247618D02*
X85272476Y-51285714D01*
X85272476Y-51285714D02*
X85386761Y-51285714D01*
X85386761Y-51285714D02*
X85462952Y-51247618D01*
X85462952Y-51247618D02*
X85501047Y-51209523D01*
X85501047Y-51209523D02*
X85539142Y-51133333D01*
X85539142Y-51133333D02*
X85539142Y-50828571D01*
X85920095Y-52047618D02*
X85920095Y-51590475D01*
X85920095Y-51819047D02*
X85120095Y-51819047D01*
X85120095Y-51819047D02*
X85234380Y-51742856D01*
X85234380Y-51742856D02*
X85310571Y-51666666D01*
X85310571Y-51666666D02*
X85348666Y-51590475D01*
X85120095Y-52542857D02*
X85120095Y-52619047D01*
X85120095Y-52619047D02*
X85158190Y-52695238D01*
X85158190Y-52695238D02*
X85196285Y-52733333D01*
X85196285Y-52733333D02*
X85272476Y-52771428D01*
X85272476Y-52771428D02*
X85424857Y-52809523D01*
X85424857Y-52809523D02*
X85615333Y-52809523D01*
X85615333Y-52809523D02*
X85767714Y-52771428D01*
X85767714Y-52771428D02*
X85843904Y-52733333D01*
X85843904Y-52733333D02*
X85882000Y-52695238D01*
X85882000Y-52695238D02*
X85920095Y-52619047D01*
X85920095Y-52619047D02*
X85920095Y-52542857D01*
X85920095Y-52542857D02*
X85882000Y-52466666D01*
X85882000Y-52466666D02*
X85843904Y-52428571D01*
X85843904Y-52428571D02*
X85767714Y-52390476D01*
X85767714Y-52390476D02*
X85615333Y-52352380D01*
X85615333Y-52352380D02*
X85424857Y-52352380D01*
X85424857Y-52352380D02*
X85272476Y-52390476D01*
X85272476Y-52390476D02*
X85196285Y-52428571D01*
X85196285Y-52428571D02*
X85158190Y-52466666D01*
X85158190Y-52466666D02*
X85120095Y-52542857D01*
%TO.C,R12*%
X128200095Y-74755714D02*
X127819142Y-74489047D01*
X128200095Y-74298571D02*
X127400095Y-74298571D01*
X127400095Y-74298571D02*
X127400095Y-74603333D01*
X127400095Y-74603333D02*
X127438190Y-74679523D01*
X127438190Y-74679523D02*
X127476285Y-74717618D01*
X127476285Y-74717618D02*
X127552476Y-74755714D01*
X127552476Y-74755714D02*
X127666761Y-74755714D01*
X127666761Y-74755714D02*
X127742952Y-74717618D01*
X127742952Y-74717618D02*
X127781047Y-74679523D01*
X127781047Y-74679523D02*
X127819142Y-74603333D01*
X127819142Y-74603333D02*
X127819142Y-74298571D01*
X128200095Y-75517618D02*
X128200095Y-75060475D01*
X128200095Y-75289047D02*
X127400095Y-75289047D01*
X127400095Y-75289047D02*
X127514380Y-75212856D01*
X127514380Y-75212856D02*
X127590571Y-75136666D01*
X127590571Y-75136666D02*
X127628666Y-75060475D01*
X127476285Y-75822380D02*
X127438190Y-75860476D01*
X127438190Y-75860476D02*
X127400095Y-75936666D01*
X127400095Y-75936666D02*
X127400095Y-76127142D01*
X127400095Y-76127142D02*
X127438190Y-76203333D01*
X127438190Y-76203333D02*
X127476285Y-76241428D01*
X127476285Y-76241428D02*
X127552476Y-76279523D01*
X127552476Y-76279523D02*
X127628666Y-76279523D01*
X127628666Y-76279523D02*
X127742952Y-76241428D01*
X127742952Y-76241428D02*
X128200095Y-75784285D01*
X128200095Y-75784285D02*
X128200095Y-76279523D01*
%TO.C,C16*%
X135264285Y-54643904D02*
X135302381Y-54682000D01*
X135302381Y-54682000D02*
X135416666Y-54720095D01*
X135416666Y-54720095D02*
X135492857Y-54720095D01*
X135492857Y-54720095D02*
X135607143Y-54682000D01*
X135607143Y-54682000D02*
X135683333Y-54605809D01*
X135683333Y-54605809D02*
X135721428Y-54529619D01*
X135721428Y-54529619D02*
X135759524Y-54377238D01*
X135759524Y-54377238D02*
X135759524Y-54262952D01*
X135759524Y-54262952D02*
X135721428Y-54110571D01*
X135721428Y-54110571D02*
X135683333Y-54034380D01*
X135683333Y-54034380D02*
X135607143Y-53958190D01*
X135607143Y-53958190D02*
X135492857Y-53920095D01*
X135492857Y-53920095D02*
X135416666Y-53920095D01*
X135416666Y-53920095D02*
X135302381Y-53958190D01*
X135302381Y-53958190D02*
X135264285Y-53996285D01*
X134502381Y-54720095D02*
X134959524Y-54720095D01*
X134730952Y-54720095D02*
X134730952Y-53920095D01*
X134730952Y-53920095D02*
X134807143Y-54034380D01*
X134807143Y-54034380D02*
X134883333Y-54110571D01*
X134883333Y-54110571D02*
X134959524Y-54148666D01*
X133816666Y-53920095D02*
X133969047Y-53920095D01*
X133969047Y-53920095D02*
X134045238Y-53958190D01*
X134045238Y-53958190D02*
X134083333Y-53996285D01*
X134083333Y-53996285D02*
X134159523Y-54110571D01*
X134159523Y-54110571D02*
X134197619Y-54262952D01*
X134197619Y-54262952D02*
X134197619Y-54567714D01*
X134197619Y-54567714D02*
X134159523Y-54643904D01*
X134159523Y-54643904D02*
X134121428Y-54682000D01*
X134121428Y-54682000D02*
X134045238Y-54720095D01*
X134045238Y-54720095D02*
X133892857Y-54720095D01*
X133892857Y-54720095D02*
X133816666Y-54682000D01*
X133816666Y-54682000D02*
X133778571Y-54643904D01*
X133778571Y-54643904D02*
X133740476Y-54567714D01*
X133740476Y-54567714D02*
X133740476Y-54377238D01*
X133740476Y-54377238D02*
X133778571Y-54301047D01*
X133778571Y-54301047D02*
X133816666Y-54262952D01*
X133816666Y-54262952D02*
X133892857Y-54224857D01*
X133892857Y-54224857D02*
X134045238Y-54224857D01*
X134045238Y-54224857D02*
X134121428Y-54262952D01*
X134121428Y-54262952D02*
X134159523Y-54301047D01*
X134159523Y-54301047D02*
X134197619Y-54377238D01*
%TO.C,R13*%
X124740095Y-74745714D02*
X124359142Y-74479047D01*
X124740095Y-74288571D02*
X123940095Y-74288571D01*
X123940095Y-74288571D02*
X123940095Y-74593333D01*
X123940095Y-74593333D02*
X123978190Y-74669523D01*
X123978190Y-74669523D02*
X124016285Y-74707618D01*
X124016285Y-74707618D02*
X124092476Y-74745714D01*
X124092476Y-74745714D02*
X124206761Y-74745714D01*
X124206761Y-74745714D02*
X124282952Y-74707618D01*
X124282952Y-74707618D02*
X124321047Y-74669523D01*
X124321047Y-74669523D02*
X124359142Y-74593333D01*
X124359142Y-74593333D02*
X124359142Y-74288571D01*
X124740095Y-75507618D02*
X124740095Y-75050475D01*
X124740095Y-75279047D02*
X123940095Y-75279047D01*
X123940095Y-75279047D02*
X124054380Y-75202856D01*
X124054380Y-75202856D02*
X124130571Y-75126666D01*
X124130571Y-75126666D02*
X124168666Y-75050475D01*
X123940095Y-75774285D02*
X123940095Y-76269523D01*
X123940095Y-76269523D02*
X124244857Y-76002857D01*
X124244857Y-76002857D02*
X124244857Y-76117142D01*
X124244857Y-76117142D02*
X124282952Y-76193333D01*
X124282952Y-76193333D02*
X124321047Y-76231428D01*
X124321047Y-76231428D02*
X124397238Y-76269523D01*
X124397238Y-76269523D02*
X124587714Y-76269523D01*
X124587714Y-76269523D02*
X124663904Y-76231428D01*
X124663904Y-76231428D02*
X124702000Y-76193333D01*
X124702000Y-76193333D02*
X124740095Y-76117142D01*
X124740095Y-76117142D02*
X124740095Y-75888571D01*
X124740095Y-75888571D02*
X124702000Y-75812380D01*
X124702000Y-75812380D02*
X124663904Y-75774285D01*
%TO.C,C19*%
X125954285Y-54703904D02*
X125992381Y-54742000D01*
X125992381Y-54742000D02*
X126106666Y-54780095D01*
X126106666Y-54780095D02*
X126182857Y-54780095D01*
X126182857Y-54780095D02*
X126297143Y-54742000D01*
X126297143Y-54742000D02*
X126373333Y-54665809D01*
X126373333Y-54665809D02*
X126411428Y-54589619D01*
X126411428Y-54589619D02*
X126449524Y-54437238D01*
X126449524Y-54437238D02*
X126449524Y-54322952D01*
X126449524Y-54322952D02*
X126411428Y-54170571D01*
X126411428Y-54170571D02*
X126373333Y-54094380D01*
X126373333Y-54094380D02*
X126297143Y-54018190D01*
X126297143Y-54018190D02*
X126182857Y-53980095D01*
X126182857Y-53980095D02*
X126106666Y-53980095D01*
X126106666Y-53980095D02*
X125992381Y-54018190D01*
X125992381Y-54018190D02*
X125954285Y-54056285D01*
X125192381Y-54780095D02*
X125649524Y-54780095D01*
X125420952Y-54780095D02*
X125420952Y-53980095D01*
X125420952Y-53980095D02*
X125497143Y-54094380D01*
X125497143Y-54094380D02*
X125573333Y-54170571D01*
X125573333Y-54170571D02*
X125649524Y-54208666D01*
X124811428Y-54780095D02*
X124659047Y-54780095D01*
X124659047Y-54780095D02*
X124582857Y-54742000D01*
X124582857Y-54742000D02*
X124544761Y-54703904D01*
X124544761Y-54703904D02*
X124468571Y-54589619D01*
X124468571Y-54589619D02*
X124430476Y-54437238D01*
X124430476Y-54437238D02*
X124430476Y-54132476D01*
X124430476Y-54132476D02*
X124468571Y-54056285D01*
X124468571Y-54056285D02*
X124506666Y-54018190D01*
X124506666Y-54018190D02*
X124582857Y-53980095D01*
X124582857Y-53980095D02*
X124735238Y-53980095D01*
X124735238Y-53980095D02*
X124811428Y-54018190D01*
X124811428Y-54018190D02*
X124849523Y-54056285D01*
X124849523Y-54056285D02*
X124887619Y-54132476D01*
X124887619Y-54132476D02*
X124887619Y-54322952D01*
X124887619Y-54322952D02*
X124849523Y-54399142D01*
X124849523Y-54399142D02*
X124811428Y-54437238D01*
X124811428Y-54437238D02*
X124735238Y-54475333D01*
X124735238Y-54475333D02*
X124582857Y-54475333D01*
X124582857Y-54475333D02*
X124506666Y-54437238D01*
X124506666Y-54437238D02*
X124468571Y-54399142D01*
X124468571Y-54399142D02*
X124430476Y-54322952D01*
%TO.C,C2*%
X70593904Y-76846667D02*
X70632000Y-76808571D01*
X70632000Y-76808571D02*
X70670095Y-76694286D01*
X70670095Y-76694286D02*
X70670095Y-76618095D01*
X70670095Y-76618095D02*
X70632000Y-76503809D01*
X70632000Y-76503809D02*
X70555809Y-76427619D01*
X70555809Y-76427619D02*
X70479619Y-76389524D01*
X70479619Y-76389524D02*
X70327238Y-76351428D01*
X70327238Y-76351428D02*
X70212952Y-76351428D01*
X70212952Y-76351428D02*
X70060571Y-76389524D01*
X70060571Y-76389524D02*
X69984380Y-76427619D01*
X69984380Y-76427619D02*
X69908190Y-76503809D01*
X69908190Y-76503809D02*
X69870095Y-76618095D01*
X69870095Y-76618095D02*
X69870095Y-76694286D01*
X69870095Y-76694286D02*
X69908190Y-76808571D01*
X69908190Y-76808571D02*
X69946285Y-76846667D01*
X69946285Y-77151428D02*
X69908190Y-77189524D01*
X69908190Y-77189524D02*
X69870095Y-77265714D01*
X69870095Y-77265714D02*
X69870095Y-77456190D01*
X69870095Y-77456190D02*
X69908190Y-77532381D01*
X69908190Y-77532381D02*
X69946285Y-77570476D01*
X69946285Y-77570476D02*
X70022476Y-77608571D01*
X70022476Y-77608571D02*
X70098666Y-77608571D01*
X70098666Y-77608571D02*
X70212952Y-77570476D01*
X70212952Y-77570476D02*
X70670095Y-77113333D01*
X70670095Y-77113333D02*
X70670095Y-77608571D01*
D11*
%TO.C,Q1*%
X78945238Y-80147857D02*
X79040476Y-80100238D01*
X79040476Y-80100238D02*
X79135714Y-80005000D01*
X79135714Y-80005000D02*
X79278571Y-79862142D01*
X79278571Y-79862142D02*
X79373809Y-79814523D01*
X79373809Y-79814523D02*
X79469047Y-79814523D01*
X79421428Y-80052619D02*
X79516666Y-80005000D01*
X79516666Y-80005000D02*
X79611904Y-79909761D01*
X79611904Y-79909761D02*
X79659523Y-79719285D01*
X79659523Y-79719285D02*
X79659523Y-79385952D01*
X79659523Y-79385952D02*
X79611904Y-79195476D01*
X79611904Y-79195476D02*
X79516666Y-79100238D01*
X79516666Y-79100238D02*
X79421428Y-79052619D01*
X79421428Y-79052619D02*
X79230952Y-79052619D01*
X79230952Y-79052619D02*
X79135714Y-79100238D01*
X79135714Y-79100238D02*
X79040476Y-79195476D01*
X79040476Y-79195476D02*
X78992857Y-79385952D01*
X78992857Y-79385952D02*
X78992857Y-79719285D01*
X78992857Y-79719285D02*
X79040476Y-79909761D01*
X79040476Y-79909761D02*
X79135714Y-80005000D01*
X79135714Y-80005000D02*
X79230952Y-80052619D01*
X79230952Y-80052619D02*
X79421428Y-80052619D01*
X78040476Y-80052619D02*
X78611904Y-80052619D01*
X78326190Y-80052619D02*
X78326190Y-79052619D01*
X78326190Y-79052619D02*
X78421428Y-79195476D01*
X78421428Y-79195476D02*
X78516666Y-79290714D01*
X78516666Y-79290714D02*
X78611904Y-79338333D01*
D10*
%TO.C,R6*%
X76113332Y-56760095D02*
X76379999Y-56379142D01*
X76570475Y-56760095D02*
X76570475Y-55960095D01*
X76570475Y-55960095D02*
X76265713Y-55960095D01*
X76265713Y-55960095D02*
X76189523Y-55998190D01*
X76189523Y-55998190D02*
X76151428Y-56036285D01*
X76151428Y-56036285D02*
X76113332Y-56112476D01*
X76113332Y-56112476D02*
X76113332Y-56226761D01*
X76113332Y-56226761D02*
X76151428Y-56302952D01*
X76151428Y-56302952D02*
X76189523Y-56341047D01*
X76189523Y-56341047D02*
X76265713Y-56379142D01*
X76265713Y-56379142D02*
X76570475Y-56379142D01*
X75427618Y-55960095D02*
X75579999Y-55960095D01*
X75579999Y-55960095D02*
X75656190Y-55998190D01*
X75656190Y-55998190D02*
X75694285Y-56036285D01*
X75694285Y-56036285D02*
X75770475Y-56150571D01*
X75770475Y-56150571D02*
X75808571Y-56302952D01*
X75808571Y-56302952D02*
X75808571Y-56607714D01*
X75808571Y-56607714D02*
X75770475Y-56683904D01*
X75770475Y-56683904D02*
X75732380Y-56722000D01*
X75732380Y-56722000D02*
X75656190Y-56760095D01*
X75656190Y-56760095D02*
X75503809Y-56760095D01*
X75503809Y-56760095D02*
X75427618Y-56722000D01*
X75427618Y-56722000D02*
X75389523Y-56683904D01*
X75389523Y-56683904D02*
X75351428Y-56607714D01*
X75351428Y-56607714D02*
X75351428Y-56417238D01*
X75351428Y-56417238D02*
X75389523Y-56341047D01*
X75389523Y-56341047D02*
X75427618Y-56302952D01*
X75427618Y-56302952D02*
X75503809Y-56264857D01*
X75503809Y-56264857D02*
X75656190Y-56264857D01*
X75656190Y-56264857D02*
X75732380Y-56302952D01*
X75732380Y-56302952D02*
X75770475Y-56341047D01*
X75770475Y-56341047D02*
X75808571Y-56417238D01*
%TO.C,C1*%
X85330832Y-70993904D02*
X85368928Y-71032000D01*
X85368928Y-71032000D02*
X85483213Y-71070095D01*
X85483213Y-71070095D02*
X85559404Y-71070095D01*
X85559404Y-71070095D02*
X85673690Y-71032000D01*
X85673690Y-71032000D02*
X85749880Y-70955809D01*
X85749880Y-70955809D02*
X85787975Y-70879619D01*
X85787975Y-70879619D02*
X85826071Y-70727238D01*
X85826071Y-70727238D02*
X85826071Y-70612952D01*
X85826071Y-70612952D02*
X85787975Y-70460571D01*
X85787975Y-70460571D02*
X85749880Y-70384380D01*
X85749880Y-70384380D02*
X85673690Y-70308190D01*
X85673690Y-70308190D02*
X85559404Y-70270095D01*
X85559404Y-70270095D02*
X85483213Y-70270095D01*
X85483213Y-70270095D02*
X85368928Y-70308190D01*
X85368928Y-70308190D02*
X85330832Y-70346285D01*
X84568928Y-71070095D02*
X85026071Y-71070095D01*
X84797499Y-71070095D02*
X84797499Y-70270095D01*
X84797499Y-70270095D02*
X84873690Y-70384380D01*
X84873690Y-70384380D02*
X84949880Y-70460571D01*
X84949880Y-70460571D02*
X85026071Y-70498666D01*
%TO.C,D1*%
X72670095Y-65909524D02*
X71870095Y-65909524D01*
X71870095Y-65909524D02*
X71870095Y-66100000D01*
X71870095Y-66100000D02*
X71908190Y-66214286D01*
X71908190Y-66214286D02*
X71984380Y-66290476D01*
X71984380Y-66290476D02*
X72060571Y-66328571D01*
X72060571Y-66328571D02*
X72212952Y-66366667D01*
X72212952Y-66366667D02*
X72327238Y-66366667D01*
X72327238Y-66366667D02*
X72479619Y-66328571D01*
X72479619Y-66328571D02*
X72555809Y-66290476D01*
X72555809Y-66290476D02*
X72632000Y-66214286D01*
X72632000Y-66214286D02*
X72670095Y-66100000D01*
X72670095Y-66100000D02*
X72670095Y-65909524D01*
X72670095Y-67128571D02*
X72670095Y-66671428D01*
X72670095Y-66900000D02*
X71870095Y-66900000D01*
X71870095Y-66900000D02*
X71984380Y-66823809D01*
X71984380Y-66823809D02*
X72060571Y-66747619D01*
X72060571Y-66747619D02*
X72098666Y-66671428D01*
%TO.C,R15*%
X94214285Y-49770095D02*
X94480952Y-49389142D01*
X94671428Y-49770095D02*
X94671428Y-48970095D01*
X94671428Y-48970095D02*
X94366666Y-48970095D01*
X94366666Y-48970095D02*
X94290476Y-49008190D01*
X94290476Y-49008190D02*
X94252381Y-49046285D01*
X94252381Y-49046285D02*
X94214285Y-49122476D01*
X94214285Y-49122476D02*
X94214285Y-49236761D01*
X94214285Y-49236761D02*
X94252381Y-49312952D01*
X94252381Y-49312952D02*
X94290476Y-49351047D01*
X94290476Y-49351047D02*
X94366666Y-49389142D01*
X94366666Y-49389142D02*
X94671428Y-49389142D01*
X93452381Y-49770095D02*
X93909524Y-49770095D01*
X93680952Y-49770095D02*
X93680952Y-48970095D01*
X93680952Y-48970095D02*
X93757143Y-49084380D01*
X93757143Y-49084380D02*
X93833333Y-49160571D01*
X93833333Y-49160571D02*
X93909524Y-49198666D01*
X92728571Y-48970095D02*
X93109523Y-48970095D01*
X93109523Y-48970095D02*
X93147619Y-49351047D01*
X93147619Y-49351047D02*
X93109523Y-49312952D01*
X93109523Y-49312952D02*
X93033333Y-49274857D01*
X93033333Y-49274857D02*
X92842857Y-49274857D01*
X92842857Y-49274857D02*
X92766666Y-49312952D01*
X92766666Y-49312952D02*
X92728571Y-49351047D01*
X92728571Y-49351047D02*
X92690476Y-49427238D01*
X92690476Y-49427238D02*
X92690476Y-49617714D01*
X92690476Y-49617714D02*
X92728571Y-49693904D01*
X92728571Y-49693904D02*
X92766666Y-49732000D01*
X92766666Y-49732000D02*
X92842857Y-49770095D01*
X92842857Y-49770095D02*
X93033333Y-49770095D01*
X93033333Y-49770095D02*
X93109523Y-49732000D01*
X93109523Y-49732000D02*
X93147619Y-49693904D01*
%TO.C,C6*%
X81930832Y-52983904D02*
X81968928Y-53022000D01*
X81968928Y-53022000D02*
X82083213Y-53060095D01*
X82083213Y-53060095D02*
X82159404Y-53060095D01*
X82159404Y-53060095D02*
X82273690Y-53022000D01*
X82273690Y-53022000D02*
X82349880Y-52945809D01*
X82349880Y-52945809D02*
X82387975Y-52869619D01*
X82387975Y-52869619D02*
X82426071Y-52717238D01*
X82426071Y-52717238D02*
X82426071Y-52602952D01*
X82426071Y-52602952D02*
X82387975Y-52450571D01*
X82387975Y-52450571D02*
X82349880Y-52374380D01*
X82349880Y-52374380D02*
X82273690Y-52298190D01*
X82273690Y-52298190D02*
X82159404Y-52260095D01*
X82159404Y-52260095D02*
X82083213Y-52260095D01*
X82083213Y-52260095D02*
X81968928Y-52298190D01*
X81968928Y-52298190D02*
X81930832Y-52336285D01*
X81245118Y-52260095D02*
X81397499Y-52260095D01*
X81397499Y-52260095D02*
X81473690Y-52298190D01*
X81473690Y-52298190D02*
X81511785Y-52336285D01*
X81511785Y-52336285D02*
X81587975Y-52450571D01*
X81587975Y-52450571D02*
X81626071Y-52602952D01*
X81626071Y-52602952D02*
X81626071Y-52907714D01*
X81626071Y-52907714D02*
X81587975Y-52983904D01*
X81587975Y-52983904D02*
X81549880Y-53022000D01*
X81549880Y-53022000D02*
X81473690Y-53060095D01*
X81473690Y-53060095D02*
X81321309Y-53060095D01*
X81321309Y-53060095D02*
X81245118Y-53022000D01*
X81245118Y-53022000D02*
X81207023Y-52983904D01*
X81207023Y-52983904D02*
X81168928Y-52907714D01*
X81168928Y-52907714D02*
X81168928Y-52717238D01*
X81168928Y-52717238D02*
X81207023Y-52641047D01*
X81207023Y-52641047D02*
X81245118Y-52602952D01*
X81245118Y-52602952D02*
X81321309Y-52564857D01*
X81321309Y-52564857D02*
X81473690Y-52564857D01*
X81473690Y-52564857D02*
X81549880Y-52602952D01*
X81549880Y-52602952D02*
X81587975Y-52641047D01*
X81587975Y-52641047D02*
X81626071Y-52717238D01*
%TO.C,C18*%
X122904285Y-48173904D02*
X122942381Y-48212000D01*
X122942381Y-48212000D02*
X123056666Y-48250095D01*
X123056666Y-48250095D02*
X123132857Y-48250095D01*
X123132857Y-48250095D02*
X123247143Y-48212000D01*
X123247143Y-48212000D02*
X123323333Y-48135809D01*
X123323333Y-48135809D02*
X123361428Y-48059619D01*
X123361428Y-48059619D02*
X123399524Y-47907238D01*
X123399524Y-47907238D02*
X123399524Y-47792952D01*
X123399524Y-47792952D02*
X123361428Y-47640571D01*
X123361428Y-47640571D02*
X123323333Y-47564380D01*
X123323333Y-47564380D02*
X123247143Y-47488190D01*
X123247143Y-47488190D02*
X123132857Y-47450095D01*
X123132857Y-47450095D02*
X123056666Y-47450095D01*
X123056666Y-47450095D02*
X122942381Y-47488190D01*
X122942381Y-47488190D02*
X122904285Y-47526285D01*
X122142381Y-48250095D02*
X122599524Y-48250095D01*
X122370952Y-48250095D02*
X122370952Y-47450095D01*
X122370952Y-47450095D02*
X122447143Y-47564380D01*
X122447143Y-47564380D02*
X122523333Y-47640571D01*
X122523333Y-47640571D02*
X122599524Y-47678666D01*
X121685238Y-47792952D02*
X121761428Y-47754857D01*
X121761428Y-47754857D02*
X121799523Y-47716761D01*
X121799523Y-47716761D02*
X121837619Y-47640571D01*
X121837619Y-47640571D02*
X121837619Y-47602476D01*
X121837619Y-47602476D02*
X121799523Y-47526285D01*
X121799523Y-47526285D02*
X121761428Y-47488190D01*
X121761428Y-47488190D02*
X121685238Y-47450095D01*
X121685238Y-47450095D02*
X121532857Y-47450095D01*
X121532857Y-47450095D02*
X121456666Y-47488190D01*
X121456666Y-47488190D02*
X121418571Y-47526285D01*
X121418571Y-47526285D02*
X121380476Y-47602476D01*
X121380476Y-47602476D02*
X121380476Y-47640571D01*
X121380476Y-47640571D02*
X121418571Y-47716761D01*
X121418571Y-47716761D02*
X121456666Y-47754857D01*
X121456666Y-47754857D02*
X121532857Y-47792952D01*
X121532857Y-47792952D02*
X121685238Y-47792952D01*
X121685238Y-47792952D02*
X121761428Y-47831047D01*
X121761428Y-47831047D02*
X121799523Y-47869142D01*
X121799523Y-47869142D02*
X121837619Y-47945333D01*
X121837619Y-47945333D02*
X121837619Y-48097714D01*
X121837619Y-48097714D02*
X121799523Y-48173904D01*
X121799523Y-48173904D02*
X121761428Y-48212000D01*
X121761428Y-48212000D02*
X121685238Y-48250095D01*
X121685238Y-48250095D02*
X121532857Y-48250095D01*
X121532857Y-48250095D02*
X121456666Y-48212000D01*
X121456666Y-48212000D02*
X121418571Y-48173904D01*
X121418571Y-48173904D02*
X121380476Y-48097714D01*
X121380476Y-48097714D02*
X121380476Y-47945333D01*
X121380476Y-47945333D02*
X121418571Y-47869142D01*
X121418571Y-47869142D02*
X121456666Y-47831047D01*
X121456666Y-47831047D02*
X121532857Y-47792952D01*
%TO.C,C11*%
X112493904Y-77785714D02*
X112532000Y-77747618D01*
X112532000Y-77747618D02*
X112570095Y-77633333D01*
X112570095Y-77633333D02*
X112570095Y-77557142D01*
X112570095Y-77557142D02*
X112532000Y-77442856D01*
X112532000Y-77442856D02*
X112455809Y-77366666D01*
X112455809Y-77366666D02*
X112379619Y-77328571D01*
X112379619Y-77328571D02*
X112227238Y-77290475D01*
X112227238Y-77290475D02*
X112112952Y-77290475D01*
X112112952Y-77290475D02*
X111960571Y-77328571D01*
X111960571Y-77328571D02*
X111884380Y-77366666D01*
X111884380Y-77366666D02*
X111808190Y-77442856D01*
X111808190Y-77442856D02*
X111770095Y-77557142D01*
X111770095Y-77557142D02*
X111770095Y-77633333D01*
X111770095Y-77633333D02*
X111808190Y-77747618D01*
X111808190Y-77747618D02*
X111846285Y-77785714D01*
X112570095Y-78547618D02*
X112570095Y-78090475D01*
X112570095Y-78319047D02*
X111770095Y-78319047D01*
X111770095Y-78319047D02*
X111884380Y-78242856D01*
X111884380Y-78242856D02*
X111960571Y-78166666D01*
X111960571Y-78166666D02*
X111998666Y-78090475D01*
X112570095Y-79309523D02*
X112570095Y-78852380D01*
X112570095Y-79080952D02*
X111770095Y-79080952D01*
X111770095Y-79080952D02*
X111884380Y-79004761D01*
X111884380Y-79004761D02*
X111960571Y-78928571D01*
X111960571Y-78928571D02*
X111998666Y-78852380D01*
%TO.C,R9*%
X86033332Y-49470095D02*
X86299999Y-49089142D01*
X86490475Y-49470095D02*
X86490475Y-48670095D01*
X86490475Y-48670095D02*
X86185713Y-48670095D01*
X86185713Y-48670095D02*
X86109523Y-48708190D01*
X86109523Y-48708190D02*
X86071428Y-48746285D01*
X86071428Y-48746285D02*
X86033332Y-48822476D01*
X86033332Y-48822476D02*
X86033332Y-48936761D01*
X86033332Y-48936761D02*
X86071428Y-49012952D01*
X86071428Y-49012952D02*
X86109523Y-49051047D01*
X86109523Y-49051047D02*
X86185713Y-49089142D01*
X86185713Y-49089142D02*
X86490475Y-49089142D01*
X85652380Y-49470095D02*
X85499999Y-49470095D01*
X85499999Y-49470095D02*
X85423809Y-49432000D01*
X85423809Y-49432000D02*
X85385713Y-49393904D01*
X85385713Y-49393904D02*
X85309523Y-49279619D01*
X85309523Y-49279619D02*
X85271428Y-49127238D01*
X85271428Y-49127238D02*
X85271428Y-48822476D01*
X85271428Y-48822476D02*
X85309523Y-48746285D01*
X85309523Y-48746285D02*
X85347618Y-48708190D01*
X85347618Y-48708190D02*
X85423809Y-48670095D01*
X85423809Y-48670095D02*
X85576190Y-48670095D01*
X85576190Y-48670095D02*
X85652380Y-48708190D01*
X85652380Y-48708190D02*
X85690475Y-48746285D01*
X85690475Y-48746285D02*
X85728571Y-48822476D01*
X85728571Y-48822476D02*
X85728571Y-49012952D01*
X85728571Y-49012952D02*
X85690475Y-49089142D01*
X85690475Y-49089142D02*
X85652380Y-49127238D01*
X85652380Y-49127238D02*
X85576190Y-49165333D01*
X85576190Y-49165333D02*
X85423809Y-49165333D01*
X85423809Y-49165333D02*
X85347618Y-49127238D01*
X85347618Y-49127238D02*
X85309523Y-49089142D01*
X85309523Y-49089142D02*
X85271428Y-49012952D01*
%TO.C,C17*%
X122904285Y-49863904D02*
X122942381Y-49902000D01*
X122942381Y-49902000D02*
X123056666Y-49940095D01*
X123056666Y-49940095D02*
X123132857Y-49940095D01*
X123132857Y-49940095D02*
X123247143Y-49902000D01*
X123247143Y-49902000D02*
X123323333Y-49825809D01*
X123323333Y-49825809D02*
X123361428Y-49749619D01*
X123361428Y-49749619D02*
X123399524Y-49597238D01*
X123399524Y-49597238D02*
X123399524Y-49482952D01*
X123399524Y-49482952D02*
X123361428Y-49330571D01*
X123361428Y-49330571D02*
X123323333Y-49254380D01*
X123323333Y-49254380D02*
X123247143Y-49178190D01*
X123247143Y-49178190D02*
X123132857Y-49140095D01*
X123132857Y-49140095D02*
X123056666Y-49140095D01*
X123056666Y-49140095D02*
X122942381Y-49178190D01*
X122942381Y-49178190D02*
X122904285Y-49216285D01*
X122142381Y-49940095D02*
X122599524Y-49940095D01*
X122370952Y-49940095D02*
X122370952Y-49140095D01*
X122370952Y-49140095D02*
X122447143Y-49254380D01*
X122447143Y-49254380D02*
X122523333Y-49330571D01*
X122523333Y-49330571D02*
X122599524Y-49368666D01*
X121875714Y-49140095D02*
X121342380Y-49140095D01*
X121342380Y-49140095D02*
X121685238Y-49940095D01*
D11*
%TO.C,ESP*%
X97290475Y-45938809D02*
X96957142Y-45938809D01*
X96814285Y-46462619D02*
X97290475Y-46462619D01*
X97290475Y-46462619D02*
X97290475Y-45462619D01*
X97290475Y-45462619D02*
X96814285Y-45462619D01*
X96433332Y-46415000D02*
X96290475Y-46462619D01*
X96290475Y-46462619D02*
X96052380Y-46462619D01*
X96052380Y-46462619D02*
X95957142Y-46415000D01*
X95957142Y-46415000D02*
X95909523Y-46367380D01*
X95909523Y-46367380D02*
X95861904Y-46272142D01*
X95861904Y-46272142D02*
X95861904Y-46176904D01*
X95861904Y-46176904D02*
X95909523Y-46081666D01*
X95909523Y-46081666D02*
X95957142Y-46034047D01*
X95957142Y-46034047D02*
X96052380Y-45986428D01*
X96052380Y-45986428D02*
X96242856Y-45938809D01*
X96242856Y-45938809D02*
X96338094Y-45891190D01*
X96338094Y-45891190D02*
X96385713Y-45843571D01*
X96385713Y-45843571D02*
X96433332Y-45748333D01*
X96433332Y-45748333D02*
X96433332Y-45653095D01*
X96433332Y-45653095D02*
X96385713Y-45557857D01*
X96385713Y-45557857D02*
X96338094Y-45510238D01*
X96338094Y-45510238D02*
X96242856Y-45462619D01*
X96242856Y-45462619D02*
X96004761Y-45462619D01*
X96004761Y-45462619D02*
X95861904Y-45510238D01*
X95433332Y-46462619D02*
X95433332Y-45462619D01*
X95433332Y-45462619D02*
X95052380Y-45462619D01*
X95052380Y-45462619D02*
X94957142Y-45510238D01*
X94957142Y-45510238D02*
X94909523Y-45557857D01*
X94909523Y-45557857D02*
X94861904Y-45653095D01*
X94861904Y-45653095D02*
X94861904Y-45795952D01*
X94861904Y-45795952D02*
X94909523Y-45891190D01*
X94909523Y-45891190D02*
X94957142Y-45938809D01*
X94957142Y-45938809D02*
X95052380Y-45986428D01*
X95052380Y-45986428D02*
X95433332Y-45986428D01*
D10*
%TO.C,D2*%
X81320095Y-70319524D02*
X80520095Y-70319524D01*
X80520095Y-70319524D02*
X80520095Y-70510000D01*
X80520095Y-70510000D02*
X80558190Y-70624286D01*
X80558190Y-70624286D02*
X80634380Y-70700476D01*
X80634380Y-70700476D02*
X80710571Y-70738571D01*
X80710571Y-70738571D02*
X80862952Y-70776667D01*
X80862952Y-70776667D02*
X80977238Y-70776667D01*
X80977238Y-70776667D02*
X81129619Y-70738571D01*
X81129619Y-70738571D02*
X81205809Y-70700476D01*
X81205809Y-70700476D02*
X81282000Y-70624286D01*
X81282000Y-70624286D02*
X81320095Y-70510000D01*
X81320095Y-70510000D02*
X81320095Y-70319524D01*
X80596285Y-71081428D02*
X80558190Y-71119524D01*
X80558190Y-71119524D02*
X80520095Y-71195714D01*
X80520095Y-71195714D02*
X80520095Y-71386190D01*
X80520095Y-71386190D02*
X80558190Y-71462381D01*
X80558190Y-71462381D02*
X80596285Y-71500476D01*
X80596285Y-71500476D02*
X80672476Y-71538571D01*
X80672476Y-71538571D02*
X80748666Y-71538571D01*
X80748666Y-71538571D02*
X80862952Y-71500476D01*
X80862952Y-71500476D02*
X81320095Y-71043333D01*
X81320095Y-71043333D02*
X81320095Y-71538571D01*
%TO.C,C10*%
X114193904Y-77785714D02*
X114232000Y-77747618D01*
X114232000Y-77747618D02*
X114270095Y-77633333D01*
X114270095Y-77633333D02*
X114270095Y-77557142D01*
X114270095Y-77557142D02*
X114232000Y-77442856D01*
X114232000Y-77442856D02*
X114155809Y-77366666D01*
X114155809Y-77366666D02*
X114079619Y-77328571D01*
X114079619Y-77328571D02*
X113927238Y-77290475D01*
X113927238Y-77290475D02*
X113812952Y-77290475D01*
X113812952Y-77290475D02*
X113660571Y-77328571D01*
X113660571Y-77328571D02*
X113584380Y-77366666D01*
X113584380Y-77366666D02*
X113508190Y-77442856D01*
X113508190Y-77442856D02*
X113470095Y-77557142D01*
X113470095Y-77557142D02*
X113470095Y-77633333D01*
X113470095Y-77633333D02*
X113508190Y-77747618D01*
X113508190Y-77747618D02*
X113546285Y-77785714D01*
X114270095Y-78547618D02*
X114270095Y-78090475D01*
X114270095Y-78319047D02*
X113470095Y-78319047D01*
X113470095Y-78319047D02*
X113584380Y-78242856D01*
X113584380Y-78242856D02*
X113660571Y-78166666D01*
X113660571Y-78166666D02*
X113698666Y-78090475D01*
X113470095Y-79042857D02*
X113470095Y-79119047D01*
X113470095Y-79119047D02*
X113508190Y-79195238D01*
X113508190Y-79195238D02*
X113546285Y-79233333D01*
X113546285Y-79233333D02*
X113622476Y-79271428D01*
X113622476Y-79271428D02*
X113774857Y-79309523D01*
X113774857Y-79309523D02*
X113965333Y-79309523D01*
X113965333Y-79309523D02*
X114117714Y-79271428D01*
X114117714Y-79271428D02*
X114193904Y-79233333D01*
X114193904Y-79233333D02*
X114232000Y-79195238D01*
X114232000Y-79195238D02*
X114270095Y-79119047D01*
X114270095Y-79119047D02*
X114270095Y-79042857D01*
X114270095Y-79042857D02*
X114232000Y-78966666D01*
X114232000Y-78966666D02*
X114193904Y-78928571D01*
X114193904Y-78928571D02*
X114117714Y-78890476D01*
X114117714Y-78890476D02*
X113965333Y-78852380D01*
X113965333Y-78852380D02*
X113774857Y-78852380D01*
X113774857Y-78852380D02*
X113622476Y-78890476D01*
X113622476Y-78890476D02*
X113546285Y-78928571D01*
X113546285Y-78928571D02*
X113508190Y-78966666D01*
X113508190Y-78966666D02*
X113470095Y-79042857D01*
%TO.C,R14*%
X123020095Y-74735714D02*
X122639142Y-74469047D01*
X123020095Y-74278571D02*
X122220095Y-74278571D01*
X122220095Y-74278571D02*
X122220095Y-74583333D01*
X122220095Y-74583333D02*
X122258190Y-74659523D01*
X122258190Y-74659523D02*
X122296285Y-74697618D01*
X122296285Y-74697618D02*
X122372476Y-74735714D01*
X122372476Y-74735714D02*
X122486761Y-74735714D01*
X122486761Y-74735714D02*
X122562952Y-74697618D01*
X122562952Y-74697618D02*
X122601047Y-74659523D01*
X122601047Y-74659523D02*
X122639142Y-74583333D01*
X122639142Y-74583333D02*
X122639142Y-74278571D01*
X123020095Y-75497618D02*
X123020095Y-75040475D01*
X123020095Y-75269047D02*
X122220095Y-75269047D01*
X122220095Y-75269047D02*
X122334380Y-75192856D01*
X122334380Y-75192856D02*
X122410571Y-75116666D01*
X122410571Y-75116666D02*
X122448666Y-75040475D01*
X122486761Y-76183333D02*
X123020095Y-76183333D01*
X122182000Y-75992857D02*
X122753428Y-75802380D01*
X122753428Y-75802380D02*
X122753428Y-76297619D01*
%TO.C,R16*%
X94214285Y-54120095D02*
X94480952Y-53739142D01*
X94671428Y-54120095D02*
X94671428Y-53320095D01*
X94671428Y-53320095D02*
X94366666Y-53320095D01*
X94366666Y-53320095D02*
X94290476Y-53358190D01*
X94290476Y-53358190D02*
X94252381Y-53396285D01*
X94252381Y-53396285D02*
X94214285Y-53472476D01*
X94214285Y-53472476D02*
X94214285Y-53586761D01*
X94214285Y-53586761D02*
X94252381Y-53662952D01*
X94252381Y-53662952D02*
X94290476Y-53701047D01*
X94290476Y-53701047D02*
X94366666Y-53739142D01*
X94366666Y-53739142D02*
X94671428Y-53739142D01*
X93452381Y-54120095D02*
X93909524Y-54120095D01*
X93680952Y-54120095D02*
X93680952Y-53320095D01*
X93680952Y-53320095D02*
X93757143Y-53434380D01*
X93757143Y-53434380D02*
X93833333Y-53510571D01*
X93833333Y-53510571D02*
X93909524Y-53548666D01*
X92766666Y-53320095D02*
X92919047Y-53320095D01*
X92919047Y-53320095D02*
X92995238Y-53358190D01*
X92995238Y-53358190D02*
X93033333Y-53396285D01*
X93033333Y-53396285D02*
X93109523Y-53510571D01*
X93109523Y-53510571D02*
X93147619Y-53662952D01*
X93147619Y-53662952D02*
X93147619Y-53967714D01*
X93147619Y-53967714D02*
X93109523Y-54043904D01*
X93109523Y-54043904D02*
X93071428Y-54082000D01*
X93071428Y-54082000D02*
X92995238Y-54120095D01*
X92995238Y-54120095D02*
X92842857Y-54120095D01*
X92842857Y-54120095D02*
X92766666Y-54082000D01*
X92766666Y-54082000D02*
X92728571Y-54043904D01*
X92728571Y-54043904D02*
X92690476Y-53967714D01*
X92690476Y-53967714D02*
X92690476Y-53777238D01*
X92690476Y-53777238D02*
X92728571Y-53701047D01*
X92728571Y-53701047D02*
X92766666Y-53662952D01*
X92766666Y-53662952D02*
X92842857Y-53624857D01*
X92842857Y-53624857D02*
X92995238Y-53624857D01*
X92995238Y-53624857D02*
X93071428Y-53662952D01*
X93071428Y-53662952D02*
X93109523Y-53701047D01*
X93109523Y-53701047D02*
X93147619Y-53777238D01*
%TO.C,C15*%
X86514285Y-59793904D02*
X86552381Y-59832000D01*
X86552381Y-59832000D02*
X86666666Y-59870095D01*
X86666666Y-59870095D02*
X86742857Y-59870095D01*
X86742857Y-59870095D02*
X86857143Y-59832000D01*
X86857143Y-59832000D02*
X86933333Y-59755809D01*
X86933333Y-59755809D02*
X86971428Y-59679619D01*
X86971428Y-59679619D02*
X87009524Y-59527238D01*
X87009524Y-59527238D02*
X87009524Y-59412952D01*
X87009524Y-59412952D02*
X86971428Y-59260571D01*
X86971428Y-59260571D02*
X86933333Y-59184380D01*
X86933333Y-59184380D02*
X86857143Y-59108190D01*
X86857143Y-59108190D02*
X86742857Y-59070095D01*
X86742857Y-59070095D02*
X86666666Y-59070095D01*
X86666666Y-59070095D02*
X86552381Y-59108190D01*
X86552381Y-59108190D02*
X86514285Y-59146285D01*
X85752381Y-59870095D02*
X86209524Y-59870095D01*
X85980952Y-59870095D02*
X85980952Y-59070095D01*
X85980952Y-59070095D02*
X86057143Y-59184380D01*
X86057143Y-59184380D02*
X86133333Y-59260571D01*
X86133333Y-59260571D02*
X86209524Y-59298666D01*
X85028571Y-59070095D02*
X85409523Y-59070095D01*
X85409523Y-59070095D02*
X85447619Y-59451047D01*
X85447619Y-59451047D02*
X85409523Y-59412952D01*
X85409523Y-59412952D02*
X85333333Y-59374857D01*
X85333333Y-59374857D02*
X85142857Y-59374857D01*
X85142857Y-59374857D02*
X85066666Y-59412952D01*
X85066666Y-59412952D02*
X85028571Y-59451047D01*
X85028571Y-59451047D02*
X84990476Y-59527238D01*
X84990476Y-59527238D02*
X84990476Y-59717714D01*
X84990476Y-59717714D02*
X85028571Y-59793904D01*
X85028571Y-59793904D02*
X85066666Y-59832000D01*
X85066666Y-59832000D02*
X85142857Y-59870095D01*
X85142857Y-59870095D02*
X85333333Y-59870095D01*
X85333333Y-59870095D02*
X85409523Y-59832000D01*
X85409523Y-59832000D02*
X85447619Y-59793904D01*
D11*
%TO.C,microsd*%
X126357619Y-60300714D02*
X125690952Y-60300714D01*
X125786190Y-60300714D02*
X125738571Y-60348333D01*
X125738571Y-60348333D02*
X125690952Y-60443571D01*
X125690952Y-60443571D02*
X125690952Y-60586428D01*
X125690952Y-60586428D02*
X125738571Y-60681666D01*
X125738571Y-60681666D02*
X125833809Y-60729285D01*
X125833809Y-60729285D02*
X126357619Y-60729285D01*
X125833809Y-60729285D02*
X125738571Y-60776904D01*
X125738571Y-60776904D02*
X125690952Y-60872142D01*
X125690952Y-60872142D02*
X125690952Y-61014999D01*
X125690952Y-61014999D02*
X125738571Y-61110238D01*
X125738571Y-61110238D02*
X125833809Y-61157857D01*
X125833809Y-61157857D02*
X126357619Y-61157857D01*
X126357619Y-61634047D02*
X125690952Y-61634047D01*
X125357619Y-61634047D02*
X125405238Y-61586428D01*
X125405238Y-61586428D02*
X125452857Y-61634047D01*
X125452857Y-61634047D02*
X125405238Y-61681666D01*
X125405238Y-61681666D02*
X125357619Y-61634047D01*
X125357619Y-61634047D02*
X125452857Y-61634047D01*
X126310000Y-62538808D02*
X126357619Y-62443570D01*
X126357619Y-62443570D02*
X126357619Y-62253094D01*
X126357619Y-62253094D02*
X126310000Y-62157856D01*
X126310000Y-62157856D02*
X126262380Y-62110237D01*
X126262380Y-62110237D02*
X126167142Y-62062618D01*
X126167142Y-62062618D02*
X125881428Y-62062618D01*
X125881428Y-62062618D02*
X125786190Y-62110237D01*
X125786190Y-62110237D02*
X125738571Y-62157856D01*
X125738571Y-62157856D02*
X125690952Y-62253094D01*
X125690952Y-62253094D02*
X125690952Y-62443570D01*
X125690952Y-62443570D02*
X125738571Y-62538808D01*
X126357619Y-62967380D02*
X125690952Y-62967380D01*
X125881428Y-62967380D02*
X125786190Y-63014999D01*
X125786190Y-63014999D02*
X125738571Y-63062618D01*
X125738571Y-63062618D02*
X125690952Y-63157856D01*
X125690952Y-63157856D02*
X125690952Y-63253094D01*
X126357619Y-63729285D02*
X126310000Y-63634047D01*
X126310000Y-63634047D02*
X126262380Y-63586428D01*
X126262380Y-63586428D02*
X126167142Y-63538809D01*
X126167142Y-63538809D02*
X125881428Y-63538809D01*
X125881428Y-63538809D02*
X125786190Y-63586428D01*
X125786190Y-63586428D02*
X125738571Y-63634047D01*
X125738571Y-63634047D02*
X125690952Y-63729285D01*
X125690952Y-63729285D02*
X125690952Y-63872142D01*
X125690952Y-63872142D02*
X125738571Y-63967380D01*
X125738571Y-63967380D02*
X125786190Y-64014999D01*
X125786190Y-64014999D02*
X125881428Y-64062618D01*
X125881428Y-64062618D02*
X126167142Y-64062618D01*
X126167142Y-64062618D02*
X126262380Y-64014999D01*
X126262380Y-64014999D02*
X126310000Y-63967380D01*
X126310000Y-63967380D02*
X126357619Y-63872142D01*
X126357619Y-63872142D02*
X126357619Y-63729285D01*
X126310000Y-64443571D02*
X126357619Y-64538809D01*
X126357619Y-64538809D02*
X126357619Y-64729285D01*
X126357619Y-64729285D02*
X126310000Y-64824523D01*
X126310000Y-64824523D02*
X126214761Y-64872142D01*
X126214761Y-64872142D02*
X126167142Y-64872142D01*
X126167142Y-64872142D02*
X126071904Y-64824523D01*
X126071904Y-64824523D02*
X126024285Y-64729285D01*
X126024285Y-64729285D02*
X126024285Y-64586428D01*
X126024285Y-64586428D02*
X125976666Y-64491190D01*
X125976666Y-64491190D02*
X125881428Y-64443571D01*
X125881428Y-64443571D02*
X125833809Y-64443571D01*
X125833809Y-64443571D02*
X125738571Y-64491190D01*
X125738571Y-64491190D02*
X125690952Y-64586428D01*
X125690952Y-64586428D02*
X125690952Y-64729285D01*
X125690952Y-64729285D02*
X125738571Y-64824523D01*
X126357619Y-65729285D02*
X125357619Y-65729285D01*
X126310000Y-65729285D02*
X126357619Y-65634047D01*
X126357619Y-65634047D02*
X126357619Y-65443571D01*
X126357619Y-65443571D02*
X126310000Y-65348333D01*
X126310000Y-65348333D02*
X126262380Y-65300714D01*
X126262380Y-65300714D02*
X126167142Y-65253095D01*
X126167142Y-65253095D02*
X125881428Y-65253095D01*
X125881428Y-65253095D02*
X125786190Y-65300714D01*
X125786190Y-65300714D02*
X125738571Y-65348333D01*
X125738571Y-65348333D02*
X125690952Y-65443571D01*
X125690952Y-65443571D02*
X125690952Y-65634047D01*
X125690952Y-65634047D02*
X125738571Y-65729285D01*
%TO.C,ESP32-S*%
X110928094Y-50663809D02*
X110594761Y-50663809D01*
X110451904Y-51187619D02*
X110928094Y-51187619D01*
X110928094Y-51187619D02*
X110928094Y-50187619D01*
X110928094Y-50187619D02*
X110451904Y-50187619D01*
X110070951Y-51140000D02*
X109928094Y-51187619D01*
X109928094Y-51187619D02*
X109689999Y-51187619D01*
X109689999Y-51187619D02*
X109594761Y-51140000D01*
X109594761Y-51140000D02*
X109547142Y-51092380D01*
X109547142Y-51092380D02*
X109499523Y-50997142D01*
X109499523Y-50997142D02*
X109499523Y-50901904D01*
X109499523Y-50901904D02*
X109547142Y-50806666D01*
X109547142Y-50806666D02*
X109594761Y-50759047D01*
X109594761Y-50759047D02*
X109689999Y-50711428D01*
X109689999Y-50711428D02*
X109880475Y-50663809D01*
X109880475Y-50663809D02*
X109975713Y-50616190D01*
X109975713Y-50616190D02*
X110023332Y-50568571D01*
X110023332Y-50568571D02*
X110070951Y-50473333D01*
X110070951Y-50473333D02*
X110070951Y-50378095D01*
X110070951Y-50378095D02*
X110023332Y-50282857D01*
X110023332Y-50282857D02*
X109975713Y-50235238D01*
X109975713Y-50235238D02*
X109880475Y-50187619D01*
X109880475Y-50187619D02*
X109642380Y-50187619D01*
X109642380Y-50187619D02*
X109499523Y-50235238D01*
X109070951Y-51187619D02*
X109070951Y-50187619D01*
X109070951Y-50187619D02*
X108689999Y-50187619D01*
X108689999Y-50187619D02*
X108594761Y-50235238D01*
X108594761Y-50235238D02*
X108547142Y-50282857D01*
X108547142Y-50282857D02*
X108499523Y-50378095D01*
X108499523Y-50378095D02*
X108499523Y-50520952D01*
X108499523Y-50520952D02*
X108547142Y-50616190D01*
X108547142Y-50616190D02*
X108594761Y-50663809D01*
X108594761Y-50663809D02*
X108689999Y-50711428D01*
X108689999Y-50711428D02*
X109070951Y-50711428D01*
X108166189Y-50187619D02*
X107547142Y-50187619D01*
X107547142Y-50187619D02*
X107880475Y-50568571D01*
X107880475Y-50568571D02*
X107737618Y-50568571D01*
X107737618Y-50568571D02*
X107642380Y-50616190D01*
X107642380Y-50616190D02*
X107594761Y-50663809D01*
X107594761Y-50663809D02*
X107547142Y-50759047D01*
X107547142Y-50759047D02*
X107547142Y-50997142D01*
X107547142Y-50997142D02*
X107594761Y-51092380D01*
X107594761Y-51092380D02*
X107642380Y-51140000D01*
X107642380Y-51140000D02*
X107737618Y-51187619D01*
X107737618Y-51187619D02*
X108023332Y-51187619D01*
X108023332Y-51187619D02*
X108118570Y-51140000D01*
X108118570Y-51140000D02*
X108166189Y-51092380D01*
X107166189Y-50282857D02*
X107118570Y-50235238D01*
X107118570Y-50235238D02*
X107023332Y-50187619D01*
X107023332Y-50187619D02*
X106785237Y-50187619D01*
X106785237Y-50187619D02*
X106689999Y-50235238D01*
X106689999Y-50235238D02*
X106642380Y-50282857D01*
X106642380Y-50282857D02*
X106594761Y-50378095D01*
X106594761Y-50378095D02*
X106594761Y-50473333D01*
X106594761Y-50473333D02*
X106642380Y-50616190D01*
X106642380Y-50616190D02*
X107213808Y-51187619D01*
X107213808Y-51187619D02*
X106594761Y-51187619D01*
X106166189Y-50806666D02*
X105404285Y-50806666D01*
X104975713Y-51140000D02*
X104832856Y-51187619D01*
X104832856Y-51187619D02*
X104594761Y-51187619D01*
X104594761Y-51187619D02*
X104499523Y-51140000D01*
X104499523Y-51140000D02*
X104451904Y-51092380D01*
X104451904Y-51092380D02*
X104404285Y-50997142D01*
X104404285Y-50997142D02*
X104404285Y-50901904D01*
X104404285Y-50901904D02*
X104451904Y-50806666D01*
X104451904Y-50806666D02*
X104499523Y-50759047D01*
X104499523Y-50759047D02*
X104594761Y-50711428D01*
X104594761Y-50711428D02*
X104785237Y-50663809D01*
X104785237Y-50663809D02*
X104880475Y-50616190D01*
X104880475Y-50616190D02*
X104928094Y-50568571D01*
X104928094Y-50568571D02*
X104975713Y-50473333D01*
X104975713Y-50473333D02*
X104975713Y-50378095D01*
X104975713Y-50378095D02*
X104928094Y-50282857D01*
X104928094Y-50282857D02*
X104880475Y-50235238D01*
X104880475Y-50235238D02*
X104785237Y-50187619D01*
X104785237Y-50187619D02*
X104547142Y-50187619D01*
X104547142Y-50187619D02*
X104404285Y-50235238D01*
D10*
%TO.C,R7*%
X66770095Y-72816667D02*
X66389142Y-72550000D01*
X66770095Y-72359524D02*
X65970095Y-72359524D01*
X65970095Y-72359524D02*
X65970095Y-72664286D01*
X65970095Y-72664286D02*
X66008190Y-72740476D01*
X66008190Y-72740476D02*
X66046285Y-72778571D01*
X66046285Y-72778571D02*
X66122476Y-72816667D01*
X66122476Y-72816667D02*
X66236761Y-72816667D01*
X66236761Y-72816667D02*
X66312952Y-72778571D01*
X66312952Y-72778571D02*
X66351047Y-72740476D01*
X66351047Y-72740476D02*
X66389142Y-72664286D01*
X66389142Y-72664286D02*
X66389142Y-72359524D01*
X65970095Y-73083333D02*
X65970095Y-73616667D01*
X65970095Y-73616667D02*
X66770095Y-73273809D01*
D11*
%TO.C,Serial*%
X66615000Y-51123809D02*
X66662619Y-51266666D01*
X66662619Y-51266666D02*
X66662619Y-51504761D01*
X66662619Y-51504761D02*
X66615000Y-51599999D01*
X66615000Y-51599999D02*
X66567380Y-51647618D01*
X66567380Y-51647618D02*
X66472142Y-51695237D01*
X66472142Y-51695237D02*
X66376904Y-51695237D01*
X66376904Y-51695237D02*
X66281666Y-51647618D01*
X66281666Y-51647618D02*
X66234047Y-51599999D01*
X66234047Y-51599999D02*
X66186428Y-51504761D01*
X66186428Y-51504761D02*
X66138809Y-51314285D01*
X66138809Y-51314285D02*
X66091190Y-51219047D01*
X66091190Y-51219047D02*
X66043571Y-51171428D01*
X66043571Y-51171428D02*
X65948333Y-51123809D01*
X65948333Y-51123809D02*
X65853095Y-51123809D01*
X65853095Y-51123809D02*
X65757857Y-51171428D01*
X65757857Y-51171428D02*
X65710238Y-51219047D01*
X65710238Y-51219047D02*
X65662619Y-51314285D01*
X65662619Y-51314285D02*
X65662619Y-51552380D01*
X65662619Y-51552380D02*
X65710238Y-51695237D01*
X66615000Y-52504761D02*
X66662619Y-52409523D01*
X66662619Y-52409523D02*
X66662619Y-52219047D01*
X66662619Y-52219047D02*
X66615000Y-52123809D01*
X66615000Y-52123809D02*
X66519761Y-52076190D01*
X66519761Y-52076190D02*
X66138809Y-52076190D01*
X66138809Y-52076190D02*
X66043571Y-52123809D01*
X66043571Y-52123809D02*
X65995952Y-52219047D01*
X65995952Y-52219047D02*
X65995952Y-52409523D01*
X65995952Y-52409523D02*
X66043571Y-52504761D01*
X66043571Y-52504761D02*
X66138809Y-52552380D01*
X66138809Y-52552380D02*
X66234047Y-52552380D01*
X66234047Y-52552380D02*
X66329285Y-52076190D01*
X66662619Y-52980952D02*
X65995952Y-52980952D01*
X66186428Y-52980952D02*
X66091190Y-53028571D01*
X66091190Y-53028571D02*
X66043571Y-53076190D01*
X66043571Y-53076190D02*
X65995952Y-53171428D01*
X65995952Y-53171428D02*
X65995952Y-53266666D01*
X66662619Y-53600000D02*
X65995952Y-53600000D01*
X65662619Y-53600000D02*
X65710238Y-53552381D01*
X65710238Y-53552381D02*
X65757857Y-53600000D01*
X65757857Y-53600000D02*
X65710238Y-53647619D01*
X65710238Y-53647619D02*
X65662619Y-53600000D01*
X65662619Y-53600000D02*
X65757857Y-53600000D01*
X66662619Y-54504761D02*
X66138809Y-54504761D01*
X66138809Y-54504761D02*
X66043571Y-54457142D01*
X66043571Y-54457142D02*
X65995952Y-54361904D01*
X65995952Y-54361904D02*
X65995952Y-54171428D01*
X65995952Y-54171428D02*
X66043571Y-54076190D01*
X66615000Y-54504761D02*
X66662619Y-54409523D01*
X66662619Y-54409523D02*
X66662619Y-54171428D01*
X66662619Y-54171428D02*
X66615000Y-54076190D01*
X66615000Y-54076190D02*
X66519761Y-54028571D01*
X66519761Y-54028571D02*
X66424523Y-54028571D01*
X66424523Y-54028571D02*
X66329285Y-54076190D01*
X66329285Y-54076190D02*
X66281666Y-54171428D01*
X66281666Y-54171428D02*
X66281666Y-54409523D01*
X66281666Y-54409523D02*
X66234047Y-54504761D01*
X66662619Y-55123809D02*
X66615000Y-55028571D01*
X66615000Y-55028571D02*
X66519761Y-54980952D01*
X66519761Y-54980952D02*
X65662619Y-54980952D01*
D10*
%TO.C,R2*%
X96670095Y-69866667D02*
X96289142Y-69600000D01*
X96670095Y-69409524D02*
X95870095Y-69409524D01*
X95870095Y-69409524D02*
X95870095Y-69714286D01*
X95870095Y-69714286D02*
X95908190Y-69790476D01*
X95908190Y-69790476D02*
X95946285Y-69828571D01*
X95946285Y-69828571D02*
X96022476Y-69866667D01*
X96022476Y-69866667D02*
X96136761Y-69866667D01*
X96136761Y-69866667D02*
X96212952Y-69828571D01*
X96212952Y-69828571D02*
X96251047Y-69790476D01*
X96251047Y-69790476D02*
X96289142Y-69714286D01*
X96289142Y-69714286D02*
X96289142Y-69409524D01*
X95946285Y-70171428D02*
X95908190Y-70209524D01*
X95908190Y-70209524D02*
X95870095Y-70285714D01*
X95870095Y-70285714D02*
X95870095Y-70476190D01*
X95870095Y-70476190D02*
X95908190Y-70552381D01*
X95908190Y-70552381D02*
X95946285Y-70590476D01*
X95946285Y-70590476D02*
X96022476Y-70628571D01*
X96022476Y-70628571D02*
X96098666Y-70628571D01*
X96098666Y-70628571D02*
X96212952Y-70590476D01*
X96212952Y-70590476D02*
X96670095Y-70133333D01*
X96670095Y-70133333D02*
X96670095Y-70628571D01*
%TO.C,C14*%
X86464285Y-61403904D02*
X86502381Y-61442000D01*
X86502381Y-61442000D02*
X86616666Y-61480095D01*
X86616666Y-61480095D02*
X86692857Y-61480095D01*
X86692857Y-61480095D02*
X86807143Y-61442000D01*
X86807143Y-61442000D02*
X86883333Y-61365809D01*
X86883333Y-61365809D02*
X86921428Y-61289619D01*
X86921428Y-61289619D02*
X86959524Y-61137238D01*
X86959524Y-61137238D02*
X86959524Y-61022952D01*
X86959524Y-61022952D02*
X86921428Y-60870571D01*
X86921428Y-60870571D02*
X86883333Y-60794380D01*
X86883333Y-60794380D02*
X86807143Y-60718190D01*
X86807143Y-60718190D02*
X86692857Y-60680095D01*
X86692857Y-60680095D02*
X86616666Y-60680095D01*
X86616666Y-60680095D02*
X86502381Y-60718190D01*
X86502381Y-60718190D02*
X86464285Y-60756285D01*
X85702381Y-61480095D02*
X86159524Y-61480095D01*
X85930952Y-61480095D02*
X85930952Y-60680095D01*
X85930952Y-60680095D02*
X86007143Y-60794380D01*
X86007143Y-60794380D02*
X86083333Y-60870571D01*
X86083333Y-60870571D02*
X86159524Y-60908666D01*
X85016666Y-60946761D02*
X85016666Y-61480095D01*
X85207142Y-60642000D02*
X85397619Y-61213428D01*
X85397619Y-61213428D02*
X84902380Y-61213428D01*
D11*
%TO.C,J1*%
X70262619Y-62666666D02*
X70976904Y-62666666D01*
X70976904Y-62666666D02*
X71119761Y-62619047D01*
X71119761Y-62619047D02*
X71215000Y-62523809D01*
X71215000Y-62523809D02*
X71262619Y-62380952D01*
X71262619Y-62380952D02*
X71262619Y-62285714D01*
X71262619Y-63666666D02*
X71262619Y-63095238D01*
X71262619Y-63380952D02*
X70262619Y-63380952D01*
X70262619Y-63380952D02*
X70405476Y-63285714D01*
X70405476Y-63285714D02*
X70500714Y-63190476D01*
X70500714Y-63190476D02*
X70548333Y-63095238D01*
%TO.C,U1*%
X76362619Y-47038095D02*
X77172142Y-47038095D01*
X77172142Y-47038095D02*
X77267380Y-47085714D01*
X77267380Y-47085714D02*
X77315000Y-47133333D01*
X77315000Y-47133333D02*
X77362619Y-47228571D01*
X77362619Y-47228571D02*
X77362619Y-47419047D01*
X77362619Y-47419047D02*
X77315000Y-47514285D01*
X77315000Y-47514285D02*
X77267380Y-47561904D01*
X77267380Y-47561904D02*
X77172142Y-47609523D01*
X77172142Y-47609523D02*
X76362619Y-47609523D01*
X77362619Y-48609523D02*
X77362619Y-48038095D01*
X77362619Y-48323809D02*
X76362619Y-48323809D01*
X76362619Y-48323809D02*
X76505476Y-48228571D01*
X76505476Y-48228571D02*
X76600714Y-48133333D01*
X76600714Y-48133333D02*
X76648333Y-48038095D01*
D10*
%TO.C,R1*%
X98570095Y-69866667D02*
X98189142Y-69600000D01*
X98570095Y-69409524D02*
X97770095Y-69409524D01*
X97770095Y-69409524D02*
X97770095Y-69714286D01*
X97770095Y-69714286D02*
X97808190Y-69790476D01*
X97808190Y-69790476D02*
X97846285Y-69828571D01*
X97846285Y-69828571D02*
X97922476Y-69866667D01*
X97922476Y-69866667D02*
X98036761Y-69866667D01*
X98036761Y-69866667D02*
X98112952Y-69828571D01*
X98112952Y-69828571D02*
X98151047Y-69790476D01*
X98151047Y-69790476D02*
X98189142Y-69714286D01*
X98189142Y-69714286D02*
X98189142Y-69409524D01*
X98570095Y-70628571D02*
X98570095Y-70171428D01*
X98570095Y-70400000D02*
X97770095Y-70400000D01*
X97770095Y-70400000D02*
X97884380Y-70323809D01*
X97884380Y-70323809D02*
X97960571Y-70247619D01*
X97960571Y-70247619D02*
X97998666Y-70171428D01*
%TO.C,LED*%
X75670095Y-51385714D02*
X75670095Y-51004762D01*
X75670095Y-51004762D02*
X74870095Y-51004762D01*
X75251047Y-51652381D02*
X75251047Y-51919047D01*
X75670095Y-52033333D02*
X75670095Y-51652381D01*
X75670095Y-51652381D02*
X74870095Y-51652381D01*
X74870095Y-51652381D02*
X74870095Y-52033333D01*
X75670095Y-52376191D02*
X74870095Y-52376191D01*
X74870095Y-52376191D02*
X74870095Y-52566667D01*
X74870095Y-52566667D02*
X74908190Y-52680953D01*
X74908190Y-52680953D02*
X74984380Y-52757143D01*
X74984380Y-52757143D02*
X75060571Y-52795238D01*
X75060571Y-52795238D02*
X75212952Y-52833334D01*
X75212952Y-52833334D02*
X75327238Y-52833334D01*
X75327238Y-52833334D02*
X75479619Y-52795238D01*
X75479619Y-52795238D02*
X75555809Y-52757143D01*
X75555809Y-52757143D02*
X75632000Y-52680953D01*
X75632000Y-52680953D02*
X75670095Y-52566667D01*
X75670095Y-52566667D02*
X75670095Y-52376191D01*
%TO.C,R11*%
X126470095Y-74735714D02*
X126089142Y-74469047D01*
X126470095Y-74278571D02*
X125670095Y-74278571D01*
X125670095Y-74278571D02*
X125670095Y-74583333D01*
X125670095Y-74583333D02*
X125708190Y-74659523D01*
X125708190Y-74659523D02*
X125746285Y-74697618D01*
X125746285Y-74697618D02*
X125822476Y-74735714D01*
X125822476Y-74735714D02*
X125936761Y-74735714D01*
X125936761Y-74735714D02*
X126012952Y-74697618D01*
X126012952Y-74697618D02*
X126051047Y-74659523D01*
X126051047Y-74659523D02*
X126089142Y-74583333D01*
X126089142Y-74583333D02*
X126089142Y-74278571D01*
X126470095Y-75497618D02*
X126470095Y-75040475D01*
X126470095Y-75269047D02*
X125670095Y-75269047D01*
X125670095Y-75269047D02*
X125784380Y-75192856D01*
X125784380Y-75192856D02*
X125860571Y-75116666D01*
X125860571Y-75116666D02*
X125898666Y-75040475D01*
X126470095Y-76259523D02*
X126470095Y-75802380D01*
X126470095Y-76030952D02*
X125670095Y-76030952D01*
X125670095Y-76030952D02*
X125784380Y-75954761D01*
X125784380Y-75954761D02*
X125860571Y-75878571D01*
X125860571Y-75878571D02*
X125898666Y-75802380D01*
%TO.C,C7*%
X81980832Y-51323904D02*
X82018928Y-51362000D01*
X82018928Y-51362000D02*
X82133213Y-51400095D01*
X82133213Y-51400095D02*
X82209404Y-51400095D01*
X82209404Y-51400095D02*
X82323690Y-51362000D01*
X82323690Y-51362000D02*
X82399880Y-51285809D01*
X82399880Y-51285809D02*
X82437975Y-51209619D01*
X82437975Y-51209619D02*
X82476071Y-51057238D01*
X82476071Y-51057238D02*
X82476071Y-50942952D01*
X82476071Y-50942952D02*
X82437975Y-50790571D01*
X82437975Y-50790571D02*
X82399880Y-50714380D01*
X82399880Y-50714380D02*
X82323690Y-50638190D01*
X82323690Y-50638190D02*
X82209404Y-50600095D01*
X82209404Y-50600095D02*
X82133213Y-50600095D01*
X82133213Y-50600095D02*
X82018928Y-50638190D01*
X82018928Y-50638190D02*
X81980832Y-50676285D01*
X81714166Y-50600095D02*
X81180832Y-50600095D01*
X81180832Y-50600095D02*
X81523690Y-51400095D01*
D12*
%TO.C,MAIN*%
X80600000Y-42770000D02*
X80600000Y-41980000D01*
X81200000Y-40970000D02*
X86900000Y-40970000D01*
X82450000Y-43820000D02*
X84150000Y-43820000D01*
X82650000Y-39680000D02*
X82850000Y-39470000D01*
X82650000Y-40970000D02*
X82650000Y-39680000D01*
X82850000Y-39470000D02*
X83750000Y-39470000D01*
X83950000Y-39680000D02*
X83750000Y-39470000D01*
X83950000Y-39680000D02*
X83950000Y-40970000D01*
X85450000Y-43820000D02*
X85650000Y-43820000D01*
X87500000Y-41980000D02*
X87500000Y-42770000D01*
%TO.C,R8*%
X71277500Y-59754724D02*
X71277500Y-59245276D01*
X72322500Y-59754724D02*
X72322500Y-59245276D01*
%TO.C,R5*%
X119744724Y-51812500D02*
X119235276Y-51812500D01*
X119744724Y-50767500D02*
X119235276Y-50767500D01*
%TO.C,R3*%
X76354724Y-72022500D02*
X75845276Y-72022500D01*
X76354724Y-70977500D02*
X75845276Y-70977500D01*
%TO.C,BT1*%
X80870000Y-60065000D02*
X80870000Y-65915000D01*
X80430000Y-60065000D02*
X80870000Y-60065000D01*
X77270000Y-60065000D02*
X77710000Y-60065000D01*
X77270000Y-61755000D02*
X77270000Y-60065000D01*
X77270000Y-61755000D02*
X75470000Y-61755000D01*
X77270000Y-64225000D02*
X77270000Y-65915000D01*
X80870000Y-65915000D02*
X80430000Y-65915000D01*
X77270000Y-65915000D02*
X77710000Y-65915000D01*
%TO.C,U3*%
X75690000Y-76020000D02*
X73260000Y-76020000D01*
X73930000Y-72950000D02*
X75690000Y-72950000D01*
%TO.C,C5*%
X83003733Y-46390000D02*
X83296267Y-46390000D01*
X83003733Y-47410000D02*
X83296267Y-47410000D01*
%TO.C,R10*%
X84572500Y-51582776D02*
X84572500Y-52092224D01*
X83527500Y-51582776D02*
X83527500Y-52092224D01*
%TO.C,R12*%
X127277500Y-72654724D02*
X127277500Y-72145276D01*
X128322500Y-72654724D02*
X128322500Y-72145276D01*
%TO.C,C16*%
X131703733Y-53890000D02*
X131996267Y-53890000D01*
X131703733Y-54910000D02*
X131996267Y-54910000D01*
%TO.C,R13*%
X123827500Y-72654724D02*
X123827500Y-72145276D01*
X124872500Y-72654724D02*
X124872500Y-72145276D01*
%TO.C,C19*%
X128446267Y-54910000D02*
X128153733Y-54910000D01*
X128446267Y-53890000D02*
X128153733Y-53890000D01*
%TO.C,C2*%
X70810000Y-74253733D02*
X70810000Y-74546267D01*
X69790000Y-74253733D02*
X69790000Y-74546267D01*
%TO.C,Q1*%
X77610000Y-78400000D02*
X77610000Y-77750000D01*
X77610000Y-78400000D02*
X77610000Y-80075000D01*
X74490000Y-78400000D02*
X74490000Y-77750000D01*
X74490000Y-78400000D02*
X74490000Y-79050000D01*
%TO.C,R6*%
X73295276Y-55877500D02*
X73804724Y-55877500D01*
X73295276Y-56922500D02*
X73804724Y-56922500D01*
%TO.C,C1*%
X82653733Y-70190000D02*
X82946267Y-70190000D01*
X82653733Y-71210000D02*
X82946267Y-71210000D01*
%TO.C,D1*%
X71565000Y-70560000D02*
X71565000Y-68100000D01*
X73035000Y-70560000D02*
X71565000Y-70560000D01*
X73035000Y-68100000D02*
X73035000Y-70560000D01*
%TO.C,R15*%
X93954724Y-51267500D02*
X93445276Y-51267500D01*
X93954724Y-50222500D02*
X93445276Y-50222500D01*
%TO.C,C6*%
X79191233Y-53210000D02*
X79483767Y-53210000D01*
X79191233Y-52190000D02*
X79483767Y-52190000D01*
%TO.C,C18*%
X119343733Y-47370000D02*
X119636267Y-47370000D01*
X119343733Y-48390000D02*
X119636267Y-48390000D01*
%TO.C,C11*%
X112710000Y-81053733D02*
X112710000Y-81346267D01*
X111690000Y-81053733D02*
X111690000Y-81346267D01*
%TO.C,R9*%
X82895276Y-48577500D02*
X83404724Y-48577500D01*
X82895276Y-49622500D02*
X83404724Y-49622500D01*
%TO.C,C17*%
X119343733Y-49070000D02*
X119636267Y-49070000D01*
X119343733Y-50090000D02*
X119636267Y-50090000D01*
%TO.C,ESP*%
X89500000Y-42770000D02*
X89500000Y-41980000D01*
X90100000Y-40970000D02*
X95800000Y-40970000D01*
X91350000Y-43820000D02*
X93050000Y-43820000D01*
X91550000Y-39680000D02*
X91750000Y-39470000D01*
X91550000Y-40970000D02*
X91550000Y-39680000D01*
X91750000Y-39470000D02*
X92650000Y-39470000D01*
X92850000Y-39680000D02*
X92650000Y-39470000D01*
X92850000Y-39680000D02*
X92850000Y-40970000D01*
X94350000Y-43820000D02*
X94550000Y-43820000D01*
X96400000Y-41980000D02*
X96400000Y-42770000D01*
%TO.C,D2*%
X81685000Y-71940000D02*
X81685000Y-74400000D01*
X80215000Y-71940000D02*
X81685000Y-71940000D01*
X80215000Y-74400000D02*
X80215000Y-71940000D01*
%TO.C,C10*%
X114410000Y-81053733D02*
X114410000Y-81346267D01*
X113390000Y-81053733D02*
X113390000Y-81346267D01*
%TO.C,R14*%
X122127500Y-72654724D02*
X122127500Y-72145276D01*
X123172500Y-72654724D02*
X123172500Y-72145276D01*
%TO.C,R16*%
X93954724Y-52922500D02*
X93445276Y-52922500D01*
X93954724Y-51877500D02*
X93445276Y-51877500D01*
%TO.C,C15*%
X89096267Y-60010000D02*
X88803733Y-60010000D01*
X89096267Y-58990000D02*
X88803733Y-58990000D01*
%TO.C,microsd*%
X122975000Y-56565000D02*
X128575000Y-56565000D01*
X119725000Y-56565000D02*
X118565000Y-56565000D01*
X118565000Y-56565000D02*
X118565000Y-67825000D01*
X118565000Y-69325000D02*
X118565000Y-69435000D01*
X122275000Y-69435000D02*
X128575000Y-69435000D01*
X118565000Y-69435000D02*
X120375000Y-69435000D01*
%TO.C,ESP32-S*%
X116470000Y-65025000D02*
X115470000Y-65025000D01*
X116470000Y-64405000D02*
X116470000Y-65025000D01*
X116470000Y-46005000D02*
X116850000Y-46005000D01*
X116470000Y-45585000D02*
X116470000Y-46005000D01*
X116470000Y-45585000D02*
X98230000Y-45585000D01*
X98230000Y-65025000D02*
X99230000Y-65025000D01*
X98230000Y-64405000D02*
X98230000Y-65025000D01*
X98230000Y-45585000D02*
X98230000Y-46005000D01*
%TO.C,R7*%
X66922500Y-70245276D02*
X66922500Y-70754724D01*
X65877500Y-70245276D02*
X65877500Y-70754724D01*
%TO.C,Serial*%
X66920000Y-49390000D02*
X69580000Y-49390000D01*
X66920000Y-54530000D02*
X66920000Y-49390000D01*
X66920000Y-54530000D02*
X69580000Y-54530000D01*
X68250000Y-57130000D02*
X69580000Y-57130000D01*
X69580000Y-54530000D02*
X69580000Y-49390000D01*
X69580000Y-57130000D02*
X69580000Y-55800000D01*
%TO.C,R2*%
X96822500Y-67245276D02*
X96822500Y-67754724D01*
X95777500Y-67245276D02*
X95777500Y-67754724D01*
%TO.C,C14*%
X89096267Y-61610000D02*
X88803733Y-61610000D01*
X89096267Y-60590000D02*
X88803733Y-60590000D01*
%TO.C,U1*%
X77677500Y-47850000D02*
X77677500Y-48500000D01*
X77677500Y-47850000D02*
X77677500Y-47200000D01*
X80797500Y-47850000D02*
X80797500Y-49525000D01*
X80797500Y-47850000D02*
X80797500Y-47200000D01*
%TO.C,R1*%
X98722500Y-67245276D02*
X98722500Y-67754724D01*
X97677500Y-67245276D02*
X97677500Y-67754724D01*
%TO.C,LED*%
X73835515Y-53514999D02*
G75*
G03*
X73678608Y-50282666I-1235515J1559999D01*
G01*
X73679999Y-52995960D02*
G75*
G03*
X73679836Y-50913871I-1079999J1040960D01*
G01*
X71520164Y-50913871D02*
G75*
G03*
X71520001Y-52995960I1079836J-1041129D01*
G01*
X71521392Y-50282666D02*
G75*
G03*
X71364485Y-53514999I1078608J-1672334D01*
G01*
X73836000Y-53515000D02*
X73680000Y-53515000D01*
X71520000Y-53515000D02*
X71364000Y-53515000D01*
%TO.C,R11*%
X125547500Y-72654724D02*
X125547500Y-72145276D01*
X126592500Y-72654724D02*
X126592500Y-72145276D01*
%TO.C,C7*%
X79201233Y-51550000D02*
X79493767Y-51550000D01*
X79201233Y-50530000D02*
X79493767Y-50530000D01*
%TD*%
M02*
