%TF.GenerationSoftware,KiCad,Pcbnew,7.0.2-1.fc38*%
%TF.CreationDate,2023-06-07T17:49:04+02:00*%
%TF.ProjectId,gps_compass,6770735f-636f-46d7-9061-73732e6b6963,rev?*%
%TF.SameCoordinates,Original*%
%TF.FileFunction,Copper,L2,Bot*%
%TF.FilePolarity,Positive*%
%FSLAX46Y46*%
G04 Gerber Fmt 4.6, Leading zero omitted, Abs format (unit mm)*
G04 Created by KiCad (PCBNEW 7.0.2-1.fc38) date 2023-06-07 17:49:04*
%MOMM*%
%LPD*%
G01*
G04 APERTURE LIST*
G04 Aperture macros list*
%AMRoundRect*
0 Rectangle with rounded corners*
0 $1 Rounding radius*
0 $2 $3 $4 $5 $6 $7 $8 $9 X,Y pos of 4 corners*
0 Add a 4 corners polygon primitive as box body*
4,1,4,$2,$3,$4,$5,$6,$7,$8,$9,$2,$3,0*
0 Add four circle primitives for the rounded corners*
1,1,$1+$1,$2,$3*
1,1,$1+$1,$4,$5*
1,1,$1+$1,$6,$7*
1,1,$1+$1,$8,$9*
0 Add four rect primitives between the rounded corners*
20,1,$1+$1,$2,$3,$4,$5,0*
20,1,$1+$1,$4,$5,$6,$7,0*
20,1,$1+$1,$6,$7,$8,$9,0*
20,1,$1+$1,$8,$9,$2,$3,0*%
G04 Aperture macros list end*
%TA.AperFunction,ComponentPad*%
%ADD10C,2.000000*%
%TD*%
%TA.AperFunction,ComponentPad*%
%ADD11R,1.700000X1.700000*%
%TD*%
%TA.AperFunction,ComponentPad*%
%ADD12O,1.700000X1.700000*%
%TD*%
%TA.AperFunction,ComponentPad*%
%ADD13C,1.700000*%
%TD*%
%TA.AperFunction,SMDPad,CuDef*%
%ADD14RoundRect,0.150000X0.587500X0.150000X-0.587500X0.150000X-0.587500X-0.150000X0.587500X-0.150000X0*%
%TD*%
%TA.AperFunction,SMDPad,CuDef*%
%ADD15RoundRect,0.237500X0.250000X0.237500X-0.250000X0.237500X-0.250000X-0.237500X0.250000X-0.237500X0*%
%TD*%
%TA.AperFunction,SMDPad,CuDef*%
%ADD16RoundRect,0.237500X-0.237500X0.250000X-0.237500X-0.250000X0.237500X-0.250000X0.237500X0.250000X0*%
%TD*%
%TA.AperFunction,SMDPad,CuDef*%
%ADD17R,1.000000X0.800000*%
%TD*%
%TA.AperFunction,SMDPad,CuDef*%
%ADD18R,0.700000X1.500000*%
%TD*%
%TA.AperFunction,SMDPad,CuDef*%
%ADD19R,1.800000X0.700000*%
%TD*%
%TA.AperFunction,SMDPad,CuDef*%
%ADD20R,2.200000X1.600000*%
%TD*%
%TA.AperFunction,SMDPad,CuDef*%
%ADD21RoundRect,0.250000X-0.337500X-0.475000X0.337500X-0.475000X0.337500X0.475000X-0.337500X0.475000X0*%
%TD*%
%TA.AperFunction,SMDPad,CuDef*%
%ADD22R,2.000000X0.650000*%
%TD*%
%TA.AperFunction,SMDPad,CuDef*%
%ADD23R,0.900000X1.500000*%
%TD*%
%TA.AperFunction,SMDPad,CuDef*%
%ADD24R,1.500000X0.900000*%
%TD*%
%TA.AperFunction,ComponentPad*%
%ADD25R,1.800000X1.800000*%
%TD*%
%TA.AperFunction,ComponentPad*%
%ADD26C,1.800000*%
%TD*%
%TA.AperFunction,SMDPad,CuDef*%
%ADD27RoundRect,0.250000X0.337500X0.475000X-0.337500X0.475000X-0.337500X-0.475000X0.337500X-0.475000X0*%
%TD*%
%TA.AperFunction,SMDPad,CuDef*%
%ADD28R,0.700000X1.750000*%
%TD*%
%TA.AperFunction,SMDPad,CuDef*%
%ADD29R,1.450000X1.000000*%
%TD*%
%TA.AperFunction,SMDPad,CuDef*%
%ADD30R,1.000000X1.550000*%
%TD*%
%TA.AperFunction,SMDPad,CuDef*%
%ADD31R,0.800000X1.500000*%
%TD*%
%TA.AperFunction,SMDPad,CuDef*%
%ADD32R,1.300000X1.500000*%
%TD*%
%TA.AperFunction,SMDPad,CuDef*%
%ADD33R,1.500000X1.500000*%
%TD*%
%TA.AperFunction,SMDPad,CuDef*%
%ADD34R,0.800000X1.400000*%
%TD*%
%TA.AperFunction,ComponentPad*%
%ADD35C,0.700000*%
%TD*%
%TA.AperFunction,ComponentPad*%
%ADD36O,1.700000X0.900000*%
%TD*%
%TA.AperFunction,ComponentPad*%
%ADD37O,2.400000X0.900000*%
%TD*%
%TA.AperFunction,ViaPad*%
%ADD38C,0.800000*%
%TD*%
%TA.AperFunction,Conductor*%
%ADD39C,0.250000*%
%TD*%
G04 APERTURE END LIST*
D10*
%TO.P,SWdown1,1,A*%
%TO.N,B2*%
X170600000Y-56600000D03*
X170600000Y-50100000D03*
%TO.P,SWdown1,2,B*%
%TO.N,GND*%
X175100000Y-56600000D03*
X175100000Y-50100000D03*
%TD*%
D11*
%TO.P,GY-271,1,Pin_1*%
%TO.N,VCC*%
X156630000Y-71860000D03*
D12*
%TO.P,GY-271,2,Pin_2*%
%TO.N,GND*%
X156630000Y-69320000D03*
%TO.P,GY-271,3,Pin_3*%
%TO.N,SCL*%
X156630000Y-66780000D03*
%TO.P,GY-271,4,Pin_4*%
%TO.N,SDA*%
X156630000Y-64240000D03*
%TO.P,GY-271,5,Pin_5*%
%TO.N,unconnected-(GY-271-Pin_5-Pad5)*%
X156630000Y-61700000D03*
%TD*%
D11*
%TO.P,LCD,1,Pin_1*%
%TO.N,GND*%
X129520000Y-53830000D03*
D12*
%TO.P,LCD,2,Pin_2*%
%TO.N,VCC*%
X132060000Y-53830000D03*
%TO.P,LCD,3,Pin_3*%
%TO.N,lcd_data*%
X134600000Y-53830000D03*
%TO.P,LCD,4,Pin_4*%
%TO.N,lcd_wr*%
X137140000Y-53830000D03*
%TO.P,LCD,5,Pin_5*%
%TO.N,lcd_cs*%
X139680000Y-53830000D03*
%TD*%
D10*
%TO.P,SWright1,1,A*%
%TO.N,B4*%
X161300000Y-47050000D03*
X161300000Y-40550000D03*
%TO.P,SWright1,2,B*%
%TO.N,GND*%
X165800000Y-47050000D03*
X165800000Y-40550000D03*
%TD*%
D11*
%TO.P,Serial1,3,Pin_3*%
%TO.N,GND*%
X154820000Y-33340000D03*
D12*
%TO.P,Serial1,2,Pin_2*%
%TO.N,Net-(ESP32-S1-RXD0{slash}IO3)*%
X157360000Y-33340000D03*
D13*
%TO.P,Serial1,1,Pin_1*%
%TO.N,Net-(ESP32-S1-TXD0{slash}IO1)*%
X159900000Y-33340000D03*
%TD*%
D10*
%TO.P,SWleft1,1,A*%
%TO.N,B3*%
X161300000Y-56600000D03*
X161300000Y-50100000D03*
%TO.P,SWleft1,2,B*%
%TO.N,GND*%
X165800000Y-56600000D03*
X165800000Y-50100000D03*
%TD*%
D11*
%TO.P,Oled,1,Pin_1*%
%TO.N,GND*%
X138320000Y-57310000D03*
D12*
%TO.P,Oled,2,Pin_2*%
%TO.N,VCC*%
X135780000Y-57310000D03*
%TO.P,Oled,3,Pin_3*%
%TO.N,SCL*%
X133240000Y-57310000D03*
%TO.P,Oled,4,Pin_4*%
%TO.N,SDA*%
X130700000Y-57310000D03*
%TD*%
D10*
%TO.P,SWb1,1,A*%
%TO.N,B6*%
X173700000Y-66150000D03*
X173700000Y-59650000D03*
%TO.P,SWb1,2,B*%
%TO.N,GND*%
X178200000Y-66150000D03*
X178200000Y-59650000D03*
%TD*%
%TO.P,SWa1,1,A*%
%TO.N,B5*%
X161300000Y-66200000D03*
X161300000Y-59700000D03*
%TO.P,SWa1,2,B*%
%TO.N,GND*%
X165800000Y-66200000D03*
X165800000Y-59700000D03*
%TD*%
%TO.P,SWup1,1,A*%
%TO.N,B1*%
X152000000Y-56600000D03*
X152000000Y-50100000D03*
%TO.P,SWup1,2,B*%
%TO.N,GND*%
X156500000Y-56600000D03*
X156500000Y-50100000D03*
%TD*%
D14*
%TO.P,Q1,1,B*%
%TO.N,Net-(Q1-B)*%
X129500000Y-68050000D03*
%TO.P,Q1,2,E*%
%TO.N,Net-(Q1-E)*%
X129500000Y-69950000D03*
%TO.P,Q1,3,C*%
%TO.N,Net-(BT1-+)*%
X127625000Y-69000000D03*
%TD*%
D15*
%TO.P,R6,1*%
%TO.N,Net-(LED1-K)*%
X114012500Y-46500000D03*
%TO.P,R6,2*%
%TO.N,GND*%
X112187500Y-46500000D03*
%TD*%
D16*
%TO.P,R1,1*%
%TO.N,RX2*%
X145200000Y-54587500D03*
%TO.P,R1,2*%
%TO.N,Net-(GPS1-TXD)*%
X145200000Y-56412500D03*
%TD*%
%TO.P,R2,1*%
%TO.N,TX2*%
X147000000Y-54587500D03*
%TO.P,R2,2*%
%TO.N,Net-(GPS1-RXD)*%
X147000000Y-56412500D03*
%TD*%
D17*
%TO.P,ESP,*%
%TO.N,*%
X164350000Y-75600000D03*
X164350000Y-73390000D03*
X157050000Y-75600000D03*
X157050000Y-73390000D03*
D18*
%TO.P,ESP,1,A*%
%TO.N,VCC*%
X162950000Y-72740000D03*
%TO.P,ESP,2,B*%
%TO.N,+3V3*%
X159950000Y-72740000D03*
%TO.P,ESP,3,C*%
%TO.N,unconnected-(ESP1-C-Pad3)*%
X158450000Y-72740000D03*
%TD*%
D19*
%TO.P,BT1,1,+*%
%TO.N,Net-(BT1-+)*%
X117250000Y-55775000D03*
%TO.P,BT1,2,-*%
%TO.N,GND*%
X117250000Y-57025000D03*
D20*
%TO.P,BT1,MP*%
%TO.N,N/C*%
X119950000Y-53525000D03*
X119950000Y-59275000D03*
%TD*%
D21*
%TO.P,C5,1*%
%TO.N,+BATT*%
X133362500Y-69000000D03*
%TO.P,C5,2*%
%TO.N,GND*%
X135437500Y-69000000D03*
%TD*%
D15*
%TO.P,R3,1*%
%TO.N,Net-(U3-Prog)*%
X123800000Y-63500000D03*
%TO.P,R3,2*%
%TO.N,GND*%
X121975000Y-63500000D03*
%TD*%
D22*
%TO.P,U3,1,Isense*%
%TO.N,Net-(Q1-E)*%
X121552500Y-69950000D03*
%TO.P,U3,2,GND*%
%TO.N,GND*%
X121552500Y-69000000D03*
%TO.P,U3,3,VCC*%
%TO.N,Net-(U3-VCC)*%
X121552500Y-68050000D03*
%TO.P,U3,4,Prog*%
%TO.N,Net-(U3-Prog)*%
X124972500Y-68050000D03*
%TO.P,U3,5,BATT*%
%TO.N,Net-(BT1-+)*%
X124972500Y-69000000D03*
%TO.P,U3,6,DRIVE*%
%TO.N,Net-(Q1-B)*%
X124972500Y-69950000D03*
%TD*%
D23*
%TO.P,ESP32-S,1,GND*%
%TO.N,GND*%
X131195000Y-33300000D03*
%TO.P,ESP32-S,2,VDD*%
%TO.N,VCC*%
X132465000Y-33300000D03*
%TO.P,ESP32-S,3,EN*%
%TO.N,Net-(ESP32-S1-EN)*%
X133735000Y-33300000D03*
%TO.P,ESP32-S,4,SENSOR_VP*%
%TO.N,unconnected-(ESP32-S1-SENSOR_VP-Pad4)*%
X135005000Y-33300000D03*
%TO.P,ESP32-S,5,SENSOR_VN*%
%TO.N,unconnected-(ESP32-S1-SENSOR_VN-Pad5)*%
X136275000Y-33300000D03*
%TO.P,ESP32-S,6,IO34*%
%TO.N,unconnected-(ESP32-S1-IO34-Pad6)*%
X137545000Y-33300000D03*
%TO.P,ESP32-S,7,IO35*%
%TO.N,unconnected-(ESP32-S1-IO35-Pad7)*%
X138815000Y-33300000D03*
%TO.P,ESP32-S,8,IO32*%
%TO.N,Net-(ESP32-S1-IO32)*%
X140085000Y-33300000D03*
%TO.P,ESP32-S,9,IO33*%
%TO.N,battery_level*%
X141355000Y-33300000D03*
%TO.P,ESP32-S,10,IO25*%
%TO.N,B4*%
X142625000Y-33300000D03*
%TO.P,ESP32-S,11,IO26*%
%TO.N,B5*%
X143895000Y-33300000D03*
%TO.P,ESP32-S,12,IO27*%
%TO.N,B6*%
X145165000Y-33300000D03*
%TO.P,ESP32-S,13,IO14*%
%TO.N,lcd_data*%
X146435000Y-33300000D03*
%TO.P,ESP32-S,14,IO12*%
%TO.N,lcd_cs*%
X147705000Y-33300000D03*
D24*
%TO.P,ESP32-S,15,GND*%
%TO.N,GND*%
X148800000Y-36335000D03*
%TO.P,ESP32-S,16,IO13*%
%TO.N,lcd_wr*%
X148800000Y-37605000D03*
%TO.P,ESP32-S,17,SHD/SD2*%
%TO.N,unconnected-(ESP32-S1-SHD{slash}SD2-Pad17)*%
X148800000Y-38875000D03*
%TO.P,ESP32-S,18,SWP/SD3*%
%TO.N,unconnected-(ESP32-S1-SWP{slash}SD3-Pad18)*%
X148800000Y-40145000D03*
%TO.P,ESP32-S,19,SCS/CMD*%
%TO.N,unconnected-(ESP32-S1-SCS{slash}CMD-Pad19)*%
X148800000Y-41415000D03*
%TO.P,ESP32-S,20,SCK/CLK*%
%TO.N,unconnected-(ESP32-S1-SCK{slash}CLK-Pad20)*%
X148800000Y-42685000D03*
%TO.P,ESP32-S,21,SDO/SD0*%
%TO.N,unconnected-(ESP32-S1-SDO{slash}SD0-Pad21)*%
X148800000Y-43955000D03*
%TO.P,ESP32-S,22,SDI/SD1*%
%TO.N,unconnected-(ESP32-S1-SDI{slash}SD1-Pad22)*%
X148800000Y-45225000D03*
%TO.P,ESP32-S,23,IO15*%
%TO.N,B3*%
X148800000Y-46495000D03*
%TO.P,ESP32-S,24,IO2*%
%TO.N,B1*%
X148800000Y-47765000D03*
D23*
%TO.P,ESP32-S,25,IO0*%
%TO.N,Net-(ESP32-S1-IO0)*%
X147705000Y-50800000D03*
%TO.P,ESP32-S,26,IO4*%
%TO.N,B2*%
X146435000Y-50800000D03*
%TO.P,ESP32-S,27,IO16*%
%TO.N,RX2*%
X145165000Y-50800000D03*
%TO.P,ESP32-S,28,IO17*%
%TO.N,TX2*%
X143895000Y-50800000D03*
%TO.P,ESP32-S,29,IO5*%
%TO.N,CS*%
X142625000Y-50800000D03*
%TO.P,ESP32-S,30,IO18*%
%TO.N,CLK*%
X141355000Y-50800000D03*
%TO.P,ESP32-S,31,IO19*%
%TO.N,MISO*%
X140085000Y-50800000D03*
%TO.P,ESP32-S,32,NC*%
%TO.N,unconnected-(ESP32-S1-NC-Pad32)*%
X138815000Y-50800000D03*
%TO.P,ESP32-S,33,IO21*%
%TO.N,SDA*%
X137545000Y-50800000D03*
%TO.P,ESP32-S,34,RXD0/IO3*%
%TO.N,Net-(ESP32-S1-RXD0{slash}IO3)*%
X136275000Y-50800000D03*
%TO.P,ESP32-S,35,TXD0/IO1*%
%TO.N,Net-(ESP32-S1-TXD0{slash}IO1)*%
X135005000Y-50800000D03*
%TO.P,ESP32-S,36,IO22*%
%TO.N,SCL*%
X133735000Y-50800000D03*
%TO.P,ESP32-S,37,IO23*%
%TO.N,MOSI*%
X132465000Y-50800000D03*
%TO.P,ESP32-S,38,GND*%
%TO.N,GND*%
X131195000Y-50800000D03*
%TD*%
D21*
%TO.P,C7,1*%
%TO.N,+3V3*%
X134462500Y-65700000D03*
%TO.P,C7,2*%
%TO.N,GND*%
X136537500Y-65700000D03*
%TD*%
D25*
%TO.P,LED,1,K*%
%TO.N,Net-(LED1-K)*%
X114000000Y-44100000D03*
D26*
%TO.P,LED,2,A*%
%TO.N,Net-(ESP32-S1-IO32)*%
X114000000Y-41560000D03*
%TD*%
D17*
%TO.P,MAIN,*%
%TO.N,*%
X133250000Y-75555000D03*
X133250000Y-73345000D03*
X125950000Y-75555000D03*
X125950000Y-73345000D03*
D18*
%TO.P,MAIN,1,A*%
%TO.N,+BATT*%
X131850000Y-72695000D03*
%TO.P,MAIN,2,B*%
%TO.N,Net-(BT1-+)*%
X128850000Y-72695000D03*
%TO.P,MAIN,3,C*%
%TO.N,unconnected-(MAIN1-C-Pad3)*%
X127350000Y-72695000D03*
%TD*%
D21*
%TO.P,C6,1*%
%TO.N,+3V3*%
X134462500Y-63300000D03*
%TO.P,C6,2*%
%TO.N,GND*%
X136537500Y-63300000D03*
%TD*%
D14*
%TO.P,U1,1,GND*%
%TO.N,GND*%
X130400000Y-63100000D03*
%TO.P,U1,2,VO*%
%TO.N,+3V3*%
X130400000Y-65000000D03*
%TO.P,U1,3,VI*%
%TO.N,+BATT*%
X128525000Y-64050000D03*
%TD*%
D15*
%TO.P,R5,1*%
%TO.N,VCC*%
X126512500Y-53800000D03*
%TO.P,R5,2*%
%TO.N,Net-(ESP32-S1-EN)*%
X124687500Y-53800000D03*
%TD*%
D27*
%TO.P,C1,1*%
%TO.N,Net-(BT1-+)*%
X125737500Y-61500000D03*
%TO.P,C1,2*%
%TO.N,GND*%
X123662500Y-61500000D03*
%TD*%
D28*
%TO.P,microsd,1,DAT2*%
%TO.N,unconnected-(microsd1-DAT2-Pad1)*%
X144905000Y-72100000D03*
%TO.P,microsd,2,DAT3/CD*%
%TO.N,CS*%
X146005000Y-72100000D03*
%TO.P,microsd,3,CMD*%
%TO.N,MISO*%
X147105000Y-72100000D03*
%TO.P,microsd,4,VDD*%
%TO.N,VCC*%
X148205000Y-72100000D03*
%TO.P,microsd,5,CLK*%
%TO.N,CLK*%
X149305000Y-72100000D03*
%TO.P,microsd,6,VSS*%
%TO.N,GND*%
X150405000Y-72100000D03*
%TO.P,microsd,7,DAT0*%
%TO.N,MOSI*%
X151505000Y-72100000D03*
%TO.P,microsd,8,DAT1*%
%TO.N,unconnected-(microsd1-DAT1-Pad8)*%
X152605000Y-72100000D03*
D29*
%TO.P,microsd,9,SHIELD*%
%TO.N,GND*%
X153730000Y-62875000D03*
D30*
%TO.P,microsd,10*%
%TO.N,N/C*%
X142505000Y-61300000D03*
D31*
%TO.P,microsd,11*%
X154055000Y-64375000D03*
D32*
X153805000Y-71975000D03*
D33*
X142455000Y-71975000D03*
D34*
X142105000Y-63725000D03*
%TD*%
D21*
%TO.P,C2,1*%
%TO.N,Net-(U3-VCC)*%
X121562500Y-65900000D03*
%TO.P,C2,2*%
%TO.N,GND*%
X123637500Y-65900000D03*
%TD*%
D35*
%TO.P,J1,A1*%
%TO.N,N/C*%
X114725000Y-56475000D03*
%TO.P,J1,A4*%
X114725000Y-55625000D03*
%TO.P,J1,A5,CC1*%
%TO.N,Net-(J1-CC1)*%
X114725000Y-54775000D03*
%TO.P,J1,A6*%
%TO.N,N/C*%
X114725000Y-53925000D03*
%TO.P,J1,A7*%
X114725000Y-53075000D03*
%TO.P,J1,A8*%
X114725000Y-52225000D03*
%TO.P,J1,A9,VBUS*%
%TO.N,Net-(U3-VCC)*%
X114725000Y-51375000D03*
%TO.P,J1,A12,GND*%
%TO.N,GND*%
X114725000Y-50525000D03*
%TO.P,J1,B1*%
%TO.N,N/C*%
X113375000Y-50525000D03*
%TO.P,J1,B4*%
X113375000Y-51375000D03*
%TO.P,J1,B5,CC2*%
%TO.N,Net-(J1-CC2)*%
X113375000Y-52225000D03*
%TO.P,J1,B6*%
%TO.N,N/C*%
X113375000Y-53075000D03*
%TO.P,J1,B7*%
X113375000Y-53925000D03*
%TO.P,J1,B8*%
X113375000Y-54775000D03*
%TO.P,J1,B9,VBUS*%
%TO.N,Net-(U3-VCC)*%
X113375000Y-55625000D03*
%TO.P,J1,B12,GND*%
%TO.N,GND*%
X113375000Y-56475000D03*
D36*
%TO.P,J1,S1,SHIELD*%
X110365000Y-57825000D03*
D37*
X113745000Y-57825000D03*
D36*
X110365000Y-49175000D03*
D37*
X113745000Y-49175000D03*
%TD*%
D38*
%TO.N,GND*%
X132700000Y-49300000D03*
X152800000Y-74800000D03*
X134000000Y-70700000D03*
X133400000Y-41700000D03*
X117400000Y-59100000D03*
X118100000Y-63700000D03*
X153700000Y-69700000D03*
X128300000Y-57800000D03*
X139100000Y-36800000D03*
X143100000Y-47900000D03*
X140500000Y-57200000D03*
%TO.N,+3V3*%
X132500000Y-63200000D03*
%TO.N,VCC*%
X138000000Y-60500000D03*
X149100000Y-69500000D03*
X126750000Y-52500000D03*
X135780000Y-55235500D03*
%TO.N,Net-(ESP32-S1-EN)*%
X124800000Y-52500000D03*
%TO.N,B2*%
X148800000Y-53200000D03*
%TO.N,+BATT*%
X118200000Y-49500000D03*
%TO.N,lcd_data*%
X146700000Y-31900000D03*
%TO.N,lcd_wr*%
X145850000Y-39250000D03*
%TO.N,lcd_cs*%
X150500000Y-33200000D03*
%TO.N,Net-(ESP32-S1-IO0)*%
X148800000Y-51200000D03*
%TO.N,Net-(ESP32-S1-RXD0{slash}IO3)*%
X137200000Y-52300000D03*
%TO.N,Net-(ESP32-S1-TXD0{slash}IO1)*%
X135600000Y-52500000D03*
%TO.N,Net-(GPS1-TXD)*%
X143800000Y-63200000D03*
%TO.N,Net-(GPS1-RXD)*%
X142500000Y-65300000D03*
%TO.N,battery_level*%
X140900000Y-31700000D03*
%TD*%
D39*
%TO.N,Net-(BT1-+)*%
X124972500Y-69000000D02*
X127625000Y-69000000D01*
X126800000Y-62562500D02*
X126800000Y-66750000D01*
X117250000Y-55775000D02*
X120012500Y-55775000D01*
X131100000Y-67700000D02*
X131100000Y-70445000D01*
X127625000Y-69000000D02*
X127625000Y-67575000D01*
X126800000Y-66750000D02*
X127625000Y-67575000D01*
X130400000Y-67000000D02*
X131100000Y-67700000D01*
X125737500Y-61500000D02*
X126800000Y-62562500D01*
X131100000Y-70445000D02*
X128850000Y-72695000D01*
X128200000Y-67000000D02*
X130400000Y-67000000D01*
X120012500Y-55775000D02*
X125737500Y-61500000D01*
X127625000Y-67575000D02*
X128200000Y-67000000D01*
%TO.N,GND*%
X113375000Y-56475000D02*
X113375000Y-57455000D01*
X114725000Y-50155000D02*
X113745000Y-49175000D01*
X113375000Y-57455000D02*
X113745000Y-57825000D01*
X114725000Y-50525000D02*
X114725000Y-50155000D01*
%TO.N,Net-(U3-VCC)*%
X114050000Y-55054595D02*
X113479595Y-55625000D01*
X109000000Y-59600000D02*
X115300000Y-65900000D01*
X113375000Y-55625000D02*
X110275000Y-55625000D01*
X109000000Y-56900000D02*
X109000000Y-59600000D01*
X121562500Y-68040000D02*
X121552500Y-68050000D01*
X114230026Y-51375000D02*
X114050000Y-51555026D01*
X121562500Y-65900000D02*
X121562500Y-68040000D01*
X113479595Y-55625000D02*
X113375000Y-55625000D01*
X114725000Y-51375000D02*
X114230026Y-51375000D01*
X114050000Y-51555026D02*
X114050000Y-55054595D01*
X115300000Y-65900000D02*
X121562500Y-65900000D01*
X110275000Y-55625000D02*
X109000000Y-56900000D01*
%TO.N,+3V3*%
X130400000Y-65000000D02*
X133762500Y-65000000D01*
X139500000Y-75800000D02*
X154500000Y-75800000D01*
X160200000Y-72990000D02*
X159950000Y-72740000D01*
X155700000Y-74600000D02*
X157900000Y-74600000D01*
X154500000Y-75800000D02*
X155700000Y-74600000D01*
X132600000Y-63300000D02*
X132500000Y-63200000D01*
X134462500Y-65700000D02*
X134462500Y-63300000D01*
X159700000Y-75500000D02*
X160200000Y-75000000D01*
X158800000Y-75500000D02*
X159700000Y-75500000D01*
X134462500Y-63300000D02*
X132600000Y-63300000D01*
X134462500Y-65700000D02*
X136900000Y-68137500D01*
X157900000Y-74600000D02*
X158800000Y-75500000D01*
X160200000Y-75000000D02*
X160200000Y-72990000D01*
X136900000Y-73200000D02*
X139500000Y-75800000D01*
X136900000Y-68137500D02*
X136900000Y-73200000D01*
X133762500Y-65000000D02*
X134462500Y-65700000D01*
%TO.N,CS*%
X145830000Y-73400000D02*
X141730000Y-73400000D01*
X146005000Y-72100000D02*
X146005000Y-73225000D01*
X141730000Y-73400000D02*
X140800000Y-72470000D01*
X140800000Y-72470000D02*
X140800000Y-59700000D01*
X142625000Y-57875000D02*
X142625000Y-50800000D01*
X146005000Y-73225000D02*
X145830000Y-73400000D01*
X140800000Y-59700000D02*
X142625000Y-57875000D01*
%TO.N,MISO*%
X139200000Y-72963604D02*
X139200000Y-60000000D01*
X139200000Y-60000000D02*
X141700000Y-57500000D01*
X147105000Y-73225000D02*
X146430000Y-73900000D01*
X140085000Y-51285000D02*
X140085000Y-50800000D01*
X140136396Y-73900000D02*
X139200000Y-72963604D01*
X146430000Y-73900000D02*
X140136396Y-73900000D01*
X141700000Y-57500000D02*
X141700000Y-52900000D01*
X141700000Y-52900000D02*
X140085000Y-51285000D01*
X147105000Y-72100000D02*
X147105000Y-73225000D01*
%TO.N,VCC*%
X150300000Y-50200000D02*
X150300000Y-57570000D01*
X135780000Y-55235500D02*
X135780000Y-57310000D01*
X155200000Y-61468299D02*
X155200000Y-70430000D01*
X135780000Y-58280000D02*
X135780000Y-57310000D01*
X148205000Y-72100000D02*
X148205000Y-70395000D01*
X132465000Y-34765000D02*
X146500000Y-48800000D01*
X146500000Y-48800000D02*
X148900000Y-48800000D01*
X162950000Y-72740000D02*
X162950000Y-71350000D01*
X148205000Y-70395000D02*
X149100000Y-69500000D01*
X162300000Y-70700000D02*
X157790000Y-70700000D01*
X148900000Y-48800000D02*
X150300000Y-50200000D01*
X152330000Y-59600000D02*
X153331701Y-59600000D01*
X157790000Y-70700000D02*
X156630000Y-71860000D01*
X126750000Y-52500000D02*
X126750000Y-53562500D01*
X150300000Y-57570000D02*
X152330000Y-59600000D01*
X153331701Y-59600000D02*
X155200000Y-61468299D01*
X132465000Y-33300000D02*
X132465000Y-34765000D01*
X126750000Y-53562500D02*
X126512500Y-53800000D01*
X138000000Y-60500000D02*
X135780000Y-58280000D01*
X162950000Y-71350000D02*
X162300000Y-70700000D01*
X155200000Y-70430000D02*
X156630000Y-71860000D01*
%TO.N,CLK*%
X153330000Y-67970000D02*
X152500000Y-68800000D01*
X149700000Y-60050000D02*
X151600000Y-61950000D01*
X153330000Y-64930000D02*
X153330000Y-67970000D01*
X151600000Y-61950000D02*
X151600000Y-63200000D01*
X152500000Y-68800000D02*
X151400000Y-68800000D01*
X141355000Y-49800000D02*
X141755000Y-49400000D01*
X149305000Y-70895000D02*
X149305000Y-72100000D01*
X151600000Y-63200000D02*
X153330000Y-64930000D01*
X148500000Y-49400000D02*
X149700000Y-50600000D01*
X141755000Y-49400000D02*
X148500000Y-49400000D01*
X141355000Y-50800000D02*
X141355000Y-49800000D01*
X149700000Y-50600000D02*
X149700000Y-60050000D01*
X151400000Y-68800000D02*
X149305000Y-70895000D01*
%TO.N,MOSI*%
X138600000Y-73000000D02*
X138600000Y-63000000D01*
X139950000Y-74350000D02*
X138600000Y-73000000D01*
X130805000Y-53395000D02*
X132465000Y-51735000D01*
X132465000Y-51735000D02*
X132465000Y-50800000D01*
X134400000Y-58800000D02*
X132700000Y-58800000D01*
X138600000Y-63000000D02*
X134400000Y-58800000D01*
X132700000Y-58800000D02*
X132000000Y-58100000D01*
X132000000Y-58100000D02*
X132000000Y-55981701D01*
X150750000Y-74350000D02*
X139950000Y-74350000D01*
X151505000Y-73595000D02*
X150750000Y-74350000D01*
X132000000Y-55981701D02*
X130805000Y-54786701D01*
X130805000Y-54786701D02*
X130805000Y-53395000D01*
X151505000Y-72100000D02*
X151505000Y-73595000D01*
%TO.N,SCL*%
X133735000Y-52155000D02*
X133240000Y-52650000D01*
X133240000Y-57310000D02*
X133240000Y-52650000D01*
X133735000Y-50800000D02*
X133735000Y-52155000D01*
%TO.N,SDA*%
X129487919Y-57310000D02*
X127800000Y-55622081D01*
X130030000Y-52570000D02*
X130400000Y-52200000D01*
X127800000Y-55622081D02*
X127800000Y-53200000D01*
X130400000Y-49400000D02*
X131300000Y-48500000D01*
X131300000Y-48500000D02*
X136245000Y-48500000D01*
X137545000Y-49800000D02*
X137545000Y-50800000D01*
X130400000Y-52200000D02*
X130400000Y-49400000D01*
X130700000Y-57310000D02*
X129487919Y-57310000D01*
X128430000Y-52570000D02*
X130030000Y-52570000D01*
X127800000Y-53200000D02*
X128430000Y-52570000D01*
X136245000Y-48500000D02*
X137545000Y-49800000D01*
%TO.N,Net-(Q1-B)*%
X128090749Y-69950000D02*
X129500000Y-68540749D01*
X124972500Y-69950000D02*
X128090749Y-69950000D01*
X129500000Y-68540749D02*
X129500000Y-68050000D01*
%TO.N,Net-(Q1-E)*%
X122702500Y-71100000D02*
X121552500Y-69950000D01*
X129500000Y-69950000D02*
X128350000Y-71100000D01*
X128350000Y-71100000D02*
X122702500Y-71100000D01*
%TO.N,RX2*%
X145200000Y-54587500D02*
X145165000Y-54552500D01*
X145165000Y-54552500D02*
X145165000Y-50800000D01*
%TO.N,TX2*%
X143895000Y-54695000D02*
X144700000Y-55500000D01*
X143895000Y-50800000D02*
X143895000Y-54695000D01*
X146087500Y-55500000D02*
X147000000Y-54587500D01*
X144700000Y-55500000D02*
X146087500Y-55500000D01*
%TO.N,Net-(U3-Prog)*%
X124972500Y-64672500D02*
X124972500Y-68050000D01*
X124972500Y-64672500D02*
X123800000Y-63500000D01*
%TO.N,Net-(ESP32-S1-EN)*%
X124800000Y-53687500D02*
X124687500Y-53800000D01*
X120300000Y-49900000D02*
X120300000Y-34000000D01*
X124800000Y-52500000D02*
X124800000Y-53687500D01*
X122200000Y-32100000D02*
X133535000Y-32100000D01*
X124800000Y-52500000D02*
X122900000Y-52500000D01*
X122900000Y-52500000D02*
X120300000Y-49900000D01*
X120300000Y-34000000D02*
X122200000Y-32100000D01*
X133535000Y-32100000D02*
X133735000Y-32300000D01*
X133735000Y-32300000D02*
X133735000Y-33300000D01*
%TO.N,B5*%
X161300000Y-59700000D02*
X161300000Y-66200000D01*
X144995000Y-35400000D02*
X150200000Y-35400000D01*
X160000000Y-45200000D02*
X162600000Y-45200000D01*
X143895000Y-33300000D02*
X143895000Y-34300000D01*
X143895000Y-34300000D02*
X144995000Y-35400000D01*
X163500000Y-57500000D02*
X161300000Y-59700000D01*
X163500000Y-46100000D02*
X163500000Y-57500000D01*
X150200000Y-35400000D02*
X160000000Y-45200000D01*
X162600000Y-45200000D02*
X163500000Y-46100000D01*
%TO.N,B6*%
X173700000Y-66150000D02*
X173700000Y-59650000D01*
X166050000Y-43150000D02*
X173200000Y-50300000D01*
X173200000Y-59150000D02*
X173700000Y-59650000D01*
X160250000Y-43150000D02*
X166050000Y-43150000D01*
X145165000Y-33300000D02*
X145165000Y-34300000D01*
X173200000Y-50300000D02*
X173200000Y-59150000D01*
X145565000Y-34700000D02*
X151800000Y-34700000D01*
X145165000Y-34300000D02*
X145565000Y-34700000D01*
X151800000Y-34700000D02*
X160250000Y-43150000D01*
%TO.N,B2*%
X146435000Y-50800000D02*
X146435000Y-51335000D01*
X148300000Y-53200000D02*
X148800000Y-53200000D01*
X146435000Y-51335000D02*
X148300000Y-53200000D01*
%TO.N,B3*%
X148800000Y-46495000D02*
X157695000Y-46495000D01*
X157695000Y-46495000D02*
X161300000Y-50100000D01*
%TO.N,B4*%
X149900000Y-31000000D02*
X159450000Y-40550000D01*
X143800000Y-31000000D02*
X149900000Y-31000000D01*
X159450000Y-40550000D02*
X161300000Y-40550000D01*
X142625000Y-32175000D02*
X143800000Y-31000000D01*
X142625000Y-33300000D02*
X142625000Y-32175000D01*
%TO.N,B1*%
X148800000Y-47765000D02*
X149665000Y-47765000D01*
X152000000Y-56600000D02*
X152000000Y-50100000D01*
X149665000Y-47765000D02*
X152000000Y-50100000D01*
%TO.N,Net-(ESP32-S1-IO32)*%
X140085000Y-32300000D02*
X139435000Y-31650000D01*
X122013604Y-31650000D02*
X119400000Y-34263604D01*
X140085000Y-33300000D02*
X140085000Y-32300000D01*
X119400000Y-38400000D02*
X116240000Y-41560000D01*
X116240000Y-41560000D02*
X114000000Y-41560000D01*
X119400000Y-34263604D02*
X119400000Y-38400000D01*
X139435000Y-31650000D02*
X122013604Y-31650000D01*
%TO.N,+BATT*%
X118200000Y-49500000D02*
X118300000Y-49500000D01*
X118475000Y-49500000D02*
X118200000Y-49500000D01*
X128525000Y-65925000D02*
X128525000Y-64050000D01*
X128525000Y-59550000D02*
X118475000Y-49500000D01*
X130912500Y-66550000D02*
X129150000Y-66550000D01*
X131850000Y-72695000D02*
X131850000Y-70512500D01*
X129150000Y-66550000D02*
X128525000Y-65925000D01*
X128525000Y-64050000D02*
X128525000Y-59550000D01*
X133025000Y-68662500D02*
X130912500Y-66550000D01*
X131850000Y-70512500D02*
X133362500Y-69000000D01*
%TO.N,lcd_data*%
X146435000Y-32265000D02*
X146700000Y-31900000D01*
X146700000Y-31900000D02*
X146600000Y-32100000D01*
X146435000Y-33300000D02*
X146435000Y-32265000D01*
%TO.N,lcd_wr*%
X145850000Y-39250000D02*
X147495000Y-37605000D01*
X147495000Y-37605000D02*
X148800000Y-37605000D01*
%TO.N,lcd_cs*%
X147705000Y-33300000D02*
X150400000Y-33300000D01*
X150400000Y-33300000D02*
X150500000Y-33200000D01*
%TO.N,Net-(ESP32-S1-IO0)*%
X148400000Y-50800000D02*
X148800000Y-51200000D01*
X147705000Y-50800000D02*
X148400000Y-50800000D01*
%TO.N,Net-(ESP32-S1-RXD0{slash}IO3)*%
X137300000Y-52300000D02*
X137200000Y-52200000D01*
X137200000Y-52300000D02*
X137300000Y-52300000D01*
X137200000Y-52200000D02*
X137200000Y-52300000D01*
X136275000Y-51275000D02*
X137200000Y-52200000D01*
X136275000Y-50800000D02*
X136275000Y-51275000D01*
%TO.N,Net-(ESP32-S1-TXD0{slash}IO1)*%
X135005000Y-51905000D02*
X135600000Y-52500000D01*
X135005000Y-50800000D02*
X135005000Y-51905000D01*
%TO.N,Net-(GPS1-TXD)*%
X145200000Y-61800000D02*
X145200000Y-56412500D01*
X143800000Y-63200000D02*
X145200000Y-61800000D01*
%TO.N,Net-(GPS1-RXD)*%
X142500000Y-65300000D02*
X144100000Y-65300000D01*
X147000000Y-62400000D02*
X147000000Y-56412500D01*
X144100000Y-65300000D02*
X147000000Y-62400000D01*
%TO.N,Net-(LED1-K)*%
X114012500Y-44112500D02*
X114000000Y-44100000D01*
X114012500Y-46500000D02*
X114012500Y-44112500D01*
%TO.N,battery_level*%
X141355000Y-32155000D02*
X140900000Y-31700000D01*
X141355000Y-33300000D02*
X141355000Y-32155000D01*
%TD*%
%TA.AperFunction,Conductor*%
%TO.N,GND*%
G36*
X162001257Y-30500525D02*
G01*
X162947901Y-30520094D01*
X162953011Y-30520305D01*
X163879087Y-30577801D01*
X163897278Y-30578945D01*
X163902129Y-30579350D01*
X164653985Y-30657326D01*
X164849055Y-30677829D01*
X164853836Y-30678429D01*
X165526153Y-30776383D01*
X165795853Y-30816209D01*
X165800580Y-30817003D01*
X166426894Y-30934870D01*
X166736102Y-30993855D01*
X166740700Y-30994825D01*
X167335401Y-31132411D01*
X167668110Y-31210447D01*
X167672627Y-31211598D01*
X168051990Y-31316055D01*
X168243065Y-31368667D01*
X168301308Y-31384928D01*
X168590330Y-31465625D01*
X168594773Y-31466957D01*
X168751443Y-31517147D01*
X169145286Y-31643317D01*
X169169268Y-31651109D01*
X169501104Y-31758928D01*
X169505410Y-31760417D01*
X169963021Y-31928165D01*
X170038580Y-31955863D01*
X170398937Y-32089878D01*
X170403042Y-32091491D01*
X170920237Y-32305720D01*
X171282138Y-32457849D01*
X171286216Y-32459652D01*
X171788126Y-32692295D01*
X172149302Y-32862252D01*
X172153214Y-32864178D01*
X172640376Y-33114941D01*
X172998864Y-33302354D01*
X173002650Y-33304418D01*
X173475229Y-33572938D01*
X173829414Y-33777428D01*
X173833049Y-33779611D01*
X174290897Y-34065414D01*
X174639419Y-34286592D01*
X174642914Y-34288893D01*
X174852501Y-34432089D01*
X175085940Y-34591582D01*
X175427623Y-34829058D01*
X175430978Y-34831474D01*
X175858846Y-35150520D01*
X175940640Y-35212605D01*
X176192555Y-35403818D01*
X176195657Y-35406254D01*
X176608202Y-35741269D01*
X176727951Y-35840334D01*
X176932862Y-36009853D01*
X176935899Y-36012449D01*
X177332537Y-36362715D01*
X177647356Y-36646178D01*
X177650222Y-36648842D01*
X177838525Y-36829518D01*
X178030761Y-37013968D01*
X178334716Y-37311623D01*
X178337430Y-37314365D01*
X178701468Y-37693769D01*
X178992099Y-38003260D01*
X178993834Y-38005107D01*
X178996385Y-38007908D01*
X179262180Y-38308892D01*
X179343483Y-38400958D01*
X179623502Y-38725364D01*
X179625891Y-38728218D01*
X179955690Y-39134340D01*
X180222700Y-39471222D01*
X180224927Y-39474118D01*
X180536949Y-39892566D01*
X180790338Y-40241326D01*
X180792403Y-40244257D01*
X181086307Y-40674425D01*
X181325445Y-41034358D01*
X181327349Y-41037314D01*
X181602759Y-41478511D01*
X181827091Y-41848927D01*
X181828836Y-41851901D01*
X182085382Y-42303405D01*
X182294490Y-42683771D01*
X182296027Y-42686661D01*
X182467302Y-43019399D01*
X182533385Y-43147780D01*
X182584678Y-43251110D01*
X182726658Y-43537126D01*
X182728090Y-43540111D01*
X182945920Y-44010063D01*
X183123009Y-44407814D01*
X183124289Y-44410792D01*
X183322298Y-44888829D01*
X183482778Y-45294153D01*
X183483908Y-45297119D01*
X183661859Y-45782562D01*
X183805389Y-46194727D01*
X183806373Y-46197672D01*
X183963984Y-46689659D01*
X184090252Y-47107880D01*
X184091094Y-47110797D01*
X184228162Y-47608599D01*
X184336884Y-48032043D01*
X184337587Y-48034925D01*
X184453917Y-48537747D01*
X184544883Y-48965709D01*
X184545452Y-48968551D01*
X184640857Y-49475504D01*
X184713872Y-49907191D01*
X184714312Y-49909987D01*
X184788661Y-50420288D01*
X184843559Y-50854852D01*
X184843874Y-50857595D01*
X184897060Y-51370419D01*
X184933725Y-51807049D01*
X184933921Y-51809734D01*
X184965789Y-52323036D01*
X184965918Y-52325527D01*
X184984218Y-52762151D01*
X184984301Y-52764781D01*
X184994930Y-53278918D01*
X184994956Y-53281481D01*
X184994956Y-53718517D01*
X184994930Y-53721080D01*
X184984301Y-54235217D01*
X184984218Y-54237847D01*
X184965918Y-54674471D01*
X184965789Y-54676962D01*
X184933921Y-55190260D01*
X184933724Y-55192952D01*
X184897060Y-55629580D01*
X184843874Y-56142402D01*
X184843558Y-56145146D01*
X184788661Y-56579711D01*
X184740430Y-56910750D01*
X184716595Y-57074349D01*
X184714319Y-57089968D01*
X184713879Y-57092764D01*
X184669059Y-57357757D01*
X184647983Y-57482371D01*
X184640861Y-57524477D01*
X184545452Y-58031447D01*
X184544882Y-58034290D01*
X184453917Y-58462252D01*
X184337587Y-58965073D01*
X184336883Y-58967955D01*
X184228162Y-59391400D01*
X184091094Y-59889201D01*
X184090252Y-59892118D01*
X183963984Y-60310340D01*
X183806373Y-60802326D01*
X183805389Y-60805271D01*
X183661859Y-61217437D01*
X183483909Y-61702879D01*
X183482778Y-61705845D01*
X183322298Y-62111170D01*
X183124290Y-62589205D01*
X183123010Y-62592184D01*
X182945920Y-62989936D01*
X182728090Y-63459888D01*
X182726657Y-63462873D01*
X182533387Y-63852215D01*
X182296038Y-64313317D01*
X182294450Y-64316300D01*
X182085388Y-64696584D01*
X181828835Y-65148098D01*
X181827090Y-65151071D01*
X181602759Y-65521488D01*
X181327350Y-65962684D01*
X181325445Y-65965640D01*
X181086307Y-66325573D01*
X180792403Y-66755741D01*
X180790338Y-66758672D01*
X180536949Y-67107433D01*
X180224927Y-67525880D01*
X180222700Y-67528776D01*
X179955691Y-67865659D01*
X179625892Y-68271781D01*
X179623502Y-68274635D01*
X179343483Y-68599041D01*
X178996387Y-68992088D01*
X178993834Y-68994891D01*
X178701468Y-69306230D01*
X178337430Y-69685633D01*
X178334715Y-69688375D01*
X178030761Y-69986030D01*
X177650233Y-70351146D01*
X177647356Y-70353820D01*
X177332538Y-70637284D01*
X176935900Y-70987549D01*
X176932863Y-70990145D01*
X176608189Y-71258740D01*
X176195723Y-71593692D01*
X176192525Y-71596203D01*
X175858846Y-71849479D01*
X175430978Y-72168525D01*
X175427624Y-72170940D01*
X175085941Y-72408416D01*
X174642929Y-72711095D01*
X174639419Y-72713407D01*
X174290920Y-72934571D01*
X173833048Y-73220388D01*
X173829387Y-73222586D01*
X173475192Y-73427082D01*
X173002661Y-73695574D01*
X172998852Y-73697651D01*
X172640331Y-73885081D01*
X172153256Y-74135799D01*
X172149303Y-74137745D01*
X171788126Y-74307703D01*
X171286217Y-74540346D01*
X171282123Y-74542155D01*
X170920206Y-74694292D01*
X170403103Y-74908481D01*
X170398874Y-74910143D01*
X170038580Y-75044136D01*
X169505437Y-75239572D01*
X169501077Y-75241079D01*
X169145286Y-75356682D01*
X168594793Y-75533035D01*
X168590309Y-75534379D01*
X168243065Y-75631332D01*
X167672663Y-75788390D01*
X167668061Y-75789563D01*
X167335373Y-75867595D01*
X166740763Y-76005159D01*
X166736049Y-76006154D01*
X166426655Y-76065174D01*
X165800625Y-76182987D01*
X165795807Y-76183796D01*
X165525935Y-76223648D01*
X165220791Y-76268106D01*
X165151614Y-76258292D01*
X165098725Y-76212636D01*
X165078914Y-76145634D01*
X165081297Y-76121208D01*
X165085965Y-76097741D01*
X165085966Y-76097740D01*
X165100500Y-76024674D01*
X165100500Y-75175326D01*
X165098883Y-75167199D01*
X165085966Y-75102261D01*
X165085966Y-75102260D01*
X165030601Y-75019399D01*
X164947740Y-74964034D01*
X164947739Y-74964033D01*
X164947738Y-74964033D01*
X164874675Y-74949500D01*
X164874674Y-74949500D01*
X163825326Y-74949500D01*
X163825325Y-74949500D01*
X163752261Y-74964033D01*
X163669399Y-75019399D01*
X163614033Y-75102261D01*
X163599500Y-75175325D01*
X163599500Y-76024674D01*
X163614033Y-76097738D01*
X163614033Y-76097739D01*
X163614034Y-76097740D01*
X163669399Y-76180601D01*
X163712606Y-76209471D01*
X163757411Y-76263082D01*
X163766119Y-76332407D01*
X163735965Y-76395435D01*
X163676523Y-76432154D01*
X163651401Y-76436334D01*
X163548910Y-76442697D01*
X162953017Y-76479693D01*
X162947896Y-76479905D01*
X162001258Y-76499474D01*
X161998695Y-76499500D01*
X128001305Y-76499500D01*
X127998742Y-76499474D01*
X127052104Y-76479905D01*
X127046983Y-76479693D01*
X126512990Y-76446540D01*
X126447299Y-76422739D01*
X126404904Y-76367201D01*
X126399266Y-76297559D01*
X126432173Y-76235924D01*
X126493179Y-76201865D01*
X126496370Y-76201184D01*
X126547740Y-76190966D01*
X126630601Y-76135601D01*
X126685966Y-76052740D01*
X126700500Y-75979674D01*
X132499499Y-75979674D01*
X132514033Y-76052738D01*
X132514033Y-76052739D01*
X132514034Y-76052740D01*
X132569399Y-76135601D01*
X132652260Y-76190966D01*
X132688792Y-76198232D01*
X132725325Y-76205500D01*
X132725326Y-76205500D01*
X133774675Y-76205500D01*
X133799029Y-76200655D01*
X133847740Y-76190966D01*
X133930601Y-76135601D01*
X133985966Y-76052740D01*
X134000500Y-75979674D01*
X134000500Y-75130326D01*
X133999404Y-75124818D01*
X133985966Y-75057261D01*
X133985966Y-75057260D01*
X133930601Y-74974399D01*
X133847740Y-74919034D01*
X133847739Y-74919033D01*
X133847738Y-74919033D01*
X133774675Y-74904500D01*
X133774674Y-74904500D01*
X132725326Y-74904500D01*
X132725325Y-74904500D01*
X132652261Y-74919033D01*
X132569399Y-74974399D01*
X132514033Y-75057261D01*
X132499499Y-75130325D01*
X132499499Y-75979674D01*
X126700500Y-75979674D01*
X126700500Y-75130326D01*
X126699404Y-75124818D01*
X126685966Y-75057261D01*
X126685966Y-75057260D01*
X126630601Y-74974399D01*
X126547740Y-74919034D01*
X126547739Y-74919033D01*
X126547738Y-74919033D01*
X126474675Y-74904500D01*
X126474674Y-74904500D01*
X125425326Y-74904500D01*
X125425325Y-74904500D01*
X125352261Y-74919033D01*
X125269399Y-74974399D01*
X125214033Y-75057261D01*
X125199500Y-75130325D01*
X125199500Y-75979674D01*
X125214033Y-76052738D01*
X125214033Y-76052739D01*
X125214034Y-76052740D01*
X125265479Y-76129735D01*
X125286356Y-76196411D01*
X125267871Y-76263791D01*
X125215892Y-76310480D01*
X125146922Y-76321656D01*
X125144499Y-76321328D01*
X124474204Y-76223668D01*
X124337574Y-76203493D01*
X124204191Y-76183796D01*
X124199373Y-76182987D01*
X123573344Y-76065174D01*
X123263950Y-76006154D01*
X123259236Y-76005159D01*
X122664627Y-75867595D01*
X122331937Y-75789563D01*
X122327335Y-75788390D01*
X121756934Y-75631332D01*
X121409689Y-75534379D01*
X121405205Y-75533035D01*
X120854713Y-75356682D01*
X120498922Y-75241079D01*
X120494562Y-75239572D01*
X119961419Y-75044136D01*
X119601124Y-74910144D01*
X119601121Y-74910143D01*
X119601120Y-74910142D01*
X119596894Y-74908482D01*
X119377154Y-74817463D01*
X119079775Y-74694284D01*
X118717875Y-74542155D01*
X118713782Y-74540346D01*
X118211873Y-74307704D01*
X117850696Y-74137746D01*
X117846742Y-74135799D01*
X117359668Y-73885081D01*
X117001147Y-73697651D01*
X116997337Y-73695574D01*
X116524807Y-73427082D01*
X116170610Y-73222586D01*
X116166949Y-73220387D01*
X115709079Y-72934571D01*
X115360579Y-72713406D01*
X115357070Y-72711095D01*
X114914060Y-72408417D01*
X114572375Y-72170940D01*
X114569043Y-72168542D01*
X114141122Y-71849456D01*
X113807461Y-71596193D01*
X113804325Y-71593731D01*
X113391809Y-71258740D01*
X113291571Y-71175816D01*
X113067136Y-70990145D01*
X113064099Y-70987549D01*
X112667462Y-70637284D01*
X112514991Y-70499999D01*
X115494356Y-70499999D01*
X115514891Y-70747816D01*
X115514891Y-70747819D01*
X115514892Y-70747821D01*
X115575937Y-70988881D01*
X115615175Y-71078334D01*
X115675825Y-71216604D01*
X115675827Y-71216607D01*
X115811836Y-71424785D01*
X115980256Y-71607738D01*
X115980259Y-71607740D01*
X116176485Y-71760470D01*
X116176487Y-71760471D01*
X116176491Y-71760474D01*
X116395190Y-71878828D01*
X116630386Y-71959571D01*
X116875665Y-72000500D01*
X117124335Y-72000500D01*
X117369614Y-71959571D01*
X117604810Y-71878828D01*
X117823509Y-71760474D01*
X118019744Y-71607738D01*
X118188164Y-71424785D01*
X118324173Y-71216607D01*
X118424063Y-70988881D01*
X118485108Y-70747821D01*
X118505643Y-70500000D01*
X118504538Y-70486670D01*
X118497797Y-70405315D01*
X118485108Y-70252179D01*
X118424063Y-70011119D01*
X118325456Y-69786317D01*
X118324174Y-69783395D01*
X118310916Y-69763102D01*
X118188164Y-69575215D01*
X118019744Y-69392262D01*
X117935910Y-69327011D01*
X117823514Y-69239529D01*
X117823510Y-69239526D01*
X117823509Y-69239526D01*
X117604810Y-69121172D01*
X117604806Y-69121170D01*
X117604805Y-69121170D01*
X117369615Y-69040429D01*
X117124335Y-68999500D01*
X116875665Y-68999500D01*
X116630384Y-69040429D01*
X116395194Y-69121170D01*
X116395190Y-69121171D01*
X116395190Y-69121172D01*
X116369348Y-69135157D01*
X116176485Y-69239529D01*
X115980259Y-69392259D01*
X115980256Y-69392261D01*
X115980256Y-69392262D01*
X115904091Y-69474999D01*
X115811837Y-69575214D01*
X115675825Y-69783395D01*
X115609532Y-69934530D01*
X115575937Y-70011119D01*
X115530817Y-70189293D01*
X115514891Y-70252183D01*
X115494356Y-70499999D01*
X112514991Y-70499999D01*
X112352642Y-70353820D01*
X112349764Y-70351145D01*
X112343673Y-70345301D01*
X112143603Y-70153334D01*
X111969238Y-69986031D01*
X111665282Y-69688375D01*
X111662568Y-69685633D01*
X111298531Y-69306230D01*
X111250985Y-69255599D01*
X111006151Y-68994877D01*
X111003612Y-68992088D01*
X110656516Y-68599040D01*
X110376496Y-68274634D01*
X110374107Y-68271780D01*
X110044309Y-67865659D01*
X109777298Y-67528776D01*
X109775071Y-67525880D01*
X109516602Y-67179251D01*
X109463042Y-67107422D01*
X109435768Y-67069882D01*
X109209643Y-66758648D01*
X109207595Y-66755741D01*
X108913692Y-66325574D01*
X108674553Y-65965640D01*
X108672649Y-65962684D01*
X108530227Y-65734528D01*
X108397225Y-65521463D01*
X108392278Y-65513294D01*
X108172879Y-65151024D01*
X108171162Y-65148097D01*
X108151161Y-65112897D01*
X107914612Y-64696584D01*
X107705480Y-64316176D01*
X107704000Y-64313393D01*
X107466613Y-63852215D01*
X107273312Y-63462814D01*
X107271935Y-63459944D01*
X107054072Y-62989921D01*
X107035718Y-62948696D01*
X106876978Y-62592159D01*
X106875728Y-62589251D01*
X106677701Y-62111170D01*
X106653588Y-62050267D01*
X106517193Y-61705774D01*
X106516105Y-61702920D01*
X106338131Y-61217411D01*
X106334163Y-61206018D01*
X106194606Y-60805264D01*
X106193625Y-60802326D01*
X106185904Y-60778226D01*
X106036013Y-60310336D01*
X106004784Y-60206898D01*
X105909735Y-59892082D01*
X105908924Y-59889273D01*
X105824942Y-59584268D01*
X108619633Y-59584268D01*
X108620216Y-59588942D01*
X108623548Y-59615676D01*
X108624500Y-59631013D01*
X108624500Y-59631116D01*
X108627918Y-59651602D01*
X108628657Y-59656670D01*
X108636107Y-59716438D01*
X108636185Y-59716682D01*
X108664827Y-59769608D01*
X108667171Y-59774162D01*
X108693634Y-59828292D01*
X108693777Y-59828482D01*
X108699579Y-59833824D01*
X108699581Y-59833826D01*
X108738108Y-59869293D01*
X108741780Y-59872817D01*
X114997850Y-66128887D01*
X115013977Y-66148746D01*
X115015994Y-66151834D01*
X115019916Y-66157836D01*
X115037993Y-66171906D01*
X115044894Y-66177277D01*
X115056412Y-66187449D01*
X115056481Y-66187518D01*
X115073389Y-66199590D01*
X115077494Y-66202650D01*
X115099219Y-66219560D01*
X115125044Y-66239660D01*
X115125233Y-66239757D01*
X115132801Y-66242010D01*
X115182959Y-66256943D01*
X115187819Y-66258499D01*
X115237340Y-66275500D01*
X115237342Y-66275500D01*
X115244796Y-66278059D01*
X115245029Y-66278093D01*
X115252908Y-66277767D01*
X115252911Y-66277768D01*
X115305192Y-66275605D01*
X115310315Y-66275500D01*
X120600501Y-66275500D01*
X120667540Y-66295185D01*
X120713295Y-66347989D01*
X120724501Y-66399500D01*
X120724501Y-66422872D01*
X120724853Y-66426152D01*
X120724854Y-66426159D01*
X120730909Y-66482484D01*
X120743849Y-66517178D01*
X120781204Y-66617331D01*
X120867454Y-66732546D01*
X120982669Y-66818796D01*
X121089459Y-66858626D01*
X121106334Y-66864920D01*
X121162267Y-66906792D01*
X121186684Y-66972256D01*
X121187000Y-66981102D01*
X121187000Y-67350500D01*
X121167315Y-67417539D01*
X121114511Y-67463294D01*
X121063000Y-67474500D01*
X120527825Y-67474500D01*
X120454761Y-67489033D01*
X120371899Y-67544399D01*
X120316533Y-67627261D01*
X120302000Y-67700325D01*
X120302000Y-68175874D01*
X120282315Y-68242913D01*
X120252311Y-68275141D01*
X120195311Y-68317810D01*
X120109147Y-68432910D01*
X120058900Y-68567628D01*
X120052854Y-68623867D01*
X120052500Y-68630481D01*
X120052500Y-68750000D01*
X123052500Y-68750000D01*
X123052500Y-68630481D01*
X123052145Y-68623867D01*
X123046099Y-68567628D01*
X122995852Y-68432910D01*
X122909688Y-68317810D01*
X122852688Y-68275140D01*
X122810817Y-68219206D01*
X122803000Y-68175878D01*
X122803000Y-67700326D01*
X122788466Y-67627260D01*
X122733101Y-67544399D01*
X122650240Y-67489034D01*
X122650239Y-67489033D01*
X122650238Y-67489033D01*
X122577175Y-67474500D01*
X122577174Y-67474500D01*
X122062000Y-67474500D01*
X121994961Y-67454815D01*
X121949206Y-67402011D01*
X121938000Y-67350500D01*
X121938000Y-66981101D01*
X121957685Y-66914062D01*
X122010489Y-66868307D01*
X122018651Y-66864925D01*
X122142331Y-66818796D01*
X122257546Y-66732546D01*
X122343796Y-66617331D01*
X122351181Y-66597529D01*
X122393052Y-66541596D01*
X122458516Y-66517178D01*
X122526789Y-66532029D01*
X122576195Y-66581434D01*
X122585069Y-66601858D01*
X122615642Y-66694122D01*
X122707683Y-66843345D01*
X122831654Y-66967316D01*
X122980877Y-67059357D01*
X123147303Y-67114506D01*
X123246890Y-67124680D01*
X123253168Y-67124999D01*
X123387499Y-67124999D01*
X123387500Y-67124998D01*
X123387500Y-64675000D01*
X123253171Y-64675000D01*
X123246888Y-64675321D01*
X123147304Y-64685493D01*
X122980877Y-64740642D01*
X122831654Y-64832683D01*
X122707683Y-64956654D01*
X122615642Y-65105877D01*
X122585069Y-65198141D01*
X122545296Y-65255586D01*
X122480780Y-65282409D01*
X122412004Y-65270094D01*
X122360805Y-65222551D01*
X122351181Y-65202470D01*
X122343796Y-65182669D01*
X122257546Y-65067454D01*
X122142331Y-64981204D01*
X122007483Y-64930909D01*
X122007482Y-64930908D01*
X121951166Y-64924854D01*
X121951165Y-64924853D01*
X121947873Y-64924500D01*
X121944550Y-64924500D01*
X121180439Y-64924500D01*
X121180420Y-64924500D01*
X121177128Y-64924501D01*
X121173848Y-64924853D01*
X121173840Y-64924854D01*
X121117515Y-64930909D01*
X120982669Y-64981204D01*
X120867454Y-65067454D01*
X120781204Y-65182668D01*
X120730909Y-65317516D01*
X120726238Y-65360966D01*
X120724500Y-65377127D01*
X120724500Y-65380449D01*
X120724500Y-65400500D01*
X120704815Y-65467539D01*
X120652011Y-65513294D01*
X120600500Y-65524500D01*
X115506900Y-65524500D01*
X115439861Y-65504815D01*
X115419219Y-65488181D01*
X113681038Y-63750000D01*
X120987501Y-63750000D01*
X120987501Y-63783497D01*
X120987821Y-63789779D01*
X120997818Y-63887650D01*
X121052046Y-64051301D01*
X121142556Y-64198040D01*
X121264459Y-64319943D01*
X121411198Y-64410453D01*
X121574848Y-64464681D01*
X121672703Y-64474678D01*
X121679020Y-64474999D01*
X121724999Y-64474999D01*
X121725000Y-64474998D01*
X121725000Y-63750000D01*
X120987501Y-63750000D01*
X113681038Y-63750000D01*
X113181038Y-63250000D01*
X120987500Y-63250000D01*
X121725000Y-63250000D01*
X121725000Y-62525000D01*
X121679003Y-62525000D01*
X121672719Y-62525321D01*
X121574849Y-62535318D01*
X121411198Y-62589546D01*
X121264459Y-62680056D01*
X121142556Y-62801959D01*
X121052046Y-62948698D01*
X120997818Y-63112348D01*
X120987819Y-63210222D01*
X120987500Y-63216500D01*
X120987500Y-63250000D01*
X113181038Y-63250000D01*
X111181039Y-61250000D01*
X122575000Y-61250000D01*
X123412500Y-61250000D01*
X123412500Y-60275000D01*
X123278171Y-60275000D01*
X123271888Y-60275321D01*
X123172304Y-60285493D01*
X123005877Y-60340642D01*
X122856654Y-60432683D01*
X122732683Y-60556654D01*
X122640642Y-60705877D01*
X122585493Y-60872303D01*
X122575319Y-60971890D01*
X122575000Y-60978168D01*
X122575000Y-61250000D01*
X111181039Y-61250000D01*
X110030713Y-60099674D01*
X118599500Y-60099674D01*
X118614033Y-60172738D01*
X118614033Y-60172739D01*
X118614034Y-60172740D01*
X118669399Y-60255601D01*
X118752260Y-60310966D01*
X118788792Y-60318232D01*
X118825325Y-60325500D01*
X118825326Y-60325500D01*
X121074675Y-60325500D01*
X121106009Y-60319267D01*
X121147740Y-60310966D01*
X121230601Y-60255601D01*
X121285966Y-60172740D01*
X121300500Y-60099674D01*
X121300500Y-58450326D01*
X121299385Y-58444723D01*
X121287589Y-58385418D01*
X121285966Y-58377260D01*
X121230601Y-58294399D01*
X121147740Y-58239034D01*
X121147739Y-58239033D01*
X121147738Y-58239033D01*
X121074675Y-58224500D01*
X121074674Y-58224500D01*
X118825326Y-58224500D01*
X118825325Y-58224500D01*
X118752261Y-58239033D01*
X118669399Y-58294399D01*
X118614033Y-58377261D01*
X118599500Y-58450325D01*
X118599500Y-60099674D01*
X110030713Y-60099674D01*
X109411819Y-59480780D01*
X109378334Y-59419457D01*
X109375500Y-59393099D01*
X109375500Y-58793953D01*
X109395185Y-58726914D01*
X109447989Y-58681159D01*
X109517147Y-58671215D01*
X109548400Y-58680002D01*
X109679137Y-58736106D01*
X109868395Y-58775000D01*
X110115000Y-58775000D01*
X110115000Y-58125000D01*
X110615000Y-58125000D01*
X110615000Y-58775000D01*
X110810033Y-58775000D01*
X110816298Y-58774682D01*
X110957222Y-58760351D01*
X111141569Y-58702511D01*
X111310503Y-58608746D01*
X111457104Y-58482894D01*
X111575368Y-58330109D01*
X111660458Y-58156641D01*
X111681597Y-58075000D01*
X110931111Y-58075000D01*
X110970610Y-58050543D01*
X111038201Y-57961038D01*
X111068895Y-57853160D01*
X111058546Y-57741479D01*
X111008552Y-57641078D01*
X110936069Y-57575000D01*
X111685471Y-57575000D01*
X111685471Y-57574999D01*
X111622314Y-57404469D01*
X111520109Y-57240498D01*
X111386996Y-57100464D01*
X111228414Y-56990087D01*
X111050862Y-56913893D01*
X110861605Y-56875000D01*
X110615000Y-56875000D01*
X110615000Y-57525000D01*
X110115000Y-57525000D01*
X110115000Y-56875000D01*
X109919967Y-56875000D01*
X109913698Y-56875317D01*
X109861700Y-56880605D01*
X109793013Y-56867803D01*
X109742151Y-56819898D01*
X109725263Y-56752100D01*
X109747709Y-56685935D01*
X109761467Y-56669568D01*
X110394217Y-56036819D01*
X110455541Y-56003334D01*
X110481899Y-56000500D01*
X112464760Y-56000500D01*
X112531799Y-56020185D01*
X112577554Y-56072989D01*
X112587498Y-56142147D01*
X112582691Y-56162817D01*
X112538996Y-56297298D01*
X112520318Y-56475000D01*
X112538995Y-56652699D01*
X112598236Y-56835025D01*
X112595900Y-56835783D01*
X112608094Y-56886059D01*
X112585238Y-56952085D01*
X112544413Y-56988570D01*
X112449495Y-57041254D01*
X112302895Y-57167105D01*
X112184631Y-57319890D01*
X112099541Y-57493358D01*
X112078403Y-57575000D01*
X112828889Y-57575000D01*
X112789390Y-57599457D01*
X112721799Y-57688962D01*
X112691105Y-57796840D01*
X112701454Y-57908521D01*
X112751448Y-58008922D01*
X112823931Y-58075000D01*
X112074529Y-58075000D01*
X112137685Y-58245530D01*
X112239890Y-58409501D01*
X112373003Y-58549535D01*
X112531585Y-58659912D01*
X112709137Y-58736106D01*
X112898395Y-58775000D01*
X113495000Y-58775000D01*
X113495000Y-58125000D01*
X113995000Y-58125000D01*
X113995000Y-58775000D01*
X114540033Y-58775000D01*
X114546298Y-58774682D01*
X114687222Y-58760351D01*
X114871569Y-58702511D01*
X115040503Y-58608746D01*
X115187104Y-58482894D01*
X115305368Y-58330109D01*
X115390458Y-58156641D01*
X115411597Y-58075000D01*
X114661111Y-58075000D01*
X114700610Y-58050543D01*
X114768201Y-57961038D01*
X114798895Y-57853160D01*
X114788546Y-57741479D01*
X114738552Y-57641078D01*
X114666069Y-57575000D01*
X115415471Y-57575000D01*
X115415471Y-57574999D01*
X115352314Y-57404469D01*
X115271614Y-57275000D01*
X115850000Y-57275000D01*
X115850000Y-57419518D01*
X115850354Y-57426132D01*
X115856400Y-57482371D01*
X115906647Y-57617089D01*
X115992811Y-57732188D01*
X116107910Y-57818352D01*
X116242628Y-57868599D01*
X116298867Y-57874645D01*
X116305482Y-57875000D01*
X117000000Y-57875000D01*
X117000000Y-57275000D01*
X117500000Y-57275000D01*
X117500000Y-57875000D01*
X118194518Y-57875000D01*
X118201132Y-57874645D01*
X118257371Y-57868599D01*
X118392089Y-57818352D01*
X118507188Y-57732188D01*
X118593352Y-57617089D01*
X118643599Y-57482371D01*
X118649645Y-57426132D01*
X118650000Y-57419518D01*
X118650000Y-57275000D01*
X117500000Y-57275000D01*
X117000000Y-57275000D01*
X115850000Y-57275000D01*
X115271614Y-57275000D01*
X115250109Y-57240498D01*
X115118881Y-57102446D01*
X115086960Y-57040294D01*
X115093708Y-56970751D01*
X115133268Y-56918638D01*
X115153282Y-56903282D01*
X115249536Y-56777841D01*
X115310044Y-56631762D01*
X115330682Y-56475000D01*
X115310044Y-56318238D01*
X115249536Y-56172159D01*
X115213722Y-56125486D01*
X115188528Y-56060318D01*
X115202566Y-55991873D01*
X115213723Y-55974513D01*
X115215076Y-55972750D01*
X115249536Y-55927841D01*
X115310044Y-55781762D01*
X115330682Y-55625000D01*
X115310044Y-55468238D01*
X115249536Y-55322159D01*
X115213722Y-55275486D01*
X115188528Y-55210318D01*
X115202566Y-55141873D01*
X115213723Y-55124513D01*
X115214614Y-55123352D01*
X115249536Y-55077841D01*
X115310044Y-54931762D01*
X115330682Y-54775000D01*
X115310044Y-54618238D01*
X115249536Y-54472159D01*
X115213722Y-54425485D01*
X115188528Y-54360318D01*
X115202566Y-54291873D01*
X115213723Y-54274513D01*
X115214288Y-54273777D01*
X115249536Y-54227841D01*
X115310044Y-54081762D01*
X115330682Y-53925000D01*
X115310044Y-53768238D01*
X115251507Y-53626917D01*
X115249537Y-53622161D01*
X115249536Y-53622160D01*
X115249536Y-53622159D01*
X115213721Y-53575484D01*
X115188528Y-53510316D01*
X115202566Y-53441872D01*
X115213719Y-53424517D01*
X115249536Y-53377841D01*
X115310044Y-53231762D01*
X115330682Y-53075000D01*
X115310044Y-52918238D01*
X115249536Y-52772159D01*
X115213721Y-52725484D01*
X115188528Y-52660316D01*
X115202566Y-52591872D01*
X115213719Y-52574517D01*
X115249536Y-52527841D01*
X115310044Y-52381762D01*
X115330682Y-52225000D01*
X115310044Y-52068238D01*
X115249536Y-51922159D01*
X115213722Y-51875486D01*
X115188528Y-51810318D01*
X115202566Y-51741873D01*
X115213723Y-51724513D01*
X115214104Y-51724017D01*
X115249536Y-51677841D01*
X115310044Y-51531762D01*
X115330682Y-51375000D01*
X115310044Y-51218238D01*
X115249536Y-51072159D01*
X115192015Y-50997196D01*
X115160651Y-50956321D01*
X115157591Y-50948407D01*
X115143678Y-50939348D01*
X115027840Y-50850463D01*
X114881762Y-50789956D01*
X114725000Y-50769317D01*
X114689095Y-50774044D01*
X114620060Y-50763276D01*
X114585232Y-50738785D01*
X114459128Y-50612681D01*
X114436177Y-50570649D01*
X114525000Y-50570649D01*
X114564613Y-50652905D01*
X114635992Y-50709827D01*
X114702468Y-50725000D01*
X114747532Y-50725000D01*
X114814008Y-50709827D01*
X114885387Y-50652905D01*
X114925000Y-50570649D01*
X114925000Y-50524998D01*
X115078552Y-50524998D01*
X115306845Y-50753291D01*
X115319279Y-50776063D01*
X115332151Y-50780691D01*
X115346708Y-50793154D01*
X115476651Y-50923097D01*
X115505790Y-50872629D01*
X115561004Y-50702699D01*
X115579681Y-50525000D01*
X115561004Y-50347300D01*
X115505791Y-50177371D01*
X115476651Y-50126900D01*
X115078553Y-50524998D01*
X115078552Y-50524998D01*
X114925000Y-50524998D01*
X114925000Y-50479351D01*
X114885387Y-50397095D01*
X114814008Y-50340173D01*
X114747532Y-50325000D01*
X114702468Y-50325000D01*
X114635992Y-50340173D01*
X114564613Y-50397095D01*
X114525000Y-50479351D01*
X114525000Y-50570649D01*
X114436177Y-50570649D01*
X114425643Y-50551358D01*
X114430627Y-50481666D01*
X114459128Y-50437319D01*
X114725000Y-50171447D01*
X115089867Y-49806579D01*
X115151190Y-49773094D01*
X115196371Y-49776325D01*
X115232673Y-49774023D01*
X115305368Y-49680109D01*
X115390458Y-49506640D01*
X115411597Y-49425000D01*
X114661111Y-49425000D01*
X114700610Y-49400543D01*
X114768201Y-49311038D01*
X114798895Y-49203160D01*
X114788546Y-49091479D01*
X114738552Y-48991078D01*
X114666069Y-48925000D01*
X115415471Y-48925000D01*
X115415471Y-48924999D01*
X115352314Y-48754469D01*
X115250109Y-48590498D01*
X115116996Y-48450464D01*
X114958414Y-48340087D01*
X114780862Y-48263893D01*
X114591605Y-48225000D01*
X113995000Y-48225000D01*
X113995000Y-48875000D01*
X113495000Y-48875000D01*
X113495000Y-48225000D01*
X112949967Y-48225000D01*
X112943701Y-48225317D01*
X112802777Y-48239648D01*
X112618430Y-48297488D01*
X112449496Y-48391253D01*
X112302895Y-48517105D01*
X112184631Y-48669890D01*
X112099541Y-48843358D01*
X112078403Y-48925000D01*
X112828889Y-48925000D01*
X112789390Y-48949457D01*
X112721799Y-49038962D01*
X112691105Y-49146840D01*
X112701454Y-49258521D01*
X112751448Y-49358922D01*
X112823931Y-49425000D01*
X112074529Y-49425000D01*
X112137685Y-49595530D01*
X112239890Y-49759501D01*
X112373003Y-49899535D01*
X112531585Y-50009912D01*
X112709137Y-50086106D01*
X112744261Y-50093324D01*
X112805966Y-50126100D01*
X112840155Y-50187033D01*
X112835975Y-50256777D01*
X112833862Y-50262238D01*
X112789956Y-50368237D01*
X112769317Y-50524999D01*
X112789956Y-50681762D01*
X112850463Y-50827840D01*
X112886276Y-50874513D01*
X112911470Y-50939682D01*
X112897431Y-51008127D01*
X112886277Y-51025483D01*
X112850464Y-51072156D01*
X112789956Y-51218237D01*
X112769317Y-51375000D01*
X112789956Y-51531762D01*
X112850463Y-51677840D01*
X112886276Y-51724513D01*
X112911470Y-51789682D01*
X112897431Y-51858127D01*
X112886277Y-51875483D01*
X112850464Y-51922156D01*
X112789956Y-52068237D01*
X112769317Y-52224999D01*
X112789956Y-52381762D01*
X112850463Y-52527840D01*
X112886277Y-52574515D01*
X112911470Y-52639684D01*
X112897431Y-52708129D01*
X112886277Y-52725485D01*
X112850463Y-52772159D01*
X112789956Y-52918237D01*
X112769317Y-53075000D01*
X112789956Y-53231762D01*
X112850463Y-53377840D01*
X112886277Y-53424515D01*
X112911470Y-53489684D01*
X112897431Y-53558129D01*
X112886277Y-53575485D01*
X112850463Y-53622159D01*
X112789956Y-53768237D01*
X112769317Y-53924999D01*
X112789956Y-54081762D01*
X112850463Y-54227840D01*
X112886277Y-54274515D01*
X112911470Y-54339684D01*
X112897431Y-54408129D01*
X112886277Y-54425485D01*
X112850463Y-54472159D01*
X112789956Y-54618237D01*
X112769317Y-54775000D01*
X112789956Y-54931762D01*
X112850549Y-55078048D01*
X112858018Y-55147517D01*
X112826743Y-55209996D01*
X112766653Y-55245648D01*
X112735988Y-55249500D01*
X110326804Y-55249500D01*
X110301358Y-55246861D01*
X110290732Y-55244633D01*
X110259325Y-55248548D01*
X110243988Y-55249500D01*
X110243885Y-55249500D01*
X110231287Y-55251601D01*
X110223365Y-55252923D01*
X110218303Y-55253661D01*
X110158560Y-55261108D01*
X110158312Y-55261188D01*
X110105374Y-55289837D01*
X110100818Y-55292182D01*
X110046717Y-55318630D01*
X110046505Y-55318788D01*
X110005719Y-55363093D01*
X110002172Y-55366789D01*
X108771108Y-56597852D01*
X108751254Y-56613976D01*
X108742165Y-56619914D01*
X108722722Y-56644894D01*
X108712563Y-56656398D01*
X108712484Y-56656476D01*
X108712479Y-56656482D01*
X108712480Y-56656482D01*
X108700390Y-56673414D01*
X108697341Y-56677504D01*
X108660354Y-56725024D01*
X108660237Y-56725253D01*
X108643057Y-56782955D01*
X108641495Y-56787831D01*
X108621941Y-56844792D01*
X108621906Y-56845034D01*
X108624394Y-56905191D01*
X108624500Y-56910315D01*
X108624500Y-59548196D01*
X108621860Y-59573642D01*
X108619633Y-59584268D01*
X105824942Y-59584268D01*
X105771834Y-59391389D01*
X105769006Y-59380375D01*
X105663092Y-58967866D01*
X105662411Y-58965072D01*
X105546082Y-58462251D01*
X105538035Y-58424394D01*
X105455112Y-58034274D01*
X105454546Y-58031447D01*
X105431412Y-57908521D01*
X105389869Y-57687768D01*
X105359139Y-57524477D01*
X105353254Y-57489684D01*
X105286103Y-57092664D01*
X105285715Y-57090203D01*
X105211337Y-56579706D01*
X105156426Y-56145036D01*
X105156132Y-56142479D01*
X105102938Y-55629567D01*
X105066263Y-55192812D01*
X105066083Y-55190357D01*
X105034205Y-54676889D01*
X105034083Y-54674546D01*
X105015777Y-54237770D01*
X105015699Y-54235291D01*
X105005070Y-53721079D01*
X105005044Y-53718517D01*
X105005044Y-53281481D01*
X105005070Y-53278919D01*
X105006870Y-53191826D01*
X105015699Y-52764702D01*
X105015777Y-52762235D01*
X105034084Y-52325442D01*
X105034204Y-52323119D01*
X105066083Y-51809655D01*
X105066267Y-51807131D01*
X105102939Y-51370419D01*
X105156134Y-50857500D01*
X105156434Y-50854897D01*
X105211333Y-50420323D01*
X105285721Y-49909754D01*
X105286096Y-49907376D01*
X105359142Y-49475504D01*
X105368646Y-49425000D01*
X109044529Y-49425000D01*
X109107685Y-49595530D01*
X109209890Y-49759501D01*
X109343003Y-49899535D01*
X109501585Y-50009912D01*
X109679137Y-50086106D01*
X109868395Y-50125000D01*
X110115000Y-50125000D01*
X110115000Y-49475000D01*
X110615000Y-49475000D01*
X110615000Y-50125000D01*
X110810033Y-50125000D01*
X110816298Y-50124682D01*
X110957222Y-50110351D01*
X111141569Y-50052511D01*
X111310503Y-49958746D01*
X111457104Y-49832894D01*
X111575368Y-49680109D01*
X111660458Y-49506641D01*
X111681597Y-49425000D01*
X110931111Y-49425000D01*
X110970610Y-49400543D01*
X111038201Y-49311038D01*
X111068895Y-49203160D01*
X111058546Y-49091479D01*
X111008552Y-48991078D01*
X110936069Y-48925000D01*
X111685471Y-48925000D01*
X111685471Y-48924999D01*
X111622314Y-48754469D01*
X111520109Y-48590498D01*
X111386996Y-48450464D01*
X111228414Y-48340087D01*
X111050862Y-48263893D01*
X110861605Y-48225000D01*
X110615000Y-48225000D01*
X110615000Y-48875000D01*
X110115000Y-48875000D01*
X110115000Y-48225000D01*
X109919967Y-48225000D01*
X109913701Y-48225317D01*
X109772777Y-48239648D01*
X109588430Y-48297488D01*
X109419496Y-48391253D01*
X109272895Y-48517105D01*
X109154631Y-48669890D01*
X109069541Y-48843358D01*
X109048403Y-48925000D01*
X109798889Y-48925000D01*
X109759390Y-48949457D01*
X109691799Y-49038962D01*
X109661105Y-49146840D01*
X109671454Y-49258521D01*
X109721448Y-49358922D01*
X109793931Y-49425000D01*
X109044529Y-49425000D01*
X105368646Y-49425000D01*
X105454555Y-48968504D01*
X105455116Y-48965709D01*
X105546076Y-48537772D01*
X105662418Y-48034896D01*
X105663115Y-48032043D01*
X105771837Y-47608599D01*
X105908931Y-47110703D01*
X105909722Y-47107960D01*
X106017797Y-46750000D01*
X111200001Y-46750000D01*
X111200001Y-46783497D01*
X111200321Y-46789779D01*
X111210318Y-46887650D01*
X111264546Y-47051301D01*
X111355056Y-47198040D01*
X111476959Y-47319943D01*
X111623698Y-47410453D01*
X111787348Y-47464681D01*
X111885203Y-47474678D01*
X111891520Y-47474999D01*
X111937499Y-47474999D01*
X111937500Y-47474998D01*
X111937500Y-46750000D01*
X111200001Y-46750000D01*
X106017797Y-46750000D01*
X106036015Y-46689659D01*
X106193651Y-46197591D01*
X106194590Y-46194783D01*
X106338130Y-45782589D01*
X106448572Y-45481308D01*
X106490123Y-45425150D01*
X106555450Y-45400367D01*
X106564988Y-45400000D01*
X111493764Y-45400000D01*
X111560803Y-45419685D01*
X111606558Y-45472489D01*
X111616502Y-45541647D01*
X111587477Y-45605203D01*
X111558861Y-45629538D01*
X111476961Y-45680054D01*
X111355056Y-45801959D01*
X111264546Y-45948698D01*
X111210318Y-46112348D01*
X111200319Y-46210222D01*
X111200000Y-46216500D01*
X111200000Y-46250000D01*
X112313500Y-46250000D01*
X112380539Y-46269685D01*
X112426294Y-46322489D01*
X112437500Y-46374000D01*
X112437500Y-47474999D01*
X112483497Y-47474999D01*
X112489779Y-47474678D01*
X112587650Y-47464681D01*
X112751301Y-47410453D01*
X112898040Y-47319943D01*
X113019943Y-47198040D01*
X113110452Y-47051302D01*
X113120873Y-47019853D01*
X113160644Y-46962407D01*
X113225160Y-46935582D01*
X113293936Y-46947896D01*
X113337846Y-46984542D01*
X113413884Y-47086116D01*
X113526222Y-47170212D01*
X113657701Y-47219251D01*
X113715826Y-47225500D01*
X113719136Y-47225500D01*
X114305864Y-47225500D01*
X114309174Y-47225500D01*
X114367299Y-47219251D01*
X114498778Y-47170212D01*
X114611116Y-47086116D01*
X114695212Y-46973778D01*
X114744251Y-46842299D01*
X114750500Y-46784174D01*
X114750500Y-46215826D01*
X114744251Y-46157701D01*
X114695212Y-46026222D01*
X114611116Y-45913884D01*
X114498778Y-45829788D01*
X114489662Y-45826388D01*
X114468665Y-45818556D01*
X114412732Y-45776684D01*
X114388316Y-45711220D01*
X114388000Y-45702375D01*
X114388000Y-45524000D01*
X114407685Y-45456961D01*
X114460489Y-45411206D01*
X114512000Y-45400000D01*
X115117909Y-45400000D01*
X115184948Y-45419685D01*
X115230703Y-45472489D01*
X115232056Y-45475562D01*
X115596087Y-46333634D01*
X117999999Y-51999999D01*
X118000000Y-52000000D01*
X118000001Y-52000000D01*
X120392601Y-52000000D01*
X120459640Y-52019685D01*
X120480282Y-52036319D01*
X120706782Y-52262819D01*
X120740267Y-52324142D01*
X120735283Y-52393834D01*
X120693411Y-52449767D01*
X120627947Y-52474184D01*
X120619101Y-52474500D01*
X118825325Y-52474500D01*
X118752261Y-52489033D01*
X118669399Y-52544399D01*
X118614033Y-52627261D01*
X118599500Y-52700325D01*
X118599500Y-54349674D01*
X118614033Y-54422738D01*
X118614033Y-54422739D01*
X118614034Y-54422740D01*
X118669399Y-54505601D01*
X118752260Y-54560966D01*
X118788792Y-54568233D01*
X118825325Y-54575500D01*
X118825326Y-54575500D01*
X121074675Y-54575500D01*
X121099029Y-54570655D01*
X121147740Y-54560966D01*
X121230601Y-54505601D01*
X121285966Y-54422740D01*
X121300500Y-54349674D01*
X121300500Y-53155894D01*
X121320184Y-53088859D01*
X121372987Y-53043104D01*
X121442146Y-53033160D01*
X121505702Y-53062185D01*
X121512180Y-53068217D01*
X124727310Y-56283347D01*
X128113182Y-59669219D01*
X128146666Y-59730540D01*
X128149500Y-59756898D01*
X128149499Y-63375500D01*
X128129814Y-63442539D01*
X128077010Y-63488294D01*
X128025500Y-63499500D01*
X127905986Y-63499500D01*
X127867421Y-63505607D01*
X127812196Y-63514354D01*
X127812194Y-63514354D01*
X127812193Y-63514355D01*
X127699157Y-63571949D01*
X127609450Y-63661656D01*
X127551853Y-63774697D01*
X127537000Y-63868478D01*
X127537000Y-64231514D01*
X127538874Y-64243345D01*
X127551854Y-64325304D01*
X127551854Y-64325305D01*
X127551855Y-64325306D01*
X127609449Y-64438342D01*
X127699156Y-64528049D01*
X127699158Y-64528050D01*
X127812196Y-64585646D01*
X127905981Y-64600500D01*
X128025499Y-64600499D01*
X128092538Y-64620183D01*
X128138293Y-64672987D01*
X128149499Y-64724499D01*
X128149499Y-65873196D01*
X128146861Y-65898638D01*
X128144632Y-65909266D01*
X128148548Y-65940676D01*
X128149500Y-65956013D01*
X128149500Y-65956116D01*
X128152918Y-65976602D01*
X128153657Y-65981670D01*
X128161107Y-66041438D01*
X128161185Y-66041682D01*
X128189827Y-66094608D01*
X128192171Y-66099162D01*
X128218634Y-66153292D01*
X128218777Y-66153482D01*
X128224579Y-66158824D01*
X128224581Y-66158826D01*
X128263108Y-66194293D01*
X128266780Y-66197817D01*
X128481782Y-66412819D01*
X128515267Y-66474142D01*
X128510283Y-66543834D01*
X128468411Y-66599767D01*
X128402947Y-66624184D01*
X128394101Y-66624500D01*
X128251804Y-66624500D01*
X128226358Y-66621861D01*
X128215732Y-66619633D01*
X128184323Y-66623548D01*
X128168986Y-66624500D01*
X128168884Y-66624500D01*
X128148399Y-66627918D01*
X128143332Y-66628657D01*
X128083567Y-66636107D01*
X128083312Y-66636189D01*
X128030370Y-66664838D01*
X128025820Y-66667180D01*
X127971715Y-66693632D01*
X127971505Y-66693788D01*
X127930719Y-66738093D01*
X127927172Y-66741789D01*
X127712680Y-66956281D01*
X127651357Y-66989766D01*
X127581665Y-66984782D01*
X127537318Y-66956281D01*
X127399833Y-66818796D01*
X127211819Y-66630781D01*
X127178334Y-66569458D01*
X127175500Y-66543100D01*
X127175500Y-62614304D01*
X127178139Y-62588857D01*
X127178465Y-62587303D01*
X127180367Y-62578232D01*
X127176452Y-62546823D01*
X127175500Y-62531486D01*
X127175500Y-62531387D01*
X127175500Y-62531386D01*
X127172075Y-62510869D01*
X127171341Y-62505825D01*
X127170581Y-62499731D01*
X127164866Y-62453874D01*
X127163891Y-62446050D01*
X127163821Y-62445832D01*
X127160065Y-62438892D01*
X127160065Y-62438890D01*
X127135148Y-62392848D01*
X127132828Y-62388340D01*
X127109826Y-62341289D01*
X127109825Y-62341288D01*
X127106360Y-62334200D01*
X127106225Y-62334019D01*
X127081183Y-62310966D01*
X127061892Y-62293207D01*
X127058219Y-62289682D01*
X126611817Y-61843280D01*
X126578332Y-61781957D01*
X126575499Y-61755608D01*
X126575499Y-60977128D01*
X126569091Y-60917517D01*
X126518796Y-60782669D01*
X126432546Y-60667454D01*
X126317331Y-60581204D01*
X126182483Y-60530909D01*
X126122873Y-60524500D01*
X126119550Y-60524500D01*
X125355432Y-60524500D01*
X125355413Y-60524500D01*
X125352128Y-60524501D01*
X125351008Y-60524621D01*
X125283414Y-60508637D01*
X125257111Y-60488574D01*
X122801256Y-58032719D01*
X120314649Y-55546111D01*
X120298522Y-55526253D01*
X120292583Y-55517162D01*
X120267610Y-55497725D01*
X120256093Y-55487554D01*
X120256019Y-55487480D01*
X120239094Y-55475397D01*
X120234980Y-55472330D01*
X120193689Y-55440191D01*
X120193686Y-55440190D01*
X120187463Y-55435346D01*
X120187261Y-55435242D01*
X120179700Y-55432990D01*
X120179699Y-55432990D01*
X120129536Y-55418055D01*
X120124674Y-55416497D01*
X120113280Y-55412586D01*
X120067702Y-55396939D01*
X120067469Y-55396906D01*
X120022410Y-55398769D01*
X120007306Y-55399394D01*
X120002184Y-55399500D01*
X118500514Y-55399500D01*
X118433475Y-55379815D01*
X118397411Y-55344390D01*
X118385966Y-55327261D01*
X118385966Y-55327260D01*
X118330601Y-55244399D01*
X118247740Y-55189034D01*
X118247739Y-55189033D01*
X118247738Y-55189033D01*
X118174675Y-55174500D01*
X118174674Y-55174500D01*
X116325326Y-55174500D01*
X116325325Y-55174500D01*
X116252261Y-55189033D01*
X116169399Y-55244399D01*
X116114033Y-55327261D01*
X116099500Y-55400325D01*
X116099500Y-56149678D01*
X116099539Y-56149875D01*
X116099500Y-56150310D01*
X116099500Y-56161887D01*
X116098464Y-56161887D01*
X116093309Y-56219466D01*
X116052232Y-56273327D01*
X115992812Y-56317808D01*
X115906647Y-56432910D01*
X115856400Y-56567628D01*
X115850354Y-56623867D01*
X115850000Y-56630481D01*
X115850000Y-56775000D01*
X118650000Y-56775000D01*
X118650000Y-56630481D01*
X118649645Y-56623867D01*
X118643599Y-56567628D01*
X118593352Y-56432911D01*
X118530395Y-56348811D01*
X118505978Y-56283347D01*
X118520829Y-56215074D01*
X118570234Y-56165668D01*
X118629662Y-56150500D01*
X119805601Y-56150500D01*
X119872640Y-56170185D01*
X119893282Y-56186819D01*
X123876181Y-60169718D01*
X123909666Y-60231041D01*
X123912500Y-60257399D01*
X123912500Y-61626000D01*
X123892815Y-61693039D01*
X123840011Y-61738794D01*
X123788500Y-61750000D01*
X122575001Y-61750000D01*
X122575001Y-62021829D01*
X122575321Y-62028111D01*
X122585493Y-62127695D01*
X122640642Y-62294122D01*
X122722633Y-62427051D01*
X122741073Y-62494443D01*
X122720150Y-62561106D01*
X122666508Y-62605876D01*
X122597177Y-62614537D01*
X122551997Y-62597686D01*
X122538801Y-62589546D01*
X122375151Y-62535318D01*
X122277277Y-62525319D01*
X122271000Y-62525000D01*
X122225000Y-62525000D01*
X122225000Y-64474999D01*
X122270997Y-64474999D01*
X122277279Y-64474678D01*
X122375150Y-64464681D01*
X122538801Y-64410453D01*
X122685540Y-64319943D01*
X122807443Y-64198040D01*
X122897952Y-64051302D01*
X122908373Y-64019853D01*
X122948144Y-63962407D01*
X123012660Y-63935582D01*
X123081436Y-63947896D01*
X123125346Y-63984542D01*
X123201384Y-64086116D01*
X123313722Y-64170212D01*
X123445201Y-64219251D01*
X123503326Y-64225500D01*
X123943101Y-64225500D01*
X124010140Y-64245185D01*
X124030782Y-64261819D01*
X124246437Y-64477474D01*
X124279922Y-64538797D01*
X124274938Y-64608489D01*
X124233066Y-64664422D01*
X124167602Y-64688839D01*
X124141340Y-64685558D01*
X124141206Y-64686874D01*
X124028109Y-64675319D01*
X124021832Y-64675000D01*
X123887500Y-64675000D01*
X123887500Y-67124999D01*
X124021829Y-67124999D01*
X124028111Y-67124678D01*
X124127695Y-67114506D01*
X124294119Y-67059358D01*
X124407903Y-66989176D01*
X124475295Y-66970736D01*
X124541959Y-66991658D01*
X124586729Y-67045300D01*
X124597000Y-67094715D01*
X124597000Y-67350500D01*
X124577315Y-67417539D01*
X124524511Y-67463294D01*
X124473000Y-67474500D01*
X123947825Y-67474500D01*
X123874761Y-67489033D01*
X123791899Y-67544399D01*
X123736533Y-67627261D01*
X123726702Y-67676687D01*
X123722000Y-67700326D01*
X123722000Y-68399674D01*
X123736159Y-68470857D01*
X123741346Y-68496930D01*
X123738386Y-68497518D01*
X123746299Y-68522797D01*
X123738164Y-68552437D01*
X123741345Y-68553070D01*
X123722000Y-68650323D01*
X123722000Y-68650325D01*
X123722000Y-68650326D01*
X123722000Y-69349674D01*
X123730471Y-69392262D01*
X123741346Y-69446930D01*
X123738386Y-69447518D01*
X123746299Y-69472797D01*
X123738164Y-69502437D01*
X123741345Y-69503070D01*
X123722000Y-69600323D01*
X123722000Y-70299674D01*
X123736533Y-70372738D01*
X123736533Y-70372739D01*
X123736534Y-70372740D01*
X123791899Y-70455601D01*
X123854454Y-70497398D01*
X123899258Y-70551009D01*
X123907966Y-70620334D01*
X123877812Y-70683362D01*
X123818370Y-70720081D01*
X123785563Y-70724500D01*
X122909399Y-70724500D01*
X122842360Y-70704815D01*
X122821718Y-70688181D01*
X122752205Y-70618668D01*
X122747394Y-70613856D01*
X122713910Y-70552535D01*
X122718894Y-70482843D01*
X122731974Y-70457287D01*
X122733101Y-70455601D01*
X122788466Y-70372740D01*
X122803000Y-70299674D01*
X122803000Y-69824121D01*
X122822683Y-69757086D01*
X122852690Y-69724857D01*
X122909688Y-69682189D01*
X122995852Y-69567089D01*
X123046099Y-69432371D01*
X123052145Y-69376132D01*
X123052500Y-69369518D01*
X123052500Y-69250000D01*
X120052500Y-69250000D01*
X120052500Y-69369518D01*
X120052854Y-69376132D01*
X120058900Y-69432371D01*
X120109147Y-69567089D01*
X120195311Y-69682190D01*
X120252310Y-69724858D01*
X120294182Y-69780791D01*
X120302000Y-69824125D01*
X120301999Y-70299674D01*
X120316533Y-70372738D01*
X120316533Y-70372739D01*
X120316534Y-70372740D01*
X120371899Y-70455601D01*
X120454760Y-70510966D01*
X120471104Y-70514217D01*
X120527825Y-70525500D01*
X120527826Y-70525500D01*
X121545601Y-70525500D01*
X121612640Y-70545185D01*
X121633282Y-70561819D01*
X122400350Y-71328887D01*
X122416477Y-71348746D01*
X122422415Y-71357836D01*
X122447393Y-71377277D01*
X122458910Y-71387448D01*
X122458981Y-71387519D01*
X122475897Y-71399597D01*
X122480005Y-71402660D01*
X122527541Y-71439659D01*
X122527732Y-71439756D01*
X122535299Y-71442009D01*
X122535301Y-71442010D01*
X122585474Y-71456947D01*
X122590304Y-71458494D01*
X122639840Y-71475500D01*
X122639842Y-71475500D01*
X122647299Y-71478060D01*
X122647533Y-71478094D01*
X122655409Y-71477768D01*
X122655412Y-71477769D01*
X122705727Y-71475687D01*
X122707707Y-71475606D01*
X122712831Y-71475500D01*
X126842996Y-71475500D01*
X126910035Y-71495185D01*
X126955790Y-71547989D01*
X126965734Y-71617147D01*
X126936709Y-71680703D01*
X126911886Y-71702603D01*
X126902261Y-71709033D01*
X126902260Y-71709034D01*
X126830257Y-71757144D01*
X126819399Y-71764399D01*
X126764033Y-71847261D01*
X126749500Y-71920325D01*
X126749500Y-72611858D01*
X126729815Y-72678897D01*
X126677011Y-72724652D01*
X126607853Y-72734596D01*
X126556611Y-72714961D01*
X126547740Y-72709034D01*
X126474675Y-72694500D01*
X126474674Y-72694500D01*
X125425326Y-72694500D01*
X125425325Y-72694500D01*
X125352261Y-72709033D01*
X125269399Y-72764399D01*
X125214033Y-72847261D01*
X125199500Y-72920325D01*
X125199500Y-73769674D01*
X125214033Y-73842738D01*
X125214033Y-73842739D01*
X125214034Y-73842740D01*
X125269399Y-73925601D01*
X125352260Y-73980966D01*
X125388792Y-73988232D01*
X125425325Y-73995500D01*
X125425326Y-73995500D01*
X126474675Y-73995500D01*
X126499029Y-73990655D01*
X126547740Y-73980966D01*
X126630601Y-73925601D01*
X126685966Y-73842740D01*
X126700500Y-73769674D01*
X126702883Y-73757695D01*
X126706303Y-73758375D01*
X126720185Y-73711102D01*
X126772989Y-73665347D01*
X126842147Y-73655403D01*
X126893387Y-73675037D01*
X126902260Y-73680966D01*
X126930991Y-73686681D01*
X126975325Y-73695500D01*
X127569262Y-73695500D01*
X127636301Y-73715185D01*
X127682056Y-73767989D01*
X127692000Y-73837147D01*
X127662975Y-73900703D01*
X127639701Y-73921550D01*
X127632073Y-73926814D01*
X127519265Y-74054149D01*
X127440209Y-74204775D01*
X127406347Y-74342164D01*
X127399500Y-74369944D01*
X127399500Y-74540056D01*
X127404990Y-74562329D01*
X127440209Y-74705224D01*
X127499118Y-74817463D01*
X127519266Y-74855852D01*
X127627775Y-74978334D01*
X127632072Y-74983184D01*
X127697264Y-75028183D01*
X127772070Y-75079818D01*
X127931128Y-75140140D01*
X128057628Y-75155500D01*
X128061377Y-75155500D01*
X128138623Y-75155500D01*
X128142372Y-75155500D01*
X128268872Y-75140140D01*
X128427930Y-75079818D01*
X128567929Y-74983183D01*
X128680734Y-74855852D01*
X128759790Y-74705225D01*
X128800500Y-74540056D01*
X128800500Y-74369944D01*
X128759790Y-74204775D01*
X128680734Y-74054148D01*
X128567929Y-73926817D01*
X128567928Y-73926816D01*
X128567926Y-73926814D01*
X128560299Y-73921550D01*
X128516308Y-73867268D01*
X128508648Y-73797819D01*
X128539751Y-73735254D01*
X128599741Y-73699437D01*
X128630738Y-73695500D01*
X129224675Y-73695500D01*
X129249029Y-73690655D01*
X129297740Y-73680966D01*
X129380601Y-73625601D01*
X129435966Y-73542740D01*
X129450500Y-73469674D01*
X129450500Y-72676897D01*
X129470185Y-72609859D01*
X129486814Y-72589222D01*
X131262819Y-70813216D01*
X131324142Y-70779732D01*
X131393834Y-70784716D01*
X131449767Y-70826588D01*
X131474184Y-70892052D01*
X131474500Y-70900898D01*
X131474500Y-71594486D01*
X131454815Y-71661525D01*
X131419390Y-71697589D01*
X131402261Y-71709033D01*
X131402260Y-71709034D01*
X131330257Y-71757144D01*
X131319399Y-71764399D01*
X131264033Y-71847261D01*
X131249500Y-71920325D01*
X131249500Y-73469674D01*
X131264034Y-73542740D01*
X131278732Y-73564738D01*
X131299609Y-73631416D01*
X131281123Y-73698795D01*
X131229144Y-73745485D01*
X131160684Y-73756723D01*
X131146097Y-73754952D01*
X131146092Y-73754951D01*
X131142372Y-73754500D01*
X131057628Y-73754500D01*
X131053920Y-73754950D01*
X131053907Y-73754951D01*
X130931127Y-73769860D01*
X130772069Y-73830182D01*
X130632072Y-73926815D01*
X130519265Y-74054149D01*
X130440209Y-74204775D01*
X130406347Y-74342164D01*
X130399500Y-74369944D01*
X130399500Y-74540056D01*
X130404990Y-74562329D01*
X130440209Y-74705224D01*
X130499118Y-74817463D01*
X130519266Y-74855852D01*
X130627775Y-74978334D01*
X130632072Y-74983184D01*
X130697264Y-75028183D01*
X130772070Y-75079818D01*
X130931128Y-75140140D01*
X131057628Y-75155500D01*
X131061377Y-75155500D01*
X131138623Y-75155500D01*
X131142372Y-75155500D01*
X131268872Y-75140140D01*
X131427930Y-75079818D01*
X131567929Y-74983183D01*
X131680734Y-74855852D01*
X131759790Y-74705225D01*
X131800500Y-74540056D01*
X131800500Y-74369944D01*
X131759790Y-74204775D01*
X131680734Y-74054148D01*
X131567929Y-73926817D01*
X131567928Y-73926816D01*
X131567926Y-73926814D01*
X131560299Y-73921550D01*
X131516308Y-73867268D01*
X131508648Y-73797819D01*
X131539751Y-73735254D01*
X131599741Y-73699437D01*
X131630738Y-73695500D01*
X132224675Y-73695500D01*
X132249029Y-73690655D01*
X132297740Y-73680966D01*
X132306611Y-73675038D01*
X132373286Y-73654161D01*
X132440666Y-73672645D01*
X132487357Y-73724624D01*
X132494958Y-73758124D01*
X132497117Y-73757695D01*
X132514033Y-73842738D01*
X132514033Y-73842739D01*
X132514034Y-73842740D01*
X132569399Y-73925601D01*
X132652260Y-73980966D01*
X132688792Y-73988232D01*
X132725325Y-73995500D01*
X132725326Y-73995500D01*
X133774675Y-73995500D01*
X133799029Y-73990655D01*
X133847740Y-73980966D01*
X133930601Y-73925601D01*
X133985966Y-73842740D01*
X134000500Y-73769674D01*
X134000500Y-72920326D01*
X133985966Y-72847260D01*
X133930601Y-72764399D01*
X133847740Y-72709034D01*
X133847739Y-72709033D01*
X133847738Y-72709033D01*
X133774675Y-72694500D01*
X133774674Y-72694500D01*
X132725326Y-72694500D01*
X132725325Y-72694500D01*
X132652259Y-72709034D01*
X132643389Y-72714961D01*
X132576711Y-72735838D01*
X132509331Y-72717352D01*
X132462642Y-72665373D01*
X132450500Y-72611858D01*
X132450500Y-71920325D01*
X132435966Y-71847261D01*
X132435966Y-71847260D01*
X132380601Y-71764399D01*
X132297740Y-71709034D01*
X132297738Y-71709033D01*
X132280610Y-71697589D01*
X132235804Y-71643977D01*
X132225500Y-71594490D01*
X132225500Y-70719394D01*
X132245184Y-70652359D01*
X132261809Y-70631727D01*
X132882112Y-70011423D01*
X132943433Y-69977940D01*
X132975684Y-69975344D01*
X132977127Y-69975500D01*
X133747872Y-69975499D01*
X133807483Y-69969091D01*
X133942331Y-69918796D01*
X134057546Y-69832546D01*
X134143796Y-69717331D01*
X134151181Y-69697529D01*
X134193052Y-69641596D01*
X134258516Y-69617178D01*
X134326789Y-69632029D01*
X134376195Y-69681434D01*
X134385069Y-69701858D01*
X134415642Y-69794122D01*
X134507683Y-69943345D01*
X134631654Y-70067316D01*
X134780877Y-70159357D01*
X134947303Y-70214506D01*
X135046890Y-70224680D01*
X135053168Y-70224999D01*
X135187499Y-70224999D01*
X135187500Y-70224998D01*
X135187500Y-67775000D01*
X135053171Y-67775000D01*
X135046888Y-67775321D01*
X134947304Y-67785493D01*
X134780877Y-67840642D01*
X134631654Y-67932683D01*
X134507683Y-68056654D01*
X134415642Y-68205877D01*
X134385069Y-68298141D01*
X134345296Y-68355586D01*
X134280780Y-68382409D01*
X134212004Y-68370094D01*
X134160805Y-68322551D01*
X134151181Y-68302470D01*
X134143796Y-68282669D01*
X134057546Y-68167454D01*
X133942331Y-68081204D01*
X133807483Y-68030909D01*
X133754384Y-68025200D01*
X133751166Y-68024854D01*
X133751165Y-68024853D01*
X133747873Y-68024500D01*
X133744550Y-68024500D01*
X132980433Y-68024500D01*
X132980414Y-68024500D01*
X132977128Y-68024501D01*
X132976009Y-68024621D01*
X132908416Y-68008637D01*
X132882112Y-67988574D01*
X131214649Y-66321111D01*
X131198522Y-66301253D01*
X131192583Y-66292162D01*
X131167610Y-66272725D01*
X131156093Y-66262554D01*
X131156019Y-66262480D01*
X131139094Y-66250397D01*
X131134980Y-66247330D01*
X131128145Y-66242010D01*
X131093689Y-66215191D01*
X131093686Y-66215190D01*
X131087463Y-66210346D01*
X131087261Y-66210242D01*
X131079700Y-66207990D01*
X131079699Y-66207990D01*
X131029536Y-66193055D01*
X131024674Y-66191497D01*
X131012881Y-66187449D01*
X130967702Y-66171939D01*
X130967469Y-66171906D01*
X130922410Y-66173769D01*
X130907306Y-66174394D01*
X130902184Y-66174500D01*
X129356900Y-66174500D01*
X129289861Y-66154815D01*
X129269219Y-66138181D01*
X128936819Y-65805781D01*
X128903334Y-65744458D01*
X128900500Y-65718100D01*
X128900500Y-64724499D01*
X128920185Y-64657460D01*
X128972989Y-64611705D01*
X129024500Y-64600499D01*
X129144014Y-64600499D01*
X129144018Y-64600499D01*
X129237804Y-64585646D01*
X129250568Y-64579142D01*
X129319232Y-64566245D01*
X129383974Y-64592519D01*
X129424233Y-64649624D01*
X129429336Y-64709023D01*
X129424328Y-64740642D01*
X129412212Y-64817147D01*
X129412000Y-64818483D01*
X129412000Y-65181514D01*
X129414970Y-65200267D01*
X129426854Y-65275304D01*
X129426854Y-65275305D01*
X129426855Y-65275306D01*
X129484449Y-65388342D01*
X129574156Y-65478049D01*
X129574158Y-65478050D01*
X129687196Y-65535646D01*
X129780981Y-65550500D01*
X131019018Y-65550499D01*
X131112804Y-65535646D01*
X131225842Y-65478050D01*
X131292074Y-65411817D01*
X131353395Y-65378334D01*
X131379754Y-65375500D01*
X133500500Y-65375500D01*
X133567539Y-65395185D01*
X133613294Y-65447989D01*
X133624500Y-65499500D01*
X133624500Y-66219560D01*
X133624500Y-66219578D01*
X133624501Y-66222872D01*
X133624853Y-66226152D01*
X133624854Y-66226159D01*
X133630909Y-66282484D01*
X133646981Y-66325574D01*
X133681204Y-66417331D01*
X133767454Y-66532546D01*
X133882669Y-66618796D01*
X134017517Y-66669091D01*
X134077127Y-66675500D01*
X134847872Y-66675499D01*
X134848979Y-66675379D01*
X134916569Y-66691353D01*
X134942888Y-66711425D01*
X135794782Y-67563319D01*
X135828267Y-67624642D01*
X135823283Y-67694334D01*
X135781411Y-67750267D01*
X135715947Y-67774684D01*
X135707101Y-67775000D01*
X135687500Y-67775000D01*
X135687500Y-70224999D01*
X135821829Y-70224999D01*
X135828111Y-70224678D01*
X135927695Y-70214506D01*
X136094122Y-70159357D01*
X136243345Y-70067316D01*
X136312819Y-69997843D01*
X136374142Y-69964358D01*
X136443834Y-69969342D01*
X136499767Y-70011214D01*
X136524184Y-70076678D01*
X136524500Y-70085524D01*
X136524500Y-73148196D01*
X136521861Y-73173642D01*
X136519633Y-73184267D01*
X136523548Y-73215676D01*
X136524500Y-73231013D01*
X136524500Y-73231116D01*
X136527918Y-73251602D01*
X136528657Y-73256670D01*
X136536107Y-73316438D01*
X136536185Y-73316682D01*
X136564827Y-73369608D01*
X136567171Y-73374162D01*
X136593634Y-73428292D01*
X136593777Y-73428482D01*
X136599579Y-73433824D01*
X136599581Y-73433826D01*
X136638108Y-73469293D01*
X136641780Y-73472817D01*
X139197850Y-76028887D01*
X139213977Y-76048746D01*
X139216586Y-76052740D01*
X139219916Y-76057836D01*
X139229344Y-76065174D01*
X139244894Y-76077277D01*
X139256412Y-76087449D01*
X139256481Y-76087518D01*
X139273389Y-76099590D01*
X139277494Y-76102650D01*
X139312289Y-76129733D01*
X139325044Y-76139660D01*
X139325233Y-76139757D01*
X139332801Y-76142010D01*
X139382959Y-76156943D01*
X139387819Y-76158499D01*
X139437340Y-76175500D01*
X139437342Y-76175500D01*
X139444796Y-76178059D01*
X139445029Y-76178093D01*
X139452908Y-76177767D01*
X139452911Y-76177768D01*
X139505192Y-76175605D01*
X139510315Y-76175500D01*
X154448195Y-76175500D01*
X154473641Y-76178139D01*
X154477440Y-76178935D01*
X154484268Y-76180367D01*
X154514138Y-76176643D01*
X154515677Y-76176452D01*
X154531014Y-76175500D01*
X154531111Y-76175500D01*
X154531114Y-76175500D01*
X154551643Y-76172073D01*
X154556659Y-76171342D01*
X154608626Y-76164866D01*
X154608628Y-76164864D01*
X154616457Y-76163889D01*
X154616666Y-76163822D01*
X154623607Y-76160065D01*
X154623610Y-76160065D01*
X154669666Y-76135140D01*
X154674144Y-76132835D01*
X154721211Y-76109826D01*
X154721212Y-76109824D01*
X154728308Y-76106356D01*
X154728476Y-76106230D01*
X154733824Y-76100419D01*
X154733826Y-76100419D01*
X154769294Y-76061889D01*
X154772795Y-76058240D01*
X155819217Y-75011819D01*
X155880541Y-74978334D01*
X155906899Y-74975500D01*
X156188154Y-74975500D01*
X156255193Y-74995185D01*
X156300948Y-75047989D01*
X156310892Y-75117147D01*
X156309772Y-75123685D01*
X156308451Y-75130326D01*
X156299500Y-75175325D01*
X156299500Y-76024674D01*
X156314033Y-76097738D01*
X156314033Y-76097739D01*
X156314034Y-76097740D01*
X156369399Y-76180601D01*
X156452260Y-76235966D01*
X156488792Y-76243232D01*
X156525325Y-76250500D01*
X156525326Y-76250500D01*
X157574675Y-76250500D01*
X157599029Y-76245655D01*
X157647740Y-76235966D01*
X157730601Y-76180601D01*
X157785966Y-76097740D01*
X157800500Y-76024674D01*
X157800500Y-75330898D01*
X157820185Y-75263860D01*
X157872989Y-75218105D01*
X157942147Y-75208161D01*
X158005703Y-75237186D01*
X158012181Y-75243218D01*
X158497850Y-75728887D01*
X158513977Y-75748746D01*
X158519915Y-75757835D01*
X158544894Y-75777277D01*
X158556412Y-75787449D01*
X158556481Y-75787518D01*
X158573389Y-75799590D01*
X158577494Y-75802650D01*
X158586713Y-75809826D01*
X158625044Y-75839660D01*
X158625233Y-75839757D01*
X158632801Y-75842010D01*
X158682959Y-75856943D01*
X158687819Y-75858499D01*
X158737340Y-75875500D01*
X158737342Y-75875500D01*
X158744796Y-75878059D01*
X158745029Y-75878093D01*
X158752908Y-75877767D01*
X158752911Y-75877768D01*
X158805192Y-75875605D01*
X158810315Y-75875500D01*
X159648195Y-75875500D01*
X159673641Y-75878139D01*
X159677440Y-75878935D01*
X159684268Y-75880367D01*
X159714138Y-75876643D01*
X159715677Y-75876452D01*
X159731014Y-75875500D01*
X159731111Y-75875500D01*
X159731114Y-75875500D01*
X159751643Y-75872073D01*
X159756659Y-75871342D01*
X159808626Y-75864866D01*
X159808628Y-75864864D01*
X159816457Y-75863889D01*
X159816666Y-75863822D01*
X159823607Y-75860065D01*
X159823610Y-75860065D01*
X159869666Y-75835140D01*
X159874144Y-75832835D01*
X159921211Y-75809826D01*
X159921212Y-75809824D01*
X159928308Y-75806356D01*
X159928476Y-75806230D01*
X159933824Y-75800419D01*
X159933826Y-75800419D01*
X159969293Y-75761890D01*
X159972794Y-75758241D01*
X160428892Y-75302144D01*
X160448743Y-75286024D01*
X160457836Y-75280084D01*
X160477280Y-75255101D01*
X160487453Y-75243584D01*
X160487520Y-75243518D01*
X160499619Y-75226570D01*
X160502641Y-75222515D01*
X160534809Y-75181189D01*
X160534810Y-75181185D01*
X160539666Y-75174947D01*
X160539753Y-75174778D01*
X160542008Y-75167200D01*
X160542010Y-75167199D01*
X160556951Y-75117009D01*
X160558479Y-75112238D01*
X160575500Y-75062660D01*
X160575500Y-75062655D01*
X160578060Y-75055199D01*
X160578093Y-75054970D01*
X160577767Y-75047090D01*
X160577768Y-75047088D01*
X160575605Y-74994806D01*
X160575500Y-74989684D01*
X160575500Y-73041803D01*
X160578139Y-73016357D01*
X160578365Y-73015274D01*
X160580367Y-73005731D01*
X160576452Y-72974323D01*
X160575500Y-72958986D01*
X160575500Y-72958889D01*
X160575500Y-72958888D01*
X160575500Y-72958886D01*
X160572070Y-72938336D01*
X160571342Y-72933340D01*
X160564865Y-72881374D01*
X160564864Y-72881373D01*
X160563888Y-72873538D01*
X160558398Y-72856401D01*
X160556659Y-72845974D01*
X160557712Y-72845798D01*
X160550500Y-72817315D01*
X160550500Y-71965325D01*
X160535966Y-71892261D01*
X160535966Y-71892260D01*
X160480601Y-71809399D01*
X160397740Y-71754034D01*
X160397739Y-71754033D01*
X160397738Y-71754033D01*
X160324675Y-71739500D01*
X160324674Y-71739500D01*
X159575326Y-71739500D01*
X159575325Y-71739500D01*
X159502261Y-71754033D01*
X159419399Y-71809399D01*
X159364033Y-71892261D01*
X159349500Y-71965325D01*
X159349500Y-73514674D01*
X159364034Y-73587740D01*
X159378732Y-73609738D01*
X159399609Y-73676416D01*
X159381123Y-73743795D01*
X159329144Y-73790485D01*
X159260684Y-73801723D01*
X159246097Y-73799952D01*
X159246092Y-73799951D01*
X159242372Y-73799500D01*
X159157628Y-73799500D01*
X159153911Y-73799951D01*
X159153899Y-73799952D01*
X159139314Y-73801723D01*
X159070391Y-73790262D01*
X159018606Y-73743357D01*
X159000400Y-73675901D01*
X159021267Y-73609738D01*
X159035966Y-73587740D01*
X159050500Y-73514674D01*
X159050500Y-71965326D01*
X159035966Y-71892260D01*
X158980601Y-71809399D01*
X158897740Y-71754034D01*
X158897739Y-71754033D01*
X158897738Y-71754033D01*
X158824675Y-71739500D01*
X158824674Y-71739500D01*
X158075326Y-71739500D01*
X158075325Y-71739500D01*
X158002259Y-71754034D01*
X157923389Y-71806732D01*
X157856711Y-71827609D01*
X157789331Y-71809123D01*
X157742642Y-71757144D01*
X157730500Y-71703629D01*
X157730500Y-71341899D01*
X157750185Y-71274860D01*
X157766819Y-71254218D01*
X157909218Y-71111819D01*
X157970541Y-71078334D01*
X157996899Y-71075500D01*
X162093101Y-71075500D01*
X162160140Y-71095185D01*
X162180782Y-71111819D01*
X162538181Y-71469218D01*
X162571666Y-71530541D01*
X162574500Y-71556899D01*
X162574500Y-71639486D01*
X162554815Y-71706525D01*
X162519390Y-71742589D01*
X162502261Y-71754033D01*
X162502260Y-71754034D01*
X162423391Y-71806732D01*
X162419399Y-71809399D01*
X162364033Y-71892261D01*
X162349500Y-71965325D01*
X162349500Y-73514674D01*
X162364034Y-73587740D01*
X162378732Y-73609738D01*
X162399609Y-73676416D01*
X162381123Y-73743795D01*
X162329144Y-73790485D01*
X162260684Y-73801723D01*
X162246097Y-73799952D01*
X162246092Y-73799951D01*
X162242372Y-73799500D01*
X162157628Y-73799500D01*
X162153920Y-73799950D01*
X162153907Y-73799951D01*
X162031127Y-73814860D01*
X161872069Y-73875182D01*
X161732072Y-73971815D01*
X161619265Y-74099149D01*
X161540209Y-74249775D01*
X161510021Y-74372258D01*
X161499500Y-74414944D01*
X161499500Y-74585056D01*
X161505115Y-74607836D01*
X161540209Y-74750224D01*
X161589670Y-74844462D01*
X161619266Y-74900852D01*
X161717574Y-75011819D01*
X161732072Y-75028184D01*
X161770496Y-75054706D01*
X161872070Y-75124818D01*
X162031128Y-75185140D01*
X162157628Y-75200500D01*
X162161377Y-75200500D01*
X162238623Y-75200500D01*
X162242372Y-75200500D01*
X162368872Y-75185140D01*
X162527930Y-75124818D01*
X162667929Y-75028183D01*
X162780734Y-74900852D01*
X162859790Y-74750225D01*
X162900500Y-74585056D01*
X162900500Y-74414944D01*
X162859790Y-74249775D01*
X162780734Y-74099148D01*
X162667929Y-73971817D01*
X162667928Y-73971816D01*
X162667926Y-73971814D01*
X162660299Y-73966550D01*
X162616308Y-73912268D01*
X162608648Y-73842819D01*
X162639751Y-73780254D01*
X162699741Y-73744437D01*
X162730738Y-73740500D01*
X163324675Y-73740500D01*
X163351047Y-73735254D01*
X163397740Y-73725966D01*
X163406611Y-73720038D01*
X163473286Y-73699161D01*
X163540666Y-73717645D01*
X163587357Y-73769624D01*
X163594958Y-73803124D01*
X163597117Y-73802695D01*
X163614033Y-73887738D01*
X163614033Y-73887739D01*
X163614034Y-73887740D01*
X163669399Y-73970601D01*
X163752260Y-74025966D01*
X163788792Y-74033232D01*
X163825325Y-74040500D01*
X163825326Y-74040500D01*
X164874675Y-74040500D01*
X164899029Y-74035655D01*
X164947740Y-74025966D01*
X165030601Y-73970601D01*
X165085966Y-73887740D01*
X165100500Y-73814674D01*
X165100500Y-72965326D01*
X165097851Y-72952011D01*
X165088620Y-72905601D01*
X165085966Y-72892260D01*
X165030601Y-72809399D01*
X164947740Y-72754034D01*
X164947739Y-72754033D01*
X164947738Y-72754033D01*
X164874675Y-72739500D01*
X164874674Y-72739500D01*
X163825326Y-72739500D01*
X163825325Y-72739500D01*
X163752259Y-72754034D01*
X163743389Y-72759961D01*
X163676711Y-72780838D01*
X163609331Y-72762352D01*
X163562642Y-72710373D01*
X163550500Y-72656858D01*
X163550500Y-71965325D01*
X163535966Y-71892261D01*
X163535966Y-71892260D01*
X163480601Y-71809399D01*
X163397740Y-71754034D01*
X163397738Y-71754033D01*
X163380610Y-71742589D01*
X163335805Y-71688977D01*
X163325500Y-71639486D01*
X163325500Y-71401803D01*
X163328139Y-71376356D01*
X163330367Y-71365732D01*
X163326452Y-71334322D01*
X163325500Y-71318985D01*
X163325500Y-71318887D01*
X163325500Y-71318886D01*
X163322075Y-71298369D01*
X163321341Y-71293325D01*
X163313891Y-71233550D01*
X163313821Y-71233332D01*
X163310065Y-71226392D01*
X163310065Y-71226390D01*
X163285148Y-71180348D01*
X163282828Y-71175840D01*
X163259826Y-71128789D01*
X163259825Y-71128788D01*
X163256360Y-71121700D01*
X163256225Y-71121519D01*
X163245688Y-71111819D01*
X163211892Y-71080707D01*
X163208219Y-71077182D01*
X162631037Y-70499999D01*
X171494356Y-70499999D01*
X171514891Y-70747816D01*
X171514891Y-70747819D01*
X171514892Y-70747821D01*
X171575937Y-70988881D01*
X171615175Y-71078334D01*
X171675825Y-71216604D01*
X171675827Y-71216607D01*
X171811836Y-71424785D01*
X171980256Y-71607738D01*
X171980259Y-71607740D01*
X172176485Y-71760470D01*
X172176487Y-71760471D01*
X172176491Y-71760474D01*
X172395190Y-71878828D01*
X172630386Y-71959571D01*
X172875665Y-72000500D01*
X173124335Y-72000500D01*
X173369614Y-71959571D01*
X173604810Y-71878828D01*
X173823509Y-71760474D01*
X174019744Y-71607738D01*
X174188164Y-71424785D01*
X174324173Y-71216607D01*
X174424063Y-70988881D01*
X174485108Y-70747821D01*
X174505643Y-70500000D01*
X174504538Y-70486670D01*
X174497797Y-70405315D01*
X174485108Y-70252179D01*
X174424063Y-70011119D01*
X174325456Y-69786317D01*
X174324174Y-69783395D01*
X174310916Y-69763102D01*
X174188164Y-69575215D01*
X174019744Y-69392262D01*
X173935910Y-69327011D01*
X173823514Y-69239529D01*
X173823510Y-69239526D01*
X173823509Y-69239526D01*
X173604810Y-69121172D01*
X173604806Y-69121170D01*
X173604805Y-69121170D01*
X173369615Y-69040429D01*
X173124335Y-68999500D01*
X172875665Y-68999500D01*
X172630384Y-69040429D01*
X172395194Y-69121170D01*
X172395190Y-69121171D01*
X172395190Y-69121172D01*
X172369348Y-69135157D01*
X172176485Y-69239529D01*
X171980259Y-69392259D01*
X171980256Y-69392261D01*
X171980256Y-69392262D01*
X171904091Y-69474999D01*
X171811837Y-69575214D01*
X171675825Y-69783395D01*
X171609532Y-69934530D01*
X171575937Y-70011119D01*
X171530817Y-70189293D01*
X171514891Y-70252183D01*
X171494356Y-70499999D01*
X162631037Y-70499999D01*
X162602149Y-70471111D01*
X162586022Y-70451253D01*
X162580083Y-70442162D01*
X162555110Y-70422725D01*
X162543593Y-70412554D01*
X162543519Y-70412480D01*
X162526594Y-70400397D01*
X162522480Y-70397330D01*
X162522475Y-70397326D01*
X162481189Y-70365191D01*
X162481186Y-70365190D01*
X162474963Y-70360346D01*
X162474761Y-70360242D01*
X162467200Y-70357990D01*
X162467199Y-70357990D01*
X162417036Y-70343055D01*
X162412174Y-70341497D01*
X162393637Y-70335134D01*
X162355202Y-70321939D01*
X162354969Y-70321906D01*
X162309910Y-70323769D01*
X162294806Y-70324394D01*
X162289684Y-70324500D01*
X157841804Y-70324500D01*
X157816359Y-70321861D01*
X157805732Y-70319633D01*
X157805731Y-70319633D01*
X157791142Y-70316574D01*
X157729570Y-70283550D01*
X157695625Y-70222480D01*
X157700086Y-70152753D01*
X157715015Y-70124089D01*
X157803600Y-69997576D01*
X157903430Y-69783492D01*
X157960636Y-69570000D01*
X157063686Y-69570000D01*
X157089493Y-69529844D01*
X157130000Y-69391889D01*
X157130000Y-69248111D01*
X157089493Y-69110156D01*
X157063686Y-69070000D01*
X157960636Y-69070000D01*
X157960635Y-69069999D01*
X157903430Y-68856507D01*
X157803599Y-68642421D01*
X157668109Y-68448921D01*
X157501081Y-68281893D01*
X157307576Y-68146399D01*
X157093488Y-68046567D01*
X157054413Y-68036097D01*
X156994753Y-67999732D01*
X156964225Y-67936885D01*
X156972520Y-67867509D01*
X157017006Y-67813632D01*
X157041710Y-67800698D01*
X157122637Y-67769348D01*
X157296041Y-67661981D01*
X157404268Y-67563319D01*
X157446763Y-67524580D01*
X157452376Y-67517147D01*
X157569673Y-67361821D01*
X157569673Y-67361819D01*
X157569675Y-67361818D01*
X157637801Y-67225000D01*
X157660582Y-67179250D01*
X157716397Y-66983083D01*
X157735215Y-66780000D01*
X157716397Y-66576917D01*
X157702744Y-66528934D01*
X157694200Y-66498904D01*
X157660582Y-66380750D01*
X157638257Y-66335915D01*
X157569675Y-66198181D01*
X157446763Y-66035419D01*
X157296041Y-65898018D01*
X157122638Y-65790652D01*
X156932457Y-65716976D01*
X156865629Y-65704484D01*
X156731976Y-65679500D01*
X156528024Y-65679500D01*
X156427783Y-65698238D01*
X156327542Y-65716976D01*
X156137361Y-65790652D01*
X155963958Y-65898018D01*
X155813236Y-66035420D01*
X155798454Y-66054995D01*
X155742344Y-66096631D01*
X155672632Y-66101322D01*
X155611451Y-66067580D01*
X155578224Y-66006116D01*
X155575500Y-65980268D01*
X155575500Y-65039731D01*
X155595185Y-64972692D01*
X155647989Y-64926937D01*
X155717147Y-64916993D01*
X155780703Y-64946018D01*
X155798451Y-64965001D01*
X155813236Y-64984579D01*
X155813238Y-64984581D01*
X155963958Y-65121981D01*
X156137361Y-65229347D01*
X156137363Y-65229348D01*
X156327544Y-65303024D01*
X156528024Y-65340500D01*
X156528026Y-65340500D01*
X156731974Y-65340500D01*
X156731976Y-65340500D01*
X156932456Y-65303024D01*
X157122637Y-65229348D01*
X157296041Y-65121981D01*
X157339449Y-65082409D01*
X157446763Y-64984580D01*
X157448206Y-64982669D01*
X157569673Y-64821821D01*
X157569673Y-64821819D01*
X157569675Y-64821818D01*
X157630332Y-64700000D01*
X157660582Y-64639250D01*
X157716397Y-64443083D01*
X157735215Y-64240000D01*
X157716397Y-64036917D01*
X157660582Y-63840750D01*
X157627692Y-63774697D01*
X157569675Y-63658181D01*
X157446763Y-63495419D01*
X157296041Y-63358018D01*
X157122638Y-63250652D01*
X156932457Y-63176976D01*
X156829343Y-63157701D01*
X156731976Y-63139500D01*
X156528024Y-63139500D01*
X156442233Y-63155537D01*
X156327542Y-63176976D01*
X156137361Y-63250652D01*
X155963958Y-63358018D01*
X155813236Y-63495420D01*
X155798454Y-63514995D01*
X155742344Y-63556631D01*
X155672632Y-63561322D01*
X155611451Y-63527580D01*
X155578224Y-63466116D01*
X155575500Y-63440268D01*
X155575500Y-62499731D01*
X155595185Y-62432692D01*
X155647989Y-62386937D01*
X155717147Y-62376993D01*
X155780703Y-62406018D01*
X155798451Y-62425001D01*
X155813236Y-62444579D01*
X155813238Y-62444581D01*
X155963958Y-62581981D01*
X156122396Y-62680081D01*
X156137363Y-62689348D01*
X156327544Y-62763024D01*
X156528024Y-62800500D01*
X156528026Y-62800500D01*
X156731974Y-62800500D01*
X156731976Y-62800500D01*
X156932456Y-62763024D01*
X157122637Y-62689348D01*
X157296041Y-62581981D01*
X157413235Y-62475145D01*
X157446763Y-62444580D01*
X157451060Y-62438890D01*
X157569673Y-62281821D01*
X157569673Y-62281819D01*
X157569675Y-62281818D01*
X157621645Y-62177447D01*
X157660582Y-62099250D01*
X157716397Y-61903083D01*
X157735215Y-61700000D01*
X157716397Y-61496917D01*
X157660582Y-61300750D01*
X157633862Y-61247088D01*
X157569675Y-61118181D01*
X157446763Y-60955419D01*
X157296041Y-60818018D01*
X157122638Y-60710652D01*
X156932457Y-60636976D01*
X156865629Y-60624484D01*
X156731976Y-60599500D01*
X156528024Y-60599500D01*
X156427783Y-60618238D01*
X156327542Y-60636976D01*
X156137361Y-60710652D01*
X155963958Y-60818018D01*
X155813236Y-60955419D01*
X155690326Y-61118180D01*
X155664492Y-61170061D01*
X155616989Y-61221298D01*
X155549326Y-61238719D01*
X155482985Y-61216793D01*
X155469509Y-61206018D01*
X155461917Y-61199029D01*
X155458219Y-61195481D01*
X153633850Y-59371111D01*
X153617723Y-59351253D01*
X153611784Y-59342162D01*
X153586811Y-59322725D01*
X153575294Y-59312554D01*
X153575220Y-59312480D01*
X153558295Y-59300397D01*
X153554181Y-59297330D01*
X153553047Y-59296447D01*
X153512890Y-59265191D01*
X153512887Y-59265190D01*
X153506664Y-59260346D01*
X153506462Y-59260242D01*
X153498901Y-59257990D01*
X153498900Y-59257990D01*
X153448737Y-59243055D01*
X153443875Y-59241497D01*
X153432481Y-59237586D01*
X153386903Y-59221939D01*
X153386670Y-59221906D01*
X153341611Y-59223769D01*
X153326507Y-59224394D01*
X153321385Y-59224500D01*
X152536899Y-59224500D01*
X152469860Y-59204815D01*
X152449218Y-59188181D01*
X150711819Y-57450781D01*
X150678334Y-57389458D01*
X150675500Y-57363100D01*
X150675500Y-57277864D01*
X150695185Y-57210825D01*
X150747989Y-57165070D01*
X150817147Y-57155126D01*
X150880703Y-57184151D01*
X150911883Y-57225462D01*
X150912896Y-57227636D01*
X150912897Y-57227638D01*
X150912898Y-57227639D01*
X151038402Y-57406877D01*
X151193123Y-57561598D01*
X151372361Y-57687102D01*
X151570670Y-57779575D01*
X151782023Y-57836207D01*
X152000000Y-57855277D01*
X152217977Y-57836207D01*
X152429330Y-57779575D01*
X152627639Y-57687102D01*
X152806877Y-57561598D01*
X152961598Y-57406877D01*
X153087102Y-57227639D01*
X153179575Y-57029330D01*
X153236207Y-56817977D01*
X153255277Y-56600000D01*
X154994858Y-56600000D01*
X155015386Y-56847732D01*
X155076413Y-57088721D01*
X155176268Y-57316370D01*
X155276563Y-57469882D01*
X155276564Y-57469882D01*
X155974070Y-56772376D01*
X155976884Y-56785915D01*
X156046442Y-56920156D01*
X156149638Y-57030652D01*
X156278819Y-57109209D01*
X156330002Y-57123549D01*
X155629942Y-57823609D01*
X155629942Y-57823610D01*
X155676766Y-57860055D01*
X155895393Y-57978368D01*
X156130506Y-58059083D01*
X156375707Y-58100000D01*
X156624293Y-58100000D01*
X156869493Y-58059083D01*
X157104606Y-57978368D01*
X157323233Y-57860053D01*
X157370056Y-57823609D01*
X156671568Y-57125121D01*
X156788458Y-57074349D01*
X156905739Y-56978934D01*
X156992928Y-56855415D01*
X157023355Y-56769801D01*
X157723434Y-57469882D01*
X157823730Y-57316369D01*
X157923586Y-57088721D01*
X157984613Y-56847732D01*
X158005141Y-56600000D01*
X160044722Y-56600000D01*
X160063792Y-56817974D01*
X160120425Y-57029331D01*
X160155789Y-57105168D01*
X160212898Y-57227639D01*
X160338402Y-57406877D01*
X160493123Y-57561598D01*
X160672361Y-57687102D01*
X160870670Y-57779575D01*
X161082023Y-57836207D01*
X161300000Y-57855277D01*
X161517977Y-57836207D01*
X161729330Y-57779575D01*
X161927639Y-57687102D01*
X162106877Y-57561598D01*
X162261598Y-57406877D01*
X162387102Y-57227639D01*
X162479575Y-57029330D01*
X162536207Y-56817977D01*
X162555277Y-56600000D01*
X162551962Y-56562114D01*
X162540531Y-56431450D01*
X162536207Y-56382023D01*
X162479575Y-56170670D01*
X162387102Y-55972362D01*
X162261598Y-55793123D01*
X162106877Y-55638402D01*
X161927639Y-55512898D01*
X161820244Y-55462819D01*
X161729331Y-55420425D01*
X161517974Y-55363792D01*
X161300000Y-55344722D01*
X161082025Y-55363792D01*
X160870668Y-55420425D01*
X160672361Y-55512898D01*
X160493122Y-55638402D01*
X160338402Y-55793122D01*
X160212898Y-55972361D01*
X160120425Y-56170668D01*
X160063792Y-56382025D01*
X160044722Y-56600000D01*
X158005141Y-56600000D01*
X158005141Y-56599999D01*
X157984613Y-56352267D01*
X157923586Y-56111278D01*
X157823730Y-55883630D01*
X157723434Y-55730116D01*
X157025928Y-56427621D01*
X157023116Y-56414085D01*
X156953558Y-56279844D01*
X156850362Y-56169348D01*
X156721181Y-56090791D01*
X156669997Y-56076450D01*
X157370057Y-55376390D01*
X157370056Y-55376388D01*
X157323235Y-55339947D01*
X157104606Y-55221631D01*
X156869493Y-55140916D01*
X156624293Y-55100000D01*
X156375707Y-55100000D01*
X156130506Y-55140916D01*
X155895393Y-55221631D01*
X155676764Y-55339946D01*
X155629942Y-55376388D01*
X155629942Y-55376390D01*
X156328431Y-56074878D01*
X156211542Y-56125651D01*
X156094261Y-56221066D01*
X156007072Y-56344585D01*
X155976645Y-56430197D01*
X155276564Y-55730116D01*
X155176266Y-55883634D01*
X155076413Y-56111278D01*
X155015386Y-56352267D01*
X154994858Y-56600000D01*
X153255277Y-56600000D01*
X153236207Y-56382023D01*
X153179575Y-56170670D01*
X153087102Y-55972362D01*
X152961598Y-55793123D01*
X152806877Y-55638402D01*
X152627639Y-55512898D01*
X152547218Y-55475397D01*
X152447095Y-55428708D01*
X152394656Y-55382535D01*
X152375500Y-55316326D01*
X152375500Y-51383672D01*
X152395185Y-51316633D01*
X152447094Y-51271291D01*
X152627639Y-51187102D01*
X152806877Y-51061598D01*
X152961598Y-50906877D01*
X153087102Y-50727639D01*
X153179575Y-50529330D01*
X153236207Y-50317977D01*
X153255277Y-50100000D01*
X153255277Y-50099999D01*
X154994858Y-50099999D01*
X155015386Y-50347732D01*
X155076413Y-50588721D01*
X155176268Y-50816370D01*
X155276563Y-50969882D01*
X155276564Y-50969882D01*
X155974070Y-50272375D01*
X155976884Y-50285915D01*
X156046442Y-50420156D01*
X156149638Y-50530652D01*
X156278819Y-50609209D01*
X156330002Y-50623549D01*
X155629942Y-51323609D01*
X155629942Y-51323610D01*
X155676766Y-51360055D01*
X155895393Y-51478368D01*
X156130506Y-51559083D01*
X156375707Y-51600000D01*
X156624293Y-51600000D01*
X156869493Y-51559083D01*
X157104606Y-51478368D01*
X157323233Y-51360053D01*
X157370056Y-51323609D01*
X156671568Y-50625121D01*
X156788458Y-50574349D01*
X156905739Y-50478934D01*
X156992928Y-50355415D01*
X157023354Y-50269802D01*
X157723434Y-50969882D01*
X157823730Y-50816369D01*
X157923586Y-50588721D01*
X157984613Y-50347732D01*
X158005141Y-50099999D01*
X157984613Y-49852267D01*
X157923586Y-49611278D01*
X157823730Y-49383630D01*
X157723434Y-49230116D01*
X157025929Y-49927622D01*
X157023116Y-49914085D01*
X156953558Y-49779844D01*
X156850362Y-49669348D01*
X156721181Y-49590791D01*
X156669997Y-49576450D01*
X157370057Y-48876390D01*
X157370056Y-48876388D01*
X157323235Y-48839947D01*
X157104606Y-48721631D01*
X156869493Y-48640916D01*
X156624293Y-48600000D01*
X156375707Y-48600000D01*
X156130506Y-48640916D01*
X155895393Y-48721631D01*
X155676764Y-48839946D01*
X155629942Y-48876388D01*
X155629942Y-48876390D01*
X156328431Y-49574878D01*
X156211542Y-49625651D01*
X156094261Y-49721066D01*
X156007072Y-49844585D01*
X155976645Y-49930196D01*
X155276564Y-49230117D01*
X155176266Y-49383634D01*
X155076413Y-49611278D01*
X155015386Y-49852267D01*
X154994858Y-50099999D01*
X153255277Y-50099999D01*
X153236207Y-49882023D01*
X153179575Y-49670670D01*
X153087102Y-49472362D01*
X152961598Y-49293123D01*
X152806877Y-49138402D01*
X152627639Y-49012898D01*
X152522635Y-48963934D01*
X152429331Y-48920425D01*
X152217974Y-48863792D01*
X152000000Y-48844722D01*
X151782025Y-48863792D01*
X151570666Y-48920426D01*
X151499863Y-48953442D01*
X151430785Y-48963934D01*
X151367002Y-48935414D01*
X151359778Y-48928741D01*
X150682290Y-48251253D01*
X149967149Y-47536111D01*
X149951022Y-47516253D01*
X149945083Y-47507162D01*
X149920110Y-47487725D01*
X149908593Y-47477554D01*
X149908519Y-47477480D01*
X149891594Y-47465397D01*
X149887479Y-47462329D01*
X149848336Y-47431862D01*
X149807524Y-47375152D01*
X149800500Y-47334010D01*
X149800500Y-47290325D01*
X149796054Y-47267974D01*
X149785966Y-47217260D01*
X149773689Y-47198886D01*
X149752813Y-47132214D01*
X149771297Y-47064834D01*
X149773638Y-47061190D01*
X149785966Y-47042740D01*
X149800373Y-46970308D01*
X149832759Y-46908397D01*
X149893475Y-46873823D01*
X149921991Y-46870500D01*
X157488101Y-46870500D01*
X157555140Y-46890185D01*
X157575782Y-46906819D01*
X160128740Y-49459778D01*
X160162225Y-49521101D01*
X160157241Y-49590793D01*
X160153442Y-49599862D01*
X160120425Y-49670668D01*
X160063792Y-49882025D01*
X160044722Y-50100000D01*
X160063792Y-50317974D01*
X160120425Y-50529331D01*
X160147459Y-50587304D01*
X160212898Y-50727639D01*
X160338402Y-50906877D01*
X160493123Y-51061598D01*
X160672361Y-51187102D01*
X160870670Y-51279575D01*
X161082023Y-51336207D01*
X161227341Y-51348920D01*
X161299999Y-51355277D01*
X161299999Y-51355276D01*
X161300000Y-51355277D01*
X161517977Y-51336207D01*
X161729330Y-51279575D01*
X161927639Y-51187102D01*
X162106877Y-51061598D01*
X162261598Y-50906877D01*
X162387102Y-50727639D01*
X162479575Y-50529330D01*
X162536207Y-50317977D01*
X162555277Y-50100000D01*
X162554061Y-50086106D01*
X162536207Y-49882025D01*
X162536207Y-49882023D01*
X162479575Y-49670670D01*
X162387102Y-49472362D01*
X162261598Y-49293123D01*
X162106877Y-49138402D01*
X161927639Y-49012898D01*
X161822635Y-48963934D01*
X161729331Y-48920425D01*
X161517974Y-48863792D01*
X161300000Y-48844722D01*
X161082025Y-48863792D01*
X160870666Y-48920426D01*
X160799863Y-48953442D01*
X160730785Y-48963934D01*
X160667002Y-48935414D01*
X160659778Y-48928741D01*
X159339636Y-47608599D01*
X157997149Y-46266111D01*
X157981022Y-46246253D01*
X157975083Y-46237162D01*
X157950110Y-46217725D01*
X157938593Y-46207554D01*
X157938519Y-46207480D01*
X157921594Y-46195397D01*
X157917480Y-46192330D01*
X157876189Y-46160191D01*
X157876186Y-46160190D01*
X157869963Y-46155346D01*
X157869761Y-46155242D01*
X157862200Y-46152990D01*
X157862199Y-46152990D01*
X157812036Y-46138055D01*
X157807174Y-46136497D01*
X157795780Y-46132586D01*
X157750202Y-46116939D01*
X157749969Y-46116906D01*
X157704910Y-46118769D01*
X157689806Y-46119394D01*
X157684684Y-46119500D01*
X149921991Y-46119500D01*
X149854952Y-46099815D01*
X149809197Y-46047011D01*
X149800374Y-46019692D01*
X149786252Y-45948698D01*
X149785966Y-45947260D01*
X149773690Y-45928887D01*
X149752814Y-45862212D01*
X149771299Y-45794832D01*
X149773671Y-45791140D01*
X149785966Y-45772740D01*
X149800500Y-45699674D01*
X149800500Y-44750326D01*
X149785966Y-44677260D01*
X149773689Y-44658886D01*
X149752813Y-44592214D01*
X149771297Y-44524834D01*
X149773638Y-44521190D01*
X149785966Y-44502740D01*
X149800500Y-44429674D01*
X149800500Y-43480326D01*
X149785966Y-43407260D01*
X149773690Y-43388887D01*
X149752814Y-43322212D01*
X149771299Y-43254832D01*
X149773690Y-43251112D01*
X149785966Y-43232740D01*
X149800500Y-43159674D01*
X149800500Y-42210326D01*
X149785966Y-42137260D01*
X149773690Y-42118888D01*
X149752813Y-42052212D01*
X149771298Y-41984832D01*
X149773630Y-41981201D01*
X149785966Y-41962740D01*
X149800500Y-41889674D01*
X149800500Y-40940326D01*
X149785966Y-40867260D01*
X149773689Y-40848886D01*
X149752813Y-40782214D01*
X149771297Y-40714834D01*
X149773638Y-40711190D01*
X149785966Y-40692740D01*
X149800500Y-40619674D01*
X149800500Y-39670326D01*
X149785966Y-39597260D01*
X149773690Y-39578888D01*
X149752813Y-39512212D01*
X149771298Y-39444832D01*
X149773630Y-39441201D01*
X149785966Y-39422740D01*
X149800500Y-39349674D01*
X149800500Y-38400326D01*
X149785966Y-38327260D01*
X149773689Y-38308886D01*
X149752813Y-38242214D01*
X149771297Y-38174834D01*
X149773638Y-38171190D01*
X149785966Y-38152740D01*
X149800500Y-38079674D01*
X149800500Y-37284124D01*
X149820185Y-37217086D01*
X149850190Y-37184858D01*
X149907188Y-37142190D01*
X149993352Y-37027089D01*
X150043599Y-36892371D01*
X150049645Y-36836132D01*
X150050000Y-36829518D01*
X150050000Y-36585000D01*
X147550000Y-36585000D01*
X147550000Y-36829518D01*
X147550354Y-36836132D01*
X147556400Y-36892371D01*
X147612878Y-37043793D01*
X147612482Y-37043940D01*
X147630168Y-37091355D01*
X147615317Y-37159628D01*
X147565912Y-37209034D01*
X147521824Y-37223249D01*
X147479327Y-37228547D01*
X147463987Y-37229500D01*
X147463886Y-37229500D01*
X147443359Y-37232924D01*
X147438300Y-37233661D01*
X147378556Y-37241109D01*
X147378316Y-37241186D01*
X147325359Y-37269844D01*
X147320805Y-37272188D01*
X147266721Y-37298628D01*
X147266506Y-37298788D01*
X147225729Y-37343082D01*
X147222183Y-37346777D01*
X146005780Y-38563181D01*
X145944457Y-38596666D01*
X145918099Y-38599500D01*
X145771015Y-38599500D01*
X145617635Y-38637303D01*
X145477761Y-38710716D01*
X145359515Y-38815471D01*
X145269780Y-38945476D01*
X145213763Y-39093181D01*
X145194721Y-39250000D01*
X145213763Y-39406818D01*
X145269780Y-39554523D01*
X145359515Y-39684528D01*
X145359516Y-39684529D01*
X145359517Y-39684530D01*
X145477760Y-39789283D01*
X145617635Y-39862696D01*
X145771015Y-39900500D01*
X145928985Y-39900500D01*
X146082365Y-39862696D01*
X146222240Y-39789283D01*
X146340483Y-39684530D01*
X146430220Y-39554523D01*
X146486237Y-39406818D01*
X146505278Y-39250000D01*
X146499102Y-39199144D01*
X146510561Y-39130224D01*
X146534514Y-39096521D01*
X147594293Y-38036743D01*
X147655614Y-38003260D01*
X147725306Y-38008244D01*
X147781239Y-38050116D01*
X147803589Y-38100233D01*
X147814034Y-38152740D01*
X147826309Y-38171112D01*
X147847185Y-38237790D01*
X147828699Y-38305170D01*
X147826309Y-38308888D01*
X147814034Y-38327259D01*
X147799500Y-38400325D01*
X147799500Y-39349674D01*
X147814034Y-39422740D01*
X147826308Y-39441110D01*
X147847185Y-39507787D01*
X147828700Y-39575167D01*
X147826310Y-39578886D01*
X147814034Y-39597259D01*
X147799500Y-39670325D01*
X147799500Y-40619674D01*
X147814034Y-40692740D01*
X147826308Y-40711110D01*
X147847185Y-40777787D01*
X147828700Y-40845167D01*
X147826310Y-40848886D01*
X147814034Y-40867259D01*
X147799500Y-40940325D01*
X147799500Y-41889674D01*
X147814034Y-41962740D01*
X147826308Y-41981110D01*
X147847185Y-42047787D01*
X147828700Y-42115167D01*
X147826310Y-42118886D01*
X147814034Y-42137259D01*
X147799500Y-42210325D01*
X147799500Y-43159674D01*
X147814034Y-43232740D01*
X147826309Y-43251112D01*
X147847185Y-43317790D01*
X147828699Y-43385170D01*
X147826309Y-43388888D01*
X147814034Y-43407259D01*
X147799500Y-43480325D01*
X147799500Y-44429674D01*
X147814034Y-44502740D01*
X147826308Y-44521110D01*
X147847185Y-44587787D01*
X147828700Y-44655167D01*
X147826310Y-44658886D01*
X147814034Y-44677259D01*
X147799500Y-44750325D01*
X147799500Y-45699674D01*
X147814034Y-45772740D01*
X147826308Y-45791110D01*
X147847185Y-45857787D01*
X147828700Y-45925167D01*
X147826310Y-45928886D01*
X147814034Y-45947259D01*
X147799500Y-46020325D01*
X147799500Y-46969674D01*
X147814034Y-47042740D01*
X147826309Y-47061112D01*
X147847185Y-47127790D01*
X147828699Y-47195170D01*
X147826309Y-47198888D01*
X147814034Y-47217259D01*
X147799500Y-47290325D01*
X147799500Y-48239674D01*
X147806787Y-48276308D01*
X147800560Y-48345900D01*
X147757697Y-48401077D01*
X147691808Y-48424322D01*
X147685170Y-48424500D01*
X146706900Y-48424500D01*
X146639861Y-48404815D01*
X146619219Y-48388181D01*
X132876819Y-34645781D01*
X132843334Y-34584458D01*
X132840500Y-34558100D01*
X132840500Y-34421991D01*
X132860185Y-34354952D01*
X132912989Y-34309197D01*
X132940308Y-34300374D01*
X132955404Y-34297371D01*
X133012740Y-34285966D01*
X133031113Y-34273689D01*
X133097786Y-34252813D01*
X133165166Y-34271297D01*
X133168809Y-34273638D01*
X133187260Y-34285966D01*
X133242059Y-34296866D01*
X133260325Y-34300500D01*
X133260326Y-34300500D01*
X134209675Y-34300500D01*
X134225404Y-34297371D01*
X134282740Y-34285966D01*
X134301113Y-34273689D01*
X134367786Y-34252813D01*
X134435166Y-34271297D01*
X134438809Y-34273638D01*
X134457260Y-34285966D01*
X134512059Y-34296866D01*
X134530325Y-34300500D01*
X134530326Y-34300500D01*
X135479675Y-34300500D01*
X135495404Y-34297371D01*
X135552740Y-34285966D01*
X135571113Y-34273689D01*
X135637786Y-34252813D01*
X135705166Y-34271297D01*
X135708809Y-34273638D01*
X135727260Y-34285966D01*
X135782059Y-34296866D01*
X135800325Y-34300500D01*
X135800326Y-34300500D01*
X136749675Y-34300500D01*
X136765404Y-34297371D01*
X136822740Y-34285966D01*
X136841113Y-34273689D01*
X136907786Y-34252813D01*
X136975166Y-34271297D01*
X136978809Y-34273638D01*
X136997260Y-34285966D01*
X137052059Y-34296866D01*
X137070325Y-34300500D01*
X137070326Y-34300500D01*
X138019675Y-34300500D01*
X138035404Y-34297371D01*
X138092740Y-34285966D01*
X138111113Y-34273689D01*
X138177786Y-34252813D01*
X138245166Y-34271297D01*
X138248809Y-34273638D01*
X138267260Y-34285966D01*
X138322059Y-34296866D01*
X138340325Y-34300500D01*
X138340326Y-34300500D01*
X139289675Y-34300500D01*
X139305404Y-34297371D01*
X139362740Y-34285966D01*
X139381113Y-34273689D01*
X139447786Y-34252813D01*
X139515166Y-34271297D01*
X139518809Y-34273638D01*
X139537260Y-34285966D01*
X139592059Y-34296866D01*
X139610325Y-34300500D01*
X139610326Y-34300500D01*
X140559675Y-34300500D01*
X140575404Y-34297371D01*
X140632740Y-34285966D01*
X140651113Y-34273689D01*
X140717786Y-34252813D01*
X140785166Y-34271297D01*
X140788809Y-34273638D01*
X140807260Y-34285966D01*
X140862059Y-34296866D01*
X140880325Y-34300500D01*
X140880326Y-34300500D01*
X141829675Y-34300500D01*
X141845404Y-34297371D01*
X141902740Y-34285966D01*
X141921113Y-34273689D01*
X141987786Y-34252813D01*
X142055166Y-34271297D01*
X142058809Y-34273638D01*
X142077260Y-34285966D01*
X142132059Y-34296866D01*
X142150325Y-34300500D01*
X142150326Y-34300500D01*
X143099675Y-34300500D01*
X143115404Y-34297371D01*
X143172740Y-34285966D01*
X143191113Y-34273689D01*
X143257786Y-34252813D01*
X143325166Y-34271297D01*
X143328809Y-34273638D01*
X143347260Y-34285966D01*
X143404596Y-34297371D01*
X143419692Y-34300374D01*
X143420326Y-34300500D01*
X143431320Y-34302687D01*
X143493231Y-34335072D01*
X143527805Y-34395788D01*
X143530176Y-34408964D01*
X143531107Y-34416438D01*
X143531185Y-34416682D01*
X143559827Y-34469608D01*
X143562171Y-34474162D01*
X143588634Y-34528292D01*
X143588779Y-34528485D01*
X143633080Y-34569267D01*
X143636779Y-34572816D01*
X144692850Y-35628888D01*
X144708976Y-35648744D01*
X144714916Y-35657836D01*
X144739890Y-35677274D01*
X144751408Y-35687446D01*
X144751482Y-35687520D01*
X144761410Y-35694608D01*
X144768399Y-35699598D01*
X144772508Y-35702662D01*
X144820041Y-35739658D01*
X144820232Y-35739757D01*
X144854601Y-35749988D01*
X144877955Y-35756941D01*
X144882792Y-35758490D01*
X144932340Y-35775500D01*
X144939797Y-35778060D01*
X144940030Y-35778093D01*
X144947909Y-35777767D01*
X144947912Y-35777768D01*
X145000193Y-35775605D01*
X145005316Y-35775500D01*
X147426000Y-35775500D01*
X147493039Y-35795185D01*
X147538794Y-35847989D01*
X147550000Y-35899500D01*
X147550000Y-36085000D01*
X150050000Y-36085000D01*
X150050000Y-36080399D01*
X150069685Y-36013360D01*
X150122489Y-35967605D01*
X150191647Y-35957661D01*
X150255203Y-35986686D01*
X150261680Y-35992717D01*
X154980070Y-40711108D01*
X159697850Y-45428888D01*
X159713976Y-45448744D01*
X159719916Y-45457836D01*
X159744890Y-45477274D01*
X159756408Y-45487446D01*
X159756482Y-45487520D01*
X159766410Y-45494608D01*
X159773399Y-45499598D01*
X159777508Y-45502662D01*
X159825041Y-45539658D01*
X159825232Y-45539757D01*
X159859601Y-45549988D01*
X159882955Y-45556941D01*
X159887792Y-45558490D01*
X159937340Y-45575500D01*
X159944797Y-45578060D01*
X159945030Y-45578093D01*
X159952909Y-45577767D01*
X159952912Y-45577768D01*
X160005193Y-45575605D01*
X160010316Y-45575500D01*
X161029470Y-45575500D01*
X161096509Y-45595185D01*
X161142264Y-45647989D01*
X161152208Y-45717147D01*
X161123183Y-45780703D01*
X161064405Y-45818477D01*
X161061564Y-45819275D01*
X160870668Y-45870425D01*
X160672361Y-45962898D01*
X160493122Y-46088402D01*
X160338402Y-46243122D01*
X160212898Y-46422361D01*
X160120425Y-46620668D01*
X160063792Y-46832025D01*
X160044722Y-47049999D01*
X160063792Y-47267974D01*
X160120425Y-47479331D01*
X160142661Y-47527016D01*
X160212898Y-47677639D01*
X160338402Y-47856877D01*
X160493123Y-48011598D01*
X160672361Y-48137102D01*
X160870670Y-48229575D01*
X161082023Y-48286207D01*
X161210969Y-48297488D01*
X161299999Y-48305277D01*
X161299999Y-48305276D01*
X161300000Y-48305277D01*
X161517977Y-48286207D01*
X161729330Y-48229575D01*
X161927639Y-48137102D01*
X162106877Y-48011598D01*
X162261598Y-47856877D01*
X162387102Y-47677639D01*
X162479575Y-47479330D01*
X162536207Y-47267977D01*
X162555277Y-47050000D01*
X162536207Y-46832023D01*
X162479575Y-46620670D01*
X162387102Y-46422362D01*
X162261598Y-46243123D01*
X162106877Y-46088402D01*
X161927639Y-45962898D01*
X161747267Y-45878789D01*
X161729331Y-45870425D01*
X161538436Y-45819275D01*
X161478776Y-45782910D01*
X161448247Y-45720063D01*
X161456542Y-45650687D01*
X161501027Y-45596809D01*
X161567579Y-45575535D01*
X161570530Y-45575500D01*
X162393101Y-45575500D01*
X162460140Y-45595185D01*
X162480782Y-45611819D01*
X163088181Y-46219218D01*
X163121666Y-46280541D01*
X163124500Y-46306899D01*
X163124500Y-57293100D01*
X163104815Y-57360139D01*
X163088181Y-57380781D01*
X161940221Y-58528740D01*
X161878898Y-58562225D01*
X161809206Y-58557241D01*
X161800137Y-58553442D01*
X161729331Y-58520425D01*
X161517974Y-58463792D01*
X161300000Y-58444722D01*
X161082025Y-58463792D01*
X160870668Y-58520425D01*
X160672361Y-58612898D01*
X160493122Y-58738402D01*
X160338402Y-58893122D01*
X160212898Y-59072361D01*
X160120425Y-59270668D01*
X160063792Y-59482025D01*
X160044722Y-59700000D01*
X160063792Y-59917974D01*
X160120425Y-60129331D01*
X160156603Y-60206915D01*
X160212898Y-60327639D01*
X160338402Y-60506877D01*
X160493123Y-60661598D01*
X160600954Y-60737102D01*
X160672364Y-60787104D01*
X160745677Y-60821290D01*
X160852905Y-60871291D01*
X160905344Y-60917462D01*
X160924500Y-60983672D01*
X160924500Y-64916326D01*
X160904815Y-64983365D01*
X160852905Y-65028708D01*
X160672361Y-65112898D01*
X160493122Y-65238402D01*
X160338402Y-65393122D01*
X160212898Y-65572361D01*
X160120425Y-65770668D01*
X160063792Y-65982025D01*
X160044722Y-66200000D01*
X160063792Y-66417974D01*
X160120425Y-66629331D01*
X160164403Y-66723642D01*
X160212898Y-66827639D01*
X160338402Y-67006877D01*
X160493123Y-67161598D01*
X160672361Y-67287102D01*
X160870670Y-67379575D01*
X161082023Y-67436207D01*
X161300000Y-67455277D01*
X161517977Y-67436207D01*
X161729330Y-67379575D01*
X161927639Y-67287102D01*
X162106877Y-67161598D01*
X162261598Y-67006877D01*
X162387102Y-66827639D01*
X162479575Y-66629330D01*
X162536207Y-66417977D01*
X162555277Y-66200000D01*
X162555277Y-66199999D01*
X164294858Y-66199999D01*
X164315386Y-66447732D01*
X164376413Y-66688721D01*
X164476268Y-66916370D01*
X164576563Y-67069882D01*
X164576564Y-67069882D01*
X165274070Y-66372376D01*
X165276884Y-66385915D01*
X165346442Y-66520156D01*
X165449638Y-66630652D01*
X165578819Y-66709209D01*
X165630002Y-66723549D01*
X164929942Y-67423609D01*
X164929942Y-67423610D01*
X164976766Y-67460055D01*
X165195393Y-67578368D01*
X165430506Y-67659083D01*
X165675707Y-67700000D01*
X165924293Y-67700000D01*
X166169493Y-67659083D01*
X166404606Y-67578368D01*
X166623233Y-67460053D01*
X166670056Y-67423609D01*
X165971568Y-66725121D01*
X166088458Y-66674349D01*
X166205739Y-66578934D01*
X166292928Y-66455415D01*
X166323354Y-66369802D01*
X167023434Y-67069882D01*
X167123730Y-66916369D01*
X167223586Y-66688721D01*
X167284613Y-66447732D01*
X167305141Y-66200000D01*
X167284613Y-65952267D01*
X167223586Y-65711278D01*
X167123730Y-65483630D01*
X167023434Y-65330116D01*
X166325929Y-66027622D01*
X166323116Y-66014085D01*
X166253558Y-65879844D01*
X166150362Y-65769348D01*
X166021181Y-65690791D01*
X165969997Y-65676450D01*
X166670057Y-64976390D01*
X166670056Y-64976388D01*
X166623235Y-64939947D01*
X166404606Y-64821631D01*
X166169493Y-64740916D01*
X165924293Y-64700000D01*
X165675707Y-64700000D01*
X165430506Y-64740916D01*
X165195393Y-64821631D01*
X164976764Y-64939946D01*
X164929942Y-64976388D01*
X164929942Y-64976390D01*
X165628431Y-65674878D01*
X165511542Y-65725651D01*
X165394261Y-65821066D01*
X165307072Y-65944585D01*
X165276645Y-66030197D01*
X164576564Y-65330116D01*
X164476266Y-65483634D01*
X164376413Y-65711278D01*
X164315386Y-65952267D01*
X164294858Y-66199999D01*
X162555277Y-66199999D01*
X162551962Y-66162114D01*
X162541405Y-66041438D01*
X162536207Y-65982023D01*
X162479575Y-65770670D01*
X162387102Y-65572362D01*
X162261598Y-65393123D01*
X162106877Y-65238402D01*
X161927639Y-65112898D01*
X161835846Y-65070094D01*
X161747095Y-65028708D01*
X161694656Y-64982535D01*
X161675500Y-64916326D01*
X161675500Y-60983672D01*
X161695185Y-60916633D01*
X161747094Y-60871291D01*
X161894991Y-60802326D01*
X161927635Y-60787104D01*
X161927635Y-60787103D01*
X161927639Y-60787102D01*
X162106877Y-60661598D01*
X162261598Y-60506877D01*
X162387102Y-60327639D01*
X162479575Y-60129330D01*
X162536207Y-59917977D01*
X162555277Y-59700000D01*
X164294858Y-59700000D01*
X164315386Y-59947732D01*
X164376413Y-60188721D01*
X164476268Y-60416370D01*
X164576563Y-60569882D01*
X164576564Y-60569882D01*
X165274070Y-59872376D01*
X165276884Y-59885915D01*
X165346442Y-60020156D01*
X165449638Y-60130652D01*
X165578819Y-60209209D01*
X165630002Y-60223549D01*
X164929942Y-60923609D01*
X164929942Y-60923610D01*
X164976766Y-60960055D01*
X165195393Y-61078368D01*
X165430506Y-61159083D01*
X165675707Y-61200000D01*
X165924293Y-61200000D01*
X166169493Y-61159083D01*
X166404606Y-61078368D01*
X166623233Y-60960053D01*
X166670056Y-60923609D01*
X165971568Y-60225121D01*
X166088458Y-60174349D01*
X166205739Y-60078934D01*
X166292928Y-59955415D01*
X166323355Y-59869801D01*
X167023434Y-60569882D01*
X167123730Y-60416369D01*
X167223586Y-60188721D01*
X167284613Y-59947732D01*
X167305141Y-59699999D01*
X167284613Y-59452267D01*
X167223586Y-59211278D01*
X167123730Y-58983630D01*
X167023434Y-58830116D01*
X166325928Y-59527621D01*
X166323116Y-59514085D01*
X166253558Y-59379844D01*
X166150362Y-59269348D01*
X166021181Y-59190791D01*
X165969997Y-59176450D01*
X166670057Y-58476390D01*
X166670056Y-58476388D01*
X166623235Y-58439947D01*
X166404606Y-58321631D01*
X166246290Y-58267281D01*
X166189275Y-58226896D01*
X166163144Y-58162096D01*
X166176195Y-58093456D01*
X166224284Y-58042768D01*
X166246290Y-58032719D01*
X166404606Y-57978368D01*
X166623233Y-57860053D01*
X166670056Y-57823609D01*
X165971568Y-57125121D01*
X166088458Y-57074349D01*
X166205739Y-56978934D01*
X166292928Y-56855415D01*
X166323355Y-56769801D01*
X167023434Y-57469882D01*
X167123730Y-57316369D01*
X167223586Y-57088721D01*
X167284613Y-56847732D01*
X167305141Y-56600000D01*
X167305141Y-56599999D01*
X169344722Y-56599999D01*
X169363792Y-56817974D01*
X169420425Y-57029331D01*
X169455789Y-57105168D01*
X169512898Y-57227639D01*
X169638402Y-57406877D01*
X169793123Y-57561598D01*
X169972361Y-57687102D01*
X170170670Y-57779575D01*
X170382023Y-57836207D01*
X170600000Y-57855277D01*
X170817977Y-57836207D01*
X171029330Y-57779575D01*
X171227639Y-57687102D01*
X171406877Y-57561598D01*
X171561598Y-57406877D01*
X171687102Y-57227639D01*
X171779575Y-57029330D01*
X171836207Y-56817977D01*
X171855277Y-56600000D01*
X171851962Y-56562114D01*
X171840531Y-56431450D01*
X171836207Y-56382023D01*
X171779575Y-56170670D01*
X171687102Y-55972362D01*
X171561598Y-55793123D01*
X171406877Y-55638402D01*
X171227639Y-55512898D01*
X171120244Y-55462819D01*
X171029331Y-55420425D01*
X170817974Y-55363792D01*
X170600000Y-55344722D01*
X170382025Y-55363792D01*
X170170668Y-55420425D01*
X169972361Y-55512898D01*
X169793122Y-55638402D01*
X169638402Y-55793122D01*
X169512898Y-55972361D01*
X169420425Y-56170668D01*
X169363792Y-56382025D01*
X169344722Y-56599999D01*
X167305141Y-56599999D01*
X167284613Y-56352267D01*
X167223586Y-56111278D01*
X167123730Y-55883630D01*
X167023434Y-55730116D01*
X166325928Y-56427621D01*
X166323116Y-56414085D01*
X166253558Y-56279844D01*
X166150362Y-56169348D01*
X166021181Y-56090791D01*
X165969997Y-56076450D01*
X166670057Y-55376390D01*
X166670056Y-55376388D01*
X166623235Y-55339947D01*
X166404606Y-55221631D01*
X166169493Y-55140916D01*
X165924293Y-55100000D01*
X165675707Y-55100000D01*
X165430506Y-55140916D01*
X165195393Y-55221631D01*
X164976764Y-55339946D01*
X164929942Y-55376388D01*
X164929942Y-55376390D01*
X165628431Y-56074878D01*
X165511542Y-56125651D01*
X165394261Y-56221066D01*
X165307072Y-56344585D01*
X165276645Y-56430197D01*
X164576564Y-55730116D01*
X164476266Y-55883634D01*
X164376413Y-56111278D01*
X164315386Y-56352267D01*
X164294858Y-56599999D01*
X164315386Y-56847732D01*
X164376413Y-57088721D01*
X164476268Y-57316370D01*
X164576563Y-57469882D01*
X164576564Y-57469882D01*
X165274070Y-56772376D01*
X165276884Y-56785915D01*
X165346442Y-56920156D01*
X165449638Y-57030652D01*
X165578819Y-57109209D01*
X165630002Y-57123549D01*
X164929942Y-57823609D01*
X164929942Y-57823610D01*
X164976766Y-57860055D01*
X165195394Y-57978369D01*
X165353708Y-58032718D01*
X165410724Y-58073103D01*
X165436855Y-58137903D01*
X165423804Y-58206543D01*
X165375715Y-58257230D01*
X165353710Y-58267280D01*
X165195391Y-58321632D01*
X164976764Y-58439946D01*
X164929942Y-58476388D01*
X164929942Y-58476390D01*
X165628431Y-59174878D01*
X165511542Y-59225651D01*
X165394261Y-59321066D01*
X165307072Y-59444585D01*
X165276645Y-59530197D01*
X164576564Y-58830116D01*
X164476266Y-58983634D01*
X164376413Y-59211278D01*
X164315386Y-59452267D01*
X164294858Y-59700000D01*
X162555277Y-59700000D01*
X162551962Y-59662114D01*
X162541021Y-59537047D01*
X162536207Y-59482023D01*
X162479575Y-59270670D01*
X162446557Y-59199863D01*
X162436065Y-59130786D01*
X162464584Y-59067002D01*
X162471245Y-59059790D01*
X163728892Y-57802144D01*
X163748743Y-57786024D01*
X163757836Y-57780084D01*
X163777280Y-57755101D01*
X163787453Y-57743584D01*
X163787520Y-57743518D01*
X163799619Y-57726570D01*
X163802641Y-57722515D01*
X163834809Y-57681189D01*
X163834810Y-57681185D01*
X163839666Y-57674947D01*
X163839753Y-57674778D01*
X163842008Y-57667200D01*
X163842010Y-57667199D01*
X163856951Y-57617009D01*
X163858479Y-57612238D01*
X163875500Y-57562660D01*
X163875500Y-57562655D01*
X163878060Y-57555199D01*
X163878093Y-57554970D01*
X163877767Y-57547090D01*
X163877768Y-57547088D01*
X163875605Y-57494806D01*
X163875500Y-57489684D01*
X163875500Y-50100000D01*
X164294858Y-50100000D01*
X164315386Y-50347732D01*
X164376413Y-50588721D01*
X164476268Y-50816370D01*
X164576563Y-50969882D01*
X164576564Y-50969882D01*
X165274070Y-50272376D01*
X165276884Y-50285915D01*
X165346442Y-50420156D01*
X165449638Y-50530652D01*
X165578819Y-50609209D01*
X165630002Y-50623549D01*
X164929942Y-51323609D01*
X164929942Y-51323610D01*
X164976766Y-51360055D01*
X165195393Y-51478368D01*
X165430506Y-51559083D01*
X165675707Y-51600000D01*
X165924293Y-51600000D01*
X166169493Y-51559083D01*
X166404606Y-51478368D01*
X166623233Y-51360053D01*
X166670056Y-51323609D01*
X165971568Y-50625121D01*
X166088458Y-50574349D01*
X166205739Y-50478934D01*
X166292928Y-50355415D01*
X166323354Y-50269802D01*
X167023434Y-50969882D01*
X167123730Y-50816369D01*
X167223586Y-50588721D01*
X167284613Y-50347732D01*
X167305141Y-50099999D01*
X167284613Y-49852267D01*
X167223586Y-49611278D01*
X167123730Y-49383630D01*
X167023434Y-49230116D01*
X166325929Y-49927622D01*
X166323116Y-49914085D01*
X166253558Y-49779844D01*
X166150362Y-49669348D01*
X166021181Y-49590791D01*
X165969997Y-49576450D01*
X166670057Y-48876390D01*
X166670056Y-48876388D01*
X166623235Y-48839947D01*
X166404608Y-48721632D01*
X166319111Y-48692280D01*
X166262096Y-48651894D01*
X166235966Y-48587094D01*
X166249018Y-48518454D01*
X166297107Y-48467767D01*
X166319113Y-48457717D01*
X166404610Y-48428366D01*
X166623233Y-48310053D01*
X166670056Y-48273609D01*
X165971568Y-47575121D01*
X166088458Y-47524349D01*
X166205739Y-47428934D01*
X166292928Y-47305415D01*
X166323354Y-47219802D01*
X167023434Y-47919882D01*
X167123730Y-47766369D01*
X167223586Y-47538721D01*
X167284613Y-47297732D01*
X167305141Y-47050000D01*
X167284613Y-46802267D01*
X167223586Y-46561278D01*
X167123730Y-46333630D01*
X167023434Y-46180116D01*
X166325929Y-46877622D01*
X166323116Y-46864085D01*
X166253558Y-46729844D01*
X166150362Y-46619348D01*
X166021181Y-46540791D01*
X165969997Y-46526450D01*
X166670057Y-45826390D01*
X166670056Y-45826388D01*
X166623235Y-45789947D01*
X166404606Y-45671631D01*
X166169493Y-45590916D01*
X165924293Y-45550000D01*
X165675707Y-45550000D01*
X165430506Y-45590916D01*
X165195393Y-45671631D01*
X164976764Y-45789946D01*
X164929942Y-45826388D01*
X164929942Y-45826390D01*
X165628431Y-46524878D01*
X165511542Y-46575651D01*
X165394261Y-46671066D01*
X165307072Y-46794585D01*
X165276645Y-46880197D01*
X164576564Y-46180116D01*
X164476266Y-46333634D01*
X164376413Y-46561278D01*
X164315386Y-46802267D01*
X164294858Y-47050000D01*
X164315386Y-47297732D01*
X164376413Y-47538721D01*
X164476268Y-47766370D01*
X164576563Y-47919882D01*
X164576564Y-47919882D01*
X165274070Y-47222376D01*
X165276884Y-47235915D01*
X165346442Y-47370156D01*
X165449638Y-47480652D01*
X165578819Y-47559209D01*
X165630002Y-47573549D01*
X164929942Y-48273609D01*
X164929942Y-48273610D01*
X164976766Y-48310055D01*
X165195389Y-48428366D01*
X165280886Y-48457717D01*
X165337902Y-48498103D01*
X165364033Y-48562902D01*
X165350982Y-48631542D01*
X165302894Y-48682230D01*
X165280888Y-48692280D01*
X165195392Y-48721632D01*
X164976764Y-48839946D01*
X164929942Y-48876388D01*
X164929942Y-48876390D01*
X165628431Y-49574878D01*
X165511542Y-49625651D01*
X165394261Y-49721066D01*
X165307072Y-49844585D01*
X165276645Y-49930196D01*
X164576564Y-49230117D01*
X164476266Y-49383634D01*
X164376413Y-49611278D01*
X164315386Y-49852267D01*
X164294858Y-50100000D01*
X163875500Y-50100000D01*
X163875500Y-46151804D01*
X163878139Y-46126357D01*
X163880367Y-46115732D01*
X163876452Y-46084323D01*
X163875500Y-46068986D01*
X163875500Y-46068887D01*
X163875500Y-46068886D01*
X163872075Y-46048369D01*
X163871341Y-46043325D01*
X163863891Y-45983550D01*
X163863821Y-45983332D01*
X163860065Y-45976392D01*
X163860065Y-45976390D01*
X163835148Y-45930348D01*
X163832828Y-45925840D01*
X163809826Y-45878789D01*
X163809825Y-45878788D01*
X163806360Y-45871700D01*
X163806225Y-45871519D01*
X163791308Y-45857787D01*
X163761892Y-45830707D01*
X163758219Y-45827182D01*
X162902149Y-44971111D01*
X162886022Y-44951253D01*
X162880083Y-44942162D01*
X162855110Y-44922725D01*
X162843593Y-44912554D01*
X162843519Y-44912480D01*
X162826594Y-44900397D01*
X162822480Y-44897330D01*
X162781189Y-44865191D01*
X162781186Y-44865190D01*
X162774963Y-44860346D01*
X162774761Y-44860242D01*
X162767200Y-44857990D01*
X162767199Y-44857990D01*
X162717036Y-44843055D01*
X162712174Y-44841497D01*
X162700780Y-44837586D01*
X162655202Y-44821939D01*
X162654969Y-44821906D01*
X162609910Y-44823769D01*
X162594806Y-44824394D01*
X162589684Y-44824500D01*
X160206899Y-44824500D01*
X160139860Y-44804815D01*
X160119218Y-44788181D01*
X150618219Y-35287181D01*
X150584734Y-35225858D01*
X150589718Y-35156166D01*
X150631590Y-35100233D01*
X150697054Y-35075816D01*
X150705900Y-35075500D01*
X151593101Y-35075500D01*
X151660140Y-35095185D01*
X151680782Y-35111819D01*
X159947850Y-43378887D01*
X159963977Y-43398746D01*
X159969915Y-43407836D01*
X159994893Y-43427277D01*
X160006410Y-43437448D01*
X160006481Y-43437519D01*
X160023397Y-43449597D01*
X160027505Y-43452660D01*
X160075041Y-43489659D01*
X160075232Y-43489756D01*
X160082799Y-43492009D01*
X160082801Y-43492010D01*
X160132974Y-43506947D01*
X160137804Y-43508494D01*
X160187340Y-43525500D01*
X160187342Y-43525500D01*
X160194799Y-43528060D01*
X160195033Y-43528094D01*
X160202909Y-43527768D01*
X160202912Y-43527769D01*
X160253227Y-43525687D01*
X160255207Y-43525606D01*
X160260331Y-43525500D01*
X165843101Y-43525500D01*
X165910140Y-43545185D01*
X165930782Y-43561819D01*
X171057344Y-48688381D01*
X171090829Y-48749704D01*
X171085845Y-48819396D01*
X171043973Y-48875329D01*
X170978509Y-48899746D01*
X170937570Y-48895837D01*
X170817976Y-48863792D01*
X170600000Y-48844722D01*
X170382025Y-48863792D01*
X170170668Y-48920425D01*
X169972361Y-49012898D01*
X169793122Y-49138402D01*
X169638402Y-49293122D01*
X169512898Y-49472361D01*
X169420425Y-49670668D01*
X169363792Y-49882025D01*
X169344722Y-50099999D01*
X169363792Y-50317974D01*
X169420425Y-50529331D01*
X169447459Y-50587304D01*
X169512898Y-50727639D01*
X169638402Y-50906877D01*
X169793123Y-51061598D01*
X169972361Y-51187102D01*
X170170670Y-51279575D01*
X170382023Y-51336207D01*
X170600000Y-51355277D01*
X170817977Y-51336207D01*
X171029330Y-51279575D01*
X171227639Y-51187102D01*
X171406877Y-51061598D01*
X171561598Y-50906877D01*
X171687102Y-50727639D01*
X171779575Y-50529330D01*
X171836207Y-50317977D01*
X171855277Y-50100000D01*
X171854061Y-50086106D01*
X171836207Y-49882025D01*
X171836207Y-49882023D01*
X171804162Y-49762429D01*
X171805825Y-49692580D01*
X171844987Y-49634717D01*
X171909216Y-49607213D01*
X171978118Y-49618799D01*
X172011618Y-49642655D01*
X172788181Y-50419218D01*
X172821666Y-50480541D01*
X172824500Y-50506899D01*
X172824500Y-58705662D01*
X172804815Y-58772701D01*
X172788182Y-58793342D01*
X172738403Y-58843121D01*
X172612898Y-59022361D01*
X172520425Y-59220668D01*
X172463792Y-59432025D01*
X172444722Y-59649999D01*
X172463792Y-59867974D01*
X172520425Y-60079331D01*
X172543740Y-60129330D01*
X172612898Y-60277639D01*
X172738402Y-60456877D01*
X172893123Y-60611598D01*
X173072361Y-60737102D01*
X173072364Y-60737104D01*
X173160552Y-60778226D01*
X173252905Y-60821291D01*
X173305344Y-60867462D01*
X173324500Y-60933672D01*
X173324500Y-64866326D01*
X173304815Y-64933365D01*
X173252905Y-64978708D01*
X173072361Y-65062898D01*
X172893122Y-65188402D01*
X172738402Y-65343122D01*
X172612898Y-65522361D01*
X172520425Y-65720668D01*
X172463792Y-65932025D01*
X172444722Y-66149999D01*
X172463792Y-66367974D01*
X172520425Y-66579331D01*
X172561390Y-66667180D01*
X172612898Y-66777639D01*
X172738402Y-66956877D01*
X172893123Y-67111598D01*
X173072361Y-67237102D01*
X173270670Y-67329575D01*
X173482023Y-67386207D01*
X173700000Y-67405277D01*
X173917977Y-67386207D01*
X174129330Y-67329575D01*
X174327639Y-67237102D01*
X174506877Y-67111598D01*
X174661598Y-66956877D01*
X174787102Y-66777639D01*
X174879575Y-66579330D01*
X174936207Y-66367977D01*
X174955277Y-66150000D01*
X176694858Y-66150000D01*
X176715386Y-66397732D01*
X176776413Y-66638721D01*
X176876268Y-66866370D01*
X176976563Y-67019882D01*
X176976564Y-67019882D01*
X177674070Y-66322376D01*
X177676884Y-66335915D01*
X177746442Y-66470156D01*
X177849638Y-66580652D01*
X177978819Y-66659209D01*
X178030002Y-66673549D01*
X177329942Y-67373609D01*
X177329942Y-67373610D01*
X177376766Y-67410055D01*
X177595393Y-67528368D01*
X177830506Y-67609083D01*
X178075707Y-67650000D01*
X178324293Y-67650000D01*
X178569493Y-67609083D01*
X178804606Y-67528368D01*
X179023233Y-67410053D01*
X179070056Y-67373609D01*
X178371568Y-66675121D01*
X178488458Y-66624349D01*
X178605739Y-66528934D01*
X178692928Y-66405415D01*
X178723355Y-66319801D01*
X179423434Y-67019882D01*
X179523730Y-66866369D01*
X179623586Y-66638721D01*
X179684613Y-66397732D01*
X179705141Y-66150000D01*
X179684613Y-65902267D01*
X179623586Y-65661278D01*
X179523730Y-65433630D01*
X179423434Y-65280116D01*
X178725928Y-65977621D01*
X178723116Y-65964085D01*
X178653558Y-65829844D01*
X178550362Y-65719348D01*
X178421181Y-65640791D01*
X178369997Y-65626450D01*
X179070057Y-64926390D01*
X179070056Y-64926388D01*
X179023235Y-64889947D01*
X178804606Y-64771631D01*
X178569493Y-64690916D01*
X178324293Y-64650000D01*
X178075707Y-64650000D01*
X177830506Y-64690916D01*
X177595393Y-64771631D01*
X177376764Y-64889946D01*
X177329942Y-64926388D01*
X177329942Y-64926390D01*
X178028431Y-65624878D01*
X177911542Y-65675651D01*
X177794261Y-65771066D01*
X177707072Y-65894585D01*
X177676645Y-65980197D01*
X176976564Y-65280116D01*
X176876266Y-65433634D01*
X176776413Y-65661278D01*
X176715386Y-65902267D01*
X176694858Y-66150000D01*
X174955277Y-66150000D01*
X174951962Y-66112114D01*
X174938315Y-65956116D01*
X174936207Y-65932023D01*
X174879575Y-65720670D01*
X174787102Y-65522362D01*
X174661598Y-65343123D01*
X174506877Y-65188402D01*
X174327639Y-65062898D01*
X174274443Y-65038092D01*
X174147095Y-64978708D01*
X174094656Y-64932535D01*
X174075500Y-64866326D01*
X174075500Y-60933672D01*
X174095185Y-60866633D01*
X174147094Y-60821291D01*
X174327639Y-60737102D01*
X174506877Y-60611598D01*
X174661598Y-60456877D01*
X174787102Y-60277639D01*
X174879575Y-60079330D01*
X174936207Y-59867977D01*
X174955277Y-59650000D01*
X176694858Y-59650000D01*
X176715386Y-59897732D01*
X176776413Y-60138721D01*
X176876268Y-60366370D01*
X176976563Y-60519882D01*
X176976564Y-60519882D01*
X177674070Y-59822376D01*
X177676884Y-59835915D01*
X177746442Y-59970156D01*
X177849638Y-60080652D01*
X177978819Y-60159209D01*
X178030002Y-60173549D01*
X177329942Y-60873609D01*
X177329942Y-60873610D01*
X177376766Y-60910055D01*
X177595393Y-61028368D01*
X177830506Y-61109083D01*
X178075707Y-61150000D01*
X178324293Y-61150000D01*
X178569493Y-61109083D01*
X178804606Y-61028368D01*
X179023233Y-60910053D01*
X179070056Y-60873609D01*
X178371568Y-60175121D01*
X178488458Y-60124349D01*
X178605739Y-60028934D01*
X178692928Y-59905415D01*
X178723354Y-59819802D01*
X179423434Y-60519882D01*
X179523730Y-60366369D01*
X179623586Y-60138721D01*
X179684613Y-59897732D01*
X179705141Y-59649999D01*
X179684613Y-59402267D01*
X179623586Y-59161278D01*
X179523730Y-58933630D01*
X179423434Y-58780116D01*
X178725929Y-59477622D01*
X178723116Y-59464085D01*
X178653558Y-59329844D01*
X178550362Y-59219348D01*
X178421181Y-59140791D01*
X178369997Y-59126450D01*
X179070057Y-58426390D01*
X179070056Y-58426388D01*
X179023235Y-58389947D01*
X178804606Y-58271631D01*
X178569493Y-58190916D01*
X178324293Y-58150000D01*
X178075707Y-58150000D01*
X177830506Y-58190916D01*
X177595393Y-58271631D01*
X177376764Y-58389946D01*
X177329942Y-58426388D01*
X177329942Y-58426390D01*
X178028431Y-59124878D01*
X177911542Y-59175651D01*
X177794261Y-59271066D01*
X177707072Y-59394585D01*
X177676645Y-59480197D01*
X176976564Y-58780116D01*
X176876266Y-58933634D01*
X176776413Y-59161278D01*
X176715386Y-59402267D01*
X176694858Y-59650000D01*
X174955277Y-59650000D01*
X174951962Y-59612114D01*
X174940581Y-59482023D01*
X174936207Y-59432023D01*
X174879575Y-59220670D01*
X174787102Y-59022362D01*
X174661598Y-58843123D01*
X174506877Y-58688402D01*
X174327639Y-58562898D01*
X174210536Y-58508292D01*
X174129331Y-58470425D01*
X173917974Y-58413792D01*
X173689193Y-58393777D01*
X173689552Y-58389669D01*
X173641645Y-58379968D01*
X173591534Y-58331279D01*
X173575500Y-58270292D01*
X173575500Y-57425579D01*
X173595185Y-57358540D01*
X173647989Y-57312785D01*
X173717147Y-57302841D01*
X173780703Y-57331866D01*
X173803309Y-57357757D01*
X173876564Y-57469882D01*
X174574070Y-56772376D01*
X174576884Y-56785915D01*
X174646442Y-56920156D01*
X174749638Y-57030652D01*
X174878819Y-57109209D01*
X174930002Y-57123549D01*
X174229942Y-57823609D01*
X174229942Y-57823610D01*
X174276766Y-57860055D01*
X174495393Y-57978368D01*
X174730506Y-58059083D01*
X174975707Y-58100000D01*
X175224293Y-58100000D01*
X175469493Y-58059083D01*
X175704606Y-57978368D01*
X175923233Y-57860053D01*
X175970056Y-57823609D01*
X175271568Y-57125121D01*
X175388458Y-57074349D01*
X175505739Y-56978934D01*
X175592928Y-56855415D01*
X175623355Y-56769801D01*
X176323434Y-57469882D01*
X176423730Y-57316369D01*
X176523586Y-57088721D01*
X176584613Y-56847732D01*
X176605141Y-56599999D01*
X176584613Y-56352267D01*
X176523586Y-56111278D01*
X176423730Y-55883630D01*
X176323434Y-55730116D01*
X175625928Y-56427621D01*
X175623116Y-56414085D01*
X175553558Y-56279844D01*
X175450362Y-56169348D01*
X175321181Y-56090791D01*
X175269997Y-56076450D01*
X175970057Y-55376390D01*
X175970056Y-55376388D01*
X175923235Y-55339947D01*
X175704606Y-55221631D01*
X175469493Y-55140916D01*
X175224293Y-55100000D01*
X174975707Y-55100000D01*
X174730506Y-55140916D01*
X174495393Y-55221631D01*
X174276764Y-55339946D01*
X174229942Y-55376388D01*
X174229942Y-55376390D01*
X174928431Y-56074878D01*
X174811542Y-56125651D01*
X174694261Y-56221066D01*
X174607072Y-56344585D01*
X174576645Y-56430197D01*
X173876564Y-55730116D01*
X173803309Y-55842242D01*
X173750162Y-55887598D01*
X173680931Y-55897022D01*
X173617595Y-55867520D01*
X173580264Y-55808459D01*
X173575500Y-55774420D01*
X173575500Y-53500000D01*
X179994389Y-53500000D01*
X180014804Y-53785429D01*
X180075629Y-54065041D01*
X180102567Y-54137263D01*
X180160233Y-54291873D01*
X180175634Y-54333163D01*
X180312772Y-54584313D01*
X180374107Y-54666247D01*
X180484261Y-54813395D01*
X180686605Y-55015739D01*
X180830359Y-55123352D01*
X180915686Y-55187227D01*
X181037351Y-55253661D01*
X181166839Y-55324367D01*
X181434954Y-55424369D01*
X181434957Y-55424369D01*
X181434958Y-55424370D01*
X181485415Y-55435346D01*
X181714572Y-55485196D01*
X182000000Y-55505610D01*
X182285428Y-55485196D01*
X182565046Y-55424369D01*
X182833161Y-55324367D01*
X183084315Y-55187226D01*
X183313395Y-55015739D01*
X183515739Y-54813395D01*
X183687226Y-54584315D01*
X183824367Y-54333161D01*
X183924369Y-54065046D01*
X183985196Y-53785428D01*
X184005610Y-53500000D01*
X183985196Y-53214572D01*
X183924369Y-52934954D01*
X183824367Y-52666839D01*
X183722391Y-52480084D01*
X183687227Y-52415686D01*
X183622086Y-52328668D01*
X183515739Y-52186605D01*
X183313395Y-51984261D01*
X183168090Y-51875487D01*
X183084313Y-51812772D01*
X182833163Y-51675634D01*
X182833162Y-51675633D01*
X182833161Y-51675633D01*
X182630382Y-51600000D01*
X182565041Y-51575629D01*
X182285429Y-51514804D01*
X182000000Y-51494389D01*
X181714570Y-51514804D01*
X181434958Y-51575629D01*
X181166836Y-51675634D01*
X180915686Y-51812772D01*
X180686602Y-51984263D01*
X180484263Y-52186602D01*
X180312772Y-52415686D01*
X180175634Y-52666836D01*
X180075629Y-52934958D01*
X180014804Y-53214570D01*
X179994389Y-53500000D01*
X173575500Y-53500000D01*
X173575500Y-50925579D01*
X173595185Y-50858540D01*
X173647989Y-50812785D01*
X173717147Y-50802841D01*
X173780703Y-50831866D01*
X173803309Y-50857757D01*
X173876564Y-50969882D01*
X174574070Y-50272375D01*
X174576884Y-50285915D01*
X174646442Y-50420156D01*
X174749638Y-50530652D01*
X174878819Y-50609209D01*
X174930002Y-50623549D01*
X174229942Y-51323609D01*
X174229942Y-51323610D01*
X174276766Y-51360055D01*
X174495393Y-51478368D01*
X174730506Y-51559083D01*
X174975707Y-51600000D01*
X175224293Y-51600000D01*
X175469493Y-51559083D01*
X175704606Y-51478368D01*
X175923233Y-51360053D01*
X175970056Y-51323609D01*
X175271568Y-50625121D01*
X175388458Y-50574349D01*
X175505739Y-50478934D01*
X175592928Y-50355415D01*
X175623354Y-50269802D01*
X176323434Y-50969882D01*
X176423730Y-50816369D01*
X176523586Y-50588721D01*
X176584613Y-50347732D01*
X176605141Y-50100000D01*
X176584613Y-49852267D01*
X176523586Y-49611278D01*
X176423730Y-49383630D01*
X176323434Y-49230116D01*
X175625929Y-49927622D01*
X175623116Y-49914085D01*
X175553558Y-49779844D01*
X175450362Y-49669348D01*
X175321181Y-49590791D01*
X175269997Y-49576450D01*
X175970057Y-48876390D01*
X175970056Y-48876388D01*
X175923235Y-48839947D01*
X175704606Y-48721631D01*
X175469493Y-48640916D01*
X175224293Y-48600000D01*
X174975707Y-48600000D01*
X174730506Y-48640916D01*
X174495393Y-48721631D01*
X174276764Y-48839946D01*
X174229942Y-48876388D01*
X174229942Y-48876390D01*
X174928431Y-49574878D01*
X174811542Y-49625651D01*
X174694261Y-49721066D01*
X174607072Y-49844585D01*
X174576645Y-49930196D01*
X173876564Y-49230117D01*
X173776266Y-49383634D01*
X173676413Y-49611278D01*
X173615386Y-49852267D01*
X173612066Y-49892332D01*
X173586913Y-49957516D01*
X173530510Y-49998754D01*
X173460767Y-50002952D01*
X173400809Y-49969772D01*
X166352149Y-42921111D01*
X166336022Y-42901253D01*
X166330083Y-42892162D01*
X166305110Y-42872725D01*
X166293593Y-42862554D01*
X166293519Y-42862480D01*
X166276594Y-42850397D01*
X166272480Y-42847330D01*
X166231189Y-42815191D01*
X166231186Y-42815190D01*
X166224963Y-42810346D01*
X166224761Y-42810242D01*
X166217200Y-42807990D01*
X166217199Y-42807990D01*
X166167036Y-42793055D01*
X166162174Y-42791497D01*
X166150780Y-42787586D01*
X166105202Y-42771939D01*
X166104969Y-42771906D01*
X166059910Y-42773769D01*
X166044806Y-42774394D01*
X166039684Y-42774500D01*
X160456899Y-42774500D01*
X160389860Y-42754815D01*
X160369218Y-42738181D01*
X156238540Y-38607503D01*
X152102149Y-34471111D01*
X152086022Y-34451253D01*
X152080083Y-34442162D01*
X152055110Y-34422725D01*
X152043593Y-34412554D01*
X152043519Y-34412480D01*
X152026594Y-34400397D01*
X152022480Y-34397330D01*
X152020499Y-34395788D01*
X151981189Y-34365191D01*
X151981186Y-34365190D01*
X151974963Y-34360346D01*
X151974761Y-34360242D01*
X151967200Y-34357990D01*
X151967199Y-34357990D01*
X151917036Y-34343055D01*
X151912174Y-34341497D01*
X151900780Y-34337586D01*
X151855202Y-34321939D01*
X151854969Y-34321906D01*
X151809910Y-34323769D01*
X151794806Y-34324394D01*
X151789684Y-34324500D01*
X148504846Y-34324500D01*
X148437807Y-34304815D01*
X148392052Y-34252011D01*
X148382108Y-34182853D01*
X148386283Y-34171955D01*
X148386154Y-34171930D01*
X148405500Y-34074674D01*
X148405500Y-33799500D01*
X148425185Y-33732461D01*
X148477989Y-33686706D01*
X148529500Y-33675500D01*
X150008736Y-33675500D01*
X150075775Y-33695185D01*
X150090961Y-33706683D01*
X150118435Y-33731022D01*
X150127760Y-33739283D01*
X150267635Y-33812696D01*
X150421015Y-33850500D01*
X150578985Y-33850500D01*
X150732365Y-33812696D01*
X150872240Y-33739283D01*
X150990483Y-33634530D01*
X151080220Y-33504523D01*
X151136237Y-33356818D01*
X151155278Y-33200000D01*
X151141418Y-33085856D01*
X151152878Y-33016937D01*
X151199781Y-32965151D01*
X151267237Y-32946943D01*
X151333828Y-32968095D01*
X151352195Y-32983232D01*
X159147850Y-40778887D01*
X159163977Y-40798746D01*
X159169915Y-40807836D01*
X159194893Y-40827277D01*
X159206410Y-40837448D01*
X159206481Y-40837519D01*
X159223397Y-40849597D01*
X159227505Y-40852660D01*
X159275041Y-40889659D01*
X159275232Y-40889756D01*
X159282799Y-40892009D01*
X159282801Y-40892010D01*
X159332974Y-40906947D01*
X159337804Y-40908494D01*
X159387340Y-40925500D01*
X159387342Y-40925500D01*
X159394799Y-40928060D01*
X159395033Y-40928094D01*
X159402909Y-40927768D01*
X159402912Y-40927769D01*
X159453227Y-40925687D01*
X159455207Y-40925606D01*
X159460331Y-40925500D01*
X160016327Y-40925500D01*
X160083366Y-40945185D01*
X160128708Y-40997094D01*
X160212898Y-41177639D01*
X160338402Y-41356877D01*
X160493123Y-41511598D01*
X160672361Y-41637102D01*
X160870670Y-41729575D01*
X161082023Y-41786207D01*
X161227340Y-41798920D01*
X161299999Y-41805277D01*
X161299999Y-41805276D01*
X161300000Y-41805277D01*
X161517977Y-41786207D01*
X161729330Y-41729575D01*
X161927639Y-41637102D01*
X162106877Y-41511598D01*
X162261598Y-41356877D01*
X162387102Y-41177639D01*
X162479575Y-40979330D01*
X162536207Y-40767977D01*
X162555277Y-40550000D01*
X164294858Y-40550000D01*
X164315386Y-40797732D01*
X164376413Y-41038721D01*
X164476268Y-41266370D01*
X164576563Y-41419882D01*
X164576564Y-41419882D01*
X165274070Y-40722376D01*
X165276884Y-40735915D01*
X165346442Y-40870156D01*
X165449638Y-40980652D01*
X165578819Y-41059209D01*
X165630002Y-41073549D01*
X164929942Y-41773609D01*
X164929942Y-41773610D01*
X164976766Y-41810055D01*
X165195393Y-41928368D01*
X165430506Y-42009083D01*
X165675707Y-42050000D01*
X165924293Y-42050000D01*
X166169493Y-42009083D01*
X166404606Y-41928368D01*
X166623233Y-41810053D01*
X166670056Y-41773609D01*
X165971568Y-41075121D01*
X166088458Y-41024349D01*
X166205739Y-40928934D01*
X166292928Y-40805415D01*
X166323354Y-40719802D01*
X167023434Y-41419882D01*
X167123730Y-41266369D01*
X167223586Y-41038721D01*
X167284613Y-40797732D01*
X167305141Y-40550000D01*
X167284613Y-40302267D01*
X167223586Y-40061278D01*
X167123730Y-39833630D01*
X167023434Y-39680116D01*
X166325929Y-40377622D01*
X166323116Y-40364085D01*
X166253558Y-40229844D01*
X166150362Y-40119348D01*
X166021181Y-40040791D01*
X165969995Y-40026449D01*
X166670056Y-39326389D01*
X166670056Y-39326387D01*
X166623235Y-39289947D01*
X166404606Y-39171631D01*
X166169493Y-39090916D01*
X165924293Y-39050000D01*
X165675707Y-39050000D01*
X165430506Y-39090916D01*
X165195393Y-39171631D01*
X164976764Y-39289946D01*
X164929942Y-39326388D01*
X164929941Y-39326389D01*
X165628431Y-40024878D01*
X165511542Y-40075651D01*
X165394261Y-40171066D01*
X165307072Y-40294585D01*
X165276645Y-40380196D01*
X164576564Y-39680117D01*
X164476266Y-39833634D01*
X164376413Y-40061278D01*
X164315386Y-40302267D01*
X164294858Y-40550000D01*
X162555277Y-40550000D01*
X162552817Y-40521887D01*
X162536207Y-40332025D01*
X162536207Y-40332023D01*
X162479575Y-40120670D01*
X162387102Y-39922362D01*
X162261598Y-39743123D01*
X162106877Y-39588402D01*
X161927639Y-39462898D01*
X161807375Y-39406818D01*
X161729331Y-39370425D01*
X161517974Y-39313792D01*
X161300000Y-39294722D01*
X161082025Y-39313792D01*
X160870668Y-39370425D01*
X160672361Y-39462898D01*
X160493122Y-39588402D01*
X160338402Y-39743122D01*
X160212898Y-39922361D01*
X160128709Y-40102905D01*
X160082536Y-40155344D01*
X160016327Y-40174500D01*
X159656899Y-40174500D01*
X159589860Y-40154815D01*
X159569218Y-40138181D01*
X155931038Y-36500000D01*
X171494356Y-36500000D01*
X171514891Y-36747816D01*
X171514891Y-36747819D01*
X171514892Y-36747821D01*
X171575937Y-36988881D01*
X171592697Y-37027089D01*
X171675825Y-37216604D01*
X171675827Y-37216607D01*
X171811836Y-37424785D01*
X171980256Y-37607738D01*
X171980259Y-37607740D01*
X172176485Y-37760470D01*
X172176487Y-37760471D01*
X172176491Y-37760474D01*
X172395190Y-37878828D01*
X172630386Y-37959571D01*
X172875665Y-38000500D01*
X173124335Y-38000500D01*
X173369614Y-37959571D01*
X173604810Y-37878828D01*
X173823509Y-37760474D01*
X174019744Y-37607738D01*
X174188164Y-37424785D01*
X174324173Y-37216607D01*
X174424063Y-36988881D01*
X174485108Y-36747821D01*
X174505643Y-36500000D01*
X174485108Y-36252179D01*
X174424063Y-36011119D01*
X174334016Y-35805833D01*
X174324174Y-35783395D01*
X174320710Y-35778093D01*
X174188164Y-35575215D01*
X174019744Y-35392262D01*
X173965655Y-35350163D01*
X173823514Y-35239529D01*
X173823510Y-35239526D01*
X173823509Y-35239526D01*
X173604810Y-35121172D01*
X173604806Y-35121170D01*
X173604805Y-35121170D01*
X173369615Y-35040429D01*
X173124335Y-34999500D01*
X172875665Y-34999500D01*
X172630384Y-35040429D01*
X172395194Y-35121170D01*
X172176485Y-35239529D01*
X171980259Y-35392259D01*
X171811837Y-35575214D01*
X171675825Y-35783395D01*
X171602988Y-35949448D01*
X171575937Y-36011119D01*
X171558393Y-36080399D01*
X171514891Y-36252183D01*
X171494356Y-36500000D01*
X155931038Y-36500000D01*
X154332719Y-34901681D01*
X154299234Y-34840358D01*
X154304218Y-34770666D01*
X154346090Y-34714733D01*
X154411554Y-34690316D01*
X154420400Y-34690000D01*
X154570000Y-34690000D01*
X154570000Y-33775501D01*
X154677685Y-33824680D01*
X154784237Y-33840000D01*
X154855763Y-33840000D01*
X154962315Y-33824680D01*
X155070000Y-33775501D01*
X155070000Y-34690000D01*
X155714518Y-34690000D01*
X155721132Y-34689645D01*
X155777371Y-34683599D01*
X155912089Y-34633352D01*
X156027188Y-34547188D01*
X156113352Y-34432089D01*
X156163599Y-34297371D01*
X156169645Y-34241132D01*
X156170000Y-34234518D01*
X156170000Y-33946312D01*
X156189685Y-33879273D01*
X156242489Y-33833518D01*
X156311647Y-33823574D01*
X156375203Y-33852599D01*
X156404999Y-33891039D01*
X156420327Y-33921821D01*
X156420328Y-33921822D01*
X156543236Y-34084580D01*
X156693958Y-34221981D01*
X156855397Y-34321939D01*
X156867363Y-34329348D01*
X157057544Y-34403024D01*
X157258024Y-34440500D01*
X157258026Y-34440500D01*
X157461974Y-34440500D01*
X157461976Y-34440500D01*
X157662456Y-34403024D01*
X157852637Y-34329348D01*
X158026041Y-34221981D01*
X158107480Y-34147740D01*
X158176763Y-34084580D01*
X158184244Y-34074674D01*
X158299673Y-33921821D01*
X158299673Y-33921819D01*
X158299675Y-33921818D01*
X158360581Y-33799500D01*
X158390582Y-33739250D01*
X158446397Y-33543083D01*
X158465215Y-33340000D01*
X158465215Y-33339999D01*
X158794785Y-33339999D01*
X158813602Y-33543083D01*
X158869418Y-33739251D01*
X158960324Y-33921818D01*
X159083236Y-34084580D01*
X159233958Y-34221981D01*
X159395397Y-34321939D01*
X159407363Y-34329348D01*
X159597544Y-34403024D01*
X159798024Y-34440500D01*
X159798026Y-34440500D01*
X160001974Y-34440500D01*
X160001976Y-34440500D01*
X160202456Y-34403024D01*
X160392637Y-34329348D01*
X160566041Y-34221981D01*
X160647480Y-34147740D01*
X160716763Y-34084580D01*
X160724244Y-34074674D01*
X160839673Y-33921821D01*
X160839673Y-33921819D01*
X160839675Y-33921818D01*
X160900581Y-33799500D01*
X160930582Y-33739250D01*
X160986397Y-33543083D01*
X161005215Y-33340000D01*
X160986397Y-33136917D01*
X160984473Y-33130156D01*
X160952259Y-33016937D01*
X160930582Y-32940750D01*
X160895821Y-32870940D01*
X160839675Y-32758181D01*
X160716763Y-32595419D01*
X160566041Y-32458018D01*
X160392638Y-32350652D01*
X160202457Y-32276976D01*
X160135629Y-32264484D01*
X160001976Y-32239500D01*
X159798024Y-32239500D01*
X159697783Y-32258238D01*
X159597542Y-32276976D01*
X159407361Y-32350652D01*
X159233958Y-32458018D01*
X159083236Y-32595419D01*
X158960324Y-32758181D01*
X158869418Y-32940748D01*
X158813602Y-33136916D01*
X158794785Y-33339999D01*
X158465215Y-33339999D01*
X158446397Y-33136917D01*
X158444473Y-33130156D01*
X158412259Y-33016937D01*
X158390582Y-32940750D01*
X158355821Y-32870940D01*
X158299675Y-32758181D01*
X158176763Y-32595419D01*
X158026041Y-32458018D01*
X157852638Y-32350652D01*
X157662457Y-32276976D01*
X157595629Y-32264484D01*
X157461976Y-32239500D01*
X157258024Y-32239500D01*
X157157783Y-32258238D01*
X157057542Y-32276976D01*
X156867361Y-32350652D01*
X156693958Y-32458018D01*
X156543236Y-32595419D01*
X156420326Y-32758179D01*
X156405000Y-32788959D01*
X156357497Y-32840196D01*
X156289834Y-32857617D01*
X156223494Y-32835691D01*
X156179539Y-32781380D01*
X156170000Y-32733687D01*
X156170000Y-32445481D01*
X156169645Y-32438867D01*
X156163599Y-32382628D01*
X156113352Y-32247910D01*
X156027188Y-32132811D01*
X155912089Y-32046647D01*
X155777371Y-31996400D01*
X155721132Y-31990354D01*
X155714518Y-31990000D01*
X155070000Y-31990000D01*
X155070000Y-32904498D01*
X154962315Y-32855320D01*
X154855763Y-32840000D01*
X154784237Y-32840000D01*
X154677685Y-32855320D01*
X154570000Y-32904498D01*
X154570000Y-31990000D01*
X153925482Y-31990000D01*
X153918867Y-31990354D01*
X153862628Y-31996400D01*
X153727910Y-32046647D01*
X153612811Y-32132811D01*
X153526647Y-32247910D01*
X153476400Y-32382628D01*
X153470354Y-32438867D01*
X153470000Y-32445481D01*
X153470000Y-33090000D01*
X154386314Y-33090000D01*
X154360507Y-33130156D01*
X154320000Y-33268111D01*
X154320000Y-33411889D01*
X154360507Y-33549844D01*
X154386314Y-33590000D01*
X153470000Y-33590000D01*
X153470000Y-33739599D01*
X153450315Y-33806638D01*
X153397511Y-33852393D01*
X153328353Y-33862337D01*
X153264797Y-33833312D01*
X153258319Y-33827280D01*
X150202149Y-30771111D01*
X150186022Y-30751253D01*
X150180083Y-30742162D01*
X150155110Y-30722725D01*
X150143710Y-30712672D01*
X150143518Y-30712480D01*
X150143516Y-30712478D01*
X150143336Y-30712299D01*
X150109769Y-30651020D01*
X150114660Y-30581322D01*
X150156457Y-30525332D01*
X150221888Y-30500828D01*
X150230900Y-30500500D01*
X161998695Y-30500500D01*
X162001257Y-30500525D01*
G37*
%TD.AperFunction*%
%TA.AperFunction,Conductor*%
G36*
X126135485Y-52019685D02*
G01*
X126181240Y-52072489D01*
X126191184Y-52141647D01*
X126170495Y-52194440D01*
X126170242Y-52194808D01*
X126169779Y-52195479D01*
X126113763Y-52343181D01*
X126094721Y-52500000D01*
X126113763Y-52656818D01*
X126169779Y-52804523D01*
X126228514Y-52889614D01*
X126250397Y-52955968D01*
X126232932Y-53023620D01*
X126181664Y-53071090D01*
X126169799Y-53076235D01*
X126026223Y-53129787D01*
X125913884Y-53213884D01*
X125829788Y-53326222D01*
X125780749Y-53457700D01*
X125776085Y-53501085D01*
X125774500Y-53515826D01*
X125774500Y-54084174D01*
X125774852Y-54087454D01*
X125774853Y-54087460D01*
X125776333Y-54101222D01*
X125780749Y-54142299D01*
X125829788Y-54273778D01*
X125913884Y-54386116D01*
X126026222Y-54470212D01*
X126157701Y-54519251D01*
X126215826Y-54525500D01*
X126219136Y-54525500D01*
X126805864Y-54525500D01*
X126809174Y-54525500D01*
X126867299Y-54519251D01*
X126998778Y-54470212D01*
X127111116Y-54386116D01*
X127195212Y-54273778D01*
X127195212Y-54273775D01*
X127201233Y-54265734D01*
X127257167Y-54223863D01*
X127326858Y-54218879D01*
X127388181Y-54252364D01*
X127421666Y-54313687D01*
X127424500Y-54340045D01*
X127424499Y-55570277D01*
X127421861Y-55595719D01*
X127419632Y-55606347D01*
X127423548Y-55637757D01*
X127424500Y-55653094D01*
X127424500Y-55653197D01*
X127427918Y-55673683D01*
X127428657Y-55678751D01*
X127436107Y-55738519D01*
X127436185Y-55738763D01*
X127464827Y-55791689D01*
X127467171Y-55796243D01*
X127493634Y-55850373D01*
X127493779Y-55850566D01*
X127499581Y-55855907D01*
X127520864Y-55875500D01*
X127538080Y-55891348D01*
X127541779Y-55894897D01*
X129185769Y-57538888D01*
X129201893Y-57558742D01*
X129204453Y-57562660D01*
X129207835Y-57567836D01*
X129232809Y-57587274D01*
X129244327Y-57597446D01*
X129244401Y-57597520D01*
X129254329Y-57604608D01*
X129261318Y-57609598D01*
X129265427Y-57612662D01*
X129312960Y-57649658D01*
X129313151Y-57649757D01*
X129347520Y-57659988D01*
X129370874Y-57666941D01*
X129375711Y-57668490D01*
X129425259Y-57685500D01*
X129432716Y-57688060D01*
X129432949Y-57688093D01*
X129440828Y-57687767D01*
X129440831Y-57687768D01*
X129493112Y-57685605D01*
X129498235Y-57685500D01*
X129580814Y-57685500D01*
X129647853Y-57705185D01*
X129691814Y-57754229D01*
X129760324Y-57891818D01*
X129883236Y-58054580D01*
X130033958Y-58191981D01*
X130199370Y-58294399D01*
X130207363Y-58299348D01*
X130397544Y-58373024D01*
X130598024Y-58410500D01*
X130598026Y-58410500D01*
X130801974Y-58410500D01*
X130801976Y-58410500D01*
X131002456Y-58373024D01*
X131192637Y-58299348D01*
X131366041Y-58191981D01*
X131428846Y-58134726D01*
X131491649Y-58104109D01*
X131561036Y-58112306D01*
X131614977Y-58156715D01*
X131635431Y-58211019D01*
X131636106Y-58216433D01*
X131636185Y-58216682D01*
X131664827Y-58269608D01*
X131667171Y-58274162D01*
X131693634Y-58328292D01*
X131693777Y-58328482D01*
X131699579Y-58333824D01*
X131699581Y-58333826D01*
X131738108Y-58369293D01*
X131741780Y-58372817D01*
X132397850Y-59028887D01*
X132413977Y-59048746D01*
X132419915Y-59057835D01*
X132444894Y-59077277D01*
X132456412Y-59087449D01*
X132456481Y-59087518D01*
X132473389Y-59099590D01*
X132477494Y-59102650D01*
X132513642Y-59130786D01*
X132525044Y-59139660D01*
X132525233Y-59139757D01*
X132532801Y-59142010D01*
X132582959Y-59156943D01*
X132587819Y-59158499D01*
X132637340Y-59175500D01*
X132637342Y-59175500D01*
X132644796Y-59178059D01*
X132645029Y-59178093D01*
X132652908Y-59177767D01*
X132652911Y-59177768D01*
X132705192Y-59175605D01*
X132710315Y-59175500D01*
X134193101Y-59175500D01*
X134260140Y-59195185D01*
X134280782Y-59211819D01*
X136932282Y-61863319D01*
X136965767Y-61924642D01*
X136960783Y-61994334D01*
X136918911Y-62050267D01*
X136853447Y-62074684D01*
X136844601Y-62075000D01*
X136787500Y-62075000D01*
X136787500Y-63050000D01*
X137624999Y-63050000D01*
X137624999Y-62855398D01*
X137644684Y-62788359D01*
X137697488Y-62742604D01*
X137766646Y-62732660D01*
X137830202Y-62761685D01*
X137836679Y-62767716D01*
X138188182Y-63119219D01*
X138221666Y-63180540D01*
X138224500Y-63206898D01*
X138224500Y-72948196D01*
X138221861Y-72973642D01*
X138219633Y-72984267D01*
X138223548Y-73015676D01*
X138224500Y-73031013D01*
X138224500Y-73031116D01*
X138227918Y-73051602D01*
X138228657Y-73056670D01*
X138236107Y-73116438D01*
X138236185Y-73116682D01*
X138264827Y-73169608D01*
X138267171Y-73174162D01*
X138293634Y-73228292D01*
X138293777Y-73228482D01*
X138299579Y-73233824D01*
X138299581Y-73233826D01*
X138338108Y-73269293D01*
X138341780Y-73272817D01*
X139647850Y-74578887D01*
X139663977Y-74598746D01*
X139669916Y-74607836D01*
X139694894Y-74627277D01*
X139706412Y-74637449D01*
X139706481Y-74637518D01*
X139723389Y-74649590D01*
X139727494Y-74652650D01*
X139736713Y-74659826D01*
X139775044Y-74689660D01*
X139775233Y-74689757D01*
X139782801Y-74692010D01*
X139832959Y-74706943D01*
X139837819Y-74708499D01*
X139887340Y-74725500D01*
X139887342Y-74725500D01*
X139894796Y-74728059D01*
X139895029Y-74728093D01*
X139902908Y-74727767D01*
X139902911Y-74727768D01*
X139955192Y-74725605D01*
X139960315Y-74725500D01*
X150698195Y-74725500D01*
X150723641Y-74728139D01*
X150727440Y-74728935D01*
X150734268Y-74730367D01*
X150764138Y-74726643D01*
X150765677Y-74726452D01*
X150781014Y-74725500D01*
X150781111Y-74725500D01*
X150781114Y-74725500D01*
X150801643Y-74722073D01*
X150806659Y-74721342D01*
X150858626Y-74714866D01*
X150858628Y-74714864D01*
X150866457Y-74713889D01*
X150866666Y-74713822D01*
X150873607Y-74710065D01*
X150873610Y-74710065D01*
X150919666Y-74685140D01*
X150924144Y-74682835D01*
X150971211Y-74659826D01*
X150971212Y-74659824D01*
X150978308Y-74656356D01*
X150978476Y-74656230D01*
X150983824Y-74650419D01*
X150983826Y-74650419D01*
X151019294Y-74611889D01*
X151022795Y-74608240D01*
X151733889Y-73897146D01*
X151753741Y-73881025D01*
X151762836Y-73875084D01*
X151782273Y-73850110D01*
X151792453Y-73838583D01*
X151792519Y-73838518D01*
X151804624Y-73821561D01*
X151807627Y-73817534D01*
X151839809Y-73776189D01*
X151839810Y-73776185D01*
X151844666Y-73769947D01*
X151844753Y-73769779D01*
X151847010Y-73762199D01*
X151861955Y-73711997D01*
X151863486Y-73707218D01*
X151880500Y-73657660D01*
X151880500Y-73657656D01*
X151883060Y-73650200D01*
X151883093Y-73649970D01*
X151882767Y-73642091D01*
X151882768Y-73642089D01*
X151880606Y-73589807D01*
X151880500Y-73584684D01*
X151880500Y-73325514D01*
X151900185Y-73258475D01*
X151935611Y-73222411D01*
X151986111Y-73188669D01*
X152052788Y-73167792D01*
X152120168Y-73186278D01*
X152123889Y-73188669D01*
X152142265Y-73200946D01*
X152157260Y-73210966D01*
X152214797Y-73222411D01*
X152230325Y-73225500D01*
X152230326Y-73225500D01*
X152979675Y-73225500D01*
X153005378Y-73220387D01*
X153052740Y-73210966D01*
X153135601Y-73155601D01*
X153190966Y-73072740D01*
X153190966Y-73072735D01*
X153194801Y-73066997D01*
X153222840Y-73013397D01*
X153283556Y-72978823D01*
X153312072Y-72975500D01*
X154479675Y-72975500D01*
X154504029Y-72970655D01*
X154552740Y-72960966D01*
X154635601Y-72905601D01*
X154690966Y-72822740D01*
X154705500Y-72749674D01*
X154705500Y-71200326D01*
X154690966Y-71127260D01*
X154635601Y-71044399D01*
X154552740Y-70989034D01*
X154552739Y-70989033D01*
X154552738Y-70989033D01*
X154479675Y-70974500D01*
X154479674Y-70974500D01*
X153130326Y-70974500D01*
X153079189Y-70984671D01*
X153030811Y-70984671D01*
X152979674Y-70974500D01*
X152230326Y-70974500D01*
X152230325Y-70974500D01*
X152157259Y-70989034D01*
X152123889Y-71011331D01*
X152057211Y-71032208D01*
X151989832Y-71013722D01*
X151986111Y-71011331D01*
X151952740Y-70989034D01*
X151879675Y-70974500D01*
X151879674Y-70974500D01*
X151254126Y-70974500D01*
X151187087Y-70954815D01*
X151154859Y-70924811D01*
X151112189Y-70867811D01*
X150997089Y-70781647D01*
X150862371Y-70731400D01*
X150806132Y-70725354D01*
X150799518Y-70725000D01*
X150655000Y-70725000D01*
X150655000Y-73475000D01*
X150794600Y-73475000D01*
X150861639Y-73494685D01*
X150907394Y-73547489D01*
X150917338Y-73616647D01*
X150888313Y-73680203D01*
X150882281Y-73686681D01*
X150630781Y-73938181D01*
X150569458Y-73971666D01*
X150543100Y-73974500D01*
X147185899Y-73974500D01*
X147118860Y-73954815D01*
X147073105Y-73902011D01*
X147063161Y-73832853D01*
X147092186Y-73769297D01*
X147098218Y-73762819D01*
X147333885Y-73527151D01*
X147353748Y-73511021D01*
X147362836Y-73505084D01*
X147382273Y-73480110D01*
X147392453Y-73468583D01*
X147392519Y-73468518D01*
X147404624Y-73451561D01*
X147407627Y-73447534D01*
X147439809Y-73406189D01*
X147439810Y-73406185D01*
X147444666Y-73399947D01*
X147444753Y-73399778D01*
X147447008Y-73392200D01*
X147447010Y-73392199D01*
X147461951Y-73342009D01*
X147463488Y-73337211D01*
X147480312Y-73288206D01*
X147520695Y-73231195D01*
X147532842Y-73225587D01*
X147532230Y-73224670D01*
X147552739Y-73210966D01*
X147552740Y-73210966D01*
X147586111Y-73188668D01*
X147652786Y-73167791D01*
X147720167Y-73186275D01*
X147723854Y-73188645D01*
X147757260Y-73210966D01*
X147793792Y-73218232D01*
X147830325Y-73225500D01*
X147830326Y-73225500D01*
X148579675Y-73225500D01*
X148605378Y-73220387D01*
X148652740Y-73210966D01*
X148686111Y-73188668D01*
X148752787Y-73167791D01*
X148820167Y-73186276D01*
X148823854Y-73188645D01*
X148857260Y-73210966D01*
X148893792Y-73218232D01*
X148930325Y-73225500D01*
X149555874Y-73225500D01*
X149622913Y-73245185D01*
X149655141Y-73275189D01*
X149697810Y-73332188D01*
X149812910Y-73418352D01*
X149947628Y-73468599D01*
X150003867Y-73474645D01*
X150010482Y-73475000D01*
X150155000Y-73475000D01*
X150155000Y-70714027D01*
X150134713Y-70676875D01*
X150139697Y-70607183D01*
X150168193Y-70562842D01*
X151519217Y-69211819D01*
X151580541Y-69178334D01*
X151606899Y-69175500D01*
X152448195Y-69175500D01*
X152473641Y-69178139D01*
X152477440Y-69178935D01*
X152484268Y-69180367D01*
X152514138Y-69176643D01*
X152515677Y-69176452D01*
X152531014Y-69175500D01*
X152531111Y-69175500D01*
X152531114Y-69175500D01*
X152551643Y-69172073D01*
X152556659Y-69171342D01*
X152608626Y-69164866D01*
X152608628Y-69164864D01*
X152616457Y-69163889D01*
X152616666Y-69163822D01*
X152623607Y-69160065D01*
X152623610Y-69160065D01*
X152669666Y-69135140D01*
X152674144Y-69132835D01*
X152721211Y-69109826D01*
X152721212Y-69109824D01*
X152728308Y-69106356D01*
X152728476Y-69106230D01*
X152733824Y-69100419D01*
X152733826Y-69100419D01*
X152769294Y-69061889D01*
X152772795Y-69058240D01*
X153558889Y-68272146D01*
X153578741Y-68256025D01*
X153587836Y-68250084D01*
X153607273Y-68225110D01*
X153617453Y-68213583D01*
X153617519Y-68213518D01*
X153629624Y-68196561D01*
X153632627Y-68192534D01*
X153664809Y-68151189D01*
X153664810Y-68151185D01*
X153669666Y-68144947D01*
X153669753Y-68144779D01*
X153672010Y-68137199D01*
X153686955Y-68086997D01*
X153688486Y-68082218D01*
X153705500Y-68032660D01*
X153705500Y-68032656D01*
X153708060Y-68025200D01*
X153708093Y-68024970D01*
X153707767Y-68017091D01*
X153707768Y-68017089D01*
X153705606Y-67964807D01*
X153705500Y-67959684D01*
X153705500Y-65499500D01*
X153725185Y-65432461D01*
X153777989Y-65386706D01*
X153829500Y-65375500D01*
X154479675Y-65375500D01*
X154504029Y-65370655D01*
X154552740Y-65360966D01*
X154631611Y-65308266D01*
X154698288Y-65287390D01*
X154765668Y-65305875D01*
X154812357Y-65357854D01*
X154824500Y-65411370D01*
X154824500Y-70378196D01*
X154821861Y-70403642D01*
X154819633Y-70414267D01*
X154823548Y-70445676D01*
X154824500Y-70461013D01*
X154824500Y-70461116D01*
X154827918Y-70481602D01*
X154828657Y-70486670D01*
X154836107Y-70546438D01*
X154836185Y-70546682D01*
X154864827Y-70599608D01*
X154867171Y-70604162D01*
X154893634Y-70658292D01*
X154893777Y-70658482D01*
X154899579Y-70663824D01*
X154899581Y-70663826D01*
X154938108Y-70699293D01*
X154941780Y-70702817D01*
X155493181Y-71254218D01*
X155526666Y-71315541D01*
X155529500Y-71341899D01*
X155529500Y-72734674D01*
X155544033Y-72807738D01*
X155544033Y-72807739D01*
X155544034Y-72807740D01*
X155599399Y-72890601D01*
X155682260Y-72945966D01*
X155693471Y-72948196D01*
X155755325Y-72960500D01*
X155755326Y-72960500D01*
X156175500Y-72960500D01*
X156242539Y-72980185D01*
X156288294Y-73032989D01*
X156299500Y-73084500D01*
X156299500Y-73814674D01*
X156314033Y-73887738D01*
X156314033Y-73887739D01*
X156314034Y-73887740D01*
X156369399Y-73970601D01*
X156409505Y-73997398D01*
X156454309Y-74051009D01*
X156463018Y-74120334D01*
X156432864Y-74183361D01*
X156373421Y-74220081D01*
X156340614Y-74224500D01*
X155751804Y-74224500D01*
X155726358Y-74221861D01*
X155715732Y-74219633D01*
X155684325Y-74223548D01*
X155668988Y-74224500D01*
X155668885Y-74224500D01*
X155656287Y-74226601D01*
X155648365Y-74227923D01*
X155643303Y-74228661D01*
X155583560Y-74236108D01*
X155583312Y-74236188D01*
X155530374Y-74264837D01*
X155525818Y-74267182D01*
X155471717Y-74293630D01*
X155471505Y-74293788D01*
X155430719Y-74338093D01*
X155427172Y-74341789D01*
X154380781Y-75388181D01*
X154319458Y-75421666D01*
X154293100Y-75424500D01*
X139706899Y-75424500D01*
X139639860Y-75404815D01*
X139619218Y-75388181D01*
X137311819Y-73080781D01*
X137278334Y-73019458D01*
X137275500Y-72993100D01*
X137275500Y-68189303D01*
X137278139Y-68163856D01*
X137280367Y-68153232D01*
X137276452Y-68121822D01*
X137275500Y-68106485D01*
X137275500Y-68106388D01*
X137275500Y-68106386D01*
X137272074Y-68085857D01*
X137271342Y-68080834D01*
X137264866Y-68028875D01*
X137264864Y-68028871D01*
X137263889Y-68021047D01*
X137263819Y-68020827D01*
X137235169Y-67967888D01*
X137232822Y-67963329D01*
X137223079Y-67943399D01*
X137209826Y-67916289D01*
X137209825Y-67916288D01*
X137206360Y-67909200D01*
X137206225Y-67909019D01*
X137200419Y-67903674D01*
X137161892Y-67868207D01*
X137158219Y-67864682D01*
X136323819Y-67030282D01*
X136290334Y-66968959D01*
X136287500Y-66942601D01*
X136287500Y-65950000D01*
X136787500Y-65950000D01*
X136787500Y-66924999D01*
X136921829Y-66924999D01*
X136928111Y-66924678D01*
X137027695Y-66914506D01*
X137194122Y-66859357D01*
X137343345Y-66767316D01*
X137467316Y-66643345D01*
X137559357Y-66494122D01*
X137614506Y-66327696D01*
X137624680Y-66228109D01*
X137625000Y-66221831D01*
X137625000Y-65950000D01*
X136787500Y-65950000D01*
X136287500Y-65950000D01*
X136287500Y-63550000D01*
X136787500Y-63550000D01*
X136787500Y-65450000D01*
X137624999Y-65450000D01*
X137624999Y-65178170D01*
X137624678Y-65171879D01*
X137614506Y-65072304D01*
X137559357Y-64905877D01*
X137467316Y-64756654D01*
X137343345Y-64632683D01*
X137299335Y-64605537D01*
X137252611Y-64553589D01*
X137241390Y-64484626D01*
X137269234Y-64420544D01*
X137299338Y-64394459D01*
X137343346Y-64367315D01*
X137467316Y-64243345D01*
X137559357Y-64094122D01*
X137614506Y-63927696D01*
X137624680Y-63828109D01*
X137625000Y-63821831D01*
X137625000Y-63550000D01*
X136787500Y-63550000D01*
X136287500Y-63550000D01*
X136287500Y-62075000D01*
X136153171Y-62075000D01*
X136146888Y-62075321D01*
X136047304Y-62085493D01*
X135880877Y-62140642D01*
X135731654Y-62232683D01*
X135607683Y-62356654D01*
X135515642Y-62505877D01*
X135485069Y-62598141D01*
X135445296Y-62655586D01*
X135380780Y-62682409D01*
X135312004Y-62670094D01*
X135260805Y-62622551D01*
X135251181Y-62602470D01*
X135250798Y-62601443D01*
X135243796Y-62582669D01*
X135157546Y-62467454D01*
X135042331Y-62381204D01*
X134907483Y-62330909D01*
X134847873Y-62324500D01*
X134844550Y-62324500D01*
X134080439Y-62324500D01*
X134080420Y-62324500D01*
X134077128Y-62324501D01*
X134073848Y-62324853D01*
X134073840Y-62324854D01*
X134017515Y-62330909D01*
X133882669Y-62381204D01*
X133767454Y-62467454D01*
X133681204Y-62582668D01*
X133630909Y-62717516D01*
X133627690Y-62747461D01*
X133624500Y-62777127D01*
X133624500Y-62780449D01*
X133624500Y-62800500D01*
X133604815Y-62867539D01*
X133552011Y-62913294D01*
X133500500Y-62924500D01*
X133165333Y-62924500D01*
X133098294Y-62904815D01*
X133063283Y-62870940D01*
X132990483Y-62765470D01*
X132872240Y-62660717D01*
X132858994Y-62653764D01*
X132732364Y-62587303D01*
X132578985Y-62549500D01*
X132421015Y-62549500D01*
X132267635Y-62587303D01*
X132127761Y-62660716D01*
X132009515Y-62765471D01*
X131919779Y-62895476D01*
X131877442Y-63007113D01*
X131835264Y-63062816D01*
X131769667Y-63086873D01*
X131701476Y-63071646D01*
X131652343Y-63021970D01*
X131637500Y-62963142D01*
X131637500Y-62886803D01*
X131637308Y-62881923D01*
X131634599Y-62847506D01*
X131588782Y-62689802D01*
X131505182Y-62548442D01*
X131389057Y-62432317D01*
X131247697Y-62348717D01*
X131089993Y-62302900D01*
X131055576Y-62300191D01*
X131050697Y-62300000D01*
X130650000Y-62300000D01*
X130650000Y-63900000D01*
X131050697Y-63900000D01*
X131055576Y-63899808D01*
X131089993Y-63897099D01*
X131247697Y-63851282D01*
X131389057Y-63767682D01*
X131505182Y-63651557D01*
X131588780Y-63510200D01*
X131629805Y-63368992D01*
X131667412Y-63310107D01*
X131730884Y-63280900D01*
X131800071Y-63290646D01*
X131853005Y-63336250D01*
X131864824Y-63359616D01*
X131919779Y-63504523D01*
X132009515Y-63634528D01*
X132009516Y-63634529D01*
X132009517Y-63634530D01*
X132127760Y-63739283D01*
X132267635Y-63812696D01*
X132421015Y-63850500D01*
X132578985Y-63850500D01*
X132732365Y-63812696D01*
X132872240Y-63739283D01*
X132895187Y-63718953D01*
X132909039Y-63706683D01*
X132972272Y-63676963D01*
X132991264Y-63675500D01*
X133500501Y-63675500D01*
X133567540Y-63695185D01*
X133613295Y-63747989D01*
X133624501Y-63799500D01*
X133624501Y-63822872D01*
X133624853Y-63826152D01*
X133624854Y-63826159D01*
X133630909Y-63882484D01*
X133652957Y-63941596D01*
X133681204Y-64017331D01*
X133767454Y-64132546D01*
X133882669Y-64218796D01*
X133953422Y-64245185D01*
X134006334Y-64264920D01*
X134062267Y-64306792D01*
X134086684Y-64372256D01*
X134087000Y-64381102D01*
X134087000Y-64538525D01*
X134067315Y-64605564D01*
X134014511Y-64651319D01*
X133945353Y-64661263D01*
X133927618Y-64657370D01*
X133879545Y-64643058D01*
X133874674Y-64641497D01*
X133863280Y-64637586D01*
X133817702Y-64621939D01*
X133817469Y-64621906D01*
X133772410Y-64623769D01*
X133757306Y-64624394D01*
X133752184Y-64624500D01*
X131379754Y-64624500D01*
X131312715Y-64604815D01*
X131292077Y-64588185D01*
X131225842Y-64521950D01*
X131225841Y-64521949D01*
X131112802Y-64464353D01*
X131019021Y-64449500D01*
X129780985Y-64449500D01*
X129734089Y-64456927D01*
X129687196Y-64464354D01*
X129687194Y-64464354D01*
X129687193Y-64464355D01*
X129674431Y-64470858D01*
X129605762Y-64483754D01*
X129541021Y-64457477D01*
X129500765Y-64400370D01*
X129495664Y-64340975D01*
X129499592Y-64316176D01*
X129513000Y-64231519D01*
X129512999Y-64005014D01*
X129532683Y-63937976D01*
X129585487Y-63892221D01*
X129654646Y-63882277D01*
X129671595Y-63885939D01*
X129710008Y-63897099D01*
X129744423Y-63899808D01*
X129749303Y-63900000D01*
X130150000Y-63900000D01*
X130150000Y-63350000D01*
X129165204Y-63350000D01*
X129166397Y-63365157D01*
X129161963Y-63365505D01*
X129161837Y-63410768D01*
X129123898Y-63469440D01*
X129060261Y-63498287D01*
X129042958Y-63499500D01*
X129024500Y-63499500D01*
X128957461Y-63479815D01*
X128911706Y-63427011D01*
X128900500Y-63375500D01*
X128900500Y-62849999D01*
X129165204Y-62849999D01*
X129165205Y-62850000D01*
X130150000Y-62850000D01*
X130150000Y-62300000D01*
X129749303Y-62300000D01*
X129744423Y-62300191D01*
X129710006Y-62302900D01*
X129552302Y-62348717D01*
X129410942Y-62432317D01*
X129294817Y-62548442D01*
X129211219Y-62689799D01*
X129165400Y-62847511D01*
X129165204Y-62849999D01*
X128900500Y-62849999D01*
X128900500Y-59601803D01*
X128903139Y-59576357D01*
X128903708Y-59573642D01*
X128905367Y-59565731D01*
X128901452Y-59534323D01*
X128900500Y-59518986D01*
X128900500Y-59518889D01*
X128900500Y-59518888D01*
X128900500Y-59518886D01*
X128897070Y-59498336D01*
X128896342Y-59493340D01*
X128889865Y-59441374D01*
X128889863Y-59441371D01*
X128888887Y-59433536D01*
X128888823Y-59433334D01*
X128881313Y-59419457D01*
X128860150Y-59380352D01*
X128857815Y-59375815D01*
X128834826Y-59328789D01*
X128834825Y-59328788D01*
X128831361Y-59321702D01*
X128831225Y-59321519D01*
X128825419Y-59316174D01*
X128786891Y-59280706D01*
X128783218Y-59277181D01*
X124236800Y-54730763D01*
X124203315Y-54669440D01*
X124208299Y-54599748D01*
X124250171Y-54543815D01*
X124315635Y-54519398D01*
X124337737Y-54519793D01*
X124387523Y-54525145D01*
X124387524Y-54525145D01*
X124390826Y-54525500D01*
X124394136Y-54525500D01*
X124980864Y-54525500D01*
X124984174Y-54525500D01*
X125042299Y-54519251D01*
X125173778Y-54470212D01*
X125286116Y-54386116D01*
X125370212Y-54273778D01*
X125419251Y-54142299D01*
X125425500Y-54084174D01*
X125425500Y-53515826D01*
X125419251Y-53457701D01*
X125370212Y-53326222D01*
X125286116Y-53213884D01*
X125286114Y-53213882D01*
X125286113Y-53213881D01*
X125239380Y-53178896D01*
X125197509Y-53122962D01*
X125192525Y-53053271D01*
X125226011Y-52991948D01*
X125231457Y-52986820D01*
X125290483Y-52934530D01*
X125380220Y-52804523D01*
X125436237Y-52656818D01*
X125455278Y-52500000D01*
X125453946Y-52489034D01*
X125450035Y-52456818D01*
X125436237Y-52343182D01*
X125380220Y-52195477D01*
X125379504Y-52194440D01*
X125377353Y-52187918D01*
X125374881Y-52181399D01*
X125375167Y-52181290D01*
X125357621Y-52128088D01*
X125375085Y-52060436D01*
X125426352Y-52012965D01*
X125481554Y-52000000D01*
X126068446Y-52000000D01*
X126135485Y-52019685D01*
G37*
%TD.AperFunction*%
%TA.AperFunction,Conductor*%
G36*
X136105140Y-48895185D02*
G01*
X136125782Y-48911819D01*
X136801782Y-49587819D01*
X136835267Y-49649142D01*
X136830283Y-49718834D01*
X136788411Y-49774767D01*
X136722947Y-49799184D01*
X136714101Y-49799500D01*
X135800325Y-49799500D01*
X135727259Y-49814034D01*
X135708888Y-49826309D01*
X135642210Y-49847185D01*
X135574830Y-49828699D01*
X135571112Y-49826309D01*
X135552740Y-49814034D01*
X135479675Y-49799500D01*
X135479674Y-49799500D01*
X134530326Y-49799500D01*
X134530325Y-49799500D01*
X134457259Y-49814034D01*
X134438888Y-49826309D01*
X134372210Y-49847185D01*
X134304830Y-49828699D01*
X134301112Y-49826309D01*
X134282740Y-49814034D01*
X134209675Y-49799500D01*
X134209674Y-49799500D01*
X133260326Y-49799500D01*
X133260325Y-49799500D01*
X133187259Y-49814034D01*
X133168888Y-49826309D01*
X133102210Y-49847185D01*
X133034830Y-49828699D01*
X133031112Y-49826309D01*
X133012740Y-49814034D01*
X132939675Y-49799500D01*
X132939674Y-49799500D01*
X132144126Y-49799500D01*
X132077087Y-49779815D01*
X132044859Y-49749811D01*
X132002189Y-49692811D01*
X131887089Y-49606647D01*
X131752371Y-49556400D01*
X131696132Y-49550354D01*
X131689518Y-49550000D01*
X131445000Y-49550000D01*
X131445000Y-52050582D01*
X131477784Y-52110622D01*
X131472800Y-52180314D01*
X131444299Y-52224661D01*
X130964929Y-52704031D01*
X130903606Y-52737516D01*
X130833914Y-52732532D01*
X130777981Y-52690661D01*
X130727188Y-52622811D01*
X130714966Y-52613661D01*
X130673095Y-52557727D01*
X130668111Y-52488036D01*
X130688355Y-52442348D01*
X130698952Y-52427504D01*
X130699607Y-52426586D01*
X130702641Y-52422515D01*
X130734809Y-52381189D01*
X130734810Y-52381185D01*
X130739666Y-52374947D01*
X130739753Y-52374778D01*
X130742008Y-52367200D01*
X130742010Y-52367199D01*
X130756951Y-52317009D01*
X130758479Y-52312238D01*
X130775500Y-52262660D01*
X130775500Y-52262655D01*
X130778060Y-52255199D01*
X130778093Y-52254970D01*
X130777767Y-52247090D01*
X130777768Y-52247088D01*
X130775605Y-52194806D01*
X130775500Y-52189684D01*
X130775500Y-52174000D01*
X130795185Y-52106961D01*
X130847989Y-52061206D01*
X130899500Y-52050000D01*
X130945000Y-52050000D01*
X130945000Y-49540589D01*
X130922834Y-49499996D01*
X130920000Y-49473638D01*
X130920000Y-49462398D01*
X130939685Y-49395359D01*
X130956319Y-49374717D01*
X131127877Y-49203160D01*
X131419217Y-48911819D01*
X131480541Y-48878334D01*
X131506899Y-48875500D01*
X136038101Y-48875500D01*
X136105140Y-48895185D01*
G37*
%TD.AperFunction*%
%TA.AperFunction,Conductor*%
G36*
X139515164Y-51771296D02*
G01*
X139518884Y-51773688D01*
X139537260Y-51785966D01*
X139595790Y-51797608D01*
X139610325Y-51800500D01*
X139610326Y-51800500D01*
X140018101Y-51800500D01*
X140085140Y-51820185D01*
X140105782Y-51836818D01*
X141288182Y-53019219D01*
X141321666Y-53080540D01*
X141324500Y-53106898D01*
X141324500Y-57293099D01*
X141304815Y-57360138D01*
X141288181Y-57380780D01*
X138971108Y-59697852D01*
X138951254Y-59713976D01*
X138942165Y-59719914D01*
X138922722Y-59744894D01*
X138912563Y-59756398D01*
X138912484Y-59756476D01*
X138912479Y-59756482D01*
X138912480Y-59756482D01*
X138900390Y-59773414D01*
X138897341Y-59777504D01*
X138860354Y-59825024D01*
X138860237Y-59825253D01*
X138843057Y-59882955D01*
X138841495Y-59887831D01*
X138821941Y-59944792D01*
X138821906Y-59945034D01*
X138824394Y-60005191D01*
X138824500Y-60010315D01*
X138824500Y-60162944D01*
X138804815Y-60229983D01*
X138752011Y-60275738D01*
X138682853Y-60285682D01*
X138619297Y-60256657D01*
X138584558Y-60206915D01*
X138580220Y-60195476D01*
X138490484Y-60065471D01*
X138477031Y-60053553D01*
X138372240Y-59960717D01*
X138357369Y-59952912D01*
X138232364Y-59887303D01*
X138078985Y-59849500D01*
X137931900Y-59849500D01*
X137864861Y-59829815D01*
X137844219Y-59813181D01*
X136418998Y-58387960D01*
X136385513Y-58326637D01*
X136390497Y-58256945D01*
X136432369Y-58201012D01*
X136441387Y-58194862D01*
X136446041Y-58191981D01*
X136596764Y-58054579D01*
X136719673Y-57891821D01*
X136735000Y-57861039D01*
X136782502Y-57809804D01*
X136850165Y-57792382D01*
X136916505Y-57814307D01*
X136960461Y-57868618D01*
X136970000Y-57916312D01*
X136970000Y-58204518D01*
X136970354Y-58211132D01*
X136976400Y-58267371D01*
X137026647Y-58402089D01*
X137112811Y-58517188D01*
X137227910Y-58603352D01*
X137362628Y-58653599D01*
X137418867Y-58659645D01*
X137425482Y-58660000D01*
X138070000Y-58660000D01*
X138070000Y-57745501D01*
X138177685Y-57794680D01*
X138284237Y-57810000D01*
X138355763Y-57810000D01*
X138462315Y-57794680D01*
X138570000Y-57745501D01*
X138570000Y-58660000D01*
X139214518Y-58660000D01*
X139221132Y-58659645D01*
X139277371Y-58653599D01*
X139412089Y-58603352D01*
X139527188Y-58517188D01*
X139613352Y-58402089D01*
X139663599Y-58267371D01*
X139669645Y-58211132D01*
X139670000Y-58204518D01*
X139670000Y-57560000D01*
X138753686Y-57560000D01*
X138779493Y-57519844D01*
X138820000Y-57381889D01*
X138820000Y-57238111D01*
X138779493Y-57100156D01*
X138753686Y-57060000D01*
X139670000Y-57060000D01*
X139670000Y-56415481D01*
X139669645Y-56408867D01*
X139663599Y-56352628D01*
X139613352Y-56217910D01*
X139527188Y-56102811D01*
X139412089Y-56016647D01*
X139277371Y-55966400D01*
X139221132Y-55960354D01*
X139214518Y-55960000D01*
X138570000Y-55960000D01*
X138570000Y-56874498D01*
X138462315Y-56825320D01*
X138355763Y-56810000D01*
X138284237Y-56810000D01*
X138177685Y-56825320D01*
X138070000Y-56874498D01*
X138070000Y-55960000D01*
X137425482Y-55960000D01*
X137418867Y-55960354D01*
X137362628Y-55966400D01*
X137227910Y-56016647D01*
X137112811Y-56102811D01*
X137026647Y-56217910D01*
X136976400Y-56352628D01*
X136970354Y-56408867D01*
X136970000Y-56415481D01*
X136970000Y-56703687D01*
X136950315Y-56770726D01*
X136897511Y-56816481D01*
X136828353Y-56826425D01*
X136764797Y-56797400D01*
X136735000Y-56758959D01*
X136719673Y-56728179D01*
X136596763Y-56565419D01*
X136446041Y-56428018D01*
X136272638Y-56320652D01*
X136234704Y-56305956D01*
X136179303Y-56263382D01*
X136155714Y-56197615D01*
X136155500Y-56190330D01*
X136155500Y-55827702D01*
X136175185Y-55760663D01*
X136197269Y-55734890D01*
X136270483Y-55670030D01*
X136360220Y-55540023D01*
X136416237Y-55392318D01*
X136435278Y-55235500D01*
X136416237Y-55078682D01*
X136360220Y-54930977D01*
X136360219Y-54930974D01*
X136348228Y-54913602D01*
X136326345Y-54847248D01*
X136343811Y-54779596D01*
X136395079Y-54732127D01*
X136463872Y-54719910D01*
X136515553Y-54737735D01*
X136647363Y-54819348D01*
X136837544Y-54893024D01*
X137038024Y-54930500D01*
X137038026Y-54930500D01*
X137241974Y-54930500D01*
X137241976Y-54930500D01*
X137442456Y-54893024D01*
X137632637Y-54819348D01*
X137806041Y-54711981D01*
X137839603Y-54681385D01*
X137956763Y-54574580D01*
X137967044Y-54560966D01*
X138079673Y-54411821D01*
X138079673Y-54411819D01*
X138079675Y-54411818D01*
X138138273Y-54294135D01*
X138170582Y-54229250D01*
X138226397Y-54033083D01*
X138245215Y-53830000D01*
X138245215Y-53829999D01*
X138574785Y-53829999D01*
X138593602Y-54033083D01*
X138649418Y-54229251D01*
X138740324Y-54411818D01*
X138863236Y-54574580D01*
X139013958Y-54711981D01*
X139184887Y-54817815D01*
X139187363Y-54819348D01*
X139377544Y-54893024D01*
X139578024Y-54930500D01*
X139578026Y-54930500D01*
X139781974Y-54930500D01*
X139781976Y-54930500D01*
X139982456Y-54893024D01*
X140172637Y-54819348D01*
X140346041Y-54711981D01*
X140379603Y-54681385D01*
X140496763Y-54574580D01*
X140507044Y-54560966D01*
X140619673Y-54411821D01*
X140619673Y-54411819D01*
X140619675Y-54411818D01*
X140678273Y-54294135D01*
X140710582Y-54229250D01*
X140766397Y-54033083D01*
X140785215Y-53830000D01*
X140766397Y-53626917D01*
X140765348Y-53623231D01*
X140735730Y-53519135D01*
X140710582Y-53430750D01*
X140681701Y-53372748D01*
X140619675Y-53248181D01*
X140496763Y-53085419D01*
X140346041Y-52948018D01*
X140172638Y-52840652D01*
X139982457Y-52766976D01*
X139903737Y-52752261D01*
X139781976Y-52729500D01*
X139578024Y-52729500D01*
X139490484Y-52745864D01*
X139377542Y-52766976D01*
X139187361Y-52840652D01*
X139013958Y-52948018D01*
X138863236Y-53085419D01*
X138740324Y-53248181D01*
X138649418Y-53430748D01*
X138593602Y-53626916D01*
X138574785Y-53829999D01*
X138245215Y-53829999D01*
X138226397Y-53626917D01*
X138225348Y-53623231D01*
X138195730Y-53519135D01*
X138170582Y-53430750D01*
X138141701Y-53372748D01*
X138079675Y-53248181D01*
X137956763Y-53085419D01*
X137806043Y-52948020D01*
X137732651Y-52902578D01*
X137686016Y-52850550D01*
X137674912Y-52781568D01*
X137695877Y-52726714D01*
X137780220Y-52604523D01*
X137836237Y-52456818D01*
X137855278Y-52300000D01*
X137836237Y-52143182D01*
X137780220Y-51995477D01*
X137779851Y-51994942D01*
X137778742Y-51991580D01*
X137774881Y-51981399D01*
X137775328Y-51981229D01*
X137757966Y-51928588D01*
X137775430Y-51860936D01*
X137826697Y-51813465D01*
X137881899Y-51800500D01*
X138019675Y-51800500D01*
X138034287Y-51797593D01*
X138092740Y-51785966D01*
X138111113Y-51773689D01*
X138177786Y-51752813D01*
X138245166Y-51771297D01*
X138248809Y-51773638D01*
X138267260Y-51785966D01*
X138322059Y-51796866D01*
X138340325Y-51800500D01*
X138340326Y-51800500D01*
X139289675Y-51800500D01*
X139304287Y-51797593D01*
X139362740Y-51785966D01*
X139381112Y-51773689D01*
X139447783Y-51752813D01*
X139515164Y-51771296D01*
G37*
%TD.AperFunction*%
%TA.AperFunction,Conductor*%
G36*
X150280703Y-58082185D02*
G01*
X150287179Y-58088215D01*
X151164035Y-58965072D01*
X152027850Y-59828887D01*
X152043977Y-59848746D01*
X152049915Y-59857836D01*
X152074893Y-59877277D01*
X152086410Y-59887448D01*
X152086481Y-59887519D01*
X152103397Y-59899597D01*
X152107505Y-59902660D01*
X152155041Y-59939659D01*
X152155232Y-59939756D01*
X152162799Y-59942009D01*
X152162801Y-59942010D01*
X152212974Y-59956947D01*
X152217804Y-59958494D01*
X152267340Y-59975500D01*
X152267342Y-59975500D01*
X152274799Y-59978060D01*
X152275033Y-59978094D01*
X152282909Y-59977768D01*
X152282912Y-59977769D01*
X152333227Y-59975687D01*
X152335207Y-59975606D01*
X152340331Y-59975500D01*
X153124802Y-59975500D01*
X153191841Y-59995185D01*
X153212483Y-60011819D01*
X154788182Y-61587518D01*
X154821666Y-61648839D01*
X154824500Y-61675197D01*
X154824500Y-61800575D01*
X154804815Y-61867614D01*
X154752011Y-61913369D01*
X154682853Y-61923313D01*
X154657167Y-61916757D01*
X154562373Y-61881400D01*
X154506132Y-61875354D01*
X154499518Y-61875000D01*
X153980000Y-61875000D01*
X153980000Y-63001000D01*
X153960315Y-63068039D01*
X153907511Y-63113794D01*
X153856000Y-63125000D01*
X152505000Y-63125000D01*
X152505000Y-63274599D01*
X152485315Y-63341638D01*
X152432511Y-63387393D01*
X152363353Y-63397337D01*
X152299797Y-63368312D01*
X152293319Y-63362280D01*
X152011819Y-63080780D01*
X151978334Y-63019457D01*
X151975500Y-62993099D01*
X151975500Y-62625000D01*
X152505000Y-62625000D01*
X153480000Y-62625000D01*
X153480000Y-61875000D01*
X152960482Y-61875000D01*
X152953867Y-61875354D01*
X152897628Y-61881400D01*
X152762910Y-61931647D01*
X152647811Y-62017811D01*
X152561647Y-62132910D01*
X152511400Y-62267628D01*
X152505354Y-62323867D01*
X152505000Y-62330481D01*
X152505000Y-62625000D01*
X151975500Y-62625000D01*
X151975500Y-62001803D01*
X151978139Y-61976356D01*
X151980367Y-61965732D01*
X151976452Y-61934322D01*
X151975500Y-61918985D01*
X151975500Y-61918887D01*
X151975195Y-61917061D01*
X151972075Y-61898369D01*
X151971341Y-61893325D01*
X151963891Y-61833550D01*
X151963821Y-61833332D01*
X151960065Y-61826392D01*
X151960065Y-61826390D01*
X151935148Y-61780348D01*
X151932828Y-61775840D01*
X151909826Y-61728789D01*
X151909825Y-61728788D01*
X151906360Y-61721700D01*
X151906225Y-61721519D01*
X151900419Y-61716174D01*
X151861892Y-61680707D01*
X151858219Y-61677182D01*
X150111819Y-59930781D01*
X150078334Y-59869458D01*
X150075500Y-59843100D01*
X150075500Y-58175898D01*
X150095185Y-58108859D01*
X150147989Y-58063104D01*
X150217147Y-58053160D01*
X150280703Y-58082185D01*
G37*
%TD.AperFunction*%
%TA.AperFunction,Conductor*%
G36*
X129770000Y-55180000D02*
G01*
X130414518Y-55180000D01*
X130421114Y-55179646D01*
X130477378Y-55173597D01*
X130536348Y-55151602D01*
X130606039Y-55146616D01*
X130667360Y-55180098D01*
X130667364Y-55180102D01*
X131588180Y-56100918D01*
X131621665Y-56162241D01*
X131624499Y-56188599D01*
X131624499Y-56382801D01*
X131604814Y-56449840D01*
X131552010Y-56495595D01*
X131482852Y-56505539D01*
X131419296Y-56476514D01*
X131416961Y-56474438D01*
X131366041Y-56428019D01*
X131192638Y-56320652D01*
X131002457Y-56246976D01*
X130915290Y-56230682D01*
X130801976Y-56209500D01*
X130598024Y-56209500D01*
X130527196Y-56222740D01*
X130397542Y-56246976D01*
X130207361Y-56320652D01*
X130033958Y-56428018D01*
X129883236Y-56565419D01*
X129760327Y-56728178D01*
X129729710Y-56789665D01*
X129682206Y-56840901D01*
X129614543Y-56858322D01*
X129548203Y-56836396D01*
X129531029Y-56822073D01*
X128906572Y-56197616D01*
X128211819Y-55502862D01*
X128178334Y-55441539D01*
X128175500Y-55415181D01*
X128175500Y-55182120D01*
X128195185Y-55115081D01*
X128247989Y-55069326D01*
X128317147Y-55059382D01*
X128373811Y-55082853D01*
X128427911Y-55123352D01*
X128562628Y-55173599D01*
X128618867Y-55179645D01*
X128625482Y-55180000D01*
X129270000Y-55180000D01*
X129269999Y-54265501D01*
X129377685Y-54314680D01*
X129484237Y-54330000D01*
X129555763Y-54330000D01*
X129662315Y-54314680D01*
X129770000Y-54265501D01*
X129770000Y-55180000D01*
G37*
%TD.AperFunction*%
%TA.AperFunction,Conductor*%
G36*
X131388039Y-33069685D02*
G01*
X131433794Y-33122489D01*
X131445000Y-33174000D01*
X131445000Y-34550000D01*
X131689518Y-34550000D01*
X131696132Y-34549645D01*
X131752371Y-34543599D01*
X131887088Y-34493352D01*
X131891189Y-34490283D01*
X131956653Y-34465866D01*
X132024926Y-34480718D01*
X132074332Y-34530123D01*
X132089500Y-34589550D01*
X132089500Y-34713195D01*
X132086861Y-34738642D01*
X132084632Y-34749270D01*
X132088547Y-34780683D01*
X132089499Y-34795992D01*
X132089499Y-34796110D01*
X132092918Y-34816602D01*
X132093657Y-34821671D01*
X132101107Y-34881438D01*
X132101185Y-34881682D01*
X132129827Y-34934608D01*
X132132171Y-34939162D01*
X132158634Y-34993292D01*
X132158777Y-34993482D01*
X132164579Y-34998824D01*
X132164581Y-34998826D01*
X132203108Y-35034293D01*
X132206780Y-35037817D01*
X145981782Y-48812819D01*
X146015267Y-48874142D01*
X146010283Y-48943834D01*
X145968411Y-48999767D01*
X145902947Y-49024184D01*
X145894101Y-49024500D01*
X141806803Y-49024500D01*
X141781357Y-49021861D01*
X141770731Y-49019633D01*
X141739324Y-49023548D01*
X141723987Y-49024500D01*
X141723886Y-49024500D01*
X141703359Y-49027924D01*
X141698300Y-49028661D01*
X141638556Y-49036109D01*
X141638316Y-49036186D01*
X141585359Y-49064844D01*
X141580805Y-49067188D01*
X141526721Y-49093628D01*
X141526506Y-49093788D01*
X141485729Y-49138082D01*
X141482183Y-49141777D01*
X141126108Y-49497852D01*
X141106254Y-49513976D01*
X141097165Y-49519914D01*
X141077722Y-49544894D01*
X141067563Y-49556398D01*
X141067484Y-49556476D01*
X141067479Y-49556482D01*
X141067480Y-49556482D01*
X141055390Y-49573414D01*
X141052341Y-49577504D01*
X141015354Y-49625024D01*
X141015237Y-49625253D01*
X140998057Y-49682955D01*
X140996497Y-49687823D01*
X140986907Y-49715760D01*
X140946525Y-49772776D01*
X140891849Y-49794825D01*
X140892305Y-49797117D01*
X140807259Y-49814034D01*
X140788888Y-49826309D01*
X140722210Y-49847185D01*
X140654830Y-49828699D01*
X140651112Y-49826309D01*
X140632740Y-49814034D01*
X140559675Y-49799500D01*
X140559674Y-49799500D01*
X139610326Y-49799500D01*
X139610325Y-49799500D01*
X139537259Y-49814034D01*
X139518888Y-49826309D01*
X139452210Y-49847185D01*
X139384830Y-49828699D01*
X139381112Y-49826309D01*
X139362740Y-49814034D01*
X139289675Y-49799500D01*
X139289674Y-49799500D01*
X138340326Y-49799500D01*
X138340325Y-49799500D01*
X138267259Y-49814034D01*
X138248888Y-49826309D01*
X138182210Y-49847185D01*
X138114830Y-49828699D01*
X138111112Y-49826309D01*
X138092740Y-49814034D01*
X138008677Y-49797312D01*
X137946767Y-49764926D01*
X137912193Y-49704210D01*
X137909822Y-49691028D01*
X137908889Y-49683548D01*
X137908819Y-49683327D01*
X137894473Y-49656818D01*
X137880159Y-49630369D01*
X137877822Y-49625829D01*
X137874385Y-49618799D01*
X137854826Y-49578789D01*
X137854825Y-49578788D01*
X137851360Y-49571700D01*
X137851225Y-49571519D01*
X137845419Y-49566174D01*
X137806892Y-49530707D01*
X137803219Y-49527182D01*
X136547149Y-48271111D01*
X136531022Y-48251253D01*
X136525083Y-48242162D01*
X136500110Y-48222725D01*
X136488593Y-48212554D01*
X136488519Y-48212480D01*
X136471594Y-48200397D01*
X136467480Y-48197330D01*
X136426189Y-48165191D01*
X136426186Y-48165190D01*
X136419963Y-48160346D01*
X136419761Y-48160242D01*
X136412200Y-48157990D01*
X136412199Y-48157990D01*
X136362036Y-48143055D01*
X136357174Y-48141497D01*
X136338637Y-48135134D01*
X136300202Y-48121939D01*
X136299969Y-48121906D01*
X136260265Y-48123548D01*
X136239806Y-48124394D01*
X136234684Y-48124500D01*
X131351805Y-48124500D01*
X131326359Y-48121861D01*
X131315733Y-48119633D01*
X131315732Y-48119633D01*
X131297858Y-48121861D01*
X131284323Y-48123548D01*
X131268986Y-48124500D01*
X131268884Y-48124500D01*
X131248399Y-48127918D01*
X131243332Y-48128657D01*
X131183567Y-48136107D01*
X131183312Y-48136189D01*
X131130370Y-48164838D01*
X131125821Y-48167179D01*
X131098465Y-48180554D01*
X131029593Y-48192316D01*
X130965294Y-48164976D01*
X130925985Y-48107213D01*
X130920000Y-48069156D01*
X130920000Y-34626362D01*
X130939685Y-34559323D01*
X130945000Y-34552727D01*
X130945000Y-33174000D01*
X130964685Y-33106961D01*
X131017489Y-33061206D01*
X131069000Y-33050000D01*
X131321000Y-33050000D01*
X131388039Y-33069685D01*
G37*
%TD.AperFunction*%
%TD*%
M02*
