%TF.GenerationSoftware,KiCad,Pcbnew,7.0.2-1.fc38*%
%TF.CreationDate,2023-06-06T17:02:22+02:00*%
%TF.ProjectId,gps_compass,6770735f-636f-46d7-9061-73732e6b6963,rev?*%
%TF.SameCoordinates,Original*%
%TF.FileFunction,Copper,L1,Top*%
%TF.FilePolarity,Positive*%
%FSLAX46Y46*%
G04 Gerber Fmt 4.6, Leading zero omitted, Abs format (unit mm)*
G04 Created by KiCad (PCBNEW 7.0.2-1.fc38) date 2023-06-06 17:02:22*
%MOMM*%
%LPD*%
G01*
G04 APERTURE LIST*
G04 Aperture macros list*
%AMRoundRect*
0 Rectangle with rounded corners*
0 $1 Rounding radius*
0 $2 $3 $4 $5 $6 $7 $8 $9 X,Y pos of 4 corners*
0 Add a 4 corners polygon primitive as box body*
4,1,4,$2,$3,$4,$5,$6,$7,$8,$9,$2,$3,0*
0 Add four circle primitives for the rounded corners*
1,1,$1+$1,$2,$3*
1,1,$1+$1,$4,$5*
1,1,$1+$1,$6,$7*
1,1,$1+$1,$8,$9*
0 Add four rect primitives between the rounded corners*
20,1,$1+$1,$2,$3,$4,$5,0*
20,1,$1+$1,$4,$5,$6,$7,0*
20,1,$1+$1,$6,$7,$8,$9,0*
20,1,$1+$1,$8,$9,$2,$3,0*%
G04 Aperture macros list end*
%TA.AperFunction,ComponentPad*%
%ADD10C,2.000000*%
%TD*%
%TA.AperFunction,SMDPad,CuDef*%
%ADD11RoundRect,0.237500X0.237500X-0.250000X0.237500X0.250000X-0.237500X0.250000X-0.237500X-0.250000X0*%
%TD*%
%TA.AperFunction,ComponentPad*%
%ADD12R,1.700000X1.700000*%
%TD*%
%TA.AperFunction,ComponentPad*%
%ADD13O,1.700000X1.700000*%
%TD*%
%TA.AperFunction,ComponentPad*%
%ADD14C,1.700000*%
%TD*%
%TA.AperFunction,SMDPad,CuDef*%
%ADD15RoundRect,0.237500X-0.237500X0.250000X-0.237500X-0.250000X0.237500X-0.250000X0.237500X0.250000X0*%
%TD*%
%TA.AperFunction,SMDPad,CuDef*%
%ADD16R,1.800000X1.500000*%
%TD*%
%TA.AperFunction,SMDPad,CuDef*%
%ADD17R,1.500000X1.800000*%
%TD*%
%TA.AperFunction,SMDPad,CuDef*%
%ADD18R,1.600000X2.000000*%
%TD*%
%TA.AperFunction,SMDPad,CuDef*%
%ADD19RoundRect,0.250000X0.475000X-0.337500X0.475000X0.337500X-0.475000X0.337500X-0.475000X-0.337500X0*%
%TD*%
%TA.AperFunction,SMDPad,CuDef*%
%ADD20RoundRect,0.250000X-0.475000X0.337500X-0.475000X-0.337500X0.475000X-0.337500X0.475000X0.337500X0*%
%TD*%
%TA.AperFunction,ComponentPad*%
%ADD21R,1.800000X1.800000*%
%TD*%
%TA.AperFunction,ComponentPad*%
%ADD22C,1.800000*%
%TD*%
%TA.AperFunction,ComponentPad*%
%ADD23C,0.700000*%
%TD*%
%TA.AperFunction,ComponentPad*%
%ADD24O,1.700000X0.900000*%
%TD*%
%TA.AperFunction,ComponentPad*%
%ADD25O,2.400000X0.900000*%
%TD*%
%TA.AperFunction,ViaPad*%
%ADD26C,0.800000*%
%TD*%
%TA.AperFunction,Conductor*%
%ADD27C,0.250000*%
%TD*%
G04 APERTURE END LIST*
D10*
%TO.P,SWdown1,1,A*%
%TO.N,B2*%
X168200000Y-56600000D03*
X168200000Y-50100000D03*
%TO.P,SWdown1,2,B*%
%TO.N,GND*%
X172700000Y-56600000D03*
X172700000Y-50100000D03*
%TD*%
D11*
%TO.P,R8,1*%
%TO.N,Net-(J1-CC1)*%
X117000000Y-54812500D03*
%TO.P,R8,2*%
%TO.N,GND*%
X117000000Y-52987500D03*
%TD*%
D12*
%TO.P,GY-271,1,Pin_1*%
%TO.N,VCC*%
X156630000Y-71860000D03*
D13*
%TO.P,GY-271,2,Pin_2*%
%TO.N,GND*%
X156630000Y-69320000D03*
%TO.P,GY-271,3,Pin_3*%
%TO.N,SCL*%
X156630000Y-66780000D03*
%TO.P,GY-271,4,Pin_4*%
%TO.N,SDA*%
X156630000Y-64240000D03*
%TO.P,GY-271,5,Pin_5*%
%TO.N,unconnected-(GY-271-Pin_5-Pad5)*%
X156630000Y-61700000D03*
%TD*%
D12*
%TO.P,LCD,1,Pin_1*%
%TO.N,GND*%
X129520000Y-53830000D03*
D13*
%TO.P,LCD,2,Pin_2*%
%TO.N,VCC*%
X132060000Y-53830000D03*
%TO.P,LCD,3,Pin_3*%
%TO.N,lcd_data*%
X134600000Y-53830000D03*
%TO.P,LCD,4,Pin_4*%
%TO.N,lcd_wr*%
X137140000Y-53830000D03*
%TO.P,LCD,5,Pin_5*%
%TO.N,lcd_cs*%
X139680000Y-53830000D03*
%TD*%
D10*
%TO.P,SWright1,1,A*%
%TO.N,B4*%
X160100000Y-47050000D03*
X160100000Y-40550000D03*
%TO.P,SWright1,2,B*%
%TO.N,GND*%
X164600000Y-47050000D03*
X164600000Y-40550000D03*
%TD*%
D14*
%TO.P,Serial1,1,Pin_1*%
%TO.N,Net-(ESP32-S1-TXD0{slash}IO1)*%
X159900000Y-33340000D03*
D13*
%TO.P,Serial1,2,Pin_2*%
%TO.N,Net-(ESP32-S1-RXD0{slash}IO3)*%
X157360000Y-33340000D03*
D12*
%TO.P,Serial1,3,Pin_3*%
%TO.N,GND*%
X154820000Y-33340000D03*
%TD*%
D15*
%TO.P,R7,1*%
%TO.N,Net-(J1-CC2)*%
X110800000Y-52187500D03*
%TO.P,R7,2*%
%TO.N,GND*%
X110800000Y-54012500D03*
%TD*%
D10*
%TO.P,SWleft1,1,A*%
%TO.N,B3*%
X160100000Y-56600000D03*
X160100000Y-50100000D03*
%TO.P,SWleft1,2,B*%
%TO.N,GND*%
X164600000Y-56600000D03*
X164600000Y-50100000D03*
%TD*%
D12*
%TO.P,Oled,1,Pin_1*%
%TO.N,GND*%
X138320000Y-57310000D03*
D13*
%TO.P,Oled,2,Pin_2*%
%TO.N,VCC*%
X135780000Y-57310000D03*
%TO.P,Oled,3,Pin_3*%
%TO.N,SCL*%
X133240000Y-57310000D03*
%TO.P,Oled,4,Pin_4*%
%TO.N,SDA*%
X130700000Y-57310000D03*
%TD*%
D10*
%TO.P,SWb1,1,A*%
%TO.N,B6*%
X172050000Y-66150000D03*
X172050000Y-59650000D03*
%TO.P,SWb1,2,B*%
%TO.N,GND*%
X176550000Y-66150000D03*
X176550000Y-59650000D03*
%TD*%
D15*
%TO.P,R4,1*%
%TO.N,Net-(GPS1-~{RESET})*%
X121250000Y-61837500D03*
%TO.P,R4,2*%
%TO.N,+3V3*%
X121250000Y-63662500D03*
%TD*%
D10*
%TO.P,SWa1,1,A*%
%TO.N,B5*%
X160100000Y-66200000D03*
X160100000Y-59700000D03*
%TO.P,SWa1,2,B*%
%TO.N,GND*%
X164600000Y-66200000D03*
X164600000Y-59700000D03*
%TD*%
%TO.P,SWup1,1,A*%
%TO.N,B1*%
X152000000Y-56600000D03*
X152000000Y-50100000D03*
%TO.P,SWup1,2,B*%
%TO.N,GND*%
X156500000Y-56600000D03*
X156500000Y-50100000D03*
%TD*%
D16*
%TO.P,GPS,1,GND*%
%TO.N,GND*%
X123900000Y-63875000D03*
%TO.P,GPS,2,VCC_IO*%
%TO.N,+3V3*%
X123900000Y-65775000D03*
%TO.P,GPS,3,V_BCKP*%
X123900000Y-67675000D03*
%TO.P,GPS,4,GND*%
%TO.N,GND*%
X123900000Y-69575000D03*
%TO.P,GPS,5,GND*%
X123900000Y-71475000D03*
D17*
%TO.P,GPS,6,GND*%
X126700000Y-74275000D03*
%TO.P,GPS,9,SDA*%
%TO.N,SDA*%
X132400000Y-74275000D03*
%TO.P,GPS,10,GND*%
%TO.N,GND*%
X134300000Y-74275000D03*
D16*
%TO.P,GPS,11,GND*%
X137100000Y-71475000D03*
%TO.P,GPS,12,SCL*%
%TO.N,SCL*%
X137100000Y-69575000D03*
%TO.P,GPS,13,TXD*%
%TO.N,Net-(GPS1-TXD)*%
X137100000Y-67675000D03*
%TO.P,GPS,14,RXD*%
%TO.N,Net-(GPS1-RXD)*%
X137100000Y-65775000D03*
%TO.P,GPS,15,GND*%
%TO.N,GND*%
X137100000Y-63875000D03*
D17*
%TO.P,GPS,16,GND*%
X134300000Y-61075000D03*
%TO.P,GPS,17,VCC*%
%TO.N,+3V3*%
X132400000Y-61075000D03*
%TO.P,GPS,18,~{RESET}*%
%TO.N,Net-(GPS1-~{RESET})*%
X130500000Y-61075000D03*
%TO.P,GPS,19,EXTINT*%
%TO.N,unconnected-(GPS1-EXTINT-Pad19)*%
X128600000Y-61075000D03*
%TO.P,GPS,20,GND*%
%TO.N,GND*%
X126700000Y-61075000D03*
%TD*%
D18*
%TO.P,En,1,A*%
%TO.N,GND*%
X113700000Y-66600000D03*
%TO.P,En,2,B*%
%TO.N,Net-(ESP32-S1-EN)*%
X113700000Y-61200000D03*
%TD*%
%TO.P,Prog,1,A*%
%TO.N,Net-(ESP32-S1-IO0)*%
X117800000Y-61200000D03*
%TO.P,Prog,2,B*%
%TO.N,GND*%
X117800000Y-66600000D03*
%TD*%
D19*
%TO.P,C3,1*%
%TO.N,+3V3*%
X121200000Y-69300000D03*
%TO.P,C3,2*%
%TO.N,GND*%
X121200000Y-67225000D03*
%TD*%
D20*
%TO.P,C4,1*%
%TO.N,+3V3*%
X121200000Y-71362500D03*
%TO.P,C4,2*%
%TO.N,GND*%
X121200000Y-73437500D03*
%TD*%
D21*
%TO.P,LED,1,K*%
%TO.N,Net-(LED1-K)*%
X114000000Y-44100000D03*
D22*
%TO.P,LED,2,A*%
%TO.N,Net-(ESP32-S1-IO32)*%
X114000000Y-41560000D03*
%TD*%
D23*
%TO.P,J1,A1*%
%TO.N,N/C*%
X114725000Y-56475000D03*
%TO.P,J1,A4*%
X114725000Y-55625000D03*
%TO.P,J1,A5,CC1*%
%TO.N,Net-(J1-CC1)*%
X114725000Y-54775000D03*
%TO.P,J1,A6*%
%TO.N,N/C*%
X114725000Y-53925000D03*
%TO.P,J1,A7*%
X114725000Y-53075000D03*
%TO.P,J1,A8*%
X114725000Y-52225000D03*
%TO.P,J1,A9,VBUS*%
%TO.N,Net-(U3-VCC)*%
X114725000Y-51375000D03*
%TO.P,J1,A12,GND*%
%TO.N,GND*%
X114725000Y-50525000D03*
%TO.P,J1,B1*%
%TO.N,N/C*%
X113375000Y-50525000D03*
%TO.P,J1,B4*%
X113375000Y-51375000D03*
%TO.P,J1,B5,CC2*%
%TO.N,Net-(J1-CC2)*%
X113375000Y-52225000D03*
%TO.P,J1,B6*%
%TO.N,N/C*%
X113375000Y-53075000D03*
%TO.P,J1,B7*%
X113375000Y-53925000D03*
%TO.P,J1,B8*%
X113375000Y-54775000D03*
%TO.P,J1,B9,VBUS*%
%TO.N,Net-(U3-VCC)*%
X113375000Y-55625000D03*
%TO.P,J1,B12,GND*%
%TO.N,GND*%
X113375000Y-56475000D03*
D24*
%TO.P,J1,S1,SHIELD*%
X110365000Y-57825000D03*
D25*
X113745000Y-57825000D03*
D24*
X110365000Y-49175000D03*
D25*
X113745000Y-49175000D03*
%TD*%
D26*
%TO.N,GND*%
X140200000Y-57300000D03*
%TO.N,+3V3*%
X133100000Y-71300000D03*
%TO.N,VCC*%
X138000000Y-60500000D03*
X149100000Y-69500000D03*
X131980000Y-36000000D03*
X126750000Y-52500000D03*
X135780000Y-55235500D03*
%TO.N,Net-(ESP32-S1-EN)*%
X122100000Y-55000000D03*
%TO.N,B2*%
X148800000Y-53500000D03*
%TO.N,lcd_data*%
X146700000Y-31900000D03*
%TO.N,lcd_wr*%
X145850000Y-39250000D03*
%TO.N,lcd_cs*%
X150500000Y-33200000D03*
%TO.N,Net-(ESP32-S1-IO0)*%
X148800000Y-51200000D03*
%TO.N,Net-(ESP32-S1-RXD0{slash}IO3)*%
X137200000Y-52300000D03*
%TO.N,Net-(ESP32-S1-TXD0{slash}IO1)*%
X135600000Y-52500000D03*
%TO.N,Net-(GPS1-TXD)*%
X143800000Y-63200000D03*
%TO.N,Net-(GPS1-RXD)*%
X141524500Y-65300000D03*
%TD*%
D27*
%TO.N,Net-(ESP32-S1-EN)*%
X113700000Y-61200000D02*
X119900000Y-55000000D01*
X119900000Y-55000000D02*
X122100000Y-55000000D01*
%TO.N,Net-(ESP32-S1-IO0)*%
X148800000Y-51374695D02*
X148800000Y-51200000D01*
X144214695Y-55960000D02*
X148800000Y-51374695D01*
X124790000Y-55960000D02*
X144214695Y-55960000D01*
X119550000Y-61200000D02*
X124790000Y-55960000D01*
X117800000Y-61200000D02*
X119550000Y-61200000D01*
%TO.N,lcd_wr*%
X145850000Y-39250000D02*
X141400000Y-43700000D01*
X141400000Y-43700000D02*
X141400000Y-54500000D01*
X141400000Y-54500000D02*
X140600000Y-55300000D01*
X140600000Y-55300000D02*
X138610000Y-55300000D01*
X138610000Y-55300000D02*
X137140000Y-53830000D01*
%TO.N,VCC*%
X126750000Y-52500000D02*
X130730000Y-52500000D01*
X130730000Y-52500000D02*
X132060000Y-53830000D01*
%TO.N,GND*%
X113375000Y-56475000D02*
X113375000Y-57455000D01*
X113375000Y-57455000D02*
X113745000Y-57825000D01*
X114725000Y-50525000D02*
X114725000Y-50155000D01*
X114725000Y-50155000D02*
X113745000Y-49175000D01*
%TO.N,+3V3*%
X133100000Y-71300000D02*
X132375000Y-70575000D01*
X121200000Y-69300000D02*
X121200000Y-71362500D01*
X123900000Y-67675000D02*
X123900000Y-65775000D01*
X121200000Y-69300000D02*
X122825000Y-67675000D01*
X132400000Y-61075000D02*
X132400000Y-62275000D01*
X122825000Y-67675000D02*
X123900000Y-67675000D01*
X132400000Y-62275000D02*
X132375000Y-62300000D01*
X123900000Y-65775000D02*
X128900000Y-65775000D01*
X128900000Y-65775000D02*
X132375000Y-62300000D01*
X123362500Y-65775000D02*
X123900000Y-65775000D01*
X132375000Y-70575000D02*
X132375000Y-62300000D01*
X121250000Y-63662500D02*
X123362500Y-65775000D01*
%TO.N,Net-(J1-CC1)*%
X116962500Y-54775000D02*
X117000000Y-54812500D01*
X114725000Y-54775000D02*
X116962500Y-54775000D01*
%TO.N,Net-(J1-CC2)*%
X110837500Y-52225000D02*
X113375000Y-52225000D01*
X110800000Y-52187500D02*
X110837500Y-52225000D01*
%TO.N,VCC*%
X138000000Y-60500000D02*
X139200000Y-61700000D01*
X149100000Y-66590000D02*
X149100000Y-69500000D01*
X144210000Y-61700000D02*
X149100000Y-66590000D01*
X133465500Y-55235500D02*
X132060000Y-53830000D01*
X132060000Y-53830000D02*
X132060000Y-36080000D01*
X151450000Y-71850000D02*
X149100000Y-69500000D01*
X135780000Y-55235500D02*
X133465500Y-55235500D01*
X132060000Y-36080000D02*
X131980000Y-36000000D01*
X139200000Y-61700000D02*
X144210000Y-61700000D01*
X156650000Y-71850000D02*
X151450000Y-71850000D01*
%TO.N,SCL*%
X138250000Y-69575000D02*
X142675000Y-74000000D01*
X158400000Y-73000000D02*
X158400000Y-68550000D01*
X133230000Y-57300000D02*
X134530000Y-58600000D01*
X157900000Y-65520000D02*
X156650000Y-66770000D01*
X137100000Y-69575000D02*
X138250000Y-69575000D01*
X134530000Y-58600000D02*
X155500000Y-58600000D01*
X158400000Y-68550000D02*
X156630000Y-66780000D01*
X157900000Y-61000000D02*
X157900000Y-65520000D01*
X142675000Y-74000000D02*
X157400000Y-74000000D01*
X157400000Y-74000000D02*
X158400000Y-73000000D01*
X155500000Y-58600000D02*
X157900000Y-61000000D01*
%TO.N,SDA*%
X132440000Y-59050000D02*
X135700000Y-59050000D01*
X135400000Y-71600000D02*
X135400000Y-59050000D01*
X134800000Y-72200000D02*
X135400000Y-71600000D01*
X133325000Y-72200000D02*
X134800000Y-72200000D01*
X132400000Y-73125000D02*
X133325000Y-72200000D01*
X151470000Y-59050000D02*
X156650000Y-64230000D01*
X132400000Y-74275000D02*
X132400000Y-73125000D01*
X135700000Y-59050000D02*
X151470000Y-59050000D01*
X130700000Y-57310000D02*
X132440000Y-59050000D01*
%TO.N,B2*%
X168200000Y-56600000D02*
X168200000Y-50100000D01*
X148800000Y-53500000D02*
X164800000Y-53500000D01*
X164800000Y-53500000D02*
X168200000Y-50100000D01*
%TO.N,B4*%
X160100000Y-47050000D02*
X160100000Y-40550000D01*
%TO.N,lcd_data*%
X134600000Y-53830000D02*
X134600000Y-44000000D01*
X134600000Y-44000000D02*
X146700000Y-31900000D01*
%TO.N,lcd_cs*%
X150500000Y-33200000D02*
X140030000Y-43670000D01*
X139680000Y-44020000D02*
X140030000Y-43670000D01*
X139680000Y-53830000D02*
X139680000Y-44020000D01*
%TO.N,Net-(ESP32-S1-RXD0{slash}IO3)*%
X150150000Y-32150000D02*
X137200000Y-45100000D01*
X157360000Y-33340000D02*
X156170000Y-32150000D01*
X137200000Y-45100000D02*
X137200000Y-52300000D01*
X156170000Y-32150000D02*
X150150000Y-32150000D01*
%TO.N,Net-(ESP32-S1-TXD0{slash}IO1)*%
X159900000Y-33340000D02*
X158260000Y-31700000D01*
X158260000Y-31700000D02*
X149400000Y-31700000D01*
X135600000Y-45500000D02*
X135600000Y-52500000D01*
X149400000Y-31700000D02*
X135600000Y-45500000D01*
%TO.N,Net-(GPS1-TXD)*%
X141320000Y-67680000D02*
X137145000Y-67680000D01*
X143800000Y-65200000D02*
X141320000Y-67680000D01*
X143800000Y-63200000D02*
X143800000Y-65200000D01*
%TO.N,Net-(GPS1-RXD)*%
X141524500Y-65300000D02*
X137575000Y-65300000D01*
X137575000Y-65300000D02*
X137100000Y-65775000D01*
%TO.N,Net-(GPS1-~{RESET})*%
X129475000Y-62500000D02*
X130500000Y-61475000D01*
X121250000Y-61837500D02*
X121912500Y-62500000D01*
X121912500Y-62500000D02*
X129475000Y-62500000D01*
X130500000Y-61475000D02*
X130500000Y-61075000D01*
%TD*%
%TA.AperFunction,Conductor*%
%TO.N,GND*%
G36*
X162001257Y-30500525D02*
G01*
X162947901Y-30520094D01*
X162953011Y-30520305D01*
X163879087Y-30577801D01*
X163897278Y-30578945D01*
X163902129Y-30579350D01*
X164653985Y-30657326D01*
X164849055Y-30677829D01*
X164853836Y-30678429D01*
X165526153Y-30776383D01*
X165795853Y-30816209D01*
X165800580Y-30817003D01*
X166426894Y-30934870D01*
X166736102Y-30993855D01*
X166740700Y-30994825D01*
X167335401Y-31132411D01*
X167668110Y-31210447D01*
X167672627Y-31211598D01*
X168110516Y-31332170D01*
X168243065Y-31368667D01*
X168590330Y-31465625D01*
X168594773Y-31466957D01*
X168923636Y-31572310D01*
X169145286Y-31643317D01*
X169222244Y-31668322D01*
X169501104Y-31758928D01*
X169505410Y-31760417D01*
X169886185Y-31899999D01*
X170038580Y-31955863D01*
X170398937Y-32089878D01*
X170403042Y-32091491D01*
X170920237Y-32305720D01*
X171282138Y-32457849D01*
X171286216Y-32459652D01*
X171788126Y-32692295D01*
X172149302Y-32862252D01*
X172153214Y-32864178D01*
X172640376Y-33114941D01*
X172998864Y-33302354D01*
X173002650Y-33304418D01*
X173475229Y-33572938D01*
X173829414Y-33777428D01*
X173833048Y-33779610D01*
X174268623Y-34051510D01*
X174290920Y-34065428D01*
X174639419Y-34286592D01*
X174642914Y-34288893D01*
X174833702Y-34419245D01*
X175085940Y-34591582D01*
X175427623Y-34829058D01*
X175430978Y-34831474D01*
X175858846Y-35150520D01*
X176192555Y-35403818D01*
X176195657Y-35406254D01*
X176608202Y-35741269D01*
X176717808Y-35831943D01*
X176932862Y-36009853D01*
X176935899Y-36012449D01*
X177332537Y-36362715D01*
X177647356Y-36646178D01*
X177650222Y-36648842D01*
X177838645Y-36829633D01*
X178030761Y-37013968D01*
X178334716Y-37311623D01*
X178337430Y-37314365D01*
X178701468Y-37693769D01*
X178989507Y-38000500D01*
X178993834Y-38005107D01*
X178996386Y-38007909D01*
X179343483Y-38400958D01*
X179623502Y-38725364D01*
X179625891Y-38728218D01*
X179955690Y-39134340D01*
X180222700Y-39471222D01*
X180224927Y-39474118D01*
X180536949Y-39892566D01*
X180790338Y-40241326D01*
X180792403Y-40244257D01*
X181086307Y-40674425D01*
X181325445Y-41034358D01*
X181327349Y-41037314D01*
X181602759Y-41478511D01*
X181827091Y-41848927D01*
X181828836Y-41851901D01*
X182085382Y-42303405D01*
X182294490Y-42683771D01*
X182296027Y-42686661D01*
X182533387Y-43147784D01*
X182726658Y-43537126D01*
X182728090Y-43540111D01*
X182945920Y-44010063D01*
X183123009Y-44407814D01*
X183124289Y-44410792D01*
X183322298Y-44888829D01*
X183482778Y-45294153D01*
X183483908Y-45297119D01*
X183661859Y-45782562D01*
X183805389Y-46194727D01*
X183806373Y-46197672D01*
X183963984Y-46689659D01*
X184090252Y-47107880D01*
X184091094Y-47110797D01*
X184228162Y-47608599D01*
X184336884Y-48032043D01*
X184337587Y-48034925D01*
X184453917Y-48537747D01*
X184544883Y-48965709D01*
X184545452Y-48968551D01*
X184640857Y-49475504D01*
X184713872Y-49907191D01*
X184714312Y-49909987D01*
X184788661Y-50420288D01*
X184843559Y-50854852D01*
X184843874Y-50857595D01*
X184897060Y-51370419D01*
X184933725Y-51807049D01*
X184933921Y-51809734D01*
X184965789Y-52323036D01*
X184965918Y-52325527D01*
X184984218Y-52762151D01*
X184984301Y-52764781D01*
X184994930Y-53278918D01*
X184994956Y-53281481D01*
X184994956Y-53718517D01*
X184994930Y-53721080D01*
X184984301Y-54235217D01*
X184984218Y-54237847D01*
X184965918Y-54674471D01*
X184965789Y-54676962D01*
X184933921Y-55190260D01*
X184933724Y-55192952D01*
X184897060Y-55629580D01*
X184843874Y-56142402D01*
X184843558Y-56145146D01*
X184788661Y-56579711D01*
X184752877Y-56825320D01*
X184716595Y-57074349D01*
X184714319Y-57089968D01*
X184713879Y-57092764D01*
X184676059Y-57316370D01*
X184649838Y-57471404D01*
X184640861Y-57524477D01*
X184545452Y-58031447D01*
X184544882Y-58034290D01*
X184453917Y-58462252D01*
X184337587Y-58965073D01*
X184336883Y-58967955D01*
X184228162Y-59391400D01*
X184091094Y-59889201D01*
X184090252Y-59892118D01*
X183963984Y-60310340D01*
X183806373Y-60802326D01*
X183805389Y-60805271D01*
X183661859Y-61217437D01*
X183483909Y-61702879D01*
X183482778Y-61705845D01*
X183322298Y-62111170D01*
X183124290Y-62589205D01*
X183123010Y-62592184D01*
X182945920Y-62989936D01*
X182728090Y-63459888D01*
X182726657Y-63462873D01*
X182533387Y-63852215D01*
X182296038Y-64313317D01*
X182294450Y-64316300D01*
X182085388Y-64696584D01*
X181828835Y-65148098D01*
X181827090Y-65151071D01*
X181602759Y-65521488D01*
X181327350Y-65962684D01*
X181325445Y-65965640D01*
X181086307Y-66325573D01*
X180792403Y-66755741D01*
X180790338Y-66758672D01*
X180536949Y-67107433D01*
X180224927Y-67525880D01*
X180222700Y-67528776D01*
X179955691Y-67865659D01*
X179625892Y-68271781D01*
X179623502Y-68274635D01*
X179343483Y-68599041D01*
X178996387Y-68992088D01*
X178993834Y-68994891D01*
X178701468Y-69306230D01*
X178337430Y-69685633D01*
X178334715Y-69688375D01*
X178030761Y-69986030D01*
X177650233Y-70351146D01*
X177647356Y-70353820D01*
X177332538Y-70637284D01*
X176935900Y-70987549D01*
X176932863Y-70990145D01*
X176608189Y-71258740D01*
X176195723Y-71593692D01*
X176192525Y-71596203D01*
X175858846Y-71849479D01*
X175430978Y-72168525D01*
X175427624Y-72170940D01*
X175085941Y-72408416D01*
X174642929Y-72711095D01*
X174639419Y-72713407D01*
X174290920Y-72934571D01*
X173833048Y-73220388D01*
X173829387Y-73222586D01*
X173475192Y-73427082D01*
X173002661Y-73695574D01*
X172998852Y-73697651D01*
X172640331Y-73885081D01*
X172153256Y-74135799D01*
X172149303Y-74137745D01*
X171788126Y-74307703D01*
X171286217Y-74540346D01*
X171282123Y-74542155D01*
X170920206Y-74694292D01*
X170403103Y-74908481D01*
X170398874Y-74910143D01*
X170038580Y-75044136D01*
X169505437Y-75239572D01*
X169501077Y-75241079D01*
X169145286Y-75356682D01*
X168594793Y-75533035D01*
X168590309Y-75534379D01*
X168243065Y-75631332D01*
X167672663Y-75788390D01*
X167668061Y-75789563D01*
X167335373Y-75867595D01*
X166740763Y-76005159D01*
X166736049Y-76006154D01*
X166426655Y-76065174D01*
X165800625Y-76182987D01*
X165795807Y-76183796D01*
X165525935Y-76223648D01*
X164853904Y-76321560D01*
X164848988Y-76322177D01*
X164653526Y-76342721D01*
X163902198Y-76420642D01*
X163897196Y-76421059D01*
X163881534Y-76422044D01*
X163878830Y-76422214D01*
X162953017Y-76479693D01*
X162947896Y-76479905D01*
X162001258Y-76499474D01*
X161998695Y-76499500D01*
X128001305Y-76499500D01*
X127998742Y-76499474D01*
X127052104Y-76479905D01*
X127046983Y-76479693D01*
X126121077Y-76422209D01*
X126102805Y-76421059D01*
X126097798Y-76420642D01*
X125346474Y-76342721D01*
X125151010Y-76322177D01*
X125146094Y-76321560D01*
X124474064Y-76223648D01*
X124204191Y-76183796D01*
X124199373Y-76182987D01*
X123573344Y-76065174D01*
X123263950Y-76006154D01*
X123259236Y-76005159D01*
X122664627Y-75867595D01*
X122331937Y-75789563D01*
X122327335Y-75788390D01*
X121756934Y-75631332D01*
X121409689Y-75534379D01*
X121405205Y-75533035D01*
X120854713Y-75356682D01*
X120498922Y-75241079D01*
X120494562Y-75239572D01*
X119961419Y-75044136D01*
X119601124Y-74910144D01*
X119601121Y-74910143D01*
X119601120Y-74910142D01*
X119596894Y-74908482D01*
X119287251Y-74780224D01*
X119079775Y-74694284D01*
X118717875Y-74542155D01*
X118713782Y-74540346D01*
X118680674Y-74525000D01*
X125450000Y-74525000D01*
X125450000Y-75219518D01*
X125450354Y-75226132D01*
X125456400Y-75282371D01*
X125506647Y-75417089D01*
X125592811Y-75532188D01*
X125707910Y-75618352D01*
X125842628Y-75668599D01*
X125898867Y-75674645D01*
X125905482Y-75675000D01*
X126450000Y-75675000D01*
X126450000Y-74525000D01*
X125450000Y-74525000D01*
X118680674Y-74525000D01*
X118211873Y-74307704D01*
X117850696Y-74137746D01*
X117846742Y-74135799D01*
X117359668Y-73885081D01*
X117001147Y-73697651D01*
X116997337Y-73695574D01*
X116983127Y-73687500D01*
X119975001Y-73687500D01*
X119975001Y-73821829D01*
X119975321Y-73828111D01*
X119985493Y-73927695D01*
X120040642Y-74094122D01*
X120132683Y-74243345D01*
X120256654Y-74367316D01*
X120405877Y-74459357D01*
X120572303Y-74514506D01*
X120671890Y-74524680D01*
X120678168Y-74524999D01*
X120949999Y-74524999D01*
X120950000Y-74524998D01*
X120950000Y-73687500D01*
X121450000Y-73687500D01*
X121450000Y-74524999D01*
X121721829Y-74524999D01*
X121728111Y-74524678D01*
X121827695Y-74514506D01*
X121994122Y-74459357D01*
X122143345Y-74367316D01*
X122267316Y-74243345D01*
X122359357Y-74094122D01*
X122382262Y-74025000D01*
X125450000Y-74025000D01*
X126450000Y-74025000D01*
X126450000Y-72875000D01*
X126950000Y-72875000D01*
X126950000Y-75675000D01*
X127494518Y-75675000D01*
X127501132Y-75674645D01*
X127557371Y-75668599D01*
X127692089Y-75618352D01*
X127807188Y-75532188D01*
X127893352Y-75417089D01*
X127943597Y-75282375D01*
X127945332Y-75266245D01*
X127972070Y-75201694D01*
X128029463Y-75161846D01*
X128068622Y-75155500D01*
X128138623Y-75155500D01*
X128142372Y-75155500D01*
X128268872Y-75140140D01*
X128427930Y-75079818D01*
X128567929Y-74983183D01*
X128680734Y-74855852D01*
X128759790Y-74705225D01*
X128800500Y-74540056D01*
X128800500Y-74369944D01*
X128759790Y-74204775D01*
X128680734Y-74054148D01*
X128567929Y-73926817D01*
X128567928Y-73926816D01*
X128567927Y-73926815D01*
X128427930Y-73830182D01*
X128268872Y-73769860D01*
X128146092Y-73754951D01*
X128146080Y-73754950D01*
X128142372Y-73754500D01*
X128074000Y-73754500D01*
X128006961Y-73734815D01*
X127961206Y-73682011D01*
X127950000Y-73630500D01*
X127950000Y-73330481D01*
X127949645Y-73323867D01*
X127943599Y-73267628D01*
X127893352Y-73132910D01*
X127807188Y-73017811D01*
X127692089Y-72931647D01*
X127557371Y-72881400D01*
X127501132Y-72875354D01*
X127494518Y-72875000D01*
X126950000Y-72875000D01*
X126450000Y-72875000D01*
X125905482Y-72875000D01*
X125898867Y-72875354D01*
X125842628Y-72881400D01*
X125707910Y-72931647D01*
X125592811Y-73017811D01*
X125506647Y-73132910D01*
X125456400Y-73267628D01*
X125450354Y-73323867D01*
X125450000Y-73330481D01*
X125450000Y-74025000D01*
X122382262Y-74025000D01*
X122414506Y-73927696D01*
X122424680Y-73828109D01*
X122425000Y-73821831D01*
X122425000Y-73687500D01*
X121450000Y-73687500D01*
X120950000Y-73687500D01*
X119975001Y-73687500D01*
X116983127Y-73687500D01*
X116524807Y-73427082D01*
X116170610Y-73222586D01*
X116166949Y-73220387D01*
X115709079Y-72934571D01*
X115360579Y-72713406D01*
X115357070Y-72711095D01*
X114914060Y-72408417D01*
X114572375Y-72170940D01*
X114569043Y-72168542D01*
X114141122Y-71849456D01*
X113807461Y-71596193D01*
X113804325Y-71593731D01*
X113391809Y-71258740D01*
X113238538Y-71131943D01*
X113067136Y-70990145D01*
X113064099Y-70987549D01*
X112667462Y-70637284D01*
X112514991Y-70499999D01*
X115494356Y-70499999D01*
X115514891Y-70747816D01*
X115514891Y-70747819D01*
X115514892Y-70747821D01*
X115575937Y-70988881D01*
X115620960Y-71091523D01*
X115675825Y-71216604D01*
X115675827Y-71216607D01*
X115811836Y-71424785D01*
X115980256Y-71607738D01*
X116014012Y-71634011D01*
X116176485Y-71760470D01*
X116176487Y-71760471D01*
X116176491Y-71760474D01*
X116395190Y-71878828D01*
X116630386Y-71959571D01*
X116875665Y-72000500D01*
X117124335Y-72000500D01*
X117369614Y-71959571D01*
X117604810Y-71878828D01*
X117823509Y-71760474D01*
X118019744Y-71607738D01*
X118188164Y-71424785D01*
X118324173Y-71216607D01*
X118424063Y-70988881D01*
X118485108Y-70747821D01*
X118505643Y-70500000D01*
X118485108Y-70252179D01*
X118424063Y-70011119D01*
X118325456Y-69786317D01*
X118324174Y-69783395D01*
X118299058Y-69744952D01*
X118188164Y-69575215D01*
X118019744Y-69392262D01*
X117997612Y-69375036D01*
X117823514Y-69239529D01*
X117823510Y-69239526D01*
X117823509Y-69239526D01*
X117604810Y-69121172D01*
X117604806Y-69121170D01*
X117604805Y-69121170D01*
X117369615Y-69040429D01*
X117124335Y-68999500D01*
X116875665Y-68999500D01*
X116630384Y-69040429D01*
X116395194Y-69121170D01*
X116395190Y-69121171D01*
X116395190Y-69121172D01*
X116335688Y-69153373D01*
X116176485Y-69239529D01*
X115980259Y-69392259D01*
X115811837Y-69575214D01*
X115675825Y-69783395D01*
X115606983Y-69940341D01*
X115575937Y-70011119D01*
X115533055Y-70180455D01*
X115514891Y-70252183D01*
X115494356Y-70499999D01*
X112514991Y-70499999D01*
X112377402Y-70376114D01*
X112352637Y-70353815D01*
X112349764Y-70351145D01*
X112324415Y-70326823D01*
X112088022Y-70100004D01*
X111969238Y-69986031D01*
X111665282Y-69688375D01*
X111662568Y-69685633D01*
X111298531Y-69306230D01*
X111172772Y-69172310D01*
X111006151Y-68994877D01*
X111003612Y-68992088D01*
X110656516Y-68599040D01*
X110376496Y-68274634D01*
X110374107Y-68271780D01*
X110044309Y-67865659D01*
X109777298Y-67528776D01*
X109775071Y-67525880D01*
X109558481Y-67235414D01*
X109463042Y-67107422D01*
X109443482Y-67080500D01*
X109276014Y-66850000D01*
X112400000Y-66850000D01*
X112400000Y-67644518D01*
X112400354Y-67651132D01*
X112406400Y-67707371D01*
X112456647Y-67842089D01*
X112542811Y-67957188D01*
X112657910Y-68043352D01*
X112792628Y-68093599D01*
X112848867Y-68099645D01*
X112855482Y-68100000D01*
X113450000Y-68100000D01*
X113450000Y-66850000D01*
X113950000Y-66850000D01*
X113950000Y-68100000D01*
X114544518Y-68100000D01*
X114551132Y-68099645D01*
X114607371Y-68093599D01*
X114742089Y-68043352D01*
X114857188Y-67957188D01*
X114943352Y-67842089D01*
X114993599Y-67707371D01*
X114999645Y-67651132D01*
X115000000Y-67644518D01*
X115000000Y-66850000D01*
X116500000Y-66850000D01*
X116500000Y-67644518D01*
X116500354Y-67651132D01*
X116506400Y-67707371D01*
X116556647Y-67842089D01*
X116642811Y-67957188D01*
X116757910Y-68043352D01*
X116892628Y-68093599D01*
X116948867Y-68099645D01*
X116955482Y-68100000D01*
X117550000Y-68100000D01*
X117550000Y-66850000D01*
X118050000Y-66850000D01*
X118050000Y-68100000D01*
X118644518Y-68100000D01*
X118651132Y-68099645D01*
X118707371Y-68093599D01*
X118842089Y-68043352D01*
X118957188Y-67957188D01*
X119043352Y-67842089D01*
X119093599Y-67707371D01*
X119099645Y-67651132D01*
X119100000Y-67644518D01*
X119100000Y-66975000D01*
X119975000Y-66975000D01*
X120950000Y-66975000D01*
X120950000Y-66137500D01*
X120678171Y-66137500D01*
X120671888Y-66137821D01*
X120572304Y-66147993D01*
X120405877Y-66203142D01*
X120256654Y-66295183D01*
X120132683Y-66419154D01*
X120040642Y-66568377D01*
X119985493Y-66734803D01*
X119975319Y-66834390D01*
X119975000Y-66840668D01*
X119975000Y-66975000D01*
X119100000Y-66975000D01*
X119100000Y-66850000D01*
X118050000Y-66850000D01*
X117550000Y-66850000D01*
X116500000Y-66850000D01*
X115000000Y-66850000D01*
X113950000Y-66850000D01*
X113450000Y-66850000D01*
X112400000Y-66850000D01*
X109276014Y-66850000D01*
X109209643Y-66758648D01*
X109207595Y-66755741D01*
X108930380Y-66349999D01*
X112399999Y-66349999D01*
X112400000Y-66350000D01*
X113450000Y-66350000D01*
X113450000Y-65100000D01*
X113950000Y-65100000D01*
X113950000Y-66350000D01*
X115000000Y-66350000D01*
X116500000Y-66350000D01*
X117550000Y-66350000D01*
X117550000Y-65100000D01*
X118050000Y-65100000D01*
X118050000Y-66350000D01*
X119100000Y-66350000D01*
X119100000Y-65555481D01*
X119099645Y-65548867D01*
X119093599Y-65492628D01*
X119043352Y-65357910D01*
X118957188Y-65242811D01*
X118842089Y-65156647D01*
X118707371Y-65106400D01*
X118651132Y-65100354D01*
X118644518Y-65100000D01*
X118050000Y-65100000D01*
X117550000Y-65100000D01*
X116955482Y-65100000D01*
X116948867Y-65100354D01*
X116892628Y-65106400D01*
X116757910Y-65156647D01*
X116642811Y-65242811D01*
X116556647Y-65357910D01*
X116506400Y-65492628D01*
X116500354Y-65548867D01*
X116500000Y-65555481D01*
X116500000Y-66350000D01*
X115000000Y-66350000D01*
X115000000Y-65555481D01*
X114999645Y-65548867D01*
X114993599Y-65492628D01*
X114943352Y-65357910D01*
X114857188Y-65242811D01*
X114742089Y-65156647D01*
X114607371Y-65106400D01*
X114551132Y-65100354D01*
X114544518Y-65100000D01*
X113950000Y-65100000D01*
X113450000Y-65100000D01*
X112855482Y-65100000D01*
X112848867Y-65100354D01*
X112792628Y-65106400D01*
X112657910Y-65156647D01*
X112542811Y-65242811D01*
X112456647Y-65357910D01*
X112406400Y-65492628D01*
X112400354Y-65548867D01*
X112400000Y-65555481D01*
X112399999Y-66349999D01*
X108930380Y-66349999D01*
X108913692Y-66325574D01*
X108674553Y-65965640D01*
X108672649Y-65962684D01*
X108545792Y-65759463D01*
X108397225Y-65521464D01*
X108396995Y-65521083D01*
X108172879Y-65151024D01*
X108171162Y-65148097D01*
X108116694Y-65052236D01*
X107914612Y-64696584D01*
X107705480Y-64316176D01*
X107704000Y-64313393D01*
X107466613Y-63852215D01*
X107273312Y-63462814D01*
X107271935Y-63459944D01*
X107054072Y-62989921D01*
X107049284Y-62979166D01*
X106876978Y-62592159D01*
X106875728Y-62589251D01*
X106728273Y-62233263D01*
X112549500Y-62233263D01*
X112559426Y-62301390D01*
X112559426Y-62301391D01*
X112559427Y-62301393D01*
X112583303Y-62350233D01*
X112610802Y-62406484D01*
X112693515Y-62489197D01*
X112693516Y-62489197D01*
X112693517Y-62489198D01*
X112798607Y-62540573D01*
X112825860Y-62544543D01*
X112866737Y-62550500D01*
X112866740Y-62550500D01*
X114533263Y-62550500D01*
X114567326Y-62545536D01*
X114601393Y-62540573D01*
X114706483Y-62489198D01*
X114789198Y-62406483D01*
X114840573Y-62301393D01*
X114846770Y-62258862D01*
X114850500Y-62233263D01*
X114850500Y-60773321D01*
X114870185Y-60706282D01*
X114886819Y-60685640D01*
X120060640Y-55511819D01*
X120121963Y-55478334D01*
X120148321Y-55475500D01*
X121462771Y-55475500D01*
X121529810Y-55495185D01*
X121550452Y-55511819D01*
X121629110Y-55590477D01*
X121772310Y-55680456D01*
X121931941Y-55736313D01*
X122100000Y-55755249D01*
X122268059Y-55736313D01*
X122427690Y-55680456D01*
X122570890Y-55590477D01*
X122690477Y-55470890D01*
X122780456Y-55327690D01*
X122836313Y-55168059D01*
X122855249Y-55000000D01*
X122836313Y-54831941D01*
X122780456Y-54672310D01*
X122690477Y-54529110D01*
X122570890Y-54409523D01*
X122427690Y-54319544D01*
X122268059Y-54263687D01*
X122268058Y-54263686D01*
X122268056Y-54263686D01*
X122099999Y-54244750D01*
X121931943Y-54263686D01*
X121772310Y-54319544D01*
X121629108Y-54409524D01*
X121550452Y-54488181D01*
X121489129Y-54521666D01*
X121462771Y-54524500D01*
X119964459Y-54524500D01*
X119938100Y-54521666D01*
X119934271Y-54520833D01*
X119887425Y-54524184D01*
X119878578Y-54524500D01*
X119865988Y-54524500D01*
X119853509Y-54526293D01*
X119844725Y-54527237D01*
X119797883Y-54530589D01*
X119794212Y-54531958D01*
X119768535Y-54538511D01*
X119764657Y-54539068D01*
X119721944Y-54558574D01*
X119713770Y-54561960D01*
X119669773Y-54578370D01*
X119666630Y-54580723D01*
X119643857Y-54594235D01*
X119640284Y-54595867D01*
X119604800Y-54626613D01*
X119597921Y-54632158D01*
X119587818Y-54639722D01*
X119578898Y-54648641D01*
X119572429Y-54654663D01*
X119536944Y-54685411D01*
X119534825Y-54688709D01*
X119518194Y-54709345D01*
X114414360Y-59813181D01*
X114353037Y-59846666D01*
X114326679Y-59849500D01*
X112866737Y-59849500D01*
X112798609Y-59859426D01*
X112693515Y-59910802D01*
X112610802Y-59993515D01*
X112559426Y-60098609D01*
X112549500Y-60166736D01*
X112549500Y-62233263D01*
X106728273Y-62233263D01*
X106677701Y-62111170D01*
X106659245Y-62064556D01*
X106517193Y-61705774D01*
X106516105Y-61702920D01*
X106338131Y-61217411D01*
X106320970Y-61168132D01*
X106194606Y-60805264D01*
X106193625Y-60802326D01*
X106184333Y-60773321D01*
X106036013Y-60310336D01*
X105981712Y-60130481D01*
X105909735Y-59892082D01*
X105908924Y-59889273D01*
X105771834Y-59391389D01*
X105729333Y-59225858D01*
X105663092Y-58967866D01*
X105662411Y-58965072D01*
X105546082Y-58462251D01*
X105513582Y-58309349D01*
X105463769Y-58075000D01*
X109044529Y-58075000D01*
X109107685Y-58245530D01*
X109209890Y-58409501D01*
X109343003Y-58549535D01*
X109501585Y-58659912D01*
X109679137Y-58736106D01*
X109868395Y-58775000D01*
X110115000Y-58775000D01*
X110115000Y-58125000D01*
X110615000Y-58125000D01*
X110615000Y-58775000D01*
X110810033Y-58775000D01*
X110816298Y-58774682D01*
X110957222Y-58760351D01*
X111141569Y-58702511D01*
X111310503Y-58608746D01*
X111457104Y-58482894D01*
X111575368Y-58330109D01*
X111660458Y-58156641D01*
X111681597Y-58075000D01*
X110931111Y-58075000D01*
X110970610Y-58050543D01*
X111038201Y-57961038D01*
X111068895Y-57853160D01*
X111058546Y-57741479D01*
X111008552Y-57641078D01*
X110936069Y-57575000D01*
X111685471Y-57575000D01*
X111685471Y-57574999D01*
X111622314Y-57404469D01*
X111520109Y-57240498D01*
X111386996Y-57100464D01*
X111228414Y-56990087D01*
X111050862Y-56913893D01*
X110861605Y-56875000D01*
X110615000Y-56875000D01*
X110615000Y-57525000D01*
X110115000Y-57525000D01*
X110115000Y-56875000D01*
X109919967Y-56875000D01*
X109913701Y-56875317D01*
X109772777Y-56889648D01*
X109588430Y-56947488D01*
X109419496Y-57041253D01*
X109272895Y-57167105D01*
X109154631Y-57319890D01*
X109069541Y-57493358D01*
X109048403Y-57575000D01*
X109798889Y-57575000D01*
X109759390Y-57599457D01*
X109691799Y-57688962D01*
X109661105Y-57796840D01*
X109671454Y-57908521D01*
X109721448Y-58008922D01*
X109793931Y-58075000D01*
X109044529Y-58075000D01*
X105463769Y-58075000D01*
X105455112Y-58034274D01*
X105454546Y-58031447D01*
X105440283Y-57955659D01*
X105381082Y-57641078D01*
X105359139Y-57524477D01*
X105352887Y-57487511D01*
X105286103Y-57092664D01*
X105285715Y-57090203D01*
X105211337Y-56579706D01*
X105156426Y-56145036D01*
X105156132Y-56142479D01*
X105102938Y-55629567D01*
X105066263Y-55192812D01*
X105066083Y-55190357D01*
X105034205Y-54676889D01*
X105034083Y-54674546D01*
X105016813Y-54262500D01*
X109825001Y-54262500D01*
X109825001Y-54308497D01*
X109825321Y-54314779D01*
X109835318Y-54412650D01*
X109889546Y-54576301D01*
X109980056Y-54723040D01*
X110101959Y-54844943D01*
X110248698Y-54935453D01*
X110412348Y-54989681D01*
X110510203Y-54999678D01*
X110516519Y-54999999D01*
X110549999Y-54999999D01*
X110550000Y-54262500D01*
X111050000Y-54262500D01*
X111050000Y-54999999D01*
X111083497Y-54999999D01*
X111089779Y-54999678D01*
X111187650Y-54989681D01*
X111351301Y-54935453D01*
X111498040Y-54844943D01*
X111619943Y-54723040D01*
X111710453Y-54576301D01*
X111764681Y-54412651D01*
X111774680Y-54314777D01*
X111775000Y-54308499D01*
X111775000Y-54262500D01*
X111050000Y-54262500D01*
X110550000Y-54262500D01*
X109825001Y-54262500D01*
X105016813Y-54262500D01*
X105015777Y-54237770D01*
X105015699Y-54235291D01*
X105005926Y-53762500D01*
X109825000Y-53762500D01*
X111774999Y-53762500D01*
X111774999Y-53716502D01*
X111774678Y-53710220D01*
X111764681Y-53612349D01*
X111710453Y-53448698D01*
X111619943Y-53301959D01*
X111498040Y-53180056D01*
X111394801Y-53116378D01*
X111348077Y-53064430D01*
X111336854Y-52995467D01*
X111364698Y-52931385D01*
X111384412Y-52912463D01*
X111392670Y-52906127D01*
X111456867Y-52856867D01*
X111522839Y-52770890D01*
X111539625Y-52749014D01*
X111596052Y-52707811D01*
X111638001Y-52700500D01*
X112588199Y-52700500D01*
X112655238Y-52720185D01*
X112700993Y-52772989D01*
X112710937Y-52842147D01*
X112704141Y-52868470D01*
X112689860Y-52906125D01*
X112669354Y-53074999D01*
X112689860Y-53243872D01*
X112750182Y-53402930D01*
X112768563Y-53429560D01*
X112790446Y-53495915D01*
X112772980Y-53563567D01*
X112768563Y-53570440D01*
X112750182Y-53597069D01*
X112689860Y-53756127D01*
X112669354Y-53924999D01*
X112689860Y-54093872D01*
X112750182Y-54252930D01*
X112768562Y-54279558D01*
X112790446Y-54345913D01*
X112772981Y-54413564D01*
X112768564Y-54420437D01*
X112750182Y-54447067D01*
X112689860Y-54606127D01*
X112669354Y-54775000D01*
X112689860Y-54943872D01*
X112750182Y-55102930D01*
X112768562Y-55129558D01*
X112790446Y-55195913D01*
X112772981Y-55263564D01*
X112768564Y-55270437D01*
X112750182Y-55297067D01*
X112689860Y-55456127D01*
X112669354Y-55624999D01*
X112689860Y-55793874D01*
X112708867Y-55843992D01*
X112714234Y-55913655D01*
X112689982Y-55961297D01*
X112690064Y-55961345D01*
X112689168Y-55962895D01*
X112685080Y-55970928D01*
X112683550Y-55972627D01*
X112594208Y-56127369D01*
X112538995Y-56297300D01*
X112520318Y-56475000D01*
X112538995Y-56652699D01*
X112598236Y-56835025D01*
X112595900Y-56835783D01*
X112608094Y-56886059D01*
X112585238Y-56952085D01*
X112544413Y-56988570D01*
X112449495Y-57041254D01*
X112302895Y-57167105D01*
X112184631Y-57319890D01*
X112099541Y-57493358D01*
X112078403Y-57575000D01*
X112828889Y-57575000D01*
X112789390Y-57599457D01*
X112721799Y-57688962D01*
X112691105Y-57796840D01*
X112701454Y-57908521D01*
X112751448Y-58008922D01*
X112823931Y-58075000D01*
X112074529Y-58075000D01*
X112137685Y-58245530D01*
X112239890Y-58409501D01*
X112373003Y-58549535D01*
X112531585Y-58659912D01*
X112709137Y-58736106D01*
X112898395Y-58775000D01*
X113495000Y-58775000D01*
X113495000Y-58125000D01*
X113995000Y-58125000D01*
X113995000Y-58775000D01*
X114540033Y-58775000D01*
X114546298Y-58774682D01*
X114687222Y-58760351D01*
X114871569Y-58702511D01*
X115040503Y-58608746D01*
X115187104Y-58482894D01*
X115305368Y-58330109D01*
X115390458Y-58156641D01*
X115411597Y-58075000D01*
X114661111Y-58075000D01*
X114700610Y-58050543D01*
X114768201Y-57961038D01*
X114798895Y-57853160D01*
X114788546Y-57741479D01*
X114738552Y-57641078D01*
X114666069Y-57575000D01*
X115415471Y-57575000D01*
X115415471Y-57574999D01*
X115352314Y-57404469D01*
X115250109Y-57240498D01*
X115186445Y-57173523D01*
X115154525Y-57111372D01*
X115161273Y-57041829D01*
X115194091Y-56995278D01*
X115253183Y-56942929D01*
X115349818Y-56802930D01*
X115410140Y-56643872D01*
X115430645Y-56475000D01*
X115410140Y-56306128D01*
X115349818Y-56147070D01*
X115336219Y-56127369D01*
X115331436Y-56120439D01*
X115309553Y-56054085D01*
X115327018Y-55986433D01*
X115331432Y-55979565D01*
X115349818Y-55952930D01*
X115410140Y-55793872D01*
X115430645Y-55625000D01*
X115410140Y-55456128D01*
X115400000Y-55429390D01*
X115395859Y-55418470D01*
X115390492Y-55348807D01*
X115423640Y-55287301D01*
X115484779Y-55253480D01*
X115511801Y-55250500D01*
X116121072Y-55250500D01*
X116188111Y-55270185D01*
X116233866Y-55322989D01*
X116235619Y-55327015D01*
X116248883Y-55359037D01*
X116248884Y-55359038D01*
X116343132Y-55481867D01*
X116439572Y-55555867D01*
X116465963Y-55576117D01*
X116609001Y-55635365D01*
X116723960Y-55650500D01*
X116728013Y-55650500D01*
X117271987Y-55650500D01*
X117276040Y-55650500D01*
X117390999Y-55635365D01*
X117534037Y-55576117D01*
X117656867Y-55481867D01*
X117751117Y-55359037D01*
X117810365Y-55215999D01*
X117825500Y-55101040D01*
X117825500Y-54523960D01*
X117810365Y-54409001D01*
X117751117Y-54265963D01*
X117727525Y-54235217D01*
X117656867Y-54143132D01*
X117584412Y-54087536D01*
X117543209Y-54031108D01*
X117539054Y-53961362D01*
X117573266Y-53900442D01*
X117594802Y-53883621D01*
X117698039Y-53819944D01*
X117819943Y-53698040D01*
X117910453Y-53551301D01*
X117964681Y-53387651D01*
X117974680Y-53289777D01*
X117975000Y-53283499D01*
X117975000Y-53237500D01*
X116025001Y-53237500D01*
X116025001Y-53283497D01*
X116025321Y-53289779D01*
X116035318Y-53387650D01*
X116089546Y-53551301D01*
X116180056Y-53698040D01*
X116301959Y-53819943D01*
X116405198Y-53883621D01*
X116451922Y-53935569D01*
X116463145Y-54004531D01*
X116435301Y-54068614D01*
X116415588Y-54087535D01*
X116343133Y-54143131D01*
X116260375Y-54250986D01*
X116203948Y-54292189D01*
X116161999Y-54299500D01*
X115511801Y-54299500D01*
X115444762Y-54279815D01*
X115399007Y-54227011D01*
X115389063Y-54157853D01*
X115395859Y-54131530D01*
X115410139Y-54093874D01*
X115410138Y-54093874D01*
X115410140Y-54093872D01*
X115430645Y-53925000D01*
X115410140Y-53756128D01*
X115349818Y-53597070D01*
X115331437Y-53570441D01*
X115309553Y-53504087D01*
X115327018Y-53436435D01*
X115331437Y-53429559D01*
X115332481Y-53428046D01*
X115349818Y-53402930D01*
X115410140Y-53243872D01*
X115430645Y-53075000D01*
X115410140Y-52906128D01*
X115349818Y-52747070D01*
X115343212Y-52737500D01*
X116025000Y-52737500D01*
X116750000Y-52737500D01*
X116750000Y-52000000D01*
X117250000Y-52000000D01*
X117250000Y-52737500D01*
X117974999Y-52737500D01*
X117974999Y-52691502D01*
X117974678Y-52685220D01*
X117964681Y-52587349D01*
X117910453Y-52423698D01*
X117819943Y-52276959D01*
X117698040Y-52155056D01*
X117551301Y-52064546D01*
X117387651Y-52010318D01*
X117289777Y-52000319D01*
X117283500Y-52000000D01*
X117250000Y-52000000D01*
X116750000Y-52000000D01*
X116716504Y-52000000D01*
X116710219Y-52000321D01*
X116612349Y-52010318D01*
X116448698Y-52064546D01*
X116301959Y-52155056D01*
X116180056Y-52276959D01*
X116089546Y-52423698D01*
X116035318Y-52587348D01*
X116025319Y-52685222D01*
X116025000Y-52691500D01*
X116025000Y-52737500D01*
X115343212Y-52737500D01*
X115331436Y-52720439D01*
X115309553Y-52654085D01*
X115327018Y-52586433D01*
X115331432Y-52579565D01*
X115349818Y-52552930D01*
X115351102Y-52549546D01*
X115388961Y-52449717D01*
X115410140Y-52393872D01*
X115430645Y-52225000D01*
X115410140Y-52056128D01*
X115349818Y-51897070D01*
X115331436Y-51870439D01*
X115309553Y-51804085D01*
X115327018Y-51736433D01*
X115331432Y-51729565D01*
X115349818Y-51702930D01*
X115358063Y-51681191D01*
X115395872Y-51581494D01*
X115410140Y-51543872D01*
X115430645Y-51375000D01*
X115410140Y-51206128D01*
X115391131Y-51156007D01*
X115385765Y-51086345D01*
X115410019Y-51038704D01*
X115409936Y-51038656D01*
X115410846Y-51037079D01*
X115414930Y-51029058D01*
X115416455Y-51027364D01*
X115505791Y-50872630D01*
X115561004Y-50702699D01*
X115579681Y-50525000D01*
X115561004Y-50347300D01*
X115505791Y-50177371D01*
X115476651Y-50126900D01*
X114954975Y-50648577D01*
X114893652Y-50682062D01*
X114849583Y-50681457D01*
X114885387Y-50652905D01*
X114925000Y-50570649D01*
X114925000Y-50479351D01*
X114885387Y-50397095D01*
X114814008Y-50340173D01*
X114747532Y-50325000D01*
X114702468Y-50325000D01*
X114635992Y-50340173D01*
X114564613Y-50397095D01*
X114525000Y-50479351D01*
X114525000Y-50570649D01*
X114564613Y-50652905D01*
X114599501Y-50680727D01*
X114542575Y-50678223D01*
X114495024Y-50648577D01*
X114459127Y-50612680D01*
X114425642Y-50551357D01*
X114430626Y-50481665D01*
X114459127Y-50437318D01*
X115089867Y-49806579D01*
X115151190Y-49773094D01*
X115196372Y-49776325D01*
X115232673Y-49774023D01*
X115305368Y-49680109D01*
X115390458Y-49506640D01*
X115411597Y-49425000D01*
X114661111Y-49425000D01*
X114700610Y-49400543D01*
X114768201Y-49311038D01*
X114798895Y-49203160D01*
X114788546Y-49091479D01*
X114738552Y-48991078D01*
X114666069Y-48925000D01*
X115415471Y-48925000D01*
X115415471Y-48924999D01*
X115352314Y-48754469D01*
X115250109Y-48590498D01*
X115116996Y-48450464D01*
X114958414Y-48340087D01*
X114780862Y-48263893D01*
X114591605Y-48225000D01*
X113995000Y-48225000D01*
X113995000Y-48875000D01*
X113495000Y-48875000D01*
X113495000Y-48225000D01*
X112949967Y-48225000D01*
X112943701Y-48225317D01*
X112802777Y-48239648D01*
X112618430Y-48297488D01*
X112449496Y-48391253D01*
X112302895Y-48517105D01*
X112184631Y-48669890D01*
X112099541Y-48843358D01*
X112078403Y-48925000D01*
X112828889Y-48925000D01*
X112789390Y-48949457D01*
X112721799Y-49038962D01*
X112691105Y-49146840D01*
X112701454Y-49258521D01*
X112751448Y-49358922D01*
X112823931Y-49425000D01*
X112074529Y-49425000D01*
X112137685Y-49595530D01*
X112239890Y-49759501D01*
X112373003Y-49899535D01*
X112531584Y-50009911D01*
X112671463Y-50069939D01*
X112725306Y-50114466D01*
X112746529Y-50181035D01*
X112738504Y-50227860D01*
X112689860Y-50356125D01*
X112669354Y-50525000D01*
X112689860Y-50693872D01*
X112750182Y-50852930D01*
X112768562Y-50879558D01*
X112790446Y-50945913D01*
X112772981Y-51013564D01*
X112768564Y-51020437D01*
X112750182Y-51047067D01*
X112689860Y-51206127D01*
X112669354Y-51375000D01*
X112689860Y-51543874D01*
X112704141Y-51581530D01*
X112709508Y-51651193D01*
X112676360Y-51712699D01*
X112615221Y-51746520D01*
X112588199Y-51749500D01*
X111678928Y-51749500D01*
X111611889Y-51729815D01*
X111566134Y-51677011D01*
X111564380Y-51672984D01*
X111551117Y-51640963D01*
X111505485Y-51581494D01*
X111456867Y-51518132D01*
X111334036Y-51423882D01*
X111191000Y-51364635D01*
X111080058Y-51350029D01*
X111076040Y-51349500D01*
X110523960Y-51349500D01*
X110519942Y-51350028D01*
X110519941Y-51350029D01*
X110408999Y-51364635D01*
X110265963Y-51423882D01*
X110143132Y-51518132D01*
X110048882Y-51640963D01*
X109989635Y-51783999D01*
X109975029Y-51894941D01*
X109974500Y-51898960D01*
X109974500Y-52476040D01*
X109975029Y-52480058D01*
X109989635Y-52591000D01*
X110048882Y-52734036D01*
X110143132Y-52856867D01*
X110215587Y-52912463D01*
X110256790Y-52968891D01*
X110260945Y-53038637D01*
X110226733Y-53099557D01*
X110205198Y-53116377D01*
X110101961Y-53180054D01*
X109980056Y-53301959D01*
X109889546Y-53448698D01*
X109835318Y-53612348D01*
X109825319Y-53710222D01*
X109825000Y-53716500D01*
X109825000Y-53762500D01*
X105005926Y-53762500D01*
X105005070Y-53721079D01*
X105005044Y-53718517D01*
X105005044Y-53281481D01*
X105005070Y-53278919D01*
X105006083Y-53229890D01*
X105015699Y-52764702D01*
X105015777Y-52762235D01*
X105034084Y-52325442D01*
X105034204Y-52323119D01*
X105066083Y-51809655D01*
X105066267Y-51807131D01*
X105102939Y-51370419D01*
X105156134Y-50857500D01*
X105156434Y-50854897D01*
X105211333Y-50420323D01*
X105285721Y-49909754D01*
X105286096Y-49907376D01*
X105359142Y-49475504D01*
X105368646Y-49425000D01*
X109044529Y-49425000D01*
X109107685Y-49595530D01*
X109209890Y-49759501D01*
X109343003Y-49899535D01*
X109501585Y-50009912D01*
X109679137Y-50086106D01*
X109868395Y-50125000D01*
X110115000Y-50125000D01*
X110115000Y-49475000D01*
X110615000Y-49475000D01*
X110615000Y-50125000D01*
X110810033Y-50125000D01*
X110816298Y-50124682D01*
X110957222Y-50110351D01*
X111141569Y-50052511D01*
X111310503Y-49958746D01*
X111457104Y-49832894D01*
X111575368Y-49680109D01*
X111660458Y-49506641D01*
X111681597Y-49425000D01*
X110931111Y-49425000D01*
X110970610Y-49400543D01*
X111038201Y-49311038D01*
X111068895Y-49203160D01*
X111058546Y-49091479D01*
X111008552Y-48991078D01*
X110936069Y-48925000D01*
X111685471Y-48925000D01*
X111685471Y-48924999D01*
X111622314Y-48754469D01*
X111520109Y-48590498D01*
X111386996Y-48450464D01*
X111228414Y-48340087D01*
X111050862Y-48263893D01*
X110861605Y-48225000D01*
X110615000Y-48225000D01*
X110615000Y-48875000D01*
X110115000Y-48875000D01*
X110115000Y-48225000D01*
X109919967Y-48225000D01*
X109913701Y-48225317D01*
X109772777Y-48239648D01*
X109588430Y-48297488D01*
X109419496Y-48391253D01*
X109272895Y-48517105D01*
X109154631Y-48669890D01*
X109069541Y-48843358D01*
X109048403Y-48925000D01*
X109798889Y-48925000D01*
X109759390Y-48949457D01*
X109691799Y-49038962D01*
X109661105Y-49146840D01*
X109671454Y-49258521D01*
X109721448Y-49358922D01*
X109793931Y-49425000D01*
X109044529Y-49425000D01*
X105368646Y-49425000D01*
X105454555Y-48968504D01*
X105455116Y-48965709D01*
X105546076Y-48537772D01*
X105662418Y-48034896D01*
X105663115Y-48032043D01*
X105771837Y-47608599D01*
X105908931Y-47110703D01*
X105909722Y-47107960D01*
X106036015Y-46689659D01*
X106193651Y-46197591D01*
X106194590Y-46194783D01*
X106338130Y-45782589D01*
X106448572Y-45481308D01*
X106490123Y-45425150D01*
X106555450Y-45400367D01*
X106564988Y-45400000D01*
X115117909Y-45400000D01*
X115184948Y-45419685D01*
X115230703Y-45472489D01*
X115232056Y-45475562D01*
X115596087Y-46333634D01*
X117999999Y-51999999D01*
X118000000Y-52000000D01*
X118000001Y-52000000D01*
X125955076Y-52000000D01*
X126022115Y-52019685D01*
X126067870Y-52072489D01*
X126077814Y-52141647D01*
X126072118Y-52164954D01*
X126013686Y-52331943D01*
X125994750Y-52500000D01*
X126013686Y-52668056D01*
X126013686Y-52668058D01*
X126013687Y-52668059D01*
X126069544Y-52827690D01*
X126159523Y-52970890D01*
X126279110Y-53090477D01*
X126422310Y-53180456D01*
X126581941Y-53236313D01*
X126693980Y-53248936D01*
X126749999Y-53255249D01*
X126749999Y-53255248D01*
X126750000Y-53255249D01*
X126918059Y-53236313D01*
X127077690Y-53180456D01*
X127220890Y-53090477D01*
X127299547Y-53011819D01*
X127360871Y-52978334D01*
X127387229Y-52975500D01*
X128046000Y-52975500D01*
X128113039Y-52995185D01*
X128158794Y-53047989D01*
X128170000Y-53099500D01*
X128169999Y-53579999D01*
X128170000Y-53580000D01*
X129086314Y-53580000D01*
X129060507Y-53620156D01*
X129020000Y-53758111D01*
X129020000Y-53901889D01*
X129060507Y-54039844D01*
X129086314Y-54080000D01*
X128170000Y-54080000D01*
X128170000Y-54724518D01*
X128170354Y-54731132D01*
X128176400Y-54787371D01*
X128226647Y-54922089D01*
X128312811Y-55037188D01*
X128427910Y-55123352D01*
X128562628Y-55173599D01*
X128618867Y-55179645D01*
X128625482Y-55180000D01*
X129270000Y-55180000D01*
X129270000Y-54265501D01*
X129377685Y-54314680D01*
X129484237Y-54330000D01*
X129555763Y-54330000D01*
X129662315Y-54314680D01*
X129770000Y-54265501D01*
X129770000Y-55180000D01*
X130414518Y-55180000D01*
X130421132Y-55179645D01*
X130477371Y-55173599D01*
X130612089Y-55123352D01*
X130727188Y-55037188D01*
X130813352Y-54922089D01*
X130863599Y-54787371D01*
X130869645Y-54731132D01*
X130870000Y-54724518D01*
X130870000Y-54616236D01*
X130889685Y-54549197D01*
X130942489Y-54503442D01*
X131011647Y-54493498D01*
X131075203Y-54522523D01*
X131092954Y-54541510D01*
X131169017Y-54642235D01*
X131333437Y-54792124D01*
X131522595Y-54909245D01*
X131522597Y-54909245D01*
X131522599Y-54909247D01*
X131730060Y-54989618D01*
X131948757Y-55030500D01*
X131948759Y-55030500D01*
X132171241Y-55030500D01*
X132171243Y-55030500D01*
X132389940Y-54989618D01*
X132427915Y-54974905D01*
X132497536Y-54969042D01*
X132559277Y-55001750D01*
X132560391Y-55002850D01*
X132830360Y-55272819D01*
X132863845Y-55334142D01*
X132858861Y-55403834D01*
X132816989Y-55459767D01*
X132751525Y-55484184D01*
X132742679Y-55484500D01*
X124854459Y-55484500D01*
X124828100Y-55481666D01*
X124824271Y-55480833D01*
X124777425Y-55484184D01*
X124768578Y-55484500D01*
X124755988Y-55484500D01*
X124743509Y-55486293D01*
X124734725Y-55487237D01*
X124687883Y-55490589D01*
X124684212Y-55491958D01*
X124658535Y-55498511D01*
X124654657Y-55499068D01*
X124611944Y-55518574D01*
X124603770Y-55521960D01*
X124559773Y-55538370D01*
X124556630Y-55540723D01*
X124533857Y-55554235D01*
X124530284Y-55555867D01*
X124494800Y-55586613D01*
X124487921Y-55592158D01*
X124477818Y-55599722D01*
X124468898Y-55608641D01*
X124462429Y-55614663D01*
X124426944Y-55645411D01*
X124424825Y-55648709D01*
X124408194Y-55669345D01*
X119389360Y-60688181D01*
X119328037Y-60721666D01*
X119301679Y-60724500D01*
X119074500Y-60724500D01*
X119007461Y-60704815D01*
X118961706Y-60652011D01*
X118950500Y-60600500D01*
X118950500Y-60166736D01*
X118942767Y-60113663D01*
X118940573Y-60098607D01*
X118889198Y-59993517D01*
X118889197Y-59993516D01*
X118889197Y-59993515D01*
X118806484Y-59910802D01*
X118748860Y-59882632D01*
X118701393Y-59859427D01*
X118701391Y-59859426D01*
X118701390Y-59859426D01*
X118633263Y-59849500D01*
X118633260Y-59849500D01*
X116966740Y-59849500D01*
X116966737Y-59849500D01*
X116898609Y-59859426D01*
X116793515Y-59910802D01*
X116710802Y-59993515D01*
X116659426Y-60098609D01*
X116649500Y-60166736D01*
X116649500Y-62233263D01*
X116659426Y-62301390D01*
X116659426Y-62301391D01*
X116659427Y-62301393D01*
X116683303Y-62350233D01*
X116710802Y-62406484D01*
X116793515Y-62489197D01*
X116793516Y-62489197D01*
X116793517Y-62489198D01*
X116898607Y-62540573D01*
X116925860Y-62544543D01*
X116966737Y-62550500D01*
X116966740Y-62550500D01*
X118633263Y-62550500D01*
X118667326Y-62545536D01*
X118701393Y-62540573D01*
X118806483Y-62489198D01*
X118889198Y-62406483D01*
X118940573Y-62301393D01*
X118946770Y-62258862D01*
X118950500Y-62233263D01*
X118950500Y-61799500D01*
X118970185Y-61732461D01*
X119022989Y-61686706D01*
X119074500Y-61675500D01*
X119485541Y-61675500D01*
X119511899Y-61678333D01*
X119515729Y-61679167D01*
X119562575Y-61675815D01*
X119571422Y-61675500D01*
X119584011Y-61675500D01*
X119596485Y-61673706D01*
X119605269Y-61672761D01*
X119652115Y-61669411D01*
X119654488Y-61668525D01*
X119655778Y-61668045D01*
X119681465Y-61661488D01*
X119685342Y-61660931D01*
X119728072Y-61641415D01*
X119736207Y-61638045D01*
X119780226Y-61621629D01*
X119783361Y-61619281D01*
X119806153Y-61605757D01*
X119809718Y-61604130D01*
X119845203Y-61573380D01*
X119852084Y-61567835D01*
X119862180Y-61560279D01*
X119862184Y-61560275D01*
X119871083Y-61551376D01*
X119877566Y-61545340D01*
X119913052Y-61514592D01*
X119913052Y-61514591D01*
X119913055Y-61514589D01*
X119915173Y-61511292D01*
X119931803Y-61490654D01*
X120372726Y-61049731D01*
X120434047Y-61016248D01*
X120442648Y-61016863D01*
X120462270Y-60962280D01*
X120474726Y-60947731D01*
X120597457Y-60825000D01*
X125450000Y-60825000D01*
X126450000Y-60825000D01*
X126450000Y-59675000D01*
X125905482Y-59675000D01*
X125898867Y-59675354D01*
X125842628Y-59681400D01*
X125707910Y-59731647D01*
X125592811Y-59817811D01*
X125506647Y-59932910D01*
X125456400Y-60067628D01*
X125450354Y-60123867D01*
X125450000Y-60130481D01*
X125450000Y-60825000D01*
X120597457Y-60825000D01*
X124950639Y-56471819D01*
X125011963Y-56438334D01*
X125038321Y-56435500D01*
X129607013Y-56435500D01*
X129674052Y-56455185D01*
X129719807Y-56507989D01*
X129729751Y-56577147D01*
X129705967Y-56634227D01*
X129674941Y-56675311D01*
X129575769Y-56874473D01*
X129514885Y-57088462D01*
X129513773Y-57100464D01*
X129494357Y-57310000D01*
X129501018Y-57381889D01*
X129514885Y-57531537D01*
X129575769Y-57745526D01*
X129674941Y-57944688D01*
X129809019Y-58122237D01*
X129973437Y-58272124D01*
X130162595Y-58389245D01*
X130162597Y-58389245D01*
X130162599Y-58389247D01*
X130370060Y-58469618D01*
X130588757Y-58510500D01*
X130588759Y-58510500D01*
X130811241Y-58510500D01*
X130811243Y-58510500D01*
X131029940Y-58469618D01*
X131067915Y-58454905D01*
X131137536Y-58449042D01*
X131199277Y-58481750D01*
X131200391Y-58482850D01*
X132058193Y-59340652D01*
X132074825Y-59361291D01*
X132076945Y-59364589D01*
X132112451Y-59395354D01*
X132118914Y-59401373D01*
X132127815Y-59410275D01*
X132127818Y-59410277D01*
X132127820Y-59410279D01*
X132137916Y-59417837D01*
X132144787Y-59423374D01*
X132180282Y-59454130D01*
X132183588Y-59455639D01*
X132183840Y-59455755D01*
X132206635Y-59469280D01*
X132209773Y-59471629D01*
X132253760Y-59488034D01*
X132261943Y-59491424D01*
X132304652Y-59510929D01*
X132304654Y-59510929D01*
X132304658Y-59510931D01*
X132308531Y-59511487D01*
X132334216Y-59518043D01*
X132337886Y-59519412D01*
X132384732Y-59522762D01*
X132393525Y-59523708D01*
X132405986Y-59525500D01*
X132405989Y-59525500D01*
X132418574Y-59525500D01*
X132427420Y-59525815D01*
X132474271Y-59529167D01*
X132478100Y-59528333D01*
X132504459Y-59525500D01*
X133210732Y-59525500D01*
X133277771Y-59545185D01*
X133323526Y-59597989D01*
X133333470Y-59667147D01*
X133304445Y-59730703D01*
X133285042Y-59748767D01*
X133216914Y-59799767D01*
X133151450Y-59824184D01*
X133142604Y-59824500D01*
X131616737Y-59824500D01*
X131548605Y-59834426D01*
X131504458Y-59856008D01*
X131435585Y-59867766D01*
X131395542Y-59856008D01*
X131351394Y-59834426D01*
X131283263Y-59824500D01*
X131283260Y-59824500D01*
X129716740Y-59824500D01*
X129716737Y-59824500D01*
X129648608Y-59834426D01*
X129604457Y-59856009D01*
X129535583Y-59867766D01*
X129495540Y-59856008D01*
X129451392Y-59834426D01*
X129383263Y-59824500D01*
X129383260Y-59824500D01*
X127857396Y-59824500D01*
X127790357Y-59804815D01*
X127783085Y-59799767D01*
X127692089Y-59731647D01*
X127557371Y-59681400D01*
X127501132Y-59675354D01*
X127494518Y-59675000D01*
X126950000Y-59675000D01*
X126950000Y-61201000D01*
X126930315Y-61268039D01*
X126877511Y-61313794D01*
X126826000Y-61325000D01*
X125450000Y-61325000D01*
X125450000Y-61900500D01*
X125430315Y-61967539D01*
X125377511Y-62013294D01*
X125326000Y-62024500D01*
X122199500Y-62024500D01*
X122132461Y-62004815D01*
X122086706Y-61952011D01*
X122075500Y-61900500D01*
X122075500Y-61553013D01*
X122075500Y-61548960D01*
X122060365Y-61434001D01*
X122001117Y-61290963D01*
X121993259Y-61280722D01*
X121906867Y-61168132D01*
X121784036Y-61073882D01*
X121641000Y-61014635D01*
X121530058Y-61000029D01*
X121526040Y-60999500D01*
X120973960Y-60999500D01*
X120969942Y-61000028D01*
X120969941Y-61000029D01*
X120858999Y-61014635D01*
X120715963Y-61073882D01*
X120637899Y-61133782D01*
X120577909Y-61156972D01*
X120569237Y-61196841D01*
X120558782Y-61212899D01*
X120498882Y-61290963D01*
X120439635Y-61433999D01*
X120439634Y-61434001D01*
X120439635Y-61434001D01*
X120424500Y-61548960D01*
X120424500Y-62126040D01*
X120425029Y-62130058D01*
X120439635Y-62241000D01*
X120498882Y-62384036D01*
X120593132Y-62506867D01*
X120715963Y-62601117D01*
X120798823Y-62635439D01*
X120853227Y-62679280D01*
X120875292Y-62745574D01*
X120858013Y-62813273D01*
X120806876Y-62860884D01*
X120798823Y-62864561D01*
X120715963Y-62898882D01*
X120593132Y-62993132D01*
X120498882Y-63115963D01*
X120439635Y-63258999D01*
X120439634Y-63259001D01*
X120439635Y-63259001D01*
X120424500Y-63373960D01*
X120424500Y-63951040D01*
X120425029Y-63955058D01*
X120439635Y-64066000D01*
X120498882Y-64209036D01*
X120593132Y-64331867D01*
X120715962Y-64426116D01*
X120715963Y-64426117D01*
X120859001Y-64485365D01*
X120973960Y-64500500D01*
X121364179Y-64500500D01*
X121431218Y-64520185D01*
X121451860Y-64536819D01*
X122613181Y-65698140D01*
X122646666Y-65759463D01*
X122649500Y-65785821D01*
X122649500Y-66558263D01*
X122659426Y-66626392D01*
X122681008Y-66670540D01*
X122692766Y-66739413D01*
X122681009Y-66779457D01*
X122654989Y-66832685D01*
X122607862Y-66884268D01*
X122540329Y-66902184D01*
X122473829Y-66880745D01*
X122429478Y-66826757D01*
X122420229Y-66790828D01*
X122414506Y-66734804D01*
X122359357Y-66568377D01*
X122267316Y-66419154D01*
X122143345Y-66295183D01*
X121994122Y-66203142D01*
X121827696Y-66147993D01*
X121728109Y-66137819D01*
X121721832Y-66137500D01*
X121450000Y-66137500D01*
X121450000Y-67351000D01*
X121430315Y-67418039D01*
X121377511Y-67463794D01*
X121326000Y-67475000D01*
X119975001Y-67475000D01*
X119975001Y-67609329D01*
X119975321Y-67615611D01*
X119985493Y-67715195D01*
X120040642Y-67881622D01*
X120132683Y-68030845D01*
X120256653Y-68154815D01*
X120399890Y-68243164D01*
X120446614Y-68295112D01*
X120457837Y-68364075D01*
X120429993Y-68428157D01*
X120410279Y-68447079D01*
X120296717Y-68534217D01*
X120200463Y-68659659D01*
X120139956Y-68805737D01*
X120125686Y-68914133D01*
X120124500Y-68923139D01*
X120124500Y-68927191D01*
X120124500Y-68927192D01*
X120124500Y-69672805D01*
X120124500Y-69672820D01*
X120124501Y-69676860D01*
X120125029Y-69680873D01*
X120125030Y-69680884D01*
X120139955Y-69794260D01*
X120200464Y-69940341D01*
X120296717Y-70065782D01*
X120422158Y-70162035D01*
X120422159Y-70162036D01*
X120554101Y-70216688D01*
X120608505Y-70260529D01*
X120630570Y-70326823D01*
X120613291Y-70394522D01*
X120562154Y-70442133D01*
X120554103Y-70445810D01*
X120422157Y-70500464D01*
X120296717Y-70596717D01*
X120200463Y-70722159D01*
X120139956Y-70868237D01*
X120125672Y-70976740D01*
X120124500Y-70985639D01*
X120124500Y-70989691D01*
X120124500Y-70989692D01*
X120124500Y-71735305D01*
X120124500Y-71735320D01*
X120124501Y-71739360D01*
X120125029Y-71743373D01*
X120125030Y-71743384D01*
X120139955Y-71856760D01*
X120200464Y-72002841D01*
X120296717Y-72128282D01*
X120410279Y-72215420D01*
X120451482Y-72271848D01*
X120455637Y-72341594D01*
X120421425Y-72402514D01*
X120399890Y-72419334D01*
X120256655Y-72507682D01*
X120132683Y-72631654D01*
X120040642Y-72780877D01*
X119985493Y-72947303D01*
X119975319Y-73046890D01*
X119975000Y-73053168D01*
X119975000Y-73187500D01*
X122424999Y-73187500D01*
X122424999Y-73053170D01*
X122424678Y-73046888D01*
X122414506Y-72947304D01*
X122359357Y-72780877D01*
X122267316Y-72631654D01*
X122143346Y-72507684D01*
X122000109Y-72419335D01*
X121953385Y-72367387D01*
X121942162Y-72298424D01*
X121970006Y-72234342D01*
X121989715Y-72215424D01*
X122103282Y-72128282D01*
X122199536Y-72002841D01*
X122260044Y-71856762D01*
X122260045Y-71856753D01*
X122261437Y-71853393D01*
X122305278Y-71798990D01*
X122371572Y-71776924D01*
X122439271Y-71794203D01*
X122486882Y-71845339D01*
X122499999Y-71900845D01*
X122499999Y-72269517D01*
X122500354Y-72276132D01*
X122506400Y-72332371D01*
X122556647Y-72467089D01*
X122642811Y-72582188D01*
X122757910Y-72668352D01*
X122892628Y-72718599D01*
X122948867Y-72724645D01*
X122955482Y-72725000D01*
X123650000Y-72725000D01*
X123650000Y-71725000D01*
X124150000Y-71725000D01*
X124150000Y-72725000D01*
X124844518Y-72725000D01*
X124851132Y-72724645D01*
X124907371Y-72718599D01*
X125042089Y-72668352D01*
X125157188Y-72582188D01*
X125243352Y-72467089D01*
X125293599Y-72332371D01*
X125299645Y-72276132D01*
X125300000Y-72269518D01*
X125300000Y-71725000D01*
X124150000Y-71725000D01*
X123650000Y-71725000D01*
X123650000Y-69825000D01*
X124150000Y-69825000D01*
X124150000Y-71225000D01*
X125300000Y-71225000D01*
X125300000Y-70680481D01*
X125299646Y-70673885D01*
X125293597Y-70617621D01*
X125275214Y-70568335D01*
X125270228Y-70498643D01*
X125275214Y-70481665D01*
X125293597Y-70432378D01*
X125299646Y-70376114D01*
X125300000Y-70369518D01*
X125300000Y-69825000D01*
X124150000Y-69825000D01*
X123650000Y-69825000D01*
X123650000Y-69449000D01*
X123669685Y-69381961D01*
X123722489Y-69336206D01*
X123774000Y-69325000D01*
X125300000Y-69325000D01*
X125300000Y-68780481D01*
X125299645Y-68773867D01*
X125293599Y-68717628D01*
X125243352Y-68582910D01*
X125175233Y-68491915D01*
X125150816Y-68426451D01*
X125150500Y-68417604D01*
X125150500Y-66891736D01*
X125140573Y-66823608D01*
X125119254Y-66780000D01*
X125118990Y-66779459D01*
X125107231Y-66710588D01*
X125118991Y-66670539D01*
X125140573Y-66626393D01*
X125144543Y-66599139D01*
X125150500Y-66558263D01*
X125150500Y-66374500D01*
X125170185Y-66307461D01*
X125222989Y-66261706D01*
X125274500Y-66250500D01*
X128835541Y-66250500D01*
X128861899Y-66253333D01*
X128865729Y-66254167D01*
X128912575Y-66250815D01*
X128921422Y-66250500D01*
X128934011Y-66250500D01*
X128946485Y-66248706D01*
X128955269Y-66247761D01*
X129002115Y-66244411D01*
X129004488Y-66243525D01*
X129005778Y-66243045D01*
X129031465Y-66236488D01*
X129035342Y-66235931D01*
X129078072Y-66216415D01*
X129086207Y-66213045D01*
X129130226Y-66196629D01*
X129133361Y-66194281D01*
X129156153Y-66180757D01*
X129159718Y-66179130D01*
X129195203Y-66148380D01*
X129202084Y-66142835D01*
X129212180Y-66135279D01*
X129212184Y-66135275D01*
X129221083Y-66126376D01*
X129227566Y-66120340D01*
X129263052Y-66089592D01*
X129263052Y-66089591D01*
X129263055Y-66089589D01*
X129265173Y-66086292D01*
X129281803Y-66065654D01*
X131687821Y-63659637D01*
X131749142Y-63626154D01*
X131818834Y-63631138D01*
X131874767Y-63673010D01*
X131899184Y-63738474D01*
X131899500Y-63747320D01*
X131899500Y-70510541D01*
X131896666Y-70536900D01*
X131895832Y-70540730D01*
X131899183Y-70587578D01*
X131899499Y-70596411D01*
X131899500Y-70609012D01*
X131901293Y-70621492D01*
X131902237Y-70630274D01*
X131905588Y-70677115D01*
X131906956Y-70680781D01*
X131913510Y-70706458D01*
X131913896Y-70709140D01*
X131914069Y-70710343D01*
X131933571Y-70753045D01*
X131936959Y-70761223D01*
X131953373Y-70805231D01*
X131955722Y-70808369D01*
X131969240Y-70831150D01*
X131970870Y-70834718D01*
X132001627Y-70870214D01*
X132007170Y-70877093D01*
X132014721Y-70887180D01*
X132023627Y-70896086D01*
X132029659Y-70902565D01*
X132060411Y-70938055D01*
X132063708Y-70940174D01*
X132084349Y-70956808D01*
X132310909Y-71183368D01*
X132344394Y-71244691D01*
X132346448Y-71284932D01*
X132344750Y-71300000D01*
X132363686Y-71468056D01*
X132363686Y-71468058D01*
X132363687Y-71468059D01*
X132419544Y-71627690D01*
X132509523Y-71770890D01*
X132629110Y-71890477D01*
X132662762Y-71911622D01*
X132701926Y-71936231D01*
X132748217Y-71988566D01*
X132758864Y-72057619D01*
X132730489Y-72121467D01*
X132723634Y-72128905D01*
X132109345Y-72743194D01*
X132088709Y-72759825D01*
X132085411Y-72761944D01*
X132054663Y-72797429D01*
X132048641Y-72803898D01*
X132039722Y-72812818D01*
X132032158Y-72822921D01*
X132026613Y-72829800D01*
X131995867Y-72865284D01*
X131994235Y-72868857D01*
X131980723Y-72891630D01*
X131978370Y-72894773D01*
X131961960Y-72938770D01*
X131958583Y-72946926D01*
X131956271Y-72951991D01*
X131910525Y-73004803D01*
X131843489Y-73024500D01*
X131616737Y-73024500D01*
X131548609Y-73034426D01*
X131443515Y-73085802D01*
X131360802Y-73168515D01*
X131309426Y-73273609D01*
X131299500Y-73341736D01*
X131299500Y-73633611D01*
X131279815Y-73700650D01*
X131227011Y-73746405D01*
X131160557Y-73756707D01*
X131146102Y-73754952D01*
X131146087Y-73754951D01*
X131142372Y-73754500D01*
X131057628Y-73754500D01*
X131053920Y-73754950D01*
X131053907Y-73754951D01*
X130931127Y-73769860D01*
X130772069Y-73830182D01*
X130632072Y-73926815D01*
X130519265Y-74054149D01*
X130440209Y-74204775D01*
X130401883Y-74360275D01*
X130399500Y-74369944D01*
X130399500Y-74540056D01*
X130404990Y-74562329D01*
X130440209Y-74705224D01*
X130479573Y-74780224D01*
X130519266Y-74855852D01*
X130632071Y-74983183D01*
X130772070Y-75079818D01*
X130931128Y-75140140D01*
X131057628Y-75155500D01*
X131061377Y-75155500D01*
X131138623Y-75155500D01*
X131142372Y-75155500D01*
X131169020Y-75152264D01*
X131237942Y-75163724D01*
X131289729Y-75210627D01*
X131306671Y-75257482D01*
X131309425Y-75276390D01*
X131360802Y-75381484D01*
X131443515Y-75464197D01*
X131443516Y-75464197D01*
X131443517Y-75464198D01*
X131548607Y-75515573D01*
X131575860Y-75519543D01*
X131616737Y-75525500D01*
X133142604Y-75525500D01*
X133209643Y-75545185D01*
X133216915Y-75550233D01*
X133307910Y-75618352D01*
X133442628Y-75668599D01*
X133498867Y-75674645D01*
X133505482Y-75675000D01*
X134050000Y-75675000D01*
X134050000Y-74525000D01*
X134550000Y-74525000D01*
X134550000Y-75675000D01*
X135094518Y-75675000D01*
X135101132Y-75674645D01*
X135157371Y-75668599D01*
X135292089Y-75618352D01*
X135407188Y-75532188D01*
X135493352Y-75417089D01*
X135543599Y-75282371D01*
X135549645Y-75226132D01*
X135550000Y-75219518D01*
X135550000Y-74615055D01*
X158499500Y-74615055D01*
X158540209Y-74780224D01*
X158607525Y-74908481D01*
X158619266Y-74930852D01*
X158732071Y-75058183D01*
X158872070Y-75154818D01*
X159031128Y-75215140D01*
X159157628Y-75230500D01*
X159161377Y-75230500D01*
X159238623Y-75230500D01*
X159242372Y-75230500D01*
X159368872Y-75215140D01*
X159527930Y-75154818D01*
X159667929Y-75058183D01*
X159780734Y-74930852D01*
X159859790Y-74780225D01*
X159900500Y-74615056D01*
X159900500Y-74615055D01*
X161499500Y-74615055D01*
X161540209Y-74780224D01*
X161607525Y-74908481D01*
X161619266Y-74930852D01*
X161732071Y-75058183D01*
X161872070Y-75154818D01*
X162031128Y-75215140D01*
X162157628Y-75230500D01*
X162161377Y-75230500D01*
X162238623Y-75230500D01*
X162242372Y-75230500D01*
X162368872Y-75215140D01*
X162527930Y-75154818D01*
X162667929Y-75058183D01*
X162780734Y-74930852D01*
X162859790Y-74780225D01*
X162900500Y-74615056D01*
X162900500Y-74444944D01*
X162859790Y-74279775D01*
X162780734Y-74129148D01*
X162667929Y-74001817D01*
X162667928Y-74001816D01*
X162667927Y-74001815D01*
X162527930Y-73905182D01*
X162368872Y-73844860D01*
X162246092Y-73829951D01*
X162246080Y-73829950D01*
X162242372Y-73829500D01*
X162157628Y-73829500D01*
X162153920Y-73829950D01*
X162153907Y-73829951D01*
X162031127Y-73844860D01*
X161872069Y-73905182D01*
X161732072Y-74001815D01*
X161619265Y-74129149D01*
X161540209Y-74279775D01*
X161499500Y-74444944D01*
X161499500Y-74615055D01*
X159900500Y-74615055D01*
X159900500Y-74444944D01*
X159859790Y-74279775D01*
X159780734Y-74129148D01*
X159667929Y-74001817D01*
X159667928Y-74001816D01*
X159667927Y-74001815D01*
X159527930Y-73905182D01*
X159368872Y-73844860D01*
X159246092Y-73829951D01*
X159246080Y-73829950D01*
X159242372Y-73829500D01*
X159157628Y-73829500D01*
X159153920Y-73829950D01*
X159153907Y-73829951D01*
X159031127Y-73844860D01*
X158872069Y-73905182D01*
X158732072Y-74001815D01*
X158619265Y-74129149D01*
X158540209Y-74279775D01*
X158499500Y-74444944D01*
X158499500Y-74615055D01*
X135550000Y-74615055D01*
X135550000Y-74525000D01*
X134550000Y-74525000D01*
X134050000Y-74525000D01*
X134050000Y-74149000D01*
X134069685Y-74081961D01*
X134122489Y-74036206D01*
X134174000Y-74025000D01*
X135550000Y-74025000D01*
X135550000Y-73330481D01*
X135549645Y-73323867D01*
X135543599Y-73267628D01*
X135493352Y-73132910D01*
X135407188Y-73017811D01*
X135292089Y-72931647D01*
X135157371Y-72881400D01*
X135101132Y-72875354D01*
X135094518Y-72875000D01*
X135038196Y-72875000D01*
X134971157Y-72855315D01*
X134925402Y-72802511D01*
X134915458Y-72733353D01*
X134944483Y-72669797D01*
X134994864Y-72634818D01*
X135007905Y-72629953D01*
X135030226Y-72621629D01*
X135033361Y-72619281D01*
X135056153Y-72605757D01*
X135059718Y-72604130D01*
X135095203Y-72573380D01*
X135102084Y-72567835D01*
X135112180Y-72560279D01*
X135112184Y-72560275D01*
X135121083Y-72551376D01*
X135127566Y-72545340D01*
X135163052Y-72514592D01*
X135163052Y-72514591D01*
X135163055Y-72514589D01*
X135165173Y-72511292D01*
X135181803Y-72490654D01*
X135488318Y-72184139D01*
X135549642Y-72150654D01*
X135619334Y-72155638D01*
X135675267Y-72197510D01*
X135699684Y-72262974D01*
X135699891Y-72268776D01*
X135699822Y-72266195D01*
X135700354Y-72276132D01*
X135706400Y-72332371D01*
X135756647Y-72467089D01*
X135842811Y-72582188D01*
X135957910Y-72668352D01*
X136092628Y-72718599D01*
X136148867Y-72724645D01*
X136155482Y-72725000D01*
X136850000Y-72725000D01*
X136850000Y-71725000D01*
X137350000Y-71725000D01*
X137350000Y-72725000D01*
X138044518Y-72725000D01*
X138051132Y-72724645D01*
X138107371Y-72718599D01*
X138242089Y-72668352D01*
X138357188Y-72582188D01*
X138443352Y-72467089D01*
X138493599Y-72332371D01*
X138499645Y-72276132D01*
X138500000Y-72269518D01*
X138500000Y-71725000D01*
X137350000Y-71725000D01*
X136850000Y-71725000D01*
X136850000Y-71349000D01*
X136869685Y-71281961D01*
X136922489Y-71236206D01*
X136974000Y-71225000D01*
X138500000Y-71225000D01*
X138500000Y-70796821D01*
X138519685Y-70729782D01*
X138572489Y-70684027D01*
X138641647Y-70674083D01*
X138705203Y-70703108D01*
X138711681Y-70709140D01*
X142293193Y-74290652D01*
X142309825Y-74311291D01*
X142311945Y-74314589D01*
X142347451Y-74345354D01*
X142353914Y-74351373D01*
X142362815Y-74360275D01*
X142362818Y-74360277D01*
X142362820Y-74360279D01*
X142372905Y-74367828D01*
X142379787Y-74373374D01*
X142415282Y-74404130D01*
X142418842Y-74405756D01*
X142441635Y-74419279D01*
X142444774Y-74421629D01*
X142488759Y-74438034D01*
X142496938Y-74441422D01*
X142539653Y-74460929D01*
X142539658Y-74460931D01*
X142543535Y-74461488D01*
X142569215Y-74468042D01*
X142572885Y-74469411D01*
X142619732Y-74472761D01*
X142628514Y-74473706D01*
X142640989Y-74475500D01*
X142653578Y-74475500D01*
X142662424Y-74475815D01*
X142709271Y-74479167D01*
X142713100Y-74478333D01*
X142739459Y-74475500D01*
X157335541Y-74475500D01*
X157361899Y-74478333D01*
X157365729Y-74479167D01*
X157412575Y-74475815D01*
X157421422Y-74475500D01*
X157434011Y-74475500D01*
X157446485Y-74473706D01*
X157455269Y-74472761D01*
X157502115Y-74469411D01*
X157504488Y-74468525D01*
X157505778Y-74468045D01*
X157531465Y-74461488D01*
X157535342Y-74460931D01*
X157578072Y-74441415D01*
X157586207Y-74438045D01*
X157630226Y-74421629D01*
X157633361Y-74419281D01*
X157656153Y-74405757D01*
X157659718Y-74404130D01*
X157695203Y-74373380D01*
X157702084Y-74367835D01*
X157712180Y-74360279D01*
X157712184Y-74360275D01*
X157721083Y-74351376D01*
X157727566Y-74345340D01*
X157763052Y-74314592D01*
X157763052Y-74314591D01*
X157763055Y-74314589D01*
X157765173Y-74311292D01*
X157781806Y-74290652D01*
X158690654Y-73381803D01*
X158711292Y-73365173D01*
X158714589Y-73363055D01*
X158733058Y-73341740D01*
X158745340Y-73327566D01*
X158751376Y-73321083D01*
X158760275Y-73312184D01*
X158760275Y-73312183D01*
X158760279Y-73312180D01*
X158767835Y-73302084D01*
X158773387Y-73295196D01*
X158804130Y-73259718D01*
X158805757Y-73256153D01*
X158819281Y-73233361D01*
X158821629Y-73230226D01*
X158838042Y-73186216D01*
X158841430Y-73178040D01*
X158860931Y-73135342D01*
X158861487Y-73131469D01*
X158868044Y-73105780D01*
X158869412Y-73102114D01*
X158872762Y-73055266D01*
X158873709Y-73046464D01*
X158875500Y-73034010D01*
X158875500Y-73021426D01*
X158875816Y-73012579D01*
X158877455Y-72989658D01*
X158879167Y-72965729D01*
X158878333Y-72961899D01*
X158875500Y-72935541D01*
X158875500Y-70499999D01*
X171494356Y-70499999D01*
X171514891Y-70747816D01*
X171514891Y-70747819D01*
X171514892Y-70747821D01*
X171575937Y-70988881D01*
X171620960Y-71091523D01*
X171675825Y-71216604D01*
X171675827Y-71216607D01*
X171811836Y-71424785D01*
X171980256Y-71607738D01*
X172014012Y-71634011D01*
X172176485Y-71760470D01*
X172176487Y-71760471D01*
X172176491Y-71760474D01*
X172395190Y-71878828D01*
X172630386Y-71959571D01*
X172875665Y-72000500D01*
X173124335Y-72000500D01*
X173369614Y-71959571D01*
X173604810Y-71878828D01*
X173823509Y-71760474D01*
X174019744Y-71607738D01*
X174188164Y-71424785D01*
X174324173Y-71216607D01*
X174424063Y-70988881D01*
X174485108Y-70747821D01*
X174505643Y-70500000D01*
X174485108Y-70252179D01*
X174424063Y-70011119D01*
X174325456Y-69786317D01*
X174324174Y-69783395D01*
X174299058Y-69744952D01*
X174188164Y-69575215D01*
X174019744Y-69392262D01*
X173997612Y-69375036D01*
X173823514Y-69239529D01*
X173823510Y-69239526D01*
X173823509Y-69239526D01*
X173604810Y-69121172D01*
X173604806Y-69121170D01*
X173604805Y-69121170D01*
X173369615Y-69040429D01*
X173124335Y-68999500D01*
X172875665Y-68999500D01*
X172630384Y-69040429D01*
X172395194Y-69121170D01*
X172395190Y-69121171D01*
X172395190Y-69121172D01*
X172335688Y-69153373D01*
X172176485Y-69239529D01*
X171980259Y-69392259D01*
X171811837Y-69575214D01*
X171675825Y-69783395D01*
X171606983Y-69940341D01*
X171575937Y-70011119D01*
X171533055Y-70180455D01*
X171514891Y-70252183D01*
X171494356Y-70499999D01*
X158875500Y-70499999D01*
X158875500Y-68614458D01*
X158878334Y-68588098D01*
X158879167Y-68584271D01*
X158875816Y-68537424D01*
X158875500Y-68528577D01*
X158875500Y-68515988D01*
X158873707Y-68503521D01*
X158872761Y-68494732D01*
X158869411Y-68447885D01*
X158868042Y-68444215D01*
X158861488Y-68418535D01*
X158860931Y-68414658D01*
X158860929Y-68414653D01*
X158841422Y-68371938D01*
X158838034Y-68363759D01*
X158821629Y-68319774D01*
X158819279Y-68316635D01*
X158805756Y-68293842D01*
X158804130Y-68290282D01*
X158773374Y-68254787D01*
X158767837Y-68247916D01*
X158760279Y-68237820D01*
X158760277Y-68237818D01*
X158760275Y-68237815D01*
X158751373Y-68228914D01*
X158745354Y-68222451D01*
X158714589Y-68186945D01*
X158711291Y-68184825D01*
X158690652Y-68168193D01*
X157802158Y-67279699D01*
X157768673Y-67218376D01*
X157770572Y-67158085D01*
X157815115Y-67001536D01*
X157835643Y-66780000D01*
X157815115Y-66558464D01*
X157772788Y-66409699D01*
X157773374Y-66339832D01*
X157804371Y-66288086D01*
X157892457Y-66200000D01*
X158744340Y-66200000D01*
X158764936Y-66435407D01*
X158809709Y-66602502D01*
X158826097Y-66663663D01*
X158925965Y-66877830D01*
X159061505Y-67071401D01*
X159228599Y-67238495D01*
X159422170Y-67374035D01*
X159636337Y-67473903D01*
X159864592Y-67535062D01*
X159864592Y-67535063D01*
X160099999Y-67555659D01*
X160099999Y-67555658D01*
X160100000Y-67555659D01*
X160335408Y-67535063D01*
X160563663Y-67473903D01*
X160777830Y-67374035D01*
X160971401Y-67238495D01*
X161138495Y-67071401D01*
X161274035Y-66877830D01*
X161373903Y-66663663D01*
X161435063Y-66435408D01*
X161455659Y-66200000D01*
X161455659Y-66199999D01*
X163094858Y-66199999D01*
X163115386Y-66447732D01*
X163176413Y-66688721D01*
X163276268Y-66916370D01*
X163376563Y-67069882D01*
X163376564Y-67069882D01*
X164074070Y-66372376D01*
X164076884Y-66385915D01*
X164146442Y-66520156D01*
X164249638Y-66630652D01*
X164378819Y-66709209D01*
X164430002Y-66723549D01*
X163729942Y-67423609D01*
X163729942Y-67423610D01*
X163776766Y-67460055D01*
X163995393Y-67578368D01*
X164230506Y-67659083D01*
X164475707Y-67700000D01*
X164724293Y-67700000D01*
X164969493Y-67659083D01*
X165204606Y-67578368D01*
X165423233Y-67460053D01*
X165470056Y-67423609D01*
X164771568Y-66725121D01*
X164888458Y-66674349D01*
X165005739Y-66578934D01*
X165092928Y-66455415D01*
X165123354Y-66369802D01*
X165823434Y-67069882D01*
X165923730Y-66916369D01*
X166023586Y-66688721D01*
X166084613Y-66447732D01*
X166105141Y-66200000D01*
X166100998Y-66150000D01*
X170694340Y-66150000D01*
X170714936Y-66385407D01*
X170742395Y-66487885D01*
X170776097Y-66613663D01*
X170875965Y-66827830D01*
X171011505Y-67021401D01*
X171178599Y-67188495D01*
X171372170Y-67324035D01*
X171586337Y-67423903D01*
X171814592Y-67485062D01*
X171814592Y-67485063D01*
X172049999Y-67505659D01*
X172049999Y-67505658D01*
X172050000Y-67505659D01*
X172285408Y-67485063D01*
X172513663Y-67423903D01*
X172727830Y-67324035D01*
X172921401Y-67188495D01*
X173088495Y-67021401D01*
X173224035Y-66827830D01*
X173323903Y-66613663D01*
X173385063Y-66385408D01*
X173405659Y-66150000D01*
X175044858Y-66150000D01*
X175065386Y-66397732D01*
X175126413Y-66638721D01*
X175226268Y-66866370D01*
X175326563Y-67019882D01*
X175326564Y-67019882D01*
X176024070Y-66322376D01*
X176026884Y-66335915D01*
X176096442Y-66470156D01*
X176199638Y-66580652D01*
X176328819Y-66659209D01*
X176380002Y-66673549D01*
X175679942Y-67373609D01*
X175679942Y-67373610D01*
X175726766Y-67410055D01*
X175945393Y-67528368D01*
X176180506Y-67609083D01*
X176425707Y-67650000D01*
X176674293Y-67650000D01*
X176919493Y-67609083D01*
X177154606Y-67528368D01*
X177373233Y-67410053D01*
X177420056Y-67373609D01*
X176721568Y-66675121D01*
X176838458Y-66624349D01*
X176955739Y-66528934D01*
X177042928Y-66405415D01*
X177073354Y-66319802D01*
X177773434Y-67019882D01*
X177873730Y-66866369D01*
X177973586Y-66638721D01*
X178034613Y-66397732D01*
X178055141Y-66150000D01*
X178034613Y-65902267D01*
X177973586Y-65661278D01*
X177873730Y-65433630D01*
X177773434Y-65280116D01*
X177075929Y-65977622D01*
X177073116Y-65964085D01*
X177003558Y-65829844D01*
X176900362Y-65719348D01*
X176771181Y-65640791D01*
X176719997Y-65626450D01*
X177420057Y-64926390D01*
X177420056Y-64926388D01*
X177373235Y-64889947D01*
X177154606Y-64771631D01*
X176919493Y-64690916D01*
X176674293Y-64650000D01*
X176425707Y-64650000D01*
X176180506Y-64690916D01*
X175945393Y-64771631D01*
X175726764Y-64889946D01*
X175679942Y-64926388D01*
X175679942Y-64926390D01*
X176378431Y-65624878D01*
X176261542Y-65675651D01*
X176144261Y-65771066D01*
X176057072Y-65894585D01*
X176026645Y-65980197D01*
X175326564Y-65280116D01*
X175226266Y-65433634D01*
X175126413Y-65661278D01*
X175065386Y-65902267D01*
X175044858Y-66150000D01*
X173405659Y-66150000D01*
X173385063Y-65914592D01*
X173323903Y-65686337D01*
X173224035Y-65472171D01*
X173088495Y-65278599D01*
X172921401Y-65111505D01*
X172727830Y-64975965D01*
X172513663Y-64876097D01*
X172395147Y-64844341D01*
X172285407Y-64814936D01*
X172049999Y-64794340D01*
X171814592Y-64814936D01*
X171586336Y-64876097D01*
X171372170Y-64975965D01*
X171178598Y-65111505D01*
X171011505Y-65278598D01*
X170875965Y-65472170D01*
X170776097Y-65686336D01*
X170714936Y-65914592D01*
X170694340Y-66150000D01*
X166100998Y-66150000D01*
X166084613Y-65952267D01*
X166023586Y-65711278D01*
X165923730Y-65483630D01*
X165823434Y-65330116D01*
X165125929Y-66027622D01*
X165123116Y-66014085D01*
X165053558Y-65879844D01*
X164950362Y-65769348D01*
X164821181Y-65690791D01*
X164769997Y-65676450D01*
X165470057Y-64976390D01*
X165470056Y-64976388D01*
X165423235Y-64939947D01*
X165204606Y-64821631D01*
X164969493Y-64740916D01*
X164724293Y-64700000D01*
X164475707Y-64700000D01*
X164230506Y-64740916D01*
X163995393Y-64821631D01*
X163776764Y-64939946D01*
X163729942Y-64976388D01*
X163729942Y-64976390D01*
X164428431Y-65674878D01*
X164311542Y-65725651D01*
X164194261Y-65821066D01*
X164107072Y-65944585D01*
X164076645Y-66030197D01*
X163376564Y-65330116D01*
X163276266Y-65483634D01*
X163176413Y-65711278D01*
X163115386Y-65952267D01*
X163094858Y-66199999D01*
X161455659Y-66199999D01*
X161435063Y-65964592D01*
X161373903Y-65736337D01*
X161274035Y-65522171D01*
X161138495Y-65328599D01*
X160971401Y-65161505D01*
X160777830Y-65025965D01*
X160563663Y-64926097D01*
X160502502Y-64909709D01*
X160335407Y-64864936D01*
X160099999Y-64844340D01*
X159864592Y-64864936D01*
X159636336Y-64926097D01*
X159422170Y-65025965D01*
X159228598Y-65161505D01*
X159061505Y-65328598D01*
X158925965Y-65522170D01*
X158826097Y-65736336D01*
X158764936Y-65964592D01*
X158744340Y-66200000D01*
X157892457Y-66200000D01*
X158190654Y-65901803D01*
X158211292Y-65885173D01*
X158214589Y-65883055D01*
X158214592Y-65883052D01*
X158245340Y-65847566D01*
X158251376Y-65841083D01*
X158260275Y-65832184D01*
X158260275Y-65832183D01*
X158260279Y-65832180D01*
X158267835Y-65822084D01*
X158273387Y-65815196D01*
X158304130Y-65779718D01*
X158305757Y-65776153D01*
X158319281Y-65753361D01*
X158321629Y-65750226D01*
X158338045Y-65706207D01*
X158341415Y-65698072D01*
X158360931Y-65655342D01*
X158361488Y-65651465D01*
X158368045Y-65625778D01*
X158368525Y-65624488D01*
X158369411Y-65622115D01*
X158372761Y-65575269D01*
X158373707Y-65566478D01*
X158373896Y-65565168D01*
X158375500Y-65554011D01*
X158375500Y-65541421D01*
X158375816Y-65532574D01*
X158376638Y-65521083D01*
X158379167Y-65485729D01*
X158378334Y-65481899D01*
X158375500Y-65455541D01*
X158375500Y-61064459D01*
X158378334Y-61038099D01*
X158379167Y-61034271D01*
X158375816Y-60987420D01*
X158375500Y-60978574D01*
X158375500Y-60965986D01*
X158373708Y-60953525D01*
X158372761Y-60944720D01*
X158369412Y-60897886D01*
X158368043Y-60894216D01*
X158361487Y-60868531D01*
X158360931Y-60864658D01*
X158360929Y-60864654D01*
X158360929Y-60864652D01*
X158341424Y-60821943D01*
X158338034Y-60813760D01*
X158321629Y-60769773D01*
X158319280Y-60766635D01*
X158305755Y-60743840D01*
X158304130Y-60740283D01*
X158304130Y-60740282D01*
X158273374Y-60704787D01*
X158267837Y-60697916D01*
X158260279Y-60687820D01*
X158260277Y-60687818D01*
X158260275Y-60687815D01*
X158251373Y-60678914D01*
X158245354Y-60672451D01*
X158214589Y-60636945D01*
X158211291Y-60634825D01*
X158190652Y-60618193D01*
X157272458Y-59699999D01*
X158744340Y-59699999D01*
X158764936Y-59935407D01*
X158808666Y-60098609D01*
X158826097Y-60163663D01*
X158925965Y-60377830D01*
X159061505Y-60571401D01*
X159228599Y-60738495D01*
X159422170Y-60874035D01*
X159636337Y-60973903D01*
X159864592Y-61035063D01*
X160100000Y-61055659D01*
X160335408Y-61035063D01*
X160563663Y-60973903D01*
X160777830Y-60874035D01*
X160971401Y-60738495D01*
X161138495Y-60571401D01*
X161274035Y-60377830D01*
X161373903Y-60163663D01*
X161435063Y-59935408D01*
X161455659Y-59700000D01*
X163094858Y-59700000D01*
X163115386Y-59947732D01*
X163176413Y-60188721D01*
X163276268Y-60416370D01*
X163376563Y-60569882D01*
X163376564Y-60569882D01*
X164074070Y-59872376D01*
X164076884Y-59885915D01*
X164146442Y-60020156D01*
X164249638Y-60130652D01*
X164378819Y-60209209D01*
X164430002Y-60223549D01*
X163729942Y-60923609D01*
X163729942Y-60923610D01*
X163776766Y-60960055D01*
X163995393Y-61078368D01*
X164230506Y-61159083D01*
X164475707Y-61200000D01*
X164724293Y-61200000D01*
X164969493Y-61159083D01*
X165204606Y-61078368D01*
X165423233Y-60960053D01*
X165470056Y-60923609D01*
X164771568Y-60225121D01*
X164888458Y-60174349D01*
X165005739Y-60078934D01*
X165092928Y-59955415D01*
X165123354Y-59869802D01*
X165823434Y-60569882D01*
X165923730Y-60416369D01*
X166023586Y-60188721D01*
X166084613Y-59947732D01*
X166105141Y-59699999D01*
X166100998Y-59649999D01*
X170694340Y-59649999D01*
X170714936Y-59885407D01*
X170737645Y-59970156D01*
X170776097Y-60113663D01*
X170875965Y-60327830D01*
X171011505Y-60521401D01*
X171178599Y-60688495D01*
X171372170Y-60824035D01*
X171586337Y-60923903D01*
X171814592Y-60985063D01*
X172050000Y-61005659D01*
X172285408Y-60985063D01*
X172513663Y-60923903D01*
X172727830Y-60824035D01*
X172921401Y-60688495D01*
X173088495Y-60521401D01*
X173224035Y-60327830D01*
X173323903Y-60113663D01*
X173385063Y-59885408D01*
X173405659Y-59650000D01*
X175044858Y-59650000D01*
X175065386Y-59897732D01*
X175126413Y-60138721D01*
X175226268Y-60366370D01*
X175326563Y-60519882D01*
X175326564Y-60519882D01*
X176024070Y-59822376D01*
X176026884Y-59835915D01*
X176096442Y-59970156D01*
X176199638Y-60080652D01*
X176328819Y-60159209D01*
X176380002Y-60173549D01*
X175679942Y-60873609D01*
X175679942Y-60873610D01*
X175726766Y-60910055D01*
X175945393Y-61028368D01*
X176180506Y-61109083D01*
X176425707Y-61150000D01*
X176674293Y-61150000D01*
X176919493Y-61109083D01*
X177154606Y-61028368D01*
X177373233Y-60910053D01*
X177420056Y-60873609D01*
X176721568Y-60175121D01*
X176838458Y-60124349D01*
X176955739Y-60028934D01*
X177042928Y-59905415D01*
X177073354Y-59819802D01*
X177773434Y-60519882D01*
X177873730Y-60366369D01*
X177973586Y-60138721D01*
X178034613Y-59897732D01*
X178055141Y-59650000D01*
X178034613Y-59402267D01*
X177973586Y-59161278D01*
X177873730Y-58933630D01*
X177773434Y-58780116D01*
X177075929Y-59477622D01*
X177073116Y-59464085D01*
X177003558Y-59329844D01*
X176900362Y-59219348D01*
X176771181Y-59140791D01*
X176719997Y-59126450D01*
X177420057Y-58426390D01*
X177420056Y-58426388D01*
X177373235Y-58389947D01*
X177154606Y-58271631D01*
X176919493Y-58190916D01*
X176674293Y-58150000D01*
X176425707Y-58150000D01*
X176180506Y-58190916D01*
X175945393Y-58271631D01*
X175726764Y-58389946D01*
X175679942Y-58426388D01*
X175679942Y-58426390D01*
X176378431Y-59124878D01*
X176261542Y-59175651D01*
X176144261Y-59271066D01*
X176057072Y-59394585D01*
X176026645Y-59480197D01*
X175326564Y-58780116D01*
X175226266Y-58933634D01*
X175126413Y-59161278D01*
X175065386Y-59402267D01*
X175044858Y-59650000D01*
X173405659Y-59650000D01*
X173393706Y-59513385D01*
X173385063Y-59414592D01*
X173360003Y-59321066D01*
X173323903Y-59186337D01*
X173224035Y-58972171D01*
X173088495Y-58778599D01*
X172921401Y-58611505D01*
X172727830Y-58475965D01*
X172513663Y-58376097D01*
X172395147Y-58344341D01*
X172285407Y-58314936D01*
X172050000Y-58294340D01*
X171814592Y-58314936D01*
X171586336Y-58376097D01*
X171372170Y-58475965D01*
X171178598Y-58611505D01*
X171011505Y-58778598D01*
X170875965Y-58972170D01*
X170776097Y-59186336D01*
X170714936Y-59414592D01*
X170694340Y-59649999D01*
X166100998Y-59649999D01*
X166084613Y-59452267D01*
X166023586Y-59211278D01*
X165923730Y-58983630D01*
X165823434Y-58830116D01*
X165125929Y-59527622D01*
X165123116Y-59514085D01*
X165053558Y-59379844D01*
X164950362Y-59269348D01*
X164821181Y-59190791D01*
X164769997Y-59176450D01*
X165470057Y-58476390D01*
X165470056Y-58476388D01*
X165423235Y-58439947D01*
X165204606Y-58321631D01*
X165046290Y-58267281D01*
X164989275Y-58226896D01*
X164963144Y-58162096D01*
X164976195Y-58093456D01*
X165024284Y-58042768D01*
X165046290Y-58032719D01*
X165204606Y-57978368D01*
X165423233Y-57860053D01*
X165470056Y-57823609D01*
X164771568Y-57125121D01*
X164888458Y-57074349D01*
X165005739Y-56978934D01*
X165092928Y-56855415D01*
X165123354Y-56769802D01*
X165823434Y-57469882D01*
X165923730Y-57316369D01*
X166023586Y-57088721D01*
X166084613Y-56847732D01*
X166105141Y-56600000D01*
X166084613Y-56352267D01*
X166023586Y-56111278D01*
X165923730Y-55883630D01*
X165823434Y-55730116D01*
X165125929Y-56427622D01*
X165123116Y-56414085D01*
X165053558Y-56279844D01*
X164950362Y-56169348D01*
X164821181Y-56090791D01*
X164769997Y-56076450D01*
X165470057Y-55376390D01*
X165470056Y-55376388D01*
X165423235Y-55339947D01*
X165204606Y-55221631D01*
X164969493Y-55140916D01*
X164724293Y-55100000D01*
X164475707Y-55100000D01*
X164230506Y-55140916D01*
X163995393Y-55221631D01*
X163776764Y-55339946D01*
X163729942Y-55376388D01*
X163729942Y-55376390D01*
X164428431Y-56074878D01*
X164311542Y-56125651D01*
X164194261Y-56221066D01*
X164107072Y-56344585D01*
X164076645Y-56430197D01*
X163376564Y-55730116D01*
X163276266Y-55883634D01*
X163176413Y-56111278D01*
X163115386Y-56352267D01*
X163094858Y-56599999D01*
X163115386Y-56847732D01*
X163176413Y-57088721D01*
X163276268Y-57316370D01*
X163376563Y-57469882D01*
X163376564Y-57469882D01*
X164074070Y-56772376D01*
X164076884Y-56785915D01*
X164146442Y-56920156D01*
X164249638Y-57030652D01*
X164378819Y-57109209D01*
X164430002Y-57123549D01*
X163729942Y-57823609D01*
X163729942Y-57823610D01*
X163776766Y-57860055D01*
X163995393Y-57978368D01*
X164153709Y-58032719D01*
X164210724Y-58073105D01*
X164236855Y-58137904D01*
X164223803Y-58206544D01*
X164175715Y-58257232D01*
X164153709Y-58267281D01*
X163995393Y-58321631D01*
X163776764Y-58439946D01*
X163729942Y-58476388D01*
X163729942Y-58476390D01*
X164428431Y-59174878D01*
X164311542Y-59225651D01*
X164194261Y-59321066D01*
X164107072Y-59444585D01*
X164076645Y-59530197D01*
X163376564Y-58830116D01*
X163276266Y-58983634D01*
X163176413Y-59211278D01*
X163115386Y-59452267D01*
X163094858Y-59700000D01*
X161455659Y-59700000D01*
X161451284Y-59650000D01*
X161435063Y-59464592D01*
X161418124Y-59401373D01*
X161373903Y-59236337D01*
X161274035Y-59022171D01*
X161138495Y-58828599D01*
X160971401Y-58661505D01*
X160777830Y-58525965D01*
X160563663Y-58426097D01*
X160501725Y-58409501D01*
X160335407Y-58364936D01*
X160100000Y-58344340D01*
X159864592Y-58364936D01*
X159636336Y-58426097D01*
X159422170Y-58525965D01*
X159228598Y-58661505D01*
X159061505Y-58828598D01*
X158925965Y-59022170D01*
X158826097Y-59236336D01*
X158764936Y-59464592D01*
X158744340Y-59699999D01*
X157272458Y-59699999D01*
X155881808Y-58309349D01*
X155865174Y-58288708D01*
X155863055Y-58285411D01*
X155827565Y-58254659D01*
X155821086Y-58248627D01*
X155812180Y-58239721D01*
X155802093Y-58232170D01*
X155795214Y-58226627D01*
X155759718Y-58195870D01*
X155759716Y-58195869D01*
X155756150Y-58194240D01*
X155733369Y-58180722D01*
X155730231Y-58178373D01*
X155686590Y-58162096D01*
X155686219Y-58161957D01*
X155678045Y-58158571D01*
X155635343Y-58139069D01*
X155634654Y-58138970D01*
X155631458Y-58138510D01*
X155605781Y-58131956D01*
X155602115Y-58130588D01*
X155555275Y-58127237D01*
X155546491Y-58126293D01*
X155534012Y-58124500D01*
X155534011Y-58124500D01*
X155521422Y-58124500D01*
X155512575Y-58124184D01*
X155465729Y-58120833D01*
X155465728Y-58120833D01*
X155461900Y-58121666D01*
X155435541Y-58124500D01*
X152470295Y-58124500D01*
X152403256Y-58104815D01*
X152357501Y-58052011D01*
X152347557Y-57982853D01*
X152376582Y-57919297D01*
X152435360Y-57881523D01*
X152438188Y-57880728D01*
X152463663Y-57873903D01*
X152677830Y-57774035D01*
X152871401Y-57638495D01*
X153038495Y-57471401D01*
X153174035Y-57277830D01*
X153273903Y-57063663D01*
X153335063Y-56835408D01*
X153355659Y-56600000D01*
X154994858Y-56600000D01*
X155015386Y-56847732D01*
X155076413Y-57088721D01*
X155176268Y-57316370D01*
X155276563Y-57469882D01*
X155276564Y-57469882D01*
X155974070Y-56772376D01*
X155976884Y-56785915D01*
X156046442Y-56920156D01*
X156149638Y-57030652D01*
X156278819Y-57109209D01*
X156330002Y-57123549D01*
X155629942Y-57823609D01*
X155629942Y-57823610D01*
X155676766Y-57860055D01*
X155895393Y-57978368D01*
X156130506Y-58059083D01*
X156375707Y-58100000D01*
X156624293Y-58100000D01*
X156869493Y-58059083D01*
X157104606Y-57978368D01*
X157323233Y-57860053D01*
X157370056Y-57823609D01*
X156671568Y-57125121D01*
X156788458Y-57074349D01*
X156905739Y-56978934D01*
X156992928Y-56855415D01*
X157023355Y-56769801D01*
X157723434Y-57469882D01*
X157823730Y-57316369D01*
X157923586Y-57088721D01*
X157984613Y-56847732D01*
X158005141Y-56600000D01*
X158744340Y-56600000D01*
X158764936Y-56835407D01*
X158787645Y-56920156D01*
X158826097Y-57063663D01*
X158925965Y-57277830D01*
X159061505Y-57471401D01*
X159228599Y-57638495D01*
X159422170Y-57774035D01*
X159636337Y-57873903D01*
X159864592Y-57935063D01*
X160099999Y-57955659D01*
X160099999Y-57955658D01*
X160100000Y-57955659D01*
X160335408Y-57935063D01*
X160563663Y-57873903D01*
X160777830Y-57774035D01*
X160971401Y-57638495D01*
X161138495Y-57471401D01*
X161274035Y-57277830D01*
X161373903Y-57063663D01*
X161435063Y-56835408D01*
X161455659Y-56600000D01*
X161435063Y-56364592D01*
X161373903Y-56136337D01*
X161274035Y-55922171D01*
X161138495Y-55728599D01*
X160971401Y-55561505D01*
X160777830Y-55425965D01*
X160563663Y-55326097D01*
X160502502Y-55309709D01*
X160335407Y-55264936D01*
X160100000Y-55244340D01*
X159864592Y-55264936D01*
X159636336Y-55326097D01*
X159422170Y-55425965D01*
X159228598Y-55561505D01*
X159061505Y-55728598D01*
X158925965Y-55922170D01*
X158826097Y-56136336D01*
X158764936Y-56364592D01*
X158744340Y-56600000D01*
X158005141Y-56600000D01*
X158005141Y-56599999D01*
X157984613Y-56352267D01*
X157923586Y-56111278D01*
X157823730Y-55883630D01*
X157723434Y-55730116D01*
X157025928Y-56427621D01*
X157023116Y-56414085D01*
X156953558Y-56279844D01*
X156850362Y-56169348D01*
X156721181Y-56090791D01*
X156669997Y-56076450D01*
X157370057Y-55376390D01*
X157370056Y-55376388D01*
X157323235Y-55339947D01*
X157104606Y-55221631D01*
X156869493Y-55140916D01*
X156624293Y-55100000D01*
X156375707Y-55100000D01*
X156130506Y-55140916D01*
X155895393Y-55221631D01*
X155676764Y-55339946D01*
X155629942Y-55376388D01*
X155629942Y-55376390D01*
X156328431Y-56074878D01*
X156211542Y-56125651D01*
X156094261Y-56221066D01*
X156007072Y-56344585D01*
X155976645Y-56430197D01*
X155276564Y-55730116D01*
X155176266Y-55883634D01*
X155076413Y-56111278D01*
X155015386Y-56352267D01*
X154994858Y-56600000D01*
X153355659Y-56600000D01*
X153335063Y-56364592D01*
X153273903Y-56136337D01*
X153174035Y-55922171D01*
X153038495Y-55728599D01*
X152871401Y-55561505D01*
X152677830Y-55425965D01*
X152463663Y-55326097D01*
X152402502Y-55309709D01*
X152235407Y-55264936D01*
X152000000Y-55244340D01*
X151764592Y-55264936D01*
X151536336Y-55326097D01*
X151322170Y-55425965D01*
X151128598Y-55561505D01*
X150961505Y-55728598D01*
X150825965Y-55922170D01*
X150726097Y-56136336D01*
X150664936Y-56364592D01*
X150644340Y-56600000D01*
X150664936Y-56835407D01*
X150687645Y-56920156D01*
X150726097Y-57063663D01*
X150825965Y-57277830D01*
X150961505Y-57471401D01*
X151128599Y-57638495D01*
X151322170Y-57774035D01*
X151536337Y-57873903D01*
X151561798Y-57880725D01*
X151621459Y-57917090D01*
X151651988Y-57979937D01*
X151643693Y-58049312D01*
X151599208Y-58103190D01*
X151532656Y-58124465D01*
X151529705Y-58124500D01*
X139794000Y-58124500D01*
X139726961Y-58104815D01*
X139681206Y-58052011D01*
X139670000Y-58000500D01*
X139670000Y-57560000D01*
X138753686Y-57560000D01*
X138779493Y-57519844D01*
X138820000Y-57381889D01*
X138820000Y-57238111D01*
X138779493Y-57100156D01*
X138753686Y-57060000D01*
X139670000Y-57060000D01*
X139670000Y-56559500D01*
X139689685Y-56492461D01*
X139742489Y-56446706D01*
X139794000Y-56435500D01*
X144150236Y-56435500D01*
X144176594Y-56438333D01*
X144180424Y-56439167D01*
X144227270Y-56435815D01*
X144236117Y-56435500D01*
X144248706Y-56435500D01*
X144261180Y-56433706D01*
X144269964Y-56432761D01*
X144316810Y-56429411D01*
X144319183Y-56428525D01*
X144320473Y-56428045D01*
X144346160Y-56421488D01*
X144350037Y-56420931D01*
X144392767Y-56401415D01*
X144400902Y-56398045D01*
X144444921Y-56381629D01*
X144448056Y-56379281D01*
X144470848Y-56365757D01*
X144474413Y-56364130D01*
X144509898Y-56333380D01*
X144516779Y-56327835D01*
X144526875Y-56320279D01*
X144526879Y-56320275D01*
X144535778Y-56311376D01*
X144542261Y-56305340D01*
X144577747Y-56274592D01*
X144577747Y-56274591D01*
X144577750Y-56274589D01*
X144579868Y-56271292D01*
X144596498Y-56250654D01*
X147347152Y-53500000D01*
X148044750Y-53500000D01*
X148063686Y-53668056D01*
X148063686Y-53668058D01*
X148063687Y-53668059D01*
X148119544Y-53827690D01*
X148209523Y-53970890D01*
X148329110Y-54090477D01*
X148472310Y-54180456D01*
X148631941Y-54236313D01*
X148800000Y-54255249D01*
X148968059Y-54236313D01*
X149127690Y-54180456D01*
X149270890Y-54090477D01*
X149349548Y-54011818D01*
X149410871Y-53978334D01*
X149437229Y-53975500D01*
X164735541Y-53975500D01*
X164761899Y-53978333D01*
X164765729Y-53979167D01*
X164812575Y-53975815D01*
X164821422Y-53975500D01*
X164834011Y-53975500D01*
X164846485Y-53973706D01*
X164855269Y-53972761D01*
X164902115Y-53969411D01*
X164904488Y-53968525D01*
X164905778Y-53968045D01*
X164931465Y-53961488D01*
X164935342Y-53960931D01*
X164978072Y-53941415D01*
X164986207Y-53938045D01*
X165030226Y-53921629D01*
X165033361Y-53919281D01*
X165056153Y-53905757D01*
X165059718Y-53904130D01*
X165095203Y-53873380D01*
X165102084Y-53867835D01*
X165112180Y-53860279D01*
X165112184Y-53860275D01*
X165121083Y-53851376D01*
X165127566Y-53845340D01*
X165163052Y-53814592D01*
X165163052Y-53814591D01*
X165163055Y-53814589D01*
X165165173Y-53811292D01*
X165181803Y-53790654D01*
X167512818Y-51459639D01*
X167574142Y-51426154D01*
X167643834Y-51431138D01*
X167699767Y-51473010D01*
X167724184Y-51538474D01*
X167724500Y-51547320D01*
X167724500Y-55252619D01*
X167704815Y-55319658D01*
X167652906Y-55365001D01*
X167522168Y-55425966D01*
X167328598Y-55561505D01*
X167161505Y-55728598D01*
X167025965Y-55922170D01*
X166926097Y-56136336D01*
X166864936Y-56364592D01*
X166844340Y-56600000D01*
X166864936Y-56835407D01*
X166887645Y-56920156D01*
X166926097Y-57063663D01*
X167025965Y-57277830D01*
X167161505Y-57471401D01*
X167328599Y-57638495D01*
X167522170Y-57774035D01*
X167736337Y-57873903D01*
X167964592Y-57935063D01*
X168200000Y-57955659D01*
X168435408Y-57935063D01*
X168663663Y-57873903D01*
X168877830Y-57774035D01*
X169071401Y-57638495D01*
X169238495Y-57471401D01*
X169374035Y-57277830D01*
X169473903Y-57063663D01*
X169535063Y-56835408D01*
X169555659Y-56600000D01*
X169555659Y-56599999D01*
X171194858Y-56599999D01*
X171215386Y-56847732D01*
X171276413Y-57088721D01*
X171376268Y-57316370D01*
X171476563Y-57469882D01*
X171476564Y-57469882D01*
X172174070Y-56772376D01*
X172176884Y-56785915D01*
X172246442Y-56920156D01*
X172349638Y-57030652D01*
X172478819Y-57109209D01*
X172530002Y-57123549D01*
X171829942Y-57823609D01*
X171829942Y-57823610D01*
X171876766Y-57860055D01*
X172095393Y-57978368D01*
X172330506Y-58059083D01*
X172575707Y-58100000D01*
X172824293Y-58100000D01*
X173069493Y-58059083D01*
X173304606Y-57978368D01*
X173523233Y-57860053D01*
X173570056Y-57823609D01*
X172871568Y-57125121D01*
X172988458Y-57074349D01*
X173105739Y-56978934D01*
X173192928Y-56855415D01*
X173223354Y-56769802D01*
X173923434Y-57469882D01*
X174023730Y-57316369D01*
X174123586Y-57088721D01*
X174184613Y-56847732D01*
X174205141Y-56600000D01*
X174184613Y-56352267D01*
X174123586Y-56111278D01*
X174023730Y-55883630D01*
X173923434Y-55730116D01*
X173225929Y-56427622D01*
X173223116Y-56414085D01*
X173153558Y-56279844D01*
X173050362Y-56169348D01*
X172921181Y-56090791D01*
X172869997Y-56076450D01*
X173570057Y-55376390D01*
X173570056Y-55376388D01*
X173523235Y-55339947D01*
X173304606Y-55221631D01*
X173069493Y-55140916D01*
X172824293Y-55100000D01*
X172575707Y-55100000D01*
X172330506Y-55140916D01*
X172095393Y-55221631D01*
X171876764Y-55339946D01*
X171829942Y-55376388D01*
X171829942Y-55376390D01*
X172528431Y-56074878D01*
X172411542Y-56125651D01*
X172294261Y-56221066D01*
X172207072Y-56344585D01*
X172176645Y-56430197D01*
X171476564Y-55730116D01*
X171376266Y-55883634D01*
X171276413Y-56111278D01*
X171215386Y-56352267D01*
X171194858Y-56599999D01*
X169555659Y-56599999D01*
X169535063Y-56364592D01*
X169473903Y-56136337D01*
X169374035Y-55922171D01*
X169238495Y-55728599D01*
X169071401Y-55561505D01*
X168877830Y-55425965D01*
X168747094Y-55365001D01*
X168694655Y-55318828D01*
X168675500Y-55252619D01*
X168675500Y-53500000D01*
X179994389Y-53500000D01*
X180014804Y-53785429D01*
X180075629Y-54065041D01*
X180086383Y-54093874D01*
X180150569Y-54265963D01*
X180175634Y-54333163D01*
X180312772Y-54584313D01*
X180350972Y-54635342D01*
X180484261Y-54813395D01*
X180686605Y-55015739D01*
X180830359Y-55123352D01*
X180915686Y-55187227D01*
X181004090Y-55235499D01*
X181166839Y-55324367D01*
X181434954Y-55424369D01*
X181434957Y-55424369D01*
X181434958Y-55424370D01*
X181442295Y-55425966D01*
X181714572Y-55485196D01*
X182000000Y-55505610D01*
X182285428Y-55485196D01*
X182565046Y-55424369D01*
X182833161Y-55324367D01*
X183084315Y-55187226D01*
X183313395Y-55015739D01*
X183515739Y-54813395D01*
X183687226Y-54584315D01*
X183824367Y-54333161D01*
X183924369Y-54065046D01*
X183985196Y-53785428D01*
X184005610Y-53500000D01*
X183985196Y-53214572D01*
X183924369Y-52934954D01*
X183824367Y-52666839D01*
X183730793Y-52495472D01*
X183687227Y-52415686D01*
X183644354Y-52358415D01*
X183515739Y-52186605D01*
X183313395Y-51984261D01*
X183174726Y-51880455D01*
X183084313Y-51812772D01*
X182833163Y-51675634D01*
X182833162Y-51675633D01*
X182833161Y-51675633D01*
X182580862Y-51581530D01*
X182565041Y-51575629D01*
X182285429Y-51514804D01*
X182000000Y-51494389D01*
X181714570Y-51514804D01*
X181434958Y-51575629D01*
X181166836Y-51675634D01*
X180915686Y-51812772D01*
X180686602Y-51984263D01*
X180484263Y-52186602D01*
X180312772Y-52415686D01*
X180175634Y-52666836D01*
X180075629Y-52934958D01*
X180014804Y-53214570D01*
X179994389Y-53500000D01*
X168675500Y-53500000D01*
X168675500Y-51447379D01*
X168695185Y-51380340D01*
X168747095Y-51334997D01*
X168877830Y-51274035D01*
X169071401Y-51138495D01*
X169238495Y-50971401D01*
X169374035Y-50777830D01*
X169473903Y-50563663D01*
X169535063Y-50335408D01*
X169555659Y-50100000D01*
X171194858Y-50100000D01*
X171215386Y-50347732D01*
X171276413Y-50588721D01*
X171376268Y-50816370D01*
X171476563Y-50969882D01*
X171476564Y-50969882D01*
X172174070Y-50272375D01*
X172176884Y-50285915D01*
X172246442Y-50420156D01*
X172349638Y-50530652D01*
X172478819Y-50609209D01*
X172530002Y-50623549D01*
X171829942Y-51323609D01*
X171829942Y-51323610D01*
X171876766Y-51360055D01*
X172095393Y-51478368D01*
X172330506Y-51559083D01*
X172575707Y-51600000D01*
X172824293Y-51600000D01*
X173069493Y-51559083D01*
X173304606Y-51478368D01*
X173523233Y-51360053D01*
X173570056Y-51323609D01*
X172871568Y-50625121D01*
X172988458Y-50574349D01*
X173105739Y-50478934D01*
X173192928Y-50355415D01*
X173223354Y-50269802D01*
X173923434Y-50969882D01*
X174023730Y-50816369D01*
X174123586Y-50588721D01*
X174184613Y-50347732D01*
X174205141Y-50099999D01*
X174184613Y-49852267D01*
X174123586Y-49611278D01*
X174023730Y-49383630D01*
X173923434Y-49230116D01*
X173225929Y-49927622D01*
X173223116Y-49914085D01*
X173153558Y-49779844D01*
X173050362Y-49669348D01*
X172921181Y-49590791D01*
X172869997Y-49576450D01*
X173570057Y-48876390D01*
X173570056Y-48876388D01*
X173523235Y-48839947D01*
X173304606Y-48721631D01*
X173069493Y-48640916D01*
X172824293Y-48600000D01*
X172575707Y-48600000D01*
X172330506Y-48640916D01*
X172095393Y-48721631D01*
X171876764Y-48839946D01*
X171829942Y-48876388D01*
X171829942Y-48876390D01*
X172528431Y-49574878D01*
X172411542Y-49625651D01*
X172294261Y-49721066D01*
X172207072Y-49844585D01*
X172176645Y-49930196D01*
X171476564Y-49230117D01*
X171376266Y-49383634D01*
X171276413Y-49611278D01*
X171215386Y-49852267D01*
X171194858Y-50100000D01*
X169555659Y-50100000D01*
X169535063Y-49864592D01*
X169473903Y-49636337D01*
X169374035Y-49422171D01*
X169238495Y-49228599D01*
X169071401Y-49061505D01*
X168877830Y-48925965D01*
X168663663Y-48826097D01*
X168602502Y-48809709D01*
X168435407Y-48764936D01*
X168200000Y-48744340D01*
X167964592Y-48764936D01*
X167736336Y-48826097D01*
X167522170Y-48925965D01*
X167328598Y-49061505D01*
X167161505Y-49228598D01*
X167025965Y-49422170D01*
X166926097Y-49636336D01*
X166864936Y-49864592D01*
X166844340Y-50099999D01*
X166864936Y-50335407D01*
X166899309Y-50463687D01*
X166926097Y-50563663D01*
X166933219Y-50578937D01*
X166943711Y-50648011D01*
X166915192Y-50711796D01*
X166908518Y-50719021D01*
X164639360Y-52988181D01*
X164578037Y-53021666D01*
X164551679Y-53024500D01*
X149437229Y-53024500D01*
X149370190Y-53004815D01*
X149349548Y-52988181D01*
X149270891Y-52909524D01*
X149270890Y-52909523D01*
X149127690Y-52819544D01*
X148968059Y-52763687D01*
X148968058Y-52763686D01*
X148968056Y-52763686D01*
X148799999Y-52744750D01*
X148631943Y-52763686D01*
X148472310Y-52819544D01*
X148329108Y-52909524D01*
X148209524Y-53029108D01*
X148119544Y-53172310D01*
X148063686Y-53331943D01*
X148044750Y-53500000D01*
X147347152Y-53500000D01*
X148872895Y-51974257D01*
X148934216Y-51940774D01*
X148946673Y-51938722D01*
X148968059Y-51936313D01*
X149127690Y-51880456D01*
X149270890Y-51790477D01*
X149390477Y-51670890D01*
X149480456Y-51527690D01*
X149536313Y-51368059D01*
X149555249Y-51200000D01*
X149536313Y-51031941D01*
X149480456Y-50872310D01*
X149390477Y-50729110D01*
X149270890Y-50609523D01*
X149127690Y-50519544D01*
X148968059Y-50463687D01*
X148968058Y-50463686D01*
X148968056Y-50463686D01*
X148800000Y-50444750D01*
X148631943Y-50463686D01*
X148472310Y-50519544D01*
X148329108Y-50609524D01*
X148209524Y-50729108D01*
X148119544Y-50872310D01*
X148063686Y-51031943D01*
X148044750Y-51200000D01*
X148064138Y-51372070D01*
X148052084Y-51440892D01*
X148028599Y-51473635D01*
X144054055Y-55448181D01*
X143992732Y-55481666D01*
X143966374Y-55484500D01*
X141387321Y-55484500D01*
X141320282Y-55464815D01*
X141274527Y-55412011D01*
X141264583Y-55342853D01*
X141293608Y-55279297D01*
X141299640Y-55272819D01*
X141582842Y-54989616D01*
X141690654Y-54881803D01*
X141711292Y-54865173D01*
X141714589Y-54863055D01*
X141741547Y-54831943D01*
X141745340Y-54827566D01*
X141751376Y-54821083D01*
X141760275Y-54812184D01*
X141760275Y-54812183D01*
X141760279Y-54812180D01*
X141767835Y-54802084D01*
X141773387Y-54795196D01*
X141776049Y-54792124D01*
X141804130Y-54759718D01*
X141805756Y-54756156D01*
X141819284Y-54733357D01*
X141821629Y-54730226D01*
X141838043Y-54686215D01*
X141841425Y-54678054D01*
X141860930Y-54635344D01*
X141860929Y-54635344D01*
X141860931Y-54635342D01*
X141861486Y-54631477D01*
X141868044Y-54605780D01*
X141869412Y-54602115D01*
X141872762Y-54555269D01*
X141873709Y-54546464D01*
X141874422Y-54541510D01*
X141875500Y-54534011D01*
X141875500Y-54521426D01*
X141875816Y-54512579D01*
X141876334Y-54505338D01*
X141879167Y-54465729D01*
X141878333Y-54461899D01*
X141875500Y-54435541D01*
X141875500Y-50099999D01*
X150644340Y-50099999D01*
X150664936Y-50335407D01*
X150699309Y-50463687D01*
X150726097Y-50563663D01*
X150825965Y-50777830D01*
X150961505Y-50971401D01*
X151128599Y-51138495D01*
X151322170Y-51274035D01*
X151536337Y-51373903D01*
X151764592Y-51435063D01*
X152000000Y-51455659D01*
X152235408Y-51435063D01*
X152463663Y-51373903D01*
X152677830Y-51274035D01*
X152871401Y-51138495D01*
X153038495Y-50971401D01*
X153174035Y-50777830D01*
X153273903Y-50563663D01*
X153335063Y-50335408D01*
X153355659Y-50100000D01*
X153355659Y-50099999D01*
X154994858Y-50099999D01*
X155015386Y-50347732D01*
X155076413Y-50588721D01*
X155176268Y-50816370D01*
X155276563Y-50969882D01*
X155276564Y-50969882D01*
X155974070Y-50272375D01*
X155976884Y-50285915D01*
X156046442Y-50420156D01*
X156149638Y-50530652D01*
X156278819Y-50609209D01*
X156330002Y-50623549D01*
X155629942Y-51323609D01*
X155629942Y-51323610D01*
X155676766Y-51360055D01*
X155895393Y-51478368D01*
X156130506Y-51559083D01*
X156375707Y-51600000D01*
X156624293Y-51600000D01*
X156869493Y-51559083D01*
X157104606Y-51478368D01*
X157323233Y-51360053D01*
X157370056Y-51323609D01*
X156671568Y-50625121D01*
X156788458Y-50574349D01*
X156905739Y-50478934D01*
X156992928Y-50355415D01*
X157023354Y-50269802D01*
X157723434Y-50969882D01*
X157823730Y-50816369D01*
X157923586Y-50588721D01*
X157984613Y-50347732D01*
X158005141Y-50099999D01*
X158744340Y-50099999D01*
X158764936Y-50335407D01*
X158799309Y-50463687D01*
X158826097Y-50563663D01*
X158925965Y-50777830D01*
X159061505Y-50971401D01*
X159228599Y-51138495D01*
X159422170Y-51274035D01*
X159636337Y-51373903D01*
X159864592Y-51435063D01*
X160100000Y-51455659D01*
X160335408Y-51435063D01*
X160563663Y-51373903D01*
X160777830Y-51274035D01*
X160971401Y-51138495D01*
X161138495Y-50971401D01*
X161274035Y-50777830D01*
X161373903Y-50563663D01*
X161435063Y-50335408D01*
X161455659Y-50100000D01*
X163094858Y-50100000D01*
X163115386Y-50347732D01*
X163176413Y-50588721D01*
X163276268Y-50816370D01*
X163376563Y-50969882D01*
X163376564Y-50969882D01*
X164074070Y-50272375D01*
X164076884Y-50285915D01*
X164146442Y-50420156D01*
X164249638Y-50530652D01*
X164378819Y-50609209D01*
X164430002Y-50623549D01*
X163729942Y-51323609D01*
X163729942Y-51323610D01*
X163776766Y-51360055D01*
X163995393Y-51478368D01*
X164230506Y-51559083D01*
X164475707Y-51600000D01*
X164724293Y-51600000D01*
X164969493Y-51559083D01*
X165204606Y-51478368D01*
X165423233Y-51360053D01*
X165470056Y-51323609D01*
X164771568Y-50625121D01*
X164888458Y-50574349D01*
X165005739Y-50478934D01*
X165092928Y-50355415D01*
X165123354Y-50269802D01*
X165823434Y-50969882D01*
X165923730Y-50816369D01*
X166023586Y-50588721D01*
X166084613Y-50347732D01*
X166105141Y-50099999D01*
X166084613Y-49852267D01*
X166023586Y-49611278D01*
X165923730Y-49383630D01*
X165823434Y-49230116D01*
X165125929Y-49927622D01*
X165123116Y-49914085D01*
X165053558Y-49779844D01*
X164950362Y-49669348D01*
X164821181Y-49590791D01*
X164769997Y-49576450D01*
X165470057Y-48876390D01*
X165470056Y-48876388D01*
X165423235Y-48839947D01*
X165204606Y-48721631D01*
X165119112Y-48692281D01*
X165062097Y-48651896D01*
X165035966Y-48587096D01*
X165049017Y-48518456D01*
X165097106Y-48467769D01*
X165119112Y-48457719D01*
X165204606Y-48428368D01*
X165423233Y-48310053D01*
X165470056Y-48273609D01*
X164771568Y-47575121D01*
X164888458Y-47524349D01*
X165005739Y-47428934D01*
X165092928Y-47305415D01*
X165123354Y-47219802D01*
X165823434Y-47919882D01*
X165923730Y-47766369D01*
X166023586Y-47538721D01*
X166084613Y-47297732D01*
X166105141Y-47050000D01*
X166084613Y-46802267D01*
X166023586Y-46561278D01*
X165923730Y-46333630D01*
X165823434Y-46180116D01*
X165125929Y-46877622D01*
X165123116Y-46864085D01*
X165053558Y-46729844D01*
X164950362Y-46619348D01*
X164821181Y-46540791D01*
X164769995Y-46526449D01*
X165470056Y-45826389D01*
X165470056Y-45826387D01*
X165423235Y-45789947D01*
X165204606Y-45671631D01*
X164969493Y-45590916D01*
X164724293Y-45550000D01*
X164475707Y-45550000D01*
X164230506Y-45590916D01*
X163995393Y-45671631D01*
X163776764Y-45789946D01*
X163729942Y-45826388D01*
X163729941Y-45826389D01*
X164428431Y-46524878D01*
X164311542Y-46575651D01*
X164194261Y-46671066D01*
X164107072Y-46794585D01*
X164076645Y-46880197D01*
X163376564Y-46180116D01*
X163276266Y-46333634D01*
X163176413Y-46561278D01*
X163115386Y-46802267D01*
X163094858Y-47050000D01*
X163115386Y-47297732D01*
X163176413Y-47538721D01*
X163276268Y-47766370D01*
X163376563Y-47919882D01*
X163376564Y-47919882D01*
X164074070Y-47222376D01*
X164076884Y-47235915D01*
X164146442Y-47370156D01*
X164249638Y-47480652D01*
X164378819Y-47559209D01*
X164430002Y-47573549D01*
X163729942Y-48273609D01*
X163729942Y-48273610D01*
X163776766Y-48310055D01*
X163995393Y-48428368D01*
X164080887Y-48457719D01*
X164137902Y-48498105D01*
X164164033Y-48562904D01*
X164150981Y-48631544D01*
X164102892Y-48682232D01*
X164080887Y-48692281D01*
X163995393Y-48721631D01*
X163776764Y-48839946D01*
X163729942Y-48876388D01*
X163729942Y-48876390D01*
X164428431Y-49574878D01*
X164311542Y-49625651D01*
X164194261Y-49721066D01*
X164107072Y-49844585D01*
X164076645Y-49930196D01*
X163376564Y-49230117D01*
X163276266Y-49383634D01*
X163176413Y-49611278D01*
X163115386Y-49852267D01*
X163094858Y-50100000D01*
X161455659Y-50100000D01*
X161435063Y-49864592D01*
X161373903Y-49636337D01*
X161274035Y-49422171D01*
X161138495Y-49228599D01*
X160971401Y-49061505D01*
X160777830Y-48925965D01*
X160563663Y-48826097D01*
X160502501Y-48809709D01*
X160335407Y-48764936D01*
X160100000Y-48744340D01*
X159864592Y-48764936D01*
X159636336Y-48826097D01*
X159422170Y-48925965D01*
X159228598Y-49061505D01*
X159061505Y-49228598D01*
X158925965Y-49422170D01*
X158826097Y-49636336D01*
X158764936Y-49864592D01*
X158744340Y-50099999D01*
X158005141Y-50099999D01*
X157984613Y-49852267D01*
X157923586Y-49611278D01*
X157823730Y-49383630D01*
X157723434Y-49230116D01*
X157025929Y-49927622D01*
X157023116Y-49914085D01*
X156953558Y-49779844D01*
X156850362Y-49669348D01*
X156721181Y-49590791D01*
X156669997Y-49576450D01*
X157370057Y-48876390D01*
X157370056Y-48876388D01*
X157323235Y-48839947D01*
X157104606Y-48721631D01*
X156869493Y-48640916D01*
X156624293Y-48600000D01*
X156375707Y-48600000D01*
X156130506Y-48640916D01*
X155895393Y-48721631D01*
X155676764Y-48839946D01*
X155629942Y-48876388D01*
X155629942Y-48876390D01*
X156328431Y-49574878D01*
X156211542Y-49625651D01*
X156094261Y-49721066D01*
X156007072Y-49844585D01*
X155976645Y-49930196D01*
X155276564Y-49230117D01*
X155176266Y-49383634D01*
X155076413Y-49611278D01*
X155015386Y-49852267D01*
X154994858Y-50099999D01*
X153355659Y-50099999D01*
X153335063Y-49864592D01*
X153273903Y-49636337D01*
X153174035Y-49422171D01*
X153038495Y-49228599D01*
X152871401Y-49061505D01*
X152677830Y-48925965D01*
X152463663Y-48826097D01*
X152402502Y-48809709D01*
X152235407Y-48764936D01*
X152000000Y-48744340D01*
X151764592Y-48764936D01*
X151536336Y-48826097D01*
X151322170Y-48925965D01*
X151128598Y-49061505D01*
X150961505Y-49228598D01*
X150825965Y-49422170D01*
X150726097Y-49636336D01*
X150664936Y-49864592D01*
X150644340Y-50099999D01*
X141875500Y-50099999D01*
X141875500Y-47050000D01*
X158744340Y-47050000D01*
X158764936Y-47285407D01*
X158796593Y-47403553D01*
X158826097Y-47513663D01*
X158925965Y-47727830D01*
X159061505Y-47921401D01*
X159228599Y-48088495D01*
X159422170Y-48224035D01*
X159636337Y-48323903D01*
X159864592Y-48385063D01*
X160099999Y-48405659D01*
X160099999Y-48405658D01*
X160100000Y-48405659D01*
X160335408Y-48385063D01*
X160563663Y-48323903D01*
X160777830Y-48224035D01*
X160971401Y-48088495D01*
X161138495Y-47921401D01*
X161274035Y-47727830D01*
X161373903Y-47513663D01*
X161435063Y-47285408D01*
X161455659Y-47050000D01*
X161435063Y-46814592D01*
X161373903Y-46586337D01*
X161274035Y-46372171D01*
X161138495Y-46178599D01*
X160971401Y-46011505D01*
X160777830Y-45875965D01*
X160647094Y-45815001D01*
X160594655Y-45768828D01*
X160575500Y-45702619D01*
X160575500Y-41897379D01*
X160595185Y-41830340D01*
X160647095Y-41784997D01*
X160777830Y-41724035D01*
X160971401Y-41588495D01*
X161138495Y-41421401D01*
X161274035Y-41227830D01*
X161373903Y-41013663D01*
X161435063Y-40785408D01*
X161455659Y-40550000D01*
X163094858Y-40550000D01*
X163115386Y-40797732D01*
X163176413Y-41038721D01*
X163276268Y-41266370D01*
X163376563Y-41419882D01*
X163376564Y-41419882D01*
X164074070Y-40722375D01*
X164076884Y-40735915D01*
X164146442Y-40870156D01*
X164249638Y-40980652D01*
X164378819Y-41059209D01*
X164430002Y-41073549D01*
X163729942Y-41773609D01*
X163729942Y-41773610D01*
X163776766Y-41810055D01*
X163995393Y-41928368D01*
X164230506Y-42009083D01*
X164475707Y-42050000D01*
X164724293Y-42050000D01*
X164969493Y-42009083D01*
X165204606Y-41928368D01*
X165423233Y-41810053D01*
X165470056Y-41773609D01*
X164771568Y-41075121D01*
X164888458Y-41024349D01*
X165005739Y-40928934D01*
X165092928Y-40805415D01*
X165123354Y-40719802D01*
X165823434Y-41419882D01*
X165923730Y-41266369D01*
X166023586Y-41038721D01*
X166084613Y-40797732D01*
X166105141Y-40550000D01*
X166084613Y-40302267D01*
X166023586Y-40061278D01*
X165923730Y-39833630D01*
X165823434Y-39680116D01*
X165125929Y-40377622D01*
X165123116Y-40364085D01*
X165053558Y-40229844D01*
X164950362Y-40119348D01*
X164821181Y-40040791D01*
X164769995Y-40026449D01*
X165470056Y-39326389D01*
X165470056Y-39326387D01*
X165423235Y-39289947D01*
X165204606Y-39171631D01*
X164969493Y-39090916D01*
X164724293Y-39050000D01*
X164475707Y-39050000D01*
X164230506Y-39090916D01*
X163995393Y-39171631D01*
X163776764Y-39289946D01*
X163729942Y-39326388D01*
X163729941Y-39326389D01*
X164428431Y-40024878D01*
X164311542Y-40075651D01*
X164194261Y-40171066D01*
X164107072Y-40294585D01*
X164076645Y-40380196D01*
X163376564Y-39680117D01*
X163276266Y-39833634D01*
X163176413Y-40061278D01*
X163115386Y-40302267D01*
X163094858Y-40550000D01*
X161455659Y-40550000D01*
X161435063Y-40314592D01*
X161373903Y-40086337D01*
X161274035Y-39872171D01*
X161138495Y-39678599D01*
X160971401Y-39511505D01*
X160777830Y-39375965D01*
X160563663Y-39276097D01*
X160502502Y-39259709D01*
X160335407Y-39214936D01*
X160100000Y-39194340D01*
X159864592Y-39214936D01*
X159636336Y-39276097D01*
X159422170Y-39375965D01*
X159228598Y-39511505D01*
X159061505Y-39678598D01*
X158925965Y-39872170D01*
X158826097Y-40086336D01*
X158764936Y-40314592D01*
X158744340Y-40550000D01*
X158764936Y-40785407D01*
X158787645Y-40870156D01*
X158826097Y-41013663D01*
X158925965Y-41227830D01*
X159061505Y-41421401D01*
X159228599Y-41588495D01*
X159422170Y-41724035D01*
X159422173Y-41724037D01*
X159514830Y-41767243D01*
X159552904Y-41784997D01*
X159605344Y-41831169D01*
X159624500Y-41897379D01*
X159624500Y-45702619D01*
X159604815Y-45769658D01*
X159552906Y-45815001D01*
X159422168Y-45875966D01*
X159228598Y-46011505D01*
X159061505Y-46178598D01*
X158925965Y-46372170D01*
X158826097Y-46586336D01*
X158764936Y-46814592D01*
X158744340Y-47050000D01*
X141875500Y-47050000D01*
X141875500Y-43948319D01*
X141895185Y-43881280D01*
X141911814Y-43860643D01*
X145733368Y-40039088D01*
X145794689Y-40005605D01*
X145834931Y-40003551D01*
X145850000Y-40005249D01*
X145850001Y-40005248D01*
X145850002Y-40005249D01*
X145924409Y-39996865D01*
X146018059Y-39986313D01*
X146177690Y-39930456D01*
X146320890Y-39840477D01*
X146440477Y-39720890D01*
X146530456Y-39577690D01*
X146586313Y-39418059D01*
X146605249Y-39250000D01*
X146586313Y-39081941D01*
X146530456Y-38922310D01*
X146440477Y-38779110D01*
X146320890Y-38659523D01*
X146177690Y-38569544D01*
X146177687Y-38569542D01*
X146086330Y-38537575D01*
X146029554Y-38496854D01*
X146003807Y-38431901D01*
X146017263Y-38363339D01*
X146039601Y-38332856D01*
X147872457Y-36500000D01*
X171494356Y-36500000D01*
X171514891Y-36747816D01*
X171514891Y-36747819D01*
X171514892Y-36747821D01*
X171575937Y-36988881D01*
X171620960Y-37091523D01*
X171675825Y-37216604D01*
X171675827Y-37216607D01*
X171811836Y-37424785D01*
X171980256Y-37607738D01*
X171980259Y-37607740D01*
X172176485Y-37760470D01*
X172176487Y-37760471D01*
X172176491Y-37760474D01*
X172395190Y-37878828D01*
X172630386Y-37959571D01*
X172875665Y-38000500D01*
X173124335Y-38000500D01*
X173369614Y-37959571D01*
X173604810Y-37878828D01*
X173823509Y-37760474D01*
X174019744Y-37607738D01*
X174188164Y-37424785D01*
X174324173Y-37216607D01*
X174424063Y-36988881D01*
X174485108Y-36747821D01*
X174505643Y-36500000D01*
X174485108Y-36252179D01*
X174424063Y-36011119D01*
X174324173Y-35783393D01*
X174188164Y-35575215D01*
X174019744Y-35392262D01*
X173926316Y-35319544D01*
X173823514Y-35239529D01*
X173823510Y-35239526D01*
X173823509Y-35239526D01*
X173604810Y-35121172D01*
X173604806Y-35121170D01*
X173604805Y-35121170D01*
X173369615Y-35040429D01*
X173124335Y-34999500D01*
X172875665Y-34999500D01*
X172630384Y-35040429D01*
X172395194Y-35121170D01*
X172176485Y-35239529D01*
X171980259Y-35392259D01*
X171980256Y-35392261D01*
X171980256Y-35392262D01*
X171854279Y-35529110D01*
X171811837Y-35575214D01*
X171675825Y-35783395D01*
X171602988Y-35949448D01*
X171575937Y-36011119D01*
X171536195Y-36168056D01*
X171514891Y-36252183D01*
X171494356Y-36500000D01*
X147872457Y-36500000D01*
X150383369Y-33989088D01*
X150444690Y-33955605D01*
X150484931Y-33953551D01*
X150500000Y-33955249D01*
X150500001Y-33955248D01*
X150500003Y-33955249D01*
X150584029Y-33945780D01*
X150668059Y-33936313D01*
X150827690Y-33880456D01*
X150970890Y-33790477D01*
X151090477Y-33670890D01*
X151180456Y-33527690D01*
X151236313Y-33368059D01*
X151255249Y-33200000D01*
X151236313Y-33031941D01*
X151180456Y-32872310D01*
X151144741Y-32815471D01*
X151125742Y-32748235D01*
X151146110Y-32681400D01*
X151199378Y-32636186D01*
X151249736Y-32625500D01*
X153346000Y-32625500D01*
X153413039Y-32645185D01*
X153458794Y-32697989D01*
X153470000Y-32749500D01*
X153470000Y-33090000D01*
X154386314Y-33090000D01*
X154360507Y-33130156D01*
X154320000Y-33268111D01*
X154320000Y-33411889D01*
X154360507Y-33549844D01*
X154386314Y-33590000D01*
X153470000Y-33590000D01*
X153470000Y-34234518D01*
X153470354Y-34241132D01*
X153476400Y-34297371D01*
X153526647Y-34432089D01*
X153612811Y-34547188D01*
X153727910Y-34633352D01*
X153862628Y-34683599D01*
X153918867Y-34689645D01*
X153925482Y-34690000D01*
X154570000Y-34690000D01*
X154570000Y-33775501D01*
X154677685Y-33824680D01*
X154784237Y-33840000D01*
X154855763Y-33840000D01*
X154962315Y-33824680D01*
X155070000Y-33775501D01*
X155070000Y-34690000D01*
X155714518Y-34690000D01*
X155721132Y-34689645D01*
X155777371Y-34683599D01*
X155912089Y-34633352D01*
X156027188Y-34547188D01*
X156113352Y-34432089D01*
X156163599Y-34297371D01*
X156169645Y-34241132D01*
X156170000Y-34234518D01*
X156170000Y-34126236D01*
X156189685Y-34059197D01*
X156242489Y-34013442D01*
X156311647Y-34003498D01*
X156375203Y-34032523D01*
X156392954Y-34051510D01*
X156469017Y-34152235D01*
X156633437Y-34302124D01*
X156822595Y-34419245D01*
X156822597Y-34419245D01*
X156822599Y-34419247D01*
X157030060Y-34499618D01*
X157248757Y-34540500D01*
X157248759Y-34540500D01*
X157471241Y-34540500D01*
X157471243Y-34540500D01*
X157689940Y-34499618D01*
X157897401Y-34419247D01*
X158086562Y-34302124D01*
X158250981Y-34152236D01*
X158385058Y-33974689D01*
X158484229Y-33775528D01*
X158487239Y-33764952D01*
X158510734Y-33682374D01*
X158548013Y-33623281D01*
X158611322Y-33593723D01*
X158680562Y-33603085D01*
X158733749Y-33648395D01*
X158749266Y-33682374D01*
X158775769Y-33775526D01*
X158874941Y-33974688D01*
X159009019Y-34152237D01*
X159173437Y-34302124D01*
X159362595Y-34419245D01*
X159362597Y-34419245D01*
X159362599Y-34419247D01*
X159570060Y-34499618D01*
X159788757Y-34540500D01*
X159788759Y-34540500D01*
X160011241Y-34540500D01*
X160011243Y-34540500D01*
X160229940Y-34499618D01*
X160437401Y-34419247D01*
X160626562Y-34302124D01*
X160790981Y-34152236D01*
X160925058Y-33974689D01*
X161024229Y-33775528D01*
X161027239Y-33764952D01*
X161073293Y-33603085D01*
X161085115Y-33561536D01*
X161105643Y-33340000D01*
X161085115Y-33118464D01*
X161054027Y-33009202D01*
X161024230Y-32904473D01*
X160925058Y-32705311D01*
X160790980Y-32527762D01*
X160626562Y-32377875D01*
X160437404Y-32260754D01*
X160352053Y-32227689D01*
X160229940Y-32180382D01*
X160011243Y-32139500D01*
X159788757Y-32139500D01*
X159701278Y-32155852D01*
X159570057Y-32180382D01*
X159532079Y-32195095D01*
X159462456Y-32200955D01*
X159400716Y-32168244D01*
X159399607Y-32167148D01*
X158641808Y-31409349D01*
X158625174Y-31388708D01*
X158623055Y-31385411D01*
X158587565Y-31354659D01*
X158581086Y-31348627D01*
X158572180Y-31339721D01*
X158562093Y-31332170D01*
X158555214Y-31326627D01*
X158519718Y-31295870D01*
X158519716Y-31295869D01*
X158516150Y-31294240D01*
X158493369Y-31280722D01*
X158490231Y-31278373D01*
X158446223Y-31261959D01*
X158438045Y-31258571D01*
X158395343Y-31239069D01*
X158394654Y-31238970D01*
X158391458Y-31238510D01*
X158365781Y-31231956D01*
X158362115Y-31230588D01*
X158315275Y-31227237D01*
X158306491Y-31226293D01*
X158294012Y-31224500D01*
X158294011Y-31224500D01*
X158281422Y-31224500D01*
X158272575Y-31224184D01*
X158225729Y-31220833D01*
X158225728Y-31220833D01*
X158221900Y-31221666D01*
X158195541Y-31224500D01*
X149464459Y-31224500D01*
X149438100Y-31221666D01*
X149434271Y-31220833D01*
X149387425Y-31224184D01*
X149378578Y-31224500D01*
X149365988Y-31224500D01*
X149353509Y-31226293D01*
X149344725Y-31227237D01*
X149297883Y-31230589D01*
X149294212Y-31231958D01*
X149268535Y-31238511D01*
X149264657Y-31239068D01*
X149221944Y-31258574D01*
X149213770Y-31261960D01*
X149169773Y-31278370D01*
X149166630Y-31280723D01*
X149143857Y-31294235D01*
X149140284Y-31295867D01*
X149104800Y-31326613D01*
X149097921Y-31332158D01*
X149087818Y-31339722D01*
X149078898Y-31348641D01*
X149072429Y-31354663D01*
X149036944Y-31385411D01*
X149034825Y-31388709D01*
X149018194Y-31409345D01*
X135309345Y-45118194D01*
X135288709Y-45134825D01*
X135270417Y-45146582D01*
X135268601Y-45143757D01*
X135234428Y-45165717D01*
X135164558Y-45165713D01*
X135105782Y-45127935D01*
X135076761Y-45064378D01*
X135075500Y-45046738D01*
X135075500Y-44248320D01*
X135095185Y-44181281D01*
X135111819Y-44160639D01*
X140840557Y-38431901D01*
X146583369Y-32689088D01*
X146644690Y-32655605D01*
X146684931Y-32653551D01*
X146700000Y-32655249D01*
X146700001Y-32655248D01*
X146700003Y-32655249D01*
X146789319Y-32645185D01*
X146868059Y-32636313D01*
X147027690Y-32580456D01*
X147170890Y-32490477D01*
X147290477Y-32370890D01*
X147380456Y-32227690D01*
X147436313Y-32068059D01*
X147455249Y-31900000D01*
X147436313Y-31731941D01*
X147380456Y-31572310D01*
X147290477Y-31429110D01*
X147170890Y-31309523D01*
X147027690Y-31219544D01*
X146868059Y-31163687D01*
X146868058Y-31163686D01*
X146868056Y-31163686D01*
X146700000Y-31144750D01*
X146531943Y-31163686D01*
X146372310Y-31219544D01*
X146229108Y-31309524D01*
X146109524Y-31429108D01*
X146019544Y-31572310D01*
X145963686Y-31731943D01*
X145944750Y-31899999D01*
X145946448Y-31915065D01*
X145934394Y-31983887D01*
X145910909Y-32016630D01*
X134309345Y-43618194D01*
X134288709Y-43634825D01*
X134285411Y-43636944D01*
X134254663Y-43672429D01*
X134248641Y-43678898D01*
X134239722Y-43687818D01*
X134232158Y-43697921D01*
X134226613Y-43704800D01*
X134195867Y-43740284D01*
X134194235Y-43743857D01*
X134180723Y-43766630D01*
X134178370Y-43769773D01*
X134161960Y-43813770D01*
X134158574Y-43821944D01*
X134139068Y-43864657D01*
X134138511Y-43868535D01*
X134131958Y-43894212D01*
X134130589Y-43897883D01*
X134127237Y-43944725D01*
X134126293Y-43953509D01*
X134124500Y-43965988D01*
X134124500Y-43978577D01*
X134124184Y-43987424D01*
X134120833Y-44034269D01*
X134121666Y-44038098D01*
X134124500Y-44064458D01*
X134124500Y-52643357D01*
X134104815Y-52710396D01*
X134065778Y-52748784D01*
X133873435Y-52867877D01*
X133709019Y-53017762D01*
X133574941Y-53195311D01*
X133475769Y-53394473D01*
X133449266Y-53487625D01*
X133411987Y-53546719D01*
X133348677Y-53576276D01*
X133279438Y-53566914D01*
X133226251Y-53521604D01*
X133210734Y-53487625D01*
X133184230Y-53394473D01*
X133085058Y-53195311D01*
X132950980Y-53017762D01*
X132786564Y-52867877D01*
X132594222Y-52748784D01*
X132547587Y-52696756D01*
X132535500Y-52643357D01*
X132535500Y-36557228D01*
X132555185Y-36490189D01*
X132569551Y-36472361D01*
X132570472Y-36470894D01*
X132570477Y-36470890D01*
X132660456Y-36327690D01*
X132716313Y-36168059D01*
X132735249Y-36000000D01*
X132716313Y-35831941D01*
X132660456Y-35672310D01*
X132570477Y-35529110D01*
X132450890Y-35409523D01*
X132307690Y-35319544D01*
X132148059Y-35263687D01*
X132148058Y-35263686D01*
X132148056Y-35263686D01*
X131979999Y-35244750D01*
X131811943Y-35263686D01*
X131652310Y-35319544D01*
X131509108Y-35409524D01*
X131389524Y-35529108D01*
X131299544Y-35672310D01*
X131243686Y-35831943D01*
X131224750Y-36000000D01*
X131243686Y-36168056D01*
X131243686Y-36168058D01*
X131243687Y-36168059D01*
X131299544Y-36327690D01*
X131389523Y-36470890D01*
X131509110Y-36590477D01*
X131526469Y-36601384D01*
X131572761Y-36653717D01*
X131584499Y-36706379D01*
X131584499Y-52382678D01*
X131564814Y-52449717D01*
X131512010Y-52495472D01*
X131442852Y-52505416D01*
X131379296Y-52476391D01*
X131372818Y-52470359D01*
X131111808Y-52209349D01*
X131095174Y-52188708D01*
X131093055Y-52185411D01*
X131057565Y-52154659D01*
X131051086Y-52148627D01*
X131042180Y-52139721D01*
X131032093Y-52132170D01*
X131025214Y-52126627D01*
X130989718Y-52095870D01*
X130989716Y-52095869D01*
X130976246Y-52084197D01*
X130976807Y-52083549D01*
X130939680Y-52051374D01*
X130920000Y-51984341D01*
X130920000Y-30624500D01*
X130939685Y-30557461D01*
X130992489Y-30511706D01*
X131044000Y-30500500D01*
X161998695Y-30500500D01*
X162001257Y-30500525D01*
G37*
%TD.AperFunction*%
%TA.AperFunction,Conductor*%
G36*
X137849868Y-59545185D02*
G01*
X137895623Y-59597989D01*
X137905567Y-59667147D01*
X137876542Y-59730703D01*
X137823784Y-59766541D01*
X137742259Y-59795067D01*
X137672309Y-59819544D01*
X137529108Y-59909524D01*
X137409524Y-60029108D01*
X137319544Y-60172310D01*
X137263686Y-60331943D01*
X137244750Y-60499999D01*
X137263686Y-60668056D01*
X137263686Y-60668058D01*
X137263687Y-60668059D01*
X137319544Y-60827690D01*
X137409523Y-60970890D01*
X137529110Y-61090477D01*
X137672310Y-61180456D01*
X137831941Y-61236313D01*
X137879957Y-61241723D01*
X137999995Y-61255249D01*
X137999997Y-61255248D01*
X138000000Y-61255249D01*
X138015064Y-61253551D01*
X138083884Y-61265603D01*
X138116631Y-61289090D01*
X138818190Y-61990648D01*
X138834823Y-62011287D01*
X138836944Y-62014588D01*
X138872448Y-62045352D01*
X138878926Y-62051384D01*
X138887820Y-62060278D01*
X138897908Y-62067830D01*
X138904778Y-62073367D01*
X138936261Y-62100646D01*
X138940283Y-62104131D01*
X138943839Y-62105755D01*
X138966643Y-62119285D01*
X138969771Y-62121627D01*
X138969774Y-62121628D01*
X139013776Y-62138040D01*
X139021926Y-62141416D01*
X139064658Y-62160931D01*
X139068534Y-62161488D01*
X139094216Y-62168042D01*
X139097885Y-62169411D01*
X139144719Y-62172760D01*
X139153511Y-62173705D01*
X139165989Y-62175500D01*
X139178587Y-62175500D01*
X139187433Y-62175815D01*
X139234270Y-62179166D01*
X139234270Y-62179165D01*
X139234271Y-62179166D01*
X139238096Y-62178334D01*
X139264454Y-62175500D01*
X143961679Y-62175500D01*
X144028718Y-62195185D01*
X144049360Y-62211819D01*
X144096403Y-62258862D01*
X144129888Y-62320185D01*
X144124904Y-62389877D01*
X144083032Y-62445810D01*
X144017568Y-62470227D01*
X143971071Y-62464026D01*
X143799999Y-62444750D01*
X143631943Y-62463686D01*
X143472310Y-62519544D01*
X143329108Y-62609524D01*
X143209524Y-62729108D01*
X143119544Y-62872310D01*
X143063686Y-63031943D01*
X143044750Y-63200000D01*
X143063686Y-63368056D01*
X143063686Y-63368058D01*
X143063687Y-63368059D01*
X143119544Y-63527690D01*
X143209523Y-63670890D01*
X143288182Y-63749548D01*
X143321666Y-63810869D01*
X143324500Y-63837228D01*
X143324500Y-64951679D01*
X143304815Y-65018718D01*
X143288181Y-65039360D01*
X141159360Y-67168181D01*
X141098037Y-67201666D01*
X141071679Y-67204500D01*
X138474500Y-67204500D01*
X138407461Y-67184815D01*
X138361706Y-67132011D01*
X138350500Y-67080500D01*
X138350500Y-66891736D01*
X138340573Y-66823608D01*
X138319254Y-66780000D01*
X138318990Y-66779459D01*
X138307231Y-66710588D01*
X138318991Y-66670539D01*
X138340573Y-66626393D01*
X138344543Y-66599139D01*
X138350500Y-66558263D01*
X138350500Y-65899500D01*
X138370185Y-65832461D01*
X138422989Y-65786706D01*
X138474500Y-65775500D01*
X140887271Y-65775500D01*
X140954310Y-65795185D01*
X140974952Y-65811818D01*
X141053610Y-65890477D01*
X141196810Y-65980456D01*
X141356441Y-66036313D01*
X141524500Y-66055249D01*
X141692559Y-66036313D01*
X141852190Y-65980456D01*
X141995390Y-65890477D01*
X142114977Y-65770890D01*
X142204956Y-65627690D01*
X142260813Y-65468059D01*
X142279749Y-65300000D01*
X142260813Y-65131941D01*
X142204956Y-64972310D01*
X142114977Y-64829110D01*
X141995390Y-64709523D01*
X141852190Y-64619544D01*
X141692559Y-64563687D01*
X141692558Y-64563686D01*
X141692556Y-64563686D01*
X141524499Y-64544750D01*
X141356443Y-64563686D01*
X141196810Y-64619544D01*
X141053608Y-64709524D01*
X140974952Y-64788181D01*
X140913629Y-64821666D01*
X140887271Y-64824500D01*
X138621740Y-64824500D01*
X138554701Y-64804815D01*
X138508946Y-64752011D01*
X138498450Y-64687245D01*
X138499646Y-64676114D01*
X138500000Y-64669518D01*
X138500000Y-64125000D01*
X136974000Y-64125000D01*
X136906961Y-64105315D01*
X136861206Y-64052511D01*
X136850000Y-64001000D01*
X136850000Y-62625000D01*
X137350000Y-62625000D01*
X137350000Y-63625000D01*
X138500000Y-63625000D01*
X138500000Y-63080481D01*
X138499645Y-63073867D01*
X138493599Y-63017628D01*
X138443352Y-62882910D01*
X138357188Y-62767811D01*
X138242089Y-62681647D01*
X138107371Y-62631400D01*
X138051132Y-62625354D01*
X138044518Y-62625000D01*
X137350000Y-62625000D01*
X136850000Y-62625000D01*
X136155482Y-62625000D01*
X136148867Y-62625354D01*
X136092628Y-62631400D01*
X136042834Y-62649973D01*
X135973142Y-62654957D01*
X135911819Y-62621472D01*
X135878334Y-62560149D01*
X135875500Y-62533791D01*
X135875500Y-59649500D01*
X135895185Y-59582461D01*
X135947989Y-59536706D01*
X135999500Y-59525500D01*
X137782829Y-59525500D01*
X137849868Y-59545185D01*
G37*
%TD.AperFunction*%
%TA.AperFunction,Conductor*%
G36*
X134493039Y-60844685D02*
G01*
X134538794Y-60897489D01*
X134550000Y-60949000D01*
X134550000Y-62475000D01*
X134800500Y-62475000D01*
X134867539Y-62494685D01*
X134913294Y-62547489D01*
X134924500Y-62599000D01*
X134924500Y-71351679D01*
X134904815Y-71418718D01*
X134888181Y-71439360D01*
X134639360Y-71688181D01*
X134578037Y-71721666D01*
X134551679Y-71724500D01*
X133921342Y-71724500D01*
X133854303Y-71704815D01*
X133808548Y-71652011D01*
X133798604Y-71582853D01*
X133804298Y-71559552D01*
X133836313Y-71468059D01*
X133855249Y-71300000D01*
X133853216Y-71281961D01*
X133845523Y-71213683D01*
X133836313Y-71131941D01*
X133780456Y-70972310D01*
X133690477Y-70829110D01*
X133570890Y-70709523D01*
X133427690Y-70619544D01*
X133268059Y-70563687D01*
X133268058Y-70563686D01*
X133268056Y-70563686D01*
X133100000Y-70544750D01*
X133084932Y-70546448D01*
X133016110Y-70534393D01*
X132983368Y-70510909D01*
X132886819Y-70414360D01*
X132853334Y-70353037D01*
X132850500Y-70326679D01*
X132850500Y-66397732D01*
X132850499Y-62460152D01*
X132861709Y-62408636D01*
X132866577Y-62397979D01*
X132912337Y-62345179D01*
X132979367Y-62325500D01*
X133142604Y-62325500D01*
X133209643Y-62345185D01*
X133216915Y-62350233D01*
X133307910Y-62418352D01*
X133442628Y-62468599D01*
X133498867Y-62474645D01*
X133505482Y-62475000D01*
X134050000Y-62475000D01*
X134050000Y-60949000D01*
X134069685Y-60881961D01*
X134122489Y-60836206D01*
X134174000Y-60825000D01*
X134426000Y-60825000D01*
X134493039Y-60844685D01*
G37*
%TD.AperFunction*%
%TA.AperFunction,Conductor*%
G36*
X151288718Y-59545185D02*
G01*
X151309360Y-59561819D01*
X155464486Y-63716945D01*
X155497971Y-63778268D01*
X155496071Y-63838560D01*
X155444885Y-64018462D01*
X155424357Y-64239999D01*
X155444885Y-64461537D01*
X155505769Y-64675526D01*
X155604941Y-64874688D01*
X155739019Y-65052237D01*
X155903437Y-65202124D01*
X156026948Y-65278598D01*
X156092599Y-65319247D01*
X156286522Y-65394373D01*
X156341924Y-65436946D01*
X156365514Y-65502713D01*
X156349803Y-65570793D01*
X156299779Y-65619572D01*
X156286526Y-65625624D01*
X156183814Y-65665416D01*
X156092596Y-65700754D01*
X155903437Y-65817875D01*
X155739019Y-65967762D01*
X155604941Y-66145311D01*
X155505769Y-66344473D01*
X155444885Y-66558462D01*
X155424357Y-66780000D01*
X155444885Y-67001537D01*
X155505769Y-67215526D01*
X155604941Y-67414688D01*
X155739019Y-67592237D01*
X155903437Y-67742124D01*
X156101793Y-67864940D01*
X156148429Y-67916968D01*
X156159533Y-67985949D01*
X156131580Y-68049984D01*
X156088921Y-68082749D01*
X155952421Y-68146400D01*
X155758921Y-68281890D01*
X155591890Y-68448921D01*
X155456400Y-68642421D01*
X155356569Y-68856507D01*
X155299364Y-69069999D01*
X155299364Y-69070000D01*
X156196314Y-69070000D01*
X156170507Y-69110156D01*
X156130000Y-69248111D01*
X156130000Y-69391889D01*
X156170507Y-69529844D01*
X156196314Y-69570000D01*
X155299364Y-69570000D01*
X155356569Y-69783492D01*
X155456399Y-69997576D01*
X155591893Y-70191081D01*
X155758918Y-70358106D01*
X155867198Y-70433925D01*
X155910822Y-70488502D01*
X155918015Y-70558001D01*
X155886493Y-70620355D01*
X155826263Y-70655769D01*
X155796074Y-70659500D01*
X155746737Y-70659500D01*
X155678609Y-70669426D01*
X155573515Y-70720802D01*
X155490802Y-70803515D01*
X155439426Y-70908609D01*
X155429500Y-70976736D01*
X155429500Y-71250500D01*
X155409815Y-71317539D01*
X155357011Y-71363294D01*
X155305500Y-71374500D01*
X151698321Y-71374500D01*
X151631282Y-71354815D01*
X151610640Y-71338181D01*
X149889090Y-69616631D01*
X149855605Y-69555308D01*
X149853551Y-69515067D01*
X149855249Y-69500000D01*
X149855248Y-69499997D01*
X149855249Y-69499995D01*
X149841723Y-69379957D01*
X149836313Y-69331941D01*
X149780456Y-69172310D01*
X149690477Y-69029110D01*
X149611818Y-68950451D01*
X149578334Y-68889127D01*
X149575500Y-68862770D01*
X149575500Y-66654453D01*
X149578334Y-66628094D01*
X149578704Y-66626392D01*
X149579166Y-66624270D01*
X149575816Y-66577432D01*
X149575500Y-66568586D01*
X149575500Y-66555990D01*
X149575500Y-66555989D01*
X149573705Y-66543511D01*
X149572760Y-66534716D01*
X149569411Y-66487885D01*
X149568042Y-66484216D01*
X149561488Y-66458534D01*
X149560931Y-66454658D01*
X149541416Y-66411926D01*
X149538038Y-66403771D01*
X149521627Y-66359771D01*
X149519285Y-66356643D01*
X149505755Y-66333839D01*
X149504131Y-66330283D01*
X149500050Y-66325573D01*
X149473367Y-66294778D01*
X149467830Y-66287908D01*
X149460278Y-66277820D01*
X149451384Y-66268926D01*
X149445352Y-66262448D01*
X149429722Y-66244410D01*
X149414589Y-66226945D01*
X149414588Y-66226944D01*
X149411287Y-66224823D01*
X149390648Y-66208190D01*
X144591808Y-61409349D01*
X144575174Y-61388708D01*
X144573055Y-61385411D01*
X144537565Y-61354659D01*
X144531086Y-61348627D01*
X144522180Y-61339721D01*
X144512093Y-61332170D01*
X144505214Y-61326627D01*
X144469718Y-61295870D01*
X144469716Y-61295869D01*
X144466150Y-61294240D01*
X144443369Y-61280722D01*
X144440231Y-61278373D01*
X144412524Y-61268039D01*
X144396219Y-61261957D01*
X144388045Y-61258571D01*
X144345343Y-61239069D01*
X144344654Y-61238970D01*
X144341458Y-61238510D01*
X144315781Y-61231956D01*
X144312115Y-61230588D01*
X144265275Y-61227237D01*
X144256491Y-61226293D01*
X144244012Y-61224500D01*
X144244011Y-61224500D01*
X144231422Y-61224500D01*
X144222575Y-61224184D01*
X144175729Y-61220833D01*
X144175728Y-61220833D01*
X144171900Y-61221666D01*
X144145541Y-61224500D01*
X139448320Y-61224500D01*
X139381281Y-61204815D01*
X139360639Y-61188181D01*
X138789090Y-60616631D01*
X138755605Y-60555308D01*
X138753551Y-60515067D01*
X138755249Y-60500000D01*
X138755248Y-60499997D01*
X138755249Y-60499995D01*
X138736313Y-60331943D01*
X138736313Y-60331941D01*
X138680456Y-60172310D01*
X138590477Y-60029110D01*
X138470890Y-59909523D01*
X138327690Y-59819544D01*
X138176215Y-59766541D01*
X138119441Y-59725820D01*
X138093693Y-59660867D01*
X138107149Y-59592306D01*
X138155536Y-59541903D01*
X138217171Y-59525500D01*
X151221679Y-59525500D01*
X151288718Y-59545185D01*
G37*
%TD.AperFunction*%
%TA.AperFunction,Conductor*%
G36*
X131473504Y-62336551D02*
G01*
X131512816Y-62394311D01*
X131514661Y-62464157D01*
X131482484Y-62520056D01*
X128739360Y-65263181D01*
X128678037Y-65296666D01*
X128651679Y-65299500D01*
X125274500Y-65299500D01*
X125207461Y-65279815D01*
X125161706Y-65227011D01*
X125150500Y-65175500D01*
X125150500Y-65032395D01*
X125170185Y-64965356D01*
X125175234Y-64958084D01*
X125243351Y-64867091D01*
X125293599Y-64732371D01*
X125299645Y-64676132D01*
X125300000Y-64669518D01*
X125300000Y-64125000D01*
X122474919Y-64125000D01*
X122468827Y-64128326D01*
X122399136Y-64123336D01*
X122354798Y-64094839D01*
X122111819Y-63851860D01*
X122078334Y-63790537D01*
X122075500Y-63764179D01*
X122075500Y-63601302D01*
X122075500Y-63373960D01*
X122060365Y-63259001D01*
X122013952Y-63146951D01*
X122006484Y-63077483D01*
X122037759Y-63015004D01*
X122097848Y-62979352D01*
X122128514Y-62975500D01*
X122376000Y-62975500D01*
X122443039Y-62995185D01*
X122488794Y-63047989D01*
X122500000Y-63099500D01*
X122500000Y-63625000D01*
X125300000Y-63625000D01*
X125300000Y-63099500D01*
X125319685Y-63032461D01*
X125372489Y-62986706D01*
X125424000Y-62975500D01*
X129410541Y-62975500D01*
X129436899Y-62978333D01*
X129440729Y-62979167D01*
X129487575Y-62975815D01*
X129496422Y-62975500D01*
X129509011Y-62975500D01*
X129521485Y-62973706D01*
X129530269Y-62972761D01*
X129577115Y-62969411D01*
X129579488Y-62968525D01*
X129580778Y-62968045D01*
X129606465Y-62961488D01*
X129610342Y-62960931D01*
X129653072Y-62941415D01*
X129661207Y-62938045D01*
X129705226Y-62921629D01*
X129708361Y-62919281D01*
X129731153Y-62905757D01*
X129734718Y-62904130D01*
X129770203Y-62873380D01*
X129777084Y-62867835D01*
X129787180Y-62860279D01*
X129793086Y-62854373D01*
X129796083Y-62851376D01*
X129802566Y-62845340D01*
X129838052Y-62814592D01*
X129838052Y-62814591D01*
X129838055Y-62814589D01*
X129840173Y-62811292D01*
X129856803Y-62790654D01*
X130285639Y-62361819D01*
X130346963Y-62328334D01*
X130373321Y-62325500D01*
X131283263Y-62325500D01*
X131370567Y-62312780D01*
X131370998Y-62315740D01*
X131409204Y-62309214D01*
X131473504Y-62336551D01*
G37*
%TD.AperFunction*%
%TD*%
M02*
