%TF.GenerationSoftware,KiCad,Pcbnew,7.0.2-1.fc38*%
%TF.CreationDate,2023-06-06T12:07:16+02:00*%
%TF.ProjectId,gps_compass,6770735f-636f-46d7-9061-73732e6b6963,rev?*%
%TF.SameCoordinates,Original*%
%TF.FileFunction,Copper,L1,Top*%
%TF.FilePolarity,Positive*%
%FSLAX46Y46*%
G04 Gerber Fmt 4.6, Leading zero omitted, Abs format (unit mm)*
G04 Created by KiCad (PCBNEW 7.0.2-1.fc38) date 2023-06-06 12:07:16*
%MOMM*%
%LPD*%
G01*
G04 APERTURE LIST*
G04 Aperture macros list*
%AMRoundRect*
0 Rectangle with rounded corners*
0 $1 Rounding radius*
0 $2 $3 $4 $5 $6 $7 $8 $9 X,Y pos of 4 corners*
0 Add a 4 corners polygon primitive as box body*
4,1,4,$2,$3,$4,$5,$6,$7,$8,$9,$2,$3,0*
0 Add four circle primitives for the rounded corners*
1,1,$1+$1,$2,$3*
1,1,$1+$1,$4,$5*
1,1,$1+$1,$6,$7*
1,1,$1+$1,$8,$9*
0 Add four rect primitives between the rounded corners*
20,1,$1+$1,$2,$3,$4,$5,0*
20,1,$1+$1,$4,$5,$6,$7,0*
20,1,$1+$1,$6,$7,$8,$9,0*
20,1,$1+$1,$8,$9,$2,$3,0*%
G04 Aperture macros list end*
%TA.AperFunction,SMDPad,CuDef*%
%ADD10R,1.800000X1.500000*%
%TD*%
%TA.AperFunction,SMDPad,CuDef*%
%ADD11R,1.500000X1.800000*%
%TD*%
%TA.AperFunction,SMDPad,CuDef*%
%ADD12R,1.600000X2.000000*%
%TD*%
%TA.AperFunction,ComponentPad*%
%ADD13C,1.700000*%
%TD*%
%TA.AperFunction,ComponentPad*%
%ADD14O,1.700000X1.700000*%
%TD*%
%TA.AperFunction,ComponentPad*%
%ADD15R,1.700000X1.700000*%
%TD*%
%TA.AperFunction,SMDPad,CuDef*%
%ADD16RoundRect,0.250000X-0.475000X0.337500X-0.475000X-0.337500X0.475000X-0.337500X0.475000X0.337500X0*%
%TD*%
%TA.AperFunction,ComponentPad*%
%ADD17C,2.000000*%
%TD*%
%TA.AperFunction,SMDPad,CuDef*%
%ADD18RoundRect,0.237500X0.237500X-0.250000X0.237500X0.250000X-0.237500X0.250000X-0.237500X-0.250000X0*%
%TD*%
%TA.AperFunction,SMDPad,CuDef*%
%ADD19RoundRect,0.237500X0.250000X0.237500X-0.250000X0.237500X-0.250000X-0.237500X0.250000X-0.237500X0*%
%TD*%
%TA.AperFunction,SMDPad,CuDef*%
%ADD20RoundRect,0.250000X0.450000X-0.325000X0.450000X0.325000X-0.450000X0.325000X-0.450000X-0.325000X0*%
%TD*%
%TA.AperFunction,SMDPad,CuDef*%
%ADD21RoundRect,0.237500X-0.237500X0.250000X-0.237500X-0.250000X0.237500X-0.250000X0.237500X0.250000X0*%
%TD*%
%TA.AperFunction,ComponentPad*%
%ADD22R,1.800000X1.800000*%
%TD*%
%TA.AperFunction,ComponentPad*%
%ADD23C,1.800000*%
%TD*%
%TA.AperFunction,SMDPad,CuDef*%
%ADD24RoundRect,0.250000X0.475000X-0.337500X0.475000X0.337500X-0.475000X0.337500X-0.475000X-0.337500X0*%
%TD*%
%TA.AperFunction,ComponentPad*%
%ADD25C,0.700000*%
%TD*%
%TA.AperFunction,ComponentPad*%
%ADD26O,1.700000X0.900000*%
%TD*%
%TA.AperFunction,ComponentPad*%
%ADD27O,2.400000X0.900000*%
%TD*%
%TA.AperFunction,ViaPad*%
%ADD28C,0.800000*%
%TD*%
%TA.AperFunction,Conductor*%
%ADD29C,0.250000*%
%TD*%
G04 APERTURE END LIST*
D10*
%TO.P,GPS,1,GND*%
%TO.N,GND*%
X123925000Y-63900000D03*
%TO.P,GPS,2,VCC_IO*%
%TO.N,+3V3*%
X123925000Y-65800000D03*
%TO.P,GPS,3,V_BCKP*%
X123925000Y-67700000D03*
%TO.P,GPS,4,GND*%
%TO.N,GND*%
X123925000Y-69600000D03*
%TO.P,GPS,5,GND*%
X123925000Y-71500000D03*
D11*
%TO.P,GPS,6,GND*%
X126725000Y-74300000D03*
%TO.P,GPS,10,GND*%
X134325000Y-74300000D03*
D10*
%TO.P,GPS,11,GND*%
X137125000Y-71500000D03*
%TO.P,GPS,12,SCL*%
%TO.N,unconnected-(GPS1-SCL-Pad12)*%
X137125000Y-69600000D03*
%TO.P,GPS,13,TXD*%
%TO.N,Net-(GPS1-TXD)*%
X137125000Y-67700000D03*
%TO.P,GPS,14,RXD*%
%TO.N,Net-(GPS1-RXD)*%
X137125000Y-65800000D03*
%TO.P,GPS,15,GND*%
%TO.N,GND*%
X137125000Y-63900000D03*
D11*
%TO.P,GPS,16,GND*%
X134325000Y-61100000D03*
%TO.P,GPS,17,VCC*%
%TO.N,+3V3*%
X132425000Y-61100000D03*
%TO.P,GPS,18,~{RESET}*%
%TO.N,Net-(GPS1-~{RESET})*%
X130525000Y-61100000D03*
%TO.P,GPS,19,EXTINT*%
%TO.N,unconnected-(GPS1-EXTINT-Pad19)*%
X128625000Y-61100000D03*
%TO.P,GPS,20,GND*%
%TO.N,GND*%
X126725000Y-61100000D03*
%TD*%
D12*
%TO.P,En,1,A*%
%TO.N,GND*%
X117800000Y-66700000D03*
%TO.P,En,2,B*%
%TO.N,Net-(ESP32-S1-EN)*%
X117800000Y-61300000D03*
%TD*%
%TO.P,Prog,1,A*%
%TO.N,Net-(ESP32-S1-IO0)*%
X113700000Y-61300000D03*
%TO.P,Prog,2,B*%
%TO.N,GND*%
X113700000Y-66700000D03*
%TD*%
D13*
%TO.P,Serial1,1,Pin_1*%
%TO.N,Net-(ESP32-S1-TXD0{slash}IO1)*%
X159900000Y-33340000D03*
D14*
%TO.P,Serial1,2,Pin_2*%
%TO.N,Net-(ESP32-S1-RXD0{slash}IO3)*%
X157360000Y-33340000D03*
%TO.P,Serial1,3,Pin_3*%
%TO.N,GND*%
X154820000Y-33340000D03*
%TD*%
D15*
%TO.P,LCD,1,Pin_1*%
%TO.N,GND*%
X129520000Y-53830000D03*
D14*
%TO.P,LCD,2,Pin_2*%
%TO.N,VCC*%
X132060000Y-53830000D03*
%TO.P,LCD,3,Pin_3*%
%TO.N,lcd_data*%
X134600000Y-53830000D03*
%TO.P,LCD,4,Pin_4*%
%TO.N,lcd_wr*%
X137140000Y-53830000D03*
%TO.P,LCD,5,Pin_5*%
%TO.N,lcd_cs*%
X139680000Y-53830000D03*
%TD*%
D16*
%TO.P,C4,1*%
%TO.N,+3V3*%
X121200000Y-69762500D03*
%TO.P,C4,2*%
%TO.N,GND*%
X121200000Y-71837500D03*
%TD*%
D17*
%TO.P,SWdown1,1,A*%
%TO.N,B2*%
X168200000Y-56600000D03*
X168200000Y-50100000D03*
%TO.P,SWdown1,2,B*%
%TO.N,GND*%
X172700000Y-56600000D03*
X172700000Y-50100000D03*
%TD*%
D18*
%TO.P,R8,1*%
%TO.N,Net-(J1-CC1)*%
X116500000Y-54812500D03*
%TO.P,R8,2*%
%TO.N,GND*%
X116500000Y-52987500D03*
%TD*%
D15*
%TO.P,GY-271,1,Pin_1*%
%TO.N,VCC*%
X156630000Y-71860000D03*
D14*
%TO.P,GY-271,2,Pin_2*%
%TO.N,GND*%
X156630000Y-69320000D03*
%TO.P,GY-271,3,Pin_3*%
%TO.N,SCL*%
X156630000Y-66780000D03*
%TO.P,GY-271,4,Pin_4*%
%TO.N,SDA*%
X156630000Y-64240000D03*
%TO.P,GY-271,5,Pin_5*%
%TO.N,unconnected-(GY-271-Pin_5-Pad5)*%
X156630000Y-61700000D03*
%TD*%
D17*
%TO.P,SWright1,2,B*%
%TO.N,GND*%
X164600000Y-40550000D03*
X164600000Y-47050000D03*
%TO.P,SWright1,1,A*%
%TO.N,B4*%
X160100000Y-40550000D03*
X160100000Y-47050000D03*
%TD*%
D19*
%TO.P,R7,1*%
%TO.N,Net-(J1-CC2)*%
X110812500Y-52200000D03*
%TO.P,R7,2*%
%TO.N,GND*%
X108987500Y-52200000D03*
%TD*%
D20*
%TO.P,L1,1,1*%
%TO.N,Net-(ESP32-B)*%
X140000000Y-74925000D03*
%TO.P,L1,2,2*%
%TO.N,+3V3*%
X140000000Y-72875000D03*
%TD*%
D17*
%TO.P,SWleft1,1,A*%
%TO.N,B3*%
X160100000Y-56600000D03*
X160100000Y-50100000D03*
%TO.P,SWleft1,2,B*%
%TO.N,GND*%
X164600000Y-56600000D03*
X164600000Y-50100000D03*
%TD*%
D15*
%TO.P,Oled,1,Pin_1*%
%TO.N,GND*%
X138320000Y-57310000D03*
D14*
%TO.P,Oled,2,Pin_2*%
%TO.N,VCC*%
X135780000Y-57310000D03*
%TO.P,Oled,3,Pin_3*%
%TO.N,SCL*%
X133240000Y-57310000D03*
%TO.P,Oled,4,Pin_4*%
%TO.N,SDA*%
X130700000Y-57310000D03*
%TD*%
D17*
%TO.P,SWb1,1,A*%
%TO.N,B6*%
X172200000Y-66550000D03*
X172200000Y-60050000D03*
%TO.P,SWb1,2,B*%
%TO.N,GND*%
X176700000Y-66550000D03*
X176700000Y-60050000D03*
%TD*%
D21*
%TO.P,R4,1*%
%TO.N,Net-(GPS1-~{RESET})*%
X140100000Y-60887500D03*
%TO.P,R4,2*%
%TO.N,+3V3*%
X140100000Y-62712500D03*
%TD*%
D17*
%TO.P,SWa1,1,A*%
%TO.N,B5*%
X160100000Y-66200000D03*
X160100000Y-59700000D03*
%TO.P,SWa1,2,B*%
%TO.N,GND*%
X164600000Y-66200000D03*
X164600000Y-59700000D03*
%TD*%
%TO.P,SWup1,1,A*%
%TO.N,B1*%
X152000000Y-56600000D03*
X152000000Y-50100000D03*
%TO.P,SWup1,2,B*%
%TO.N,GND*%
X156500000Y-56600000D03*
X156500000Y-50100000D03*
%TD*%
D22*
%TO.P,LED,1,K*%
%TO.N,Net-(LED1-K)*%
X114000000Y-44100000D03*
D23*
%TO.P,LED,2,A*%
%TO.N,Net-(ESP32-S1-IO32)*%
X114000000Y-41560000D03*
%TD*%
D24*
%TO.P,C4,1*%
%TO.N,+3V3*%
X140030000Y-70997500D03*
%TO.P,C4,2*%
%TO.N,GND*%
X140030000Y-68922500D03*
%TD*%
%TO.P,C3,1*%
%TO.N,+3V3*%
X121200000Y-67675000D03*
%TO.P,C3,2*%
%TO.N,GND*%
X121200000Y-65600000D03*
%TD*%
D16*
%TO.P,C3,1*%
%TO.N,+3V3*%
X140000000Y-64362500D03*
%TO.P,C3,2*%
%TO.N,GND*%
X140000000Y-66437500D03*
%TD*%
D25*
%TO.P,J1,A1*%
%TO.N,N/C*%
X114325000Y-56475000D03*
%TO.P,J1,A4*%
X114325000Y-55625000D03*
%TO.P,J1,A5,CC1*%
%TO.N,Net-(J1-CC1)*%
X114325000Y-54775000D03*
%TO.P,J1,A6*%
%TO.N,N/C*%
X114325000Y-53925000D03*
%TO.P,J1,A7*%
X114325000Y-53075000D03*
%TO.P,J1,A8*%
X114325000Y-52225000D03*
%TO.P,J1,A9,VBUS*%
%TO.N,Net-(U3-VCC)*%
X114325000Y-51375000D03*
%TO.P,J1,A12,GND*%
%TO.N,GND*%
X114325000Y-50525000D03*
%TO.P,J1,B1*%
%TO.N,N/C*%
X112975000Y-50525000D03*
%TO.P,J1,B4*%
X112975000Y-51375000D03*
%TO.P,J1,B5,CC2*%
%TO.N,Net-(J1-CC2)*%
X112975000Y-52225000D03*
%TO.P,J1,B6*%
%TO.N,N/C*%
X112975000Y-53075000D03*
%TO.P,J1,B7*%
X112975000Y-53925000D03*
%TO.P,J1,B8*%
X112975000Y-54775000D03*
%TO.P,J1,B9,VBUS*%
%TO.N,Net-(U3-VCC)*%
X112975000Y-55625000D03*
%TO.P,J1,B12,GND*%
%TO.N,GND*%
X112975000Y-56475000D03*
D26*
%TO.P,J1,S1,SHIELD*%
X109965000Y-57825000D03*
D27*
X113345000Y-57825000D03*
D26*
X109965000Y-49175000D03*
D27*
X113345000Y-49175000D03*
%TD*%
D28*
%TO.N,VCC*%
X137280000Y-60790000D03*
X135780000Y-55235500D03*
X126560000Y-55190000D03*
X149100000Y-69500000D03*
X131980000Y-36000000D03*
%TO.N,Net-(ESP32-S1-EN)*%
X122100000Y-55000000D03*
%TO.N,B2*%
X148700000Y-52500000D03*
%TO.N,lcd_data*%
X146700000Y-31900000D03*
%TO.N,lcd_wr*%
X145850000Y-39250000D03*
%TO.N,lcd_cs*%
X150500000Y-33200000D03*
%TO.N,Net-(ESP32-S1-IO0)*%
X148800000Y-51200000D03*
%TO.N,Net-(ESP32-S1-RXD0{slash}IO3)*%
X137200000Y-52300000D03*
%TO.N,Net-(ESP32-S1-TXD0{slash}IO1)*%
X135600000Y-52500000D03*
%TO.N,Net-(GPS1-TXD)*%
X143800000Y-63200000D03*
%TO.N,Net-(GPS1-RXD)*%
X141524500Y-65300000D03*
%TO.N,Net-(ESP32-B)*%
X136600000Y-74800000D03*
%TD*%
D29*
%TO.N,VCC*%
X135780000Y-55235500D02*
X133465500Y-55235500D01*
X133465500Y-55235500D02*
X132060000Y-53830000D01*
%TO.N,lcd_data*%
X134600000Y-53830000D02*
X134600000Y-44000000D01*
X134600000Y-44000000D02*
X146700000Y-31900000D01*
%TO.N,Net-(GPS1-TXD)*%
X143800000Y-63200000D02*
X143800000Y-65200000D01*
X141320000Y-67680000D02*
X137145000Y-67680000D01*
X143800000Y-65200000D02*
X141320000Y-67680000D01*
X137145000Y-67680000D02*
X137125000Y-67700000D01*
%TO.N,+3V3*%
X140030000Y-70997500D02*
X140030000Y-72845000D01*
X140030000Y-72845000D02*
X140000000Y-72875000D01*
X140030000Y-70997500D02*
X138452500Y-72575000D01*
X138452500Y-72575000D02*
X129475000Y-72575000D01*
X129475000Y-72575000D02*
X124600000Y-67700000D01*
X124600000Y-67700000D02*
X123925000Y-67700000D01*
%TO.N,Net-(ESP32-S1-RXD0{slash}IO3)*%
X157360000Y-33340000D02*
X156170000Y-32150000D01*
X156170000Y-32150000D02*
X150150000Y-32150000D01*
X150150000Y-32150000D02*
X137200000Y-45100000D01*
X137200000Y-45100000D02*
X137200000Y-52300000D01*
%TO.N,Net-(ESP32-S1-TXD0{slash}IO1)*%
X159900000Y-33340000D02*
X158260000Y-31700000D01*
X158260000Y-31700000D02*
X149400000Y-31700000D01*
X149400000Y-31700000D02*
X135600000Y-45500000D01*
X135600000Y-45500000D02*
X135600000Y-52500000D01*
%TO.N,VCC*%
X137280000Y-60790000D02*
X138190000Y-61700000D01*
X138190000Y-61700000D02*
X144210000Y-61700000D01*
X144210000Y-61700000D02*
X145060000Y-62550000D01*
X145060000Y-62550000D02*
X145060000Y-63434695D01*
X145060000Y-63434695D02*
X149100000Y-67474695D01*
X149100000Y-67474695D02*
X149100000Y-69500000D01*
%TO.N,Net-(ESP32-S1-IO0)*%
X113700000Y-61300000D02*
X115025000Y-62625000D01*
X115025000Y-62625000D02*
X122900000Y-62625000D01*
X122900000Y-62625000D02*
X129565000Y-55960000D01*
X129565000Y-55960000D02*
X144214695Y-55960000D01*
X144214695Y-55960000D02*
X148800000Y-51374695D01*
X148800000Y-51374695D02*
X148800000Y-51200000D01*
%TO.N,lcd_cs*%
X150500000Y-33200000D02*
X140030000Y-43670000D01*
X139680000Y-53830000D02*
X139680000Y-44020000D01*
X139680000Y-44020000D02*
X140030000Y-43670000D01*
%TO.N,lcd_wr*%
X145850000Y-39250000D02*
X141400000Y-43700000D01*
X141400000Y-43700000D02*
X141400000Y-54500000D01*
X141400000Y-54500000D02*
X140425000Y-55475000D01*
X140425000Y-55475000D02*
X138785000Y-55475000D01*
X138785000Y-55475000D02*
X137140000Y-53830000D01*
%TO.N,VCC*%
X132060000Y-53830000D02*
X132060000Y-36080000D01*
X132060000Y-36080000D02*
X131980000Y-36000000D01*
X126560000Y-55190000D02*
X126560000Y-54540000D01*
X126560000Y-54540000D02*
X128445000Y-52655000D01*
X128445000Y-52655000D02*
X130885000Y-52655000D01*
X130885000Y-52655000D02*
X132060000Y-53830000D01*
%TO.N,SCL*%
X133230000Y-57300000D02*
X134530000Y-58600000D01*
X155500000Y-58600000D02*
X157900000Y-61000000D01*
X134530000Y-58600000D02*
X155500000Y-58600000D01*
X157900000Y-61000000D02*
X157900000Y-65520000D01*
X157900000Y-65520000D02*
X156650000Y-66770000D01*
%TO.N,SDA*%
X130700000Y-57310000D02*
X132440000Y-59050000D01*
X132440000Y-59050000D02*
X151470000Y-59050000D01*
X151470000Y-59050000D02*
X156650000Y-64230000D01*
%TO.N,+3V3*%
X139712500Y-62325000D02*
X132500000Y-62325000D01*
X140000000Y-64062500D02*
X140100000Y-64162500D01*
X123925000Y-65800000D02*
X123925000Y-67700000D01*
X132500000Y-62325000D02*
X132425000Y-62250000D01*
X121200000Y-67675000D02*
X121225000Y-67700000D01*
X140100000Y-62712500D02*
X139712500Y-62325000D01*
X121225000Y-67700000D02*
X123925000Y-67700000D01*
X123925000Y-65800000D02*
X128875000Y-65800000D01*
X140100000Y-62712500D02*
X140000000Y-62812500D01*
X140000000Y-62812500D02*
X140000000Y-64062500D01*
X132425000Y-62250000D02*
X132425000Y-61100000D01*
X121200000Y-69762500D02*
X121200000Y-67675000D01*
X128875000Y-65800000D02*
X132425000Y-62250000D01*
%TO.N,Net-(J1-CC1)*%
X114325000Y-54775000D02*
X116462500Y-54775000D01*
X116462500Y-54775000D02*
X116500000Y-54812500D01*
%TO.N,Net-(J1-CC2)*%
X110812500Y-52200000D02*
X112950000Y-52200000D01*
X112950000Y-52200000D02*
X112975000Y-52225000D01*
%TO.N,VCC*%
X151450000Y-71850000D02*
X149100000Y-69500000D01*
X156650000Y-71850000D02*
X151450000Y-71850000D01*
%TO.N,Net-(ESP32-S1-EN)*%
X117800000Y-61300000D02*
X117800000Y-59300000D01*
X117800000Y-59300000D02*
X122100000Y-55000000D01*
%TO.N,B2*%
X148700000Y-52500000D02*
X165800000Y-52500000D01*
X168200000Y-56600000D02*
X168200000Y-50100000D01*
X165800000Y-52500000D02*
X168200000Y-50100000D01*
%TO.N,B4*%
X160100000Y-47050000D02*
X160100000Y-40550000D01*
%TO.N,Net-(GPS1-RXD)*%
X137625000Y-65300000D02*
X137125000Y-65800000D01*
X141524500Y-65300000D02*
X137625000Y-65300000D01*
%TO.N,Net-(GPS1-~{RESET})*%
X130525000Y-61100000D02*
X130525000Y-59950000D01*
X138712500Y-59500000D02*
X140100000Y-60887500D01*
X130975000Y-59500000D02*
X138712500Y-59500000D01*
X130525000Y-59950000D02*
X130975000Y-59500000D01*
%TO.N,Net-(ESP32-B)*%
X139875000Y-74800000D02*
X140000000Y-74925000D01*
X136600000Y-74800000D02*
X139875000Y-74800000D01*
%TD*%
%TA.AperFunction,Conductor*%
%TO.N,GND*%
G36*
X162001257Y-30500525D02*
G01*
X162947901Y-30520094D01*
X162953011Y-30520305D01*
X163879087Y-30577801D01*
X163897278Y-30578945D01*
X163902129Y-30579350D01*
X164653985Y-30657326D01*
X164849055Y-30677829D01*
X164853836Y-30678429D01*
X165526153Y-30776383D01*
X165795853Y-30816209D01*
X165800580Y-30817003D01*
X166426894Y-30934870D01*
X166736102Y-30993855D01*
X166740700Y-30994825D01*
X167335401Y-31132411D01*
X167668110Y-31210447D01*
X167672627Y-31211598D01*
X168110516Y-31332170D01*
X168243065Y-31368667D01*
X168590330Y-31465625D01*
X168594773Y-31466957D01*
X168923636Y-31572310D01*
X169145286Y-31643317D01*
X169222244Y-31668322D01*
X169501104Y-31758928D01*
X169505410Y-31760417D01*
X169886185Y-31899999D01*
X170038580Y-31955863D01*
X170398937Y-32089878D01*
X170403042Y-32091491D01*
X170920237Y-32305720D01*
X171282138Y-32457849D01*
X171286216Y-32459652D01*
X171788126Y-32692295D01*
X172149302Y-32862252D01*
X172153214Y-32864178D01*
X172640376Y-33114941D01*
X172998864Y-33302354D01*
X173002650Y-33304418D01*
X173475229Y-33572938D01*
X173829414Y-33777428D01*
X173833049Y-33779611D01*
X174290897Y-34065414D01*
X174639419Y-34286592D01*
X174642914Y-34288893D01*
X174773489Y-34378106D01*
X175085940Y-34591582D01*
X175427623Y-34829058D01*
X175430978Y-34831474D01*
X175858846Y-35150520D01*
X176192555Y-35403818D01*
X176195657Y-35406254D01*
X176608202Y-35741269D01*
X176717808Y-35831943D01*
X176932862Y-36009853D01*
X176935899Y-36012449D01*
X177332537Y-36362715D01*
X177647356Y-36646178D01*
X177650222Y-36648842D01*
X177838645Y-36829633D01*
X178030761Y-37013968D01*
X178334716Y-37311623D01*
X178337430Y-37314365D01*
X178701468Y-37693769D01*
X178989507Y-38000500D01*
X178993834Y-38005107D01*
X178996386Y-38007909D01*
X179343483Y-38400958D01*
X179623502Y-38725364D01*
X179625891Y-38728218D01*
X179955690Y-39134340D01*
X180222700Y-39471222D01*
X180224927Y-39474118D01*
X180536949Y-39892566D01*
X180790338Y-40241326D01*
X180792403Y-40244257D01*
X181086307Y-40674425D01*
X181325445Y-41034358D01*
X181327349Y-41037314D01*
X181602759Y-41478511D01*
X181827091Y-41848927D01*
X181828836Y-41851901D01*
X182085382Y-42303405D01*
X182294490Y-42683771D01*
X182296027Y-42686661D01*
X182533387Y-43147784D01*
X182726658Y-43537126D01*
X182728090Y-43540111D01*
X182945920Y-44010063D01*
X183123009Y-44407814D01*
X183124289Y-44410792D01*
X183322298Y-44888829D01*
X183482778Y-45294153D01*
X183483908Y-45297119D01*
X183661859Y-45782562D01*
X183805389Y-46194727D01*
X183806373Y-46197672D01*
X183963984Y-46689659D01*
X184090252Y-47107880D01*
X184091094Y-47110797D01*
X184228162Y-47608599D01*
X184336884Y-48032043D01*
X184337587Y-48034925D01*
X184453917Y-48537747D01*
X184544883Y-48965709D01*
X184545452Y-48968551D01*
X184640857Y-49475504D01*
X184713872Y-49907191D01*
X184714312Y-49909987D01*
X184788661Y-50420288D01*
X184843559Y-50854852D01*
X184843874Y-50857595D01*
X184897060Y-51370419D01*
X184933725Y-51807049D01*
X184933921Y-51809734D01*
X184965789Y-52323036D01*
X184965918Y-52325527D01*
X184984218Y-52762151D01*
X184984301Y-52764781D01*
X184994930Y-53278918D01*
X184994956Y-53281481D01*
X184994956Y-53718517D01*
X184994930Y-53721080D01*
X184984301Y-54235217D01*
X184984218Y-54237847D01*
X184965918Y-54674471D01*
X184965789Y-54676962D01*
X184933921Y-55190260D01*
X184933724Y-55192952D01*
X184897060Y-55629580D01*
X184843874Y-56142402D01*
X184843558Y-56145146D01*
X184788661Y-56579711D01*
X184752882Y-56825283D01*
X184716595Y-57074349D01*
X184714319Y-57089968D01*
X184713879Y-57092764D01*
X184676059Y-57316370D01*
X184649838Y-57471404D01*
X184640861Y-57524477D01*
X184545452Y-58031447D01*
X184544882Y-58034290D01*
X184453917Y-58462252D01*
X184337587Y-58965073D01*
X184336883Y-58967955D01*
X184228162Y-59391400D01*
X184091094Y-59889201D01*
X184090252Y-59892118D01*
X183963984Y-60310340D01*
X183806373Y-60802326D01*
X183805389Y-60805271D01*
X183661859Y-61217437D01*
X183483909Y-61702879D01*
X183482778Y-61705845D01*
X183322298Y-62111170D01*
X183124290Y-62589205D01*
X183123010Y-62592184D01*
X182945920Y-62989936D01*
X182728090Y-63459888D01*
X182726657Y-63462873D01*
X182533387Y-63852215D01*
X182296038Y-64313317D01*
X182294450Y-64316300D01*
X182085388Y-64696584D01*
X181828835Y-65148098D01*
X181827090Y-65151071D01*
X181602759Y-65521488D01*
X181327350Y-65962684D01*
X181325445Y-65965640D01*
X181086307Y-66325573D01*
X180792403Y-66755741D01*
X180790338Y-66758672D01*
X180536949Y-67107433D01*
X180224927Y-67525880D01*
X180222700Y-67528776D01*
X179955691Y-67865659D01*
X179625892Y-68271781D01*
X179623502Y-68274635D01*
X179343483Y-68599041D01*
X178996387Y-68992088D01*
X178993834Y-68994891D01*
X178701468Y-69306230D01*
X178337430Y-69685633D01*
X178334715Y-69688375D01*
X178030761Y-69986030D01*
X177650233Y-70351146D01*
X177647356Y-70353820D01*
X177332538Y-70637284D01*
X176935900Y-70987549D01*
X176932863Y-70990145D01*
X176608189Y-71258740D01*
X176195723Y-71593692D01*
X176192525Y-71596203D01*
X175858846Y-71849479D01*
X175430978Y-72168525D01*
X175427624Y-72170940D01*
X175085941Y-72408416D01*
X174642929Y-72711095D01*
X174639419Y-72713407D01*
X174290920Y-72934571D01*
X173833048Y-73220388D01*
X173829387Y-73222586D01*
X173475192Y-73427082D01*
X173002661Y-73695574D01*
X172998852Y-73697651D01*
X172640331Y-73885081D01*
X172153256Y-74135799D01*
X172149303Y-74137745D01*
X171788126Y-74307703D01*
X171286217Y-74540346D01*
X171282123Y-74542155D01*
X170920206Y-74694292D01*
X170403103Y-74908481D01*
X170398874Y-74910143D01*
X170038580Y-75044136D01*
X169505437Y-75239572D01*
X169501077Y-75241079D01*
X169145286Y-75356682D01*
X168594793Y-75533035D01*
X168590309Y-75534379D01*
X168243065Y-75631332D01*
X167672663Y-75788390D01*
X167668061Y-75789563D01*
X167335373Y-75867595D01*
X166740763Y-76005159D01*
X166736049Y-76006154D01*
X166426655Y-76065174D01*
X165800625Y-76182987D01*
X165795807Y-76183796D01*
X165525935Y-76223648D01*
X164853904Y-76321560D01*
X164848988Y-76322177D01*
X164653526Y-76342721D01*
X163902198Y-76420642D01*
X163897196Y-76421059D01*
X163881534Y-76422044D01*
X163878830Y-76422214D01*
X162953017Y-76479693D01*
X162947896Y-76479905D01*
X162001258Y-76499474D01*
X161998695Y-76499500D01*
X128001305Y-76499500D01*
X127998742Y-76499474D01*
X127052104Y-76479905D01*
X127046983Y-76479693D01*
X126121077Y-76422209D01*
X126102805Y-76421059D01*
X126097798Y-76420642D01*
X125346474Y-76342721D01*
X125151010Y-76322177D01*
X125146094Y-76321560D01*
X124474064Y-76223648D01*
X124204191Y-76183796D01*
X124199373Y-76182987D01*
X123573344Y-76065174D01*
X123263950Y-76006154D01*
X123259236Y-76005159D01*
X122664627Y-75867595D01*
X122331937Y-75789563D01*
X122327335Y-75788390D01*
X121756934Y-75631332D01*
X121409689Y-75534379D01*
X121405205Y-75533035D01*
X120854713Y-75356682D01*
X120498922Y-75241079D01*
X120494562Y-75239572D01*
X119961419Y-75044136D01*
X119601124Y-74910144D01*
X119601121Y-74910143D01*
X119601120Y-74910142D01*
X119596894Y-74908482D01*
X119539300Y-74884626D01*
X119079775Y-74694284D01*
X118736537Y-74550000D01*
X125475000Y-74550000D01*
X125475000Y-75244518D01*
X125475354Y-75251132D01*
X125481400Y-75307371D01*
X125531647Y-75442089D01*
X125617811Y-75557188D01*
X125732910Y-75643352D01*
X125867628Y-75693599D01*
X125923867Y-75699645D01*
X125930482Y-75700000D01*
X126475000Y-75700000D01*
X126475000Y-74550000D01*
X126975000Y-74550000D01*
X126975000Y-75700000D01*
X127519518Y-75700000D01*
X127526132Y-75699645D01*
X127582371Y-75693599D01*
X127717089Y-75643352D01*
X127832188Y-75557188D01*
X127918352Y-75442089D01*
X127968599Y-75307371D01*
X127974645Y-75251132D01*
X127975000Y-75244518D01*
X127975000Y-74885055D01*
X128899500Y-74885055D01*
X128940209Y-75050224D01*
X128980867Y-75127690D01*
X129019266Y-75200852D01*
X129113633Y-75307371D01*
X129132072Y-75328184D01*
X129202070Y-75376500D01*
X129272070Y-75424818D01*
X129431128Y-75485140D01*
X129557628Y-75500500D01*
X129561377Y-75500500D01*
X129638623Y-75500500D01*
X129642372Y-75500500D01*
X129768872Y-75485140D01*
X129927930Y-75424818D01*
X130067929Y-75328183D01*
X130180734Y-75200852D01*
X130259790Y-75050225D01*
X130300500Y-74885056D01*
X130300500Y-74714944D01*
X130259790Y-74549775D01*
X130180734Y-74399148D01*
X130067929Y-74271817D01*
X130067928Y-74271816D01*
X130067927Y-74271815D01*
X129927930Y-74175182D01*
X129768872Y-74114860D01*
X129646092Y-74099951D01*
X129646080Y-74099950D01*
X129642372Y-74099500D01*
X129557628Y-74099500D01*
X129553920Y-74099950D01*
X129553907Y-74099951D01*
X129431127Y-74114860D01*
X129272069Y-74175182D01*
X129132072Y-74271815D01*
X129019265Y-74399149D01*
X128940209Y-74549775D01*
X128899500Y-74714944D01*
X128899500Y-74885055D01*
X127975000Y-74885055D01*
X127975000Y-74550000D01*
X126975000Y-74550000D01*
X126475000Y-74550000D01*
X125475000Y-74550000D01*
X118736537Y-74550000D01*
X118717875Y-74542155D01*
X118713782Y-74540346D01*
X118211873Y-74307704D01*
X117850696Y-74137746D01*
X117846742Y-74135799D01*
X117680059Y-74050000D01*
X125475000Y-74050000D01*
X126475000Y-74050000D01*
X126475000Y-72900000D01*
X126975000Y-72900000D01*
X126975000Y-74050000D01*
X127975000Y-74050000D01*
X127975000Y-73355481D01*
X127974645Y-73348867D01*
X127968599Y-73292628D01*
X127918352Y-73157910D01*
X127832188Y-73042811D01*
X127717089Y-72956647D01*
X127582371Y-72906400D01*
X127526132Y-72900354D01*
X127519518Y-72900000D01*
X126975000Y-72900000D01*
X126475000Y-72900000D01*
X125930482Y-72900000D01*
X125923867Y-72900354D01*
X125867628Y-72906400D01*
X125732910Y-72956647D01*
X125617811Y-73042811D01*
X125531647Y-73157910D01*
X125481400Y-73292628D01*
X125475354Y-73348867D01*
X125475000Y-73355481D01*
X125475000Y-74050000D01*
X117680059Y-74050000D01*
X117359668Y-73885081D01*
X117001147Y-73697651D01*
X116997337Y-73695574D01*
X116524807Y-73427082D01*
X116170610Y-73222586D01*
X116166949Y-73220387D01*
X115709079Y-72934571D01*
X115360579Y-72713406D01*
X115357070Y-72711095D01*
X114914060Y-72408417D01*
X114572375Y-72170940D01*
X114569043Y-72168542D01*
X114460359Y-72087500D01*
X119975001Y-72087500D01*
X119975001Y-72221829D01*
X119975321Y-72228111D01*
X119985493Y-72327695D01*
X120040642Y-72494122D01*
X120132683Y-72643345D01*
X120256654Y-72767316D01*
X120405877Y-72859357D01*
X120572303Y-72914506D01*
X120671890Y-72924680D01*
X120678168Y-72924999D01*
X120949999Y-72924999D01*
X120950000Y-72924998D01*
X120950000Y-72087500D01*
X119975001Y-72087500D01*
X114460359Y-72087500D01*
X114141122Y-71849456D01*
X113807461Y-71596193D01*
X113804325Y-71593731D01*
X113391809Y-71258740D01*
X113242144Y-71134926D01*
X113067136Y-70990145D01*
X113064099Y-70987549D01*
X112667462Y-70637284D01*
X112514991Y-70499999D01*
X115494356Y-70499999D01*
X115514891Y-70747816D01*
X115514891Y-70747819D01*
X115514892Y-70747821D01*
X115575937Y-70988881D01*
X115620960Y-71091523D01*
X115675825Y-71216604D01*
X115675827Y-71216607D01*
X115811836Y-71424785D01*
X115980256Y-71607738D01*
X115980259Y-71607740D01*
X116176485Y-71760470D01*
X116176487Y-71760471D01*
X116176491Y-71760474D01*
X116395190Y-71878828D01*
X116630386Y-71959571D01*
X116875665Y-72000500D01*
X117124335Y-72000500D01*
X117369614Y-71959571D01*
X117604810Y-71878828D01*
X117823509Y-71760474D01*
X118019744Y-71607738D01*
X118188164Y-71424785D01*
X118324173Y-71216607D01*
X118424063Y-70988881D01*
X118485108Y-70747821D01*
X118505643Y-70500000D01*
X118485108Y-70252179D01*
X118424063Y-70011119D01*
X118325456Y-69786317D01*
X118324174Y-69783395D01*
X118288208Y-69728345D01*
X118188164Y-69575215D01*
X118019744Y-69392262D01*
X117965446Y-69350000D01*
X117823514Y-69239529D01*
X117823510Y-69239526D01*
X117823509Y-69239526D01*
X117604810Y-69121172D01*
X117604806Y-69121170D01*
X117604805Y-69121170D01*
X117369615Y-69040429D01*
X117124335Y-68999500D01*
X116875665Y-68999500D01*
X116630384Y-69040429D01*
X116395194Y-69121170D01*
X116176485Y-69239529D01*
X115980259Y-69392259D01*
X115980256Y-69392261D01*
X115980256Y-69392262D01*
X115811836Y-69575215D01*
X115784778Y-69616631D01*
X115675825Y-69783395D01*
X115606841Y-69940664D01*
X115575937Y-70011119D01*
X115518910Y-70236313D01*
X115514891Y-70252183D01*
X115494356Y-70499999D01*
X112514991Y-70499999D01*
X112352642Y-70353820D01*
X112349764Y-70351145D01*
X112340862Y-70342604D01*
X112171869Y-70180455D01*
X111969238Y-69986031D01*
X111665282Y-69688375D01*
X111662568Y-69685633D01*
X111298531Y-69306230D01*
X111038296Y-69029108D01*
X111006151Y-68994877D01*
X111003612Y-68992088D01*
X110656516Y-68599040D01*
X110376496Y-68274634D01*
X110374107Y-68271780D01*
X110044309Y-67865659D01*
X109777298Y-67528776D01*
X109775071Y-67525880D01*
X109638865Y-67343216D01*
X109463042Y-67107422D01*
X109458013Y-67100500D01*
X109348668Y-66950000D01*
X112400000Y-66950000D01*
X112400000Y-67744518D01*
X112400354Y-67751132D01*
X112406400Y-67807371D01*
X112456647Y-67942089D01*
X112542811Y-68057188D01*
X112657910Y-68143352D01*
X112792628Y-68193599D01*
X112848867Y-68199645D01*
X112855482Y-68200000D01*
X113450000Y-68200000D01*
X113450000Y-66950000D01*
X113950000Y-66950000D01*
X113950000Y-68200000D01*
X114544518Y-68200000D01*
X114551132Y-68199645D01*
X114607371Y-68193599D01*
X114742089Y-68143352D01*
X114857188Y-68057188D01*
X114943352Y-67942089D01*
X114993599Y-67807371D01*
X114999645Y-67751132D01*
X115000000Y-67744518D01*
X115000000Y-66950000D01*
X116500000Y-66950000D01*
X116500000Y-67744518D01*
X116500354Y-67751132D01*
X116506400Y-67807371D01*
X116556647Y-67942089D01*
X116642811Y-68057188D01*
X116757910Y-68143352D01*
X116892628Y-68193599D01*
X116948867Y-68199645D01*
X116955482Y-68200000D01*
X117550000Y-68200000D01*
X117550000Y-66950000D01*
X118050000Y-66950000D01*
X118050000Y-68200000D01*
X118644518Y-68200000D01*
X118651132Y-68199645D01*
X118707371Y-68193599D01*
X118842089Y-68143352D01*
X118957188Y-68057188D01*
X119043352Y-67942089D01*
X119093599Y-67807371D01*
X119099645Y-67751132D01*
X119100000Y-67744518D01*
X119100000Y-66950000D01*
X118050000Y-66950000D01*
X117550000Y-66950000D01*
X116500000Y-66950000D01*
X115000000Y-66950000D01*
X113950000Y-66950000D01*
X113450000Y-66950000D01*
X112400000Y-66950000D01*
X109348668Y-66950000D01*
X109209643Y-66758648D01*
X109207595Y-66755741D01*
X108998703Y-66449999D01*
X112399999Y-66449999D01*
X112400000Y-66450000D01*
X113450000Y-66450000D01*
X113450000Y-65200000D01*
X113950000Y-65200000D01*
X113950000Y-66450000D01*
X115000000Y-66450000D01*
X116500000Y-66450000D01*
X117550000Y-66450000D01*
X117550000Y-65200000D01*
X118050000Y-65200000D01*
X118050000Y-66450000D01*
X119100000Y-66450000D01*
X119100000Y-65655481D01*
X119099645Y-65648867D01*
X119093599Y-65592628D01*
X119043352Y-65457910D01*
X118962570Y-65350000D01*
X119975000Y-65350000D01*
X120950000Y-65350000D01*
X120950000Y-64512500D01*
X121450000Y-64512500D01*
X121450000Y-65350000D01*
X122424999Y-65350000D01*
X122424999Y-65215670D01*
X122424678Y-65209388D01*
X122414506Y-65109806D01*
X122392011Y-65041922D01*
X122389609Y-64972094D01*
X122424564Y-64913354D01*
X122369077Y-64909382D01*
X122313147Y-64867506D01*
X122306881Y-64858300D01*
X122267316Y-64794154D01*
X122143345Y-64670183D01*
X121994122Y-64578142D01*
X121827696Y-64522993D01*
X121728109Y-64512819D01*
X121721832Y-64512500D01*
X121450000Y-64512500D01*
X120950000Y-64512500D01*
X120678171Y-64512500D01*
X120671888Y-64512821D01*
X120572304Y-64522993D01*
X120405877Y-64578142D01*
X120256654Y-64670183D01*
X120132683Y-64794154D01*
X120040642Y-64943377D01*
X119985493Y-65109803D01*
X119975319Y-65209390D01*
X119975000Y-65215668D01*
X119975000Y-65350000D01*
X118962570Y-65350000D01*
X118957188Y-65342811D01*
X118842089Y-65256647D01*
X118707371Y-65206400D01*
X118651132Y-65200354D01*
X118644518Y-65200000D01*
X118050000Y-65200000D01*
X117550000Y-65200000D01*
X116955482Y-65200000D01*
X116948867Y-65200354D01*
X116892628Y-65206400D01*
X116757910Y-65256647D01*
X116642811Y-65342811D01*
X116556647Y-65457910D01*
X116506400Y-65592628D01*
X116500354Y-65648867D01*
X116500000Y-65655481D01*
X116500000Y-66450000D01*
X115000000Y-66450000D01*
X115000000Y-65655481D01*
X114999645Y-65648867D01*
X114993599Y-65592628D01*
X114943352Y-65457910D01*
X114857188Y-65342811D01*
X114742089Y-65256647D01*
X114607371Y-65206400D01*
X114551132Y-65200354D01*
X114544518Y-65200000D01*
X113950000Y-65200000D01*
X113450000Y-65200000D01*
X112855482Y-65200000D01*
X112848867Y-65200354D01*
X112792628Y-65206400D01*
X112657910Y-65256647D01*
X112542811Y-65342811D01*
X112456647Y-65457910D01*
X112406400Y-65592628D01*
X112400354Y-65648867D01*
X112400000Y-65655481D01*
X112399999Y-66449999D01*
X108998703Y-66449999D01*
X108913692Y-66325574D01*
X108674553Y-65965640D01*
X108672649Y-65962684D01*
X108548225Y-65763362D01*
X108397225Y-65521464D01*
X108396995Y-65521083D01*
X108172879Y-65151024D01*
X108171162Y-65148097D01*
X108114598Y-65048548D01*
X107914612Y-64696584D01*
X107705480Y-64316176D01*
X107704000Y-64313393D01*
X107466613Y-63852215D01*
X107273312Y-63462814D01*
X107271935Y-63459944D01*
X107054072Y-62989921D01*
X107052004Y-62985275D01*
X106876978Y-62592159D01*
X106875728Y-62589251D01*
X106677701Y-62111170D01*
X106653930Y-62051132D01*
X106517193Y-61705774D01*
X106516105Y-61702920D01*
X106338131Y-61217411D01*
X106336697Y-61213294D01*
X106194606Y-60805264D01*
X106193625Y-60802326D01*
X106189676Y-60790000D01*
X106036013Y-60310336D01*
X106008176Y-60218132D01*
X105909735Y-59892082D01*
X105908924Y-59889273D01*
X105771834Y-59391389D01*
X105766900Y-59372170D01*
X105663092Y-58967866D01*
X105662411Y-58965072D01*
X105546082Y-58462251D01*
X105509194Y-58288708D01*
X105463769Y-58075000D01*
X108644529Y-58075000D01*
X108707685Y-58245530D01*
X108809890Y-58409501D01*
X108943003Y-58549535D01*
X109101585Y-58659912D01*
X109279137Y-58736106D01*
X109468395Y-58775000D01*
X109715000Y-58775000D01*
X109715000Y-58125000D01*
X110215000Y-58125000D01*
X110215000Y-58775000D01*
X110410033Y-58775000D01*
X110416298Y-58774682D01*
X110557222Y-58760351D01*
X110741569Y-58702511D01*
X110910503Y-58608746D01*
X111057104Y-58482894D01*
X111175368Y-58330109D01*
X111260458Y-58156641D01*
X111281597Y-58075000D01*
X110531111Y-58075000D01*
X110570610Y-58050543D01*
X110638201Y-57961038D01*
X110668895Y-57853160D01*
X110658546Y-57741479D01*
X110608552Y-57641078D01*
X110536069Y-57575000D01*
X111285471Y-57575000D01*
X111285471Y-57574999D01*
X111222314Y-57404469D01*
X111120109Y-57240498D01*
X110986996Y-57100464D01*
X110828414Y-56990087D01*
X110650862Y-56913893D01*
X110461605Y-56875000D01*
X110215000Y-56875000D01*
X110215000Y-57525000D01*
X109715000Y-57525000D01*
X109715000Y-56875000D01*
X109519967Y-56875000D01*
X109513701Y-56875317D01*
X109372777Y-56889648D01*
X109188430Y-56947488D01*
X109019496Y-57041253D01*
X108872895Y-57167105D01*
X108754631Y-57319890D01*
X108669541Y-57493358D01*
X108648403Y-57575000D01*
X109398889Y-57575000D01*
X109359390Y-57599457D01*
X109291799Y-57688962D01*
X109261105Y-57796840D01*
X109271454Y-57908521D01*
X109321448Y-58008922D01*
X109393931Y-58075000D01*
X108644529Y-58075000D01*
X105463769Y-58075000D01*
X105455112Y-58034274D01*
X105454546Y-58031447D01*
X105440283Y-57955659D01*
X105381082Y-57641078D01*
X105359139Y-57524477D01*
X105352887Y-57487511D01*
X105286103Y-57092664D01*
X105285715Y-57090203D01*
X105211337Y-56579706D01*
X105156426Y-56145036D01*
X105156132Y-56142479D01*
X105102938Y-55629567D01*
X105066263Y-55192812D01*
X105066083Y-55190357D01*
X105034205Y-54676889D01*
X105034083Y-54674546D01*
X105015777Y-54237770D01*
X105015699Y-54235291D01*
X105005070Y-53721079D01*
X105005044Y-53718517D01*
X105005044Y-53281481D01*
X105005070Y-53278919D01*
X105006083Y-53229890D01*
X105015700Y-52764697D01*
X105015777Y-52762235D01*
X105028863Y-52450000D01*
X108000001Y-52450000D01*
X108000001Y-52483497D01*
X108000321Y-52489779D01*
X108010318Y-52587650D01*
X108064546Y-52751301D01*
X108155056Y-52898040D01*
X108276959Y-53019943D01*
X108423698Y-53110453D01*
X108587348Y-53164681D01*
X108685203Y-53174678D01*
X108691520Y-53174999D01*
X108737499Y-53174999D01*
X109237500Y-53174999D01*
X109283497Y-53174999D01*
X109289779Y-53174678D01*
X109387650Y-53164681D01*
X109551301Y-53110453D01*
X109698040Y-53019943D01*
X109819944Y-52898039D01*
X109883621Y-52794802D01*
X109935568Y-52748077D01*
X110004531Y-52736854D01*
X110068613Y-52764697D01*
X110087536Y-52784412D01*
X110143132Y-52856867D01*
X110265757Y-52950959D01*
X110265963Y-52951117D01*
X110409001Y-53010365D01*
X110523960Y-53025500D01*
X110528013Y-53025500D01*
X111096987Y-53025500D01*
X111101040Y-53025500D01*
X111215999Y-53010365D01*
X111359037Y-52951117D01*
X111481867Y-52856867D01*
X111512345Y-52817147D01*
X111583808Y-52724014D01*
X111640235Y-52682811D01*
X111682184Y-52675500D01*
X112197680Y-52675500D01*
X112264719Y-52695185D01*
X112310474Y-52747989D01*
X112320418Y-52817147D01*
X112313622Y-52843470D01*
X112289860Y-52906125D01*
X112269354Y-53075000D01*
X112289860Y-53243872D01*
X112350182Y-53402930D01*
X112368562Y-53429558D01*
X112390446Y-53495913D01*
X112372981Y-53563564D01*
X112368564Y-53570437D01*
X112350182Y-53597067D01*
X112289860Y-53756127D01*
X112269354Y-53924999D01*
X112289860Y-54093872D01*
X112350182Y-54252930D01*
X112368562Y-54279558D01*
X112390446Y-54345913D01*
X112372981Y-54413564D01*
X112368564Y-54420437D01*
X112350182Y-54447067D01*
X112289860Y-54606127D01*
X112269354Y-54775000D01*
X112289860Y-54943872D01*
X112350182Y-55102930D01*
X112368563Y-55129560D01*
X112390446Y-55195915D01*
X112372980Y-55263567D01*
X112368563Y-55270440D01*
X112350182Y-55297069D01*
X112289860Y-55456127D01*
X112269354Y-55625000D01*
X112289860Y-55793874D01*
X112308867Y-55843992D01*
X112314234Y-55913655D01*
X112289982Y-55961297D01*
X112290064Y-55961345D01*
X112289168Y-55962895D01*
X112285080Y-55970928D01*
X112283550Y-55972627D01*
X112194208Y-56127369D01*
X112138995Y-56297300D01*
X112120318Y-56475000D01*
X112138995Y-56652699D01*
X112198236Y-56835025D01*
X112195900Y-56835783D01*
X112208094Y-56886059D01*
X112185238Y-56952085D01*
X112144413Y-56988570D01*
X112049495Y-57041254D01*
X111902895Y-57167105D01*
X111784631Y-57319890D01*
X111699541Y-57493358D01*
X111678403Y-57575000D01*
X112428889Y-57575000D01*
X112389390Y-57599457D01*
X112321799Y-57688962D01*
X112291105Y-57796840D01*
X112301454Y-57908521D01*
X112351448Y-58008922D01*
X112423931Y-58075000D01*
X111674529Y-58075000D01*
X111737685Y-58245530D01*
X111839890Y-58409501D01*
X111973003Y-58549535D01*
X112131585Y-58659912D01*
X112309137Y-58736106D01*
X112498395Y-58775000D01*
X113095000Y-58775000D01*
X113095000Y-58125000D01*
X113595000Y-58125000D01*
X113595000Y-58775000D01*
X114140033Y-58775000D01*
X114146298Y-58774682D01*
X114287222Y-58760351D01*
X114471569Y-58702511D01*
X114640503Y-58608746D01*
X114787104Y-58482894D01*
X114905368Y-58330109D01*
X114990458Y-58156641D01*
X115011597Y-58075000D01*
X114261111Y-58075000D01*
X114300610Y-58050543D01*
X114368201Y-57961038D01*
X114398895Y-57853160D01*
X114388546Y-57741479D01*
X114338552Y-57641078D01*
X114266069Y-57575000D01*
X115015471Y-57575000D01*
X115015471Y-57574999D01*
X114952314Y-57404469D01*
X114850109Y-57240498D01*
X114786445Y-57173523D01*
X114754525Y-57111372D01*
X114761273Y-57041829D01*
X114794091Y-56995278D01*
X114853183Y-56942929D01*
X114949818Y-56802930D01*
X115010140Y-56643872D01*
X115030645Y-56475000D01*
X115010140Y-56306128D01*
X114949818Y-56147070D01*
X114931437Y-56120441D01*
X114909553Y-56054087D01*
X114927018Y-55986435D01*
X114931437Y-55979559D01*
X114936222Y-55972627D01*
X114949818Y-55952930D01*
X115010140Y-55793872D01*
X115030645Y-55625000D01*
X115010140Y-55456128D01*
X115000000Y-55429390D01*
X114995859Y-55418470D01*
X114990492Y-55348807D01*
X115023640Y-55287301D01*
X115084779Y-55253480D01*
X115111801Y-55250500D01*
X115621072Y-55250500D01*
X115688111Y-55270185D01*
X115733866Y-55322989D01*
X115735619Y-55327015D01*
X115748883Y-55359037D01*
X115748884Y-55359038D01*
X115843132Y-55481867D01*
X115937452Y-55554240D01*
X115965963Y-55576117D01*
X116109001Y-55635365D01*
X116223960Y-55650500D01*
X116228013Y-55650500D01*
X116771987Y-55650500D01*
X116776040Y-55650500D01*
X116890999Y-55635365D01*
X117034037Y-55576117D01*
X117156867Y-55481867D01*
X117251117Y-55359037D01*
X117310365Y-55215999D01*
X117325500Y-55101040D01*
X117325500Y-54523960D01*
X117310365Y-54409001D01*
X117251117Y-54265963D01*
X117221848Y-54227818D01*
X117156867Y-54143132D01*
X117084412Y-54087536D01*
X117043209Y-54031108D01*
X117039054Y-53961362D01*
X117073266Y-53900442D01*
X117094802Y-53883621D01*
X117198039Y-53819944D01*
X117319943Y-53698040D01*
X117410453Y-53551301D01*
X117464681Y-53387651D01*
X117474680Y-53289777D01*
X117475000Y-53283499D01*
X117475000Y-53237500D01*
X115525001Y-53237500D01*
X115525001Y-53283497D01*
X115525321Y-53289779D01*
X115535318Y-53387650D01*
X115589546Y-53551301D01*
X115680056Y-53698040D01*
X115801959Y-53819943D01*
X115905198Y-53883621D01*
X115951922Y-53935569D01*
X115963145Y-54004531D01*
X115935301Y-54068614D01*
X115915588Y-54087535D01*
X115843133Y-54143131D01*
X115760375Y-54250986D01*
X115703948Y-54292189D01*
X115661999Y-54299500D01*
X115111801Y-54299500D01*
X115044762Y-54279815D01*
X114999007Y-54227011D01*
X114989063Y-54157853D01*
X114995859Y-54131530D01*
X115010139Y-54093874D01*
X115010138Y-54093874D01*
X115010140Y-54093872D01*
X115030645Y-53925000D01*
X115010140Y-53756128D01*
X114949818Y-53597070D01*
X114931437Y-53570441D01*
X114909553Y-53504087D01*
X114927018Y-53436435D01*
X114931437Y-53429559D01*
X114932481Y-53428046D01*
X114949818Y-53402930D01*
X115010140Y-53243872D01*
X115030645Y-53075000D01*
X115010140Y-52906128D01*
X114949818Y-52747070D01*
X114943212Y-52737500D01*
X115525000Y-52737500D01*
X116250000Y-52737500D01*
X116250000Y-52000000D01*
X116750000Y-52000000D01*
X116750000Y-52737500D01*
X117474999Y-52737500D01*
X117474999Y-52691502D01*
X117474678Y-52685220D01*
X117464681Y-52587349D01*
X117410453Y-52423698D01*
X117319943Y-52276959D01*
X117198040Y-52155056D01*
X117051301Y-52064546D01*
X116887651Y-52010318D01*
X116789777Y-52000319D01*
X116783500Y-52000000D01*
X116750000Y-52000000D01*
X116250000Y-52000000D01*
X116216504Y-52000000D01*
X116210219Y-52000321D01*
X116112349Y-52010318D01*
X115948698Y-52064546D01*
X115801959Y-52155056D01*
X115680056Y-52276959D01*
X115589546Y-52423698D01*
X115535318Y-52587348D01*
X115525319Y-52685222D01*
X115525000Y-52691500D01*
X115525000Y-52737500D01*
X114943212Y-52737500D01*
X114931437Y-52720441D01*
X114909553Y-52654087D01*
X114927018Y-52586435D01*
X114931437Y-52579559D01*
X114932481Y-52578046D01*
X114949818Y-52552930D01*
X115010140Y-52393872D01*
X115030645Y-52225000D01*
X115030435Y-52223274D01*
X115025983Y-52186605D01*
X115010140Y-52056128D01*
X114949818Y-51897070D01*
X114931436Y-51870439D01*
X114909553Y-51804085D01*
X114927018Y-51736433D01*
X114931432Y-51729565D01*
X114949818Y-51702930D01*
X114958063Y-51681191D01*
X114995872Y-51581494D01*
X115010140Y-51543872D01*
X115030645Y-51375000D01*
X115010140Y-51206128D01*
X114991131Y-51156007D01*
X114985765Y-51086345D01*
X115010019Y-51038704D01*
X115009936Y-51038656D01*
X115010846Y-51037079D01*
X115014930Y-51029058D01*
X115016455Y-51027364D01*
X115105791Y-50872630D01*
X115161004Y-50702699D01*
X115179681Y-50525000D01*
X115161004Y-50347300D01*
X115105791Y-50177371D01*
X115076651Y-50126900D01*
X114554975Y-50648577D01*
X114493652Y-50682062D01*
X114449583Y-50681457D01*
X114485387Y-50652905D01*
X114525000Y-50570649D01*
X114525000Y-50479351D01*
X114485387Y-50397095D01*
X114414008Y-50340173D01*
X114347532Y-50325000D01*
X114302468Y-50325000D01*
X114235992Y-50340173D01*
X114164613Y-50397095D01*
X114125000Y-50479351D01*
X114125000Y-50570649D01*
X114164613Y-50652905D01*
X114199501Y-50680727D01*
X114142575Y-50678223D01*
X114095024Y-50648577D01*
X114059127Y-50612680D01*
X114025642Y-50551357D01*
X114030626Y-50481665D01*
X114059127Y-50437318D01*
X114689867Y-49806579D01*
X114751190Y-49773094D01*
X114796372Y-49776325D01*
X114832673Y-49774023D01*
X114905368Y-49680109D01*
X114990458Y-49506640D01*
X115011597Y-49425000D01*
X114261111Y-49425000D01*
X114300610Y-49400543D01*
X114368201Y-49311038D01*
X114398895Y-49203160D01*
X114388546Y-49091479D01*
X114338552Y-48991078D01*
X114266069Y-48925000D01*
X115015471Y-48925000D01*
X115015471Y-48924999D01*
X114952314Y-48754469D01*
X114850109Y-48590498D01*
X114716996Y-48450464D01*
X114558414Y-48340087D01*
X114380862Y-48263893D01*
X114191605Y-48225000D01*
X113595000Y-48225000D01*
X113595000Y-48875000D01*
X113095000Y-48875000D01*
X113095000Y-48225000D01*
X112549967Y-48225000D01*
X112543701Y-48225317D01*
X112402777Y-48239648D01*
X112218430Y-48297488D01*
X112049496Y-48391253D01*
X111902895Y-48517105D01*
X111784631Y-48669890D01*
X111699541Y-48843358D01*
X111678403Y-48925000D01*
X112428889Y-48925000D01*
X112389390Y-48949457D01*
X112321799Y-49038962D01*
X112291105Y-49146840D01*
X112301454Y-49258521D01*
X112351448Y-49358922D01*
X112423931Y-49425000D01*
X111674529Y-49425000D01*
X111737685Y-49595530D01*
X111839890Y-49759501D01*
X111973003Y-49899535D01*
X112131584Y-50009911D01*
X112271463Y-50069939D01*
X112325306Y-50114466D01*
X112346529Y-50181035D01*
X112338504Y-50227860D01*
X112289860Y-50356125D01*
X112269354Y-50525000D01*
X112289860Y-50693872D01*
X112350182Y-50852930D01*
X112368563Y-50879560D01*
X112390446Y-50945915D01*
X112372980Y-51013567D01*
X112368563Y-51020440D01*
X112350182Y-51047069D01*
X112289860Y-51206127D01*
X112269354Y-51375000D01*
X112289860Y-51543874D01*
X112294660Y-51556530D01*
X112300027Y-51626193D01*
X112266879Y-51687699D01*
X112205740Y-51721520D01*
X112178718Y-51724500D01*
X111682184Y-51724500D01*
X111615145Y-51704815D01*
X111583808Y-51675986D01*
X111481867Y-51543132D01*
X111359036Y-51448882D01*
X111216000Y-51389635D01*
X111105058Y-51375029D01*
X111101040Y-51374500D01*
X110523960Y-51374500D01*
X110519942Y-51375028D01*
X110519941Y-51375029D01*
X110408999Y-51389635D01*
X110265963Y-51448882D01*
X110143131Y-51543133D01*
X110087535Y-51615588D01*
X110031107Y-51656790D01*
X109961361Y-51660945D01*
X109900441Y-51626732D01*
X109883621Y-51605198D01*
X109819943Y-51501959D01*
X109698040Y-51380056D01*
X109551301Y-51289546D01*
X109387651Y-51235318D01*
X109289777Y-51225319D01*
X109283500Y-51225000D01*
X109237500Y-51225000D01*
X109237500Y-53174999D01*
X108737499Y-53174999D01*
X108737500Y-53174998D01*
X108737500Y-52450000D01*
X108000001Y-52450000D01*
X105028863Y-52450000D01*
X105034084Y-52325442D01*
X105034204Y-52323119D01*
X105057370Y-51950000D01*
X108000000Y-51950000D01*
X108737500Y-51950000D01*
X108737500Y-51225000D01*
X108691503Y-51225000D01*
X108685219Y-51225321D01*
X108587349Y-51235318D01*
X108423698Y-51289546D01*
X108276959Y-51380056D01*
X108155056Y-51501959D01*
X108064546Y-51648698D01*
X108010318Y-51812348D01*
X108000319Y-51910222D01*
X108000000Y-51916500D01*
X108000000Y-51950000D01*
X105057370Y-51950000D01*
X105066083Y-51809655D01*
X105066267Y-51807131D01*
X105102939Y-51370419D01*
X105156134Y-50857500D01*
X105156434Y-50854897D01*
X105211333Y-50420323D01*
X105285721Y-49909754D01*
X105286096Y-49907376D01*
X105359142Y-49475504D01*
X105368646Y-49425000D01*
X108644529Y-49425000D01*
X108707685Y-49595530D01*
X108809890Y-49759501D01*
X108943003Y-49899535D01*
X109101585Y-50009912D01*
X109279137Y-50086106D01*
X109468395Y-50125000D01*
X109715000Y-50125000D01*
X109715000Y-49475000D01*
X110215000Y-49475000D01*
X110215000Y-50125000D01*
X110410033Y-50125000D01*
X110416298Y-50124682D01*
X110557222Y-50110351D01*
X110741569Y-50052511D01*
X110910503Y-49958746D01*
X111057104Y-49832894D01*
X111175368Y-49680109D01*
X111260458Y-49506641D01*
X111281597Y-49425000D01*
X110531111Y-49425000D01*
X110570610Y-49400543D01*
X110638201Y-49311038D01*
X110668895Y-49203160D01*
X110658546Y-49091479D01*
X110608552Y-48991078D01*
X110536069Y-48925000D01*
X111285471Y-48925000D01*
X111285471Y-48924999D01*
X111222314Y-48754469D01*
X111120109Y-48590498D01*
X110986996Y-48450464D01*
X110828414Y-48340087D01*
X110650862Y-48263893D01*
X110461605Y-48225000D01*
X110215000Y-48225000D01*
X110215000Y-48875000D01*
X109715000Y-48875000D01*
X109715000Y-48225000D01*
X109519967Y-48225000D01*
X109513701Y-48225317D01*
X109372777Y-48239648D01*
X109188430Y-48297488D01*
X109019496Y-48391253D01*
X108872895Y-48517105D01*
X108754631Y-48669890D01*
X108669541Y-48843358D01*
X108648403Y-48925000D01*
X109398889Y-48925000D01*
X109359390Y-48949457D01*
X109291799Y-49038962D01*
X109261105Y-49146840D01*
X109271454Y-49258521D01*
X109321448Y-49358922D01*
X109393931Y-49425000D01*
X108644529Y-49425000D01*
X105368646Y-49425000D01*
X105454555Y-48968504D01*
X105455116Y-48965709D01*
X105546076Y-48537772D01*
X105662418Y-48034896D01*
X105663115Y-48032043D01*
X105771837Y-47608599D01*
X105908938Y-47110675D01*
X105909713Y-47107992D01*
X105915702Y-47088154D01*
X105953921Y-47029671D01*
X106017696Y-47001131D01*
X106034407Y-47000000D01*
X114929793Y-47000000D01*
X114996832Y-47019685D01*
X115036121Y-47060202D01*
X115459822Y-47766370D01*
X117999999Y-51999999D01*
X117999999Y-52000000D01*
X128153962Y-52000000D01*
X128221001Y-52019685D01*
X128266756Y-52072489D01*
X128276700Y-52141647D01*
X128247675Y-52205203D01*
X128228263Y-52223274D01*
X128211631Y-52235722D01*
X128188857Y-52249235D01*
X128185284Y-52250867D01*
X128149800Y-52281613D01*
X128142921Y-52287158D01*
X128132818Y-52294722D01*
X128123898Y-52303641D01*
X128117429Y-52309663D01*
X128081944Y-52340411D01*
X128079825Y-52343709D01*
X128063194Y-52364345D01*
X126269345Y-54158194D01*
X126248709Y-54174825D01*
X126245411Y-54176944D01*
X126214663Y-54212429D01*
X126208641Y-54218898D01*
X126199722Y-54227818D01*
X126192158Y-54237921D01*
X126186613Y-54244800D01*
X126155867Y-54280284D01*
X126154235Y-54283857D01*
X126140723Y-54306630D01*
X126138370Y-54309773D01*
X126121960Y-54353770D01*
X126118574Y-54361944D01*
X126099068Y-54404657D01*
X126098511Y-54408535D01*
X126091958Y-54434212D01*
X126090589Y-54437883D01*
X126087237Y-54484725D01*
X126086293Y-54493509D01*
X126084500Y-54505988D01*
X126084500Y-54518577D01*
X126084184Y-54527423D01*
X126083772Y-54533171D01*
X126081549Y-54564254D01*
X126057130Y-54629718D01*
X126045547Y-54643086D01*
X125969523Y-54719110D01*
X125879544Y-54862310D01*
X125823686Y-55021943D01*
X125804750Y-55190000D01*
X125823686Y-55358056D01*
X125823686Y-55358058D01*
X125823687Y-55358059D01*
X125879544Y-55517690D01*
X125969523Y-55660890D01*
X126089110Y-55780477D01*
X126232310Y-55870456D01*
X126391941Y-55926313D01*
X126560000Y-55945249D01*
X126728059Y-55926313D01*
X126887690Y-55870456D01*
X127030890Y-55780477D01*
X127150477Y-55660890D01*
X127240456Y-55517690D01*
X127296313Y-55358059D01*
X127315249Y-55190000D01*
X127296313Y-55021941D01*
X127240456Y-54862310D01*
X127165607Y-54743189D01*
X127146607Y-54675955D01*
X127166974Y-54609120D01*
X127182915Y-54589543D01*
X128156139Y-53616319D01*
X128217463Y-53582834D01*
X128243821Y-53580000D01*
X129086314Y-53580000D01*
X129060507Y-53620156D01*
X129020000Y-53758111D01*
X129020000Y-53901889D01*
X129060507Y-54039844D01*
X129086314Y-54080000D01*
X128170000Y-54080000D01*
X128170000Y-54724518D01*
X128170354Y-54731132D01*
X128176400Y-54787371D01*
X128226647Y-54922089D01*
X128312811Y-55037188D01*
X128427910Y-55123352D01*
X128562628Y-55173599D01*
X128618867Y-55179645D01*
X128625482Y-55180000D01*
X129270000Y-55180000D01*
X129270000Y-54265501D01*
X129377685Y-54314680D01*
X129484237Y-54330000D01*
X129555763Y-54330000D01*
X129662315Y-54314680D01*
X129770000Y-54265501D01*
X129770000Y-55180000D01*
X130414518Y-55180000D01*
X130421132Y-55179645D01*
X130477371Y-55173599D01*
X130612089Y-55123352D01*
X130727188Y-55037188D01*
X130813352Y-54922089D01*
X130863599Y-54787371D01*
X130869645Y-54731132D01*
X130870000Y-54724518D01*
X130870000Y-54616236D01*
X130889685Y-54549197D01*
X130942489Y-54503442D01*
X131011647Y-54493498D01*
X131075203Y-54522523D01*
X131092954Y-54541510D01*
X131169017Y-54642235D01*
X131333437Y-54792124D01*
X131522595Y-54909245D01*
X131522597Y-54909245D01*
X131522599Y-54909247D01*
X131730060Y-54989618D01*
X131948757Y-55030500D01*
X131948759Y-55030500D01*
X132171241Y-55030500D01*
X132171243Y-55030500D01*
X132389940Y-54989618D01*
X132427915Y-54974905D01*
X132497536Y-54969042D01*
X132559277Y-55001750D01*
X132560391Y-55002850D01*
X132830360Y-55272819D01*
X132863845Y-55334142D01*
X132858861Y-55403834D01*
X132816989Y-55459767D01*
X132751525Y-55484184D01*
X132742679Y-55484500D01*
X129629454Y-55484500D01*
X129603096Y-55481666D01*
X129599271Y-55480833D01*
X129552434Y-55484184D01*
X129543587Y-55484500D01*
X129530986Y-55484500D01*
X129518519Y-55486292D01*
X129509725Y-55487238D01*
X129462885Y-55490588D01*
X129460006Y-55491662D01*
X129459212Y-55491958D01*
X129433536Y-55498511D01*
X129429658Y-55499068D01*
X129386943Y-55518575D01*
X129378771Y-55521961D01*
X129334770Y-55538373D01*
X129331637Y-55540719D01*
X129308849Y-55554240D01*
X129305284Y-55555868D01*
X129305281Y-55555870D01*
X129305282Y-55555870D01*
X129281915Y-55576117D01*
X129269785Y-55586627D01*
X129262902Y-55592174D01*
X129252817Y-55599724D01*
X129243905Y-55608635D01*
X129237436Y-55614657D01*
X129201945Y-55645410D01*
X129199823Y-55648713D01*
X129183192Y-55669348D01*
X122739360Y-62113181D01*
X122678037Y-62146666D01*
X122651679Y-62149500D01*
X119074500Y-62149500D01*
X119007461Y-62129815D01*
X118961706Y-62077011D01*
X118950500Y-62025500D01*
X118950500Y-60266736D01*
X118940573Y-60198609D01*
X118940573Y-60198607D01*
X118889198Y-60093517D01*
X118889197Y-60093516D01*
X118889197Y-60093515D01*
X118806484Y-60010802D01*
X118734271Y-59975500D01*
X118701393Y-59959427D01*
X118701391Y-59959426D01*
X118701390Y-59959426D01*
X118633263Y-59949500D01*
X118633260Y-59949500D01*
X118399500Y-59949500D01*
X118332461Y-59929815D01*
X118286706Y-59877011D01*
X118275500Y-59825500D01*
X118275500Y-59548319D01*
X118295185Y-59481280D01*
X118311814Y-59460643D01*
X121983368Y-55789088D01*
X122044689Y-55755605D01*
X122084931Y-55753551D01*
X122100000Y-55755249D01*
X122100001Y-55755248D01*
X122100002Y-55755249D01*
X122174409Y-55746865D01*
X122268059Y-55736313D01*
X122427690Y-55680456D01*
X122570890Y-55590477D01*
X122690477Y-55470890D01*
X122780456Y-55327690D01*
X122836313Y-55168059D01*
X122855249Y-55000000D01*
X122836313Y-54831941D01*
X122780456Y-54672310D01*
X122690477Y-54529110D01*
X122570890Y-54409523D01*
X122427690Y-54319544D01*
X122268059Y-54263687D01*
X122268058Y-54263686D01*
X122268056Y-54263686D01*
X122099999Y-54244750D01*
X121931943Y-54263686D01*
X121772310Y-54319544D01*
X121629108Y-54409524D01*
X121509524Y-54529108D01*
X121419544Y-54672310D01*
X121363686Y-54831943D01*
X121344750Y-54999999D01*
X121346448Y-55015066D01*
X121334394Y-55083888D01*
X121310909Y-55116631D01*
X117509345Y-58918194D01*
X117488709Y-58934825D01*
X117485411Y-58936944D01*
X117454663Y-58972429D01*
X117448641Y-58978898D01*
X117439722Y-58987818D01*
X117432158Y-58997921D01*
X117426613Y-59004800D01*
X117395867Y-59040284D01*
X117394235Y-59043857D01*
X117380723Y-59066630D01*
X117378370Y-59069773D01*
X117361960Y-59113770D01*
X117358574Y-59121944D01*
X117339068Y-59164657D01*
X117338511Y-59168535D01*
X117331958Y-59194212D01*
X117330589Y-59197883D01*
X117327237Y-59244725D01*
X117326293Y-59253509D01*
X117324500Y-59265988D01*
X117324500Y-59278577D01*
X117324184Y-59287424D01*
X117320833Y-59334269D01*
X117321666Y-59338098D01*
X117324500Y-59364458D01*
X117324500Y-59825500D01*
X117304815Y-59892539D01*
X117252011Y-59938294D01*
X117200500Y-59949500D01*
X116966737Y-59949500D01*
X116898609Y-59959426D01*
X116793515Y-60010802D01*
X116710802Y-60093515D01*
X116659426Y-60198609D01*
X116649500Y-60266736D01*
X116649500Y-62025500D01*
X116629815Y-62092539D01*
X116577011Y-62138294D01*
X116525500Y-62149500D01*
X115273321Y-62149500D01*
X115206282Y-62129815D01*
X115185640Y-62113181D01*
X114886819Y-61814360D01*
X114853334Y-61753037D01*
X114850500Y-61726679D01*
X114850500Y-60266736D01*
X114840573Y-60198609D01*
X114840573Y-60198607D01*
X114789198Y-60093517D01*
X114789197Y-60093516D01*
X114789197Y-60093515D01*
X114706484Y-60010802D01*
X114634271Y-59975500D01*
X114601393Y-59959427D01*
X114601391Y-59959426D01*
X114601390Y-59959426D01*
X114533263Y-59949500D01*
X114533260Y-59949500D01*
X112866740Y-59949500D01*
X112866737Y-59949500D01*
X112798609Y-59959426D01*
X112693515Y-60010802D01*
X112610802Y-60093515D01*
X112559426Y-60198609D01*
X112549500Y-60266736D01*
X112549500Y-62333263D01*
X112559426Y-62401390D01*
X112559426Y-62401391D01*
X112559427Y-62401393D01*
X112572441Y-62428013D01*
X112610802Y-62506484D01*
X112693515Y-62589197D01*
X112693516Y-62589197D01*
X112693517Y-62589198D01*
X112798607Y-62640573D01*
X112825860Y-62644543D01*
X112866737Y-62650500D01*
X112866740Y-62650500D01*
X114326679Y-62650500D01*
X114393718Y-62670185D01*
X114414360Y-62686819D01*
X114643193Y-62915652D01*
X114659825Y-62936291D01*
X114661945Y-62939589D01*
X114697451Y-62970354D01*
X114703914Y-62976373D01*
X114712815Y-62985275D01*
X114712818Y-62985277D01*
X114712820Y-62985279D01*
X114722916Y-62992837D01*
X114729787Y-62998374D01*
X114765282Y-63029130D01*
X114768842Y-63030756D01*
X114791635Y-63044279D01*
X114794774Y-63046629D01*
X114838759Y-63063034D01*
X114846938Y-63066422D01*
X114889653Y-63085929D01*
X114889658Y-63085931D01*
X114893535Y-63086488D01*
X114919215Y-63093042D01*
X114922885Y-63094411D01*
X114969732Y-63097761D01*
X114978514Y-63098706D01*
X114990989Y-63100500D01*
X115003578Y-63100500D01*
X115012424Y-63100815D01*
X115059271Y-63104167D01*
X115063100Y-63103333D01*
X115089459Y-63100500D01*
X122401000Y-63100500D01*
X122468039Y-63120185D01*
X122513794Y-63172989D01*
X122525000Y-63224500D01*
X122525000Y-63650000D01*
X123675000Y-63650000D01*
X123675000Y-63649999D01*
X124174999Y-63649999D01*
X124175000Y-63650000D01*
X125324999Y-63650000D01*
X125325000Y-63105481D01*
X125324645Y-63098867D01*
X125318599Y-63042628D01*
X125268352Y-62907910D01*
X125182188Y-62792811D01*
X125067089Y-62706647D01*
X124932371Y-62656400D01*
X124876132Y-62650354D01*
X124869518Y-62650000D01*
X124175000Y-62650000D01*
X124174999Y-63649999D01*
X123675000Y-63649999D01*
X123675000Y-62630122D01*
X123665425Y-62612587D01*
X123670409Y-62542895D01*
X123698910Y-62498548D01*
X124847458Y-61350000D01*
X125475000Y-61350000D01*
X125475000Y-62044518D01*
X125475354Y-62051132D01*
X125481400Y-62107371D01*
X125531647Y-62242089D01*
X125617811Y-62357188D01*
X125732910Y-62443352D01*
X125867628Y-62493599D01*
X125923867Y-62499645D01*
X125930482Y-62500000D01*
X126475000Y-62500000D01*
X126475000Y-61350000D01*
X125475000Y-61350000D01*
X124847458Y-61350000D01*
X125323548Y-60873910D01*
X125384871Y-60840425D01*
X125454563Y-60845409D01*
X125461707Y-60850000D01*
X126474999Y-60850000D01*
X126475000Y-59773819D01*
X126494685Y-59706780D01*
X126511314Y-59686143D01*
X129338692Y-56858765D01*
X129400011Y-56825283D01*
X129469703Y-56830267D01*
X129525636Y-56872139D01*
X129550053Y-56937603D01*
X129545636Y-56980382D01*
X129514884Y-57088465D01*
X129494357Y-57309999D01*
X129494357Y-57310000D01*
X129501018Y-57381889D01*
X129514885Y-57531537D01*
X129575769Y-57745526D01*
X129674941Y-57944688D01*
X129809019Y-58122237D01*
X129973437Y-58272124D01*
X130162595Y-58389245D01*
X130162597Y-58389245D01*
X130162599Y-58389247D01*
X130370060Y-58469618D01*
X130588757Y-58510500D01*
X130588759Y-58510500D01*
X130811241Y-58510500D01*
X130811243Y-58510500D01*
X131029940Y-58469618D01*
X131067915Y-58454905D01*
X131137536Y-58449042D01*
X131199277Y-58481750D01*
X131200391Y-58482850D01*
X131530360Y-58812819D01*
X131563845Y-58874142D01*
X131558861Y-58943834D01*
X131516989Y-58999767D01*
X131451525Y-59024184D01*
X131442679Y-59024500D01*
X131039459Y-59024500D01*
X131013100Y-59021666D01*
X131009271Y-59020833D01*
X130962425Y-59024184D01*
X130953578Y-59024500D01*
X130940988Y-59024500D01*
X130928509Y-59026293D01*
X130919725Y-59027237D01*
X130872883Y-59030589D01*
X130869212Y-59031958D01*
X130843535Y-59038511D01*
X130839657Y-59039068D01*
X130796944Y-59058574D01*
X130788770Y-59061960D01*
X130744773Y-59078370D01*
X130741630Y-59080723D01*
X130718857Y-59094235D01*
X130715284Y-59095867D01*
X130679800Y-59126613D01*
X130672921Y-59132158D01*
X130662818Y-59139722D01*
X130653898Y-59148641D01*
X130647429Y-59154663D01*
X130611944Y-59185411D01*
X130609825Y-59188709D01*
X130593194Y-59209345D01*
X130234345Y-59568194D01*
X130213709Y-59584825D01*
X130210411Y-59586944D01*
X130179663Y-59622429D01*
X130173641Y-59628898D01*
X130164722Y-59637818D01*
X130157158Y-59647921D01*
X130151613Y-59654800D01*
X130120867Y-59690284D01*
X130119235Y-59693857D01*
X130105723Y-59716630D01*
X130103370Y-59719773D01*
X130086960Y-59763770D01*
X130083583Y-59771926D01*
X130081271Y-59776991D01*
X130035525Y-59829803D01*
X129968489Y-59849500D01*
X129741737Y-59849500D01*
X129673605Y-59859426D01*
X129629458Y-59881008D01*
X129560585Y-59892766D01*
X129520542Y-59881008D01*
X129476394Y-59859426D01*
X129408263Y-59849500D01*
X129408260Y-59849500D01*
X127882396Y-59849500D01*
X127815357Y-59829815D01*
X127808085Y-59824767D01*
X127717089Y-59756647D01*
X127582371Y-59706400D01*
X127526132Y-59700354D01*
X127519518Y-59700000D01*
X126975000Y-59700000D01*
X126975000Y-62500000D01*
X127519518Y-62500000D01*
X127526132Y-62499645D01*
X127582371Y-62493599D01*
X127717089Y-62443352D01*
X127808085Y-62375233D01*
X127873549Y-62350816D01*
X127882396Y-62350500D01*
X129408263Y-62350500D01*
X129449139Y-62344543D01*
X129476393Y-62340573D01*
X129520540Y-62318990D01*
X129589412Y-62307231D01*
X129629459Y-62318990D01*
X129673607Y-62340573D01*
X129690640Y-62343054D01*
X129741737Y-62350500D01*
X129741740Y-62350500D01*
X131308263Y-62350500D01*
X131340843Y-62345753D01*
X131410020Y-62355566D01*
X131462910Y-62401221D01*
X131482721Y-62468223D01*
X131463163Y-62535300D01*
X131446402Y-62556138D01*
X128714360Y-65288181D01*
X128653037Y-65321666D01*
X128626679Y-65324500D01*
X125299500Y-65324500D01*
X125232461Y-65304815D01*
X125186706Y-65252011D01*
X125175500Y-65200500D01*
X125175500Y-65057395D01*
X125195185Y-64990356D01*
X125200234Y-64983084D01*
X125268351Y-64892091D01*
X125318599Y-64757371D01*
X125324645Y-64701132D01*
X125325000Y-64694518D01*
X125325000Y-64150000D01*
X122525000Y-64150000D01*
X122525000Y-64694518D01*
X122525354Y-64701132D01*
X122533066Y-64772861D01*
X122530268Y-64773161D01*
X122533584Y-64819572D01*
X122500094Y-64880893D01*
X122498113Y-64881974D01*
X122557320Y-64888418D01*
X122608983Y-64928605D01*
X122649766Y-64983083D01*
X122674184Y-65048547D01*
X122674500Y-65057395D01*
X122674499Y-66583263D01*
X122684426Y-66651394D01*
X122706008Y-66695542D01*
X122717766Y-66764415D01*
X122706008Y-66804458D01*
X122684426Y-66848605D01*
X122674500Y-66916736D01*
X122674500Y-67100500D01*
X122654815Y-67167539D01*
X122602011Y-67213294D01*
X122550500Y-67224500D01*
X122361025Y-67224500D01*
X122293986Y-67204815D01*
X122248231Y-67152011D01*
X122246464Y-67147953D01*
X122239861Y-67132011D01*
X122199536Y-67034659D01*
X122117460Y-66927695D01*
X122103282Y-66909217D01*
X121989720Y-66822079D01*
X121948517Y-66765651D01*
X121944362Y-66695905D01*
X121978574Y-66634985D01*
X122000110Y-66618164D01*
X122143345Y-66529816D01*
X122267316Y-66405845D01*
X122359357Y-66256622D01*
X122414506Y-66090196D01*
X122424680Y-65990609D01*
X122425000Y-65984331D01*
X122425000Y-65850000D01*
X119975001Y-65850000D01*
X119975001Y-65984329D01*
X119975321Y-65990611D01*
X119985493Y-66090195D01*
X120040642Y-66256622D01*
X120132683Y-66405845D01*
X120256653Y-66529815D01*
X120399890Y-66618164D01*
X120446614Y-66670112D01*
X120457837Y-66739075D01*
X120429993Y-66803157D01*
X120410279Y-66822079D01*
X120296717Y-66909217D01*
X120200463Y-67034659D01*
X120139956Y-67180737D01*
X120128683Y-67266369D01*
X120124500Y-67298139D01*
X120124500Y-67302191D01*
X120124500Y-67302192D01*
X120124500Y-68047805D01*
X120124500Y-68047820D01*
X120124501Y-68051860D01*
X120125029Y-68055873D01*
X120125030Y-68055884D01*
X120139955Y-68169260D01*
X120200464Y-68315341D01*
X120296717Y-68440782D01*
X120422159Y-68537036D01*
X120583320Y-68603791D01*
X120581739Y-68607607D01*
X120618955Y-68624064D01*
X120657435Y-68682383D01*
X120658276Y-68752248D01*
X120621213Y-68811477D01*
X120581805Y-68830050D01*
X120583321Y-68833708D01*
X120422158Y-68900464D01*
X120296717Y-68996717D01*
X120200463Y-69122159D01*
X120139956Y-69268237D01*
X120134049Y-69313109D01*
X120124500Y-69385639D01*
X120124500Y-69389691D01*
X120124500Y-69389692D01*
X120124500Y-70135305D01*
X120124500Y-70135320D01*
X120124501Y-70139360D01*
X120125029Y-70143373D01*
X120125030Y-70143384D01*
X120139955Y-70256760D01*
X120200464Y-70402841D01*
X120296717Y-70528282D01*
X120410279Y-70615420D01*
X120451482Y-70671848D01*
X120455637Y-70741594D01*
X120421425Y-70802514D01*
X120399890Y-70819334D01*
X120256655Y-70907682D01*
X120132683Y-71031654D01*
X120040642Y-71180877D01*
X119985493Y-71347303D01*
X119975319Y-71446890D01*
X119975000Y-71453168D01*
X119975000Y-71587500D01*
X121326000Y-71587500D01*
X121393039Y-71607185D01*
X121438794Y-71659989D01*
X121450000Y-71711500D01*
X121450000Y-72924999D01*
X121721829Y-72924999D01*
X121728111Y-72924678D01*
X121827695Y-72914506D01*
X121994122Y-72859357D01*
X122143345Y-72767316D01*
X122267316Y-72643345D01*
X122365242Y-72484580D01*
X122417189Y-72437855D01*
X122486152Y-72426632D01*
X122550234Y-72454475D01*
X122568221Y-72479868D01*
X122570963Y-72477816D01*
X122667811Y-72607188D01*
X122782910Y-72693352D01*
X122917628Y-72743599D01*
X122973867Y-72749645D01*
X122980482Y-72750000D01*
X123675000Y-72750000D01*
X123675000Y-72749999D01*
X124174999Y-72749999D01*
X124175000Y-72750000D01*
X124869518Y-72750000D01*
X124876132Y-72749645D01*
X124932371Y-72743599D01*
X125067089Y-72693352D01*
X125182188Y-72607188D01*
X125268352Y-72492089D01*
X125318599Y-72357371D01*
X125324645Y-72301132D01*
X125325000Y-72294518D01*
X125325000Y-71750000D01*
X124175000Y-71750000D01*
X124174999Y-72749999D01*
X123675000Y-72749999D01*
X123675000Y-71250000D01*
X124174999Y-71250000D01*
X125324999Y-71250000D01*
X125325000Y-70705481D01*
X125324646Y-70698885D01*
X125318597Y-70642621D01*
X125300214Y-70593335D01*
X125295228Y-70523643D01*
X125300214Y-70506665D01*
X125318597Y-70457378D01*
X125324646Y-70401114D01*
X125325000Y-70394518D01*
X125325000Y-69850000D01*
X124175000Y-69850000D01*
X124174999Y-71250000D01*
X123675000Y-71250000D01*
X123675000Y-69850000D01*
X122525000Y-69850000D01*
X122525000Y-70394518D01*
X122525354Y-70401132D01*
X122531400Y-70457373D01*
X122549786Y-70506667D01*
X122554770Y-70576359D01*
X122549786Y-70593333D01*
X122531400Y-70642626D01*
X122525354Y-70698867D01*
X122525000Y-70705481D01*
X122525000Y-71012188D01*
X122505315Y-71079227D01*
X122452511Y-71124982D01*
X122383353Y-71134926D01*
X122319797Y-71105901D01*
X122295461Y-71077285D01*
X122267315Y-71031653D01*
X122143346Y-70907684D01*
X122000109Y-70819335D01*
X121953385Y-70767387D01*
X121942162Y-70698424D01*
X121970006Y-70634342D01*
X121989715Y-70615424D01*
X122103282Y-70528282D01*
X122199536Y-70402841D01*
X122260044Y-70256762D01*
X122275500Y-70139361D01*
X122275499Y-69385640D01*
X122260044Y-69268238D01*
X122199536Y-69122159D01*
X122159513Y-69070000D01*
X122103282Y-68996717D01*
X121977840Y-68900463D01*
X121816680Y-68833709D01*
X121818260Y-68829893D01*
X121781018Y-68813412D01*
X121742554Y-68755082D01*
X121741732Y-68685218D01*
X121778812Y-68625999D01*
X121818194Y-68607450D01*
X121816679Y-68603792D01*
X121863283Y-68584487D01*
X121977841Y-68537036D01*
X122103282Y-68440782D01*
X122199536Y-68315341D01*
X122225752Y-68252048D01*
X122269594Y-68197644D01*
X122335888Y-68175579D01*
X122340314Y-68175500D01*
X122550500Y-68175500D01*
X122617539Y-68195185D01*
X122663294Y-68247989D01*
X122674500Y-68299500D01*
X122674500Y-68442604D01*
X122654815Y-68509643D01*
X122649767Y-68516915D01*
X122581647Y-68607910D01*
X122531400Y-68742628D01*
X122525354Y-68798867D01*
X122525000Y-68805481D01*
X122525000Y-69350000D01*
X125325000Y-69350000D01*
X125344463Y-69330536D01*
X125344685Y-69329781D01*
X125348685Y-69326314D01*
X125361319Y-69313681D01*
X125362222Y-69314584D01*
X125397489Y-69284026D01*
X125466647Y-69274082D01*
X125530203Y-69303107D01*
X125536666Y-69309125D01*
X127333442Y-71105901D01*
X129093193Y-72865652D01*
X129109825Y-72886291D01*
X129111945Y-72889589D01*
X129147451Y-72920354D01*
X129153914Y-72926373D01*
X129162815Y-72935275D01*
X129162818Y-72935277D01*
X129162820Y-72935279D01*
X129172916Y-72942837D01*
X129179787Y-72948374D01*
X129215282Y-72979130D01*
X129218842Y-72980756D01*
X129241635Y-72994279D01*
X129244774Y-72996629D01*
X129288759Y-73013034D01*
X129296938Y-73016422D01*
X129339653Y-73035929D01*
X129339658Y-73035931D01*
X129343535Y-73036488D01*
X129369215Y-73043042D01*
X129372885Y-73044411D01*
X129419732Y-73047761D01*
X129428514Y-73048706D01*
X129440989Y-73050500D01*
X129453578Y-73050500D01*
X129462424Y-73050815D01*
X129509271Y-73054167D01*
X129513100Y-73053333D01*
X129539459Y-73050500D01*
X132993116Y-73050500D01*
X133060155Y-73070185D01*
X133105910Y-73122989D01*
X133115854Y-73192147D01*
X133109298Y-73217834D01*
X133081400Y-73292628D01*
X133075354Y-73348867D01*
X133075000Y-73355481D01*
X133075000Y-74051313D01*
X133055315Y-74118352D01*
X133002511Y-74164107D01*
X132933353Y-74174051D01*
X132907030Y-74167255D01*
X132768874Y-74114860D01*
X132646092Y-74099951D01*
X132646080Y-74099950D01*
X132642372Y-74099500D01*
X132557628Y-74099500D01*
X132553920Y-74099950D01*
X132553907Y-74099951D01*
X132431127Y-74114860D01*
X132272069Y-74175182D01*
X132132072Y-74271815D01*
X132019265Y-74399149D01*
X131940209Y-74549775D01*
X131899500Y-74714944D01*
X131899500Y-74885055D01*
X131940209Y-75050224D01*
X131980867Y-75127690D01*
X132019266Y-75200852D01*
X132113633Y-75307371D01*
X132132072Y-75328184D01*
X132202070Y-75376500D01*
X132272070Y-75424818D01*
X132431128Y-75485140D01*
X132557628Y-75500500D01*
X132561377Y-75500500D01*
X132638623Y-75500500D01*
X132642372Y-75500500D01*
X132768872Y-75485140D01*
X132927930Y-75424818D01*
X132955521Y-75405772D01*
X133021872Y-75383890D01*
X133089524Y-75401354D01*
X133125227Y-75433512D01*
X133217811Y-75557188D01*
X133332910Y-75643352D01*
X133467628Y-75693599D01*
X133523867Y-75699645D01*
X133530482Y-75700000D01*
X134075000Y-75700000D01*
X134075000Y-74550000D01*
X134575000Y-74550000D01*
X134575000Y-75700000D01*
X135119518Y-75700000D01*
X135126132Y-75699645D01*
X135182371Y-75693599D01*
X135317089Y-75643352D01*
X135432188Y-75557188D01*
X135518352Y-75442089D01*
X135568599Y-75307371D01*
X135574645Y-75251132D01*
X135575000Y-75244518D01*
X135575000Y-74550000D01*
X134575000Y-74550000D01*
X134075000Y-74550000D01*
X134075000Y-74174000D01*
X134094685Y-74106961D01*
X134147489Y-74061206D01*
X134199000Y-74050000D01*
X135575000Y-74050000D01*
X135575000Y-73355481D01*
X135574645Y-73348867D01*
X135568599Y-73292628D01*
X135540702Y-73217834D01*
X135535718Y-73148142D01*
X135569202Y-73086819D01*
X135630525Y-73053334D01*
X135656884Y-73050500D01*
X138388041Y-73050500D01*
X138414399Y-73053333D01*
X138418229Y-73054167D01*
X138465075Y-73050815D01*
X138473922Y-73050500D01*
X138486511Y-73050500D01*
X138498985Y-73048706D01*
X138507769Y-73047761D01*
X138554615Y-73044411D01*
X138556988Y-73043525D01*
X138558278Y-73043045D01*
X138583965Y-73036488D01*
X138587842Y-73035931D01*
X138630572Y-73016415D01*
X138638707Y-73013045D01*
X138682726Y-72996629D01*
X138685861Y-72994281D01*
X138708653Y-72980757D01*
X138712218Y-72979130D01*
X138744297Y-72951332D01*
X138807851Y-72922307D01*
X138877010Y-72932250D01*
X138929815Y-72978004D01*
X138949500Y-73045043D01*
X138949500Y-73235305D01*
X138949500Y-73235320D01*
X138949501Y-73239360D01*
X138950029Y-73243373D01*
X138950030Y-73243384D01*
X138964955Y-73356760D01*
X139025464Y-73502841D01*
X139121717Y-73628282D01*
X139247158Y-73724535D01*
X139247159Y-73724536D01*
X139393238Y-73785044D01*
X139393239Y-73785044D01*
X139394190Y-73785438D01*
X139448594Y-73829279D01*
X139470659Y-73895573D01*
X139453380Y-73963272D01*
X139402243Y-74010883D01*
X139394191Y-74014560D01*
X139247158Y-74075463D01*
X139121717Y-74171717D01*
X139041710Y-74275986D01*
X138985282Y-74317189D01*
X138943334Y-74324500D01*
X137237229Y-74324500D01*
X137170190Y-74304815D01*
X137149548Y-74288181D01*
X137070891Y-74209524D01*
X137070891Y-74209523D01*
X137070890Y-74209523D01*
X136927690Y-74119544D01*
X136768059Y-74063687D01*
X136768058Y-74063686D01*
X136768056Y-74063686D01*
X136599999Y-74044750D01*
X136431943Y-74063686D01*
X136272310Y-74119544D01*
X136129108Y-74209524D01*
X136009524Y-74329108D01*
X135919544Y-74472310D01*
X135863686Y-74631943D01*
X135844750Y-74799999D01*
X135863686Y-74968056D01*
X135863686Y-74968058D01*
X135863687Y-74968059D01*
X135919544Y-75127690D01*
X136009523Y-75270890D01*
X136129110Y-75390477D01*
X136272310Y-75480456D01*
X136431941Y-75536313D01*
X136543980Y-75548936D01*
X136599999Y-75555249D01*
X136599999Y-75555248D01*
X136600000Y-75555249D01*
X136768059Y-75536313D01*
X136927690Y-75480456D01*
X137070890Y-75390477D01*
X137149547Y-75311819D01*
X137210871Y-75278334D01*
X137237229Y-75275500D01*
X138838930Y-75275500D01*
X138905969Y-75295185D01*
X138951724Y-75347989D01*
X138961869Y-75383317D01*
X138964955Y-75406760D01*
X139025464Y-75552841D01*
X139121717Y-75678282D01*
X139247158Y-75774535D01*
X139247159Y-75774536D01*
X139393238Y-75835044D01*
X139510639Y-75850500D01*
X140489360Y-75850499D01*
X140606762Y-75835044D01*
X140752841Y-75774536D01*
X140878282Y-75678282D01*
X140974536Y-75552841D01*
X141035044Y-75406762D01*
X141050500Y-75289361D01*
X141050499Y-74560640D01*
X141035044Y-74443238D01*
X141034323Y-74441497D01*
X162609981Y-74441497D01*
X162650690Y-74606666D01*
X162707520Y-74714944D01*
X162729747Y-74757294D01*
X162842552Y-74884625D01*
X162842553Y-74884626D01*
X162912551Y-74932942D01*
X162982551Y-74981260D01*
X163141609Y-75041582D01*
X163268109Y-75056942D01*
X163271858Y-75056942D01*
X163349104Y-75056942D01*
X163352853Y-75056942D01*
X163479353Y-75041582D01*
X163638411Y-74981260D01*
X163778410Y-74884625D01*
X163891215Y-74757294D01*
X163970271Y-74606667D01*
X164010981Y-74441498D01*
X164010981Y-74271386D01*
X163970271Y-74106217D01*
X163891215Y-73955590D01*
X163860174Y-73920552D01*
X165564405Y-73920552D01*
X165605114Y-74085721D01*
X165651447Y-74174000D01*
X165684171Y-74236349D01*
X165796976Y-74363680D01*
X165936975Y-74460315D01*
X166096033Y-74520637D01*
X166222533Y-74535997D01*
X166226282Y-74535997D01*
X166303528Y-74535997D01*
X166307277Y-74535997D01*
X166433777Y-74520637D01*
X166592835Y-74460315D01*
X166732834Y-74363680D01*
X166845639Y-74236349D01*
X166924695Y-74085722D01*
X166965405Y-73920553D01*
X166965405Y-73750441D01*
X166924695Y-73585272D01*
X166845639Y-73434645D01*
X166732834Y-73307314D01*
X166732833Y-73307313D01*
X166732832Y-73307312D01*
X166592835Y-73210679D01*
X166433777Y-73150357D01*
X166310997Y-73135448D01*
X166310985Y-73135447D01*
X166307277Y-73134997D01*
X166222533Y-73134997D01*
X166218825Y-73135447D01*
X166218812Y-73135448D01*
X166096032Y-73150357D01*
X165936974Y-73210679D01*
X165796977Y-73307312D01*
X165684170Y-73434646D01*
X165605114Y-73585272D01*
X165564405Y-73750441D01*
X165564405Y-73920552D01*
X163860174Y-73920552D01*
X163778410Y-73828259D01*
X163778409Y-73828258D01*
X163778408Y-73828257D01*
X163638411Y-73731624D01*
X163479353Y-73671302D01*
X163356573Y-73656393D01*
X163356561Y-73656392D01*
X163352853Y-73655942D01*
X163268109Y-73655942D01*
X163264401Y-73656392D01*
X163264388Y-73656393D01*
X163141608Y-73671302D01*
X162982550Y-73731624D01*
X162842553Y-73828257D01*
X162729746Y-73955591D01*
X162650690Y-74106217D01*
X162609981Y-74271386D01*
X162609981Y-74441497D01*
X141034323Y-74441497D01*
X140974536Y-74297159D01*
X140927875Y-74236349D01*
X140878282Y-74171717D01*
X140752841Y-74075464D01*
X140694535Y-74051313D01*
X140606762Y-74014956D01*
X140606761Y-74014955D01*
X140605808Y-74014561D01*
X140551405Y-73970720D01*
X140529340Y-73904426D01*
X140546619Y-73836727D01*
X140597756Y-73789116D01*
X140605808Y-73785439D01*
X140606762Y-73785044D01*
X140752841Y-73724536D01*
X140878282Y-73628282D01*
X140974536Y-73502841D01*
X141035044Y-73356762D01*
X141050500Y-73239361D01*
X141050499Y-72510640D01*
X141035044Y-72393238D01*
X140974536Y-72247159D01*
X140934772Y-72195337D01*
X140878282Y-72121717D01*
X140800426Y-72061977D01*
X140759223Y-72005549D01*
X140755068Y-71935803D01*
X140789280Y-71874883D01*
X140800426Y-71865225D01*
X140807838Y-71859536D01*
X140807841Y-71859536D01*
X140933282Y-71763282D01*
X141029536Y-71637841D01*
X141090044Y-71491762D01*
X141105500Y-71374361D01*
X141105499Y-70620640D01*
X141090044Y-70503238D01*
X141029536Y-70357159D01*
X140952499Y-70256762D01*
X140933282Y-70231717D01*
X140819720Y-70144579D01*
X140778517Y-70088151D01*
X140774362Y-70018405D01*
X140808574Y-69957485D01*
X140830110Y-69940664D01*
X140973345Y-69852316D01*
X141097316Y-69728345D01*
X141189357Y-69579122D01*
X141244506Y-69412696D01*
X141254680Y-69313109D01*
X141255000Y-69306831D01*
X141255000Y-69172500D01*
X138805001Y-69172500D01*
X138805001Y-69306829D01*
X138805321Y-69313111D01*
X138815493Y-69412695D01*
X138870642Y-69579122D01*
X138962683Y-69728345D01*
X139086653Y-69852315D01*
X139229890Y-69940664D01*
X139276614Y-69992612D01*
X139287837Y-70061575D01*
X139259993Y-70125657D01*
X139240279Y-70144579D01*
X139126717Y-70231717D01*
X139030463Y-70357159D01*
X138969956Y-70503237D01*
X138958095Y-70593335D01*
X138954500Y-70620639D01*
X138954500Y-70624691D01*
X138954500Y-70624692D01*
X138954500Y-71349177D01*
X138934815Y-71416216D01*
X138918181Y-71436858D01*
X138641359Y-71713681D01*
X138580036Y-71747166D01*
X138553678Y-71750000D01*
X135725000Y-71750000D01*
X135725000Y-71975500D01*
X135705315Y-72042539D01*
X135652511Y-72088294D01*
X135601000Y-72099500D01*
X129723321Y-72099500D01*
X129656282Y-72079815D01*
X129635640Y-72063181D01*
X125211819Y-67639360D01*
X125178334Y-67578037D01*
X125175500Y-67551679D01*
X125175500Y-66916736D01*
X125165573Y-66848608D01*
X125144457Y-66805415D01*
X125143990Y-66804458D01*
X125132231Y-66735588D01*
X125143991Y-66695539D01*
X125165573Y-66651393D01*
X125169543Y-66624139D01*
X125175500Y-66583263D01*
X125175500Y-66399500D01*
X125195185Y-66332461D01*
X125247989Y-66286706D01*
X125299500Y-66275500D01*
X128810541Y-66275500D01*
X128836899Y-66278333D01*
X128840729Y-66279167D01*
X128887575Y-66275815D01*
X128896422Y-66275500D01*
X128909011Y-66275500D01*
X128921485Y-66273706D01*
X128930269Y-66272761D01*
X128977115Y-66269411D01*
X128979488Y-66268525D01*
X128980778Y-66268045D01*
X129006465Y-66261488D01*
X129010342Y-66260931D01*
X129053072Y-66241415D01*
X129061207Y-66238045D01*
X129105226Y-66221629D01*
X129108361Y-66219281D01*
X129131153Y-66205757D01*
X129134718Y-66204130D01*
X129170203Y-66173380D01*
X129177084Y-66167835D01*
X129187180Y-66160279D01*
X129187200Y-66160259D01*
X129196083Y-66151376D01*
X129202566Y-66145340D01*
X129238052Y-66114592D01*
X129238052Y-66114591D01*
X129238055Y-66114589D01*
X129240173Y-66111292D01*
X129256803Y-66090654D01*
X132510638Y-62836818D01*
X132571962Y-62803334D01*
X132598320Y-62800500D01*
X135643116Y-62800500D01*
X135710155Y-62820185D01*
X135755910Y-62872989D01*
X135765854Y-62942147D01*
X135759298Y-62967834D01*
X135731400Y-63042628D01*
X135725354Y-63098867D01*
X135725000Y-63105481D01*
X135725000Y-63650000D01*
X138525000Y-63650000D01*
X138525000Y-63105481D01*
X138524645Y-63098867D01*
X138518599Y-63042628D01*
X138490702Y-62967834D01*
X138485718Y-62898142D01*
X138519202Y-62836819D01*
X138580525Y-62803334D01*
X138606884Y-62800500D01*
X139150500Y-62800500D01*
X139217539Y-62820185D01*
X139263294Y-62872989D01*
X139274500Y-62924499D01*
X139274500Y-63001040D01*
X139275029Y-63005058D01*
X139289635Y-63116000D01*
X139348881Y-63259034D01*
X139348882Y-63259036D01*
X139348883Y-63259037D01*
X139360517Y-63274199D01*
X139385711Y-63339367D01*
X139371673Y-63407812D01*
X139322859Y-63457802D01*
X139309595Y-63464246D01*
X139222157Y-63500464D01*
X139096717Y-63596717D01*
X139000463Y-63722159D01*
X138946580Y-63852246D01*
X138939956Y-63868238D01*
X138924500Y-63985639D01*
X138924500Y-63989691D01*
X138924500Y-63989692D01*
X138924501Y-64700500D01*
X138904817Y-64767539D01*
X138852013Y-64813294D01*
X138800501Y-64824500D01*
X138648857Y-64824500D01*
X138581818Y-64804815D01*
X138536063Y-64752011D01*
X138525096Y-64694204D01*
X138525000Y-64697828D01*
X138525000Y-64150000D01*
X135725000Y-64150000D01*
X135725000Y-64694518D01*
X135725354Y-64701132D01*
X135731400Y-64757371D01*
X135781648Y-64892091D01*
X135849766Y-64983084D01*
X135874184Y-65048548D01*
X135874500Y-65057395D01*
X135874500Y-66583263D01*
X135884426Y-66651394D01*
X135906008Y-66695542D01*
X135917766Y-66764415D01*
X135906008Y-66804458D01*
X135884426Y-66848605D01*
X135874500Y-66916736D01*
X135874500Y-68483263D01*
X135884426Y-68551394D01*
X135906008Y-68595542D01*
X135917766Y-68664415D01*
X135906008Y-68704458D01*
X135884426Y-68748605D01*
X135874500Y-68816736D01*
X135874500Y-70342604D01*
X135854815Y-70409643D01*
X135849767Y-70416915D01*
X135781647Y-70507910D01*
X135731400Y-70642628D01*
X135725354Y-70698867D01*
X135725000Y-70705481D01*
X135725000Y-71250000D01*
X138525000Y-71250000D01*
X138525000Y-70705481D01*
X138524645Y-70698867D01*
X138518599Y-70642628D01*
X138468352Y-70507910D01*
X138400233Y-70416915D01*
X138375816Y-70351451D01*
X138375500Y-70342604D01*
X138375500Y-68816736D01*
X138365573Y-68748608D01*
X138343991Y-68704461D01*
X138332231Y-68635588D01*
X138343991Y-68595539D01*
X138365573Y-68551393D01*
X138369543Y-68524139D01*
X138375500Y-68483263D01*
X138375500Y-68279500D01*
X138395185Y-68212461D01*
X138447989Y-68166706D01*
X138499500Y-68155500D01*
X138735498Y-68155500D01*
X138802537Y-68175185D01*
X138848292Y-68227989D01*
X138858236Y-68297147D01*
X138853204Y-68318505D01*
X138815493Y-68432305D01*
X138805319Y-68531890D01*
X138805000Y-68538168D01*
X138805000Y-68672500D01*
X141254999Y-68672500D01*
X141254999Y-68538170D01*
X141254678Y-68531888D01*
X141244506Y-68432304D01*
X141207188Y-68319686D01*
X141204786Y-68249858D01*
X141240518Y-68189816D01*
X141303038Y-68158623D01*
X141316046Y-68156998D01*
X141325613Y-68156313D01*
X141332577Y-68155816D01*
X141341422Y-68155500D01*
X141354011Y-68155500D01*
X141366485Y-68153706D01*
X141375269Y-68152761D01*
X141422115Y-68149411D01*
X141424488Y-68148525D01*
X141425778Y-68148045D01*
X141451465Y-68141488D01*
X141455342Y-68140931D01*
X141498072Y-68121415D01*
X141506207Y-68118045D01*
X141550226Y-68101629D01*
X141553361Y-68099281D01*
X141576153Y-68085757D01*
X141579718Y-68084130D01*
X141615203Y-68053380D01*
X141622084Y-68047835D01*
X141632180Y-68040279D01*
X141635884Y-68036575D01*
X141641083Y-68031376D01*
X141647566Y-68025340D01*
X141683052Y-67994592D01*
X141683052Y-67994591D01*
X141683055Y-67994589D01*
X141685173Y-67991292D01*
X141701803Y-67970654D01*
X144090654Y-65581803D01*
X144111292Y-65565173D01*
X144114589Y-65563055D01*
X144114592Y-65563052D01*
X144145340Y-65527566D01*
X144151376Y-65521083D01*
X144160275Y-65512184D01*
X144160275Y-65512183D01*
X144160279Y-65512180D01*
X144167835Y-65502084D01*
X144173387Y-65495196D01*
X144204130Y-65459718D01*
X144205757Y-65456153D01*
X144219281Y-65433361D01*
X144221629Y-65430226D01*
X144238042Y-65386216D01*
X144241430Y-65378040D01*
X144254236Y-65350000D01*
X144260931Y-65335342D01*
X144261487Y-65331469D01*
X144268044Y-65305780D01*
X144269412Y-65302114D01*
X144272762Y-65255266D01*
X144273709Y-65246464D01*
X144275500Y-65234010D01*
X144275500Y-65221426D01*
X144275816Y-65212579D01*
X144276690Y-65200354D01*
X144279167Y-65165729D01*
X144278333Y-65161899D01*
X144275500Y-65135541D01*
X144275500Y-63837228D01*
X144295185Y-63770189D01*
X144311810Y-63749556D01*
X144390477Y-63670890D01*
X144413939Y-63633549D01*
X144466272Y-63587259D01*
X144535325Y-63576610D01*
X144599174Y-63604985D01*
X144635113Y-63656187D01*
X144638371Y-63664924D01*
X144640722Y-63668064D01*
X144654240Y-63690845D01*
X144655870Y-63694413D01*
X144686627Y-63729909D01*
X144692170Y-63736788D01*
X144699721Y-63746875D01*
X144708627Y-63755781D01*
X144714659Y-63762260D01*
X144745411Y-63797750D01*
X144748708Y-63799869D01*
X144769349Y-63816503D01*
X146689183Y-65736337D01*
X148588181Y-67635334D01*
X148621666Y-67696657D01*
X148624500Y-67723015D01*
X148624500Y-68862769D01*
X148604815Y-68929808D01*
X148588182Y-68950450D01*
X148509522Y-69029110D01*
X148419544Y-69172309D01*
X148363686Y-69331943D01*
X148344750Y-69499999D01*
X148363686Y-69668056D01*
X148363686Y-69668058D01*
X148363687Y-69668059D01*
X148419544Y-69827690D01*
X148509523Y-69970890D01*
X148629110Y-70090477D01*
X148772310Y-70180456D01*
X148931941Y-70236313D01*
X148979957Y-70241723D01*
X149099995Y-70255249D01*
X149099997Y-70255248D01*
X149100000Y-70255249D01*
X149115064Y-70253551D01*
X149183884Y-70265603D01*
X149216631Y-70289090D01*
X151068193Y-72140652D01*
X151084825Y-72161291D01*
X151086945Y-72164589D01*
X151122451Y-72195354D01*
X151128914Y-72201373D01*
X151137815Y-72210275D01*
X151137818Y-72210277D01*
X151137820Y-72210279D01*
X151147916Y-72217837D01*
X151154787Y-72223374D01*
X151190282Y-72254130D01*
X151193842Y-72255756D01*
X151216633Y-72269277D01*
X151219774Y-72271629D01*
X151263772Y-72288039D01*
X151271944Y-72291424D01*
X151314658Y-72310931D01*
X151318522Y-72311486D01*
X151344220Y-72318045D01*
X151347885Y-72319412D01*
X151394730Y-72322762D01*
X151403511Y-72323705D01*
X151415989Y-72325500D01*
X151428574Y-72325500D01*
X151437420Y-72325816D01*
X151484271Y-72329167D01*
X151488101Y-72328333D01*
X151514459Y-72325500D01*
X155305500Y-72325500D01*
X155372539Y-72345185D01*
X155418294Y-72397989D01*
X155429500Y-72449500D01*
X155429500Y-72743263D01*
X155439426Y-72811390D01*
X155490802Y-72916484D01*
X155573515Y-72999197D01*
X155573516Y-72999197D01*
X155573517Y-72999198D01*
X155678607Y-73050573D01*
X155697557Y-73053334D01*
X155746737Y-73060500D01*
X155746740Y-73060500D01*
X157513263Y-73060500D01*
X157547326Y-73055536D01*
X157581393Y-73050573D01*
X157686483Y-72999198D01*
X157769198Y-72916483D01*
X157820573Y-72811393D01*
X157826995Y-72767316D01*
X157830500Y-72743263D01*
X157830500Y-70976736D01*
X157820573Y-70908609D01*
X157820573Y-70908607D01*
X157769198Y-70803517D01*
X157769197Y-70803516D01*
X157769197Y-70803515D01*
X157686484Y-70720802D01*
X157613338Y-70685044D01*
X157581393Y-70669427D01*
X157581391Y-70669426D01*
X157581390Y-70669426D01*
X157513263Y-70659500D01*
X157513260Y-70659500D01*
X157463926Y-70659500D01*
X157396887Y-70639815D01*
X157351132Y-70587011D01*
X157341188Y-70517853D01*
X157349342Y-70499999D01*
X171494356Y-70499999D01*
X171514891Y-70747816D01*
X171514891Y-70747819D01*
X171514892Y-70747821D01*
X171575937Y-70988881D01*
X171620960Y-71091523D01*
X171675825Y-71216604D01*
X171675827Y-71216607D01*
X171811836Y-71424785D01*
X171980256Y-71607738D01*
X171980259Y-71607740D01*
X172176485Y-71760470D01*
X172176487Y-71760471D01*
X172176491Y-71760474D01*
X172395190Y-71878828D01*
X172630386Y-71959571D01*
X172875665Y-72000500D01*
X173124335Y-72000500D01*
X173369614Y-71959571D01*
X173604810Y-71878828D01*
X173823509Y-71760474D01*
X174019744Y-71607738D01*
X174188164Y-71424785D01*
X174324173Y-71216607D01*
X174424063Y-70988881D01*
X174485108Y-70747821D01*
X174505643Y-70500000D01*
X174485108Y-70252179D01*
X174424063Y-70011119D01*
X174325456Y-69786317D01*
X174324174Y-69783395D01*
X174288208Y-69728345D01*
X174188164Y-69575215D01*
X174019744Y-69392262D01*
X173965446Y-69350000D01*
X173823514Y-69239529D01*
X173823510Y-69239526D01*
X173823509Y-69239526D01*
X173604810Y-69121172D01*
X173604806Y-69121170D01*
X173604805Y-69121170D01*
X173369615Y-69040429D01*
X173124335Y-68999500D01*
X172875665Y-68999500D01*
X172630384Y-69040429D01*
X172395194Y-69121170D01*
X172176485Y-69239529D01*
X171980259Y-69392259D01*
X171980256Y-69392261D01*
X171980256Y-69392262D01*
X171811836Y-69575215D01*
X171784778Y-69616631D01*
X171675825Y-69783395D01*
X171606841Y-69940664D01*
X171575937Y-70011119D01*
X171518910Y-70236313D01*
X171514891Y-70252183D01*
X171494356Y-70499999D01*
X157349342Y-70499999D01*
X157370213Y-70454297D01*
X157392802Y-70433925D01*
X157501081Y-70358106D01*
X157668106Y-70191081D01*
X157803600Y-69997576D01*
X157903430Y-69783492D01*
X157960636Y-69570000D01*
X157063686Y-69570000D01*
X157089493Y-69529844D01*
X157130000Y-69391889D01*
X157130000Y-69248111D01*
X157089493Y-69110156D01*
X157063686Y-69070000D01*
X157960636Y-69070000D01*
X157960635Y-69069999D01*
X157903430Y-68856507D01*
X157803599Y-68642421D01*
X157668109Y-68448921D01*
X157501081Y-68281893D01*
X157307576Y-68146398D01*
X157171079Y-68082748D01*
X157118640Y-68036575D01*
X157099488Y-67969381D01*
X157119704Y-67902500D01*
X157158207Y-67864939D01*
X157167398Y-67859248D01*
X157167401Y-67859247D01*
X157356562Y-67742124D01*
X157520981Y-67592236D01*
X157655058Y-67414689D01*
X157754229Y-67215528D01*
X157765435Y-67176145D01*
X157783788Y-67111639D01*
X157815115Y-67001536D01*
X157835643Y-66780000D01*
X157815115Y-66558464D01*
X157772788Y-66409699D01*
X157773374Y-66339832D01*
X157804371Y-66288086D01*
X157892457Y-66200000D01*
X158744340Y-66200000D01*
X158764936Y-66435407D01*
X158785490Y-66512114D01*
X158826097Y-66663663D01*
X158925965Y-66877830D01*
X159061505Y-67071401D01*
X159228599Y-67238495D01*
X159422170Y-67374035D01*
X159636337Y-67473903D01*
X159864592Y-67535062D01*
X159864592Y-67535063D01*
X160099999Y-67555659D01*
X160099999Y-67555658D01*
X160100000Y-67555659D01*
X160335408Y-67535063D01*
X160563663Y-67473903D01*
X160777830Y-67374035D01*
X160971401Y-67238495D01*
X161138495Y-67071401D01*
X161274035Y-66877830D01*
X161373903Y-66663663D01*
X161435063Y-66435408D01*
X161455659Y-66200000D01*
X161455659Y-66199999D01*
X163094858Y-66199999D01*
X163115386Y-66447732D01*
X163176413Y-66688721D01*
X163276268Y-66916370D01*
X163376563Y-67069882D01*
X163376564Y-67069882D01*
X164074070Y-66372376D01*
X164076884Y-66385915D01*
X164146442Y-66520156D01*
X164249638Y-66630652D01*
X164378819Y-66709209D01*
X164430002Y-66723549D01*
X163729942Y-67423609D01*
X163729942Y-67423610D01*
X163776766Y-67460055D01*
X163995393Y-67578368D01*
X164230506Y-67659083D01*
X164475707Y-67700000D01*
X164724293Y-67700000D01*
X164969493Y-67659083D01*
X165204606Y-67578368D01*
X165423233Y-67460053D01*
X165470056Y-67423609D01*
X164771568Y-66725121D01*
X164888458Y-66674349D01*
X165005739Y-66578934D01*
X165092928Y-66455415D01*
X165123354Y-66369802D01*
X165823434Y-67069882D01*
X165923730Y-66916369D01*
X166023586Y-66688721D01*
X166058715Y-66550000D01*
X170844340Y-66550000D01*
X170864936Y-66785407D01*
X170903062Y-66927695D01*
X170926097Y-67013663D01*
X171025965Y-67227830D01*
X171161505Y-67421401D01*
X171328599Y-67588495D01*
X171522170Y-67724035D01*
X171736337Y-67823903D01*
X171964592Y-67885063D01*
X172200000Y-67905659D01*
X172435408Y-67885063D01*
X172663663Y-67823903D01*
X172877830Y-67724035D01*
X173071401Y-67588495D01*
X173238495Y-67421401D01*
X173374035Y-67227830D01*
X173473903Y-67013663D01*
X173535063Y-66785408D01*
X173555659Y-66550000D01*
X175194858Y-66550000D01*
X175215386Y-66797732D01*
X175276413Y-67038721D01*
X175376268Y-67266370D01*
X175476563Y-67419882D01*
X175476564Y-67419882D01*
X176174070Y-66722374D01*
X176176884Y-66735915D01*
X176246442Y-66870156D01*
X176349638Y-66980652D01*
X176478819Y-67059209D01*
X176530002Y-67073549D01*
X175829942Y-67773609D01*
X175829942Y-67773610D01*
X175876766Y-67810055D01*
X176095393Y-67928368D01*
X176330506Y-68009083D01*
X176575707Y-68050000D01*
X176824293Y-68050000D01*
X177069493Y-68009083D01*
X177304606Y-67928368D01*
X177523233Y-67810053D01*
X177570056Y-67773609D01*
X176871568Y-67075121D01*
X176988458Y-67024349D01*
X177105739Y-66928934D01*
X177192928Y-66805415D01*
X177223355Y-66719801D01*
X177923434Y-67419882D01*
X178023730Y-67266369D01*
X178123586Y-67038721D01*
X178184613Y-66797732D01*
X178205141Y-66549999D01*
X178184613Y-66302267D01*
X178123586Y-66061278D01*
X178023730Y-65833630D01*
X177923434Y-65680116D01*
X177225928Y-66377621D01*
X177223116Y-66364085D01*
X177153558Y-66229844D01*
X177050362Y-66119348D01*
X176921181Y-66040791D01*
X176869995Y-66026449D01*
X177570056Y-65326389D01*
X177570056Y-65326387D01*
X177523235Y-65289947D01*
X177304606Y-65171631D01*
X177069493Y-65090916D01*
X176824293Y-65050000D01*
X176575707Y-65050000D01*
X176330506Y-65090916D01*
X176095393Y-65171631D01*
X175876764Y-65289946D01*
X175829942Y-65326388D01*
X175829941Y-65326389D01*
X176528431Y-66024878D01*
X176411542Y-66075651D01*
X176294261Y-66171066D01*
X176207072Y-66294585D01*
X176176645Y-66380197D01*
X175476564Y-65680116D01*
X175376266Y-65833634D01*
X175276413Y-66061278D01*
X175215386Y-66302267D01*
X175194858Y-66550000D01*
X173555659Y-66550000D01*
X173535063Y-66314592D01*
X173473903Y-66086337D01*
X173374035Y-65872171D01*
X173238495Y-65678599D01*
X173071401Y-65511505D01*
X172877830Y-65375965D01*
X172663663Y-65276097D01*
X172573772Y-65252011D01*
X172435407Y-65214936D01*
X172200000Y-65194340D01*
X171964592Y-65214936D01*
X171736336Y-65276097D01*
X171522170Y-65375965D01*
X171328598Y-65511505D01*
X171161505Y-65678598D01*
X171025965Y-65872170D01*
X170926097Y-66086336D01*
X170864936Y-66314592D01*
X170844340Y-66550000D01*
X166058715Y-66550000D01*
X166084613Y-66447732D01*
X166105141Y-66200000D01*
X166084613Y-65952267D01*
X166023586Y-65711278D01*
X165923730Y-65483630D01*
X165823434Y-65330116D01*
X165125929Y-66027622D01*
X165123116Y-66014085D01*
X165053558Y-65879844D01*
X164950362Y-65769348D01*
X164821181Y-65690791D01*
X164769997Y-65676450D01*
X165470057Y-64976390D01*
X165470056Y-64976388D01*
X165423235Y-64939947D01*
X165204606Y-64821631D01*
X164969493Y-64740916D01*
X164724293Y-64700000D01*
X164475707Y-64700000D01*
X164230506Y-64740916D01*
X163995393Y-64821631D01*
X163776764Y-64939946D01*
X163729942Y-64976388D01*
X163729942Y-64976390D01*
X164428431Y-65674878D01*
X164311542Y-65725651D01*
X164194261Y-65821066D01*
X164107072Y-65944585D01*
X164076645Y-66030197D01*
X163376564Y-65330116D01*
X163276266Y-65483634D01*
X163176413Y-65711278D01*
X163115386Y-65952267D01*
X163094858Y-66199999D01*
X161455659Y-66199999D01*
X161435063Y-65964592D01*
X161373903Y-65736337D01*
X161274035Y-65522171D01*
X161138495Y-65328599D01*
X160971401Y-65161505D01*
X160777830Y-65025965D01*
X160563663Y-64926097D01*
X160501281Y-64909382D01*
X160335407Y-64864936D01*
X160099999Y-64844340D01*
X159864592Y-64864936D01*
X159636336Y-64926097D01*
X159422170Y-65025965D01*
X159228598Y-65161505D01*
X159061505Y-65328598D01*
X158925965Y-65522170D01*
X158826097Y-65736336D01*
X158764936Y-65964592D01*
X158744340Y-66200000D01*
X157892457Y-66200000D01*
X158190654Y-65901803D01*
X158211292Y-65885173D01*
X158214589Y-65883055D01*
X158214592Y-65883052D01*
X158245340Y-65847566D01*
X158251376Y-65841083D01*
X158260275Y-65832184D01*
X158260275Y-65832183D01*
X158260279Y-65832180D01*
X158267835Y-65822084D01*
X158273387Y-65815196D01*
X158304130Y-65779718D01*
X158305757Y-65776153D01*
X158319281Y-65753361D01*
X158321629Y-65750226D01*
X158338045Y-65706207D01*
X158341415Y-65698072D01*
X158360931Y-65655342D01*
X158361488Y-65651465D01*
X158368045Y-65625778D01*
X158368525Y-65624488D01*
X158369411Y-65622115D01*
X158372761Y-65575269D01*
X158373707Y-65566478D01*
X158373896Y-65565168D01*
X158375500Y-65554011D01*
X158375500Y-65541421D01*
X158375816Y-65532574D01*
X158376638Y-65521083D01*
X158379167Y-65485729D01*
X158378334Y-65481899D01*
X158375500Y-65455541D01*
X158375500Y-61064459D01*
X158378334Y-61038099D01*
X158379167Y-61034271D01*
X158375816Y-60987420D01*
X158375500Y-60978574D01*
X158375500Y-60965986D01*
X158373708Y-60953525D01*
X158372761Y-60944720D01*
X158369412Y-60897886D01*
X158368043Y-60894216D01*
X158361487Y-60868531D01*
X158360931Y-60864658D01*
X158360929Y-60864654D01*
X158360929Y-60864652D01*
X158341424Y-60821943D01*
X158338034Y-60813760D01*
X158321629Y-60769773D01*
X158319280Y-60766635D01*
X158305755Y-60743840D01*
X158304130Y-60740283D01*
X158304130Y-60740282D01*
X158273374Y-60704787D01*
X158267837Y-60697916D01*
X158260279Y-60687820D01*
X158260277Y-60687818D01*
X158260275Y-60687815D01*
X158251373Y-60678914D01*
X158245354Y-60672451D01*
X158214589Y-60636945D01*
X158211291Y-60634825D01*
X158190652Y-60618193D01*
X157272458Y-59699999D01*
X158744340Y-59699999D01*
X158764936Y-59935407D01*
X158809709Y-60102501D01*
X158826097Y-60163663D01*
X158925965Y-60377830D01*
X159061505Y-60571401D01*
X159228599Y-60738495D01*
X159422170Y-60874035D01*
X159636337Y-60973903D01*
X159864592Y-61035063D01*
X160100000Y-61055659D01*
X160335408Y-61035063D01*
X160563663Y-60973903D01*
X160777830Y-60874035D01*
X160971401Y-60738495D01*
X161138495Y-60571401D01*
X161274035Y-60377830D01*
X161373903Y-60163663D01*
X161435063Y-59935408D01*
X161455659Y-59700000D01*
X163094858Y-59700000D01*
X163115386Y-59947732D01*
X163176413Y-60188721D01*
X163276268Y-60416370D01*
X163376563Y-60569882D01*
X163376564Y-60569882D01*
X164074070Y-59872376D01*
X164076884Y-59885915D01*
X164146442Y-60020156D01*
X164249638Y-60130652D01*
X164378819Y-60209209D01*
X164430002Y-60223549D01*
X163729942Y-60923609D01*
X163729942Y-60923610D01*
X163776766Y-60960055D01*
X163995393Y-61078368D01*
X164230506Y-61159083D01*
X164475707Y-61200000D01*
X164724293Y-61200000D01*
X164969493Y-61159083D01*
X165204606Y-61078368D01*
X165423233Y-60960053D01*
X165470056Y-60923609D01*
X164771568Y-60225121D01*
X164888458Y-60174349D01*
X165005739Y-60078934D01*
X165092928Y-59955415D01*
X165123354Y-59869802D01*
X165823434Y-60569882D01*
X165923730Y-60416369D01*
X166023586Y-60188721D01*
X166058715Y-60050000D01*
X170844340Y-60050000D01*
X170864936Y-60285407D01*
X170887645Y-60370156D01*
X170926097Y-60513663D01*
X171025965Y-60727830D01*
X171161505Y-60921401D01*
X171328599Y-61088495D01*
X171522170Y-61224035D01*
X171736337Y-61323903D01*
X171964592Y-61385063D01*
X172200000Y-61405659D01*
X172435408Y-61385063D01*
X172663663Y-61323903D01*
X172877830Y-61224035D01*
X173071401Y-61088495D01*
X173238495Y-60921401D01*
X173374035Y-60727830D01*
X173473903Y-60513663D01*
X173535063Y-60285408D01*
X173555659Y-60050000D01*
X173555659Y-60049999D01*
X175194858Y-60049999D01*
X175215386Y-60297732D01*
X175276413Y-60538721D01*
X175376268Y-60766370D01*
X175476563Y-60919882D01*
X175476564Y-60919882D01*
X176174070Y-60222376D01*
X176176884Y-60235915D01*
X176246442Y-60370156D01*
X176349638Y-60480652D01*
X176478819Y-60559209D01*
X176530002Y-60573549D01*
X175829942Y-61273609D01*
X175829942Y-61273610D01*
X175876766Y-61310055D01*
X176095393Y-61428368D01*
X176330506Y-61509083D01*
X176575707Y-61550000D01*
X176824293Y-61550000D01*
X177069493Y-61509083D01*
X177304606Y-61428368D01*
X177523233Y-61310053D01*
X177570056Y-61273609D01*
X176871568Y-60575121D01*
X176988458Y-60524349D01*
X177105739Y-60428934D01*
X177192928Y-60305415D01*
X177223355Y-60219801D01*
X177923434Y-60919882D01*
X178023730Y-60766369D01*
X178123586Y-60538721D01*
X178184613Y-60297732D01*
X178205141Y-60049999D01*
X178184613Y-59802267D01*
X178123586Y-59561278D01*
X178023730Y-59333630D01*
X177923434Y-59180116D01*
X177225928Y-59877621D01*
X177223116Y-59864085D01*
X177153558Y-59729844D01*
X177050362Y-59619348D01*
X176921181Y-59540791D01*
X176869997Y-59526450D01*
X177570057Y-58826390D01*
X177570056Y-58826388D01*
X177523235Y-58789947D01*
X177304606Y-58671631D01*
X177069493Y-58590916D01*
X176824293Y-58550000D01*
X176575707Y-58550000D01*
X176330506Y-58590916D01*
X176095393Y-58671631D01*
X175876764Y-58789946D01*
X175829942Y-58826388D01*
X175829942Y-58826390D01*
X176528431Y-59524878D01*
X176411542Y-59575651D01*
X176294261Y-59671066D01*
X176207072Y-59794585D01*
X176176645Y-59880197D01*
X175476564Y-59180116D01*
X175376266Y-59333634D01*
X175276413Y-59561278D01*
X175215386Y-59802267D01*
X175194858Y-60049999D01*
X173555659Y-60049999D01*
X173535063Y-59814592D01*
X173473903Y-59586337D01*
X173374035Y-59372171D01*
X173238495Y-59178599D01*
X173071401Y-59011505D01*
X172877830Y-58875965D01*
X172663663Y-58776097D01*
X172602502Y-58759709D01*
X172435407Y-58714936D01*
X172200000Y-58694340D01*
X171964592Y-58714936D01*
X171736336Y-58776097D01*
X171522170Y-58875965D01*
X171328598Y-59011505D01*
X171161505Y-59178598D01*
X171025965Y-59372170D01*
X170926097Y-59586336D01*
X170864936Y-59814592D01*
X170844340Y-60050000D01*
X166058715Y-60050000D01*
X166084613Y-59947732D01*
X166105141Y-59699999D01*
X166084613Y-59452267D01*
X166023586Y-59211278D01*
X165923730Y-58983630D01*
X165823434Y-58830116D01*
X165125929Y-59527622D01*
X165123116Y-59514085D01*
X165053558Y-59379844D01*
X164950362Y-59269348D01*
X164821181Y-59190791D01*
X164769997Y-59176450D01*
X165470057Y-58476390D01*
X165470056Y-58476388D01*
X165423235Y-58439947D01*
X165204606Y-58321631D01*
X165046290Y-58267281D01*
X164989275Y-58226896D01*
X164963144Y-58162096D01*
X164976195Y-58093456D01*
X165024284Y-58042768D01*
X165046290Y-58032719D01*
X165204606Y-57978368D01*
X165423233Y-57860053D01*
X165470056Y-57823609D01*
X164771568Y-57125121D01*
X164888458Y-57074349D01*
X165005739Y-56978934D01*
X165092928Y-56855415D01*
X165123354Y-56769802D01*
X165823434Y-57469882D01*
X165923730Y-57316369D01*
X166023586Y-57088721D01*
X166084613Y-56847732D01*
X166105141Y-56600000D01*
X166084613Y-56352267D01*
X166023586Y-56111278D01*
X165923730Y-55883630D01*
X165823434Y-55730116D01*
X165125929Y-56427622D01*
X165123116Y-56414085D01*
X165053558Y-56279844D01*
X164950362Y-56169348D01*
X164821181Y-56090791D01*
X164769997Y-56076450D01*
X165470057Y-55376390D01*
X165470056Y-55376388D01*
X165423235Y-55339947D01*
X165204606Y-55221631D01*
X164969493Y-55140916D01*
X164724293Y-55100000D01*
X164475707Y-55100000D01*
X164230506Y-55140916D01*
X163995393Y-55221631D01*
X163776764Y-55339946D01*
X163729942Y-55376388D01*
X163729942Y-55376390D01*
X164428431Y-56074878D01*
X164311542Y-56125651D01*
X164194261Y-56221066D01*
X164107072Y-56344585D01*
X164076645Y-56430197D01*
X163376564Y-55730116D01*
X163276266Y-55883634D01*
X163176413Y-56111278D01*
X163115386Y-56352267D01*
X163094858Y-56599999D01*
X163115386Y-56847732D01*
X163176413Y-57088721D01*
X163276268Y-57316370D01*
X163376563Y-57469882D01*
X163376564Y-57469882D01*
X164074070Y-56772376D01*
X164076884Y-56785915D01*
X164146442Y-56920156D01*
X164249638Y-57030652D01*
X164378819Y-57109209D01*
X164430002Y-57123549D01*
X163729942Y-57823609D01*
X163729942Y-57823610D01*
X163776766Y-57860055D01*
X163995393Y-57978368D01*
X164153709Y-58032719D01*
X164210724Y-58073105D01*
X164236855Y-58137904D01*
X164223803Y-58206544D01*
X164175715Y-58257232D01*
X164153709Y-58267281D01*
X163995393Y-58321631D01*
X163776764Y-58439946D01*
X163729942Y-58476388D01*
X163729942Y-58476390D01*
X164428431Y-59174878D01*
X164311542Y-59225651D01*
X164194261Y-59321066D01*
X164107072Y-59444585D01*
X164076645Y-59530197D01*
X163376564Y-58830116D01*
X163276266Y-58983634D01*
X163176413Y-59211278D01*
X163115386Y-59452267D01*
X163094858Y-59700000D01*
X161455659Y-59700000D01*
X161445714Y-59586336D01*
X161435063Y-59464592D01*
X161429702Y-59444585D01*
X161373903Y-59236337D01*
X161274035Y-59022171D01*
X161138495Y-58828599D01*
X160971401Y-58661505D01*
X160777830Y-58525965D01*
X160563663Y-58426097D01*
X160501725Y-58409501D01*
X160335407Y-58364936D01*
X160100000Y-58344340D01*
X159864592Y-58364936D01*
X159636336Y-58426097D01*
X159422170Y-58525965D01*
X159228598Y-58661505D01*
X159061505Y-58828598D01*
X158925965Y-59022170D01*
X158826097Y-59236336D01*
X158764936Y-59464592D01*
X158744340Y-59699999D01*
X157272458Y-59699999D01*
X155881808Y-58309349D01*
X155865174Y-58288708D01*
X155863055Y-58285411D01*
X155827565Y-58254659D01*
X155821086Y-58248627D01*
X155812180Y-58239721D01*
X155802093Y-58232170D01*
X155795214Y-58226627D01*
X155759718Y-58195870D01*
X155759716Y-58195869D01*
X155756150Y-58194240D01*
X155733369Y-58180722D01*
X155730231Y-58178373D01*
X155686590Y-58162096D01*
X155686219Y-58161957D01*
X155678045Y-58158571D01*
X155635343Y-58139069D01*
X155634654Y-58138970D01*
X155631458Y-58138510D01*
X155605781Y-58131956D01*
X155602115Y-58130588D01*
X155555275Y-58127237D01*
X155546491Y-58126293D01*
X155534012Y-58124500D01*
X155534011Y-58124500D01*
X155521422Y-58124500D01*
X155512575Y-58124184D01*
X155465729Y-58120833D01*
X155465728Y-58120833D01*
X155461900Y-58121666D01*
X155435541Y-58124500D01*
X152470295Y-58124500D01*
X152403256Y-58104815D01*
X152357501Y-58052011D01*
X152347557Y-57982853D01*
X152376582Y-57919297D01*
X152435360Y-57881523D01*
X152438188Y-57880728D01*
X152463663Y-57873903D01*
X152677830Y-57774035D01*
X152871401Y-57638495D01*
X153038495Y-57471401D01*
X153174035Y-57277830D01*
X153273903Y-57063663D01*
X153335063Y-56835408D01*
X153355659Y-56600000D01*
X154994858Y-56600000D01*
X155015386Y-56847732D01*
X155076413Y-57088721D01*
X155176268Y-57316370D01*
X155276563Y-57469882D01*
X155276564Y-57469882D01*
X155974070Y-56772376D01*
X155976884Y-56785915D01*
X156046442Y-56920156D01*
X156149638Y-57030652D01*
X156278819Y-57109209D01*
X156330002Y-57123549D01*
X155629942Y-57823609D01*
X155629942Y-57823610D01*
X155676766Y-57860055D01*
X155895393Y-57978368D01*
X156130506Y-58059083D01*
X156375707Y-58100000D01*
X156624293Y-58100000D01*
X156869493Y-58059083D01*
X157104606Y-57978368D01*
X157323233Y-57860053D01*
X157370056Y-57823609D01*
X156671568Y-57125121D01*
X156788458Y-57074349D01*
X156905739Y-56978934D01*
X156992928Y-56855415D01*
X157023355Y-56769801D01*
X157723434Y-57469882D01*
X157823730Y-57316369D01*
X157923586Y-57088721D01*
X157984613Y-56847732D01*
X158005141Y-56600000D01*
X158744340Y-56600000D01*
X158764936Y-56835407D01*
X158793747Y-56942929D01*
X158826097Y-57063663D01*
X158925965Y-57277830D01*
X159061505Y-57471401D01*
X159228599Y-57638495D01*
X159422170Y-57774035D01*
X159636337Y-57873903D01*
X159864592Y-57935063D01*
X160099999Y-57955659D01*
X160099999Y-57955658D01*
X160100000Y-57955659D01*
X160335408Y-57935063D01*
X160563663Y-57873903D01*
X160777830Y-57774035D01*
X160971401Y-57638495D01*
X161138495Y-57471401D01*
X161274035Y-57277830D01*
X161373903Y-57063663D01*
X161435063Y-56835408D01*
X161455659Y-56600000D01*
X161435063Y-56364592D01*
X161373903Y-56136337D01*
X161274035Y-55922171D01*
X161138495Y-55728599D01*
X160971401Y-55561505D01*
X160777830Y-55425965D01*
X160563663Y-55326097D01*
X160502502Y-55309709D01*
X160335407Y-55264936D01*
X160100000Y-55244340D01*
X159864592Y-55264936D01*
X159636336Y-55326097D01*
X159422170Y-55425965D01*
X159228598Y-55561505D01*
X159061505Y-55728598D01*
X158925965Y-55922170D01*
X158826097Y-56136336D01*
X158764936Y-56364592D01*
X158744340Y-56600000D01*
X158005141Y-56600000D01*
X158005141Y-56599999D01*
X157984613Y-56352267D01*
X157923586Y-56111278D01*
X157823730Y-55883630D01*
X157723434Y-55730116D01*
X157025928Y-56427621D01*
X157023116Y-56414085D01*
X156953558Y-56279844D01*
X156850362Y-56169348D01*
X156721181Y-56090791D01*
X156669997Y-56076450D01*
X157370057Y-55376390D01*
X157370056Y-55376388D01*
X157323235Y-55339947D01*
X157104606Y-55221631D01*
X156869493Y-55140916D01*
X156624293Y-55100000D01*
X156375707Y-55100000D01*
X156130506Y-55140916D01*
X155895393Y-55221631D01*
X155676764Y-55339946D01*
X155629942Y-55376388D01*
X155629942Y-55376390D01*
X156328431Y-56074878D01*
X156211542Y-56125651D01*
X156094261Y-56221066D01*
X156007072Y-56344585D01*
X155976645Y-56430197D01*
X155276564Y-55730116D01*
X155176266Y-55883634D01*
X155076413Y-56111278D01*
X155015386Y-56352267D01*
X154994858Y-56600000D01*
X153355659Y-56600000D01*
X153335063Y-56364592D01*
X153273903Y-56136337D01*
X153174035Y-55922171D01*
X153038495Y-55728599D01*
X152871401Y-55561505D01*
X152677830Y-55425965D01*
X152463663Y-55326097D01*
X152402502Y-55309709D01*
X152235407Y-55264936D01*
X152000000Y-55244340D01*
X151764592Y-55264936D01*
X151536336Y-55326097D01*
X151322170Y-55425965D01*
X151128598Y-55561505D01*
X150961505Y-55728598D01*
X150825965Y-55922170D01*
X150726097Y-56136336D01*
X150664936Y-56364592D01*
X150644340Y-56600000D01*
X150664936Y-56835407D01*
X150693747Y-56942929D01*
X150726097Y-57063663D01*
X150825965Y-57277830D01*
X150961505Y-57471401D01*
X151128599Y-57638495D01*
X151322170Y-57774035D01*
X151536337Y-57873903D01*
X151561798Y-57880725D01*
X151621459Y-57917090D01*
X151651988Y-57979937D01*
X151643693Y-58049312D01*
X151599208Y-58103190D01*
X151532656Y-58124465D01*
X151529705Y-58124500D01*
X139794000Y-58124500D01*
X139726961Y-58104815D01*
X139681206Y-58052011D01*
X139670000Y-58000500D01*
X139670000Y-57560000D01*
X138753686Y-57560000D01*
X138779493Y-57519844D01*
X138820000Y-57381889D01*
X138820000Y-57238111D01*
X138779493Y-57100156D01*
X138753686Y-57060000D01*
X139670000Y-57060000D01*
X139670000Y-56559500D01*
X139689685Y-56492461D01*
X139742489Y-56446706D01*
X139794000Y-56435500D01*
X144150236Y-56435500D01*
X144176594Y-56438333D01*
X144180424Y-56439167D01*
X144227270Y-56435815D01*
X144236117Y-56435500D01*
X144248706Y-56435500D01*
X144261180Y-56433706D01*
X144269964Y-56432761D01*
X144316810Y-56429411D01*
X144319183Y-56428525D01*
X144320473Y-56428045D01*
X144346160Y-56421488D01*
X144350037Y-56420931D01*
X144392767Y-56401415D01*
X144400902Y-56398045D01*
X144444921Y-56381629D01*
X144448056Y-56379281D01*
X144470848Y-56365757D01*
X144474413Y-56364130D01*
X144509898Y-56333380D01*
X144516779Y-56327835D01*
X144526875Y-56320279D01*
X144526879Y-56320275D01*
X144535778Y-56311376D01*
X144542261Y-56305340D01*
X144577747Y-56274592D01*
X144577747Y-56274591D01*
X144577750Y-56274589D01*
X144579868Y-56271292D01*
X144596498Y-56250654D01*
X147909566Y-52937586D01*
X147970887Y-52904103D01*
X148040579Y-52909087D01*
X148096512Y-52950959D01*
X148102237Y-52959295D01*
X148109523Y-52970890D01*
X148229110Y-53090477D01*
X148372310Y-53180456D01*
X148531941Y-53236313D01*
X148700000Y-53255249D01*
X148868059Y-53236313D01*
X149027690Y-53180456D01*
X149170890Y-53090477D01*
X149249547Y-53011819D01*
X149310871Y-52978334D01*
X149337229Y-52975500D01*
X165735541Y-52975500D01*
X165761899Y-52978333D01*
X165765729Y-52979167D01*
X165812575Y-52975815D01*
X165821422Y-52975500D01*
X165834011Y-52975500D01*
X165846485Y-52973706D01*
X165855269Y-52972761D01*
X165902115Y-52969411D01*
X165904488Y-52968525D01*
X165905778Y-52968045D01*
X165931465Y-52961488D01*
X165935342Y-52960931D01*
X165978072Y-52941415D01*
X165986207Y-52938045D01*
X166030226Y-52921629D01*
X166033361Y-52919281D01*
X166056153Y-52905757D01*
X166059718Y-52904130D01*
X166095203Y-52873380D01*
X166102084Y-52867835D01*
X166112180Y-52860279D01*
X166115592Y-52856867D01*
X166121083Y-52851376D01*
X166127566Y-52845340D01*
X166163052Y-52814592D01*
X166163052Y-52814591D01*
X166163055Y-52814589D01*
X166165173Y-52811292D01*
X166181803Y-52790654D01*
X167512818Y-51459639D01*
X167574142Y-51426154D01*
X167643834Y-51431138D01*
X167699767Y-51473010D01*
X167724184Y-51538474D01*
X167724500Y-51547320D01*
X167724500Y-55252619D01*
X167704815Y-55319658D01*
X167652906Y-55365001D01*
X167522168Y-55425966D01*
X167328598Y-55561505D01*
X167161505Y-55728598D01*
X167025965Y-55922170D01*
X166926097Y-56136336D01*
X166864936Y-56364592D01*
X166844340Y-56600000D01*
X166864936Y-56835407D01*
X166893747Y-56942929D01*
X166926097Y-57063663D01*
X167025965Y-57277830D01*
X167161505Y-57471401D01*
X167328599Y-57638495D01*
X167522170Y-57774035D01*
X167736337Y-57873903D01*
X167964592Y-57935063D01*
X168200000Y-57955659D01*
X168435408Y-57935063D01*
X168663663Y-57873903D01*
X168877830Y-57774035D01*
X169071401Y-57638495D01*
X169238495Y-57471401D01*
X169374035Y-57277830D01*
X169473903Y-57063663D01*
X169535063Y-56835408D01*
X169555659Y-56600000D01*
X169555659Y-56599999D01*
X171194858Y-56599999D01*
X171215386Y-56847732D01*
X171276413Y-57088721D01*
X171376268Y-57316370D01*
X171476563Y-57469882D01*
X171476564Y-57469882D01*
X172174070Y-56772376D01*
X172176884Y-56785915D01*
X172246442Y-56920156D01*
X172349638Y-57030652D01*
X172478819Y-57109209D01*
X172530002Y-57123549D01*
X171829942Y-57823609D01*
X171829942Y-57823610D01*
X171876766Y-57860055D01*
X172095393Y-57978368D01*
X172330506Y-58059083D01*
X172575707Y-58100000D01*
X172824293Y-58100000D01*
X173069493Y-58059083D01*
X173304606Y-57978368D01*
X173523233Y-57860053D01*
X173570056Y-57823609D01*
X172871568Y-57125121D01*
X172988458Y-57074349D01*
X173105739Y-56978934D01*
X173192928Y-56855415D01*
X173223354Y-56769802D01*
X173923434Y-57469882D01*
X174023730Y-57316369D01*
X174123586Y-57088721D01*
X174184613Y-56847732D01*
X174205141Y-56600000D01*
X174184613Y-56352267D01*
X174123586Y-56111278D01*
X174023730Y-55883630D01*
X173923434Y-55730116D01*
X173225929Y-56427622D01*
X173223116Y-56414085D01*
X173153558Y-56279844D01*
X173050362Y-56169348D01*
X172921181Y-56090791D01*
X172869997Y-56076450D01*
X173570057Y-55376390D01*
X173570056Y-55376388D01*
X173523235Y-55339947D01*
X173304606Y-55221631D01*
X173069493Y-55140916D01*
X172824293Y-55100000D01*
X172575707Y-55100000D01*
X172330506Y-55140916D01*
X172095393Y-55221631D01*
X171876764Y-55339946D01*
X171829942Y-55376388D01*
X171829942Y-55376390D01*
X172528431Y-56074878D01*
X172411542Y-56125651D01*
X172294261Y-56221066D01*
X172207072Y-56344585D01*
X172176645Y-56430197D01*
X171476564Y-55730116D01*
X171376266Y-55883634D01*
X171276413Y-56111278D01*
X171215386Y-56352267D01*
X171194858Y-56599999D01*
X169555659Y-56599999D01*
X169535063Y-56364592D01*
X169473903Y-56136337D01*
X169374035Y-55922171D01*
X169238495Y-55728599D01*
X169071401Y-55561505D01*
X168877830Y-55425965D01*
X168747094Y-55365001D01*
X168694655Y-55318828D01*
X168675500Y-55252619D01*
X168675500Y-53500000D01*
X179994389Y-53500000D01*
X180014804Y-53785429D01*
X180075629Y-54065041D01*
X180086383Y-54093874D01*
X180165737Y-54306630D01*
X180175634Y-54333163D01*
X180312772Y-54584313D01*
X180350972Y-54635342D01*
X180484261Y-54813395D01*
X180686605Y-55015739D01*
X180821381Y-55116631D01*
X180915686Y-55187227D01*
X181004090Y-55235499D01*
X181166839Y-55324367D01*
X181434954Y-55424369D01*
X181434957Y-55424369D01*
X181434958Y-55424370D01*
X181442295Y-55425966D01*
X181714572Y-55485196D01*
X182000000Y-55505610D01*
X182285428Y-55485196D01*
X182565046Y-55424369D01*
X182833161Y-55324367D01*
X183084315Y-55187226D01*
X183313395Y-55015739D01*
X183515739Y-54813395D01*
X183687226Y-54584315D01*
X183824367Y-54333161D01*
X183924369Y-54065046D01*
X183985196Y-53785428D01*
X184005610Y-53500000D01*
X183985196Y-53214572D01*
X183931864Y-52969410D01*
X183924370Y-52934958D01*
X183919399Y-52921629D01*
X183824367Y-52666839D01*
X183727685Y-52489779D01*
X183687227Y-52415686D01*
X183624536Y-52331941D01*
X183515739Y-52186605D01*
X183313395Y-51984261D01*
X183186311Y-51889127D01*
X183084313Y-51812772D01*
X182833163Y-51675634D01*
X182833162Y-51675633D01*
X182833161Y-51675633D01*
X182630382Y-51600000D01*
X182565041Y-51575629D01*
X182285429Y-51514804D01*
X182000000Y-51494389D01*
X181714570Y-51514804D01*
X181434958Y-51575629D01*
X181166836Y-51675634D01*
X180915686Y-51812772D01*
X180686602Y-51984263D01*
X180484263Y-52186602D01*
X180312772Y-52415686D01*
X180175634Y-52666836D01*
X180075629Y-52934958D01*
X180014804Y-53214570D01*
X179994389Y-53500000D01*
X168675500Y-53500000D01*
X168675500Y-51447379D01*
X168695185Y-51380340D01*
X168747095Y-51334997D01*
X168877830Y-51274035D01*
X169071401Y-51138495D01*
X169238495Y-50971401D01*
X169374035Y-50777830D01*
X169473903Y-50563663D01*
X169535063Y-50335408D01*
X169555659Y-50100000D01*
X171194858Y-50100000D01*
X171215386Y-50347732D01*
X171276413Y-50588721D01*
X171376268Y-50816370D01*
X171476563Y-50969882D01*
X171476564Y-50969882D01*
X172174070Y-50272375D01*
X172176884Y-50285915D01*
X172246442Y-50420156D01*
X172349638Y-50530652D01*
X172478819Y-50609209D01*
X172530002Y-50623549D01*
X171829942Y-51323609D01*
X171829942Y-51323610D01*
X171876766Y-51360055D01*
X172095393Y-51478368D01*
X172330506Y-51559083D01*
X172575707Y-51600000D01*
X172824293Y-51600000D01*
X173069493Y-51559083D01*
X173304606Y-51478368D01*
X173523233Y-51360053D01*
X173570056Y-51323609D01*
X172871568Y-50625121D01*
X172988458Y-50574349D01*
X173105739Y-50478934D01*
X173192928Y-50355415D01*
X173223354Y-50269802D01*
X173923434Y-50969882D01*
X174023730Y-50816369D01*
X174123586Y-50588721D01*
X174184613Y-50347732D01*
X174205141Y-50099999D01*
X174184613Y-49852267D01*
X174123586Y-49611278D01*
X174023730Y-49383630D01*
X173923434Y-49230116D01*
X173225929Y-49927622D01*
X173223116Y-49914085D01*
X173153558Y-49779844D01*
X173050362Y-49669348D01*
X172921181Y-49590791D01*
X172869997Y-49576450D01*
X173570057Y-48876390D01*
X173570056Y-48876388D01*
X173523235Y-48839947D01*
X173304606Y-48721631D01*
X173069493Y-48640916D01*
X172824293Y-48600000D01*
X172575707Y-48600000D01*
X172330506Y-48640916D01*
X172095393Y-48721631D01*
X171876764Y-48839946D01*
X171829942Y-48876388D01*
X171829942Y-48876390D01*
X172528431Y-49574878D01*
X172411542Y-49625651D01*
X172294261Y-49721066D01*
X172207072Y-49844585D01*
X172176645Y-49930196D01*
X171476564Y-49230117D01*
X171376266Y-49383634D01*
X171276413Y-49611278D01*
X171215386Y-49852267D01*
X171194858Y-50100000D01*
X169555659Y-50100000D01*
X169535063Y-49864592D01*
X169473903Y-49636337D01*
X169374035Y-49422171D01*
X169238495Y-49228599D01*
X169071401Y-49061505D01*
X168877830Y-48925965D01*
X168663663Y-48826097D01*
X168602502Y-48809709D01*
X168435407Y-48764936D01*
X168200000Y-48744340D01*
X167964592Y-48764936D01*
X167736336Y-48826097D01*
X167522170Y-48925965D01*
X167328598Y-49061505D01*
X167161505Y-49228598D01*
X167025965Y-49422170D01*
X166926097Y-49636336D01*
X166864936Y-49864592D01*
X166844340Y-50099999D01*
X166864936Y-50335407D01*
X166926097Y-50563665D01*
X166933219Y-50578937D01*
X166943711Y-50648014D01*
X166915191Y-50711798D01*
X166908518Y-50719022D01*
X165639360Y-51988181D01*
X165578037Y-52021666D01*
X165551679Y-52024500D01*
X149337229Y-52024500D01*
X149270190Y-52004815D01*
X149249548Y-51988181D01*
X149246317Y-51984950D01*
X149212832Y-51923627D01*
X149217816Y-51853935D01*
X149259688Y-51798002D01*
X149267994Y-51792296D01*
X149270890Y-51790477D01*
X149390477Y-51670890D01*
X149480456Y-51527690D01*
X149536313Y-51368059D01*
X149555249Y-51200000D01*
X149536313Y-51031941D01*
X149480456Y-50872310D01*
X149390477Y-50729110D01*
X149270890Y-50609523D01*
X149127690Y-50519544D01*
X148968059Y-50463687D01*
X148968058Y-50463686D01*
X148968056Y-50463686D01*
X148800000Y-50444750D01*
X148631943Y-50463686D01*
X148472310Y-50519544D01*
X148329108Y-50609524D01*
X148209524Y-50729108D01*
X148119544Y-50872310D01*
X148063686Y-51031943D01*
X148044750Y-51200000D01*
X148064138Y-51372070D01*
X148052084Y-51440892D01*
X148028599Y-51473635D01*
X144054055Y-55448181D01*
X143992732Y-55481666D01*
X143966374Y-55484500D01*
X141387321Y-55484500D01*
X141320282Y-55464815D01*
X141274527Y-55412011D01*
X141264583Y-55342853D01*
X141293608Y-55279297D01*
X141299640Y-55272819D01*
X141582842Y-54989616D01*
X141690654Y-54881803D01*
X141711292Y-54865173D01*
X141714589Y-54863055D01*
X141715235Y-54862310D01*
X141745340Y-54827566D01*
X141751376Y-54821083D01*
X141760275Y-54812184D01*
X141760275Y-54812183D01*
X141760279Y-54812180D01*
X141767835Y-54802084D01*
X141773387Y-54795196D01*
X141776049Y-54792124D01*
X141804130Y-54759718D01*
X141805757Y-54756153D01*
X141819281Y-54733361D01*
X141821629Y-54730226D01*
X141838045Y-54686207D01*
X141841415Y-54678072D01*
X141860931Y-54635342D01*
X141861488Y-54631465D01*
X141868045Y-54605778D01*
X141868658Y-54604133D01*
X141869411Y-54602115D01*
X141872761Y-54555269D01*
X141873707Y-54546478D01*
X141874422Y-54541510D01*
X141875500Y-54534011D01*
X141875500Y-54521422D01*
X141875816Y-54512575D01*
X141876469Y-54503442D01*
X141879167Y-54465730D01*
X141878334Y-54461900D01*
X141875500Y-54435542D01*
X141875500Y-50099999D01*
X150644340Y-50099999D01*
X150664936Y-50335407D01*
X150699309Y-50463687D01*
X150726097Y-50563663D01*
X150825965Y-50777830D01*
X150961505Y-50971401D01*
X151128599Y-51138495D01*
X151322170Y-51274035D01*
X151536337Y-51373903D01*
X151764592Y-51435063D01*
X152000000Y-51455659D01*
X152235408Y-51435063D01*
X152463663Y-51373903D01*
X152677830Y-51274035D01*
X152871401Y-51138495D01*
X153038495Y-50971401D01*
X153174035Y-50777830D01*
X153273903Y-50563663D01*
X153335063Y-50335408D01*
X153355659Y-50100000D01*
X153355659Y-50099999D01*
X154994858Y-50099999D01*
X155015386Y-50347732D01*
X155076413Y-50588721D01*
X155176268Y-50816370D01*
X155276563Y-50969882D01*
X155276564Y-50969882D01*
X155974070Y-50272375D01*
X155976884Y-50285915D01*
X156046442Y-50420156D01*
X156149638Y-50530652D01*
X156278819Y-50609209D01*
X156330002Y-50623549D01*
X155629942Y-51323609D01*
X155629942Y-51323610D01*
X155676766Y-51360055D01*
X155895393Y-51478368D01*
X156130506Y-51559083D01*
X156375707Y-51600000D01*
X156624293Y-51600000D01*
X156869493Y-51559083D01*
X157104606Y-51478368D01*
X157323233Y-51360053D01*
X157370056Y-51323609D01*
X156671568Y-50625121D01*
X156788458Y-50574349D01*
X156905739Y-50478934D01*
X156992928Y-50355415D01*
X157023354Y-50269802D01*
X157723434Y-50969882D01*
X157823730Y-50816369D01*
X157923586Y-50588721D01*
X157984613Y-50347732D01*
X158005141Y-50099999D01*
X158744340Y-50099999D01*
X158764936Y-50335407D01*
X158799309Y-50463687D01*
X158826097Y-50563663D01*
X158925965Y-50777830D01*
X159061505Y-50971401D01*
X159228599Y-51138495D01*
X159422170Y-51274035D01*
X159636337Y-51373903D01*
X159864592Y-51435063D01*
X160100000Y-51455659D01*
X160335408Y-51435063D01*
X160563663Y-51373903D01*
X160777830Y-51274035D01*
X160971401Y-51138495D01*
X161138495Y-50971401D01*
X161274035Y-50777830D01*
X161373903Y-50563663D01*
X161435063Y-50335408D01*
X161455659Y-50100000D01*
X163094858Y-50100000D01*
X163115386Y-50347732D01*
X163176413Y-50588721D01*
X163276268Y-50816370D01*
X163376563Y-50969882D01*
X163376564Y-50969882D01*
X164074070Y-50272375D01*
X164076884Y-50285915D01*
X164146442Y-50420156D01*
X164249638Y-50530652D01*
X164378819Y-50609209D01*
X164430002Y-50623549D01*
X163729942Y-51323609D01*
X163729942Y-51323610D01*
X163776766Y-51360055D01*
X163995393Y-51478368D01*
X164230506Y-51559083D01*
X164475707Y-51600000D01*
X164724293Y-51600000D01*
X164969493Y-51559083D01*
X165204606Y-51478368D01*
X165423233Y-51360053D01*
X165470056Y-51323609D01*
X164771568Y-50625121D01*
X164888458Y-50574349D01*
X165005739Y-50478934D01*
X165092928Y-50355415D01*
X165123354Y-50269802D01*
X165823434Y-50969882D01*
X165923730Y-50816369D01*
X166023586Y-50588721D01*
X166084613Y-50347732D01*
X166105141Y-50099999D01*
X166084613Y-49852267D01*
X166023586Y-49611278D01*
X165923730Y-49383630D01*
X165823434Y-49230116D01*
X165125929Y-49927622D01*
X165123116Y-49914085D01*
X165053558Y-49779844D01*
X164950362Y-49669348D01*
X164821181Y-49590791D01*
X164769997Y-49576450D01*
X165470057Y-48876390D01*
X165470056Y-48876388D01*
X165423235Y-48839947D01*
X165204606Y-48721631D01*
X165119112Y-48692281D01*
X165062097Y-48651896D01*
X165035966Y-48587096D01*
X165049017Y-48518456D01*
X165097106Y-48467769D01*
X165119112Y-48457719D01*
X165204606Y-48428368D01*
X165423233Y-48310053D01*
X165470056Y-48273609D01*
X164771568Y-47575121D01*
X164888458Y-47524349D01*
X165005739Y-47428934D01*
X165092928Y-47305415D01*
X165123354Y-47219802D01*
X165823434Y-47919882D01*
X165923730Y-47766369D01*
X166023586Y-47538721D01*
X166084613Y-47297732D01*
X166105141Y-47050000D01*
X166084613Y-46802267D01*
X166023586Y-46561278D01*
X165923730Y-46333630D01*
X165823434Y-46180116D01*
X165125929Y-46877622D01*
X165123116Y-46864085D01*
X165053558Y-46729844D01*
X164950362Y-46619348D01*
X164821181Y-46540791D01*
X164769995Y-46526449D01*
X165470056Y-45826389D01*
X165470056Y-45826387D01*
X165423235Y-45789947D01*
X165204606Y-45671631D01*
X164969493Y-45590916D01*
X164724293Y-45550000D01*
X164475707Y-45550000D01*
X164230506Y-45590916D01*
X163995393Y-45671631D01*
X163776764Y-45789946D01*
X163729942Y-45826388D01*
X163729941Y-45826389D01*
X164428431Y-46524878D01*
X164311542Y-46575651D01*
X164194261Y-46671066D01*
X164107072Y-46794585D01*
X164076645Y-46880197D01*
X163376564Y-46180116D01*
X163276266Y-46333634D01*
X163176413Y-46561278D01*
X163115386Y-46802267D01*
X163094858Y-47050000D01*
X163115386Y-47297732D01*
X163176413Y-47538721D01*
X163276268Y-47766370D01*
X163376563Y-47919882D01*
X163376564Y-47919882D01*
X164074070Y-47222376D01*
X164076884Y-47235915D01*
X164146442Y-47370156D01*
X164249638Y-47480652D01*
X164378819Y-47559209D01*
X164430002Y-47573549D01*
X163729942Y-48273609D01*
X163729942Y-48273610D01*
X163776766Y-48310055D01*
X163995393Y-48428368D01*
X164080887Y-48457719D01*
X164137902Y-48498105D01*
X164164033Y-48562904D01*
X164150981Y-48631544D01*
X164102892Y-48682232D01*
X164080887Y-48692281D01*
X163995393Y-48721631D01*
X163776764Y-48839946D01*
X163729942Y-48876388D01*
X163729942Y-48876390D01*
X164428431Y-49574878D01*
X164311542Y-49625651D01*
X164194261Y-49721066D01*
X164107072Y-49844585D01*
X164076645Y-49930196D01*
X163376564Y-49230117D01*
X163276266Y-49383634D01*
X163176413Y-49611278D01*
X163115386Y-49852267D01*
X163094858Y-50100000D01*
X161455659Y-50100000D01*
X161435063Y-49864592D01*
X161373903Y-49636337D01*
X161274035Y-49422171D01*
X161138495Y-49228599D01*
X160971401Y-49061505D01*
X160777830Y-48925965D01*
X160563663Y-48826097D01*
X160502501Y-48809709D01*
X160335407Y-48764936D01*
X160100000Y-48744340D01*
X159864592Y-48764936D01*
X159636336Y-48826097D01*
X159422170Y-48925965D01*
X159228598Y-49061505D01*
X159061505Y-49228598D01*
X158925965Y-49422170D01*
X158826097Y-49636336D01*
X158764936Y-49864592D01*
X158744340Y-50099999D01*
X158005141Y-50099999D01*
X157984613Y-49852267D01*
X157923586Y-49611278D01*
X157823730Y-49383630D01*
X157723434Y-49230116D01*
X157025929Y-49927622D01*
X157023116Y-49914085D01*
X156953558Y-49779844D01*
X156850362Y-49669348D01*
X156721181Y-49590791D01*
X156669997Y-49576450D01*
X157370057Y-48876390D01*
X157370056Y-48876388D01*
X157323235Y-48839947D01*
X157104606Y-48721631D01*
X156869493Y-48640916D01*
X156624293Y-48600000D01*
X156375707Y-48600000D01*
X156130506Y-48640916D01*
X155895393Y-48721631D01*
X155676764Y-48839946D01*
X155629942Y-48876388D01*
X155629942Y-48876390D01*
X156328431Y-49574878D01*
X156211542Y-49625651D01*
X156094261Y-49721066D01*
X156007072Y-49844585D01*
X155976645Y-49930196D01*
X155276564Y-49230117D01*
X155176266Y-49383634D01*
X155076413Y-49611278D01*
X155015386Y-49852267D01*
X154994858Y-50099999D01*
X153355659Y-50099999D01*
X153335063Y-49864592D01*
X153273903Y-49636337D01*
X153174035Y-49422171D01*
X153038495Y-49228599D01*
X152871401Y-49061505D01*
X152677830Y-48925965D01*
X152463663Y-48826097D01*
X152402502Y-48809709D01*
X152235407Y-48764936D01*
X152000000Y-48744340D01*
X151764592Y-48764936D01*
X151536336Y-48826097D01*
X151322170Y-48925965D01*
X151128598Y-49061505D01*
X150961505Y-49228598D01*
X150825965Y-49422170D01*
X150726097Y-49636336D01*
X150664936Y-49864592D01*
X150644340Y-50099999D01*
X141875500Y-50099999D01*
X141875500Y-47050000D01*
X158744340Y-47050000D01*
X158764936Y-47285407D01*
X158796593Y-47403553D01*
X158826097Y-47513663D01*
X158925965Y-47727830D01*
X159061505Y-47921401D01*
X159228599Y-48088495D01*
X159422170Y-48224035D01*
X159636337Y-48323903D01*
X159864592Y-48385063D01*
X160099999Y-48405659D01*
X160099999Y-48405658D01*
X160100000Y-48405659D01*
X160335408Y-48385063D01*
X160563663Y-48323903D01*
X160777830Y-48224035D01*
X160971401Y-48088495D01*
X161138495Y-47921401D01*
X161274035Y-47727830D01*
X161373903Y-47513663D01*
X161435063Y-47285408D01*
X161455659Y-47050000D01*
X161435063Y-46814592D01*
X161373903Y-46586337D01*
X161274035Y-46372171D01*
X161138495Y-46178599D01*
X160971401Y-46011505D01*
X160777830Y-45875965D01*
X160647094Y-45815001D01*
X160594655Y-45768828D01*
X160575500Y-45702619D01*
X160575500Y-41897379D01*
X160595185Y-41830340D01*
X160647095Y-41784997D01*
X160777830Y-41724035D01*
X160971401Y-41588495D01*
X161138495Y-41421401D01*
X161274035Y-41227830D01*
X161373903Y-41013663D01*
X161435063Y-40785408D01*
X161455659Y-40550000D01*
X163094858Y-40550000D01*
X163115386Y-40797732D01*
X163176413Y-41038721D01*
X163276268Y-41266370D01*
X163376563Y-41419882D01*
X163376564Y-41419882D01*
X164074070Y-40722375D01*
X164076884Y-40735915D01*
X164146442Y-40870156D01*
X164249638Y-40980652D01*
X164378819Y-41059209D01*
X164430002Y-41073549D01*
X163729942Y-41773609D01*
X163729942Y-41773610D01*
X163776766Y-41810055D01*
X163995393Y-41928368D01*
X164230506Y-42009083D01*
X164475707Y-42050000D01*
X164724293Y-42050000D01*
X164969493Y-42009083D01*
X165204606Y-41928368D01*
X165423233Y-41810053D01*
X165470056Y-41773609D01*
X164771568Y-41075121D01*
X164888458Y-41024349D01*
X165005739Y-40928934D01*
X165092928Y-40805415D01*
X165123354Y-40719802D01*
X165823434Y-41419882D01*
X165923730Y-41266369D01*
X166023586Y-41038721D01*
X166084613Y-40797732D01*
X166105141Y-40550000D01*
X166084613Y-40302267D01*
X166023586Y-40061278D01*
X165923730Y-39833630D01*
X165823434Y-39680116D01*
X165125929Y-40377622D01*
X165123116Y-40364085D01*
X165053558Y-40229844D01*
X164950362Y-40119348D01*
X164821181Y-40040791D01*
X164769995Y-40026449D01*
X165470056Y-39326389D01*
X165470056Y-39326387D01*
X165423235Y-39289947D01*
X165204606Y-39171631D01*
X164969493Y-39090916D01*
X164724293Y-39050000D01*
X164475707Y-39050000D01*
X164230506Y-39090916D01*
X163995393Y-39171631D01*
X163776764Y-39289946D01*
X163729942Y-39326388D01*
X163729941Y-39326389D01*
X164428431Y-40024878D01*
X164311542Y-40075651D01*
X164194261Y-40171066D01*
X164107072Y-40294585D01*
X164076645Y-40380196D01*
X163376564Y-39680117D01*
X163276266Y-39833634D01*
X163176413Y-40061278D01*
X163115386Y-40302267D01*
X163094858Y-40550000D01*
X161455659Y-40550000D01*
X161435063Y-40314592D01*
X161373903Y-40086337D01*
X161274035Y-39872171D01*
X161138495Y-39678599D01*
X160971401Y-39511505D01*
X160777830Y-39375965D01*
X160563663Y-39276097D01*
X160502502Y-39259709D01*
X160335407Y-39214936D01*
X160100000Y-39194340D01*
X159864592Y-39214936D01*
X159636336Y-39276097D01*
X159422170Y-39375965D01*
X159228598Y-39511505D01*
X159061505Y-39678598D01*
X158925965Y-39872170D01*
X158826097Y-40086336D01*
X158764936Y-40314592D01*
X158744340Y-40550000D01*
X158764936Y-40785407D01*
X158787645Y-40870156D01*
X158826097Y-41013663D01*
X158925965Y-41227830D01*
X159061505Y-41421401D01*
X159228599Y-41588495D01*
X159422170Y-41724035D01*
X159422173Y-41724037D01*
X159514830Y-41767243D01*
X159552904Y-41784997D01*
X159605344Y-41831169D01*
X159624500Y-41897379D01*
X159624500Y-45702619D01*
X159604815Y-45769658D01*
X159552906Y-45815001D01*
X159422168Y-45875966D01*
X159228598Y-46011505D01*
X159061505Y-46178598D01*
X158925965Y-46372170D01*
X158826097Y-46586336D01*
X158764936Y-46814592D01*
X158744340Y-47050000D01*
X141875500Y-47050000D01*
X141875500Y-43948319D01*
X141895185Y-43881280D01*
X141911814Y-43860643D01*
X145733368Y-40039088D01*
X145794689Y-40005605D01*
X145834931Y-40003551D01*
X145850000Y-40005249D01*
X145850001Y-40005248D01*
X145850002Y-40005249D01*
X145924409Y-39996865D01*
X146018059Y-39986313D01*
X146177690Y-39930456D01*
X146320890Y-39840477D01*
X146440477Y-39720890D01*
X146530456Y-39577690D01*
X146586313Y-39418059D01*
X146605249Y-39250000D01*
X146586313Y-39081941D01*
X146530456Y-38922310D01*
X146440477Y-38779110D01*
X146320890Y-38659523D01*
X146177690Y-38569544D01*
X146177687Y-38569542D01*
X146086330Y-38537575D01*
X146029554Y-38496854D01*
X146003807Y-38431901D01*
X146017263Y-38363339D01*
X146039601Y-38332856D01*
X147872457Y-36500000D01*
X171494356Y-36500000D01*
X171514891Y-36747816D01*
X171514891Y-36747819D01*
X171514892Y-36747821D01*
X171575937Y-36988881D01*
X171620960Y-37091523D01*
X171675825Y-37216604D01*
X171675827Y-37216607D01*
X171811836Y-37424785D01*
X171980256Y-37607738D01*
X171980259Y-37607740D01*
X172176485Y-37760470D01*
X172176487Y-37760471D01*
X172176491Y-37760474D01*
X172395190Y-37878828D01*
X172630386Y-37959571D01*
X172875665Y-38000500D01*
X173124335Y-38000500D01*
X173369614Y-37959571D01*
X173604810Y-37878828D01*
X173823509Y-37760474D01*
X174019744Y-37607738D01*
X174188164Y-37424785D01*
X174324173Y-37216607D01*
X174424063Y-36988881D01*
X174485108Y-36747821D01*
X174505643Y-36500000D01*
X174485108Y-36252179D01*
X174424063Y-36011119D01*
X174324173Y-35783393D01*
X174188164Y-35575215D01*
X174019744Y-35392262D01*
X173926316Y-35319544D01*
X173823514Y-35239529D01*
X173823510Y-35239526D01*
X173823509Y-35239526D01*
X173604810Y-35121172D01*
X173604806Y-35121170D01*
X173604805Y-35121170D01*
X173369615Y-35040429D01*
X173124335Y-34999500D01*
X172875665Y-34999500D01*
X172630384Y-35040429D01*
X172395194Y-35121170D01*
X172176485Y-35239529D01*
X171980259Y-35392259D01*
X171980256Y-35392261D01*
X171980256Y-35392262D01*
X171854279Y-35529110D01*
X171811837Y-35575214D01*
X171675825Y-35783395D01*
X171602988Y-35949448D01*
X171575937Y-36011119D01*
X171536195Y-36168056D01*
X171514891Y-36252183D01*
X171494356Y-36500000D01*
X147872457Y-36500000D01*
X150383369Y-33989088D01*
X150444690Y-33955605D01*
X150484931Y-33953551D01*
X150500000Y-33955249D01*
X150500001Y-33955248D01*
X150500003Y-33955249D01*
X150584029Y-33945780D01*
X150668059Y-33936313D01*
X150827690Y-33880456D01*
X150970890Y-33790477D01*
X151090477Y-33670890D01*
X151180456Y-33527690D01*
X151236313Y-33368059D01*
X151255249Y-33200000D01*
X151236313Y-33031941D01*
X151180456Y-32872310D01*
X151144741Y-32815471D01*
X151125742Y-32748235D01*
X151146110Y-32681400D01*
X151199378Y-32636186D01*
X151249736Y-32625500D01*
X153468976Y-32625500D01*
X153536015Y-32645185D01*
X153581770Y-32697989D01*
X153591714Y-32767147D01*
X153581358Y-32801906D01*
X153546568Y-32876509D01*
X153489364Y-33089999D01*
X153489364Y-33090000D01*
X154386314Y-33090000D01*
X154360507Y-33130156D01*
X154320000Y-33268111D01*
X154320000Y-33411889D01*
X154360507Y-33549844D01*
X154386314Y-33590000D01*
X153489364Y-33590000D01*
X153546569Y-33803492D01*
X153646399Y-34017576D01*
X153781893Y-34211081D01*
X153948918Y-34378106D01*
X154142423Y-34513600D01*
X154356509Y-34613430D01*
X154570000Y-34670634D01*
X154570000Y-33775501D01*
X154677685Y-33824680D01*
X154784237Y-33840000D01*
X154855763Y-33840000D01*
X154962315Y-33824680D01*
X155070000Y-33775501D01*
X155070000Y-34670633D01*
X155283490Y-34613430D01*
X155497576Y-34513600D01*
X155691081Y-34378106D01*
X155858106Y-34211081D01*
X155993600Y-34017576D01*
X156060282Y-33874578D01*
X156106454Y-33822139D01*
X156173648Y-33802987D01*
X156240529Y-33823203D01*
X156283664Y-33871711D01*
X156334941Y-33974688D01*
X156469019Y-34152237D01*
X156633437Y-34302124D01*
X156822595Y-34419245D01*
X156822597Y-34419245D01*
X156822599Y-34419247D01*
X157030060Y-34499618D01*
X157248757Y-34540500D01*
X157248759Y-34540500D01*
X157471241Y-34540500D01*
X157471243Y-34540500D01*
X157689940Y-34499618D01*
X157897401Y-34419247D01*
X158086562Y-34302124D01*
X158250981Y-34152236D01*
X158385058Y-33974689D01*
X158484229Y-33775528D01*
X158487239Y-33764952D01*
X158510734Y-33682374D01*
X158548013Y-33623281D01*
X158611322Y-33593723D01*
X158680562Y-33603085D01*
X158733749Y-33648395D01*
X158749266Y-33682374D01*
X158775769Y-33775526D01*
X158874941Y-33974688D01*
X159009019Y-34152237D01*
X159173437Y-34302124D01*
X159362595Y-34419245D01*
X159362597Y-34419245D01*
X159362599Y-34419247D01*
X159570060Y-34499618D01*
X159788757Y-34540500D01*
X159788759Y-34540500D01*
X160011241Y-34540500D01*
X160011243Y-34540500D01*
X160229940Y-34499618D01*
X160437401Y-34419247D01*
X160626562Y-34302124D01*
X160790981Y-34152236D01*
X160925058Y-33974689D01*
X161024229Y-33775528D01*
X161027239Y-33764952D01*
X161073293Y-33603085D01*
X161085115Y-33561536D01*
X161105643Y-33340000D01*
X161085115Y-33118464D01*
X161054027Y-33009202D01*
X161024230Y-32904473D01*
X160925058Y-32705311D01*
X160790980Y-32527762D01*
X160626562Y-32377875D01*
X160437404Y-32260754D01*
X160352053Y-32227689D01*
X160229940Y-32180382D01*
X160011243Y-32139500D01*
X159788757Y-32139500D01*
X159701278Y-32155852D01*
X159570057Y-32180382D01*
X159532079Y-32195095D01*
X159462456Y-32200955D01*
X159400716Y-32168244D01*
X159399607Y-32167148D01*
X158641808Y-31409349D01*
X158625174Y-31388708D01*
X158623055Y-31385411D01*
X158587565Y-31354659D01*
X158581086Y-31348627D01*
X158572180Y-31339721D01*
X158562093Y-31332170D01*
X158555214Y-31326627D01*
X158519718Y-31295870D01*
X158519716Y-31295869D01*
X158516150Y-31294240D01*
X158493369Y-31280722D01*
X158490231Y-31278373D01*
X158446223Y-31261959D01*
X158438045Y-31258571D01*
X158395343Y-31239069D01*
X158394654Y-31238970D01*
X158391458Y-31238510D01*
X158365781Y-31231956D01*
X158362115Y-31230588D01*
X158315275Y-31227237D01*
X158306491Y-31226293D01*
X158294012Y-31224500D01*
X158294011Y-31224500D01*
X158281422Y-31224500D01*
X158272575Y-31224184D01*
X158225729Y-31220833D01*
X158225728Y-31220833D01*
X158221900Y-31221666D01*
X158195541Y-31224500D01*
X149464459Y-31224500D01*
X149438100Y-31221666D01*
X149434271Y-31220833D01*
X149387425Y-31224184D01*
X149378578Y-31224500D01*
X149365988Y-31224500D01*
X149353509Y-31226293D01*
X149344725Y-31227237D01*
X149297883Y-31230589D01*
X149294212Y-31231958D01*
X149268535Y-31238511D01*
X149264657Y-31239068D01*
X149221944Y-31258574D01*
X149213770Y-31261960D01*
X149169773Y-31278370D01*
X149166630Y-31280723D01*
X149143857Y-31294235D01*
X149140284Y-31295867D01*
X149104800Y-31326613D01*
X149097921Y-31332158D01*
X149087818Y-31339722D01*
X149078898Y-31348641D01*
X149072429Y-31354663D01*
X149036944Y-31385411D01*
X149034825Y-31388709D01*
X149018194Y-31409345D01*
X135309345Y-45118194D01*
X135288709Y-45134825D01*
X135270417Y-45146582D01*
X135268601Y-45143757D01*
X135234428Y-45165717D01*
X135164558Y-45165713D01*
X135105782Y-45127935D01*
X135076761Y-45064378D01*
X135075500Y-45046738D01*
X135075500Y-44248320D01*
X135095185Y-44181281D01*
X135111819Y-44160639D01*
X140840557Y-38431901D01*
X146583369Y-32689088D01*
X146644690Y-32655605D01*
X146684931Y-32653551D01*
X146700000Y-32655249D01*
X146700001Y-32655248D01*
X146700003Y-32655249D01*
X146789319Y-32645185D01*
X146868059Y-32636313D01*
X147027690Y-32580456D01*
X147170890Y-32490477D01*
X147290477Y-32370890D01*
X147380456Y-32227690D01*
X147436313Y-32068059D01*
X147455249Y-31900000D01*
X147436313Y-31731941D01*
X147380456Y-31572310D01*
X147290477Y-31429110D01*
X147170890Y-31309523D01*
X147027690Y-31219544D01*
X146868059Y-31163687D01*
X146868058Y-31163686D01*
X146868056Y-31163686D01*
X146700000Y-31144750D01*
X146531943Y-31163686D01*
X146372310Y-31219544D01*
X146229108Y-31309524D01*
X146109524Y-31429108D01*
X146019544Y-31572310D01*
X145963686Y-31731943D01*
X145944750Y-31899999D01*
X145946448Y-31915065D01*
X145934394Y-31983887D01*
X145910909Y-32016630D01*
X134309345Y-43618194D01*
X134288709Y-43634825D01*
X134285411Y-43636944D01*
X134254663Y-43672429D01*
X134248641Y-43678898D01*
X134239722Y-43687818D01*
X134232158Y-43697921D01*
X134226613Y-43704800D01*
X134195867Y-43740284D01*
X134194235Y-43743857D01*
X134180723Y-43766630D01*
X134178370Y-43769773D01*
X134161960Y-43813770D01*
X134158574Y-43821944D01*
X134139068Y-43864657D01*
X134138511Y-43868535D01*
X134131958Y-43894212D01*
X134130589Y-43897883D01*
X134127237Y-43944725D01*
X134126293Y-43953509D01*
X134124500Y-43965988D01*
X134124500Y-43978577D01*
X134124184Y-43987424D01*
X134120833Y-44034269D01*
X134121666Y-44038098D01*
X134124500Y-44064458D01*
X134124500Y-52643357D01*
X134104815Y-52710396D01*
X134065778Y-52748784D01*
X133873435Y-52867877D01*
X133709019Y-53017762D01*
X133574941Y-53195311D01*
X133475769Y-53394473D01*
X133449266Y-53487625D01*
X133411987Y-53546719D01*
X133348677Y-53576276D01*
X133279438Y-53566914D01*
X133226251Y-53521604D01*
X133210734Y-53487625D01*
X133184230Y-53394473D01*
X133085058Y-53195311D01*
X132950980Y-53017762D01*
X132786564Y-52867877D01*
X132594222Y-52748784D01*
X132547587Y-52696756D01*
X132535500Y-52643357D01*
X132535500Y-36557228D01*
X132555185Y-36490189D01*
X132569551Y-36472361D01*
X132570472Y-36470894D01*
X132570477Y-36470890D01*
X132660456Y-36327690D01*
X132716313Y-36168059D01*
X132735249Y-36000000D01*
X132716313Y-35831941D01*
X132660456Y-35672310D01*
X132570477Y-35529110D01*
X132450890Y-35409523D01*
X132307690Y-35319544D01*
X132148059Y-35263687D01*
X132148058Y-35263686D01*
X132148056Y-35263686D01*
X131979999Y-35244750D01*
X131811943Y-35263686D01*
X131652310Y-35319544D01*
X131509108Y-35409524D01*
X131389524Y-35529108D01*
X131299544Y-35672310D01*
X131243686Y-35831943D01*
X131224750Y-36000000D01*
X131243686Y-36168056D01*
X131243686Y-36168058D01*
X131243687Y-36168059D01*
X131299544Y-36327690D01*
X131389523Y-36470890D01*
X131509110Y-36590477D01*
X131526469Y-36601384D01*
X131572761Y-36653717D01*
X131584499Y-36706379D01*
X131584499Y-52382678D01*
X131564814Y-52449717D01*
X131512010Y-52495472D01*
X131442852Y-52505416D01*
X131379296Y-52476391D01*
X131372818Y-52470359D01*
X131266808Y-52364349D01*
X131250174Y-52343708D01*
X131248055Y-52340411D01*
X131212565Y-52309659D01*
X131206086Y-52303627D01*
X131197180Y-52294721D01*
X131187093Y-52287170D01*
X131180214Y-52281627D01*
X131144718Y-52250870D01*
X131144716Y-52250869D01*
X131141150Y-52249240D01*
X131118369Y-52235722D01*
X131115231Y-52233373D01*
X131092779Y-52224999D01*
X131071219Y-52216957D01*
X131063045Y-52213571D01*
X131020343Y-52194069D01*
X131019654Y-52193970D01*
X131016458Y-52193510D01*
X130990776Y-52186954D01*
X130983838Y-52184366D01*
X130927905Y-52142493D01*
X130903491Y-52077028D01*
X130918345Y-52008756D01*
X130920000Y-52006545D01*
X130920000Y-30624500D01*
X130939685Y-30557461D01*
X130992489Y-30511706D01*
X131044000Y-30500500D01*
X161998695Y-30500500D01*
X162001257Y-30500525D01*
G37*
%TD.AperFunction*%
%TA.AperFunction,Conductor*%
G36*
X151288718Y-59545185D02*
G01*
X151309360Y-59561819D01*
X155464486Y-63716945D01*
X155497971Y-63778268D01*
X155496071Y-63838560D01*
X155444885Y-64018462D01*
X155424357Y-64239999D01*
X155444885Y-64461537D01*
X155505769Y-64675526D01*
X155604941Y-64874688D01*
X155739019Y-65052237D01*
X155903437Y-65202124D01*
X156022909Y-65276097D01*
X156092599Y-65319247D01*
X156286522Y-65394373D01*
X156341924Y-65436946D01*
X156365514Y-65502713D01*
X156349803Y-65570793D01*
X156299779Y-65619572D01*
X156286526Y-65625624D01*
X156183814Y-65665416D01*
X156092596Y-65700754D01*
X155903437Y-65817875D01*
X155739019Y-65967762D01*
X155604941Y-66145311D01*
X155505769Y-66344473D01*
X155444885Y-66558462D01*
X155424357Y-66780000D01*
X155444885Y-67001537D01*
X155505769Y-67215526D01*
X155604941Y-67414688D01*
X155739019Y-67592237D01*
X155903437Y-67742124D01*
X156101793Y-67864940D01*
X156148429Y-67916968D01*
X156159533Y-67985949D01*
X156131580Y-68049984D01*
X156088921Y-68082749D01*
X155952421Y-68146400D01*
X155758921Y-68281890D01*
X155591890Y-68448921D01*
X155456400Y-68642421D01*
X155356569Y-68856507D01*
X155299364Y-69069999D01*
X155299364Y-69070000D01*
X156196314Y-69070000D01*
X156170507Y-69110156D01*
X156130000Y-69248111D01*
X156130000Y-69391889D01*
X156170507Y-69529844D01*
X156196314Y-69570000D01*
X155299364Y-69570000D01*
X155356569Y-69783492D01*
X155456399Y-69997576D01*
X155591893Y-70191081D01*
X155758918Y-70358106D01*
X155867198Y-70433925D01*
X155910822Y-70488502D01*
X155918015Y-70558001D01*
X155886493Y-70620355D01*
X155826263Y-70655769D01*
X155796074Y-70659500D01*
X155746737Y-70659500D01*
X155678609Y-70669426D01*
X155573515Y-70720802D01*
X155490802Y-70803515D01*
X155439426Y-70908609D01*
X155429500Y-70976736D01*
X155429500Y-71250500D01*
X155409815Y-71317539D01*
X155357011Y-71363294D01*
X155305500Y-71374500D01*
X151698321Y-71374500D01*
X151631282Y-71354815D01*
X151610640Y-71338181D01*
X149889090Y-69616631D01*
X149855605Y-69555308D01*
X149853551Y-69515067D01*
X149855249Y-69500000D01*
X149855248Y-69499997D01*
X149855249Y-69499995D01*
X149836313Y-69331943D01*
X149836313Y-69331941D01*
X149780456Y-69172310D01*
X149690477Y-69029110D01*
X149611819Y-68950452D01*
X149578334Y-68889129D01*
X149575500Y-68862771D01*
X149575500Y-67539154D01*
X149578334Y-67512794D01*
X149579167Y-67508966D01*
X149575816Y-67462115D01*
X149575500Y-67453269D01*
X149575500Y-67440686D01*
X149573707Y-67428218D01*
X149572761Y-67419414D01*
X149572423Y-67414688D01*
X149569412Y-67372580D01*
X149568045Y-67368915D01*
X149561486Y-67343216D01*
X149560931Y-67339353D01*
X149541424Y-67296639D01*
X149538039Y-67288467D01*
X149521629Y-67244469D01*
X149519277Y-67241328D01*
X149505756Y-67218537D01*
X149504130Y-67214977D01*
X149473374Y-67179482D01*
X149467837Y-67172611D01*
X149460279Y-67162515D01*
X149460277Y-67162513D01*
X149460275Y-67162510D01*
X149451373Y-67153609D01*
X149445354Y-67147146D01*
X149414589Y-67111640D01*
X149411291Y-67109520D01*
X149390652Y-67092888D01*
X145571819Y-63274055D01*
X145538334Y-63212732D01*
X145535500Y-63186374D01*
X145535500Y-62614459D01*
X145538334Y-62588099D01*
X145539167Y-62584271D01*
X145535816Y-62537420D01*
X145535500Y-62528574D01*
X145535500Y-62515986D01*
X145533708Y-62503525D01*
X145532761Y-62494720D01*
X145532681Y-62493599D01*
X145529412Y-62447886D01*
X145528043Y-62444216D01*
X145521487Y-62418531D01*
X145520931Y-62414658D01*
X145520929Y-62414654D01*
X145520929Y-62414652D01*
X145501424Y-62371943D01*
X145498034Y-62363760D01*
X145481629Y-62319773D01*
X145479280Y-62316635D01*
X145465755Y-62293840D01*
X145464130Y-62290283D01*
X145464130Y-62290282D01*
X145433374Y-62254787D01*
X145427837Y-62247916D01*
X145420279Y-62237820D01*
X145420277Y-62237818D01*
X145420275Y-62237815D01*
X145411373Y-62228914D01*
X145405354Y-62222451D01*
X145374589Y-62186945D01*
X145371291Y-62184825D01*
X145350652Y-62168193D01*
X144591808Y-61409349D01*
X144575174Y-61388708D01*
X144573055Y-61385411D01*
X144537565Y-61354659D01*
X144531086Y-61348627D01*
X144522180Y-61339721D01*
X144512093Y-61332170D01*
X144505214Y-61326627D01*
X144469718Y-61295870D01*
X144469716Y-61295869D01*
X144466150Y-61294240D01*
X144443369Y-61280722D01*
X144440231Y-61278373D01*
X144402963Y-61264473D01*
X144396219Y-61261957D01*
X144388045Y-61258571D01*
X144345343Y-61239069D01*
X144344654Y-61238970D01*
X144341458Y-61238510D01*
X144315781Y-61231956D01*
X144312115Y-61230588D01*
X144265275Y-61227237D01*
X144256491Y-61226293D01*
X144244012Y-61224500D01*
X144244011Y-61224500D01*
X144231422Y-61224500D01*
X144222575Y-61224184D01*
X144220492Y-61224035D01*
X144175729Y-61220833D01*
X144175728Y-61220833D01*
X144171900Y-61221666D01*
X144145541Y-61224500D01*
X141049500Y-61224500D01*
X140982461Y-61204815D01*
X140936706Y-61152011D01*
X140925500Y-61100500D01*
X140925500Y-60603013D01*
X140925500Y-60603012D01*
X140925500Y-60598960D01*
X140910365Y-60484001D01*
X140851117Y-60340963D01*
X140834347Y-60319108D01*
X140756867Y-60218132D01*
X140634036Y-60123882D01*
X140491000Y-60064635D01*
X140380058Y-60050029D01*
X140376040Y-60049500D01*
X140371987Y-60049500D01*
X139985820Y-60049500D01*
X139918781Y-60029815D01*
X139898139Y-60013181D01*
X139622140Y-59737181D01*
X139588655Y-59675858D01*
X139593639Y-59606166D01*
X139635511Y-59550233D01*
X139700975Y-59525816D01*
X139709821Y-59525500D01*
X151221679Y-59525500D01*
X151288718Y-59545185D01*
G37*
%TD.AperFunction*%
%TA.AperFunction,Conductor*%
G36*
X144028718Y-62195185D02*
G01*
X144049360Y-62211819D01*
X144096403Y-62258862D01*
X144129888Y-62320185D01*
X144124904Y-62389877D01*
X144083032Y-62445810D01*
X144017568Y-62470227D01*
X143971071Y-62464026D01*
X143799999Y-62444750D01*
X143631943Y-62463686D01*
X143472310Y-62519544D01*
X143329108Y-62609524D01*
X143209524Y-62729108D01*
X143119544Y-62872310D01*
X143063686Y-63031943D01*
X143044750Y-63200000D01*
X143063686Y-63368056D01*
X143063686Y-63368058D01*
X143063687Y-63368059D01*
X143119544Y-63527690D01*
X143209523Y-63670890D01*
X143288182Y-63749548D01*
X143321666Y-63810869D01*
X143324500Y-63837228D01*
X143324500Y-64951679D01*
X143304815Y-65018718D01*
X143288181Y-65039360D01*
X141436681Y-66890860D01*
X141375358Y-66924345D01*
X141305666Y-66919361D01*
X141249733Y-66877489D01*
X141225316Y-66812025D01*
X141225000Y-66803179D01*
X141225000Y-66687500D01*
X138775001Y-66687500D01*
X138775001Y-66821829D01*
X138775321Y-66828111D01*
X138785493Y-66927695D01*
X138823204Y-67041496D01*
X138825606Y-67111324D01*
X138789874Y-67171366D01*
X138727354Y-67202559D01*
X138705498Y-67204500D01*
X138499500Y-67204500D01*
X138432461Y-67184815D01*
X138386706Y-67132011D01*
X138375500Y-67080500D01*
X138375500Y-66916736D01*
X138365573Y-66848608D01*
X138343991Y-66804461D01*
X138343990Y-66804459D01*
X138332231Y-66735587D01*
X138343991Y-66695539D01*
X138365573Y-66651393D01*
X138369543Y-66624139D01*
X138375500Y-66583263D01*
X138375500Y-65899500D01*
X138395185Y-65832461D01*
X138447989Y-65786706D01*
X138499500Y-65775500D01*
X138670704Y-65775500D01*
X138737743Y-65795185D01*
X138783498Y-65847989D01*
X138793442Y-65917147D01*
X138788409Y-65938505D01*
X138785494Y-65947301D01*
X138775319Y-66046890D01*
X138775000Y-66053168D01*
X138775000Y-66187500D01*
X141224999Y-66187500D01*
X141224999Y-66160259D01*
X141244684Y-66093220D01*
X141297488Y-66047465D01*
X141362883Y-66037039D01*
X141524500Y-66055249D01*
X141692559Y-66036313D01*
X141852190Y-65980456D01*
X141995390Y-65890477D01*
X142114977Y-65770890D01*
X142204956Y-65627690D01*
X142260813Y-65468059D01*
X142279749Y-65300000D01*
X142260813Y-65131941D01*
X142204956Y-64972310D01*
X142114977Y-64829110D01*
X141995390Y-64709523D01*
X141852190Y-64619544D01*
X141692559Y-64563687D01*
X141692558Y-64563686D01*
X141692556Y-64563686D01*
X141524499Y-64544750D01*
X141356443Y-64563686D01*
X141294665Y-64585302D01*
X141240452Y-64604273D01*
X141170675Y-64607834D01*
X141110047Y-64573105D01*
X141077820Y-64511112D01*
X141075499Y-64487231D01*
X141075499Y-63989694D01*
X141075499Y-63989692D01*
X141075499Y-63985640D01*
X141060044Y-63868238D01*
X140999536Y-63722159D01*
X140918673Y-63616776D01*
X140903283Y-63596719D01*
X140903280Y-63596717D01*
X140813323Y-63527690D01*
X140805737Y-63521869D01*
X140764535Y-63465441D01*
X140760380Y-63395695D01*
X140782846Y-63348010D01*
X140851117Y-63259037D01*
X140910365Y-63115999D01*
X140925500Y-63001040D01*
X140925500Y-62423960D01*
X140911245Y-62315685D01*
X140922010Y-62246650D01*
X140968390Y-62194394D01*
X141034184Y-62175500D01*
X143961679Y-62175500D01*
X144028718Y-62195185D01*
G37*
%TD.AperFunction*%
%TA.AperFunction,Conductor*%
G36*
X136802267Y-59995185D02*
G01*
X136848022Y-60047989D01*
X136857966Y-60117147D01*
X136828941Y-60180703D01*
X136818770Y-60189425D01*
X136818989Y-60189644D01*
X136689524Y-60319108D01*
X136599544Y-60462310D01*
X136543686Y-60621943D01*
X136524750Y-60789999D01*
X136543686Y-60958056D01*
X136543686Y-60958058D01*
X136543687Y-60958059D01*
X136599544Y-61117690D01*
X136689523Y-61260890D01*
X136809110Y-61380477D01*
X136952310Y-61470456D01*
X137111941Y-61526313D01*
X137159957Y-61531723D01*
X137279995Y-61545249D01*
X137279997Y-61545248D01*
X137280000Y-61545249D01*
X137295064Y-61543551D01*
X137363884Y-61555603D01*
X137396631Y-61579090D01*
X137455360Y-61637819D01*
X137488845Y-61699142D01*
X137483861Y-61768834D01*
X137441989Y-61824767D01*
X137376525Y-61849184D01*
X137367679Y-61849500D01*
X135699000Y-61849500D01*
X135631961Y-61829815D01*
X135586206Y-61777011D01*
X135575000Y-61725500D01*
X135575000Y-61350000D01*
X134199000Y-61350000D01*
X134131961Y-61330315D01*
X134086206Y-61277511D01*
X134075000Y-61226000D01*
X134075000Y-60974000D01*
X134094685Y-60906961D01*
X134147489Y-60861206D01*
X134199000Y-60850000D01*
X135575000Y-60850000D01*
X135575000Y-60155481D01*
X135574645Y-60148869D01*
X135570763Y-60112756D01*
X135583168Y-60043996D01*
X135630778Y-59992859D01*
X135694052Y-59975500D01*
X136735228Y-59975500D01*
X136802267Y-59995185D01*
G37*
%TD.AperFunction*%
%TD*%
M02*
