M48
; DRILL file {KiCad 7.0.2-1.fc38} date mar 6 giu 2023, 17:02:25
; FORMAT={-:-/ absolute / inch / decimal}
; #@! TF.CreationDate,2023-06-06T17:02:25+02:00
; #@! TF.GenerationSoftware,Kicad,Pcbnew,7.0.2-1.fc38
; #@! TF.FileFunction,Plated,1,2,PTH
FMAT,2
INCH
; #@! TA.AperFunction,Plated,PTH,ViaDrill
T1C0.0157
; #@! TA.AperFunction,Plated,PTH,ComponentDrill
T2C0.0157
; #@! TA.AperFunction,Plated,PTH,ComponentDrill
T3C0.0236
; #@! TA.AperFunction,Plated,PTH,ComponentDrill
T4C0.0354
; #@! TA.AperFunction,Plated,PTH,ComponentDrill
T5C0.0394
; #@! TA.AperFunction,Plated,PTH,ComponentDrill
T6C0.0433
%
G90
G05
T1
X4.8071Y-2.1654
X4.9902Y-2.0669
X5.1961Y-1.4173
X5.2402Y-2.8071
X5.3386Y-2.0669
X5.3457Y-2.1746
X5.4016Y-2.0591
X5.4331Y-2.3819
X5.5197Y-2.2559
X5.5718Y-2.5709
X5.6614Y-2.4882
X5.7421Y-1.5453
X5.7756Y-1.2559
X5.8583Y-2.0157
X5.8583Y-2.1063
X5.8701Y-2.7362
X5.9252Y-1.3071
T2
X4.4636Y-1.9892
X4.4636Y-2.0226
X4.4636Y-2.0561
X4.4636Y-2.0896
X4.4636Y-2.123
X4.4636Y-2.1565
X4.4636Y-2.19
X4.4636Y-2.2234
X4.5167Y-1.9892
X4.5167Y-2.0226
X4.5167Y-2.0561
X4.5167Y-2.0896
X4.5167Y-2.123
X4.5167Y-2.1565
X4.5167Y-2.19
X4.5167Y-2.2234
T4
X4.4882Y-1.6362
X4.4882Y-1.7362
T5
X5.0992Y-2.1193
X5.1457Y-2.2563
X5.1992Y-2.1193
X5.2457Y-2.2563
X5.2992Y-2.1193
X5.3457Y-2.2563
X5.3992Y-2.1193
X5.4457Y-2.2563
X5.4992Y-2.1193
X6.0953Y-1.3126
X6.1665Y-2.4291
X6.1665Y-2.5291
X6.1665Y-2.6291
X6.1665Y-2.7291
X6.1665Y-2.8291
X6.1953Y-1.3126
X6.2953Y-1.3126
T6
X5.9843Y-1.9724
X5.9843Y-2.2283
X6.1614Y-1.9724
X6.1614Y-2.2283
X6.3031Y-1.5965
X6.3031Y-1.8524
X6.3031Y-1.9724
X6.3031Y-2.2283
X6.3031Y-2.3504
X6.3031Y-2.6063
X6.4803Y-1.5965
X6.4803Y-1.8524
X6.4803Y-1.9724
X6.4803Y-2.2283
X6.4803Y-2.3504
X6.4803Y-2.6063
X6.622Y-1.9724
X6.622Y-2.2283
X6.7736Y-2.3484
X6.7736Y-2.6043
X6.7992Y-1.9724
X6.7992Y-2.2283
X6.9508Y-2.3484
X6.9508Y-2.6043
T3
G00X4.3293Y-1.936
M15
G01X4.3608Y-1.936
M16
G05
G00X4.3293Y-2.2766
M15
G01X4.3608Y-2.2766
M16
G05
G00X4.4486Y-1.936
M15
G01X4.5077Y-1.936
M16
G05
G00X4.4486Y-2.2766
M15
G01X4.5077Y-2.2766
M16
G05
T0
M30
