%TF.GenerationSoftware,KiCad,Pcbnew,7.0.2-1.fc38*%
%TF.CreationDate,2023-06-06T12:07:16+02:00*%
%TF.ProjectId,gps_compass,6770735f-636f-46d7-9061-73732e6b6963,rev?*%
%TF.SameCoordinates,Original*%
%TF.FileFunction,Copper,L2,Bot*%
%TF.FilePolarity,Positive*%
%FSLAX46Y46*%
G04 Gerber Fmt 4.6, Leading zero omitted, Abs format (unit mm)*
G04 Created by KiCad (PCBNEW 7.0.2-1.fc38) date 2023-06-06 12:07:16*
%MOMM*%
%LPD*%
G01*
G04 APERTURE LIST*
G04 Aperture macros list*
%AMRoundRect*
0 Rectangle with rounded corners*
0 $1 Rounding radius*
0 $2 $3 $4 $5 $6 $7 $8 $9 X,Y pos of 4 corners*
0 Add a 4 corners polygon primitive as box body*
4,1,4,$2,$3,$4,$5,$6,$7,$8,$9,$2,$3,0*
0 Add four circle primitives for the rounded corners*
1,1,$1+$1,$2,$3*
1,1,$1+$1,$4,$5*
1,1,$1+$1,$6,$7*
1,1,$1+$1,$8,$9*
0 Add four rect primitives between the rounded corners*
20,1,$1+$1,$2,$3,$4,$5,0*
20,1,$1+$1,$4,$5,$6,$7,0*
20,1,$1+$1,$6,$7,$8,$9,0*
20,1,$1+$1,$8,$9,$2,$3,0*%
%AMRotRect*
0 Rectangle, with rotation*
0 The origin of the aperture is its center*
0 $1 length*
0 $2 width*
0 $3 Rotation angle, in degrees counterclockwise*
0 Add horizontal line*
21,1,$1,$2,0,0,$3*%
G04 Aperture macros list end*
%TA.AperFunction,ComponentPad*%
%ADD10C,1.700000*%
%TD*%
%TA.AperFunction,ComponentPad*%
%ADD11O,1.700000X1.700000*%
%TD*%
%TA.AperFunction,ComponentPad*%
%ADD12R,1.700000X1.700000*%
%TD*%
%TA.AperFunction,ComponentPad*%
%ADD13C,2.000000*%
%TD*%
%TA.AperFunction,ComponentPad*%
%ADD14R,1.800000X1.800000*%
%TD*%
%TA.AperFunction,ComponentPad*%
%ADD15C,1.800000*%
%TD*%
%TA.AperFunction,SMDPad,CuDef*%
%ADD16RoundRect,0.150000X0.587500X0.150000X-0.587500X0.150000X-0.587500X-0.150000X0.587500X-0.150000X0*%
%TD*%
%TA.AperFunction,SMDPad,CuDef*%
%ADD17RoundRect,0.237500X-0.250000X-0.237500X0.250000X-0.237500X0.250000X0.237500X-0.250000X0.237500X0*%
%TD*%
%TA.AperFunction,SMDPad,CuDef*%
%ADD18RoundRect,0.237500X-0.237500X0.250000X-0.237500X-0.250000X0.237500X-0.250000X0.237500X0.250000X0*%
%TD*%
%TA.AperFunction,SMDPad,CuDef*%
%ADD19R,1.800000X0.700000*%
%TD*%
%TA.AperFunction,SMDPad,CuDef*%
%ADD20R,2.200000X1.600000*%
%TD*%
%TA.AperFunction,SMDPad,CuDef*%
%ADD21RoundRect,0.250000X0.337500X0.475000X-0.337500X0.475000X-0.337500X-0.475000X0.337500X-0.475000X0*%
%TD*%
%TA.AperFunction,SMDPad,CuDef*%
%ADD22RoundRect,0.237500X0.250000X0.237500X-0.250000X0.237500X-0.250000X-0.237500X0.250000X-0.237500X0*%
%TD*%
%TA.AperFunction,SMDPad,CuDef*%
%ADD23R,2.000000X0.650000*%
%TD*%
%TA.AperFunction,SMDPad,CuDef*%
%ADD24R,0.900000X1.500000*%
%TD*%
%TA.AperFunction,SMDPad,CuDef*%
%ADD25R,1.500000X0.900000*%
%TD*%
%TA.AperFunction,SMDPad,CuDef*%
%ADD26RoundRect,0.250000X-0.337500X-0.475000X0.337500X-0.475000X0.337500X0.475000X-0.337500X0.475000X0*%
%TD*%
%TA.AperFunction,SMDPad,CuDef*%
%ADD27R,1.000000X0.800000*%
%TD*%
%TA.AperFunction,SMDPad,CuDef*%
%ADD28R,0.700000X1.500000*%
%TD*%
%TA.AperFunction,SMDPad,CuDef*%
%ADD29R,0.700000X1.750000*%
%TD*%
%TA.AperFunction,SMDPad,CuDef*%
%ADD30R,1.450000X1.000000*%
%TD*%
%TA.AperFunction,SMDPad,CuDef*%
%ADD31R,1.000000X1.550000*%
%TD*%
%TA.AperFunction,SMDPad,CuDef*%
%ADD32R,0.800000X1.500000*%
%TD*%
%TA.AperFunction,SMDPad,CuDef*%
%ADD33R,1.300000X1.500000*%
%TD*%
%TA.AperFunction,SMDPad,CuDef*%
%ADD34R,1.500000X1.500000*%
%TD*%
%TA.AperFunction,SMDPad,CuDef*%
%ADD35R,0.800000X1.400000*%
%TD*%
%TA.AperFunction,ComponentPad*%
%ADD36C,0.700000*%
%TD*%
%TA.AperFunction,ComponentPad*%
%ADD37O,1.700000X0.900000*%
%TD*%
%TA.AperFunction,ComponentPad*%
%ADD38O,2.400000X0.900000*%
%TD*%
%TA.AperFunction,SMDPad,CuDef*%
%ADD39RotRect,1.000000X0.800000X190.000000*%
%TD*%
%TA.AperFunction,SMDPad,CuDef*%
%ADD40RotRect,0.700000X1.500000X190.000000*%
%TD*%
%TA.AperFunction,ViaPad*%
%ADD41C,0.800000*%
%TD*%
%TA.AperFunction,Conductor*%
%ADD42C,0.250000*%
%TD*%
G04 APERTURE END LIST*
D10*
%TO.P,Serial1,1,Pin_1*%
%TO.N,Net-(ESP32-S1-TXD0{slash}IO1)*%
X159900000Y-33340000D03*
D11*
%TO.P,Serial1,2,Pin_2*%
%TO.N,Net-(ESP32-S1-RXD0{slash}IO3)*%
X157360000Y-33340000D03*
%TO.P,Serial1,3,Pin_3*%
%TO.N,GND*%
X154820000Y-33340000D03*
%TD*%
D12*
%TO.P,LCD,1,Pin_1*%
%TO.N,GND*%
X129520000Y-53830000D03*
D11*
%TO.P,LCD,2,Pin_2*%
%TO.N,VCC*%
X132060000Y-53830000D03*
%TO.P,LCD,3,Pin_3*%
%TO.N,lcd_data*%
X134600000Y-53830000D03*
%TO.P,LCD,4,Pin_4*%
%TO.N,lcd_wr*%
X137140000Y-53830000D03*
%TO.P,LCD,5,Pin_5*%
%TO.N,lcd_cs*%
X139680000Y-53830000D03*
%TD*%
D13*
%TO.P,SWdown1,1,A*%
%TO.N,B2*%
X168200000Y-56600000D03*
X168200000Y-50100000D03*
%TO.P,SWdown1,2,B*%
%TO.N,GND*%
X172700000Y-56600000D03*
X172700000Y-50100000D03*
%TD*%
D12*
%TO.P,GY-271,1,Pin_1*%
%TO.N,VCC*%
X156630000Y-71860000D03*
D11*
%TO.P,GY-271,2,Pin_2*%
%TO.N,GND*%
X156630000Y-69320000D03*
%TO.P,GY-271,3,Pin_3*%
%TO.N,SCL*%
X156630000Y-66780000D03*
%TO.P,GY-271,4,Pin_4*%
%TO.N,SDA*%
X156630000Y-64240000D03*
%TO.P,GY-271,5,Pin_5*%
%TO.N,unconnected-(GY-271-Pin_5-Pad5)*%
X156630000Y-61700000D03*
%TD*%
D13*
%TO.P,SWright1,2,B*%
%TO.N,GND*%
X164600000Y-40550000D03*
X164600000Y-47050000D03*
%TO.P,SWright1,1,A*%
%TO.N,B4*%
X160100000Y-40550000D03*
X160100000Y-47050000D03*
%TD*%
%TO.P,SWleft1,1,A*%
%TO.N,B3*%
X160100000Y-56600000D03*
X160100000Y-50100000D03*
%TO.P,SWleft1,2,B*%
%TO.N,GND*%
X164600000Y-56600000D03*
X164600000Y-50100000D03*
%TD*%
D12*
%TO.P,Oled,1,Pin_1*%
%TO.N,GND*%
X138320000Y-57310000D03*
D11*
%TO.P,Oled,2,Pin_2*%
%TO.N,VCC*%
X135780000Y-57310000D03*
%TO.P,Oled,3,Pin_3*%
%TO.N,SCL*%
X133240000Y-57310000D03*
%TO.P,Oled,4,Pin_4*%
%TO.N,SDA*%
X130700000Y-57310000D03*
%TD*%
D13*
%TO.P,SWb1,1,A*%
%TO.N,B6*%
X172200000Y-66550000D03*
X172200000Y-60050000D03*
%TO.P,SWb1,2,B*%
%TO.N,GND*%
X176700000Y-66550000D03*
X176700000Y-60050000D03*
%TD*%
%TO.P,SWa1,1,A*%
%TO.N,B5*%
X160100000Y-66200000D03*
X160100000Y-59700000D03*
%TO.P,SWa1,2,B*%
%TO.N,GND*%
X164600000Y-66200000D03*
X164600000Y-59700000D03*
%TD*%
%TO.P,SWup1,1,A*%
%TO.N,B1*%
X152000000Y-56600000D03*
X152000000Y-50100000D03*
%TO.P,SWup1,2,B*%
%TO.N,GND*%
X156500000Y-56600000D03*
X156500000Y-50100000D03*
%TD*%
D14*
%TO.P,LED,1,K*%
%TO.N,Net-(LED1-K)*%
X114000000Y-44100000D03*
D15*
%TO.P,LED,2,A*%
%TO.N,Net-(ESP32-S1-IO32)*%
X114000000Y-41560000D03*
%TD*%
D16*
%TO.P,Q1,1,B*%
%TO.N,Net-(Q1-B)*%
X129500000Y-68050000D03*
%TO.P,Q1,2,E*%
%TO.N,Net-(Q1-E)*%
X129500000Y-69950000D03*
%TO.P,Q1,3,C*%
%TO.N,Net-(BT1-+)*%
X127625000Y-69000000D03*
%TD*%
D17*
%TO.P,R6,1*%
%TO.N,Net-(LED1-K)*%
X123487500Y-58100000D03*
%TO.P,R6,2*%
%TO.N,GND*%
X125312500Y-58100000D03*
%TD*%
D18*
%TO.P,R1,1*%
%TO.N,RX2*%
X145200000Y-53787500D03*
%TO.P,R1,2*%
%TO.N,Net-(GPS1-TXD)*%
X145200000Y-55612500D03*
%TD*%
%TO.P,R2,1*%
%TO.N,TX2*%
X147000000Y-53787500D03*
%TO.P,R2,2*%
%TO.N,Net-(GPS1-RXD)*%
X147000000Y-55612500D03*
%TD*%
D19*
%TO.P,BT1,1,+*%
%TO.N,Net-(BT1-+)*%
X117250000Y-55775000D03*
%TO.P,BT1,2,-*%
%TO.N,GND*%
X117250000Y-57025000D03*
D20*
%TO.P,BT1,MP*%
%TO.N,N/C*%
X119950000Y-53525000D03*
X119950000Y-59275000D03*
%TD*%
D21*
%TO.P,C5,1*%
%TO.N,Net-(BT1-+)*%
X125400000Y-61600000D03*
%TO.P,C5,2*%
%TO.N,GND*%
X123325000Y-61600000D03*
%TD*%
D22*
%TO.P,R3,1*%
%TO.N,Net-(U3-Prog)*%
X125475000Y-63700000D03*
%TO.P,R3,2*%
%TO.N,GND*%
X123650000Y-63700000D03*
%TD*%
D23*
%TO.P,U3,1,Isense*%
%TO.N,Net-(Q1-E)*%
X121552500Y-69950000D03*
%TO.P,U3,2,GND*%
%TO.N,GND*%
X121552500Y-69000000D03*
%TO.P,U3,3,VCC*%
%TO.N,Net-(U3-VCC)*%
X121552500Y-68050000D03*
%TO.P,U3,4,Prog*%
%TO.N,Net-(U3-Prog)*%
X124972500Y-68050000D03*
%TO.P,U3,5,BATT*%
%TO.N,Net-(BT1-+)*%
X124972500Y-69000000D03*
%TO.P,U3,6,DRIVE*%
%TO.N,Net-(Q1-B)*%
X124972500Y-69950000D03*
%TD*%
D24*
%TO.P,ESP32-S,1,GND*%
%TO.N,GND*%
X131195000Y-33300000D03*
%TO.P,ESP32-S,2,VDD*%
%TO.N,VCC*%
X132465000Y-33300000D03*
%TO.P,ESP32-S,3,EN*%
%TO.N,Net-(ESP32-S1-EN)*%
X133735000Y-33300000D03*
%TO.P,ESP32-S,4,SENSOR_VP*%
%TO.N,unconnected-(ESP32-S1-SENSOR_VP-Pad4)*%
X135005000Y-33300000D03*
%TO.P,ESP32-S,5,SENSOR_VN*%
%TO.N,unconnected-(ESP32-S1-SENSOR_VN-Pad5)*%
X136275000Y-33300000D03*
%TO.P,ESP32-S,6,IO34*%
%TO.N,unconnected-(ESP32-S1-IO34-Pad6)*%
X137545000Y-33300000D03*
%TO.P,ESP32-S,7,IO35*%
%TO.N,unconnected-(ESP32-S1-IO35-Pad7)*%
X138815000Y-33300000D03*
%TO.P,ESP32-S,8,IO32*%
%TO.N,Net-(ESP32-S1-IO32)*%
X140085000Y-33300000D03*
%TO.P,ESP32-S,9,IO33*%
%TO.N,unconnected-(ESP32-S1-IO33-Pad9)*%
X141355000Y-33300000D03*
%TO.P,ESP32-S,10,IO25*%
%TO.N,B4*%
X142625000Y-33300000D03*
%TO.P,ESP32-S,11,IO26*%
%TO.N,B5*%
X143895000Y-33300000D03*
%TO.P,ESP32-S,12,IO27*%
%TO.N,B6*%
X145165000Y-33300000D03*
%TO.P,ESP32-S,13,IO14*%
%TO.N,lcd_data*%
X146435000Y-33300000D03*
%TO.P,ESP32-S,14,IO12*%
%TO.N,lcd_cs*%
X147705000Y-33300000D03*
D25*
%TO.P,ESP32-S,15,GND*%
%TO.N,GND*%
X148800000Y-36335000D03*
%TO.P,ESP32-S,16,IO13*%
%TO.N,lcd_wr*%
X148800000Y-37605000D03*
%TO.P,ESP32-S,17,SHD/SD2*%
%TO.N,unconnected-(ESP32-S1-SHD{slash}SD2-Pad17)*%
X148800000Y-38875000D03*
%TO.P,ESP32-S,18,SWP/SD3*%
%TO.N,unconnected-(ESP32-S1-SWP{slash}SD3-Pad18)*%
X148800000Y-40145000D03*
%TO.P,ESP32-S,19,SCS/CMD*%
%TO.N,unconnected-(ESP32-S1-SCS{slash}CMD-Pad19)*%
X148800000Y-41415000D03*
%TO.P,ESP32-S,20,SCK/CLK*%
%TO.N,unconnected-(ESP32-S1-SCK{slash}CLK-Pad20)*%
X148800000Y-42685000D03*
%TO.P,ESP32-S,21,SDO/SD0*%
%TO.N,unconnected-(ESP32-S1-SDO{slash}SD0-Pad21)*%
X148800000Y-43955000D03*
%TO.P,ESP32-S,22,SDI/SD1*%
%TO.N,unconnected-(ESP32-S1-SDI{slash}SD1-Pad22)*%
X148800000Y-45225000D03*
%TO.P,ESP32-S,23,IO15*%
%TO.N,B3*%
X148800000Y-46495000D03*
%TO.P,ESP32-S,24,IO2*%
%TO.N,B1*%
X148800000Y-47765000D03*
D24*
%TO.P,ESP32-S,25,IO0*%
%TO.N,Net-(ESP32-S1-IO0)*%
X147705000Y-50800000D03*
%TO.P,ESP32-S,26,IO4*%
%TO.N,B2*%
X146435000Y-50800000D03*
%TO.P,ESP32-S,27,IO16*%
%TO.N,RX2*%
X145165000Y-50800000D03*
%TO.P,ESP32-S,28,IO17*%
%TO.N,TX2*%
X143895000Y-50800000D03*
%TO.P,ESP32-S,29,IO5*%
%TO.N,CS*%
X142625000Y-50800000D03*
%TO.P,ESP32-S,30,IO18*%
%TO.N,CLK*%
X141355000Y-50800000D03*
%TO.P,ESP32-S,31,IO19*%
%TO.N,MISO*%
X140085000Y-50800000D03*
%TO.P,ESP32-S,32,NC*%
%TO.N,unconnected-(ESP32-S1-NC-Pad32)*%
X138815000Y-50800000D03*
%TO.P,ESP32-S,33,IO21*%
%TO.N,SDA*%
X137545000Y-50800000D03*
%TO.P,ESP32-S,34,RXD0/IO3*%
%TO.N,Net-(ESP32-S1-RXD0{slash}IO3)*%
X136275000Y-50800000D03*
%TO.P,ESP32-S,35,TXD0/IO1*%
%TO.N,Net-(ESP32-S1-TXD0{slash}IO1)*%
X135005000Y-50800000D03*
%TO.P,ESP32-S,36,IO22*%
%TO.N,SCL*%
X133735000Y-50800000D03*
%TO.P,ESP32-S,37,IO23*%
%TO.N,MOSI*%
X132465000Y-50800000D03*
%TO.P,ESP32-S,38,GND*%
%TO.N,GND*%
X131195000Y-50800000D03*
%TD*%
D26*
%TO.P,C7,1*%
%TO.N,Net-(MAIN1-B)*%
X132062500Y-70400000D03*
%TO.P,C7,2*%
%TO.N,GND*%
X134137500Y-70400000D03*
%TD*%
%TO.P,C6,1*%
%TO.N,Net-(MAIN1-B)*%
X132062500Y-68000000D03*
%TO.P,C6,2*%
%TO.N,GND*%
X134137500Y-68000000D03*
%TD*%
D16*
%TO.P,U1,1,GND*%
%TO.N,GND*%
X129500000Y-63850000D03*
%TO.P,U1,2,VO*%
%TO.N,Net-(MAIN1-B)*%
X129500000Y-65750000D03*
%TO.P,U1,3,VI*%
%TO.N,Net-(BT1-+)*%
X127625000Y-64800000D03*
%TD*%
D27*
%TO.P,MAIN,*%
%TO.N,*%
X134750000Y-75900000D03*
X134750000Y-73690000D03*
X127450000Y-75900000D03*
X127450000Y-73690000D03*
D28*
%TO.P,MAIN,1,A*%
%TO.N,Net-(ESP32-B)*%
X133350000Y-73040000D03*
%TO.P,MAIN,2,B*%
%TO.N,Net-(MAIN1-B)*%
X130350000Y-73040000D03*
%TO.P,MAIN,3,C*%
%TO.N,unconnected-(MAIN1-C-Pad3)*%
X128850000Y-73040000D03*
%TD*%
D22*
%TO.P,R5,1*%
%TO.N,VCC*%
X125312500Y-56400000D03*
%TO.P,R5,2*%
%TO.N,Net-(ESP32-S1-EN)*%
X123487500Y-56400000D03*
%TD*%
D26*
%TO.P,C1,1*%
%TO.N,Net-(BT1-+)*%
X127462500Y-61600000D03*
%TO.P,C1,2*%
%TO.N,GND*%
X129537500Y-61600000D03*
%TD*%
D29*
%TO.P,microsd,1,DAT2*%
%TO.N,unconnected-(microsd1-DAT2-Pad1)*%
X144905000Y-72100000D03*
%TO.P,microsd,2,DAT3/CD*%
%TO.N,CS*%
X146005000Y-72100000D03*
%TO.P,microsd,3,CMD*%
%TO.N,MISO*%
X147105000Y-72100000D03*
%TO.P,microsd,4,VDD*%
%TO.N,VCC*%
X148205000Y-72100000D03*
%TO.P,microsd,5,CLK*%
%TO.N,CLK*%
X149305000Y-72100000D03*
%TO.P,microsd,6,VSS*%
%TO.N,GND*%
X150405000Y-72100000D03*
%TO.P,microsd,7,DAT0*%
%TO.N,MOSI*%
X151505000Y-72100000D03*
%TO.P,microsd,8,DAT1*%
%TO.N,unconnected-(microsd1-DAT1-Pad8)*%
X152605000Y-72100000D03*
D30*
%TO.P,microsd,9,SHIELD*%
%TO.N,GND*%
X153730000Y-62875000D03*
D31*
%TO.P,microsd,10*%
%TO.N,N/C*%
X142505000Y-61300000D03*
D32*
%TO.P,microsd,11*%
X154055000Y-64375000D03*
D33*
X153805000Y-71975000D03*
D34*
X142455000Y-71975000D03*
D35*
X142105000Y-63725000D03*
%TD*%
D26*
%TO.P,C2,1*%
%TO.N,Net-(U3-VCC)*%
X121562500Y-65900000D03*
%TO.P,C2,2*%
%TO.N,GND*%
X123637500Y-65900000D03*
%TD*%
D36*
%TO.P,J1,A1*%
%TO.N,N/C*%
X114325000Y-56475000D03*
%TO.P,J1,A4*%
X114325000Y-55625000D03*
%TO.P,J1,A5,CC1*%
%TO.N,Net-(J1-CC1)*%
X114325000Y-54775000D03*
%TO.P,J1,A6*%
%TO.N,N/C*%
X114325000Y-53925000D03*
%TO.P,J1,A7*%
X114325000Y-53075000D03*
%TO.P,J1,A8*%
X114325000Y-52225000D03*
%TO.P,J1,A9,VBUS*%
%TO.N,Net-(U3-VCC)*%
X114325000Y-51375000D03*
%TO.P,J1,A12,GND*%
%TO.N,GND*%
X114325000Y-50525000D03*
%TO.P,J1,B1*%
%TO.N,N/C*%
X112975000Y-50525000D03*
%TO.P,J1,B4*%
X112975000Y-51375000D03*
%TO.P,J1,B5,CC2*%
%TO.N,Net-(J1-CC2)*%
X112975000Y-52225000D03*
%TO.P,J1,B6*%
%TO.N,N/C*%
X112975000Y-53075000D03*
%TO.P,J1,B7*%
X112975000Y-53925000D03*
%TO.P,J1,B8*%
X112975000Y-54775000D03*
%TO.P,J1,B9,VBUS*%
%TO.N,Net-(U3-VCC)*%
X112975000Y-55625000D03*
%TO.P,J1,B12,GND*%
%TO.N,GND*%
X112975000Y-56475000D03*
D37*
%TO.P,J1,S1,SHIELD*%
X109965000Y-57825000D03*
D38*
X113345000Y-57825000D03*
D37*
X109965000Y-49175000D03*
D38*
X113345000Y-49175000D03*
%TD*%
D39*
%TO.P,ESP32,*%
%TO.N,*%
X168573254Y-74545442D03*
X168189492Y-72369017D03*
X161384158Y-75813074D03*
X161000395Y-73636649D03*
D40*
%TO.P,ESP32,1,A*%
%TO.N,VCC*%
X166697890Y-71972000D03*
%TO.P,ESP32,2,B*%
%TO.N,Net-(ESP32-B)*%
X163743466Y-72492944D03*
%TO.P,ESP32,3,C*%
%TO.N,unconnected-(ESP32-C-Pad3)*%
X162266255Y-72753416D03*
%TD*%
D41*
%TO.N,VCC*%
X137280000Y-60790000D03*
X135780000Y-55235500D03*
X126560000Y-55190000D03*
X149100000Y-69500000D03*
X131980000Y-36000000D03*
%TO.N,Net-(ESP32-S1-EN)*%
X122100000Y-55000000D03*
%TO.N,B2*%
X148700000Y-52500000D03*
%TO.N,lcd_data*%
X146700000Y-31900000D03*
%TO.N,lcd_wr*%
X145850000Y-39250000D03*
%TO.N,lcd_cs*%
X150500000Y-33200000D03*
%TO.N,Net-(ESP32-S1-IO0)*%
X148800000Y-51200000D03*
%TO.N,Net-(ESP32-S1-RXD0{slash}IO3)*%
X137200000Y-52300000D03*
%TO.N,Net-(ESP32-S1-TXD0{slash}IO1)*%
X135600000Y-52500000D03*
%TO.N,Net-(GPS1-TXD)*%
X143800000Y-63200000D03*
%TO.N,Net-(GPS1-RXD)*%
X141524500Y-65300000D03*
%TO.N,Net-(ESP32-B)*%
X136600000Y-74800000D03*
%TD*%
D42*
%TO.N,Net-(ESP32-S1-EN)*%
X133735000Y-33300000D02*
X133735000Y-32300000D01*
X133735000Y-32300000D02*
X133535000Y-32100000D01*
X133535000Y-32100000D02*
X122200000Y-32100000D01*
X120300000Y-34000000D02*
X120300000Y-51325000D01*
X120300000Y-51325000D02*
X122100000Y-53125000D01*
X122200000Y-32100000D02*
X120300000Y-34000000D01*
X122100000Y-53125000D02*
X122100000Y-55000000D01*
%TO.N,Net-(ESP32-S1-IO32)*%
X116240000Y-41560000D02*
X114000000Y-41560000D01*
X119400000Y-38400000D02*
X116240000Y-41560000D01*
X122013604Y-31650000D02*
X119400000Y-34263604D01*
X139435000Y-31650000D02*
X122013604Y-31650000D01*
X119400000Y-34263604D02*
X119400000Y-38400000D01*
X140085000Y-32300000D02*
X139435000Y-31650000D01*
X140085000Y-33300000D02*
X140085000Y-32300000D01*
%TO.N,VCC*%
X135780000Y-55235500D02*
X135780000Y-57310000D01*
%TO.N,SDA*%
X130700000Y-57310000D02*
X129487919Y-57310000D01*
X129487919Y-57310000D02*
X127800000Y-55622081D01*
X127800000Y-55622081D02*
X127800000Y-53200000D01*
X137545000Y-49800000D02*
X137545000Y-50800000D01*
X127800000Y-53200000D02*
X128430000Y-52570000D01*
X128430000Y-52570000D02*
X130030000Y-52570000D01*
X130030000Y-52570000D02*
X130400000Y-52200000D01*
X130400000Y-52200000D02*
X130400000Y-49400000D01*
X130400000Y-49400000D02*
X131300000Y-48500000D01*
X131300000Y-48500000D02*
X136245000Y-48500000D01*
X136245000Y-48500000D02*
X137545000Y-49800000D01*
%TO.N,VCC*%
X137280000Y-60790000D02*
X135780000Y-59290000D01*
X135780000Y-59290000D02*
X135780000Y-57310000D01*
%TO.N,SCL*%
X133735000Y-50800000D02*
X133735000Y-52155000D01*
X133735000Y-52155000D02*
X133240000Y-52650000D01*
X133240000Y-57310000D02*
X133240000Y-52650000D01*
%TO.N,VCC*%
X125312500Y-56400000D02*
X125370000Y-56400000D01*
X125370000Y-56400000D02*
X126560000Y-55210000D01*
%TO.N,Net-(BT1-+)*%
X124972500Y-69000000D02*
X127625000Y-69000000D01*
X119900000Y-57300000D02*
X120800000Y-57300000D01*
X127625000Y-69000000D02*
X127625000Y-64800000D01*
X127625000Y-61762500D02*
X127462500Y-61600000D01*
X117250000Y-55775000D02*
X118375000Y-55775000D01*
X120800000Y-57300000D02*
X125100000Y-61600000D01*
X127462500Y-61600000D02*
X125400000Y-61600000D01*
X118375000Y-55775000D02*
X119900000Y-57300000D01*
X127625000Y-64800000D02*
X127625000Y-61762500D01*
X125100000Y-61600000D02*
X125400000Y-61600000D01*
%TO.N,Net-(U3-VCC)*%
X113650000Y-55444974D02*
X113650000Y-51555026D01*
X112480026Y-55625000D02*
X111820000Y-56285026D01*
X112975000Y-55625000D02*
X112480026Y-55625000D01*
X113830026Y-51375000D02*
X114325000Y-51375000D01*
X112273984Y-58600000D02*
X114262500Y-58600000D01*
X121562500Y-68040000D02*
X121552500Y-68050000D01*
X114262500Y-58600000D02*
X121552500Y-65890000D01*
X112975000Y-55625000D02*
X113469974Y-55625000D01*
X121562500Y-65900000D02*
X121562500Y-68040000D01*
X111820000Y-58146016D02*
X112273984Y-58600000D01*
X121552500Y-65890000D02*
X121552500Y-68050000D01*
X113650000Y-51555026D02*
X113830026Y-51375000D01*
X111820000Y-56285026D02*
X111820000Y-58146016D01*
X113469974Y-55625000D02*
X113650000Y-55444974D01*
%TO.N,CS*%
X142625000Y-53975000D02*
X142625000Y-50800000D01*
X142500000Y-54100000D02*
X142625000Y-53975000D01*
X140800000Y-72470000D02*
X140800000Y-59700000D01*
X142500000Y-58000000D02*
X142500000Y-54100000D01*
X141730000Y-73400000D02*
X140800000Y-72470000D01*
X145830000Y-73400000D02*
X141730000Y-73400000D01*
X146005000Y-72100000D02*
X146005000Y-73225000D01*
X140800000Y-59700000D02*
X142500000Y-58000000D01*
X146005000Y-73225000D02*
X145830000Y-73400000D01*
%TO.N,MISO*%
X139200000Y-72963604D02*
X139200000Y-59600000D01*
X139200000Y-59600000D02*
X141200000Y-57600000D01*
X141200000Y-57600000D02*
X141200000Y-53100000D01*
X147105000Y-73225000D02*
X146430000Y-73900000D01*
X141200000Y-53100000D02*
X140085000Y-51985000D01*
X140136396Y-73900000D02*
X139200000Y-72963604D01*
X140085000Y-51985000D02*
X140085000Y-50800000D01*
X147105000Y-72100000D02*
X147105000Y-73225000D01*
X146430000Y-73900000D02*
X140136396Y-73900000D01*
%TO.N,VCC*%
X131980000Y-36000000D02*
X131980000Y-34365000D01*
X148205000Y-72100000D02*
X148205000Y-70395000D01*
X131980000Y-34365000D02*
X132465000Y-33880000D01*
X132465000Y-33880000D02*
X132465000Y-33300000D01*
X156950000Y-71850000D02*
X156650000Y-71850000D01*
X148205000Y-70395000D02*
X149100000Y-69500000D01*
X166697890Y-71972000D02*
X164325890Y-69600000D01*
X164325890Y-69600000D02*
X159200000Y-69600000D01*
X159200000Y-69600000D02*
X156950000Y-71850000D01*
%TO.N,CLK*%
X148400000Y-49400000D02*
X149800000Y-50800000D01*
X149305000Y-70895000D02*
X149305000Y-72100000D01*
X150300000Y-69900000D02*
X149305000Y-70895000D01*
X141355000Y-50800000D02*
X141355000Y-49800000D01*
X153200000Y-65243222D02*
X153200000Y-67300000D01*
X151600000Y-63643222D02*
X153200000Y-65243222D01*
X141755000Y-49400000D02*
X148400000Y-49400000D01*
X149800000Y-50800000D02*
X149800000Y-60100000D01*
X150600000Y-69900000D02*
X150300000Y-69900000D01*
X149800000Y-60100000D02*
X151600000Y-61900000D01*
X141355000Y-49800000D02*
X141755000Y-49400000D01*
X151600000Y-61900000D02*
X151600000Y-63643222D01*
X153200000Y-67300000D02*
X150600000Y-69900000D01*
%TO.N,MOSI*%
X139950000Y-74350000D02*
X138600000Y-73000000D01*
X151505000Y-73595000D02*
X150750000Y-74350000D01*
X151505000Y-72100000D02*
X151505000Y-73595000D01*
X132465000Y-51735000D02*
X132465000Y-50800000D01*
X150750000Y-74350000D02*
X139950000Y-74350000D01*
X130805000Y-54786701D02*
X130805000Y-53395000D01*
X132045000Y-56026701D02*
X130805000Y-54786701D01*
X132045000Y-57945000D02*
X132045000Y-56026701D01*
X138600000Y-64500000D02*
X132045000Y-57945000D01*
X138600000Y-73000000D02*
X138600000Y-64500000D01*
X130805000Y-53395000D02*
X132465000Y-51735000D01*
%TO.N,Net-(Q1-B)*%
X128090749Y-69950000D02*
X129500000Y-68540749D01*
X124972500Y-69950000D02*
X128090749Y-69950000D01*
X129500000Y-68540749D02*
X129500000Y-68050000D01*
%TO.N,Net-(Q1-E)*%
X122702500Y-71100000D02*
X121552500Y-69950000D01*
X129500000Y-69950000D02*
X128350000Y-71100000D01*
X128350000Y-71100000D02*
X122702500Y-71100000D01*
%TO.N,RX2*%
X145165000Y-53752500D02*
X145165000Y-50800000D01*
X145200000Y-53787500D02*
X145165000Y-53752500D01*
%TO.N,TX2*%
X146187500Y-54600000D02*
X147000000Y-53787500D01*
X143895000Y-53765495D02*
X144729505Y-54600000D01*
X144729505Y-54600000D02*
X146187500Y-54600000D01*
X143895000Y-50800000D02*
X143895000Y-53765495D01*
%TO.N,Net-(U3-Prog)*%
X124972500Y-64202500D02*
X124972500Y-68050000D01*
X125475000Y-63700000D02*
X124972500Y-64202500D01*
%TO.N,Net-(ESP32-S1-EN)*%
X122100000Y-55000000D02*
X122100000Y-55012500D01*
X122100000Y-55012500D02*
X123487500Y-56400000D01*
%TO.N,B5*%
X162100000Y-46300000D02*
X162100000Y-57700000D01*
X150900000Y-35100000D02*
X162100000Y-46300000D01*
X143895000Y-33300000D02*
X143895000Y-34300000D01*
X162100000Y-57700000D02*
X160100000Y-59700000D01*
X160100000Y-66200000D02*
X160100000Y-59700000D01*
X144695000Y-35100000D02*
X150900000Y-35100000D01*
X143895000Y-34300000D02*
X144695000Y-35100000D01*
%TO.N,B6*%
X145165000Y-33300000D02*
X145165000Y-34300000D01*
X172200000Y-66550000D02*
X172200000Y-60050000D01*
X170400000Y-49600000D02*
X170400000Y-58250000D01*
X170400000Y-58250000D02*
X172200000Y-60050000D01*
X164700000Y-43900000D02*
X170400000Y-49600000D01*
X161400000Y-43900000D02*
X164700000Y-43900000D01*
X145365000Y-34500000D02*
X152000000Y-34500000D01*
X145165000Y-34300000D02*
X145365000Y-34500000D01*
X152000000Y-34500000D02*
X161400000Y-43900000D01*
%TO.N,B2*%
X146435000Y-50800000D02*
X146435000Y-51800000D01*
X146435000Y-51800000D02*
X147135000Y-52500000D01*
X147135000Y-52500000D02*
X148700000Y-52500000D01*
%TO.N,B3*%
X156495000Y-46495000D02*
X160100000Y-50100000D01*
X160100000Y-50100000D02*
X160100000Y-56600000D01*
X148800000Y-46495000D02*
X156495000Y-46495000D01*
%TO.N,B4*%
X159250000Y-40550000D02*
X149875000Y-31175000D01*
X143700000Y-31200000D02*
X142625000Y-32275000D01*
X146374695Y-31200000D02*
X143700000Y-31200000D01*
X149875000Y-31175000D02*
X146399695Y-31175000D01*
X142625000Y-32275000D02*
X142625000Y-33300000D01*
X160100000Y-40550000D02*
X159250000Y-40550000D01*
X146399695Y-31175000D02*
X146374695Y-31200000D01*
%TO.N,B1*%
X148800000Y-47765000D02*
X149665000Y-47765000D01*
X152000000Y-56600000D02*
X152000000Y-50100000D01*
X149665000Y-47765000D02*
X152000000Y-50100000D01*
%TO.N,lcd_data*%
X146435000Y-32265000D02*
X146700000Y-31900000D01*
X146700000Y-31900000D02*
X146600000Y-32100000D01*
X146435000Y-33300000D02*
X146435000Y-32265000D01*
%TO.N,lcd_wr*%
X145850000Y-39250000D02*
X147495000Y-37605000D01*
X147495000Y-37605000D02*
X148800000Y-37605000D01*
%TO.N,lcd_cs*%
X147705000Y-33300000D02*
X150400000Y-33300000D01*
X150400000Y-33300000D02*
X150500000Y-33200000D01*
%TO.N,Net-(ESP32-S1-IO0)*%
X148400000Y-50800000D02*
X148800000Y-51200000D01*
X147705000Y-50800000D02*
X148400000Y-50800000D01*
%TO.N,Net-(ESP32-S1-RXD0{slash}IO3)*%
X137300000Y-52300000D02*
X137200000Y-52200000D01*
X137200000Y-52300000D02*
X137300000Y-52300000D01*
X137200000Y-52200000D02*
X137200000Y-52300000D01*
X136275000Y-51275000D02*
X137200000Y-52200000D01*
X136275000Y-50800000D02*
X136275000Y-51275000D01*
%TO.N,Net-(ESP32-S1-TXD0{slash}IO1)*%
X135005000Y-51905000D02*
X135600000Y-52500000D01*
X135005000Y-50800000D02*
X135005000Y-51905000D01*
%TO.N,Net-(GPS1-TXD)*%
X143800000Y-63200000D02*
X145200000Y-61800000D01*
X145200000Y-61800000D02*
X145200000Y-55612500D01*
%TO.N,Net-(GPS1-RXD)*%
X144100000Y-65300000D02*
X147000000Y-62400000D01*
X147000000Y-62400000D02*
X147000000Y-55612500D01*
X141524500Y-65300000D02*
X144100000Y-65300000D01*
%TO.N,Net-(MAIN1-B)*%
X132062500Y-70400000D02*
X132062500Y-68000000D01*
X132062500Y-71327500D02*
X132062500Y-70400000D01*
X130350000Y-73040000D02*
X132062500Y-71327500D01*
X129500000Y-65750000D02*
X129812500Y-65750000D01*
X129812500Y-65750000D02*
X132062500Y-68000000D01*
%TO.N,Net-(ESP32-B)*%
X163743466Y-71843466D02*
X163743466Y-72492944D01*
X162800000Y-70900000D02*
X163743466Y-71843466D01*
X136600000Y-74800000D02*
X134310000Y-74800000D01*
X161000000Y-70900000D02*
X162800000Y-70900000D01*
X136600000Y-74800000D02*
X157100000Y-74800000D01*
X133450000Y-73940000D02*
X133450000Y-73440000D01*
X134310000Y-74800000D02*
X133450000Y-73940000D01*
X157100000Y-74800000D02*
X161000000Y-70900000D01*
%TO.N,Net-(LED1-K)*%
X114000000Y-44100000D02*
X117200000Y-47300000D01*
X120712500Y-55325000D02*
X123487500Y-58100000D01*
X117200000Y-47300000D02*
X117200000Y-53800000D01*
X117200000Y-53800000D02*
X118725000Y-55325000D01*
X118725000Y-55325000D02*
X120712500Y-55325000D01*
%TD*%
%TA.AperFunction,Conductor*%
%TO.N,GND*%
G36*
X114996832Y-47019685D02*
G01*
X115036121Y-47060202D01*
X115312177Y-47520295D01*
X116706828Y-49844714D01*
X116724499Y-49908511D01*
X116724500Y-53735541D01*
X116721666Y-53761899D01*
X116720833Y-53765728D01*
X116724184Y-53812574D01*
X116724500Y-53821421D01*
X116724500Y-53834011D01*
X116726293Y-53846491D01*
X116727237Y-53855275D01*
X116730588Y-53902115D01*
X116731956Y-53905781D01*
X116738510Y-53931458D01*
X116738970Y-53934654D01*
X116739069Y-53935343D01*
X116758571Y-53978045D01*
X116761957Y-53986219D01*
X116775170Y-54021645D01*
X116778373Y-54030231D01*
X116780722Y-54033369D01*
X116794240Y-54056150D01*
X116795870Y-54059718D01*
X116826627Y-54095214D01*
X116832170Y-54102093D01*
X116839721Y-54112180D01*
X116848627Y-54121086D01*
X116854659Y-54127565D01*
X116885411Y-54163055D01*
X116888708Y-54165174D01*
X116909349Y-54181808D01*
X117590360Y-54862819D01*
X117623845Y-54924142D01*
X117618861Y-54993834D01*
X117576989Y-55049767D01*
X117511525Y-55074184D01*
X117502679Y-55074500D01*
X116316737Y-55074500D01*
X116248609Y-55084426D01*
X116143515Y-55135802D01*
X116060802Y-55218515D01*
X116009426Y-55323609D01*
X115999500Y-55391736D01*
X115999500Y-55391740D01*
X115999500Y-56158260D01*
X116000738Y-56166755D01*
X116010444Y-56233377D01*
X116000630Y-56302554D01*
X115987006Y-56325565D01*
X115906647Y-56432910D01*
X115856400Y-56567628D01*
X115850354Y-56623867D01*
X115850000Y-56630481D01*
X115850000Y-56775000D01*
X118651179Y-56775000D01*
X118718218Y-56794685D01*
X118738860Y-56811319D01*
X119518193Y-57590652D01*
X119534825Y-57611291D01*
X119536945Y-57614589D01*
X119572451Y-57645354D01*
X119578914Y-57651373D01*
X119587815Y-57660275D01*
X119587818Y-57660277D01*
X119587820Y-57660279D01*
X119597916Y-57667837D01*
X119604787Y-57673374D01*
X119640282Y-57704130D01*
X119643588Y-57705639D01*
X119643840Y-57705755D01*
X119666635Y-57719280D01*
X119669773Y-57721629D01*
X119713760Y-57738034D01*
X119721943Y-57741424D01*
X119764652Y-57760929D01*
X119764654Y-57760929D01*
X119764658Y-57760931D01*
X119768531Y-57761487D01*
X119794216Y-57768043D01*
X119797886Y-57769412D01*
X119844732Y-57772762D01*
X119853525Y-57773708D01*
X119865986Y-57775500D01*
X119865989Y-57775500D01*
X119878574Y-57775500D01*
X119887420Y-57775815D01*
X119934271Y-57779167D01*
X119938100Y-57778333D01*
X119964459Y-57775500D01*
X120551679Y-57775500D01*
X120618718Y-57795185D01*
X120639360Y-57811819D01*
X120740360Y-57912819D01*
X120773845Y-57974142D01*
X120768861Y-58043834D01*
X120726989Y-58099767D01*
X120661525Y-58124184D01*
X120652679Y-58124500D01*
X118816737Y-58124500D01*
X118748609Y-58134426D01*
X118643515Y-58185802D01*
X118560802Y-58268515D01*
X118509426Y-58373609D01*
X118499500Y-58441736D01*
X118499500Y-60108263D01*
X118509426Y-60176390D01*
X118509426Y-60176391D01*
X118509427Y-60176393D01*
X118520735Y-60199524D01*
X118560802Y-60281484D01*
X118643515Y-60364197D01*
X118643516Y-60364197D01*
X118643517Y-60364198D01*
X118748607Y-60415573D01*
X118775860Y-60419543D01*
X118816737Y-60425500D01*
X118816740Y-60425500D01*
X121083263Y-60425500D01*
X121117326Y-60420536D01*
X121151393Y-60415573D01*
X121256483Y-60364198D01*
X121339198Y-60281483D01*
X121390573Y-60176393D01*
X121400500Y-60108260D01*
X121400499Y-58872319D01*
X121420184Y-58805281D01*
X121472987Y-58759526D01*
X121542146Y-58749582D01*
X121605702Y-58778607D01*
X121612181Y-58784639D01*
X122915427Y-60087886D01*
X122993459Y-60165917D01*
X123026944Y-60227240D01*
X123021960Y-60296932D01*
X122980088Y-60352865D01*
X122918380Y-60376956D01*
X122834804Y-60385493D01*
X122668377Y-60440642D01*
X122519154Y-60532683D01*
X122395183Y-60656654D01*
X122303142Y-60805877D01*
X122247993Y-60972303D01*
X122237819Y-61071890D01*
X122237500Y-61078168D01*
X122237500Y-61350000D01*
X123451000Y-61350000D01*
X123518039Y-61369685D01*
X123563794Y-61422489D01*
X123575000Y-61474000D01*
X123575000Y-61726000D01*
X123555315Y-61793039D01*
X123502511Y-61838794D01*
X123451000Y-61850000D01*
X122237501Y-61850000D01*
X122237501Y-62121829D01*
X122237821Y-62128111D01*
X122247993Y-62227695D01*
X122303142Y-62394122D01*
X122395183Y-62543345D01*
X122519154Y-62667316D01*
X122668377Y-62759357D01*
X122771817Y-62793634D01*
X122829262Y-62833407D01*
X122856085Y-62897922D01*
X122843770Y-62966698D01*
X122820498Y-62999018D01*
X122817556Y-63001959D01*
X122727046Y-63148698D01*
X122672818Y-63312348D01*
X122662819Y-63410222D01*
X122662500Y-63416500D01*
X122662500Y-63450000D01*
X123776000Y-63450000D01*
X123843039Y-63469685D01*
X123888794Y-63522489D01*
X123900000Y-63574000D01*
X123900000Y-64651138D01*
X123887500Y-64693707D01*
X123887500Y-67124999D01*
X124021829Y-67124999D01*
X124028111Y-67124678D01*
X124127695Y-67114506D01*
X124294120Y-67059358D01*
X124307901Y-67050858D01*
X124375293Y-67032417D01*
X124441957Y-67053339D01*
X124486727Y-67106980D01*
X124496999Y-67156395D01*
X124497000Y-67250499D01*
X124477316Y-67317538D01*
X124424513Y-67363294D01*
X124373000Y-67374500D01*
X123939237Y-67374500D01*
X123871109Y-67384426D01*
X123766015Y-67435802D01*
X123683302Y-67518515D01*
X123631926Y-67623609D01*
X123622000Y-67691736D01*
X123622000Y-68408263D01*
X123634720Y-68495567D01*
X123633371Y-68495763D01*
X123640823Y-68539420D01*
X123633050Y-68565888D01*
X123622000Y-68641736D01*
X123622000Y-69358263D01*
X123634720Y-69445567D01*
X123633371Y-69445763D01*
X123640823Y-69489420D01*
X123633050Y-69515888D01*
X123622000Y-69591736D01*
X123622000Y-70308263D01*
X123631926Y-70376390D01*
X123631926Y-70376391D01*
X123631927Y-70376393D01*
X123656629Y-70426922D01*
X123665975Y-70446040D01*
X123677733Y-70514913D01*
X123650390Y-70579210D01*
X123592625Y-70618517D01*
X123554574Y-70624500D01*
X122970425Y-70624500D01*
X122903386Y-70604815D01*
X122857631Y-70552011D01*
X122847687Y-70482853D01*
X122859025Y-70446039D01*
X122893073Y-70376393D01*
X122901052Y-70321629D01*
X122903000Y-70308263D01*
X122903000Y-69732395D01*
X122922685Y-69665356D01*
X122927734Y-69658084D01*
X122995851Y-69567091D01*
X123046099Y-69432371D01*
X123052145Y-69376132D01*
X123052500Y-69369518D01*
X123052500Y-69250000D01*
X120052500Y-69250000D01*
X120052500Y-69369518D01*
X120052854Y-69376132D01*
X120058900Y-69432371D01*
X120109148Y-69567091D01*
X120177266Y-69658084D01*
X120201684Y-69723548D01*
X120202000Y-69732395D01*
X120202000Y-70308263D01*
X120211926Y-70376390D01*
X120211926Y-70376391D01*
X120211927Y-70376393D01*
X120234749Y-70423077D01*
X120263302Y-70481484D01*
X120346015Y-70564197D01*
X120346016Y-70564197D01*
X120346017Y-70564198D01*
X120451107Y-70615573D01*
X120471313Y-70618517D01*
X120519237Y-70625500D01*
X120519240Y-70625500D01*
X121504179Y-70625500D01*
X121571218Y-70645185D01*
X121591860Y-70661819D01*
X122320693Y-71390652D01*
X122337325Y-71411291D01*
X122339445Y-71414589D01*
X122374951Y-71445354D01*
X122381414Y-71451373D01*
X122390315Y-71460275D01*
X122390318Y-71460277D01*
X122390320Y-71460279D01*
X122400405Y-71467828D01*
X122407287Y-71473374D01*
X122442782Y-71504130D01*
X122446088Y-71505639D01*
X122446340Y-71505755D01*
X122469135Y-71519280D01*
X122472273Y-71521629D01*
X122516260Y-71538034D01*
X122524443Y-71541424D01*
X122567152Y-71560929D01*
X122567154Y-71560929D01*
X122567158Y-71560931D01*
X122571031Y-71561487D01*
X122596716Y-71568043D01*
X122600386Y-71569412D01*
X122647232Y-71572762D01*
X122656025Y-71573708D01*
X122668486Y-71575500D01*
X122668489Y-71575500D01*
X122681074Y-71575500D01*
X122689920Y-71575815D01*
X122736771Y-71579167D01*
X122740600Y-71578333D01*
X122766959Y-71575500D01*
X128285541Y-71575500D01*
X128311899Y-71578333D01*
X128315729Y-71579167D01*
X128362575Y-71575815D01*
X128371422Y-71575500D01*
X128384011Y-71575500D01*
X128396485Y-71573706D01*
X128405269Y-71572761D01*
X128452115Y-71569411D01*
X128454488Y-71568525D01*
X128455778Y-71568045D01*
X128481465Y-71561488D01*
X128485342Y-71560931D01*
X128528072Y-71541415D01*
X128536207Y-71538045D01*
X128580226Y-71521629D01*
X128583364Y-71519280D01*
X128606153Y-71505757D01*
X128609718Y-71504130D01*
X128645203Y-71473380D01*
X128652084Y-71467835D01*
X128662180Y-71460279D01*
X128665336Y-71457123D01*
X128671083Y-71451376D01*
X128677566Y-71445340D01*
X128713052Y-71414592D01*
X128713052Y-71414591D01*
X128713055Y-71414589D01*
X128715173Y-71411292D01*
X128731806Y-71390652D01*
X129485640Y-70636817D01*
X129546963Y-70603333D01*
X129573321Y-70600499D01*
X130132061Y-70600499D01*
X130135372Y-70600499D01*
X130194983Y-70594091D01*
X130329831Y-70543796D01*
X130445046Y-70457546D01*
X130531296Y-70342331D01*
X130581591Y-70207483D01*
X130588000Y-70147873D01*
X130587999Y-69752128D01*
X130581591Y-69692517D01*
X130531296Y-69557669D01*
X130445046Y-69442454D01*
X130329831Y-69356204D01*
X130194983Y-69305909D01*
X130191532Y-69305538D01*
X130138666Y-69299854D01*
X130138665Y-69299853D01*
X130135373Y-69299500D01*
X130132051Y-69299500D01*
X129713069Y-69299500D01*
X129646030Y-69279815D01*
X129600275Y-69227011D01*
X129590331Y-69157853D01*
X129619356Y-69094297D01*
X129625373Y-69087833D01*
X129790658Y-68922548D01*
X129811292Y-68905922D01*
X129814589Y-68903804D01*
X129814592Y-68903801D01*
X129845340Y-68868315D01*
X129851376Y-68861832D01*
X129860275Y-68852933D01*
X129860275Y-68852932D01*
X129860279Y-68852929D01*
X129867835Y-68842833D01*
X129873387Y-68835945D01*
X129873929Y-68835320D01*
X129904130Y-68800467D01*
X129905756Y-68796905D01*
X129919284Y-68774106D01*
X129921629Y-68770975D01*
X129921629Y-68770973D01*
X129932319Y-68756696D01*
X129934772Y-68758532D01*
X129959692Y-68725238D01*
X130025154Y-68700816D01*
X130034010Y-68700499D01*
X130132061Y-68700499D01*
X130135372Y-68700499D01*
X130194983Y-68694091D01*
X130329831Y-68643796D01*
X130445046Y-68557546D01*
X130531296Y-68442331D01*
X130581591Y-68307483D01*
X130588000Y-68247873D01*
X130587999Y-67852128D01*
X130581591Y-67792517D01*
X130531296Y-67657669D01*
X130445046Y-67542454D01*
X130329831Y-67456204D01*
X130194983Y-67405909D01*
X130135373Y-67399500D01*
X130132050Y-67399500D01*
X128867939Y-67399500D01*
X128867920Y-67399500D01*
X128864628Y-67399501D01*
X128861348Y-67399853D01*
X128861340Y-67399854D01*
X128805015Y-67405909D01*
X128670169Y-67456204D01*
X128554954Y-67542454D01*
X128468704Y-67657668D01*
X128418409Y-67792516D01*
X128415035Y-67823903D01*
X128412000Y-67852127D01*
X128412000Y-67855448D01*
X128412000Y-67855449D01*
X128412000Y-68227756D01*
X128392315Y-68294795D01*
X128339511Y-68340550D01*
X128274747Y-68351045D01*
X128260373Y-68349500D01*
X128257051Y-68349500D01*
X128224500Y-68349500D01*
X128157461Y-68329815D01*
X128111706Y-68277011D01*
X128100500Y-68225500D01*
X128100500Y-65574499D01*
X128120185Y-65507460D01*
X128172989Y-65461705D01*
X128224500Y-65450499D01*
X128257061Y-65450499D01*
X128260372Y-65450499D01*
X128274742Y-65448954D01*
X128343501Y-65461357D01*
X128394639Y-65508966D01*
X128412000Y-65572243D01*
X128412000Y-65944560D01*
X128412000Y-65944578D01*
X128412001Y-65947872D01*
X128412353Y-65951152D01*
X128412354Y-65951159D01*
X128418409Y-66007484D01*
X128438473Y-66061278D01*
X128468704Y-66142331D01*
X128554954Y-66257546D01*
X128670169Y-66343796D01*
X128805017Y-66394091D01*
X128864627Y-66400500D01*
X129739178Y-66400499D01*
X129806217Y-66420183D01*
X129826859Y-66436818D01*
X131088181Y-67698140D01*
X131121666Y-67759463D01*
X131124500Y-67785821D01*
X131124500Y-68510305D01*
X131124500Y-68510320D01*
X131124501Y-68514360D01*
X131125029Y-68518373D01*
X131125030Y-68518384D01*
X131139955Y-68631760D01*
X131200464Y-68777841D01*
X131296717Y-68903282D01*
X131422112Y-68999500D01*
X131422159Y-68999536D01*
X131510452Y-69036108D01*
X131564856Y-69079948D01*
X131586921Y-69146242D01*
X131587000Y-69150669D01*
X131587000Y-69249330D01*
X131567315Y-69316369D01*
X131514511Y-69362124D01*
X131510453Y-69363891D01*
X131422158Y-69400463D01*
X131296717Y-69496717D01*
X131200463Y-69622159D01*
X131139956Y-69768237D01*
X131137961Y-69783395D01*
X131124500Y-69885639D01*
X131124500Y-69889691D01*
X131124500Y-69889692D01*
X131124500Y-70910305D01*
X131124500Y-70910320D01*
X131124501Y-70914360D01*
X131125029Y-70918373D01*
X131125030Y-70918384D01*
X131139955Y-71031760D01*
X131200463Y-71177841D01*
X131281551Y-71283516D01*
X131306745Y-71348685D01*
X131292707Y-71417130D01*
X131270856Y-71446683D01*
X130814359Y-71903181D01*
X130753036Y-71936666D01*
X130726678Y-71939500D01*
X129966737Y-71939500D01*
X129898609Y-71949426D01*
X129793515Y-72000802D01*
X129704783Y-72089534D01*
X129664271Y-72133874D01*
X129596737Y-72151788D01*
X129530239Y-72130346D01*
X129492657Y-72086975D01*
X129406484Y-72000802D01*
X129352712Y-71974515D01*
X129301393Y-71949427D01*
X129301391Y-71949426D01*
X129301390Y-71949426D01*
X129233263Y-71939500D01*
X129233260Y-71939500D01*
X128466740Y-71939500D01*
X128466737Y-71939500D01*
X128398609Y-71949426D01*
X128293515Y-72000802D01*
X128210802Y-72083515D01*
X128159426Y-72188609D01*
X128149499Y-72256736D01*
X128149499Y-72820344D01*
X128129814Y-72887384D01*
X128077010Y-72933138D01*
X128007852Y-72943082D01*
X128007624Y-72943049D01*
X127983261Y-72939500D01*
X127983260Y-72939500D01*
X126916740Y-72939500D01*
X126916737Y-72939500D01*
X126848609Y-72949426D01*
X126743515Y-73000802D01*
X126660802Y-73083515D01*
X126609426Y-73188609D01*
X126599500Y-73256736D01*
X126599500Y-74123263D01*
X126609426Y-74191390D01*
X126609426Y-74191391D01*
X126609427Y-74191393D01*
X126632480Y-74238549D01*
X126660802Y-74296484D01*
X126743515Y-74379197D01*
X126743516Y-74379197D01*
X126743517Y-74379198D01*
X126848607Y-74430573D01*
X126875860Y-74434543D01*
X126916737Y-74440500D01*
X126916740Y-74440500D01*
X127983263Y-74440500D01*
X128017326Y-74435536D01*
X128051393Y-74430573D01*
X128156483Y-74379198D01*
X128239198Y-74296483D01*
X128285772Y-74201212D01*
X128332898Y-74149631D01*
X128400432Y-74131716D01*
X128415050Y-74132969D01*
X128466737Y-74140500D01*
X128972892Y-74140500D01*
X129039931Y-74160185D01*
X129085686Y-74212989D01*
X129095630Y-74282147D01*
X129066605Y-74345703D01*
X129065815Y-74346604D01*
X129036941Y-74379197D01*
X129019265Y-74399149D01*
X128940209Y-74549775D01*
X128909434Y-74674640D01*
X128899500Y-74714944D01*
X128899500Y-74885056D01*
X128901521Y-74893254D01*
X128940209Y-75050224D01*
X128967116Y-75101490D01*
X129019266Y-75200852D01*
X129102948Y-75295310D01*
X129132072Y-75328184D01*
X129176050Y-75358540D01*
X129272070Y-75424818D01*
X129431128Y-75485140D01*
X129557628Y-75500500D01*
X129561377Y-75500500D01*
X129638623Y-75500500D01*
X129642372Y-75500500D01*
X129768872Y-75485140D01*
X129927930Y-75424818D01*
X130067929Y-75328183D01*
X130180734Y-75200852D01*
X130259790Y-75050225D01*
X130300500Y-74885056D01*
X130300500Y-74714944D01*
X130259790Y-74549775D01*
X130180734Y-74399148D01*
X130134290Y-74346724D01*
X130104571Y-74283494D01*
X130113755Y-74214230D01*
X130158927Y-74160927D01*
X130225746Y-74140507D01*
X130227108Y-74140500D01*
X130733263Y-74140500D01*
X130767326Y-74135536D01*
X130801393Y-74130573D01*
X130906483Y-74079198D01*
X130989198Y-73996483D01*
X131040573Y-73891393D01*
X131048326Y-73838181D01*
X131050500Y-73823263D01*
X131050500Y-73063320D01*
X131070185Y-72996281D01*
X131086814Y-72975644D01*
X132353154Y-71709303D01*
X132373792Y-71692673D01*
X132377089Y-71690555D01*
X132377092Y-71690552D01*
X132407840Y-71655066D01*
X132413876Y-71648583D01*
X132422775Y-71639684D01*
X132422775Y-71639683D01*
X132422779Y-71639680D01*
X132430335Y-71629584D01*
X132435887Y-71622696D01*
X132442984Y-71614506D01*
X132466630Y-71587218D01*
X132468256Y-71583656D01*
X132481784Y-71560857D01*
X132484129Y-71557726D01*
X132495083Y-71528353D01*
X132536952Y-71472420D01*
X132563814Y-71457123D01*
X132589018Y-71446683D01*
X132702841Y-71399536D01*
X132828282Y-71303282D01*
X132915422Y-71189718D01*
X132971847Y-71148517D01*
X133041593Y-71144362D01*
X133102514Y-71178574D01*
X133119335Y-71200109D01*
X133207684Y-71343346D01*
X133331654Y-71467316D01*
X133480877Y-71559357D01*
X133647303Y-71614506D01*
X133746890Y-71624680D01*
X133753168Y-71624999D01*
X133887498Y-71624999D01*
X133887499Y-71624998D01*
X133887500Y-70650000D01*
X134387500Y-70650000D01*
X134387500Y-71624999D01*
X134521829Y-71624999D01*
X134528111Y-71624678D01*
X134627695Y-71614506D01*
X134794122Y-71559357D01*
X134943345Y-71467316D01*
X135067316Y-71343345D01*
X135159357Y-71194122D01*
X135214506Y-71027696D01*
X135224680Y-70928109D01*
X135225000Y-70921831D01*
X135225000Y-70650000D01*
X134387500Y-70650000D01*
X133887500Y-70650000D01*
X133887500Y-68250000D01*
X134387500Y-68250000D01*
X134387500Y-70150000D01*
X135224999Y-70150000D01*
X135224999Y-69878170D01*
X135224678Y-69871888D01*
X135214506Y-69772304D01*
X135159357Y-69605877D01*
X135067316Y-69456654D01*
X134943345Y-69332683D01*
X134899337Y-69305539D01*
X134852612Y-69253591D01*
X134841389Y-69184629D01*
X134869233Y-69120546D01*
X134899337Y-69094461D01*
X134943345Y-69067316D01*
X135067316Y-68943345D01*
X135159357Y-68794122D01*
X135214506Y-68627696D01*
X135224680Y-68528109D01*
X135225000Y-68521831D01*
X135225000Y-68250000D01*
X134387500Y-68250000D01*
X133887500Y-68250000D01*
X133887499Y-66775000D01*
X134387500Y-66775000D01*
X134387500Y-67750000D01*
X135224999Y-67750000D01*
X135224999Y-67478170D01*
X135224678Y-67471888D01*
X135214506Y-67372304D01*
X135159357Y-67205877D01*
X135067316Y-67056654D01*
X134943345Y-66932683D01*
X134794122Y-66840642D01*
X134627696Y-66785493D01*
X134528109Y-66775319D01*
X134521832Y-66775000D01*
X134387500Y-66775000D01*
X133887499Y-66775000D01*
X133753171Y-66775000D01*
X133746888Y-66775321D01*
X133647304Y-66785493D01*
X133480877Y-66840642D01*
X133331654Y-66932683D01*
X133207682Y-67056655D01*
X133119334Y-67199890D01*
X133067386Y-67246615D01*
X132998424Y-67257836D01*
X132934342Y-67229993D01*
X132915420Y-67210279D01*
X132828282Y-67096717D01*
X132702840Y-67000463D01*
X132556762Y-66939956D01*
X132443380Y-66925029D01*
X132443378Y-66925028D01*
X132439361Y-66924500D01*
X132435308Y-66924500D01*
X131710821Y-66924500D01*
X131643782Y-66904815D01*
X131623140Y-66888181D01*
X130624318Y-65889359D01*
X130590833Y-65828036D01*
X130587999Y-65801678D01*
X130587999Y-65555439D01*
X130587999Y-65552128D01*
X130581591Y-65492517D01*
X130531296Y-65357669D01*
X130445046Y-65242454D01*
X130329831Y-65156204D01*
X130194983Y-65105909D01*
X130194983Y-65105908D01*
X130138666Y-65099854D01*
X130138665Y-65099853D01*
X130135373Y-65099500D01*
X130132050Y-65099500D01*
X128867939Y-65099500D01*
X128867920Y-65099500D01*
X128864628Y-65099501D01*
X128861339Y-65099854D01*
X128861330Y-65099855D01*
X128850249Y-65101046D01*
X128781490Y-65088638D01*
X128730355Y-65041025D01*
X128712999Y-64977759D01*
X128712999Y-64773605D01*
X128732684Y-64706568D01*
X128785488Y-64660813D01*
X128847441Y-64650051D01*
X128841994Y-64649713D01*
X128849303Y-64650000D01*
X129250000Y-64650000D01*
X129250000Y-64100000D01*
X129750000Y-64100000D01*
X129750000Y-64650000D01*
X130150697Y-64650000D01*
X130155576Y-64649808D01*
X130189993Y-64647099D01*
X130347697Y-64601282D01*
X130489057Y-64517682D01*
X130605182Y-64401557D01*
X130688780Y-64260200D01*
X130734599Y-64102488D01*
X130734795Y-64100000D01*
X129750000Y-64100000D01*
X129250000Y-64100000D01*
X129250000Y-63724000D01*
X129269685Y-63656961D01*
X129322489Y-63611206D01*
X129374000Y-63600000D01*
X130734795Y-63600000D01*
X130734795Y-63599999D01*
X130734599Y-63597511D01*
X130688780Y-63439799D01*
X130605182Y-63298442D01*
X130489057Y-63182317D01*
X130347697Y-63098717D01*
X130189993Y-63052900D01*
X130155576Y-63050191D01*
X130150697Y-63050000D01*
X130085446Y-63050000D01*
X130018407Y-63030315D01*
X129972652Y-62977511D01*
X129962708Y-62908353D01*
X129991733Y-62844797D01*
X130046442Y-62808294D01*
X130194122Y-62759357D01*
X130343345Y-62667316D01*
X130467316Y-62543345D01*
X130559357Y-62394122D01*
X130614506Y-62227696D01*
X130624680Y-62128109D01*
X130625000Y-62121831D01*
X130625000Y-61850000D01*
X129411500Y-61850000D01*
X129344461Y-61830315D01*
X129298706Y-61777511D01*
X129287500Y-61726000D01*
X129287500Y-61349999D01*
X129787499Y-61349999D01*
X129787500Y-61350000D01*
X130624999Y-61350000D01*
X130624999Y-61078170D01*
X130624678Y-61071888D01*
X130614506Y-60972304D01*
X130559357Y-60805877D01*
X130467316Y-60656654D01*
X130343345Y-60532683D01*
X130194122Y-60440642D01*
X130027696Y-60385493D01*
X129928109Y-60375319D01*
X129921832Y-60375000D01*
X129787500Y-60375000D01*
X129787499Y-61349999D01*
X129287500Y-61349999D01*
X129287499Y-60375000D01*
X129153171Y-60375000D01*
X129146888Y-60375321D01*
X129047304Y-60385493D01*
X128880877Y-60440642D01*
X128731654Y-60532683D01*
X128607682Y-60656655D01*
X128519334Y-60799890D01*
X128467386Y-60846615D01*
X128398424Y-60857836D01*
X128334342Y-60829993D01*
X128315420Y-60810279D01*
X128228282Y-60696717D01*
X128102840Y-60600463D01*
X127956762Y-60539956D01*
X127843380Y-60525029D01*
X127843378Y-60525028D01*
X127839361Y-60524500D01*
X127835307Y-60524500D01*
X127089694Y-60524500D01*
X127089678Y-60524500D01*
X127085640Y-60524501D01*
X127081627Y-60525029D01*
X127081615Y-60525030D01*
X126968239Y-60539955D01*
X126822158Y-60600464D01*
X126696717Y-60696717D01*
X126600464Y-60822158D01*
X126545811Y-60954102D01*
X126501970Y-61008505D01*
X126435676Y-61030570D01*
X126367976Y-61013291D01*
X126320366Y-60962153D01*
X126316689Y-60954102D01*
X126294693Y-60901000D01*
X126262036Y-60822159D01*
X126197839Y-60738495D01*
X126165782Y-60696717D01*
X126040340Y-60600463D01*
X125894262Y-60539956D01*
X125780880Y-60525029D01*
X125780878Y-60525028D01*
X125776861Y-60524500D01*
X125772807Y-60524500D01*
X125027194Y-60524500D01*
X125027178Y-60524500D01*
X125023140Y-60524501D01*
X125019127Y-60525029D01*
X125019115Y-60525030D01*
X124905739Y-60539955D01*
X124845584Y-60564872D01*
X124776114Y-60572341D01*
X124713635Y-60541066D01*
X124710450Y-60537992D01*
X123309639Y-59137181D01*
X123276154Y-59075858D01*
X123281138Y-59006166D01*
X123323010Y-58950233D01*
X123388474Y-58925816D01*
X123397320Y-58925500D01*
X123771987Y-58925500D01*
X123776040Y-58925500D01*
X123890999Y-58910365D01*
X124034037Y-58851117D01*
X124156867Y-58756867D01*
X124212463Y-58684411D01*
X124268890Y-58643209D01*
X124338636Y-58639054D01*
X124399557Y-58673266D01*
X124416378Y-58694801D01*
X124480056Y-58798040D01*
X124601959Y-58919943D01*
X124748698Y-59010453D01*
X124912348Y-59064681D01*
X125010203Y-59074678D01*
X125016520Y-59074999D01*
X125062499Y-59074999D01*
X125062500Y-59074998D01*
X125062500Y-58350000D01*
X125562500Y-58350000D01*
X125562500Y-59074999D01*
X125608497Y-59074999D01*
X125614779Y-59074678D01*
X125712650Y-59064681D01*
X125876301Y-59010453D01*
X126023040Y-58919943D01*
X126144943Y-58798040D01*
X126235453Y-58651301D01*
X126289681Y-58487651D01*
X126299680Y-58389777D01*
X126300000Y-58383499D01*
X126300000Y-58350000D01*
X125562500Y-58350000D01*
X125062500Y-58350000D01*
X125062500Y-57974000D01*
X125082185Y-57906961D01*
X125134989Y-57861206D01*
X125186500Y-57850000D01*
X126299999Y-57850000D01*
X126299999Y-57816502D01*
X126299678Y-57810220D01*
X126289681Y-57712349D01*
X126235453Y-57548698D01*
X126144943Y-57401959D01*
X126023039Y-57280055D01*
X125992048Y-57260939D01*
X125945324Y-57208990D01*
X125934103Y-57140027D01*
X125961947Y-57075946D01*
X125981659Y-57057025D01*
X125981867Y-57056867D01*
X126076117Y-56934037D01*
X126135365Y-56790999D01*
X126150500Y-56676040D01*
X126150499Y-56343319D01*
X126170183Y-56276281D01*
X126186813Y-56255644D01*
X126461343Y-55981114D01*
X126522664Y-55947631D01*
X126552278Y-55946119D01*
X126559999Y-55945248D01*
X126560000Y-55945249D01*
X126728059Y-55926313D01*
X126887690Y-55870456D01*
X127030890Y-55780477D01*
X127128030Y-55683336D01*
X127189349Y-55649854D01*
X127259041Y-55654838D01*
X127314975Y-55696709D01*
X127331648Y-55727043D01*
X127331714Y-55727217D01*
X127338510Y-55753539D01*
X127338970Y-55756735D01*
X127339069Y-55757424D01*
X127351685Y-55785048D01*
X127356903Y-55796475D01*
X127358571Y-55800126D01*
X127361959Y-55808304D01*
X127378373Y-55852312D01*
X127380722Y-55855450D01*
X127394240Y-55878231D01*
X127395870Y-55881799D01*
X127426627Y-55917295D01*
X127432170Y-55924174D01*
X127439721Y-55934261D01*
X127448627Y-55943167D01*
X127454659Y-55949646D01*
X127485411Y-55985136D01*
X127488708Y-55987255D01*
X127509349Y-56003889D01*
X129106112Y-57600652D01*
X129122744Y-57621291D01*
X129124864Y-57624589D01*
X129160370Y-57655354D01*
X129166833Y-57661373D01*
X129175734Y-57670275D01*
X129175737Y-57670277D01*
X129175739Y-57670279D01*
X129185835Y-57677837D01*
X129192706Y-57683374D01*
X129228201Y-57714130D01*
X129231761Y-57715756D01*
X129254554Y-57729279D01*
X129257693Y-57731629D01*
X129301678Y-57748034D01*
X129309857Y-57751422D01*
X129352572Y-57770929D01*
X129352577Y-57770931D01*
X129356454Y-57771488D01*
X129382134Y-57778042D01*
X129385804Y-57779411D01*
X129432651Y-57782761D01*
X129441433Y-57783706D01*
X129453908Y-57785500D01*
X129466497Y-57785500D01*
X129475343Y-57785816D01*
X129478937Y-57786073D01*
X129522190Y-57789167D01*
X129522191Y-57789166D01*
X129529678Y-57789702D01*
X129595142Y-57814119D01*
X129631832Y-57858114D01*
X129674941Y-57944688D01*
X129809019Y-58122237D01*
X129973437Y-58272124D01*
X130162595Y-58389245D01*
X130162597Y-58389245D01*
X130162599Y-58389247D01*
X130370060Y-58469618D01*
X130588757Y-58510500D01*
X130588759Y-58510500D01*
X130811241Y-58510500D01*
X130811243Y-58510500D01*
X131029940Y-58469618D01*
X131237401Y-58389247D01*
X131407364Y-58284011D01*
X131426559Y-58272126D01*
X131426559Y-58272125D01*
X131426562Y-58272124D01*
X131484949Y-58218896D01*
X131547751Y-58188281D01*
X131617138Y-58196478D01*
X131662196Y-58229330D01*
X131671630Y-58240218D01*
X131677170Y-58247093D01*
X131684721Y-58257180D01*
X131693627Y-58266086D01*
X131699659Y-58272565D01*
X131730411Y-58308055D01*
X131733708Y-58310174D01*
X131754349Y-58326808D01*
X138088181Y-64660640D01*
X138121666Y-64721963D01*
X138124500Y-64748321D01*
X138124500Y-72935541D01*
X138121666Y-72961899D01*
X138120833Y-72965729D01*
X138123098Y-72997388D01*
X138124184Y-73012574D01*
X138124500Y-73021421D01*
X138124500Y-73034011D01*
X138126293Y-73046491D01*
X138127237Y-73055275D01*
X138130588Y-73102115D01*
X138131956Y-73105781D01*
X138138510Y-73131458D01*
X138138970Y-73134654D01*
X138139069Y-73135343D01*
X138142411Y-73142661D01*
X138158022Y-73176844D01*
X138158571Y-73178045D01*
X138161957Y-73186219D01*
X138175521Y-73222586D01*
X138178373Y-73230231D01*
X138180722Y-73233369D01*
X138194240Y-73256150D01*
X138195870Y-73259718D01*
X138226627Y-73295214D01*
X138232170Y-73302093D01*
X138239721Y-73312180D01*
X138248627Y-73321086D01*
X138254659Y-73327565D01*
X138285411Y-73363055D01*
X138288708Y-73365174D01*
X138309349Y-73381808D01*
X138766574Y-73839033D01*
X139040361Y-74112819D01*
X139073846Y-74174142D01*
X139068862Y-74243833D01*
X139026990Y-74299767D01*
X138961526Y-74324184D01*
X138952680Y-74324500D01*
X137237229Y-74324500D01*
X137170190Y-74304815D01*
X137149548Y-74288181D01*
X137070891Y-74209524D01*
X137070891Y-74209523D01*
X137070890Y-74209523D01*
X136927690Y-74119544D01*
X136768059Y-74063687D01*
X136768058Y-74063686D01*
X136768056Y-74063686D01*
X136599999Y-74044750D01*
X136431943Y-74063686D01*
X136272310Y-74119544D01*
X136129108Y-74209524D01*
X136050452Y-74288181D01*
X135989129Y-74321666D01*
X135962771Y-74324500D01*
X135714556Y-74324500D01*
X135647517Y-74304815D01*
X135601762Y-74252011D01*
X135591818Y-74182853D01*
X135591851Y-74182623D01*
X135598389Y-74137746D01*
X135600500Y-74123260D01*
X135600500Y-73256740D01*
X135600500Y-73256736D01*
X135593789Y-73210679D01*
X135590573Y-73188607D01*
X135539198Y-73083517D01*
X135539197Y-73083516D01*
X135539197Y-73083515D01*
X135456484Y-73000802D01*
X135394470Y-72970486D01*
X135351393Y-72949427D01*
X135351391Y-72949426D01*
X135351390Y-72949426D01*
X135283263Y-72939500D01*
X135283260Y-72939500D01*
X134216740Y-72939500D01*
X134216737Y-72939500D01*
X134192378Y-72943049D01*
X134123201Y-72933236D01*
X134070311Y-72887580D01*
X134050500Y-72820578D01*
X134050500Y-72256736D01*
X134040573Y-72188609D01*
X134040573Y-72188607D01*
X133989198Y-72083517D01*
X133989197Y-72083516D01*
X133989197Y-72083515D01*
X133906484Y-72000802D01*
X133852712Y-71974515D01*
X133801393Y-71949427D01*
X133801391Y-71949426D01*
X133801390Y-71949426D01*
X133733263Y-71939500D01*
X133733260Y-71939500D01*
X132966740Y-71939500D01*
X132966737Y-71939500D01*
X132898609Y-71949426D01*
X132793515Y-72000802D01*
X132710802Y-72083515D01*
X132659426Y-72188609D01*
X132649500Y-72256736D01*
X132649500Y-73823263D01*
X132659426Y-73891391D01*
X132673920Y-73921039D01*
X132685680Y-73989912D01*
X132658337Y-74054209D01*
X132600573Y-74093517D01*
X132563682Y-74099317D01*
X132565114Y-74099274D01*
X132563234Y-74099387D01*
X132562520Y-74099500D01*
X132557628Y-74099500D01*
X132553920Y-74099950D01*
X132553907Y-74099951D01*
X132431127Y-74114860D01*
X132272069Y-74175182D01*
X132132072Y-74271815D01*
X132019265Y-74399149D01*
X131940209Y-74549775D01*
X131909434Y-74674640D01*
X131899500Y-74714944D01*
X131899500Y-74885056D01*
X131901521Y-74893254D01*
X131940209Y-75050224D01*
X131967116Y-75101490D01*
X132019266Y-75200852D01*
X132102948Y-75295310D01*
X132132072Y-75328184D01*
X132176050Y-75358540D01*
X132272070Y-75424818D01*
X132431128Y-75485140D01*
X132557628Y-75500500D01*
X132561377Y-75500500D01*
X132638623Y-75500500D01*
X132642372Y-75500500D01*
X132768872Y-75485140D01*
X132927930Y-75424818D01*
X133067929Y-75328183D01*
X133180734Y-75200852D01*
X133259790Y-75050225D01*
X133300500Y-74885056D01*
X133300500Y-74762320D01*
X133320185Y-74695282D01*
X133372989Y-74649527D01*
X133442147Y-74639583D01*
X133505703Y-74668608D01*
X133512181Y-74674640D01*
X133928193Y-75090652D01*
X133944825Y-75111291D01*
X133946945Y-75114589D01*
X133949574Y-75116867D01*
X133987350Y-75175642D01*
X133987352Y-75245511D01*
X133969838Y-75275032D01*
X133909426Y-75398609D01*
X133899500Y-75466736D01*
X133899500Y-76333263D01*
X133903049Y-76357622D01*
X133893236Y-76426799D01*
X133847580Y-76479689D01*
X133780578Y-76499500D01*
X128419655Y-76499500D01*
X128352616Y-76479815D01*
X128306861Y-76427011D01*
X128296917Y-76357853D01*
X128296951Y-76357622D01*
X128300500Y-76333263D01*
X128300500Y-75466736D01*
X128290573Y-75398609D01*
X128290573Y-75398607D01*
X128239198Y-75293517D01*
X128239197Y-75293516D01*
X128239197Y-75293515D01*
X128156484Y-75210802D01*
X128092846Y-75179692D01*
X128051393Y-75159427D01*
X128051391Y-75159426D01*
X128051390Y-75159426D01*
X127983263Y-75149500D01*
X127983260Y-75149500D01*
X126916740Y-75149500D01*
X126916737Y-75149500D01*
X126848609Y-75159426D01*
X126743515Y-75210802D01*
X126660802Y-75293515D01*
X126609426Y-75398609D01*
X126599500Y-75466736D01*
X126599500Y-76319973D01*
X126579815Y-76387012D01*
X126527011Y-76432767D01*
X126467816Y-76443735D01*
X126121040Y-76422206D01*
X126102786Y-76421057D01*
X126097780Y-76420640D01*
X125346474Y-76342721D01*
X125151010Y-76322177D01*
X125146094Y-76321560D01*
X124474064Y-76223648D01*
X124204191Y-76183796D01*
X124199373Y-76182987D01*
X123573344Y-76065174D01*
X123263950Y-76006154D01*
X123259236Y-76005159D01*
X122664627Y-75867595D01*
X122331937Y-75789563D01*
X122327335Y-75788390D01*
X121756934Y-75631332D01*
X121409689Y-75534379D01*
X121405205Y-75533035D01*
X120854713Y-75356682D01*
X120498922Y-75241079D01*
X120494562Y-75239572D01*
X119961419Y-75044136D01*
X119601124Y-74910144D01*
X119601121Y-74910143D01*
X119601120Y-74910142D01*
X119596894Y-74908482D01*
X119560130Y-74893254D01*
X119079775Y-74694284D01*
X118717875Y-74542155D01*
X118713782Y-74540346D01*
X118211873Y-74307704D01*
X117850696Y-74137746D01*
X117846742Y-74135799D01*
X117359668Y-73885081D01*
X117001147Y-73697651D01*
X116997337Y-73695574D01*
X116524807Y-73427082D01*
X116170610Y-73222586D01*
X116166949Y-73220387D01*
X115709079Y-72934571D01*
X115360579Y-72713406D01*
X115357070Y-72711095D01*
X114914060Y-72408417D01*
X114572375Y-72170940D01*
X114569043Y-72168542D01*
X114141122Y-71849456D01*
X113807461Y-71596193D01*
X113804325Y-71593731D01*
X113391809Y-71258740D01*
X113294019Y-71177841D01*
X113067136Y-70990145D01*
X113064099Y-70987549D01*
X112667462Y-70637284D01*
X112514991Y-70499999D01*
X115494356Y-70499999D01*
X115514891Y-70747816D01*
X115514891Y-70747819D01*
X115514892Y-70747821D01*
X115575937Y-70988881D01*
X115615468Y-71079002D01*
X115675825Y-71216604D01*
X115675827Y-71216607D01*
X115811836Y-71424785D01*
X115980256Y-71607738D01*
X116008337Y-71629594D01*
X116176485Y-71760470D01*
X116176487Y-71760471D01*
X116176491Y-71760474D01*
X116395190Y-71878828D01*
X116630386Y-71959571D01*
X116875665Y-72000500D01*
X117124335Y-72000500D01*
X117369614Y-71959571D01*
X117604810Y-71878828D01*
X117823509Y-71760474D01*
X118019744Y-71607738D01*
X118188164Y-71424785D01*
X118324173Y-71216607D01*
X118424063Y-70988881D01*
X118485108Y-70747821D01*
X118505643Y-70500000D01*
X118485108Y-70252179D01*
X118424063Y-70011119D01*
X118325456Y-69786317D01*
X118324174Y-69783395D01*
X118316928Y-69772304D01*
X118188164Y-69575215D01*
X118019744Y-69392262D01*
X117973417Y-69356204D01*
X117823514Y-69239529D01*
X117823510Y-69239526D01*
X117823509Y-69239526D01*
X117604810Y-69121172D01*
X117604806Y-69121170D01*
X117604805Y-69121170D01*
X117369615Y-69040429D01*
X117124335Y-68999500D01*
X116875665Y-68999500D01*
X116630384Y-69040429D01*
X116395194Y-69121170D01*
X116395190Y-69121171D01*
X116395190Y-69121172D01*
X116326086Y-69158569D01*
X116176485Y-69239529D01*
X115980259Y-69392259D01*
X115980256Y-69392261D01*
X115980256Y-69392262D01*
X115811836Y-69575215D01*
X115801040Y-69591740D01*
X115675825Y-69783395D01*
X115593208Y-69971745D01*
X115575937Y-70011119D01*
X115537026Y-70164774D01*
X115514891Y-70252183D01*
X115494356Y-70499999D01*
X112514991Y-70499999D01*
X112360603Y-70360988D01*
X112352637Y-70353815D01*
X112349764Y-70351145D01*
X112300764Y-70304130D01*
X112152249Y-70161630D01*
X111969238Y-69986031D01*
X111665282Y-69688375D01*
X111662568Y-69685633D01*
X111298531Y-69306230D01*
X111249100Y-69253591D01*
X111006151Y-68994877D01*
X111003612Y-68992088D01*
X110656516Y-68599040D01*
X110376496Y-68274634D01*
X110374107Y-68271780D01*
X110044309Y-67865659D01*
X109777298Y-67528776D01*
X109775071Y-67525880D01*
X109581563Y-67266369D01*
X109463042Y-67107422D01*
X109462721Y-67106980D01*
X109209643Y-66758648D01*
X109207595Y-66755741D01*
X108913692Y-66325574D01*
X108674553Y-65965640D01*
X108672649Y-65962684D01*
X108533383Y-65739585D01*
X108397225Y-65521463D01*
X108391196Y-65511508D01*
X108172879Y-65151024D01*
X108171162Y-65148097D01*
X108129425Y-65074642D01*
X107914612Y-64696584D01*
X107705480Y-64316176D01*
X107704000Y-64313393D01*
X107466613Y-63852215D01*
X107273312Y-63462814D01*
X107271935Y-63459944D01*
X107054072Y-62989921D01*
X107048547Y-62977511D01*
X106876978Y-62592159D01*
X106875728Y-62589251D01*
X106677701Y-62111170D01*
X106609175Y-61938094D01*
X106517193Y-61705774D01*
X106516105Y-61702920D01*
X106338131Y-61217411D01*
X106303404Y-61117689D01*
X106194606Y-60805264D01*
X106193625Y-60802326D01*
X106189676Y-60790000D01*
X106036013Y-60310336D01*
X105995573Y-60176390D01*
X105909735Y-59892082D01*
X105908924Y-59889273D01*
X105771834Y-59391389D01*
X105663083Y-58967830D01*
X105662411Y-58965072D01*
X105566047Y-58548549D01*
X105546081Y-58462247D01*
X105539911Y-58433219D01*
X105463769Y-58075000D01*
X108644529Y-58075000D01*
X108707685Y-58245530D01*
X108809890Y-58409501D01*
X108943003Y-58549535D01*
X109101585Y-58659912D01*
X109279137Y-58736106D01*
X109468395Y-58775000D01*
X109715000Y-58775000D01*
X109715000Y-58125000D01*
X110215000Y-58125000D01*
X110215000Y-58775000D01*
X110410033Y-58775000D01*
X110416298Y-58774682D01*
X110557222Y-58760351D01*
X110741569Y-58702511D01*
X110910503Y-58608746D01*
X111057104Y-58482894D01*
X111177869Y-58326879D01*
X111234470Y-58285915D01*
X111304233Y-58282054D01*
X111365008Y-58316524D01*
X111392107Y-58359447D01*
X111398372Y-58376246D01*
X111400722Y-58379385D01*
X111414240Y-58402166D01*
X111415870Y-58405734D01*
X111446627Y-58441230D01*
X111452170Y-58448109D01*
X111459721Y-58458196D01*
X111468626Y-58467101D01*
X111474646Y-58473567D01*
X111505411Y-58509071D01*
X111505413Y-58509072D01*
X111508703Y-58511187D01*
X111529351Y-58527825D01*
X111892174Y-58890648D01*
X111908806Y-58911286D01*
X111910929Y-58914589D01*
X111923521Y-58925500D01*
X111946432Y-58945352D01*
X111952910Y-58951384D01*
X111961804Y-58960278D01*
X111968208Y-58965072D01*
X111971892Y-58967830D01*
X111978762Y-58973367D01*
X111990612Y-58983634D01*
X112014267Y-59004131D01*
X112017823Y-59005755D01*
X112040627Y-59019285D01*
X112043755Y-59021627D01*
X112043758Y-59021628D01*
X112087760Y-59038040D01*
X112095910Y-59041416D01*
X112138642Y-59060931D01*
X112142518Y-59061488D01*
X112168200Y-59068042D01*
X112171869Y-59069411D01*
X112218703Y-59072760D01*
X112227495Y-59073705D01*
X112239973Y-59075500D01*
X112252571Y-59075500D01*
X112261417Y-59075815D01*
X112308254Y-59079166D01*
X112308254Y-59079165D01*
X112308255Y-59079166D01*
X112312080Y-59078334D01*
X112338438Y-59075500D01*
X114014179Y-59075500D01*
X114081218Y-59095185D01*
X114101860Y-59111819D01*
X120588181Y-65598140D01*
X120621666Y-65659463D01*
X120624500Y-65685821D01*
X120624500Y-66410305D01*
X120624500Y-66410320D01*
X120624501Y-66414360D01*
X120625029Y-66418373D01*
X120625030Y-66418384D01*
X120639955Y-66531760D01*
X120700464Y-66677841D01*
X120796717Y-66803282D01*
X120883870Y-66870156D01*
X120922159Y-66899536D01*
X120983704Y-66925029D01*
X121000452Y-66931966D01*
X121054856Y-66975806D01*
X121076921Y-67042100D01*
X121077000Y-67046527D01*
X121077000Y-67250500D01*
X121057315Y-67317539D01*
X121004511Y-67363294D01*
X120953000Y-67374500D01*
X120519237Y-67374500D01*
X120451109Y-67384426D01*
X120346015Y-67435802D01*
X120263302Y-67518515D01*
X120211926Y-67623609D01*
X120202000Y-67691736D01*
X120202000Y-68267604D01*
X120182315Y-68334643D01*
X120177267Y-68341915D01*
X120109147Y-68432910D01*
X120058900Y-68567628D01*
X120052854Y-68623867D01*
X120052500Y-68630481D01*
X120052500Y-68750000D01*
X123052500Y-68750000D01*
X123052500Y-68630481D01*
X123052145Y-68623867D01*
X123046099Y-68567628D01*
X122995852Y-68432910D01*
X122927733Y-68341915D01*
X122903316Y-68276451D01*
X122903000Y-68267604D01*
X122903000Y-67691736D01*
X122893073Y-67623609D01*
X122893073Y-67623607D01*
X122841698Y-67518517D01*
X122841697Y-67518516D01*
X122841697Y-67518515D01*
X122758984Y-67435802D01*
X122697549Y-67405769D01*
X122653893Y-67384427D01*
X122653891Y-67384426D01*
X122653890Y-67384426D01*
X122585763Y-67374500D01*
X122585760Y-67374500D01*
X122162000Y-67374500D01*
X122094961Y-67354815D01*
X122049206Y-67302011D01*
X122038000Y-67250500D01*
X122038000Y-67050669D01*
X122057685Y-66983630D01*
X122110489Y-66937875D01*
X122114537Y-66936112D01*
X122202841Y-66899536D01*
X122328282Y-66803282D01*
X122415422Y-66689718D01*
X122471847Y-66648517D01*
X122541593Y-66644362D01*
X122602514Y-66678574D01*
X122619335Y-66700109D01*
X122707684Y-66843346D01*
X122831654Y-66967316D01*
X122980877Y-67059357D01*
X123147303Y-67114506D01*
X123246890Y-67124680D01*
X123253168Y-67124999D01*
X123387499Y-67124999D01*
X123387500Y-67124998D01*
X123387500Y-64698862D01*
X123400000Y-64656292D01*
X123400000Y-63950000D01*
X122662501Y-63950000D01*
X122662501Y-63983497D01*
X122662821Y-63989779D01*
X122672818Y-64087650D01*
X122727046Y-64251301D01*
X122817556Y-64398040D01*
X122939460Y-64519944D01*
X122967967Y-64537527D01*
X123014692Y-64589474D01*
X123025915Y-64658437D01*
X122998072Y-64722519D01*
X122967968Y-64748605D01*
X122831653Y-64832684D01*
X122707682Y-64956655D01*
X122619334Y-65099890D01*
X122567386Y-65146615D01*
X122498424Y-65157836D01*
X122434342Y-65129993D01*
X122415420Y-65110279D01*
X122407421Y-65099855D01*
X122388075Y-65074642D01*
X122328282Y-64996717D01*
X122202840Y-64900463D01*
X122056762Y-64839956D01*
X121943380Y-64825029D01*
X121943378Y-64825028D01*
X121939361Y-64824500D01*
X121935308Y-64824500D01*
X121210821Y-64824500D01*
X121143782Y-64804815D01*
X121123140Y-64788181D01*
X114877743Y-58542784D01*
X114844258Y-58481461D01*
X114849242Y-58411769D01*
X114867368Y-58379201D01*
X114905370Y-58330106D01*
X114990458Y-58156641D01*
X115011597Y-58075000D01*
X114261111Y-58075000D01*
X114300610Y-58050543D01*
X114368201Y-57961038D01*
X114398895Y-57853160D01*
X114388546Y-57741479D01*
X114338552Y-57641078D01*
X114266069Y-57575000D01*
X115015471Y-57575000D01*
X115015471Y-57574999D01*
X114952314Y-57404469D01*
X114871614Y-57275000D01*
X115850000Y-57275000D01*
X115850000Y-57419518D01*
X115850354Y-57426132D01*
X115856400Y-57482371D01*
X115906647Y-57617089D01*
X115992811Y-57732188D01*
X116107910Y-57818352D01*
X116242628Y-57868599D01*
X116298867Y-57874645D01*
X116305482Y-57875000D01*
X117000000Y-57875000D01*
X117000000Y-57275000D01*
X117500000Y-57275000D01*
X117500000Y-57875000D01*
X118194518Y-57875000D01*
X118201132Y-57874645D01*
X118257371Y-57868599D01*
X118392089Y-57818352D01*
X118507188Y-57732188D01*
X118593352Y-57617089D01*
X118643599Y-57482371D01*
X118649645Y-57426132D01*
X118650000Y-57419518D01*
X118650000Y-57275000D01*
X117500000Y-57275000D01*
X117000000Y-57275000D01*
X115850000Y-57275000D01*
X114871614Y-57275000D01*
X114850109Y-57240498D01*
X114786445Y-57173523D01*
X114754525Y-57111372D01*
X114761273Y-57041829D01*
X114794091Y-56995278D01*
X114853183Y-56942929D01*
X114949818Y-56802930D01*
X115010140Y-56643872D01*
X115030645Y-56475000D01*
X115010140Y-56306128D01*
X114949818Y-56147070D01*
X114931437Y-56120441D01*
X114909553Y-56054087D01*
X114927018Y-55986435D01*
X114931437Y-55979559D01*
X114933999Y-55975847D01*
X114949818Y-55952930D01*
X115010140Y-55793872D01*
X115030645Y-55625000D01*
X115010140Y-55456128D01*
X114949818Y-55297070D01*
X114937803Y-55279663D01*
X114931436Y-55270439D01*
X114909553Y-55204085D01*
X114927018Y-55136433D01*
X114931432Y-55129565D01*
X114949818Y-55102930D01*
X114954687Y-55090093D01*
X114983655Y-55013708D01*
X115010140Y-54943872D01*
X115030645Y-54775000D01*
X115010140Y-54606128D01*
X114949818Y-54447070D01*
X114941314Y-54434750D01*
X114931436Y-54420439D01*
X114909553Y-54354085D01*
X114927018Y-54286433D01*
X114931424Y-54279577D01*
X114949818Y-54252930D01*
X115010140Y-54093872D01*
X115030645Y-53925000D01*
X115010140Y-53756128D01*
X114949818Y-53597070D01*
X114931437Y-53570441D01*
X114909553Y-53504087D01*
X114927018Y-53436435D01*
X114931437Y-53429559D01*
X114932481Y-53428046D01*
X114949818Y-53402930D01*
X115010140Y-53243872D01*
X115030645Y-53075000D01*
X115010140Y-52906128D01*
X114949818Y-52747070D01*
X114931437Y-52720441D01*
X114909553Y-52654087D01*
X114927018Y-52586435D01*
X114931437Y-52579559D01*
X114936393Y-52572379D01*
X114949818Y-52552930D01*
X115010140Y-52393872D01*
X115030645Y-52225000D01*
X115030210Y-52221421D01*
X115025983Y-52186605D01*
X115010140Y-52056128D01*
X114949818Y-51897070D01*
X114935498Y-51876324D01*
X114931436Y-51870439D01*
X114909553Y-51804085D01*
X114927018Y-51736433D01*
X114931436Y-51729560D01*
X114949818Y-51702930D01*
X114958063Y-51681191D01*
X114995872Y-51581494D01*
X115010140Y-51543872D01*
X115030645Y-51375000D01*
X115010140Y-51206128D01*
X114991131Y-51156007D01*
X114985765Y-51086345D01*
X115010019Y-51038704D01*
X115009936Y-51038656D01*
X115010846Y-51037079D01*
X115014930Y-51029058D01*
X115016455Y-51027364D01*
X115105791Y-50872630D01*
X115161004Y-50702699D01*
X115179681Y-50525000D01*
X115161004Y-50347300D01*
X115105791Y-50177371D01*
X115076651Y-50126900D01*
X114554975Y-50648577D01*
X114493652Y-50682062D01*
X114449583Y-50681457D01*
X114485387Y-50652905D01*
X114525000Y-50570649D01*
X114525000Y-50479351D01*
X114485387Y-50397095D01*
X114414008Y-50340173D01*
X114347532Y-50325000D01*
X114302468Y-50325000D01*
X114235992Y-50340173D01*
X114164613Y-50397095D01*
X114125000Y-50479351D01*
X114125000Y-50570649D01*
X114164613Y-50652905D01*
X114199501Y-50680727D01*
X114142575Y-50678223D01*
X114095024Y-50648577D01*
X114059127Y-50612680D01*
X114025642Y-50551357D01*
X114030626Y-50481665D01*
X114059127Y-50437318D01*
X114689867Y-49806579D01*
X114751190Y-49773094D01*
X114796372Y-49776325D01*
X114832673Y-49774023D01*
X114905368Y-49680109D01*
X114990458Y-49506640D01*
X115011597Y-49425000D01*
X114261111Y-49425000D01*
X114300610Y-49400543D01*
X114368201Y-49311038D01*
X114398895Y-49203160D01*
X114388546Y-49091479D01*
X114338552Y-48991078D01*
X114266069Y-48925000D01*
X115015471Y-48925000D01*
X115015471Y-48924999D01*
X114952314Y-48754469D01*
X114850109Y-48590498D01*
X114716996Y-48450464D01*
X114558414Y-48340087D01*
X114380862Y-48263893D01*
X114191605Y-48225000D01*
X113595000Y-48225000D01*
X113595000Y-48875000D01*
X113095000Y-48875000D01*
X113095000Y-48225000D01*
X112549967Y-48225000D01*
X112543701Y-48225317D01*
X112402777Y-48239648D01*
X112218430Y-48297488D01*
X112049496Y-48391253D01*
X111902895Y-48517105D01*
X111784631Y-48669890D01*
X111699541Y-48843358D01*
X111678403Y-48925000D01*
X112428889Y-48925000D01*
X112389390Y-48949457D01*
X112321799Y-49038962D01*
X112291105Y-49146840D01*
X112301454Y-49258521D01*
X112351448Y-49358922D01*
X112423931Y-49425000D01*
X111674529Y-49425000D01*
X111737685Y-49595530D01*
X111839890Y-49759501D01*
X111973003Y-49899535D01*
X112131584Y-50009911D01*
X112271463Y-50069939D01*
X112325306Y-50114466D01*
X112346529Y-50181035D01*
X112338504Y-50227860D01*
X112289860Y-50356125D01*
X112269354Y-50525000D01*
X112289860Y-50693872D01*
X112350182Y-50852930D01*
X112368563Y-50879560D01*
X112390446Y-50945915D01*
X112372980Y-51013567D01*
X112368563Y-51020440D01*
X112350182Y-51047069D01*
X112289860Y-51206127D01*
X112269354Y-51375000D01*
X112289860Y-51543872D01*
X112350182Y-51702930D01*
X112368563Y-51729560D01*
X112390446Y-51795915D01*
X112372980Y-51863567D01*
X112368563Y-51870440D01*
X112350182Y-51897069D01*
X112289860Y-52056127D01*
X112269354Y-52224999D01*
X112289860Y-52393872D01*
X112350182Y-52552930D01*
X112368562Y-52579558D01*
X112390446Y-52645913D01*
X112372981Y-52713564D01*
X112368564Y-52720437D01*
X112350182Y-52747067D01*
X112289860Y-52906127D01*
X112269354Y-53075000D01*
X112289860Y-53243872D01*
X112350182Y-53402930D01*
X112368562Y-53429558D01*
X112390446Y-53495913D01*
X112372981Y-53563564D01*
X112368564Y-53570437D01*
X112350182Y-53597067D01*
X112289860Y-53756127D01*
X112269354Y-53924999D01*
X112289860Y-54093872D01*
X112350182Y-54252930D01*
X112368562Y-54279558D01*
X112390446Y-54345913D01*
X112372981Y-54413564D01*
X112368564Y-54420437D01*
X112350182Y-54447067D01*
X112289860Y-54606127D01*
X112269354Y-54775000D01*
X112286869Y-54919240D01*
X112289860Y-54943872D01*
X112320828Y-55025530D01*
X112326901Y-55041542D01*
X112332268Y-55111206D01*
X112299120Y-55172712D01*
X112254299Y-55201692D01*
X112249802Y-55203369D01*
X112246659Y-55205722D01*
X112223880Y-55219237D01*
X112220309Y-55220867D01*
X112184826Y-55251613D01*
X112177947Y-55257158D01*
X112167844Y-55264722D01*
X112158924Y-55273641D01*
X112152455Y-55279663D01*
X112116970Y-55310411D01*
X112114851Y-55313709D01*
X112098220Y-55334345D01*
X111529345Y-55903220D01*
X111508709Y-55919851D01*
X111505411Y-55921970D01*
X111474663Y-55957455D01*
X111468641Y-55963924D01*
X111459722Y-55972844D01*
X111452158Y-55982947D01*
X111446613Y-55989826D01*
X111415867Y-56025310D01*
X111414235Y-56028883D01*
X111400723Y-56051656D01*
X111398370Y-56054799D01*
X111381960Y-56098796D01*
X111378574Y-56106970D01*
X111359068Y-56149683D01*
X111358511Y-56153561D01*
X111351958Y-56179238D01*
X111350589Y-56182909D01*
X111347237Y-56229751D01*
X111346293Y-56238535D01*
X111344500Y-56251014D01*
X111344500Y-56263603D01*
X111344184Y-56272450D01*
X111340833Y-56319295D01*
X111341666Y-56323124D01*
X111344500Y-56349484D01*
X111344500Y-57167139D01*
X111324815Y-57234178D01*
X111272011Y-57279933D01*
X111202853Y-57289877D01*
X111139297Y-57260852D01*
X111129305Y-57249158D01*
X111128799Y-57249640D01*
X110986996Y-57100464D01*
X110828414Y-56990087D01*
X110650862Y-56913893D01*
X110461605Y-56875000D01*
X110215000Y-56875000D01*
X110215000Y-57525000D01*
X109715000Y-57525000D01*
X109715000Y-56875000D01*
X109519967Y-56875000D01*
X109513701Y-56875317D01*
X109372777Y-56889648D01*
X109188430Y-56947488D01*
X109019496Y-57041253D01*
X108872895Y-57167105D01*
X108754631Y-57319890D01*
X108669541Y-57493358D01*
X108648403Y-57575000D01*
X109398889Y-57575000D01*
X109359390Y-57599457D01*
X109291799Y-57688962D01*
X109261105Y-57796840D01*
X109271454Y-57908521D01*
X109321448Y-58008922D01*
X109393931Y-58075000D01*
X108644529Y-58075000D01*
X105463769Y-58075000D01*
X105455112Y-58034274D01*
X105454546Y-58031447D01*
X105453185Y-58024217D01*
X105385721Y-57665728D01*
X105359139Y-57524477D01*
X105358165Y-57518717D01*
X105286103Y-57092664D01*
X105285715Y-57090203D01*
X105211337Y-56579706D01*
X105156426Y-56145036D01*
X105156132Y-56142479D01*
X105102938Y-55629567D01*
X105066263Y-55192812D01*
X105066083Y-55190357D01*
X105034205Y-54676889D01*
X105034083Y-54674546D01*
X105015777Y-54237770D01*
X105015699Y-54235291D01*
X105005070Y-53721079D01*
X105005044Y-53718517D01*
X105005044Y-53281481D01*
X105005070Y-53278919D01*
X105006961Y-53187424D01*
X105015699Y-52764702D01*
X105015777Y-52762235D01*
X105034084Y-52325442D01*
X105034204Y-52323119D01*
X105066083Y-51809655D01*
X105066267Y-51807131D01*
X105102939Y-51370419D01*
X105156134Y-50857500D01*
X105156434Y-50854897D01*
X105211333Y-50420323D01*
X105285721Y-49909754D01*
X105286096Y-49907376D01*
X105359142Y-49475504D01*
X105368646Y-49425000D01*
X108644529Y-49425000D01*
X108707685Y-49595530D01*
X108809890Y-49759501D01*
X108943003Y-49899535D01*
X109101585Y-50009912D01*
X109279137Y-50086106D01*
X109468395Y-50125000D01*
X109715000Y-50125000D01*
X109715000Y-49475000D01*
X110215000Y-49475000D01*
X110215000Y-50125000D01*
X110410033Y-50125000D01*
X110416298Y-50124682D01*
X110557222Y-50110351D01*
X110741569Y-50052511D01*
X110910503Y-49958746D01*
X111057104Y-49832894D01*
X111175368Y-49680109D01*
X111260458Y-49506641D01*
X111281597Y-49425000D01*
X110531111Y-49425000D01*
X110570610Y-49400543D01*
X110638201Y-49311038D01*
X110668895Y-49203160D01*
X110658546Y-49091479D01*
X110608552Y-48991078D01*
X110536069Y-48925000D01*
X111285471Y-48925000D01*
X111285471Y-48924999D01*
X111222314Y-48754469D01*
X111120109Y-48590498D01*
X110986996Y-48450464D01*
X110828414Y-48340087D01*
X110650862Y-48263893D01*
X110461605Y-48225000D01*
X110215000Y-48225000D01*
X110215000Y-48875000D01*
X109715000Y-48875000D01*
X109715000Y-48225000D01*
X109519967Y-48225000D01*
X109513701Y-48225317D01*
X109372777Y-48239648D01*
X109188430Y-48297488D01*
X109019496Y-48391253D01*
X108872895Y-48517105D01*
X108754631Y-48669890D01*
X108669541Y-48843358D01*
X108648403Y-48925000D01*
X109398889Y-48925000D01*
X109359390Y-48949457D01*
X109291799Y-49038962D01*
X109261105Y-49146840D01*
X109271454Y-49258521D01*
X109321448Y-49358922D01*
X109393931Y-49425000D01*
X108644529Y-49425000D01*
X105368646Y-49425000D01*
X105454555Y-48968504D01*
X105455116Y-48965709D01*
X105546076Y-48537772D01*
X105662418Y-48034896D01*
X105663115Y-48032043D01*
X105771837Y-47608599D01*
X105908938Y-47110675D01*
X105909713Y-47107992D01*
X105915702Y-47088154D01*
X105953921Y-47029671D01*
X106017696Y-47001131D01*
X106034407Y-47000000D01*
X114929793Y-47000000D01*
X114996832Y-47019685D01*
G37*
%TD.AperFunction*%
%TA.AperFunction,Conductor*%
G36*
X162001257Y-30500525D02*
G01*
X162947901Y-30520094D01*
X162953011Y-30520305D01*
X163879087Y-30577801D01*
X163897278Y-30578945D01*
X163902129Y-30579350D01*
X164653985Y-30657326D01*
X164849055Y-30677829D01*
X164853836Y-30678429D01*
X165526153Y-30776383D01*
X165795853Y-30816209D01*
X165800580Y-30817003D01*
X166426894Y-30934870D01*
X166736102Y-30993855D01*
X166740700Y-30994825D01*
X167335401Y-31132411D01*
X167668110Y-31210447D01*
X167672627Y-31211598D01*
X168066408Y-31320025D01*
X168243065Y-31368667D01*
X168590330Y-31465625D01*
X168594773Y-31466957D01*
X168983076Y-31591352D01*
X169145286Y-31643317D01*
X169221816Y-31668183D01*
X169501104Y-31758928D01*
X169505410Y-31760417D01*
X169935818Y-31918193D01*
X170038580Y-31955863D01*
X170398937Y-32089878D01*
X170403042Y-32091491D01*
X170920237Y-32305720D01*
X171282138Y-32457849D01*
X171286216Y-32459652D01*
X171788126Y-32692295D01*
X172149302Y-32862252D01*
X172153214Y-32864178D01*
X172640376Y-33114941D01*
X172998864Y-33302354D01*
X173002650Y-33304418D01*
X173475229Y-33572938D01*
X173829414Y-33777428D01*
X173833049Y-33779611D01*
X174290897Y-34065414D01*
X174639419Y-34286592D01*
X174642914Y-34288893D01*
X174897677Y-34462955D01*
X175085940Y-34591582D01*
X175427623Y-34829058D01*
X175430978Y-34831474D01*
X175858846Y-35150520D01*
X176192555Y-35403818D01*
X176195657Y-35406254D01*
X176608202Y-35741269D01*
X176717808Y-35831943D01*
X176932862Y-36009853D01*
X176935899Y-36012449D01*
X177332537Y-36362715D01*
X177647356Y-36646178D01*
X177650222Y-36648842D01*
X177761121Y-36755249D01*
X178030761Y-37013968D01*
X178334716Y-37311623D01*
X178337430Y-37314365D01*
X178701468Y-37693769D01*
X178989507Y-38000500D01*
X178993834Y-38005107D01*
X178996386Y-38007909D01*
X179343483Y-38400958D01*
X179623502Y-38725364D01*
X179625891Y-38728218D01*
X179955690Y-39134340D01*
X180222700Y-39471222D01*
X180224927Y-39474118D01*
X180536949Y-39892566D01*
X180790338Y-40241326D01*
X180792403Y-40244257D01*
X181086307Y-40674425D01*
X181325445Y-41034358D01*
X181327349Y-41037314D01*
X181602759Y-41478511D01*
X181827091Y-41848927D01*
X181828836Y-41851901D01*
X182085382Y-42303405D01*
X182294490Y-42683771D01*
X182296027Y-42686661D01*
X182533387Y-43147784D01*
X182726658Y-43537126D01*
X182728090Y-43540111D01*
X182945920Y-44010063D01*
X183123009Y-44407814D01*
X183124289Y-44410792D01*
X183322298Y-44888829D01*
X183482778Y-45294153D01*
X183483908Y-45297119D01*
X183661859Y-45782562D01*
X183805389Y-46194727D01*
X183806373Y-46197672D01*
X183963984Y-46689659D01*
X184090252Y-47107880D01*
X184091094Y-47110797D01*
X184228162Y-47608599D01*
X184336884Y-48032043D01*
X184337587Y-48034925D01*
X184453917Y-48537747D01*
X184544883Y-48965709D01*
X184545452Y-48968551D01*
X184640857Y-49475504D01*
X184713872Y-49907191D01*
X184714312Y-49909987D01*
X184788661Y-50420288D01*
X184843559Y-50854852D01*
X184843874Y-50857595D01*
X184897060Y-51370419D01*
X184933725Y-51807049D01*
X184933921Y-51809734D01*
X184965789Y-52323036D01*
X184965918Y-52325527D01*
X184984218Y-52762151D01*
X184984301Y-52764781D01*
X184994930Y-53278918D01*
X184994956Y-53281481D01*
X184994956Y-53718517D01*
X184994930Y-53721080D01*
X184984301Y-54235217D01*
X184984218Y-54237847D01*
X184965918Y-54674471D01*
X184965789Y-54676962D01*
X184933921Y-55190260D01*
X184933724Y-55192952D01*
X184897060Y-55629580D01*
X184843874Y-56142402D01*
X184843558Y-56145146D01*
X184788661Y-56579711D01*
X184747764Y-56860414D01*
X184716595Y-57074349D01*
X184714319Y-57089968D01*
X184713879Y-57092764D01*
X184661583Y-57401959D01*
X184642365Y-57515587D01*
X184640861Y-57524477D01*
X184545452Y-58031447D01*
X184544882Y-58034290D01*
X184453917Y-58462252D01*
X184337587Y-58965073D01*
X184336883Y-58967955D01*
X184228162Y-59391400D01*
X184091094Y-59889201D01*
X184090252Y-59892118D01*
X183963984Y-60310340D01*
X183806373Y-60802326D01*
X183805389Y-60805271D01*
X183661859Y-61217437D01*
X183483909Y-61702879D01*
X183482778Y-61705845D01*
X183322298Y-62111170D01*
X183124290Y-62589205D01*
X183123010Y-62592184D01*
X182945920Y-62989936D01*
X182728090Y-63459888D01*
X182726657Y-63462873D01*
X182533387Y-63852215D01*
X182296038Y-64313317D01*
X182294450Y-64316300D01*
X182085388Y-64696584D01*
X181828835Y-65148098D01*
X181827090Y-65151071D01*
X181602759Y-65521488D01*
X181327350Y-65962684D01*
X181325445Y-65965640D01*
X181086307Y-66325573D01*
X180792403Y-66755741D01*
X180790338Y-66758672D01*
X180536949Y-67107433D01*
X180224927Y-67525880D01*
X180222700Y-67528776D01*
X179955691Y-67865659D01*
X179625892Y-68271781D01*
X179623502Y-68274635D01*
X179343483Y-68599041D01*
X178996387Y-68992088D01*
X178993834Y-68994891D01*
X178701468Y-69306230D01*
X178337430Y-69685633D01*
X178334715Y-69688375D01*
X178030761Y-69986030D01*
X177650233Y-70351146D01*
X177647356Y-70353820D01*
X177332538Y-70637284D01*
X176935900Y-70987549D01*
X176932863Y-70990145D01*
X176608189Y-71258740D01*
X176195723Y-71593692D01*
X176192525Y-71596203D01*
X175858846Y-71849479D01*
X175430978Y-72168525D01*
X175427624Y-72170940D01*
X175085941Y-72408416D01*
X174642929Y-72711095D01*
X174639419Y-72713407D01*
X174290920Y-72934571D01*
X173833048Y-73220388D01*
X173829387Y-73222586D01*
X173475192Y-73427082D01*
X173002661Y-73695574D01*
X172998852Y-73697651D01*
X172640331Y-73885081D01*
X172153256Y-74135799D01*
X172149303Y-74137745D01*
X171788126Y-74307703D01*
X171286217Y-74540346D01*
X171282123Y-74542155D01*
X170920206Y-74694292D01*
X170403103Y-74908481D01*
X170398874Y-74910143D01*
X170038580Y-75044136D01*
X169589025Y-75208931D01*
X169519306Y-75213523D01*
X169458173Y-75179692D01*
X169425034Y-75118181D01*
X169430411Y-75048519D01*
X169444769Y-75021387D01*
X169455777Y-75005668D01*
X169488123Y-74893254D01*
X169486068Y-74824432D01*
X169486068Y-74824428D01*
X169335599Y-73971079D01*
X169323999Y-73935982D01*
X169313991Y-73905702D01*
X169313703Y-73905307D01*
X169245148Y-73811130D01*
X169149326Y-73744035D01*
X169101737Y-73730342D01*
X169036911Y-73711689D01*
X169036910Y-73711689D01*
X168968086Y-73713743D01*
X167917771Y-73898942D01*
X167852399Y-73920549D01*
X167800877Y-73958055D01*
X167757826Y-73989394D01*
X167705806Y-74063687D01*
X167690731Y-74085216D01*
X167658385Y-74197630D01*
X167660439Y-74266455D01*
X167810908Y-75119804D01*
X167832517Y-75185183D01*
X167901359Y-75279753D01*
X167901360Y-75279754D01*
X167997182Y-75346849D01*
X168109597Y-75379195D01*
X168172762Y-75377308D01*
X168178421Y-75377140D01*
X168327826Y-75350796D01*
X168397265Y-75358540D01*
X168451494Y-75402597D01*
X168473296Y-75468978D01*
X168455748Y-75536608D01*
X168404422Y-75584015D01*
X168382704Y-75592344D01*
X168243065Y-75631332D01*
X167672663Y-75788390D01*
X167668061Y-75789563D01*
X167335373Y-75867595D01*
X166740763Y-76005159D01*
X166736049Y-76006154D01*
X166426655Y-76065174D01*
X165800625Y-76182987D01*
X165795807Y-76183796D01*
X165525935Y-76223648D01*
X164853904Y-76321560D01*
X164848988Y-76322177D01*
X164653526Y-76342721D01*
X163902198Y-76420642D01*
X163897196Y-76421059D01*
X163881534Y-76422044D01*
X163878830Y-76422214D01*
X162953017Y-76479693D01*
X162947896Y-76479905D01*
X162354166Y-76492178D01*
X162286734Y-76473883D01*
X162239897Y-76422036D01*
X162228527Y-76353097D01*
X162250028Y-76297082D01*
X162266681Y-76273300D01*
X162299027Y-76160886D01*
X162296972Y-76092064D01*
X162296972Y-76092060D01*
X162146503Y-75238711D01*
X162136660Y-75208931D01*
X162124895Y-75173334D01*
X162122710Y-75170333D01*
X162056052Y-75078762D01*
X161960230Y-75011667D01*
X161939381Y-75005668D01*
X161847815Y-74979321D01*
X161847814Y-74979321D01*
X161778990Y-74981375D01*
X160728675Y-75166574D01*
X160663303Y-75188181D01*
X160617356Y-75221629D01*
X160568730Y-75257026D01*
X160530364Y-75311819D01*
X160501635Y-75352848D01*
X160469289Y-75465262D01*
X160471343Y-75534087D01*
X160615911Y-76353968D01*
X160608167Y-76423407D01*
X160564110Y-76477636D01*
X160497729Y-76499438D01*
X160493795Y-76499500D01*
X135719655Y-76499500D01*
X135652616Y-76479815D01*
X135606861Y-76427011D01*
X135596917Y-76357853D01*
X135596951Y-76357622D01*
X135600500Y-76333263D01*
X135600500Y-75466742D01*
X135600284Y-75465262D01*
X135593307Y-75417377D01*
X135603122Y-75348200D01*
X135648778Y-75295310D01*
X135715781Y-75275500D01*
X135962771Y-75275500D01*
X136029810Y-75295185D01*
X136050452Y-75311819D01*
X136129110Y-75390477D01*
X136272310Y-75480456D01*
X136431941Y-75536313D01*
X136543980Y-75548936D01*
X136599999Y-75555249D01*
X136599999Y-75555248D01*
X136600000Y-75555249D01*
X136768059Y-75536313D01*
X136927690Y-75480456D01*
X137070890Y-75390477D01*
X137149547Y-75311819D01*
X137210871Y-75278334D01*
X137237229Y-75275500D01*
X157035541Y-75275500D01*
X157061899Y-75278333D01*
X157065729Y-75279167D01*
X157112575Y-75275815D01*
X157121422Y-75275500D01*
X157134011Y-75275500D01*
X157146485Y-75273706D01*
X157155269Y-75272761D01*
X157202115Y-75269411D01*
X157204488Y-75268525D01*
X157205778Y-75268045D01*
X157231465Y-75261488D01*
X157235342Y-75260931D01*
X157278072Y-75241415D01*
X157286207Y-75238045D01*
X157330226Y-75221629D01*
X157333361Y-75219281D01*
X157356153Y-75205757D01*
X157359718Y-75204130D01*
X157395203Y-75173380D01*
X157402084Y-75167835D01*
X157412180Y-75160279D01*
X157413033Y-75159426D01*
X157421083Y-75151376D01*
X157427566Y-75145340D01*
X157463052Y-75114592D01*
X157463052Y-75114591D01*
X157463055Y-75114589D01*
X157465173Y-75111292D01*
X157481806Y-75090652D01*
X161160639Y-71411819D01*
X161221963Y-71378334D01*
X161248321Y-71375500D01*
X162325951Y-71375500D01*
X162392990Y-71395185D01*
X162438745Y-71447989D01*
X162448689Y-71517147D01*
X162419664Y-71580703D01*
X162360886Y-71618477D01*
X162347483Y-71621616D01*
X161697717Y-71736186D01*
X161632346Y-71757793D01*
X161537770Y-71826639D01*
X161470674Y-71922460D01*
X161438330Y-72034871D01*
X161440384Y-72103698D01*
X161538253Y-72658739D01*
X161530509Y-72728178D01*
X161486452Y-72782407D01*
X161420071Y-72804209D01*
X161419838Y-72804216D01*
X161395227Y-72804950D01*
X160344912Y-72990149D01*
X160279540Y-73011756D01*
X160231825Y-73046491D01*
X160184967Y-73080601D01*
X160139847Y-73145040D01*
X160117872Y-73176423D01*
X160085526Y-73288837D01*
X160087580Y-73357662D01*
X160238049Y-74211011D01*
X160259658Y-74276390D01*
X160328500Y-74370960D01*
X160328501Y-74370961D01*
X160424323Y-74438056D01*
X160536738Y-74470402D01*
X160599903Y-74468515D01*
X160605562Y-74468347D01*
X161655877Y-74283148D01*
X161721249Y-74261541D01*
X161721249Y-74261540D01*
X161721251Y-74261540D01*
X161815823Y-74192697D01*
X161882918Y-74096875D01*
X161912242Y-73994961D01*
X161949695Y-73935982D01*
X162013092Y-73906612D01*
X162027691Y-73905308D01*
X162079917Y-73903749D01*
X162378166Y-73851160D01*
X162577322Y-73816044D01*
X162646761Y-73823788D01*
X162700990Y-73867845D01*
X162722792Y-73934226D01*
X162708650Y-73995786D01*
X162650691Y-74106215D01*
X162609981Y-74271386D01*
X162609981Y-74441497D01*
X162650690Y-74606666D01*
X162697200Y-74695282D01*
X162729747Y-74757294D01*
X162789226Y-74824432D01*
X162842553Y-74884626D01*
X162912551Y-74932942D01*
X162982551Y-74981260D01*
X163141609Y-75041582D01*
X163268109Y-75056942D01*
X163271858Y-75056942D01*
X163349104Y-75056942D01*
X163352853Y-75056942D01*
X163479353Y-75041582D01*
X163638411Y-74981260D01*
X163778410Y-74884625D01*
X163891215Y-74757294D01*
X163970271Y-74606667D01*
X164010981Y-74441498D01*
X164010981Y-74271386D01*
X163970271Y-74106217D01*
X163891215Y-73955590D01*
X163778410Y-73828259D01*
X163778409Y-73828258D01*
X163778407Y-73828256D01*
X163768648Y-73821520D01*
X163724659Y-73767236D01*
X163717002Y-73697787D01*
X163748107Y-73635223D01*
X163808099Y-73599408D01*
X163817552Y-73597357D01*
X164312003Y-73510173D01*
X164377377Y-73488565D01*
X164471950Y-73419722D01*
X164539045Y-73323900D01*
X164539044Y-73323900D01*
X164539046Y-73323899D01*
X164571390Y-73211488D01*
X164569336Y-73142661D01*
X164297313Y-71599946D01*
X164290445Y-71579166D01*
X164275705Y-71534569D01*
X164206862Y-71439997D01*
X164206860Y-71439996D01*
X164206860Y-71439995D01*
X164111039Y-71372900D01*
X163998627Y-71340556D01*
X163998625Y-71340556D01*
X163990456Y-71340799D01*
X163969015Y-71341440D01*
X163901418Y-71323764D01*
X163877634Y-71305176D01*
X163181808Y-70609349D01*
X163165174Y-70588708D01*
X163163055Y-70585411D01*
X163127565Y-70554659D01*
X163121086Y-70548627D01*
X163112180Y-70539721D01*
X163102093Y-70532170D01*
X163095214Y-70526627D01*
X163059718Y-70495870D01*
X163059716Y-70495869D01*
X163056150Y-70494240D01*
X163033369Y-70480722D01*
X163030231Y-70478373D01*
X162986223Y-70461959D01*
X162978045Y-70458571D01*
X162975798Y-70457545D01*
X162950797Y-70446127D01*
X162935343Y-70439069D01*
X162934654Y-70438970D01*
X162931458Y-70438510D01*
X162905781Y-70431956D01*
X162902115Y-70430588D01*
X162855275Y-70427237D01*
X162846491Y-70426293D01*
X162834012Y-70424500D01*
X162834011Y-70424500D01*
X162821422Y-70424500D01*
X162812575Y-70424184D01*
X162765729Y-70420833D01*
X162765728Y-70420833D01*
X162761900Y-70421666D01*
X162735541Y-70424500D01*
X161064459Y-70424500D01*
X161038100Y-70421666D01*
X161034271Y-70420833D01*
X161002901Y-70423077D01*
X160987425Y-70424184D01*
X160978578Y-70424500D01*
X160965988Y-70424500D01*
X160953509Y-70426293D01*
X160944725Y-70427237D01*
X160897883Y-70430589D01*
X160894212Y-70431958D01*
X160868535Y-70438511D01*
X160864657Y-70439068D01*
X160821944Y-70458574D01*
X160813770Y-70461960D01*
X160769773Y-70478370D01*
X160766630Y-70480723D01*
X160743857Y-70494235D01*
X160740284Y-70495867D01*
X160704800Y-70526613D01*
X160697921Y-70532158D01*
X160687818Y-70539722D01*
X160678898Y-70548641D01*
X160672429Y-70554663D01*
X160636944Y-70585411D01*
X160634825Y-70588709D01*
X160618194Y-70609345D01*
X156939360Y-74288181D01*
X156878037Y-74321666D01*
X156851679Y-74324500D01*
X151747320Y-74324500D01*
X151680281Y-74304815D01*
X151634526Y-74252011D01*
X151624582Y-74182853D01*
X151653607Y-74119297D01*
X151659619Y-74112839D01*
X151795658Y-73976799D01*
X151816292Y-73960173D01*
X151819589Y-73958055D01*
X151821725Y-73955590D01*
X151850340Y-73922566D01*
X151856376Y-73916083D01*
X151865275Y-73907184D01*
X151865275Y-73907183D01*
X151865279Y-73907180D01*
X151872835Y-73897084D01*
X151878387Y-73890196D01*
X151909130Y-73854718D01*
X151910757Y-73851153D01*
X151924281Y-73828361D01*
X151926629Y-73825226D01*
X151943045Y-73781207D01*
X151946415Y-73773072D01*
X151965931Y-73730342D01*
X151966488Y-73726465D01*
X151973045Y-73700777D01*
X151974160Y-73697787D01*
X151974411Y-73697115D01*
X151977761Y-73650260D01*
X151978703Y-73641503D01*
X151980500Y-73629011D01*
X151980500Y-73616413D01*
X151980816Y-73607566D01*
X151980870Y-73606809D01*
X151984166Y-73560730D01*
X151983334Y-73556905D01*
X151980500Y-73530547D01*
X151980500Y-73429590D01*
X152000185Y-73362551D01*
X152052989Y-73316796D01*
X152122147Y-73306852D01*
X152147642Y-73314704D01*
X152221737Y-73325500D01*
X152221740Y-73325500D01*
X152988263Y-73325500D01*
X153022326Y-73320536D01*
X153056393Y-73315573D01*
X153161483Y-73264198D01*
X153244198Y-73181483D01*
X153244199Y-73181482D01*
X153262015Y-73145040D01*
X153309142Y-73093457D01*
X153373415Y-73075500D01*
X154488263Y-73075500D01*
X154522326Y-73070536D01*
X154556393Y-73065573D01*
X154661483Y-73014198D01*
X154744198Y-72931483D01*
X154795573Y-72826393D01*
X154801917Y-72782853D01*
X154805500Y-72758263D01*
X154805500Y-71191736D01*
X154795573Y-71123609D01*
X154795573Y-71123607D01*
X154744198Y-71018517D01*
X154744197Y-71018516D01*
X154744197Y-71018515D01*
X154661484Y-70935802D01*
X154592904Y-70902276D01*
X154556393Y-70884427D01*
X154556391Y-70884426D01*
X154556390Y-70884426D01*
X154488263Y-70874500D01*
X154488260Y-70874500D01*
X153121740Y-70874500D01*
X153121738Y-70874500D01*
X153072879Y-70881619D01*
X153037121Y-70881619D01*
X152988262Y-70874500D01*
X152988260Y-70874500D01*
X152221740Y-70874500D01*
X152221737Y-70874500D01*
X152153605Y-70884426D01*
X152109458Y-70906008D01*
X152040585Y-70917766D01*
X152000542Y-70906008D01*
X151956394Y-70884426D01*
X151888263Y-70874500D01*
X151888260Y-70874500D01*
X151162396Y-70874500D01*
X151095357Y-70854815D01*
X151088085Y-70849767D01*
X150997089Y-70781647D01*
X150862371Y-70731400D01*
X150806132Y-70725354D01*
X150799518Y-70725000D01*
X150655000Y-70725000D01*
X150655000Y-73475000D01*
X150655756Y-73475756D01*
X150720218Y-73494685D01*
X150765973Y-73547489D01*
X150775917Y-73616647D01*
X150746892Y-73680203D01*
X150740860Y-73686681D01*
X150589360Y-73838181D01*
X150528037Y-73871666D01*
X150501679Y-73874500D01*
X147427320Y-73874500D01*
X147360281Y-73854815D01*
X147314526Y-73802011D01*
X147304582Y-73732853D01*
X147333607Y-73669297D01*
X147339638Y-73662820D01*
X147367235Y-73635223D01*
X147395653Y-73606804D01*
X147416292Y-73590173D01*
X147419589Y-73588055D01*
X147419592Y-73588052D01*
X147450340Y-73552566D01*
X147456376Y-73546083D01*
X147465275Y-73537184D01*
X147465275Y-73537183D01*
X147465279Y-73537180D01*
X147472835Y-73527084D01*
X147478387Y-73520196D01*
X147509130Y-73484718D01*
X147510757Y-73481153D01*
X147524281Y-73458361D01*
X147526629Y-73455226D01*
X147543045Y-73411207D01*
X147546420Y-73403062D01*
X147564015Y-73364536D01*
X147609770Y-73311735D01*
X147676810Y-73292052D01*
X147731267Y-73304651D01*
X147753607Y-73315573D01*
X147762001Y-73316796D01*
X147821737Y-73325500D01*
X147821740Y-73325500D01*
X148588263Y-73325500D01*
X148629139Y-73319543D01*
X148656393Y-73315573D01*
X148700540Y-73293990D01*
X148769412Y-73282231D01*
X148809459Y-73293990D01*
X148853607Y-73315573D01*
X148862001Y-73316796D01*
X148921737Y-73325500D01*
X149647604Y-73325500D01*
X149714643Y-73345185D01*
X149721915Y-73350233D01*
X149812910Y-73418352D01*
X149947628Y-73468599D01*
X150003867Y-73474645D01*
X150010482Y-73475000D01*
X150155000Y-73475000D01*
X150155000Y-70768819D01*
X150174685Y-70701780D01*
X150191319Y-70681138D01*
X150458357Y-70414100D01*
X150519678Y-70380617D01*
X150547958Y-70380617D01*
X150547945Y-70380439D01*
X150565728Y-70379166D01*
X150565729Y-70379167D01*
X150612575Y-70375815D01*
X150621422Y-70375500D01*
X150634011Y-70375500D01*
X150646485Y-70373706D01*
X150655269Y-70372761D01*
X150702115Y-70369411D01*
X150704488Y-70368525D01*
X150705778Y-70368045D01*
X150731465Y-70361488D01*
X150735342Y-70360931D01*
X150778072Y-70341415D01*
X150786207Y-70338045D01*
X150830226Y-70321629D01*
X150833361Y-70319281D01*
X150856153Y-70305757D01*
X150859718Y-70304130D01*
X150895203Y-70273380D01*
X150902084Y-70267835D01*
X150912180Y-70260279D01*
X150917210Y-70255249D01*
X150921083Y-70251376D01*
X150927566Y-70245340D01*
X150963052Y-70214592D01*
X150963052Y-70214591D01*
X150963055Y-70214589D01*
X150965173Y-70211292D01*
X150981803Y-70190654D01*
X151602457Y-69570000D01*
X155299364Y-69570000D01*
X155356569Y-69783492D01*
X155456399Y-69997576D01*
X155591893Y-70191081D01*
X155758918Y-70358106D01*
X155867198Y-70433925D01*
X155910822Y-70488502D01*
X155918015Y-70558001D01*
X155886493Y-70620355D01*
X155826263Y-70655769D01*
X155796074Y-70659500D01*
X155746737Y-70659500D01*
X155678609Y-70669426D01*
X155573515Y-70720802D01*
X155490802Y-70803515D01*
X155439426Y-70908609D01*
X155429500Y-70976736D01*
X155429500Y-72743263D01*
X155439426Y-72811390D01*
X155439426Y-72811391D01*
X155439427Y-72811393D01*
X155450017Y-72833055D01*
X155490802Y-72916484D01*
X155573515Y-72999197D01*
X155573516Y-72999197D01*
X155573517Y-72999198D01*
X155678607Y-73050573D01*
X155705860Y-73054543D01*
X155746737Y-73060500D01*
X155746740Y-73060500D01*
X157513263Y-73060500D01*
X157549121Y-73055275D01*
X157581393Y-73050573D01*
X157686483Y-72999198D01*
X157769198Y-72916483D01*
X157820573Y-72811393D01*
X157828314Y-72758263D01*
X157830500Y-72743263D01*
X157830500Y-71693321D01*
X157850185Y-71626282D01*
X157866819Y-71605640D01*
X159360640Y-70111819D01*
X159421963Y-70078334D01*
X159448321Y-70075500D01*
X164077569Y-70075500D01*
X164144608Y-70095185D01*
X164165250Y-70111819D01*
X165950621Y-71897190D01*
X165984106Y-71958513D01*
X165985056Y-71963339D01*
X166144042Y-72864997D01*
X166165651Y-72930376D01*
X166182916Y-72954093D01*
X166206455Y-73019878D01*
X166190692Y-73087946D01*
X166140630Y-73136686D01*
X166097615Y-73150164D01*
X166096036Y-73150355D01*
X165936974Y-73210679D01*
X165796977Y-73307312D01*
X165684170Y-73434646D01*
X165605114Y-73585272D01*
X165564405Y-73750441D01*
X165564405Y-73920552D01*
X165605114Y-74085721D01*
X165670091Y-74209523D01*
X165684171Y-74236349D01*
X165759755Y-74321666D01*
X165796977Y-74363681D01*
X165848360Y-74399148D01*
X165936975Y-74460315D01*
X166096033Y-74520637D01*
X166222533Y-74535997D01*
X166226282Y-74535997D01*
X166303528Y-74535997D01*
X166307277Y-74535997D01*
X166433777Y-74520637D01*
X166592835Y-74460315D01*
X166732834Y-74363680D01*
X166845639Y-74236349D01*
X166924695Y-74085722D01*
X166965405Y-73920553D01*
X166965405Y-73750441D01*
X166924695Y-73585272D01*
X166845639Y-73434645D01*
X166732834Y-73307314D01*
X166723074Y-73300577D01*
X166679085Y-73246293D01*
X166671427Y-73176844D01*
X166702531Y-73114280D01*
X166762523Y-73078464D01*
X166771981Y-73076412D01*
X167105560Y-73017594D01*
X167266422Y-72989230D01*
X167266422Y-72989229D01*
X167266427Y-72989229D01*
X167316023Y-72972835D01*
X167385850Y-72970486D01*
X167445866Y-73006262D01*
X167455186Y-73017592D01*
X167476223Y-73046491D01*
X167503174Y-73083515D01*
X167517598Y-73103329D01*
X167613420Y-73170424D01*
X167725835Y-73202770D01*
X167789000Y-73200883D01*
X167794659Y-73200715D01*
X168844974Y-73015516D01*
X168910346Y-72993909D01*
X168910346Y-72993908D01*
X168910348Y-72993908D01*
X169004920Y-72925065D01*
X169072015Y-72829243D01*
X169104361Y-72716829D01*
X169102306Y-72648007D01*
X169102306Y-72648003D01*
X168951837Y-71794654D01*
X168940539Y-71760470D01*
X168930229Y-71729277D01*
X168925308Y-71722517D01*
X168861386Y-71634705D01*
X168765564Y-71567610D01*
X168742077Y-71560852D01*
X168653149Y-71535264D01*
X168653148Y-71535264D01*
X168584324Y-71537318D01*
X167534010Y-71722517D01*
X167510633Y-71730244D01*
X167440803Y-71732592D01*
X167380789Y-71696814D01*
X167349645Y-71634273D01*
X167276000Y-71216607D01*
X167251737Y-71079002D01*
X167251600Y-71078588D01*
X167230129Y-71013625D01*
X167161286Y-70919053D01*
X167161284Y-70919052D01*
X167161284Y-70919051D01*
X167065463Y-70851956D01*
X166953051Y-70819612D01*
X166953049Y-70819612D01*
X166949565Y-70819716D01*
X166884224Y-70821666D01*
X166383147Y-70910020D01*
X166313708Y-70902276D01*
X166273934Y-70875585D01*
X165898348Y-70499999D01*
X171494356Y-70499999D01*
X171514891Y-70747816D01*
X171514891Y-70747819D01*
X171514892Y-70747821D01*
X171575937Y-70988881D01*
X171615468Y-71079002D01*
X171675825Y-71216604D01*
X171675827Y-71216607D01*
X171811836Y-71424785D01*
X171980256Y-71607738D01*
X172008337Y-71629594D01*
X172176485Y-71760470D01*
X172176487Y-71760471D01*
X172176491Y-71760474D01*
X172395190Y-71878828D01*
X172630386Y-71959571D01*
X172875665Y-72000500D01*
X173124335Y-72000500D01*
X173369614Y-71959571D01*
X173604810Y-71878828D01*
X173823509Y-71760474D01*
X174019744Y-71607738D01*
X174188164Y-71424785D01*
X174324173Y-71216607D01*
X174424063Y-70988881D01*
X174485108Y-70747821D01*
X174505643Y-70500000D01*
X174485108Y-70252179D01*
X174424063Y-70011119D01*
X174325456Y-69786317D01*
X174324174Y-69783395D01*
X174316928Y-69772304D01*
X174188164Y-69575215D01*
X174019744Y-69392262D01*
X173973417Y-69356204D01*
X173823514Y-69239529D01*
X173823510Y-69239526D01*
X173823509Y-69239526D01*
X173604810Y-69121172D01*
X173604806Y-69121170D01*
X173604805Y-69121170D01*
X173369615Y-69040429D01*
X173124335Y-68999500D01*
X172875665Y-68999500D01*
X172630384Y-69040429D01*
X172395194Y-69121170D01*
X172395190Y-69121171D01*
X172395190Y-69121172D01*
X172326086Y-69158569D01*
X172176485Y-69239529D01*
X171980259Y-69392259D01*
X171980256Y-69392261D01*
X171980256Y-69392262D01*
X171811836Y-69575215D01*
X171801040Y-69591740D01*
X171675825Y-69783395D01*
X171593208Y-69971745D01*
X171575937Y-70011119D01*
X171537026Y-70164774D01*
X171514891Y-70252183D01*
X171494356Y-70499999D01*
X165898348Y-70499999D01*
X164707698Y-69309349D01*
X164691064Y-69288708D01*
X164688945Y-69285411D01*
X164653455Y-69254659D01*
X164646976Y-69248627D01*
X164638070Y-69239721D01*
X164627983Y-69232170D01*
X164621104Y-69226627D01*
X164585608Y-69195870D01*
X164585606Y-69195869D01*
X164582040Y-69194240D01*
X164559259Y-69180722D01*
X164556121Y-69178373D01*
X164539865Y-69172310D01*
X164512103Y-69161955D01*
X164503935Y-69158571D01*
X164461233Y-69139069D01*
X164460544Y-69138970D01*
X164457348Y-69138510D01*
X164431671Y-69131956D01*
X164428005Y-69130588D01*
X164381165Y-69127237D01*
X164372381Y-69126293D01*
X164359902Y-69124500D01*
X164359901Y-69124500D01*
X164347312Y-69124500D01*
X164338465Y-69124184D01*
X164291619Y-69120833D01*
X164291618Y-69120833D01*
X164287790Y-69121666D01*
X164261431Y-69124500D01*
X159264459Y-69124500D01*
X159238100Y-69121666D01*
X159235829Y-69121172D01*
X159234271Y-69120833D01*
X159234270Y-69120833D01*
X159187421Y-69124184D01*
X159178574Y-69124500D01*
X159165989Y-69124500D01*
X159153520Y-69126292D01*
X159144728Y-69127237D01*
X159097886Y-69130588D01*
X159094210Y-69131959D01*
X159068540Y-69138510D01*
X159064658Y-69139069D01*
X159021947Y-69158574D01*
X159013784Y-69161955D01*
X158969772Y-69178370D01*
X158966630Y-69180723D01*
X158943857Y-69194235D01*
X158940284Y-69195867D01*
X158904800Y-69226613D01*
X158897921Y-69232158D01*
X158887818Y-69239722D01*
X158878898Y-69248641D01*
X158872429Y-69254663D01*
X158836944Y-69285411D01*
X158834823Y-69288712D01*
X158818193Y-69309346D01*
X158015709Y-70111831D01*
X157954386Y-70145316D01*
X157884695Y-70140332D01*
X157828761Y-70098460D01*
X157804344Y-70032996D01*
X157815646Y-69971745D01*
X157903430Y-69783492D01*
X157960636Y-69570000D01*
X157063686Y-69570000D01*
X157089493Y-69529844D01*
X157130000Y-69391889D01*
X157130000Y-69248111D01*
X157089493Y-69110156D01*
X157063686Y-69070000D01*
X157960636Y-69070000D01*
X157960635Y-69069999D01*
X157903430Y-68856507D01*
X157803599Y-68642421D01*
X157668109Y-68448921D01*
X157501081Y-68281893D01*
X157307576Y-68146398D01*
X157171079Y-68082748D01*
X157118640Y-68036575D01*
X157099488Y-67969381D01*
X157119704Y-67902500D01*
X157158207Y-67864939D01*
X157167398Y-67859248D01*
X157167401Y-67859247D01*
X157356562Y-67742124D01*
X157520981Y-67592236D01*
X157655058Y-67414689D01*
X157754229Y-67215528D01*
X157755723Y-67210279D01*
X157784985Y-67107433D01*
X157815115Y-67001536D01*
X157835643Y-66780000D01*
X157815115Y-66558464D01*
X157772960Y-66410305D01*
X157754230Y-66344473D01*
X157655058Y-66145311D01*
X157520980Y-65967762D01*
X157356562Y-65817875D01*
X157167404Y-65700754D01*
X157110212Y-65678598D01*
X156973475Y-65625625D01*
X156918076Y-65583054D01*
X156894485Y-65517287D01*
X156910196Y-65449207D01*
X156960220Y-65400428D01*
X156973466Y-65394377D01*
X157167401Y-65319247D01*
X157356562Y-65202124D01*
X157417452Y-65146615D01*
X157520980Y-65052237D01*
X157520981Y-65052236D01*
X157655058Y-64874689D01*
X157754229Y-64675528D01*
X157754305Y-64675263D01*
X157780709Y-64582461D01*
X157815115Y-64461536D01*
X157835643Y-64240000D01*
X157815115Y-64018464D01*
X157782215Y-63902833D01*
X157754230Y-63804473D01*
X157655058Y-63605311D01*
X157520980Y-63427762D01*
X157356562Y-63277875D01*
X157167404Y-63160754D01*
X157132007Y-63147041D01*
X156973475Y-63085625D01*
X156918076Y-63043054D01*
X156894485Y-62977287D01*
X156910196Y-62909207D01*
X156960220Y-62860428D01*
X156973466Y-62854377D01*
X157167401Y-62779247D01*
X157356562Y-62662124D01*
X157520981Y-62512236D01*
X157655058Y-62334689D01*
X157754229Y-62135528D01*
X157756340Y-62128111D01*
X157797888Y-61982081D01*
X157815115Y-61921536D01*
X157835643Y-61700000D01*
X157815115Y-61478464D01*
X157772970Y-61330340D01*
X157754230Y-61264473D01*
X157655058Y-61065311D01*
X157520980Y-60887762D01*
X157356562Y-60737875D01*
X157167404Y-60620754D01*
X157074038Y-60584584D01*
X156959940Y-60540382D01*
X156741243Y-60499500D01*
X156518757Y-60499500D01*
X156302344Y-60539955D01*
X156300060Y-60540382D01*
X156092595Y-60620754D01*
X155903437Y-60737875D01*
X155739019Y-60887762D01*
X155604941Y-61065311D01*
X155505769Y-61264473D01*
X155444885Y-61478462D01*
X155424357Y-61700000D01*
X155444885Y-61921537D01*
X155505769Y-62135526D01*
X155604941Y-62334688D01*
X155739019Y-62512237D01*
X155903437Y-62662124D01*
X156024138Y-62736858D01*
X156092599Y-62779247D01*
X156286522Y-62854373D01*
X156341924Y-62896946D01*
X156365514Y-62962713D01*
X156349803Y-63030793D01*
X156299779Y-63079572D01*
X156286526Y-63085624D01*
X156236003Y-63105198D01*
X156092596Y-63160754D01*
X155903437Y-63277875D01*
X155739019Y-63427762D01*
X155604941Y-63605311D01*
X155505769Y-63804473D01*
X155444885Y-64018462D01*
X155424656Y-64236771D01*
X155424357Y-64240000D01*
X155431151Y-64313317D01*
X155444885Y-64461537D01*
X155505769Y-64675526D01*
X155604941Y-64874688D01*
X155739019Y-65052237D01*
X155903437Y-65202124D01*
X156045276Y-65289946D01*
X156092599Y-65319247D01*
X156286522Y-65394373D01*
X156341924Y-65436946D01*
X156365514Y-65502713D01*
X156349803Y-65570793D01*
X156299779Y-65619572D01*
X156286526Y-65625624D01*
X156199181Y-65659463D01*
X156092596Y-65700754D01*
X155903437Y-65817875D01*
X155739019Y-65967762D01*
X155604941Y-66145311D01*
X155505769Y-66344473D01*
X155444885Y-66558462D01*
X155424357Y-66780000D01*
X155444885Y-67001537D01*
X155505769Y-67215526D01*
X155604941Y-67414688D01*
X155739019Y-67592237D01*
X155903437Y-67742124D01*
X156101793Y-67864940D01*
X156148429Y-67916968D01*
X156159533Y-67985949D01*
X156131580Y-68049984D01*
X156088921Y-68082749D01*
X155952421Y-68146400D01*
X155758921Y-68281890D01*
X155591890Y-68448921D01*
X155456400Y-68642421D01*
X155356569Y-68856507D01*
X155299364Y-69069999D01*
X155299364Y-69070000D01*
X156196314Y-69070000D01*
X156170507Y-69110156D01*
X156130000Y-69248111D01*
X156130000Y-69391889D01*
X156170507Y-69529844D01*
X156196314Y-69570000D01*
X155299364Y-69570000D01*
X151602457Y-69570000D01*
X153490650Y-67681806D01*
X153511286Y-67665176D01*
X153514589Y-67663055D01*
X153527710Y-67647910D01*
X153545346Y-67627559D01*
X153551382Y-67621076D01*
X153560273Y-67612185D01*
X153560273Y-67612184D01*
X153560278Y-67612180D01*
X153567835Y-67602084D01*
X153573373Y-67595213D01*
X153575953Y-67592236D01*
X153604130Y-67559718D01*
X153605755Y-67556157D01*
X153619284Y-67533355D01*
X153621628Y-67530226D01*
X153638039Y-67486225D01*
X153641423Y-67478057D01*
X153643320Y-67473903D01*
X153660931Y-67435342D01*
X153661487Y-67431471D01*
X153668044Y-67405776D01*
X153669411Y-67402115D01*
X153672761Y-67355260D01*
X153673703Y-67346503D01*
X153675500Y-67334011D01*
X153675500Y-67321413D01*
X153675816Y-67312566D01*
X153679166Y-67265729D01*
X153678334Y-67261905D01*
X153675500Y-67235547D01*
X153675500Y-65599500D01*
X153695185Y-65532461D01*
X153747989Y-65486706D01*
X153799500Y-65475500D01*
X154488263Y-65475500D01*
X154522326Y-65470536D01*
X154556393Y-65465573D01*
X154661483Y-65414198D01*
X154744198Y-65331483D01*
X154795573Y-65226393D01*
X154805027Y-65161508D01*
X154805500Y-65158263D01*
X154805500Y-63782395D01*
X154825185Y-63715356D01*
X154830234Y-63708084D01*
X154898351Y-63617091D01*
X154948599Y-63482371D01*
X154954645Y-63426132D01*
X154955000Y-63419518D01*
X154955000Y-63125000D01*
X152505000Y-63125000D01*
X152505000Y-63419518D01*
X152505354Y-63426132D01*
X152511400Y-63482373D01*
X152550014Y-63585900D01*
X152554998Y-63655591D01*
X152521513Y-63716914D01*
X152460190Y-63750399D01*
X152390498Y-63745415D01*
X152346151Y-63716914D01*
X152111819Y-63482582D01*
X152078334Y-63421259D01*
X152075500Y-63394901D01*
X152075500Y-62625000D01*
X152505000Y-62625000D01*
X153480000Y-62625000D01*
X153480000Y-61875000D01*
X153980000Y-61875000D01*
X153980000Y-62625000D01*
X154955000Y-62625000D01*
X154955000Y-62330481D01*
X154954645Y-62323867D01*
X154948599Y-62267628D01*
X154898352Y-62132910D01*
X154812188Y-62017811D01*
X154697089Y-61931647D01*
X154562371Y-61881400D01*
X154506132Y-61875354D01*
X154499518Y-61875000D01*
X153980000Y-61875000D01*
X153480000Y-61875000D01*
X152960482Y-61875000D01*
X152953867Y-61875354D01*
X152897628Y-61881400D01*
X152762910Y-61931647D01*
X152647811Y-62017811D01*
X152561647Y-62132910D01*
X152511400Y-62267628D01*
X152505354Y-62323867D01*
X152505000Y-62330481D01*
X152505000Y-62625000D01*
X152075500Y-62625000D01*
X152075500Y-61964453D01*
X152078334Y-61938094D01*
X152079166Y-61934269D01*
X152075816Y-61887432D01*
X152075500Y-61878586D01*
X152075500Y-61865990D01*
X152074711Y-61860502D01*
X152073705Y-61853511D01*
X152072760Y-61844716D01*
X152069411Y-61797885D01*
X152068042Y-61794216D01*
X152061488Y-61768534D01*
X152060931Y-61764658D01*
X152041416Y-61721926D01*
X152038038Y-61713771D01*
X152021627Y-61669771D01*
X152019285Y-61666643D01*
X152005755Y-61643839D01*
X152004131Y-61640283D01*
X151985444Y-61618717D01*
X151973367Y-61604778D01*
X151967830Y-61597908D01*
X151960278Y-61587820D01*
X151951384Y-61578926D01*
X151945352Y-61572448D01*
X151914588Y-61536944D01*
X151911287Y-61534823D01*
X151890648Y-61518190D01*
X150311819Y-59939360D01*
X150278334Y-59878037D01*
X150275500Y-59851679D01*
X150275500Y-50864458D01*
X150278334Y-50838098D01*
X150279167Y-50834271D01*
X150275816Y-50787424D01*
X150275500Y-50778577D01*
X150275500Y-50765988D01*
X150273707Y-50753521D01*
X150272761Y-50744732D01*
X150269411Y-50697885D01*
X150268042Y-50694215D01*
X150261488Y-50668535D01*
X150260931Y-50664658D01*
X150260929Y-50664653D01*
X150241422Y-50621938D01*
X150238034Y-50613759D01*
X150221629Y-50569774D01*
X150219279Y-50566635D01*
X150205756Y-50543842D01*
X150204130Y-50540282D01*
X150173374Y-50504787D01*
X150167837Y-50497916D01*
X150160279Y-50487820D01*
X150160277Y-50487818D01*
X150160275Y-50487815D01*
X150151373Y-50478914D01*
X150145354Y-50472451D01*
X150114589Y-50436945D01*
X150111291Y-50434825D01*
X150090652Y-50418193D01*
X148781808Y-49109349D01*
X148765174Y-49088708D01*
X148763055Y-49085411D01*
X148727565Y-49054659D01*
X148721086Y-49048627D01*
X148712180Y-49039721D01*
X148702093Y-49032170D01*
X148695214Y-49026627D01*
X148659718Y-48995870D01*
X148659714Y-48995868D01*
X148656150Y-48994240D01*
X148633369Y-48980722D01*
X148630231Y-48978373D01*
X148630126Y-48978334D01*
X148586219Y-48961957D01*
X148578045Y-48958571D01*
X148535343Y-48939069D01*
X148534654Y-48938970D01*
X148531458Y-48938510D01*
X148505781Y-48931956D01*
X148502115Y-48930588D01*
X148455275Y-48927237D01*
X148446491Y-48926293D01*
X148434012Y-48924500D01*
X148434011Y-48924500D01*
X148421422Y-48924500D01*
X148412575Y-48924184D01*
X148365729Y-48920833D01*
X148365728Y-48920833D01*
X148361900Y-48921666D01*
X148335541Y-48924500D01*
X141819454Y-48924500D01*
X141793096Y-48921666D01*
X141789271Y-48920833D01*
X141742434Y-48924184D01*
X141733587Y-48924500D01*
X141720986Y-48924500D01*
X141708519Y-48926292D01*
X141699725Y-48927238D01*
X141652885Y-48930588D01*
X141650006Y-48931662D01*
X141649212Y-48931958D01*
X141623536Y-48938511D01*
X141619658Y-48939068D01*
X141576943Y-48958575D01*
X141568771Y-48961961D01*
X141524770Y-48978373D01*
X141521637Y-48980719D01*
X141498849Y-48994240D01*
X141495284Y-48995868D01*
X141495281Y-48995870D01*
X141495282Y-48995870D01*
X141459798Y-49026616D01*
X141459785Y-49026627D01*
X141452902Y-49032174D01*
X141442817Y-49039724D01*
X141433905Y-49048635D01*
X141427436Y-49054657D01*
X141391945Y-49085410D01*
X141389823Y-49088713D01*
X141373192Y-49109348D01*
X141064347Y-49418193D01*
X141043707Y-49434826D01*
X141040412Y-49436943D01*
X141009663Y-49472429D01*
X141003641Y-49478898D01*
X140994722Y-49487818D01*
X140987158Y-49497921D01*
X140981613Y-49504800D01*
X140950867Y-49540284D01*
X140949235Y-49543857D01*
X140935723Y-49566630D01*
X140933370Y-49569773D01*
X140916960Y-49613770D01*
X140913575Y-49621943D01*
X140906680Y-49637042D01*
X140860926Y-49689848D01*
X140811763Y-49708238D01*
X140803609Y-49709426D01*
X140803606Y-49709427D01*
X140803607Y-49709427D01*
X140774992Y-49723416D01*
X140774460Y-49723676D01*
X140705587Y-49735434D01*
X140665540Y-49723676D01*
X140665538Y-49723675D01*
X140636393Y-49709427D01*
X140636391Y-49709426D01*
X140636390Y-49709426D01*
X140568263Y-49699500D01*
X140568260Y-49699500D01*
X139601740Y-49699500D01*
X139601737Y-49699500D01*
X139533609Y-49709426D01*
X139533606Y-49709427D01*
X139533607Y-49709427D01*
X139504992Y-49723416D01*
X139504460Y-49723676D01*
X139435587Y-49735434D01*
X139395540Y-49723676D01*
X139395538Y-49723675D01*
X139366393Y-49709427D01*
X139366391Y-49709426D01*
X139366390Y-49709426D01*
X139298263Y-49699500D01*
X139298260Y-49699500D01*
X138331740Y-49699500D01*
X138331737Y-49699500D01*
X138263609Y-49709426D01*
X138263606Y-49709427D01*
X138263607Y-49709427D01*
X138234992Y-49723416D01*
X138234460Y-49723676D01*
X138165587Y-49735434D01*
X138125540Y-49723676D01*
X138125538Y-49723675D01*
X138096393Y-49709427D01*
X138096391Y-49709426D01*
X138096390Y-49709426D01*
X138088237Y-49708238D01*
X138024736Y-49679094D01*
X137993321Y-49637047D01*
X137986423Y-49621943D01*
X137983034Y-49613760D01*
X137966629Y-49569773D01*
X137964280Y-49566635D01*
X137950755Y-49543840D01*
X137950639Y-49543588D01*
X137949130Y-49540282D01*
X137918374Y-49504787D01*
X137912837Y-49497916D01*
X137905279Y-49487820D01*
X137905277Y-49487818D01*
X137905275Y-49487815D01*
X137896373Y-49478914D01*
X137890354Y-49472451D01*
X137859589Y-49436945D01*
X137856291Y-49434825D01*
X137835652Y-49418193D01*
X136626808Y-48209349D01*
X136610174Y-48188708D01*
X136608055Y-48185411D01*
X136572565Y-48154659D01*
X136566086Y-48148627D01*
X136557180Y-48139721D01*
X136547093Y-48132170D01*
X136540214Y-48126627D01*
X136504718Y-48095870D01*
X136504716Y-48095869D01*
X136501150Y-48094240D01*
X136478369Y-48080722D01*
X136475231Y-48078373D01*
X136431223Y-48061959D01*
X136423045Y-48058571D01*
X136380343Y-48039069D01*
X136379654Y-48038970D01*
X136376458Y-48038510D01*
X136350781Y-48031956D01*
X136347115Y-48030588D01*
X136300275Y-48027237D01*
X136291491Y-48026293D01*
X136279012Y-48024500D01*
X136279011Y-48024500D01*
X136266422Y-48024500D01*
X136257575Y-48024184D01*
X136210729Y-48020833D01*
X136210728Y-48020833D01*
X136206900Y-48021666D01*
X136180541Y-48024500D01*
X131364458Y-48024500D01*
X131338099Y-48021666D01*
X131334270Y-48020833D01*
X131287425Y-48024184D01*
X131278578Y-48024500D01*
X131265988Y-48024500D01*
X131253509Y-48026293D01*
X131244725Y-48027237D01*
X131197883Y-48030589D01*
X131194212Y-48031958D01*
X131168535Y-48038511D01*
X131164657Y-48039068D01*
X131121944Y-48058574D01*
X131113770Y-48061960D01*
X131087335Y-48071820D01*
X131017643Y-48076805D01*
X130956320Y-48043321D01*
X130922834Y-47981998D01*
X130920000Y-47955639D01*
X130920000Y-34626362D01*
X130939685Y-34559323D01*
X130945000Y-34552727D01*
X130945000Y-33174000D01*
X130964685Y-33106961D01*
X131017489Y-33061206D01*
X131069000Y-33050000D01*
X131321000Y-33050000D01*
X131388039Y-33069685D01*
X131433794Y-33122489D01*
X131445000Y-33174000D01*
X131444999Y-34549999D01*
X131468181Y-34573181D01*
X131501666Y-34634504D01*
X131504500Y-34660862D01*
X131504499Y-35362771D01*
X131484814Y-35429811D01*
X131468181Y-35450452D01*
X131389523Y-35529110D01*
X131299544Y-35672310D01*
X131243686Y-35831943D01*
X131224750Y-36000000D01*
X131243686Y-36168056D01*
X131243686Y-36168058D01*
X131243687Y-36168059D01*
X131299544Y-36327690D01*
X131389523Y-36470890D01*
X131509110Y-36590477D01*
X131652310Y-36680456D01*
X131811941Y-36736313D01*
X131914076Y-36747821D01*
X131979999Y-36755249D01*
X131979999Y-36755248D01*
X131980000Y-36755249D01*
X132148059Y-36736313D01*
X132307690Y-36680456D01*
X132450890Y-36590477D01*
X132570477Y-36470890D01*
X132660456Y-36327690D01*
X132716313Y-36168059D01*
X132735249Y-36000000D01*
X132716313Y-35831941D01*
X132660456Y-35672310D01*
X132570477Y-35529110D01*
X132491817Y-35450451D01*
X132458333Y-35389128D01*
X132455499Y-35362770D01*
X132455499Y-34995185D01*
X132455499Y-34613317D01*
X132475184Y-34546282D01*
X132491819Y-34525639D01*
X132580642Y-34436818D01*
X132641965Y-34403333D01*
X132668322Y-34400500D01*
X132948263Y-34400500D01*
X133016389Y-34390574D01*
X133016390Y-34390573D01*
X133016393Y-34390573D01*
X133045538Y-34376324D01*
X133114408Y-34364564D01*
X133154459Y-34376323D01*
X133183607Y-34390573D01*
X133191754Y-34391760D01*
X133251737Y-34400500D01*
X133251740Y-34400500D01*
X134218263Y-34400500D01*
X134286389Y-34390574D01*
X134286390Y-34390573D01*
X134286393Y-34390573D01*
X134315538Y-34376324D01*
X134384408Y-34364564D01*
X134424459Y-34376323D01*
X134453607Y-34390573D01*
X134461754Y-34391760D01*
X134521737Y-34400500D01*
X134521740Y-34400500D01*
X135488263Y-34400500D01*
X135556389Y-34390574D01*
X135556390Y-34390573D01*
X135556393Y-34390573D01*
X135585540Y-34376323D01*
X135654411Y-34364564D01*
X135694457Y-34376322D01*
X135723607Y-34390573D01*
X135723608Y-34390573D01*
X135723610Y-34390574D01*
X135791737Y-34400500D01*
X135791740Y-34400500D01*
X136758263Y-34400500D01*
X136826389Y-34390574D01*
X136826390Y-34390573D01*
X136826393Y-34390573D01*
X136855540Y-34376323D01*
X136924411Y-34364564D01*
X136964457Y-34376322D01*
X136993607Y-34390573D01*
X136993608Y-34390573D01*
X136993610Y-34390574D01*
X137061737Y-34400500D01*
X137061740Y-34400500D01*
X138028263Y-34400500D01*
X138096389Y-34390574D01*
X138096390Y-34390573D01*
X138096393Y-34390573D01*
X138125540Y-34376323D01*
X138194411Y-34364564D01*
X138234457Y-34376322D01*
X138263607Y-34390573D01*
X138263608Y-34390573D01*
X138263610Y-34390574D01*
X138331737Y-34400500D01*
X138331740Y-34400500D01*
X139298263Y-34400500D01*
X139366389Y-34390574D01*
X139366390Y-34390573D01*
X139366393Y-34390573D01*
X139395540Y-34376323D01*
X139464411Y-34364564D01*
X139504457Y-34376322D01*
X139533607Y-34390573D01*
X139533608Y-34390573D01*
X139533610Y-34390574D01*
X139601737Y-34400500D01*
X139601740Y-34400500D01*
X140568263Y-34400500D01*
X140636389Y-34390574D01*
X140636390Y-34390573D01*
X140636393Y-34390573D01*
X140665540Y-34376323D01*
X140734411Y-34364564D01*
X140774457Y-34376322D01*
X140803607Y-34390573D01*
X140803608Y-34390573D01*
X140803610Y-34390574D01*
X140871737Y-34400500D01*
X140871740Y-34400500D01*
X141838263Y-34400500D01*
X141906389Y-34390574D01*
X141906390Y-34390573D01*
X141906393Y-34390573D01*
X141935540Y-34376323D01*
X142004411Y-34364564D01*
X142044457Y-34376322D01*
X142073607Y-34390573D01*
X142073608Y-34390573D01*
X142073610Y-34390574D01*
X142141737Y-34400500D01*
X142141740Y-34400500D01*
X143108263Y-34400500D01*
X143176389Y-34390574D01*
X143176390Y-34390573D01*
X143176393Y-34390573D01*
X143205540Y-34376323D01*
X143274411Y-34364564D01*
X143314457Y-34376322D01*
X143343607Y-34390573D01*
X143351761Y-34391761D01*
X143415261Y-34420902D01*
X143446678Y-34462953D01*
X143453572Y-34478047D01*
X143456959Y-34486223D01*
X143473373Y-34530231D01*
X143475722Y-34533369D01*
X143489240Y-34556150D01*
X143490869Y-34559716D01*
X143490870Y-34559718D01*
X143521627Y-34595214D01*
X143527170Y-34602093D01*
X143534721Y-34612180D01*
X143543627Y-34621086D01*
X143549659Y-34627565D01*
X143580411Y-34663055D01*
X143583708Y-34665174D01*
X143604349Y-34681808D01*
X144313193Y-35390652D01*
X144329825Y-35411291D01*
X144331945Y-35414589D01*
X144367451Y-35445354D01*
X144373914Y-35451373D01*
X144382815Y-35460275D01*
X144382818Y-35460277D01*
X144382820Y-35460279D01*
X144392916Y-35467837D01*
X144399787Y-35473374D01*
X144435282Y-35504130D01*
X144438842Y-35505756D01*
X144461633Y-35519277D01*
X144464774Y-35521629D01*
X144484832Y-35529110D01*
X144508772Y-35538039D01*
X144516944Y-35541424D01*
X144559658Y-35560931D01*
X144563522Y-35561486D01*
X144589220Y-35568045D01*
X144592885Y-35569412D01*
X144639730Y-35572762D01*
X144648511Y-35573705D01*
X144660989Y-35575500D01*
X144673574Y-35575500D01*
X144682420Y-35575816D01*
X144729271Y-35579167D01*
X144733101Y-35578333D01*
X144759459Y-35575500D01*
X147453196Y-35575500D01*
X147520235Y-35595185D01*
X147565990Y-35647989D01*
X147575934Y-35717147D01*
X147569378Y-35742833D01*
X147556400Y-35777626D01*
X147550354Y-35833867D01*
X147550000Y-35840481D01*
X147550000Y-36085000D01*
X150050000Y-36085000D01*
X150050000Y-35840481D01*
X150049645Y-35833867D01*
X150043599Y-35777626D01*
X150030622Y-35742833D01*
X150025638Y-35673141D01*
X150059123Y-35611818D01*
X150120447Y-35578334D01*
X150146804Y-35575500D01*
X150651679Y-35575500D01*
X150718718Y-35595185D01*
X150739360Y-35611819D01*
X160703423Y-45575882D01*
X160736908Y-45637205D01*
X160731924Y-45706897D01*
X160690052Y-45762830D01*
X160624588Y-45787247D01*
X160574388Y-45777984D01*
X160574142Y-45778905D01*
X160563663Y-45776097D01*
X160514149Y-45762830D01*
X160335407Y-45714936D01*
X160100000Y-45694340D01*
X159864592Y-45714936D01*
X159636336Y-45776097D01*
X159422170Y-45875965D01*
X159228598Y-46011505D01*
X159061505Y-46178598D01*
X158925965Y-46372170D01*
X158826097Y-46586336D01*
X158764936Y-46814592D01*
X158744340Y-47050000D01*
X158764936Y-47285407D01*
X158794172Y-47394517D01*
X158826097Y-47513663D01*
X158925965Y-47727830D01*
X159061505Y-47921401D01*
X159228599Y-48088495D01*
X159422170Y-48224035D01*
X159636337Y-48323903D01*
X159864592Y-48385063D01*
X160099999Y-48405659D01*
X160099999Y-48405658D01*
X160100000Y-48405659D01*
X160335408Y-48385063D01*
X160563663Y-48323903D01*
X160777830Y-48224035D01*
X160971401Y-48088495D01*
X161138495Y-47921401D01*
X161274035Y-47727830D01*
X161373903Y-47513663D01*
X161380725Y-47488201D01*
X161417090Y-47428541D01*
X161479937Y-47398012D01*
X161549312Y-47406307D01*
X161603190Y-47450792D01*
X161624465Y-47517344D01*
X161624500Y-47520295D01*
X161624500Y-49629703D01*
X161604815Y-49696742D01*
X161552011Y-49742497D01*
X161482853Y-49752441D01*
X161419297Y-49723416D01*
X161381523Y-49664638D01*
X161380725Y-49661797D01*
X161379551Y-49657416D01*
X161373903Y-49636337D01*
X161274035Y-49422171D01*
X161138495Y-49228599D01*
X160971401Y-49061505D01*
X160777830Y-48925965D01*
X160563663Y-48826097D01*
X160502501Y-48809709D01*
X160335407Y-48764936D01*
X160100000Y-48744340D01*
X159864592Y-48764936D01*
X159636336Y-48826097D01*
X159621061Y-48833220D01*
X159551983Y-48843711D01*
X159488199Y-48815190D01*
X159480977Y-48808518D01*
X156876808Y-46204349D01*
X156860174Y-46183708D01*
X156858055Y-46180411D01*
X156822565Y-46149659D01*
X156816086Y-46143627D01*
X156807180Y-46134721D01*
X156797093Y-46127170D01*
X156790214Y-46121627D01*
X156754718Y-46090870D01*
X156754716Y-46090869D01*
X156751150Y-46089240D01*
X156728369Y-46075722D01*
X156725231Y-46073373D01*
X156681223Y-46056959D01*
X156673045Y-46053571D01*
X156630343Y-46034069D01*
X156629654Y-46033970D01*
X156626458Y-46033510D01*
X156600781Y-46026956D01*
X156597115Y-46025588D01*
X156550275Y-46022237D01*
X156541491Y-46021293D01*
X156529012Y-46019500D01*
X156529011Y-46019500D01*
X156516422Y-46019500D01*
X156507575Y-46019184D01*
X156460729Y-46015833D01*
X156460728Y-46015833D01*
X156456900Y-46016666D01*
X156430541Y-46019500D01*
X150005080Y-46019500D01*
X149938041Y-45999815D01*
X149893680Y-45949962D01*
X149886281Y-45934827D01*
X149876323Y-45914459D01*
X149864564Y-45845588D01*
X149876323Y-45805540D01*
X149890573Y-45776393D01*
X149890574Y-45776389D01*
X149900500Y-45708263D01*
X149900500Y-44741736D01*
X149890573Y-44673608D01*
X149890572Y-44673606D01*
X149876323Y-44644459D01*
X149864564Y-44575587D01*
X149876323Y-44535540D01*
X149890573Y-44506393D01*
X149900500Y-44438260D01*
X149900500Y-43471740D01*
X149900500Y-43471739D01*
X149900500Y-43471736D01*
X149890574Y-43403610D01*
X149888173Y-43398698D01*
X149876323Y-43374459D01*
X149864564Y-43305589D01*
X149876322Y-43265542D01*
X149890573Y-43236393D01*
X149890573Y-43236390D01*
X149890574Y-43236389D01*
X149900500Y-43168263D01*
X149900500Y-42201736D01*
X149890574Y-42133610D01*
X149890573Y-42133607D01*
X149876323Y-42104459D01*
X149864564Y-42035589D01*
X149876322Y-41995542D01*
X149890573Y-41966393D01*
X149890573Y-41966390D01*
X149890574Y-41966389D01*
X149900500Y-41898263D01*
X149900500Y-40931736D01*
X149890574Y-40863610D01*
X149890573Y-40863607D01*
X149876323Y-40834459D01*
X149864564Y-40765589D01*
X149876322Y-40725542D01*
X149890573Y-40696393D01*
X149890573Y-40696390D01*
X149890574Y-40696389D01*
X149900500Y-40628263D01*
X149900500Y-39661736D01*
X149890573Y-39593608D01*
X149890572Y-39593606D01*
X149876323Y-39564459D01*
X149864564Y-39495587D01*
X149876323Y-39455540D01*
X149890573Y-39426393D01*
X149890574Y-39426389D01*
X149900500Y-39358263D01*
X149900500Y-38391736D01*
X149890574Y-38323610D01*
X149890573Y-38323607D01*
X149876323Y-38294459D01*
X149864564Y-38225589D01*
X149876322Y-38185542D01*
X149890573Y-38156393D01*
X149900500Y-38088260D01*
X149900500Y-37192395D01*
X149920185Y-37125356D01*
X149925234Y-37118084D01*
X149993351Y-37027091D01*
X150043599Y-36892371D01*
X150049645Y-36836132D01*
X150050000Y-36829518D01*
X150050000Y-36585000D01*
X147550000Y-36585000D01*
X147550000Y-36829518D01*
X147550354Y-36836132D01*
X147556400Y-36892371D01*
X147582433Y-36962166D01*
X147587417Y-37031858D01*
X147553933Y-37093181D01*
X147492610Y-37126666D01*
X147466251Y-37129500D01*
X147460986Y-37129500D01*
X147448519Y-37131292D01*
X147439725Y-37132238D01*
X147392885Y-37135588D01*
X147390006Y-37136662D01*
X147389212Y-37136958D01*
X147363536Y-37143511D01*
X147359658Y-37144068D01*
X147316943Y-37163575D01*
X147308771Y-37166961D01*
X147264770Y-37183373D01*
X147261637Y-37185719D01*
X147238849Y-37199240D01*
X147235284Y-37200868D01*
X147235281Y-37200870D01*
X147235282Y-37200870D01*
X147217120Y-37216607D01*
X147199785Y-37231627D01*
X147192902Y-37237174D01*
X147182817Y-37244724D01*
X147173905Y-37253635D01*
X147167436Y-37259657D01*
X147131945Y-37290410D01*
X147129823Y-37293713D01*
X147113192Y-37314348D01*
X145966631Y-38460909D01*
X145905308Y-38494394D01*
X145865066Y-38496448D01*
X145849999Y-38494750D01*
X145681943Y-38513686D01*
X145522310Y-38569544D01*
X145379108Y-38659524D01*
X145259524Y-38779108D01*
X145169544Y-38922310D01*
X145113686Y-39081943D01*
X145094750Y-39250000D01*
X145113686Y-39418056D01*
X145113686Y-39418058D01*
X145113687Y-39418059D01*
X145169544Y-39577690D01*
X145259523Y-39720890D01*
X145379110Y-39840477D01*
X145522310Y-39930456D01*
X145681941Y-39986313D01*
X145850000Y-40005249D01*
X146018059Y-39986313D01*
X146177690Y-39930456D01*
X146320890Y-39840477D01*
X146440477Y-39720890D01*
X146530456Y-39577690D01*
X146586313Y-39418059D01*
X146605249Y-39250000D01*
X146603551Y-39234933D01*
X146615604Y-39166113D01*
X146639087Y-39133370D01*
X147489600Y-38282857D01*
X147550921Y-38249374D01*
X147620613Y-38254358D01*
X147676546Y-38296230D01*
X147700963Y-38361694D01*
X147699984Y-38388412D01*
X147699500Y-38391734D01*
X147699500Y-39358263D01*
X147709426Y-39426392D01*
X147723675Y-39455540D01*
X147735433Y-39524414D01*
X147723676Y-39564456D01*
X147709426Y-39593606D01*
X147699500Y-39661736D01*
X147699500Y-40628263D01*
X147709426Y-40696390D01*
X147723676Y-40725540D01*
X147735434Y-40794413D01*
X147723676Y-40834460D01*
X147709426Y-40863609D01*
X147699500Y-40931736D01*
X147699500Y-41898263D01*
X147709426Y-41966390D01*
X147709426Y-41966391D01*
X147709427Y-41966393D01*
X147720640Y-41989330D01*
X147723676Y-41995540D01*
X147735434Y-42064413D01*
X147723676Y-42104460D01*
X147709426Y-42133609D01*
X147699500Y-42201736D01*
X147699500Y-43168263D01*
X147709426Y-43236390D01*
X147723676Y-43265540D01*
X147735434Y-43334413D01*
X147723676Y-43374460D01*
X147709426Y-43403609D01*
X147699500Y-43471736D01*
X147699500Y-44438263D01*
X147709426Y-44506392D01*
X147723675Y-44535540D01*
X147735433Y-44604414D01*
X147723676Y-44644456D01*
X147709426Y-44673606D01*
X147699500Y-44741736D01*
X147699500Y-45708263D01*
X147709426Y-45776392D01*
X147723675Y-45805540D01*
X147735433Y-45874414D01*
X147723676Y-45914456D01*
X147709426Y-45943606D01*
X147699500Y-46011736D01*
X147699500Y-46978263D01*
X147709426Y-47046390D01*
X147709426Y-47046391D01*
X147709427Y-47046393D01*
X147723676Y-47075540D01*
X147735434Y-47144413D01*
X147723676Y-47184460D01*
X147709426Y-47213609D01*
X147699500Y-47281736D01*
X147699500Y-48248263D01*
X147709426Y-48316390D01*
X147709426Y-48316391D01*
X147709427Y-48316393D01*
X147721010Y-48340087D01*
X147760802Y-48421484D01*
X147843515Y-48504197D01*
X147843516Y-48504197D01*
X147843517Y-48504198D01*
X147948607Y-48555573D01*
X147975860Y-48559543D01*
X148016737Y-48565500D01*
X148016740Y-48565500D01*
X149583263Y-48565500D01*
X149651388Y-48555574D01*
X149651388Y-48555573D01*
X149651393Y-48555573D01*
X149660323Y-48551207D01*
X149729191Y-48539446D01*
X149793490Y-48566786D01*
X149802466Y-48574925D01*
X150708518Y-49480977D01*
X150742003Y-49542300D01*
X150737019Y-49611992D01*
X150733220Y-49621061D01*
X150726097Y-49636336D01*
X150664936Y-49864592D01*
X150644340Y-50099999D01*
X150664936Y-50335407D01*
X150696593Y-50453553D01*
X150726097Y-50563663D01*
X150825965Y-50777830D01*
X150961505Y-50971401D01*
X151128599Y-51138495D01*
X151321937Y-51273872D01*
X151322173Y-51274037D01*
X151357970Y-51290729D01*
X151452904Y-51334997D01*
X151505344Y-51381169D01*
X151524500Y-51447379D01*
X151524500Y-55252619D01*
X151504815Y-55319658D01*
X151452906Y-55365001D01*
X151322168Y-55425966D01*
X151128598Y-55561505D01*
X150961505Y-55728598D01*
X150825965Y-55922170D01*
X150726097Y-56136336D01*
X150664936Y-56364592D01*
X150644340Y-56600000D01*
X150664936Y-56835407D01*
X150696593Y-56953553D01*
X150726097Y-57063663D01*
X150825965Y-57277830D01*
X150961505Y-57471401D01*
X151128599Y-57638495D01*
X151322170Y-57774035D01*
X151536337Y-57873903D01*
X151764592Y-57935063D01*
X152000000Y-57955659D01*
X152235408Y-57935063D01*
X152463663Y-57873903D01*
X152677830Y-57774035D01*
X152871401Y-57638495D01*
X153038495Y-57471401D01*
X153174035Y-57277830D01*
X153273903Y-57063663D01*
X153335063Y-56835408D01*
X153355659Y-56600000D01*
X154994858Y-56600000D01*
X155015386Y-56847732D01*
X155076413Y-57088721D01*
X155176268Y-57316370D01*
X155276563Y-57469882D01*
X155276564Y-57469882D01*
X155974070Y-56772376D01*
X155976884Y-56785915D01*
X156046442Y-56920156D01*
X156149638Y-57030652D01*
X156278819Y-57109209D01*
X156330002Y-57123549D01*
X155629942Y-57823609D01*
X155629942Y-57823610D01*
X155676766Y-57860055D01*
X155895393Y-57978368D01*
X156130506Y-58059083D01*
X156375707Y-58100000D01*
X156624293Y-58100000D01*
X156869493Y-58059083D01*
X157104606Y-57978368D01*
X157323233Y-57860053D01*
X157370056Y-57823609D01*
X156671568Y-57125121D01*
X156788458Y-57074349D01*
X156905739Y-56978934D01*
X156992928Y-56855415D01*
X157023355Y-56769801D01*
X157723434Y-57469882D01*
X157823730Y-57316369D01*
X157923586Y-57088721D01*
X157984613Y-56847732D01*
X158005141Y-56599999D01*
X157984613Y-56352267D01*
X157923586Y-56111278D01*
X157823730Y-55883630D01*
X157723434Y-55730116D01*
X157025928Y-56427621D01*
X157023116Y-56414085D01*
X156953558Y-56279844D01*
X156850362Y-56169348D01*
X156721181Y-56090791D01*
X156669997Y-56076450D01*
X157370057Y-55376390D01*
X157370056Y-55376388D01*
X157323235Y-55339947D01*
X157104606Y-55221631D01*
X156869493Y-55140916D01*
X156624293Y-55100000D01*
X156375707Y-55100000D01*
X156130506Y-55140916D01*
X155895393Y-55221631D01*
X155676764Y-55339946D01*
X155629942Y-55376388D01*
X155629942Y-55376390D01*
X156328431Y-56074878D01*
X156211542Y-56125651D01*
X156094261Y-56221066D01*
X156007072Y-56344585D01*
X155976645Y-56430197D01*
X155276564Y-55730116D01*
X155176266Y-55883634D01*
X155076413Y-56111278D01*
X155015386Y-56352267D01*
X154994858Y-56600000D01*
X153355659Y-56600000D01*
X153335063Y-56364592D01*
X153273903Y-56136337D01*
X153174035Y-55922171D01*
X153038495Y-55728599D01*
X152871401Y-55561505D01*
X152677830Y-55425965D01*
X152547094Y-55365001D01*
X152494655Y-55318828D01*
X152475500Y-55252619D01*
X152475500Y-51447379D01*
X152495185Y-51380340D01*
X152547095Y-51334997D01*
X152677830Y-51274035D01*
X152871401Y-51138495D01*
X153038495Y-50971401D01*
X153174035Y-50777830D01*
X153273903Y-50563663D01*
X153335063Y-50335408D01*
X153355659Y-50100000D01*
X153355659Y-50099999D01*
X154994858Y-50099999D01*
X155015386Y-50347732D01*
X155076413Y-50588721D01*
X155176268Y-50816370D01*
X155276563Y-50969882D01*
X155276564Y-50969882D01*
X155974070Y-50272375D01*
X155976884Y-50285915D01*
X156046442Y-50420156D01*
X156149638Y-50530652D01*
X156278819Y-50609209D01*
X156330002Y-50623549D01*
X155629942Y-51323609D01*
X155629942Y-51323610D01*
X155676766Y-51360055D01*
X155895393Y-51478368D01*
X156130506Y-51559083D01*
X156375707Y-51600000D01*
X156624293Y-51600000D01*
X156869493Y-51559083D01*
X157104606Y-51478368D01*
X157323233Y-51360053D01*
X157370056Y-51323609D01*
X156671568Y-50625121D01*
X156788458Y-50574349D01*
X156905739Y-50478934D01*
X156992928Y-50355415D01*
X157023354Y-50269802D01*
X157723434Y-50969882D01*
X157823730Y-50816369D01*
X157923586Y-50588721D01*
X157984613Y-50347732D01*
X158005141Y-50099999D01*
X157984613Y-49852267D01*
X157923586Y-49611278D01*
X157823730Y-49383630D01*
X157723434Y-49230116D01*
X157025929Y-49927622D01*
X157023116Y-49914085D01*
X156953558Y-49779844D01*
X156850362Y-49669348D01*
X156721181Y-49590791D01*
X156669997Y-49576450D01*
X157370057Y-48876390D01*
X157370056Y-48876388D01*
X157323235Y-48839947D01*
X157104606Y-48721631D01*
X156869493Y-48640916D01*
X156624293Y-48600000D01*
X156375707Y-48600000D01*
X156130506Y-48640916D01*
X155895393Y-48721631D01*
X155676764Y-48839946D01*
X155629942Y-48876388D01*
X155629942Y-48876390D01*
X156328431Y-49574878D01*
X156211542Y-49625651D01*
X156094261Y-49721066D01*
X156007072Y-49844585D01*
X155976645Y-49930196D01*
X155276564Y-49230117D01*
X155176266Y-49383634D01*
X155076413Y-49611278D01*
X155015386Y-49852267D01*
X154994858Y-50099999D01*
X153355659Y-50099999D01*
X153335063Y-49864592D01*
X153273903Y-49636337D01*
X153174035Y-49422171D01*
X153038495Y-49228599D01*
X152871401Y-49061505D01*
X152677830Y-48925965D01*
X152463663Y-48826097D01*
X152402502Y-48809709D01*
X152235407Y-48764936D01*
X152000000Y-48744340D01*
X151764592Y-48764936D01*
X151536336Y-48826097D01*
X151521061Y-48833220D01*
X151451983Y-48843711D01*
X151388199Y-48815190D01*
X151380977Y-48808518D01*
X150046808Y-47474349D01*
X150030174Y-47453708D01*
X150028055Y-47450411D01*
X149992565Y-47419659D01*
X149986086Y-47413627D01*
X149977180Y-47404721D01*
X149967093Y-47397170D01*
X149960211Y-47391625D01*
X149943295Y-47376967D01*
X149905522Y-47318189D01*
X149900500Y-47283256D01*
X149900500Y-47281736D01*
X149890574Y-47213610D01*
X149890573Y-47213607D01*
X149876323Y-47184459D01*
X149864564Y-47115589D01*
X149876324Y-47075539D01*
X149879143Y-47069774D01*
X149890573Y-47046393D01*
X149890573Y-47046392D01*
X149893679Y-47040039D01*
X149940807Y-46988457D01*
X150005079Y-46970500D01*
X156246679Y-46970500D01*
X156313718Y-46990185D01*
X156334360Y-47006819D01*
X158808518Y-49480977D01*
X158842003Y-49542300D01*
X158837019Y-49611992D01*
X158833220Y-49621061D01*
X158826097Y-49636336D01*
X158764936Y-49864592D01*
X158744340Y-50099999D01*
X158764936Y-50335407D01*
X158796593Y-50453553D01*
X158826097Y-50563663D01*
X158925965Y-50777830D01*
X159061505Y-50971401D01*
X159228599Y-51138495D01*
X159421937Y-51273872D01*
X159422173Y-51274037D01*
X159457970Y-51290729D01*
X159552904Y-51334997D01*
X159605344Y-51381169D01*
X159624500Y-51447379D01*
X159624500Y-55252619D01*
X159604815Y-55319658D01*
X159552906Y-55365001D01*
X159422168Y-55425966D01*
X159228598Y-55561505D01*
X159061505Y-55728598D01*
X158925965Y-55922170D01*
X158826097Y-56136336D01*
X158764936Y-56364592D01*
X158744340Y-56600000D01*
X158764936Y-56835407D01*
X158796593Y-56953553D01*
X158826097Y-57063663D01*
X158925965Y-57277830D01*
X159061505Y-57471401D01*
X159228599Y-57638495D01*
X159422170Y-57774035D01*
X159636337Y-57873903D01*
X159824114Y-57924217D01*
X159864592Y-57935063D01*
X160099999Y-57955659D01*
X160099999Y-57955658D01*
X160100000Y-57955659D01*
X160335408Y-57935063D01*
X160563663Y-57873903D01*
X160777830Y-57774035D01*
X160971401Y-57638495D01*
X161138495Y-57471401D01*
X161274035Y-57277830D01*
X161373903Y-57063663D01*
X161380725Y-57038201D01*
X161417090Y-56978541D01*
X161479937Y-56948012D01*
X161549312Y-56956307D01*
X161603190Y-57000792D01*
X161624465Y-57067344D01*
X161624500Y-57070295D01*
X161624500Y-57451678D01*
X161604815Y-57518717D01*
X161588181Y-57539359D01*
X160719022Y-58408518D01*
X160657699Y-58442003D01*
X160588007Y-58437019D01*
X160578937Y-58433219D01*
X160563665Y-58426097D01*
X160335407Y-58364936D01*
X160100000Y-58344340D01*
X159864592Y-58364936D01*
X159636336Y-58426097D01*
X159422170Y-58525965D01*
X159228598Y-58661505D01*
X159061505Y-58828598D01*
X158925965Y-59022170D01*
X158826097Y-59236336D01*
X158764936Y-59464592D01*
X158744340Y-59699999D01*
X158764936Y-59935407D01*
X158795339Y-60048872D01*
X158826097Y-60163663D01*
X158925965Y-60377830D01*
X159061505Y-60571401D01*
X159228599Y-60738495D01*
X159422170Y-60874035D01*
X159422173Y-60874037D01*
X159514830Y-60917243D01*
X159552904Y-60934997D01*
X159605344Y-60981169D01*
X159624500Y-61047379D01*
X159624500Y-64852619D01*
X159604815Y-64919658D01*
X159552906Y-64965001D01*
X159422168Y-65025966D01*
X159228598Y-65161505D01*
X159061505Y-65328598D01*
X158925965Y-65522170D01*
X158826097Y-65736336D01*
X158764936Y-65964592D01*
X158744340Y-66200000D01*
X158764936Y-66435407D01*
X158795641Y-66549998D01*
X158826097Y-66663663D01*
X158925965Y-66877830D01*
X159061505Y-67071401D01*
X159228599Y-67238495D01*
X159422170Y-67374035D01*
X159636337Y-67473903D01*
X159846529Y-67530223D01*
X159864592Y-67535063D01*
X160099999Y-67555659D01*
X160099999Y-67555658D01*
X160100000Y-67555659D01*
X160335408Y-67535063D01*
X160563663Y-67473903D01*
X160777830Y-67374035D01*
X160971401Y-67238495D01*
X161138495Y-67071401D01*
X161274035Y-66877830D01*
X161373903Y-66663663D01*
X161435063Y-66435408D01*
X161455659Y-66200000D01*
X161455659Y-66199999D01*
X163094858Y-66199999D01*
X163115386Y-66447732D01*
X163176413Y-66688721D01*
X163276268Y-66916370D01*
X163376563Y-67069882D01*
X163376564Y-67069882D01*
X164074070Y-66372376D01*
X164076884Y-66385915D01*
X164146442Y-66520156D01*
X164249638Y-66630652D01*
X164378819Y-66709209D01*
X164430002Y-66723549D01*
X163729942Y-67423609D01*
X163729942Y-67423610D01*
X163776766Y-67460055D01*
X163995393Y-67578368D01*
X164230506Y-67659083D01*
X164475707Y-67700000D01*
X164724293Y-67700000D01*
X164969493Y-67659083D01*
X165204606Y-67578368D01*
X165423233Y-67460053D01*
X165470056Y-67423609D01*
X164771568Y-66725121D01*
X164888458Y-66674349D01*
X165005739Y-66578934D01*
X165092928Y-66455415D01*
X165123354Y-66369802D01*
X165823434Y-67069882D01*
X165923730Y-66916369D01*
X166023586Y-66688721D01*
X166084613Y-66447732D01*
X166105141Y-66200000D01*
X166084613Y-65952267D01*
X166023586Y-65711278D01*
X165923730Y-65483630D01*
X165823434Y-65330116D01*
X165125929Y-66027622D01*
X165123116Y-66014085D01*
X165053558Y-65879844D01*
X164950362Y-65769348D01*
X164821181Y-65690791D01*
X164769997Y-65676450D01*
X165470057Y-64976390D01*
X165470056Y-64976388D01*
X165423235Y-64939947D01*
X165204606Y-64821631D01*
X164969493Y-64740916D01*
X164724293Y-64700000D01*
X164475707Y-64700000D01*
X164230506Y-64740916D01*
X163995393Y-64821631D01*
X163776764Y-64939946D01*
X163729942Y-64976388D01*
X163729942Y-64976390D01*
X164428431Y-65674878D01*
X164311542Y-65725651D01*
X164194261Y-65821066D01*
X164107072Y-65944585D01*
X164076645Y-66030197D01*
X163376564Y-65330116D01*
X163276266Y-65483634D01*
X163176413Y-65711278D01*
X163115386Y-65952267D01*
X163094858Y-66199999D01*
X161455659Y-66199999D01*
X161435063Y-65964592D01*
X161373903Y-65736337D01*
X161274035Y-65522171D01*
X161138495Y-65328599D01*
X160971401Y-65161505D01*
X160777830Y-65025965D01*
X160647094Y-64965001D01*
X160594655Y-64918828D01*
X160575500Y-64852619D01*
X160575500Y-61047379D01*
X160595185Y-60980340D01*
X160647095Y-60934997D01*
X160748392Y-60887762D01*
X160777826Y-60874037D01*
X160777826Y-60874036D01*
X160777830Y-60874035D01*
X160971401Y-60738495D01*
X161138495Y-60571401D01*
X161274035Y-60377830D01*
X161373903Y-60163663D01*
X161435063Y-59935408D01*
X161455659Y-59700000D01*
X163094858Y-59700000D01*
X163115386Y-59947732D01*
X163176413Y-60188721D01*
X163276268Y-60416370D01*
X163376563Y-60569882D01*
X163376564Y-60569882D01*
X164074070Y-59872376D01*
X164076884Y-59885915D01*
X164146442Y-60020156D01*
X164249638Y-60130652D01*
X164378819Y-60209209D01*
X164430002Y-60223549D01*
X163729942Y-60923609D01*
X163729942Y-60923610D01*
X163776766Y-60960055D01*
X163995393Y-61078368D01*
X164230506Y-61159083D01*
X164475707Y-61200000D01*
X164724293Y-61200000D01*
X164969493Y-61159083D01*
X165204606Y-61078368D01*
X165423233Y-60960053D01*
X165470056Y-60923609D01*
X164771568Y-60225121D01*
X164888458Y-60174349D01*
X165005739Y-60078934D01*
X165092928Y-59955415D01*
X165123354Y-59869802D01*
X165823434Y-60569882D01*
X165923730Y-60416369D01*
X166023586Y-60188721D01*
X166084613Y-59947732D01*
X166105141Y-59699999D01*
X166084613Y-59452267D01*
X166023586Y-59211278D01*
X165923730Y-58983630D01*
X165823434Y-58830116D01*
X165125929Y-59527622D01*
X165123116Y-59514085D01*
X165053558Y-59379844D01*
X164950362Y-59269348D01*
X164821181Y-59190791D01*
X164769997Y-59176450D01*
X165470057Y-58476390D01*
X165470056Y-58476388D01*
X165423235Y-58439947D01*
X165204606Y-58321631D01*
X165046290Y-58267281D01*
X164989275Y-58226896D01*
X164963144Y-58162096D01*
X164976195Y-58093456D01*
X165024284Y-58042768D01*
X165046290Y-58032719D01*
X165204606Y-57978368D01*
X165423233Y-57860053D01*
X165470056Y-57823609D01*
X164771568Y-57125121D01*
X164888458Y-57074349D01*
X165005739Y-56978934D01*
X165092928Y-56855415D01*
X165123354Y-56769802D01*
X165823434Y-57469882D01*
X165923730Y-57316369D01*
X166023586Y-57088721D01*
X166084613Y-56847732D01*
X166105141Y-56600000D01*
X166844340Y-56600000D01*
X166864936Y-56835407D01*
X166896593Y-56953553D01*
X166926097Y-57063663D01*
X167025965Y-57277830D01*
X167161505Y-57471401D01*
X167328599Y-57638495D01*
X167522170Y-57774035D01*
X167736337Y-57873903D01*
X167964592Y-57935063D01*
X168200000Y-57955659D01*
X168435408Y-57935063D01*
X168663663Y-57873903D01*
X168877830Y-57774035D01*
X169071401Y-57638495D01*
X169238495Y-57471401D01*
X169374035Y-57277830D01*
X169473903Y-57063663D01*
X169535063Y-56835408D01*
X169555659Y-56600000D01*
X169535063Y-56364592D01*
X169473903Y-56136337D01*
X169374035Y-55922171D01*
X169238495Y-55728599D01*
X169071401Y-55561505D01*
X168877830Y-55425965D01*
X168663663Y-55326097D01*
X168602502Y-55309709D01*
X168435407Y-55264936D01*
X168200000Y-55244340D01*
X167964592Y-55264936D01*
X167736336Y-55326097D01*
X167522170Y-55425965D01*
X167328598Y-55561505D01*
X167161505Y-55728598D01*
X167025965Y-55922170D01*
X166926097Y-56136336D01*
X166864936Y-56364592D01*
X166844340Y-56600000D01*
X166105141Y-56600000D01*
X166084613Y-56352267D01*
X166023586Y-56111278D01*
X165923730Y-55883630D01*
X165823434Y-55730116D01*
X165125929Y-56427622D01*
X165123116Y-56414085D01*
X165053558Y-56279844D01*
X164950362Y-56169348D01*
X164821181Y-56090791D01*
X164769997Y-56076450D01*
X165470057Y-55376390D01*
X165470056Y-55376388D01*
X165423235Y-55339947D01*
X165204606Y-55221631D01*
X164969493Y-55140916D01*
X164724293Y-55100000D01*
X164475707Y-55100000D01*
X164230506Y-55140916D01*
X163995393Y-55221631D01*
X163776764Y-55339946D01*
X163729942Y-55376388D01*
X163729942Y-55376390D01*
X164428431Y-56074878D01*
X164311542Y-56125651D01*
X164194261Y-56221066D01*
X164107072Y-56344585D01*
X164076645Y-56430197D01*
X163376564Y-55730116D01*
X163276266Y-55883634D01*
X163176413Y-56111278D01*
X163115386Y-56352267D01*
X163094858Y-56599999D01*
X163115386Y-56847732D01*
X163176413Y-57088721D01*
X163276268Y-57316370D01*
X163376563Y-57469882D01*
X163376564Y-57469882D01*
X164074070Y-56772376D01*
X164076884Y-56785915D01*
X164146442Y-56920156D01*
X164249638Y-57030652D01*
X164378819Y-57109209D01*
X164430002Y-57123549D01*
X163729942Y-57823609D01*
X163729942Y-57823610D01*
X163776766Y-57860055D01*
X163995393Y-57978368D01*
X164153709Y-58032719D01*
X164210724Y-58073105D01*
X164236855Y-58137904D01*
X164223803Y-58206544D01*
X164175715Y-58257232D01*
X164153709Y-58267281D01*
X163995393Y-58321631D01*
X163776764Y-58439946D01*
X163729942Y-58476388D01*
X163729942Y-58476390D01*
X164428431Y-59174878D01*
X164311542Y-59225651D01*
X164194261Y-59321066D01*
X164107072Y-59444585D01*
X164076645Y-59530197D01*
X163376564Y-58830116D01*
X163276266Y-58983634D01*
X163176413Y-59211278D01*
X163115386Y-59452267D01*
X163094858Y-59700000D01*
X161455659Y-59700000D01*
X161453192Y-59671808D01*
X161435063Y-59464592D01*
X161415643Y-59392115D01*
X161373903Y-59236337D01*
X161373902Y-59236334D01*
X161366781Y-59221063D01*
X161356288Y-59151986D01*
X161384807Y-59088202D01*
X161391468Y-59080989D01*
X162390654Y-58081803D01*
X162411292Y-58065173D01*
X162414589Y-58063055D01*
X162418031Y-58059083D01*
X162445340Y-58027566D01*
X162451376Y-58021083D01*
X162460275Y-58012184D01*
X162460275Y-58012183D01*
X162460279Y-58012180D01*
X162467835Y-58002084D01*
X162473387Y-57995196D01*
X162504130Y-57959718D01*
X162505757Y-57956153D01*
X162519281Y-57933361D01*
X162521629Y-57930226D01*
X162538045Y-57886207D01*
X162541415Y-57878072D01*
X162560931Y-57835342D01*
X162561488Y-57831465D01*
X162568045Y-57805778D01*
X162569066Y-57803040D01*
X162569411Y-57802115D01*
X162572761Y-57755269D01*
X162573707Y-57746478D01*
X162575309Y-57735342D01*
X162575500Y-57734011D01*
X162575500Y-57721421D01*
X162575816Y-57712574D01*
X162577904Y-57683380D01*
X162579167Y-57665729D01*
X162578334Y-57661899D01*
X162575500Y-57635541D01*
X162575500Y-50100000D01*
X163094858Y-50100000D01*
X163115386Y-50347732D01*
X163176413Y-50588721D01*
X163276268Y-50816370D01*
X163376563Y-50969882D01*
X163376564Y-50969882D01*
X164074070Y-50272375D01*
X164076884Y-50285915D01*
X164146442Y-50420156D01*
X164249638Y-50530652D01*
X164378819Y-50609209D01*
X164430002Y-50623549D01*
X163729942Y-51323609D01*
X163729942Y-51323610D01*
X163776766Y-51360055D01*
X163995393Y-51478368D01*
X164230506Y-51559083D01*
X164475707Y-51600000D01*
X164724293Y-51600000D01*
X164969493Y-51559083D01*
X165204606Y-51478368D01*
X165423233Y-51360053D01*
X165470056Y-51323609D01*
X164771568Y-50625121D01*
X164888458Y-50574349D01*
X165005739Y-50478934D01*
X165092928Y-50355415D01*
X165123354Y-50269802D01*
X165823434Y-50969882D01*
X165923730Y-50816369D01*
X166023586Y-50588721D01*
X166084613Y-50347732D01*
X166105141Y-50099999D01*
X166084613Y-49852267D01*
X166023586Y-49611278D01*
X165923730Y-49383630D01*
X165823434Y-49230116D01*
X165125929Y-49927622D01*
X165123116Y-49914085D01*
X165053558Y-49779844D01*
X164950362Y-49669348D01*
X164821181Y-49590791D01*
X164769997Y-49576450D01*
X165470057Y-48876390D01*
X165470056Y-48876388D01*
X165423235Y-48839947D01*
X165204606Y-48721631D01*
X165119112Y-48692281D01*
X165062097Y-48651896D01*
X165035966Y-48587096D01*
X165049017Y-48518456D01*
X165097106Y-48467769D01*
X165119112Y-48457719D01*
X165204606Y-48428368D01*
X165423233Y-48310053D01*
X165470056Y-48273609D01*
X164771568Y-47575121D01*
X164888458Y-47524349D01*
X165005739Y-47428934D01*
X165092928Y-47305415D01*
X165123354Y-47219802D01*
X165823434Y-47919882D01*
X165923730Y-47766369D01*
X166023586Y-47538721D01*
X166084613Y-47297732D01*
X166105141Y-47050000D01*
X166084613Y-46802267D01*
X166023586Y-46561278D01*
X165923730Y-46333630D01*
X165823434Y-46180116D01*
X165125929Y-46877622D01*
X165123116Y-46864085D01*
X165053558Y-46729844D01*
X164950362Y-46619348D01*
X164821181Y-46540791D01*
X164769995Y-46526449D01*
X165470056Y-45826389D01*
X165470056Y-45826387D01*
X165423235Y-45789947D01*
X165204606Y-45671631D01*
X164969493Y-45590916D01*
X164724293Y-45550000D01*
X164475707Y-45550000D01*
X164230506Y-45590916D01*
X163995393Y-45671631D01*
X163776764Y-45789946D01*
X163729942Y-45826388D01*
X163729941Y-45826389D01*
X164428431Y-46524878D01*
X164311542Y-46575651D01*
X164194261Y-46671066D01*
X164107072Y-46794585D01*
X164076645Y-46880197D01*
X163376564Y-46180116D01*
X163276266Y-46333634D01*
X163176413Y-46561278D01*
X163115386Y-46802267D01*
X163094858Y-47050000D01*
X163115386Y-47297732D01*
X163176413Y-47538721D01*
X163276268Y-47766370D01*
X163376563Y-47919882D01*
X163376564Y-47919882D01*
X164074070Y-47222376D01*
X164076884Y-47235915D01*
X164146442Y-47370156D01*
X164249638Y-47480652D01*
X164378819Y-47559209D01*
X164430002Y-47573549D01*
X163729942Y-48273609D01*
X163729942Y-48273610D01*
X163776766Y-48310055D01*
X163995393Y-48428368D01*
X164080887Y-48457719D01*
X164137902Y-48498105D01*
X164164033Y-48562904D01*
X164150981Y-48631544D01*
X164102892Y-48682232D01*
X164080887Y-48692281D01*
X163995393Y-48721631D01*
X163776764Y-48839946D01*
X163729942Y-48876388D01*
X163729942Y-48876390D01*
X164428431Y-49574878D01*
X164311542Y-49625651D01*
X164194261Y-49721066D01*
X164107072Y-49844585D01*
X164076645Y-49930196D01*
X163376564Y-49230117D01*
X163276266Y-49383634D01*
X163176413Y-49611278D01*
X163115386Y-49852267D01*
X163094858Y-50100000D01*
X162575500Y-50100000D01*
X162575500Y-46364458D01*
X162578334Y-46338098D01*
X162579167Y-46334271D01*
X162575816Y-46287424D01*
X162575500Y-46278577D01*
X162575500Y-46265988D01*
X162573707Y-46253521D01*
X162572761Y-46244732D01*
X162569411Y-46197885D01*
X162568042Y-46194215D01*
X162561488Y-46168535D01*
X162560931Y-46164658D01*
X162560929Y-46164653D01*
X162541422Y-46121938D01*
X162538034Y-46113759D01*
X162521629Y-46069774D01*
X162519279Y-46066635D01*
X162505756Y-46043842D01*
X162504130Y-46040282D01*
X162473374Y-46004787D01*
X162467837Y-45997916D01*
X162460279Y-45987820D01*
X162460277Y-45987818D01*
X162460275Y-45987815D01*
X162451373Y-45978914D01*
X162445354Y-45972451D01*
X162414589Y-45936945D01*
X162411291Y-45934825D01*
X162390652Y-45918193D01*
X160870911Y-44398452D01*
X160865146Y-44387895D01*
X160857147Y-44384242D01*
X160850668Y-44378209D01*
X151659640Y-35187181D01*
X151626155Y-35125858D01*
X151631139Y-35056166D01*
X151673011Y-35000233D01*
X151738475Y-34975816D01*
X151747321Y-34975500D01*
X151751679Y-34975500D01*
X151818718Y-34995185D01*
X151839360Y-35011819D01*
X161018190Y-44190648D01*
X161034824Y-44211288D01*
X161037514Y-44215474D01*
X161039792Y-44217055D01*
X161072447Y-44245351D01*
X161078928Y-44251386D01*
X161087818Y-44260277D01*
X161097905Y-44267828D01*
X161104776Y-44273365D01*
X161140282Y-44304130D01*
X161143838Y-44305754D01*
X161166641Y-44319284D01*
X161169771Y-44321627D01*
X161169772Y-44321627D01*
X161169773Y-44321628D01*
X161201439Y-44333438D01*
X161213765Y-44338036D01*
X161221932Y-44341418D01*
X161264658Y-44360931D01*
X161268534Y-44361488D01*
X161294216Y-44368042D01*
X161297885Y-44369411D01*
X161344719Y-44372760D01*
X161353511Y-44373705D01*
X161365989Y-44375500D01*
X161378587Y-44375500D01*
X161387433Y-44375815D01*
X161434270Y-44379166D01*
X161434270Y-44379165D01*
X161434271Y-44379166D01*
X161438096Y-44378334D01*
X161464454Y-44375500D01*
X164451679Y-44375500D01*
X164518718Y-44395185D01*
X164539360Y-44411819D01*
X167203081Y-47075540D01*
X168732547Y-48605005D01*
X168766032Y-48666328D01*
X168761048Y-48736020D01*
X168719176Y-48791953D01*
X168653712Y-48816370D01*
X168612773Y-48812461D01*
X168435407Y-48764936D01*
X168200000Y-48744340D01*
X167964592Y-48764936D01*
X167736336Y-48826097D01*
X167522170Y-48925965D01*
X167328598Y-49061505D01*
X167161505Y-49228598D01*
X167025965Y-49422170D01*
X166926097Y-49636336D01*
X166864936Y-49864592D01*
X166844340Y-50099999D01*
X166864936Y-50335407D01*
X166896593Y-50453553D01*
X166926097Y-50563663D01*
X167025965Y-50777830D01*
X167161505Y-50971401D01*
X167328599Y-51138495D01*
X167522170Y-51274035D01*
X167736337Y-51373903D01*
X167964592Y-51435063D01*
X168200000Y-51455659D01*
X168435408Y-51435063D01*
X168663663Y-51373903D01*
X168877830Y-51274035D01*
X169071401Y-51138495D01*
X169238495Y-50971401D01*
X169374035Y-50777830D01*
X169473903Y-50563663D01*
X169535063Y-50335408D01*
X169555659Y-50100000D01*
X169535063Y-49864592D01*
X169487538Y-49687224D01*
X169489201Y-49617377D01*
X169528363Y-49559514D01*
X169592592Y-49532010D01*
X169661494Y-49543596D01*
X169694994Y-49567452D01*
X169888181Y-49760639D01*
X169921666Y-49821962D01*
X169924500Y-49848320D01*
X169924500Y-58185541D01*
X169921666Y-58211899D01*
X169920833Y-58215728D01*
X169924184Y-58262574D01*
X169924500Y-58271421D01*
X169924500Y-58284011D01*
X169926293Y-58296491D01*
X169927237Y-58305275D01*
X169930588Y-58352115D01*
X169931956Y-58355781D01*
X169938510Y-58381458D01*
X169938561Y-58381808D01*
X169939069Y-58385343D01*
X169958571Y-58428045D01*
X169961957Y-58436219D01*
X169974524Y-58469913D01*
X169978373Y-58480231D01*
X169980722Y-58483369D01*
X169994240Y-58506150D01*
X169995870Y-58509718D01*
X170026627Y-58545214D01*
X170032170Y-58552093D01*
X170039721Y-58562180D01*
X170048627Y-58571086D01*
X170054659Y-58577565D01*
X170085411Y-58613055D01*
X170088708Y-58615174D01*
X170109349Y-58631808D01*
X170908518Y-59430977D01*
X170942003Y-59492300D01*
X170937019Y-59561992D01*
X170933220Y-59571061D01*
X170926097Y-59586336D01*
X170864936Y-59814592D01*
X170844340Y-60050000D01*
X170864936Y-60285407D01*
X170896202Y-60402093D01*
X170926097Y-60513663D01*
X171025965Y-60727830D01*
X171161505Y-60921401D01*
X171328599Y-61088495D01*
X171512747Y-61217437D01*
X171522173Y-61224037D01*
X171554558Y-61239138D01*
X171652904Y-61284997D01*
X171705344Y-61331169D01*
X171724500Y-61397379D01*
X171724500Y-65202619D01*
X171704815Y-65269658D01*
X171652906Y-65315001D01*
X171522168Y-65375966D01*
X171328598Y-65511505D01*
X171161505Y-65678598D01*
X171025965Y-65872170D01*
X170926097Y-66086336D01*
X170864936Y-66314592D01*
X170844340Y-66550000D01*
X170864936Y-66785407D01*
X170909709Y-66952502D01*
X170926097Y-67013663D01*
X171025965Y-67227830D01*
X171161505Y-67421401D01*
X171328599Y-67588495D01*
X171522170Y-67724035D01*
X171736337Y-67823903D01*
X171964592Y-67885063D01*
X172200000Y-67905659D01*
X172435408Y-67885063D01*
X172663663Y-67823903D01*
X172877830Y-67724035D01*
X173071401Y-67588495D01*
X173238495Y-67421401D01*
X173374035Y-67227830D01*
X173473903Y-67013663D01*
X173535063Y-66785408D01*
X173555659Y-66550000D01*
X175194858Y-66550000D01*
X175215386Y-66797732D01*
X175276413Y-67038721D01*
X175376268Y-67266370D01*
X175476563Y-67419882D01*
X175476564Y-67419882D01*
X176174070Y-66722374D01*
X176176884Y-66735915D01*
X176246442Y-66870156D01*
X176349638Y-66980652D01*
X176478819Y-67059209D01*
X176530002Y-67073549D01*
X175829942Y-67773609D01*
X175829942Y-67773610D01*
X175876766Y-67810055D01*
X176095393Y-67928368D01*
X176330506Y-68009083D01*
X176575707Y-68050000D01*
X176824293Y-68050000D01*
X177069493Y-68009083D01*
X177304606Y-67928368D01*
X177523233Y-67810053D01*
X177570056Y-67773609D01*
X176871568Y-67075121D01*
X176988458Y-67024349D01*
X177105739Y-66928934D01*
X177192928Y-66805415D01*
X177223355Y-66719801D01*
X177923434Y-67419882D01*
X178023730Y-67266369D01*
X178123586Y-67038721D01*
X178184613Y-66797732D01*
X178205141Y-66549999D01*
X178184613Y-66302267D01*
X178123586Y-66061278D01*
X178023730Y-65833630D01*
X177923434Y-65680116D01*
X177225928Y-66377621D01*
X177223116Y-66364085D01*
X177153558Y-66229844D01*
X177050362Y-66119348D01*
X176921181Y-66040791D01*
X176869995Y-66026449D01*
X177570056Y-65326389D01*
X177570056Y-65326387D01*
X177523235Y-65289947D01*
X177304606Y-65171631D01*
X177069493Y-65090916D01*
X176824293Y-65050000D01*
X176575707Y-65050000D01*
X176330506Y-65090916D01*
X176095393Y-65171631D01*
X175876764Y-65289946D01*
X175829942Y-65326388D01*
X175829941Y-65326389D01*
X176528431Y-66024878D01*
X176411542Y-66075651D01*
X176294261Y-66171066D01*
X176207072Y-66294585D01*
X176176645Y-66380197D01*
X175476564Y-65680116D01*
X175376266Y-65833634D01*
X175276413Y-66061278D01*
X175215386Y-66302267D01*
X175194858Y-66550000D01*
X173555659Y-66550000D01*
X173535063Y-66314592D01*
X173473903Y-66086337D01*
X173374035Y-65872171D01*
X173238495Y-65678599D01*
X173071401Y-65511505D01*
X172877830Y-65375965D01*
X172747094Y-65315001D01*
X172694655Y-65268828D01*
X172675500Y-65202619D01*
X172675500Y-61397379D01*
X172695185Y-61330340D01*
X172747095Y-61284997D01*
X172877830Y-61224035D01*
X173071401Y-61088495D01*
X173238495Y-60921401D01*
X173374035Y-60727830D01*
X173473903Y-60513663D01*
X173535063Y-60285408D01*
X173555659Y-60050000D01*
X173555659Y-60049999D01*
X175194858Y-60049999D01*
X175215386Y-60297732D01*
X175276413Y-60538721D01*
X175376268Y-60766370D01*
X175476563Y-60919882D01*
X175476564Y-60919882D01*
X176174070Y-60222376D01*
X176176884Y-60235915D01*
X176246442Y-60370156D01*
X176349638Y-60480652D01*
X176478819Y-60559209D01*
X176530002Y-60573549D01*
X175829942Y-61273609D01*
X175829942Y-61273610D01*
X175876766Y-61310055D01*
X176095393Y-61428368D01*
X176330506Y-61509083D01*
X176575707Y-61550000D01*
X176824293Y-61550000D01*
X177069493Y-61509083D01*
X177304606Y-61428368D01*
X177523233Y-61310053D01*
X177570056Y-61273609D01*
X176871568Y-60575121D01*
X176988458Y-60524349D01*
X177105739Y-60428934D01*
X177192928Y-60305415D01*
X177223355Y-60219801D01*
X177923434Y-60919882D01*
X178023730Y-60766369D01*
X178123586Y-60538721D01*
X178184613Y-60297732D01*
X178205141Y-60049999D01*
X178184613Y-59802267D01*
X178123586Y-59561278D01*
X178023730Y-59333630D01*
X177923434Y-59180116D01*
X177225928Y-59877621D01*
X177223116Y-59864085D01*
X177153558Y-59729844D01*
X177050362Y-59619348D01*
X176921181Y-59540791D01*
X176869997Y-59526450D01*
X177570057Y-58826390D01*
X177570056Y-58826388D01*
X177523235Y-58789947D01*
X177304606Y-58671631D01*
X177069493Y-58590916D01*
X176824293Y-58550000D01*
X176575707Y-58550000D01*
X176330506Y-58590916D01*
X176095393Y-58671631D01*
X175876764Y-58789946D01*
X175829942Y-58826388D01*
X175829942Y-58826390D01*
X176528431Y-59524878D01*
X176411542Y-59575651D01*
X176294261Y-59671066D01*
X176207072Y-59794585D01*
X176176645Y-59880197D01*
X175476564Y-59180116D01*
X175376266Y-59333634D01*
X175276413Y-59561278D01*
X175215386Y-59802267D01*
X175194858Y-60049999D01*
X173555659Y-60049999D01*
X173535063Y-59814592D01*
X173473903Y-59586337D01*
X173374035Y-59372171D01*
X173238495Y-59178599D01*
X173071401Y-59011505D01*
X172877830Y-58875965D01*
X172663663Y-58776097D01*
X172601818Y-58759526D01*
X172435407Y-58714936D01*
X172200000Y-58694340D01*
X171964592Y-58714936D01*
X171736336Y-58776097D01*
X171721061Y-58783220D01*
X171651983Y-58793711D01*
X171588199Y-58765190D01*
X171580977Y-58758518D01*
X170911818Y-58089359D01*
X170878333Y-58028036D01*
X170875499Y-58001678D01*
X170875499Y-56599999D01*
X171194858Y-56599999D01*
X171215386Y-56847732D01*
X171276413Y-57088721D01*
X171376268Y-57316370D01*
X171476563Y-57469882D01*
X171476564Y-57469882D01*
X172174070Y-56772376D01*
X172176884Y-56785915D01*
X172246442Y-56920156D01*
X172349638Y-57030652D01*
X172478819Y-57109209D01*
X172530002Y-57123549D01*
X171829942Y-57823609D01*
X171829942Y-57823610D01*
X171876766Y-57860055D01*
X172095393Y-57978368D01*
X172330506Y-58059083D01*
X172575707Y-58100000D01*
X172824293Y-58100000D01*
X173069493Y-58059083D01*
X173304606Y-57978368D01*
X173523233Y-57860053D01*
X173570056Y-57823609D01*
X172871568Y-57125121D01*
X172988458Y-57074349D01*
X173105739Y-56978934D01*
X173192928Y-56855415D01*
X173223354Y-56769802D01*
X173923434Y-57469882D01*
X174023730Y-57316369D01*
X174123586Y-57088721D01*
X174184613Y-56847732D01*
X174205141Y-56600000D01*
X174184613Y-56352267D01*
X174123586Y-56111278D01*
X174023730Y-55883630D01*
X173923434Y-55730116D01*
X173225929Y-56427622D01*
X173223116Y-56414085D01*
X173153558Y-56279844D01*
X173050362Y-56169348D01*
X172921181Y-56090791D01*
X172869997Y-56076450D01*
X173570057Y-55376390D01*
X173570056Y-55376388D01*
X173523235Y-55339947D01*
X173304606Y-55221631D01*
X173069493Y-55140916D01*
X172824293Y-55100000D01*
X172575707Y-55100000D01*
X172330506Y-55140916D01*
X172095393Y-55221631D01*
X171876764Y-55339946D01*
X171829942Y-55376388D01*
X171829942Y-55376390D01*
X172528431Y-56074878D01*
X172411542Y-56125651D01*
X172294261Y-56221066D01*
X172207072Y-56344585D01*
X172176645Y-56430197D01*
X171476564Y-55730116D01*
X171376266Y-55883634D01*
X171276413Y-56111278D01*
X171215386Y-56352267D01*
X171194858Y-56599999D01*
X170875499Y-56599999D01*
X170875499Y-53855275D01*
X170875499Y-53500000D01*
X179994389Y-53500000D01*
X180014804Y-53785429D01*
X180075629Y-54065041D01*
X180102878Y-54138098D01*
X180150406Y-54265526D01*
X180175634Y-54333163D01*
X180312772Y-54584313D01*
X180352009Y-54636727D01*
X180484261Y-54813395D01*
X180686605Y-55015739D01*
X180853822Y-55140916D01*
X180915686Y-55187227D01*
X181035443Y-55252619D01*
X181166839Y-55324367D01*
X181434954Y-55424369D01*
X181434957Y-55424369D01*
X181434958Y-55424370D01*
X181442295Y-55425966D01*
X181714572Y-55485196D01*
X182000000Y-55505610D01*
X182285428Y-55485196D01*
X182565046Y-55424369D01*
X182833161Y-55324367D01*
X183084315Y-55187226D01*
X183313395Y-55015739D01*
X183515739Y-54813395D01*
X183687226Y-54584315D01*
X183824367Y-54333161D01*
X183924369Y-54065046D01*
X183985196Y-53785428D01*
X184005610Y-53500000D01*
X183985196Y-53214572D01*
X183925572Y-52940482D01*
X183924370Y-52934958D01*
X183919514Y-52921938D01*
X183824367Y-52666839D01*
X183743376Y-52518515D01*
X183687227Y-52415686D01*
X183624186Y-52331474D01*
X183515739Y-52186605D01*
X183313395Y-51984261D01*
X183188241Y-51890572D01*
X183084313Y-51812772D01*
X182833163Y-51675634D01*
X182833162Y-51675633D01*
X182833161Y-51675633D01*
X182585500Y-51583260D01*
X182565041Y-51575629D01*
X182285429Y-51514804D01*
X182000000Y-51494389D01*
X181714570Y-51514804D01*
X181434958Y-51575629D01*
X181166836Y-51675634D01*
X180915686Y-51812772D01*
X180686602Y-51984263D01*
X180484263Y-52186602D01*
X180312772Y-52415686D01*
X180175634Y-52666836D01*
X180075629Y-52934958D01*
X180014804Y-53214570D01*
X179994389Y-53500000D01*
X170875499Y-53500000D01*
X170875499Y-50100000D01*
X171194858Y-50100000D01*
X171215386Y-50347732D01*
X171276413Y-50588721D01*
X171376268Y-50816370D01*
X171476563Y-50969882D01*
X171476564Y-50969882D01*
X172174070Y-50272375D01*
X172176884Y-50285915D01*
X172246442Y-50420156D01*
X172349638Y-50530652D01*
X172478819Y-50609209D01*
X172530002Y-50623549D01*
X171829942Y-51323609D01*
X171829942Y-51323610D01*
X171876766Y-51360055D01*
X172095393Y-51478368D01*
X172330506Y-51559083D01*
X172575707Y-51600000D01*
X172824293Y-51600000D01*
X173069493Y-51559083D01*
X173304606Y-51478368D01*
X173523233Y-51360053D01*
X173570056Y-51323609D01*
X172871568Y-50625121D01*
X172988458Y-50574349D01*
X173105739Y-50478934D01*
X173192928Y-50355415D01*
X173223354Y-50269802D01*
X173923434Y-50969882D01*
X174023730Y-50816369D01*
X174123586Y-50588721D01*
X174184613Y-50347732D01*
X174205141Y-50099999D01*
X174184613Y-49852267D01*
X174123586Y-49611278D01*
X174023730Y-49383630D01*
X173923434Y-49230116D01*
X173225929Y-49927622D01*
X173223116Y-49914085D01*
X173153558Y-49779844D01*
X173050362Y-49669348D01*
X172921181Y-49590791D01*
X172869997Y-49576450D01*
X173570057Y-48876390D01*
X173570056Y-48876388D01*
X173523235Y-48839947D01*
X173304606Y-48721631D01*
X173069493Y-48640916D01*
X172824293Y-48600000D01*
X172575707Y-48600000D01*
X172330506Y-48640916D01*
X172095393Y-48721631D01*
X171876764Y-48839946D01*
X171829942Y-48876388D01*
X171829942Y-48876390D01*
X172528431Y-49574878D01*
X172411542Y-49625651D01*
X172294261Y-49721066D01*
X172207072Y-49844585D01*
X172176645Y-49930196D01*
X171476564Y-49230117D01*
X171376266Y-49383634D01*
X171276413Y-49611278D01*
X171215386Y-49852267D01*
X171194858Y-50100000D01*
X170875499Y-50100000D01*
X170875499Y-49664443D01*
X170878332Y-49638100D01*
X170879166Y-49634270D01*
X170875816Y-49587432D01*
X170875500Y-49578586D01*
X170875500Y-49565990D01*
X170875500Y-49565989D01*
X170873705Y-49553511D01*
X170872760Y-49544716D01*
X170871851Y-49532010D01*
X170869411Y-49497885D01*
X170868042Y-49494216D01*
X170861488Y-49468534D01*
X170860931Y-49464658D01*
X170841416Y-49421926D01*
X170838038Y-49413771D01*
X170821627Y-49369771D01*
X170819285Y-49366643D01*
X170805755Y-49343839D01*
X170804131Y-49340283D01*
X170800646Y-49336261D01*
X170773367Y-49304778D01*
X170767830Y-49297908D01*
X170767813Y-49297885D01*
X170760278Y-49287820D01*
X170751384Y-49278926D01*
X170745352Y-49272448D01*
X170714588Y-49236944D01*
X170711287Y-49234823D01*
X170690648Y-49218190D01*
X165081808Y-43609349D01*
X165065174Y-43588708D01*
X165063055Y-43585411D01*
X165027565Y-43554659D01*
X165021086Y-43548627D01*
X165012180Y-43539721D01*
X165002093Y-43532170D01*
X164995214Y-43526627D01*
X164959718Y-43495870D01*
X164959716Y-43495869D01*
X164956150Y-43494240D01*
X164933369Y-43480722D01*
X164930231Y-43478373D01*
X164912436Y-43471736D01*
X164886219Y-43461957D01*
X164878045Y-43458571D01*
X164835343Y-43439069D01*
X164834654Y-43438970D01*
X164831458Y-43438510D01*
X164805781Y-43431956D01*
X164802115Y-43430588D01*
X164755275Y-43427237D01*
X164746491Y-43426293D01*
X164734012Y-43424500D01*
X164734011Y-43424500D01*
X164721422Y-43424500D01*
X164712575Y-43424184D01*
X164665729Y-43420833D01*
X164665728Y-43420833D01*
X164661900Y-43421666D01*
X164635541Y-43424500D01*
X161648320Y-43424500D01*
X161581281Y-43404815D01*
X161560639Y-43388181D01*
X160267911Y-42095452D01*
X160234426Y-42034129D01*
X160239410Y-41964437D01*
X160281282Y-41908504D01*
X160325892Y-41891463D01*
X160324930Y-41887871D01*
X160388732Y-41870774D01*
X160563663Y-41823903D01*
X160777830Y-41724035D01*
X160971401Y-41588495D01*
X161138495Y-41421401D01*
X161274035Y-41227830D01*
X161373903Y-41013663D01*
X161435063Y-40785408D01*
X161455659Y-40550000D01*
X163094858Y-40550000D01*
X163115386Y-40797732D01*
X163176413Y-41038721D01*
X163276268Y-41266370D01*
X163376563Y-41419882D01*
X163376564Y-41419882D01*
X164074070Y-40722375D01*
X164076884Y-40735915D01*
X164146442Y-40870156D01*
X164249638Y-40980652D01*
X164378819Y-41059209D01*
X164430002Y-41073549D01*
X163729942Y-41773609D01*
X163729942Y-41773610D01*
X163776766Y-41810055D01*
X163995393Y-41928368D01*
X164230506Y-42009083D01*
X164475707Y-42050000D01*
X164724293Y-42050000D01*
X164969493Y-42009083D01*
X165204606Y-41928368D01*
X165423233Y-41810053D01*
X165470056Y-41773609D01*
X164771568Y-41075121D01*
X164888458Y-41024349D01*
X165005739Y-40928934D01*
X165092928Y-40805415D01*
X165123354Y-40719802D01*
X165823434Y-41419882D01*
X165923730Y-41266369D01*
X166023586Y-41038721D01*
X166084613Y-40797732D01*
X166105141Y-40550000D01*
X166084613Y-40302267D01*
X166023586Y-40061278D01*
X165923730Y-39833630D01*
X165823434Y-39680116D01*
X165125929Y-40377622D01*
X165123116Y-40364085D01*
X165053558Y-40229844D01*
X164950362Y-40119348D01*
X164821181Y-40040791D01*
X164769995Y-40026449D01*
X165470056Y-39326389D01*
X165470056Y-39326387D01*
X165423235Y-39289947D01*
X165204606Y-39171631D01*
X164969493Y-39090916D01*
X164724293Y-39050000D01*
X164475707Y-39050000D01*
X164230506Y-39090916D01*
X163995393Y-39171631D01*
X163776764Y-39289946D01*
X163729942Y-39326388D01*
X163729941Y-39326389D01*
X164428431Y-40024878D01*
X164311542Y-40075651D01*
X164194261Y-40171066D01*
X164107072Y-40294585D01*
X164076645Y-40380196D01*
X163376564Y-39680117D01*
X163276266Y-39833634D01*
X163176413Y-40061278D01*
X163115386Y-40302267D01*
X163094858Y-40550000D01*
X161455659Y-40550000D01*
X161435063Y-40314592D01*
X161373903Y-40086337D01*
X161274035Y-39872171D01*
X161138495Y-39678599D01*
X160971401Y-39511505D01*
X160777830Y-39375965D01*
X160563663Y-39276097D01*
X160466278Y-39250003D01*
X160335407Y-39214936D01*
X160100000Y-39194340D01*
X159864592Y-39214936D01*
X159636336Y-39276097D01*
X159422170Y-39375965D01*
X159228601Y-39511503D01*
X159143962Y-39596142D01*
X159082638Y-39629626D01*
X159012947Y-39624642D01*
X158968600Y-39596141D01*
X155872459Y-36500000D01*
X171494356Y-36500000D01*
X171514891Y-36747816D01*
X171514891Y-36747819D01*
X171514892Y-36747821D01*
X171575937Y-36988881D01*
X171620960Y-37091523D01*
X171675825Y-37216604D01*
X171675827Y-37216607D01*
X171811836Y-37424785D01*
X171980256Y-37607738D01*
X171980259Y-37607740D01*
X172176485Y-37760470D01*
X172176487Y-37760471D01*
X172176491Y-37760474D01*
X172395190Y-37878828D01*
X172630386Y-37959571D01*
X172875665Y-38000500D01*
X173124335Y-38000500D01*
X173369614Y-37959571D01*
X173604810Y-37878828D01*
X173823509Y-37760474D01*
X174019744Y-37607738D01*
X174188164Y-37424785D01*
X174324173Y-37216607D01*
X174424063Y-36988881D01*
X174485108Y-36747821D01*
X174505643Y-36500000D01*
X174485108Y-36252179D01*
X174424063Y-36011119D01*
X174324173Y-35783393D01*
X174188164Y-35575215D01*
X174019744Y-35392262D01*
X173965655Y-35350163D01*
X173823514Y-35239529D01*
X173823510Y-35239526D01*
X173823509Y-35239526D01*
X173604810Y-35121172D01*
X173604806Y-35121170D01*
X173604805Y-35121170D01*
X173369615Y-35040429D01*
X173124335Y-34999500D01*
X172875665Y-34999500D01*
X172630384Y-35040429D01*
X172395194Y-35121170D01*
X172176485Y-35239529D01*
X171980259Y-35392259D01*
X171980256Y-35392261D01*
X171980256Y-35392262D01*
X171811836Y-35575215D01*
X171768595Y-35641401D01*
X171675825Y-35783395D01*
X171602988Y-35949448D01*
X171575937Y-36011119D01*
X171557228Y-36085000D01*
X171514891Y-36252183D01*
X171494356Y-36500000D01*
X155872459Y-36500000D01*
X154159329Y-34786870D01*
X154125844Y-34725547D01*
X154130828Y-34655855D01*
X154172700Y-34599922D01*
X154238164Y-34575505D01*
X154299415Y-34586807D01*
X154356509Y-34613430D01*
X154570000Y-34670634D01*
X154570000Y-33775501D01*
X154677685Y-33824680D01*
X154784237Y-33840000D01*
X154855763Y-33840000D01*
X154962315Y-33824680D01*
X155070000Y-33775501D01*
X155070000Y-34670633D01*
X155283490Y-34613430D01*
X155497576Y-34513600D01*
X155691081Y-34378106D01*
X155858106Y-34211081D01*
X155993600Y-34017576D01*
X156060282Y-33874578D01*
X156106454Y-33822139D01*
X156173648Y-33802987D01*
X156240529Y-33823203D01*
X156283664Y-33871711D01*
X156334941Y-33974688D01*
X156469019Y-34152237D01*
X156633437Y-34302124D01*
X156822595Y-34419245D01*
X156822597Y-34419245D01*
X156822599Y-34419247D01*
X157030060Y-34499618D01*
X157248757Y-34540500D01*
X157248759Y-34540500D01*
X157471241Y-34540500D01*
X157471243Y-34540500D01*
X157689940Y-34499618D01*
X157897401Y-34419247D01*
X158086562Y-34302124D01*
X158250981Y-34152236D01*
X158385058Y-33974689D01*
X158484229Y-33775528D01*
X158487239Y-33764952D01*
X158510734Y-33682374D01*
X158548013Y-33623281D01*
X158611322Y-33593723D01*
X158680562Y-33603085D01*
X158733749Y-33648395D01*
X158749266Y-33682374D01*
X158775769Y-33775526D01*
X158874941Y-33974688D01*
X159009019Y-34152237D01*
X159173437Y-34302124D01*
X159362595Y-34419245D01*
X159362597Y-34419245D01*
X159362599Y-34419247D01*
X159570060Y-34499618D01*
X159788757Y-34540500D01*
X159788759Y-34540500D01*
X160011241Y-34540500D01*
X160011243Y-34540500D01*
X160229940Y-34499618D01*
X160437401Y-34419247D01*
X160626562Y-34302124D01*
X160790981Y-34152236D01*
X160925058Y-33974689D01*
X161024229Y-33775528D01*
X161027239Y-33764952D01*
X161073293Y-33603085D01*
X161085115Y-33561536D01*
X161105643Y-33340000D01*
X161085115Y-33118464D01*
X161054027Y-33009202D01*
X161024230Y-32904473D01*
X160925058Y-32705311D01*
X160790980Y-32527762D01*
X160626562Y-32377875D01*
X160437404Y-32260754D01*
X160341692Y-32223675D01*
X160229940Y-32180382D01*
X160011243Y-32139500D01*
X159788757Y-32139500D01*
X159610165Y-32172885D01*
X159570060Y-32180382D01*
X159362595Y-32260754D01*
X159173437Y-32377875D01*
X159009019Y-32527762D01*
X158874941Y-32705311D01*
X158775769Y-32904473D01*
X158749266Y-32997625D01*
X158711987Y-33056719D01*
X158648677Y-33086276D01*
X158579438Y-33076914D01*
X158526251Y-33031604D01*
X158510734Y-32997625D01*
X158484230Y-32904473D01*
X158385058Y-32705311D01*
X158250980Y-32527762D01*
X158086562Y-32377875D01*
X157897404Y-32260754D01*
X157801692Y-32223675D01*
X157689940Y-32180382D01*
X157471243Y-32139500D01*
X157248757Y-32139500D01*
X157070165Y-32172885D01*
X157030060Y-32180382D01*
X156822595Y-32260754D01*
X156633437Y-32377875D01*
X156469019Y-32527762D01*
X156334941Y-32705311D01*
X156283664Y-32808289D01*
X156236161Y-32859526D01*
X156168498Y-32876947D01*
X156102158Y-32855021D01*
X156060282Y-32805422D01*
X155993599Y-32662421D01*
X155858109Y-32468921D01*
X155691081Y-32301893D01*
X155497576Y-32166399D01*
X155283492Y-32066569D01*
X155070000Y-32009364D01*
X155070000Y-32904498D01*
X154962315Y-32855320D01*
X154855763Y-32840000D01*
X154784237Y-32840000D01*
X154677685Y-32855320D01*
X154570000Y-32904498D01*
X154570000Y-32009364D01*
X154569999Y-32009364D01*
X154356507Y-32066569D01*
X154142421Y-32166400D01*
X153948921Y-32301890D01*
X153781890Y-32468921D01*
X153646400Y-32662421D01*
X153546569Y-32876507D01*
X153489364Y-33089999D01*
X153489364Y-33090000D01*
X154386314Y-33090000D01*
X154360507Y-33130156D01*
X154320000Y-33268111D01*
X154320000Y-33411889D01*
X154360507Y-33549844D01*
X154386314Y-33590000D01*
X153489364Y-33590000D01*
X153546570Y-33803495D01*
X153573191Y-33860584D01*
X153583683Y-33929661D01*
X153555163Y-33993445D01*
X153496686Y-34031684D01*
X153426819Y-34032238D01*
X153373128Y-34000669D01*
X150256808Y-30884349D01*
X150240174Y-30863708D01*
X150238055Y-30860411D01*
X150202565Y-30829659D01*
X150196086Y-30823627D01*
X150187180Y-30814721D01*
X150177093Y-30807170D01*
X150170214Y-30801627D01*
X150134718Y-30770870D01*
X150134716Y-30770869D01*
X150131150Y-30769240D01*
X150108369Y-30755722D01*
X150105230Y-30753372D01*
X150071205Y-30740682D01*
X150015271Y-30698811D01*
X149990854Y-30633346D01*
X150005706Y-30565073D01*
X150055111Y-30515668D01*
X150114538Y-30500500D01*
X161998695Y-30500500D01*
X162001257Y-30500525D01*
G37*
%TD.AperFunction*%
%TA.AperFunction,Conductor*%
G36*
X136063718Y-48995185D02*
G01*
X136084360Y-49011819D01*
X136560360Y-49487819D01*
X136593845Y-49549142D01*
X136588861Y-49618834D01*
X136546989Y-49674767D01*
X136481525Y-49699184D01*
X136472679Y-49699500D01*
X135791737Y-49699500D01*
X135723609Y-49709426D01*
X135723606Y-49709427D01*
X135723607Y-49709427D01*
X135694992Y-49723416D01*
X135694460Y-49723676D01*
X135625587Y-49735434D01*
X135585540Y-49723676D01*
X135585538Y-49723675D01*
X135556393Y-49709427D01*
X135556391Y-49709426D01*
X135556390Y-49709426D01*
X135488263Y-49699500D01*
X135488260Y-49699500D01*
X134521740Y-49699500D01*
X134521737Y-49699500D01*
X134453609Y-49709426D01*
X134453606Y-49709427D01*
X134453607Y-49709427D01*
X134424992Y-49723416D01*
X134424460Y-49723676D01*
X134355587Y-49735434D01*
X134315540Y-49723676D01*
X134315538Y-49723675D01*
X134286393Y-49709427D01*
X134286391Y-49709426D01*
X134286390Y-49709426D01*
X134218263Y-49699500D01*
X134218260Y-49699500D01*
X133251740Y-49699500D01*
X133251737Y-49699500D01*
X133183606Y-49709426D01*
X133154456Y-49723676D01*
X133085582Y-49735433D01*
X133045540Y-49723675D01*
X133016392Y-49709426D01*
X132948263Y-49699500D01*
X132948260Y-49699500D01*
X132052396Y-49699500D01*
X131985357Y-49679815D01*
X131978085Y-49674767D01*
X131887089Y-49606647D01*
X131752371Y-49556400D01*
X131696132Y-49550354D01*
X131689518Y-49550000D01*
X131445000Y-49550000D01*
X131445000Y-52031178D01*
X131425315Y-52098217D01*
X131408681Y-52118859D01*
X131068467Y-52459072D01*
X131007144Y-52492557D01*
X130937452Y-52487573D01*
X130881519Y-52445701D01*
X130857102Y-52380237D01*
X130861936Y-52353503D01*
X130858393Y-52352994D01*
X130860929Y-52335344D01*
X130860931Y-52335342D01*
X130861488Y-52331465D01*
X130868045Y-52305778D01*
X130868525Y-52304488D01*
X130869411Y-52302115D01*
X130872761Y-52255269D01*
X130873707Y-52246478D01*
X130873961Y-52244716D01*
X130875500Y-52234011D01*
X130875500Y-52221421D01*
X130875816Y-52212574D01*
X130877387Y-52190606D01*
X130879167Y-52165729D01*
X130879166Y-52165727D01*
X130879711Y-52158119D01*
X130904128Y-52092655D01*
X130915714Y-52079284D01*
X130945000Y-52049998D01*
X130945000Y-49578820D01*
X130964685Y-49511781D01*
X130981319Y-49491139D01*
X131190730Y-49281729D01*
X131460639Y-49011819D01*
X131521963Y-48978334D01*
X131548321Y-48975500D01*
X135996679Y-48975500D01*
X136063718Y-48995185D01*
G37*
%TD.AperFunction*%
%TA.AperFunction,Conductor*%
G36*
X134560562Y-57573085D02*
G01*
X134613749Y-57618395D01*
X134629266Y-57652374D01*
X134655769Y-57745526D01*
X134754941Y-57944688D01*
X134889019Y-58122237D01*
X135053437Y-58272124D01*
X135245777Y-58391215D01*
X135292413Y-58443243D01*
X135304500Y-58496642D01*
X135304500Y-59225541D01*
X135301666Y-59251899D01*
X135300833Y-59255729D01*
X135302490Y-59278898D01*
X135304184Y-59302574D01*
X135304500Y-59311421D01*
X135304500Y-59324011D01*
X135306293Y-59336491D01*
X135307237Y-59345275D01*
X135310588Y-59392115D01*
X135311956Y-59395781D01*
X135318510Y-59421458D01*
X135318970Y-59424654D01*
X135319069Y-59425343D01*
X135338571Y-59468045D01*
X135341957Y-59476219D01*
X135344012Y-59481729D01*
X135358373Y-59520231D01*
X135360722Y-59523369D01*
X135374240Y-59546150D01*
X135375870Y-59549718D01*
X135406627Y-59585214D01*
X135412170Y-59592093D01*
X135419721Y-59602180D01*
X135428627Y-59611086D01*
X135434659Y-59617565D01*
X135465411Y-59653055D01*
X135468708Y-59655174D01*
X135489349Y-59671808D01*
X136490909Y-60673368D01*
X136524394Y-60734691D01*
X136526448Y-60774932D01*
X136524750Y-60790000D01*
X136543686Y-60958056D01*
X136543686Y-60958058D01*
X136543687Y-60958059D01*
X136599544Y-61117690D01*
X136689523Y-61260890D01*
X136809110Y-61380477D01*
X136952310Y-61470456D01*
X137111941Y-61526313D01*
X137280000Y-61545249D01*
X137448059Y-61526313D01*
X137607690Y-61470456D01*
X137750890Y-61380477D01*
X137870477Y-61260890D01*
X137960456Y-61117690D01*
X138016313Y-60958059D01*
X138035249Y-60790000D01*
X138032586Y-60766370D01*
X138024738Y-60696717D01*
X138016313Y-60621941D01*
X137960456Y-60462310D01*
X137870477Y-60319110D01*
X137750890Y-60199523D01*
X137607690Y-60109544D01*
X137448059Y-60053687D01*
X137448058Y-60053686D01*
X137448056Y-60053686D01*
X137280000Y-60034750D01*
X137264932Y-60036448D01*
X137196110Y-60024393D01*
X137163368Y-60000909D01*
X136291819Y-59129360D01*
X136258334Y-59068037D01*
X136255500Y-59041679D01*
X136255500Y-58496642D01*
X136275185Y-58429603D01*
X136314223Y-58391215D01*
X136506562Y-58272124D01*
X136600792Y-58186222D01*
X136670981Y-58122236D01*
X136670982Y-58122235D01*
X136747046Y-58021510D01*
X136803154Y-57979873D01*
X136872866Y-57975181D01*
X136934048Y-58008923D01*
X136967276Y-58070387D01*
X136970000Y-58096236D01*
X136970000Y-58204518D01*
X136970354Y-58211132D01*
X136976400Y-58267371D01*
X137026647Y-58402089D01*
X137112811Y-58517188D01*
X137227910Y-58603352D01*
X137362628Y-58653599D01*
X137418867Y-58659645D01*
X137425482Y-58660000D01*
X138070000Y-58660000D01*
X138070000Y-57745501D01*
X138177685Y-57794680D01*
X138284237Y-57810000D01*
X138355763Y-57810000D01*
X138462315Y-57794680D01*
X138570000Y-57745501D01*
X138570000Y-58660000D01*
X139168178Y-58660000D01*
X139235217Y-58679685D01*
X139280972Y-58732489D01*
X139290916Y-58801647D01*
X139261891Y-58865203D01*
X139255859Y-58871681D01*
X138909346Y-59218194D01*
X138888708Y-59234826D01*
X138885410Y-59236945D01*
X138854663Y-59272429D01*
X138848641Y-59278898D01*
X138839722Y-59287818D01*
X138832158Y-59297921D01*
X138826613Y-59304800D01*
X138795867Y-59340284D01*
X138794235Y-59343857D01*
X138780723Y-59366630D01*
X138778370Y-59369773D01*
X138761960Y-59413770D01*
X138758574Y-59421944D01*
X138739068Y-59464657D01*
X138738511Y-59468535D01*
X138731958Y-59494212D01*
X138730589Y-59497883D01*
X138727237Y-59544725D01*
X138726293Y-59553509D01*
X138724500Y-59565988D01*
X138724500Y-59578577D01*
X138724184Y-59587424D01*
X138720833Y-59634269D01*
X138721666Y-59638098D01*
X138724500Y-59664458D01*
X138724500Y-63652679D01*
X138704815Y-63719718D01*
X138652011Y-63765473D01*
X138582853Y-63775417D01*
X138519297Y-63746392D01*
X138512819Y-63740360D01*
X133460056Y-58687597D01*
X133426571Y-58626274D01*
X133431555Y-58556582D01*
X133473427Y-58500649D01*
X133524948Y-58478028D01*
X133569940Y-58469618D01*
X133777401Y-58389247D01*
X133966562Y-58272124D01*
X134040722Y-58204518D01*
X134130980Y-58122237D01*
X134146175Y-58102116D01*
X134265058Y-57944689D01*
X134364229Y-57745528D01*
X134366362Y-57738034D01*
X134390734Y-57652374D01*
X134428013Y-57593281D01*
X134491322Y-57563723D01*
X134560562Y-57573085D01*
G37*
%TD.AperFunction*%
%TA.AperFunction,Conductor*%
G36*
X138460562Y-54093085D02*
G01*
X138513749Y-54138395D01*
X138529266Y-54172374D01*
X138555769Y-54265526D01*
X138654941Y-54464688D01*
X138789019Y-54642237D01*
X138953437Y-54792124D01*
X139142595Y-54909245D01*
X139142597Y-54909245D01*
X139142599Y-54909247D01*
X139350060Y-54989618D01*
X139568757Y-55030500D01*
X139568759Y-55030500D01*
X139791241Y-55030500D01*
X139791243Y-55030500D01*
X140009940Y-54989618D01*
X140217401Y-54909247D01*
X140406562Y-54792124D01*
X140492840Y-54713471D01*
X140516962Y-54691481D01*
X140579766Y-54660864D01*
X140649153Y-54669061D01*
X140703093Y-54713471D01*
X140724461Y-54779993D01*
X140724500Y-54783118D01*
X140724500Y-57351678D01*
X140704815Y-57418717D01*
X140688181Y-57439359D01*
X139881681Y-58245859D01*
X139820358Y-58279344D01*
X139750666Y-58274360D01*
X139694733Y-58232488D01*
X139670316Y-58167024D01*
X139670000Y-58158178D01*
X139670000Y-57560000D01*
X138753686Y-57560000D01*
X138779493Y-57519844D01*
X138820000Y-57381889D01*
X138820000Y-57238111D01*
X138779493Y-57100156D01*
X138753686Y-57060000D01*
X139670000Y-57060000D01*
X139670000Y-56415481D01*
X139669645Y-56408867D01*
X139663599Y-56352628D01*
X139613352Y-56217910D01*
X139527188Y-56102811D01*
X139412089Y-56016647D01*
X139277371Y-55966400D01*
X139221132Y-55960354D01*
X139214518Y-55960000D01*
X138570000Y-55960000D01*
X138570000Y-56874498D01*
X138462315Y-56825320D01*
X138355763Y-56810000D01*
X138284237Y-56810000D01*
X138177685Y-56825320D01*
X138070000Y-56874498D01*
X138070000Y-55960000D01*
X137425482Y-55960000D01*
X137418867Y-55960354D01*
X137362628Y-55966400D01*
X137227910Y-56016647D01*
X137112811Y-56102811D01*
X137026647Y-56217910D01*
X136976400Y-56352628D01*
X136970354Y-56408867D01*
X136970000Y-56415481D01*
X136970000Y-56523763D01*
X136950315Y-56590802D01*
X136897511Y-56636557D01*
X136828353Y-56646501D01*
X136764797Y-56617476D01*
X136747046Y-56598490D01*
X136670980Y-56497762D01*
X136506564Y-56347877D01*
X136314222Y-56228784D01*
X136267587Y-56176756D01*
X136255500Y-56123357D01*
X136255500Y-55872729D01*
X136275185Y-55805690D01*
X136291819Y-55785048D01*
X136328736Y-55748131D01*
X136370477Y-55706390D01*
X136460456Y-55563190D01*
X136516313Y-55403559D01*
X136535249Y-55235500D01*
X136520312Y-55102930D01*
X136516664Y-55070555D01*
X136528718Y-55001733D01*
X136576067Y-54950354D01*
X136643677Y-54932729D01*
X136684674Y-54941043D01*
X136810060Y-54989618D01*
X137028757Y-55030500D01*
X137028759Y-55030500D01*
X137251241Y-55030500D01*
X137251243Y-55030500D01*
X137469940Y-54989618D01*
X137677401Y-54909247D01*
X137866562Y-54792124D01*
X137952840Y-54713471D01*
X138030980Y-54642237D01*
X138030981Y-54642236D01*
X138165058Y-54464689D01*
X138264229Y-54265528D01*
X138264228Y-54265528D01*
X138264230Y-54265526D01*
X138290734Y-54172374D01*
X138328013Y-54113281D01*
X138391322Y-54083723D01*
X138460562Y-54093085D01*
G37*
%TD.AperFunction*%
%TA.AperFunction,Conductor*%
G36*
X129770000Y-55180000D02*
G01*
X130414518Y-55180000D01*
X130421130Y-55179645D01*
X130456368Y-55175857D01*
X130525127Y-55188261D01*
X130557305Y-55211465D01*
X131029179Y-55683339D01*
X131375442Y-56029601D01*
X131408927Y-56090924D01*
X131403943Y-56160615D01*
X131362071Y-56216549D01*
X131296607Y-56240966D01*
X131242967Y-56232909D01*
X131113907Y-56182911D01*
X131029940Y-56150382D01*
X130811243Y-56109500D01*
X130588757Y-56109500D01*
X130373799Y-56149683D01*
X130370060Y-56150382D01*
X130162595Y-56230754D01*
X129973437Y-56347875D01*
X129809019Y-56497762D01*
X129696599Y-56646632D01*
X129640490Y-56688268D01*
X129570778Y-56692959D01*
X129509964Y-56659586D01*
X128311818Y-55461440D01*
X128278333Y-55400117D01*
X128275499Y-55373768D01*
X128275499Y-55245096D01*
X128295184Y-55178061D01*
X128347988Y-55132306D01*
X128417146Y-55122362D01*
X128442833Y-55128918D01*
X128562628Y-55173599D01*
X128618867Y-55179645D01*
X128625482Y-55180000D01*
X129270000Y-55180000D01*
X129269999Y-54265501D01*
X129377685Y-54314680D01*
X129484237Y-54330000D01*
X129555763Y-54330000D01*
X129662315Y-54314680D01*
X129770000Y-54265501D01*
X129770000Y-55180000D01*
G37*
%TD.AperFunction*%
%TD*%
M02*
