%TF.GenerationSoftware,KiCad,Pcbnew,7.0.2-1.fc38*%
%TF.CreationDate,2023-06-06T12:07:17+02:00*%
%TF.ProjectId,gps_compass,6770735f-636f-46d7-9061-73732e6b6963,rev?*%
%TF.SameCoordinates,Original*%
%TF.FileFunction,Soldermask,Bot*%
%TF.FilePolarity,Negative*%
%FSLAX46Y46*%
G04 Gerber Fmt 4.6, Leading zero omitted, Abs format (unit mm)*
G04 Created by KiCad (PCBNEW 7.0.2-1.fc38) date 2023-06-06 12:07:17*
%MOMM*%
%LPD*%
G01*
G04 APERTURE LIST*
G04 Aperture macros list*
%AMRoundRect*
0 Rectangle with rounded corners*
0 $1 Rounding radius*
0 $2 $3 $4 $5 $6 $7 $8 $9 X,Y pos of 4 corners*
0 Add a 4 corners polygon primitive as box body*
4,1,4,$2,$3,$4,$5,$6,$7,$8,$9,$2,$3,0*
0 Add four circle primitives for the rounded corners*
1,1,$1+$1,$2,$3*
1,1,$1+$1,$4,$5*
1,1,$1+$1,$6,$7*
1,1,$1+$1,$8,$9*
0 Add four rect primitives between the rounded corners*
20,1,$1+$1,$2,$3,$4,$5,0*
20,1,$1+$1,$4,$5,$6,$7,0*
20,1,$1+$1,$6,$7,$8,$9,0*
20,1,$1+$1,$8,$9,$2,$3,0*%
%AMRotRect*
0 Rectangle, with rotation*
0 The origin of the aperture is its center*
0 $1 length*
0 $2 width*
0 $3 Rotation angle, in degrees counterclockwise*
0 Add horizontal line*
21,1,$1,$2,0,0,$3*%
G04 Aperture macros list end*
%ADD10C,1.700000*%
%ADD11O,1.700000X1.700000*%
%ADD12R,1.700000X1.700000*%
%ADD13C,2.000000*%
%ADD14R,1.800000X1.800000*%
%ADD15C,1.800000*%
%ADD16RoundRect,0.150000X0.587500X0.150000X-0.587500X0.150000X-0.587500X-0.150000X0.587500X-0.150000X0*%
%ADD17RoundRect,0.237500X-0.250000X-0.237500X0.250000X-0.237500X0.250000X0.237500X-0.250000X0.237500X0*%
%ADD18RoundRect,0.237500X-0.237500X0.250000X-0.237500X-0.250000X0.237500X-0.250000X0.237500X0.250000X0*%
%ADD19R,1.800000X0.700000*%
%ADD20R,2.200000X1.600000*%
%ADD21RoundRect,0.250000X0.337500X0.475000X-0.337500X0.475000X-0.337500X-0.475000X0.337500X-0.475000X0*%
%ADD22RoundRect,0.237500X0.250000X0.237500X-0.250000X0.237500X-0.250000X-0.237500X0.250000X-0.237500X0*%
%ADD23R,2.000000X0.650000*%
%ADD24R,0.900000X1.500000*%
%ADD25R,1.500000X0.900000*%
%ADD26RoundRect,0.250000X-0.337500X-0.475000X0.337500X-0.475000X0.337500X0.475000X-0.337500X0.475000X0*%
%ADD27R,1.000000X0.800000*%
%ADD28C,0.900000*%
%ADD29R,0.700000X1.500000*%
%ADD30R,0.700000X1.750000*%
%ADD31R,1.450000X1.000000*%
%ADD32R,1.000000X1.550000*%
%ADD33R,0.800000X1.500000*%
%ADD34R,1.300000X1.500000*%
%ADD35R,1.500000X1.500000*%
%ADD36R,0.800000X1.400000*%
%ADD37C,0.700000*%
%ADD38O,1.700000X0.900000*%
%ADD39O,2.400000X0.900000*%
%ADD40RotRect,1.000000X0.800000X190.000000*%
%ADD41RotRect,0.700000X1.500000X190.000000*%
G04 APERTURE END LIST*
D10*
%TO.C,Serial1*%
X159900000Y-33340000D03*
D11*
X157360000Y-33340000D03*
X154820000Y-33340000D03*
%TD*%
D12*
%TO.C,LCD*%
X129520000Y-53830000D03*
D11*
X132060000Y-53830000D03*
X134600000Y-53830000D03*
X137140000Y-53830000D03*
X139680000Y-53830000D03*
%TD*%
D13*
%TO.C,SWdown1*%
X168200000Y-56600000D03*
X168200000Y-50100000D03*
X172700000Y-56600000D03*
X172700000Y-50100000D03*
%TD*%
D12*
%TO.C,GY-271*%
X156630000Y-71860000D03*
D11*
X156630000Y-69320000D03*
X156630000Y-66780000D03*
X156630000Y-64240000D03*
X156630000Y-61700000D03*
%TD*%
D13*
%TO.C,SWright1*%
X164600000Y-40550000D03*
X164600000Y-47050000D03*
X160100000Y-40550000D03*
X160100000Y-47050000D03*
%TD*%
%TO.C,SWleft1*%
X160100000Y-56600000D03*
X160100000Y-50100000D03*
X164600000Y-56600000D03*
X164600000Y-50100000D03*
%TD*%
D12*
%TO.C,Oled*%
X138320000Y-57310000D03*
D11*
X135780000Y-57310000D03*
X133240000Y-57310000D03*
X130700000Y-57310000D03*
%TD*%
D13*
%TO.C,SWb1*%
X172200000Y-66550000D03*
X172200000Y-60050000D03*
X176700000Y-66550000D03*
X176700000Y-60050000D03*
%TD*%
%TO.C,SWa1*%
X160100000Y-66200000D03*
X160100000Y-59700000D03*
X164600000Y-66200000D03*
X164600000Y-59700000D03*
%TD*%
%TO.C,SWup1*%
X152000000Y-56600000D03*
X152000000Y-50100000D03*
X156500000Y-56600000D03*
X156500000Y-50100000D03*
%TD*%
D14*
%TO.C,LED*%
X114000000Y-44100000D03*
D15*
X114000000Y-41560000D03*
%TD*%
D16*
%TO.C,Q1*%
X129500000Y-68050000D03*
X129500000Y-69950000D03*
X127625000Y-69000000D03*
%TD*%
D17*
%TO.C,R6*%
X123487500Y-58100000D03*
X125312500Y-58100000D03*
%TD*%
D18*
%TO.C,R1*%
X145200000Y-53787500D03*
X145200000Y-55612500D03*
%TD*%
%TO.C,R2*%
X147000000Y-53787500D03*
X147000000Y-55612500D03*
%TD*%
D19*
%TO.C,BT1*%
X117250000Y-55775000D03*
X117250000Y-57025000D03*
D20*
X119950000Y-53525000D03*
X119950000Y-59275000D03*
%TD*%
D21*
%TO.C,C5*%
X125400000Y-61600000D03*
X123325000Y-61600000D03*
%TD*%
D22*
%TO.C,R3*%
X125475000Y-63700000D03*
X123650000Y-63700000D03*
%TD*%
D23*
%TO.C,U3*%
X121552500Y-69950000D03*
X121552500Y-69000000D03*
X121552500Y-68050000D03*
X124972500Y-68050000D03*
X124972500Y-69000000D03*
X124972500Y-69950000D03*
%TD*%
D24*
%TO.C,ESP32-S*%
X131195000Y-33300000D03*
X132465000Y-33300000D03*
X133735000Y-33300000D03*
X135005000Y-33300000D03*
X136275000Y-33300000D03*
X137545000Y-33300000D03*
X138815000Y-33300000D03*
X140085000Y-33300000D03*
X141355000Y-33300000D03*
X142625000Y-33300000D03*
X143895000Y-33300000D03*
X145165000Y-33300000D03*
X146435000Y-33300000D03*
X147705000Y-33300000D03*
D25*
X148800000Y-36335000D03*
X148800000Y-37605000D03*
X148800000Y-38875000D03*
X148800000Y-40145000D03*
X148800000Y-41415000D03*
X148800000Y-42685000D03*
X148800000Y-43955000D03*
X148800000Y-45225000D03*
X148800000Y-46495000D03*
X148800000Y-47765000D03*
D24*
X147705000Y-50800000D03*
X146435000Y-50800000D03*
X145165000Y-50800000D03*
X143895000Y-50800000D03*
X142625000Y-50800000D03*
X141355000Y-50800000D03*
X140085000Y-50800000D03*
X138815000Y-50800000D03*
X137545000Y-50800000D03*
X136275000Y-50800000D03*
X135005000Y-50800000D03*
X133735000Y-50800000D03*
X132465000Y-50800000D03*
X131195000Y-50800000D03*
%TD*%
D26*
%TO.C,C7*%
X132062500Y-70400000D03*
X134137500Y-70400000D03*
%TD*%
%TO.C,C6*%
X132062500Y-68000000D03*
X134137500Y-68000000D03*
%TD*%
D16*
%TO.C,U1*%
X129500000Y-63850000D03*
X129500000Y-65750000D03*
X127625000Y-64800000D03*
%TD*%
D27*
%TO.C,MAIN*%
X134750000Y-75900000D03*
X134750000Y-73690000D03*
D28*
X132600000Y-74800000D03*
X129600000Y-74800000D03*
D27*
X127450000Y-75900000D03*
X127450000Y-73690000D03*
D29*
X133350000Y-73040000D03*
X130350000Y-73040000D03*
X128850000Y-73040000D03*
%TD*%
D22*
%TO.C,R5*%
X125312500Y-56400000D03*
X123487500Y-56400000D03*
%TD*%
D26*
%TO.C,C1*%
X127462500Y-61600000D03*
X129537500Y-61600000D03*
%TD*%
D30*
%TO.C,microsd*%
X144905000Y-72100000D03*
X146005000Y-72100000D03*
X147105000Y-72100000D03*
X148205000Y-72100000D03*
X149305000Y-72100000D03*
X150405000Y-72100000D03*
X151505000Y-72100000D03*
X152605000Y-72100000D03*
D31*
X153730000Y-62875000D03*
D32*
X142505000Y-61300000D03*
D33*
X154055000Y-64375000D03*
D34*
X153805000Y-71975000D03*
D35*
X142455000Y-71975000D03*
D36*
X142105000Y-63725000D03*
%TD*%
D26*
%TO.C,C2*%
X121562500Y-65900000D03*
X123637500Y-65900000D03*
%TD*%
D37*
%TO.C,J1*%
X114325000Y-56475000D03*
X114325000Y-55625000D03*
X114325000Y-54775000D03*
X114325000Y-53925000D03*
X114325000Y-53075000D03*
X114325000Y-52225000D03*
X114325000Y-51375000D03*
X114325000Y-50525000D03*
X112975000Y-50525000D03*
X112975000Y-51375000D03*
X112975000Y-52225000D03*
X112975000Y-53075000D03*
X112975000Y-53925000D03*
X112975000Y-54775000D03*
X112975000Y-55625000D03*
X112975000Y-56475000D03*
D38*
X109965000Y-57825000D03*
D39*
X113345000Y-57825000D03*
D38*
X109965000Y-49175000D03*
D39*
X113345000Y-49175000D03*
%TD*%
D40*
%TO.C,ESP32*%
X168573254Y-74545442D03*
X168189492Y-72369017D03*
D28*
X166264905Y-73835497D03*
X163310481Y-74356442D03*
D40*
X161384158Y-75813074D03*
X161000395Y-73636649D03*
D41*
X166697890Y-71972000D03*
X163743466Y-72492944D03*
X162266255Y-72753416D03*
%TD*%
M02*
