%TF.GenerationSoftware,KiCad,Pcbnew,7.0.2-1.fc38*%
%TF.CreationDate,2023-06-06T17:02:22+02:00*%
%TF.ProjectId,gps_compass,6770735f-636f-46d7-9061-73732e6b6963,rev?*%
%TF.SameCoordinates,Original*%
%TF.FileFunction,Copper,L2,Bot*%
%TF.FilePolarity,Positive*%
%FSLAX46Y46*%
G04 Gerber Fmt 4.6, Leading zero omitted, Abs format (unit mm)*
G04 Created by KiCad (PCBNEW 7.0.2-1.fc38) date 2023-06-06 17:02:22*
%MOMM*%
%LPD*%
G01*
G04 APERTURE LIST*
G04 Aperture macros list*
%AMRoundRect*
0 Rectangle with rounded corners*
0 $1 Rounding radius*
0 $2 $3 $4 $5 $6 $7 $8 $9 X,Y pos of 4 corners*
0 Add a 4 corners polygon primitive as box body*
4,1,4,$2,$3,$4,$5,$6,$7,$8,$9,$2,$3,0*
0 Add four circle primitives for the rounded corners*
1,1,$1+$1,$2,$3*
1,1,$1+$1,$4,$5*
1,1,$1+$1,$6,$7*
1,1,$1+$1,$8,$9*
0 Add four rect primitives between the rounded corners*
20,1,$1+$1,$2,$3,$4,$5,0*
20,1,$1+$1,$4,$5,$6,$7,0*
20,1,$1+$1,$6,$7,$8,$9,0*
20,1,$1+$1,$8,$9,$2,$3,0*%
G04 Aperture macros list end*
%TA.AperFunction,ComponentPad*%
%ADD10C,2.000000*%
%TD*%
%TA.AperFunction,ComponentPad*%
%ADD11R,1.700000X1.700000*%
%TD*%
%TA.AperFunction,ComponentPad*%
%ADD12O,1.700000X1.700000*%
%TD*%
%TA.AperFunction,ComponentPad*%
%ADD13C,1.700000*%
%TD*%
%TA.AperFunction,SMDPad,CuDef*%
%ADD14RoundRect,0.150000X0.587500X0.150000X-0.587500X0.150000X-0.587500X-0.150000X0.587500X-0.150000X0*%
%TD*%
%TA.AperFunction,SMDPad,CuDef*%
%ADD15RoundRect,0.237500X0.250000X0.237500X-0.250000X0.237500X-0.250000X-0.237500X0.250000X-0.237500X0*%
%TD*%
%TA.AperFunction,SMDPad,CuDef*%
%ADD16RoundRect,0.237500X-0.237500X0.250000X-0.237500X-0.250000X0.237500X-0.250000X0.237500X0.250000X0*%
%TD*%
%TA.AperFunction,SMDPad,CuDef*%
%ADD17R,1.800000X0.700000*%
%TD*%
%TA.AperFunction,SMDPad,CuDef*%
%ADD18R,2.200000X1.600000*%
%TD*%
%TA.AperFunction,SMDPad,CuDef*%
%ADD19RoundRect,0.250000X0.337500X0.475000X-0.337500X0.475000X-0.337500X-0.475000X0.337500X-0.475000X0*%
%TD*%
%TA.AperFunction,SMDPad,CuDef*%
%ADD20R,2.000000X0.650000*%
%TD*%
%TA.AperFunction,SMDPad,CuDef*%
%ADD21R,0.900000X1.500000*%
%TD*%
%TA.AperFunction,SMDPad,CuDef*%
%ADD22R,1.500000X0.900000*%
%TD*%
%TA.AperFunction,SMDPad,CuDef*%
%ADD23RoundRect,0.250000X-0.337500X-0.475000X0.337500X-0.475000X0.337500X0.475000X-0.337500X0.475000X0*%
%TD*%
%TA.AperFunction,ComponentPad*%
%ADD24R,1.800000X1.800000*%
%TD*%
%TA.AperFunction,ComponentPad*%
%ADD25C,1.800000*%
%TD*%
%TA.AperFunction,SMDPad,CuDef*%
%ADD26R,1.000000X0.800000*%
%TD*%
%TA.AperFunction,SMDPad,CuDef*%
%ADD27R,0.700000X1.500000*%
%TD*%
%TA.AperFunction,SMDPad,CuDef*%
%ADD28R,0.800000X1.400000*%
%TD*%
%TA.AperFunction,SMDPad,CuDef*%
%ADD29R,1.500000X1.500000*%
%TD*%
%TA.AperFunction,SMDPad,CuDef*%
%ADD30R,1.300000X1.500000*%
%TD*%
%TA.AperFunction,SMDPad,CuDef*%
%ADD31R,0.800000X1.500000*%
%TD*%
%TA.AperFunction,SMDPad,CuDef*%
%ADD32R,1.000000X1.550000*%
%TD*%
%TA.AperFunction,SMDPad,CuDef*%
%ADD33R,1.450000X1.000000*%
%TD*%
%TA.AperFunction,SMDPad,CuDef*%
%ADD34R,0.700000X1.750000*%
%TD*%
%TA.AperFunction,ComponentPad*%
%ADD35C,0.700000*%
%TD*%
%TA.AperFunction,ComponentPad*%
%ADD36O,1.700000X0.900000*%
%TD*%
%TA.AperFunction,ComponentPad*%
%ADD37O,2.400000X0.900000*%
%TD*%
%TA.AperFunction,ViaPad*%
%ADD38C,0.800000*%
%TD*%
%TA.AperFunction,Conductor*%
%ADD39C,0.250000*%
%TD*%
G04 APERTURE END LIST*
D10*
%TO.P,SWdown1,1,A*%
%TO.N,B2*%
X168200000Y-56600000D03*
X168200000Y-50100000D03*
%TO.P,SWdown1,2,B*%
%TO.N,GND*%
X172700000Y-56600000D03*
X172700000Y-50100000D03*
%TD*%
D11*
%TO.P,GY-271,1,Pin_1*%
%TO.N,VCC*%
X156630000Y-71860000D03*
D12*
%TO.P,GY-271,2,Pin_2*%
%TO.N,GND*%
X156630000Y-69320000D03*
%TO.P,GY-271,3,Pin_3*%
%TO.N,SCL*%
X156630000Y-66780000D03*
%TO.P,GY-271,4,Pin_4*%
%TO.N,SDA*%
X156630000Y-64240000D03*
%TO.P,GY-271,5,Pin_5*%
%TO.N,unconnected-(GY-271-Pin_5-Pad5)*%
X156630000Y-61700000D03*
%TD*%
D11*
%TO.P,LCD,1,Pin_1*%
%TO.N,GND*%
X129520000Y-53830000D03*
D12*
%TO.P,LCD,2,Pin_2*%
%TO.N,VCC*%
X132060000Y-53830000D03*
%TO.P,LCD,3,Pin_3*%
%TO.N,lcd_data*%
X134600000Y-53830000D03*
%TO.P,LCD,4,Pin_4*%
%TO.N,lcd_wr*%
X137140000Y-53830000D03*
%TO.P,LCD,5,Pin_5*%
%TO.N,lcd_cs*%
X139680000Y-53830000D03*
%TD*%
D10*
%TO.P,SWright1,1,A*%
%TO.N,B4*%
X160100000Y-47050000D03*
X160100000Y-40550000D03*
%TO.P,SWright1,2,B*%
%TO.N,GND*%
X164600000Y-47050000D03*
X164600000Y-40550000D03*
%TD*%
D13*
%TO.P,Serial1,1,Pin_1*%
%TO.N,Net-(ESP32-S1-TXD0{slash}IO1)*%
X159900000Y-33340000D03*
D12*
%TO.P,Serial1,2,Pin_2*%
%TO.N,Net-(ESP32-S1-RXD0{slash}IO3)*%
X157360000Y-33340000D03*
D11*
%TO.P,Serial1,3,Pin_3*%
%TO.N,GND*%
X154820000Y-33340000D03*
%TD*%
D10*
%TO.P,SWleft1,1,A*%
%TO.N,B3*%
X160100000Y-56600000D03*
X160100000Y-50100000D03*
%TO.P,SWleft1,2,B*%
%TO.N,GND*%
X164600000Y-56600000D03*
X164600000Y-50100000D03*
%TD*%
D11*
%TO.P,Oled,1,Pin_1*%
%TO.N,GND*%
X138320000Y-57310000D03*
D12*
%TO.P,Oled,2,Pin_2*%
%TO.N,VCC*%
X135780000Y-57310000D03*
%TO.P,Oled,3,Pin_3*%
%TO.N,SCL*%
X133240000Y-57310000D03*
%TO.P,Oled,4,Pin_4*%
%TO.N,SDA*%
X130700000Y-57310000D03*
%TD*%
D10*
%TO.P,SWb1,1,A*%
%TO.N,B6*%
X172050000Y-66150000D03*
X172050000Y-59650000D03*
%TO.P,SWb1,2,B*%
%TO.N,GND*%
X176550000Y-66150000D03*
X176550000Y-59650000D03*
%TD*%
%TO.P,SWa1,1,A*%
%TO.N,B5*%
X160100000Y-66200000D03*
X160100000Y-59700000D03*
%TO.P,SWa1,2,B*%
%TO.N,GND*%
X164600000Y-66200000D03*
X164600000Y-59700000D03*
%TD*%
%TO.P,SWup1,1,A*%
%TO.N,B1*%
X152000000Y-56600000D03*
X152000000Y-50100000D03*
%TO.P,SWup1,2,B*%
%TO.N,GND*%
X156500000Y-56600000D03*
X156500000Y-50100000D03*
%TD*%
D14*
%TO.P,Q1,1,B*%
%TO.N,Net-(Q1-B)*%
X129500000Y-68050000D03*
%TO.P,Q1,2,E*%
%TO.N,Net-(Q1-E)*%
X129500000Y-69950000D03*
%TO.P,Q1,3,C*%
%TO.N,Net-(BT1-+)*%
X127625000Y-69000000D03*
%TD*%
D15*
%TO.P,R6,2*%
%TO.N,GND*%
X112187500Y-46500000D03*
%TO.P,R6,1*%
%TO.N,Net-(LED1-K)*%
X114012500Y-46500000D03*
%TD*%
D16*
%TO.P,R1,1*%
%TO.N,RX2*%
X145200000Y-53787500D03*
%TO.P,R1,2*%
%TO.N,Net-(GPS1-TXD)*%
X145200000Y-55612500D03*
%TD*%
%TO.P,R2,1*%
%TO.N,TX2*%
X147000000Y-53787500D03*
%TO.P,R2,2*%
%TO.N,Net-(GPS1-RXD)*%
X147000000Y-55612500D03*
%TD*%
D17*
%TO.P,BT1,1,+*%
%TO.N,Net-(BT1-+)*%
X117250000Y-55775000D03*
%TO.P,BT1,2,-*%
%TO.N,GND*%
X117250000Y-57025000D03*
D18*
%TO.P,BT1,MP*%
%TO.N,N/C*%
X119950000Y-53525000D03*
X119950000Y-59275000D03*
%TD*%
D19*
%TO.P,C5,1*%
%TO.N,Net-(BT1-+)*%
X125400000Y-61600000D03*
%TO.P,C5,2*%
%TO.N,GND*%
X123325000Y-61600000D03*
%TD*%
D15*
%TO.P,R3,1*%
%TO.N,Net-(U3-Prog)*%
X125475000Y-63700000D03*
%TO.P,R3,2*%
%TO.N,GND*%
X123650000Y-63700000D03*
%TD*%
D20*
%TO.P,U3,1,Isense*%
%TO.N,Net-(Q1-E)*%
X121552500Y-69950000D03*
%TO.P,U3,2,GND*%
%TO.N,GND*%
X121552500Y-69000000D03*
%TO.P,U3,3,VCC*%
%TO.N,Net-(U3-VCC)*%
X121552500Y-68050000D03*
%TO.P,U3,4,Prog*%
%TO.N,Net-(U3-Prog)*%
X124972500Y-68050000D03*
%TO.P,U3,5,BATT*%
%TO.N,Net-(BT1-+)*%
X124972500Y-69000000D03*
%TO.P,U3,6,DRIVE*%
%TO.N,Net-(Q1-B)*%
X124972500Y-69950000D03*
%TD*%
D21*
%TO.P,ESP32-S,1,GND*%
%TO.N,GND*%
X131195000Y-33300000D03*
%TO.P,ESP32-S,2,VDD*%
%TO.N,VCC*%
X132465000Y-33300000D03*
%TO.P,ESP32-S,3,EN*%
%TO.N,Net-(ESP32-S1-EN)*%
X133735000Y-33300000D03*
%TO.P,ESP32-S,4,SENSOR_VP*%
%TO.N,unconnected-(ESP32-S1-SENSOR_VP-Pad4)*%
X135005000Y-33300000D03*
%TO.P,ESP32-S,5,SENSOR_VN*%
%TO.N,unconnected-(ESP32-S1-SENSOR_VN-Pad5)*%
X136275000Y-33300000D03*
%TO.P,ESP32-S,6,IO34*%
%TO.N,unconnected-(ESP32-S1-IO34-Pad6)*%
X137545000Y-33300000D03*
%TO.P,ESP32-S,7,IO35*%
%TO.N,unconnected-(ESP32-S1-IO35-Pad7)*%
X138815000Y-33300000D03*
%TO.P,ESP32-S,8,IO32*%
%TO.N,Net-(ESP32-S1-IO32)*%
X140085000Y-33300000D03*
%TO.P,ESP32-S,9,IO33*%
%TO.N,unconnected-(ESP32-S1-IO33-Pad9)*%
X141355000Y-33300000D03*
%TO.P,ESP32-S,10,IO25*%
%TO.N,B4*%
X142625000Y-33300000D03*
%TO.P,ESP32-S,11,IO26*%
%TO.N,B5*%
X143895000Y-33300000D03*
%TO.P,ESP32-S,12,IO27*%
%TO.N,B6*%
X145165000Y-33300000D03*
%TO.P,ESP32-S,13,IO14*%
%TO.N,lcd_data*%
X146435000Y-33300000D03*
%TO.P,ESP32-S,14,IO12*%
%TO.N,lcd_cs*%
X147705000Y-33300000D03*
D22*
%TO.P,ESP32-S,15,GND*%
%TO.N,GND*%
X148800000Y-36335000D03*
%TO.P,ESP32-S,16,IO13*%
%TO.N,lcd_wr*%
X148800000Y-37605000D03*
%TO.P,ESP32-S,17,SHD/SD2*%
%TO.N,unconnected-(ESP32-S1-SHD{slash}SD2-Pad17)*%
X148800000Y-38875000D03*
%TO.P,ESP32-S,18,SWP/SD3*%
%TO.N,unconnected-(ESP32-S1-SWP{slash}SD3-Pad18)*%
X148800000Y-40145000D03*
%TO.P,ESP32-S,19,SCS/CMD*%
%TO.N,unconnected-(ESP32-S1-SCS{slash}CMD-Pad19)*%
X148800000Y-41415000D03*
%TO.P,ESP32-S,20,SCK/CLK*%
%TO.N,unconnected-(ESP32-S1-SCK{slash}CLK-Pad20)*%
X148800000Y-42685000D03*
%TO.P,ESP32-S,21,SDO/SD0*%
%TO.N,unconnected-(ESP32-S1-SDO{slash}SD0-Pad21)*%
X148800000Y-43955000D03*
%TO.P,ESP32-S,22,SDI/SD1*%
%TO.N,unconnected-(ESP32-S1-SDI{slash}SD1-Pad22)*%
X148800000Y-45225000D03*
%TO.P,ESP32-S,23,IO15*%
%TO.N,B3*%
X148800000Y-46495000D03*
%TO.P,ESP32-S,24,IO2*%
%TO.N,B1*%
X148800000Y-47765000D03*
D21*
%TO.P,ESP32-S,25,IO0*%
%TO.N,Net-(ESP32-S1-IO0)*%
X147705000Y-50800000D03*
%TO.P,ESP32-S,26,IO4*%
%TO.N,B2*%
X146435000Y-50800000D03*
%TO.P,ESP32-S,27,IO16*%
%TO.N,RX2*%
X145165000Y-50800000D03*
%TO.P,ESP32-S,28,IO17*%
%TO.N,TX2*%
X143895000Y-50800000D03*
%TO.P,ESP32-S,29,IO5*%
%TO.N,CS*%
X142625000Y-50800000D03*
%TO.P,ESP32-S,30,IO18*%
%TO.N,CLK*%
X141355000Y-50800000D03*
%TO.P,ESP32-S,31,IO19*%
%TO.N,MISO*%
X140085000Y-50800000D03*
%TO.P,ESP32-S,32,NC*%
%TO.N,unconnected-(ESP32-S1-NC-Pad32)*%
X138815000Y-50800000D03*
%TO.P,ESP32-S,33,IO21*%
%TO.N,SDA*%
X137545000Y-50800000D03*
%TO.P,ESP32-S,34,RXD0/IO3*%
%TO.N,Net-(ESP32-S1-RXD0{slash}IO3)*%
X136275000Y-50800000D03*
%TO.P,ESP32-S,35,TXD0/IO1*%
%TO.N,Net-(ESP32-S1-TXD0{slash}IO1)*%
X135005000Y-50800000D03*
%TO.P,ESP32-S,36,IO22*%
%TO.N,SCL*%
X133735000Y-50800000D03*
%TO.P,ESP32-S,37,IO23*%
%TO.N,MOSI*%
X132465000Y-50800000D03*
%TO.P,ESP32-S,38,GND*%
%TO.N,GND*%
X131195000Y-50800000D03*
%TD*%
D23*
%TO.P,C7,1*%
%TO.N,Net-(MAIN1-B)*%
X134062500Y-68800000D03*
%TO.P,C7,2*%
%TO.N,GND*%
X136137500Y-68800000D03*
%TD*%
D24*
%TO.P,LED,1,K*%
%TO.N,Net-(LED1-K)*%
X114000000Y-44100000D03*
D25*
%TO.P,LED,2,A*%
%TO.N,Net-(ESP32-S1-IO32)*%
X114000000Y-41560000D03*
%TD*%
D23*
%TO.P,C6,1*%
%TO.N,Net-(MAIN1-B)*%
X134062500Y-66400000D03*
%TO.P,C6,2*%
%TO.N,GND*%
X136137500Y-66400000D03*
%TD*%
D14*
%TO.P,U1,1,GND*%
%TO.N,GND*%
X129500000Y-63850000D03*
%TO.P,U1,2,VO*%
%TO.N,Net-(MAIN1-B)*%
X129500000Y-65750000D03*
%TO.P,U1,3,VI*%
%TO.N,Net-(BT1-+)*%
X127625000Y-64800000D03*
%TD*%
D26*
%TO.P,MAIN,*%
%TO.N,*%
X133250000Y-75555000D03*
X133250000Y-73345000D03*
X125950000Y-75555000D03*
X125950000Y-73345000D03*
D27*
%TO.P,MAIN,1,A*%
%TO.N,+3V3*%
X131850000Y-72695000D03*
%TO.P,MAIN,2,B*%
%TO.N,Net-(MAIN1-B)*%
X128850000Y-72695000D03*
%TO.P,MAIN,3,C*%
%TO.N,unconnected-(MAIN1-C-Pad3)*%
X127350000Y-72695000D03*
%TD*%
D15*
%TO.P,R5,2*%
%TO.N,Net-(ESP32-S1-EN)*%
X123587500Y-54200000D03*
%TO.P,R5,1*%
%TO.N,VCC*%
X125412500Y-54200000D03*
%TD*%
D23*
%TO.P,C1,1*%
%TO.N,Net-(BT1-+)*%
X127462500Y-61600000D03*
%TO.P,C1,2*%
%TO.N,GND*%
X129537500Y-61600000D03*
%TD*%
D28*
%TO.P,microsd,11*%
%TO.N,N/C*%
X142105000Y-63725000D03*
D29*
X142455000Y-71975000D03*
D30*
X153805000Y-71975000D03*
D31*
X154055000Y-64375000D03*
D32*
%TO.P,microsd,10*%
X142505000Y-61300000D03*
D33*
%TO.P,microsd,9,SHIELD*%
%TO.N,GND*%
X153730000Y-62875000D03*
D34*
%TO.P,microsd,8,DAT1*%
%TO.N,unconnected-(microsd1-DAT1-Pad8)*%
X152605000Y-72100000D03*
%TO.P,microsd,7,DAT0*%
%TO.N,MOSI*%
X151505000Y-72100000D03*
%TO.P,microsd,6,VSS*%
%TO.N,GND*%
X150405000Y-72100000D03*
%TO.P,microsd,5,CLK*%
%TO.N,CLK*%
X149305000Y-72100000D03*
%TO.P,microsd,4,VDD*%
%TO.N,VCC*%
X148205000Y-72100000D03*
%TO.P,microsd,3,CMD*%
%TO.N,MISO*%
X147105000Y-72100000D03*
%TO.P,microsd,2,DAT3/CD*%
%TO.N,CS*%
X146005000Y-72100000D03*
%TO.P,microsd,1,DAT2*%
%TO.N,unconnected-(microsd1-DAT2-Pad1)*%
X144905000Y-72100000D03*
%TD*%
D23*
%TO.P,C2,1*%
%TO.N,Net-(U3-VCC)*%
X121562500Y-65900000D03*
%TO.P,C2,2*%
%TO.N,GND*%
X123637500Y-65900000D03*
%TD*%
D35*
%TO.P,J1,A1*%
%TO.N,N/C*%
X114725000Y-56475000D03*
%TO.P,J1,A4*%
X114725000Y-55625000D03*
%TO.P,J1,A5,CC1*%
%TO.N,Net-(J1-CC1)*%
X114725000Y-54775000D03*
%TO.P,J1,A6*%
%TO.N,N/C*%
X114725000Y-53925000D03*
%TO.P,J1,A7*%
X114725000Y-53075000D03*
%TO.P,J1,A8*%
X114725000Y-52225000D03*
%TO.P,J1,A9,VBUS*%
%TO.N,Net-(U3-VCC)*%
X114725000Y-51375000D03*
%TO.P,J1,A12,GND*%
%TO.N,GND*%
X114725000Y-50525000D03*
%TO.P,J1,B1*%
%TO.N,N/C*%
X113375000Y-50525000D03*
%TO.P,J1,B4*%
X113375000Y-51375000D03*
%TO.P,J1,B5,CC2*%
%TO.N,Net-(J1-CC2)*%
X113375000Y-52225000D03*
%TO.P,J1,B6*%
%TO.N,N/C*%
X113375000Y-53075000D03*
%TO.P,J1,B7*%
X113375000Y-53925000D03*
%TO.P,J1,B8*%
X113375000Y-54775000D03*
%TO.P,J1,B9,VBUS*%
%TO.N,Net-(U3-VCC)*%
X113375000Y-55625000D03*
%TO.P,J1,B12,GND*%
%TO.N,GND*%
X113375000Y-56475000D03*
D36*
%TO.P,J1,S1,SHIELD*%
X110365000Y-57825000D03*
D37*
X113745000Y-57825000D03*
D36*
X110365000Y-49175000D03*
D37*
X113745000Y-49175000D03*
%TD*%
D26*
%TO.P,ESP32,*%
%TO.N,*%
X164350000Y-75630000D03*
X164350000Y-73420000D03*
X157050000Y-75630000D03*
X157050000Y-73420000D03*
D27*
%TO.P,ESP32,1,A*%
%TO.N,VCC*%
X162950000Y-72770000D03*
%TO.P,ESP32,2,B*%
%TO.N,+3V3*%
X159950000Y-72770000D03*
%TO.P,ESP32,3,C*%
%TO.N,unconnected-(ESP32-C-Pad3)*%
X158450000Y-72770000D03*
%TD*%
D38*
%TO.N,GND*%
X140200000Y-57300000D03*
%TO.N,+3V3*%
X133100000Y-71300000D03*
%TO.N,VCC*%
X138000000Y-60500000D03*
X149100000Y-69500000D03*
X131980000Y-36000000D03*
X126750000Y-52500000D03*
X135780000Y-55235500D03*
%TO.N,Net-(ESP32-S1-EN)*%
X122100000Y-55000000D03*
%TO.N,B2*%
X148800000Y-53500000D03*
%TO.N,lcd_data*%
X146700000Y-31900000D03*
%TO.N,lcd_wr*%
X145850000Y-39250000D03*
%TO.N,lcd_cs*%
X150500000Y-33200000D03*
%TO.N,Net-(ESP32-S1-IO0)*%
X148800000Y-51200000D03*
%TO.N,Net-(ESP32-S1-RXD0{slash}IO3)*%
X137200000Y-52300000D03*
%TO.N,Net-(ESP32-S1-TXD0{slash}IO1)*%
X135600000Y-52500000D03*
%TO.N,Net-(GPS1-TXD)*%
X143800000Y-63200000D03*
%TO.N,Net-(GPS1-RXD)*%
X141524500Y-65300000D03*
%TD*%
D39*
%TO.N,B6*%
X145165000Y-33300000D02*
X145165000Y-34300000D01*
X145365000Y-34500000D02*
X152000000Y-34500000D01*
X152000000Y-34500000D02*
X161400000Y-43900000D01*
X145165000Y-34300000D02*
X145365000Y-34500000D01*
X161400000Y-43900000D02*
X164700000Y-43900000D01*
X164700000Y-43900000D02*
X170400000Y-49600000D01*
X170400000Y-49600000D02*
X170400000Y-58000000D01*
X170400000Y-58000000D02*
X172200000Y-59800000D01*
X172200000Y-59800000D02*
X172200000Y-66000000D01*
%TO.N,Net-(ESP32-S1-EN)*%
X133735000Y-33300000D02*
X133735000Y-32300000D01*
X133735000Y-32300000D02*
X133535000Y-32100000D01*
X133535000Y-32100000D02*
X122200000Y-32100000D01*
X122200000Y-32100000D02*
X120300000Y-34000000D01*
X120300000Y-34000000D02*
X120300000Y-51325000D01*
X120300000Y-51325000D02*
X122100000Y-53125000D01*
X122100000Y-53125000D02*
X122100000Y-55000000D01*
X123587500Y-54200000D02*
X122900000Y-54200000D01*
X122900000Y-54200000D02*
X122100000Y-55000000D01*
%TO.N,VCC*%
X126750000Y-52500000D02*
X126750000Y-52862500D01*
X126750000Y-52862500D02*
X125412500Y-54200000D01*
%TO.N,Net-(LED1-K)*%
X114012500Y-46500000D02*
X114012500Y-44112500D01*
X114012500Y-44112500D02*
X114000000Y-44100000D01*
%TO.N,MISO*%
X147105000Y-72100000D02*
X147105000Y-73225000D01*
X147105000Y-73225000D02*
X146430000Y-73900000D01*
X146430000Y-73900000D02*
X140136396Y-73900000D01*
X141700000Y-52900000D02*
X140085000Y-51285000D01*
X140136396Y-73900000D02*
X139200000Y-72963604D01*
X139200000Y-72963604D02*
X139200000Y-60000000D01*
X140085000Y-51285000D02*
X140085000Y-50800000D01*
X139200000Y-60000000D02*
X141700000Y-57500000D01*
X141700000Y-57500000D02*
X141700000Y-52900000D01*
%TO.N,Net-(BT1-+)*%
X124972500Y-69000000D02*
X127625000Y-69000000D01*
X119900000Y-57300000D02*
X120800000Y-57300000D01*
X127625000Y-69000000D02*
X127625000Y-64800000D01*
X127625000Y-61762500D02*
X127462500Y-61600000D01*
X117250000Y-55775000D02*
X118375000Y-55775000D01*
X120800000Y-57300000D02*
X125100000Y-61600000D01*
X127462500Y-61600000D02*
X125400000Y-61600000D01*
X118375000Y-55775000D02*
X119900000Y-57300000D01*
X127625000Y-64800000D02*
X127625000Y-61762500D01*
X125100000Y-61600000D02*
X125400000Y-61600000D01*
%TO.N,Net-(U3-VCC)*%
X114050000Y-55054595D02*
X113479595Y-55625000D01*
X119000000Y-65900000D02*
X121562500Y-65900000D01*
X121562500Y-68040000D02*
X121552500Y-68050000D01*
X114230026Y-51375000D02*
X114050000Y-51555026D01*
X111900000Y-58800000D02*
X119000000Y-65900000D01*
X111900000Y-56605026D02*
X111900000Y-58800000D01*
X121562500Y-65900000D02*
X121562500Y-68040000D01*
X113479595Y-55625000D02*
X113375000Y-55625000D01*
X112880026Y-55625000D02*
X111900000Y-56605026D01*
X113375000Y-55625000D02*
X112880026Y-55625000D01*
X114725000Y-51375000D02*
X114230026Y-51375000D01*
X114050000Y-51555026D02*
X114050000Y-55054595D01*
%TO.N,+3V3*%
X132910000Y-74800000D02*
X131850000Y-73740000D01*
X133100000Y-71445000D02*
X131850000Y-72695000D01*
X131850000Y-73740000D02*
X131850000Y-72695000D01*
X160300000Y-73120000D02*
X160300000Y-74900000D01*
X157920000Y-74800000D02*
X132910000Y-74800000D01*
X133100000Y-71300000D02*
X133100000Y-71445000D01*
X159950000Y-72770000D02*
X160300000Y-73120000D01*
X160300000Y-74900000D02*
X159700000Y-75500000D01*
X158620000Y-75500000D02*
X157920000Y-74800000D01*
X159700000Y-75500000D02*
X158620000Y-75500000D01*
%TO.N,CS*%
X145830000Y-73400000D02*
X141730000Y-73400000D01*
X146005000Y-72100000D02*
X146005000Y-73225000D01*
X141730000Y-73400000D02*
X140800000Y-72470000D01*
X140800000Y-72470000D02*
X140800000Y-59700000D01*
X142625000Y-57875000D02*
X142625000Y-50800000D01*
X146005000Y-73225000D02*
X145830000Y-73400000D01*
X140800000Y-59700000D02*
X142625000Y-57875000D01*
%TO.N,VCC*%
X131980000Y-36000000D02*
X131980000Y-34365000D01*
X135780000Y-55235500D02*
X135780000Y-57310000D01*
X135780000Y-58280000D02*
X135780000Y-57310000D01*
X148205000Y-72100000D02*
X148205000Y-70395000D01*
X131980000Y-34365000D02*
X132465000Y-33880000D01*
X162950000Y-72050000D02*
X162950000Y-72770000D01*
X132465000Y-33880000D02*
X132465000Y-33300000D01*
X148205000Y-70395000D02*
X149100000Y-69500000D01*
X156630000Y-71860000D02*
X157440000Y-71860000D01*
X161600000Y-70700000D02*
X162950000Y-72050000D01*
X158600000Y-70700000D02*
X161600000Y-70700000D01*
X157440000Y-71860000D02*
X158600000Y-70700000D01*
X138000000Y-60500000D02*
X135780000Y-58280000D01*
%TO.N,CLK*%
X141755000Y-49400000D02*
X149200000Y-49400000D01*
X151600000Y-63200000D02*
X153330000Y-64930000D01*
X153330000Y-67470000D02*
X150900000Y-69900000D01*
X151600000Y-61950000D02*
X151600000Y-63200000D01*
X141355000Y-50800000D02*
X141355000Y-49800000D01*
X141355000Y-49800000D02*
X141755000Y-49400000D01*
X150900000Y-69900000D02*
X150300000Y-69900000D01*
X150100000Y-50300000D02*
X150100000Y-60450000D01*
X153330000Y-64930000D02*
X153330000Y-67470000D01*
X149200000Y-49400000D02*
X150100000Y-50300000D01*
X149305000Y-70895000D02*
X149305000Y-72100000D01*
X150100000Y-60450000D02*
X151600000Y-61950000D01*
X150300000Y-69900000D02*
X149305000Y-70895000D01*
%TO.N,MOSI*%
X139950000Y-74350000D02*
X138600000Y-73000000D01*
X151505000Y-73595000D02*
X150750000Y-74350000D01*
X151505000Y-72100000D02*
X151505000Y-73595000D01*
X132465000Y-51735000D02*
X132465000Y-50800000D01*
X150750000Y-74350000D02*
X139950000Y-74350000D01*
X130805000Y-54786701D02*
X130805000Y-53395000D01*
X132045000Y-56026701D02*
X130805000Y-54786701D01*
X132045000Y-57945000D02*
X132045000Y-56026701D01*
X138600000Y-64500000D02*
X132045000Y-57945000D01*
X138600000Y-73000000D02*
X138600000Y-64500000D01*
X130805000Y-53395000D02*
X132465000Y-51735000D01*
%TO.N,SCL*%
X133735000Y-52155000D02*
X133240000Y-52650000D01*
X133240000Y-57310000D02*
X133240000Y-52650000D01*
X133735000Y-50800000D02*
X133735000Y-52155000D01*
%TO.N,SDA*%
X129487919Y-57310000D02*
X127800000Y-55622081D01*
X130030000Y-52570000D02*
X130400000Y-52200000D01*
X127800000Y-55622081D02*
X127800000Y-53200000D01*
X130400000Y-49400000D02*
X131300000Y-48500000D01*
X131300000Y-48500000D02*
X136245000Y-48500000D01*
X137545000Y-49800000D02*
X137545000Y-50800000D01*
X130400000Y-52200000D02*
X130400000Y-49400000D01*
X130700000Y-57310000D02*
X129487919Y-57310000D01*
X128430000Y-52570000D02*
X130030000Y-52570000D01*
X127800000Y-53200000D02*
X128430000Y-52570000D01*
X136245000Y-48500000D02*
X137545000Y-49800000D01*
%TO.N,Net-(Q1-B)*%
X128090749Y-69950000D02*
X129500000Y-68540749D01*
X124972500Y-69950000D02*
X128090749Y-69950000D01*
X129500000Y-68540749D02*
X129500000Y-68050000D01*
%TO.N,Net-(Q1-E)*%
X122702500Y-71100000D02*
X121552500Y-69950000D01*
X129500000Y-69950000D02*
X128350000Y-71100000D01*
X128350000Y-71100000D02*
X122702500Y-71100000D01*
%TO.N,RX2*%
X145165000Y-53752500D02*
X145165000Y-50800000D01*
X145200000Y-53787500D02*
X145165000Y-53752500D01*
%TO.N,TX2*%
X146187500Y-54600000D02*
X147000000Y-53787500D01*
X143895000Y-53765495D02*
X144729505Y-54600000D01*
X144729505Y-54600000D02*
X146187500Y-54600000D01*
X143895000Y-50800000D02*
X143895000Y-53765495D01*
%TO.N,Net-(U3-Prog)*%
X124972500Y-64202500D02*
X124972500Y-68050000D01*
X125475000Y-63700000D02*
X124972500Y-64202500D01*
%TO.N,B5*%
X162100000Y-46300000D02*
X162100000Y-57700000D01*
X150900000Y-35100000D02*
X162100000Y-46300000D01*
X143895000Y-33300000D02*
X143895000Y-34300000D01*
X162100000Y-57700000D02*
X160100000Y-59700000D01*
X160100000Y-66200000D02*
X160100000Y-59700000D01*
X144695000Y-35100000D02*
X150900000Y-35100000D01*
X143895000Y-34300000D02*
X144695000Y-35100000D01*
%TO.N,B2*%
X148600000Y-53500000D02*
X146435000Y-51335000D01*
X148800000Y-53500000D02*
X148600000Y-53500000D01*
X146435000Y-51335000D02*
X146435000Y-50800000D01*
%TO.N,B3*%
X156495000Y-46495000D02*
X160100000Y-50100000D01*
X160100000Y-50100000D02*
X160100000Y-56600000D01*
X148800000Y-46495000D02*
X156495000Y-46495000D01*
%TO.N,B4*%
X159250000Y-40550000D02*
X149875000Y-31175000D01*
X143700000Y-31200000D02*
X142625000Y-32275000D01*
X146374695Y-31200000D02*
X143700000Y-31200000D01*
X149875000Y-31175000D02*
X146399695Y-31175000D01*
X142625000Y-32275000D02*
X142625000Y-33300000D01*
X160100000Y-40550000D02*
X159250000Y-40550000D01*
X146399695Y-31175000D02*
X146374695Y-31200000D01*
%TO.N,B1*%
X148800000Y-47765000D02*
X149665000Y-47765000D01*
X152000000Y-56600000D02*
X152000000Y-50100000D01*
X149665000Y-47765000D02*
X152000000Y-50100000D01*
%TO.N,Net-(ESP32-S1-IO32)*%
X140085000Y-32300000D02*
X139435000Y-31650000D01*
X122013604Y-31650000D02*
X119400000Y-34263604D01*
X140085000Y-33300000D02*
X140085000Y-32300000D01*
X119400000Y-38400000D02*
X116240000Y-41560000D01*
X116240000Y-41560000D02*
X114000000Y-41560000D01*
X119400000Y-34263604D02*
X119400000Y-38400000D01*
X139435000Y-31650000D02*
X122013604Y-31650000D01*
%TO.N,lcd_data*%
X146435000Y-32265000D02*
X146700000Y-31900000D01*
X146700000Y-31900000D02*
X146600000Y-32100000D01*
X146435000Y-33300000D02*
X146435000Y-32265000D01*
%TO.N,lcd_wr*%
X145850000Y-39250000D02*
X147495000Y-37605000D01*
X147495000Y-37605000D02*
X148800000Y-37605000D01*
%TO.N,lcd_cs*%
X147705000Y-33300000D02*
X150400000Y-33300000D01*
X150400000Y-33300000D02*
X150500000Y-33200000D01*
%TO.N,Net-(ESP32-S1-IO0)*%
X148400000Y-50800000D02*
X148800000Y-51200000D01*
X147705000Y-50800000D02*
X148400000Y-50800000D01*
%TO.N,Net-(ESP32-S1-RXD0{slash}IO3)*%
X137300000Y-52300000D02*
X137200000Y-52200000D01*
X137200000Y-52300000D02*
X137300000Y-52300000D01*
X137200000Y-52200000D02*
X137200000Y-52300000D01*
X136275000Y-51275000D02*
X137200000Y-52200000D01*
X136275000Y-50800000D02*
X136275000Y-51275000D01*
%TO.N,Net-(ESP32-S1-TXD0{slash}IO1)*%
X135005000Y-51905000D02*
X135600000Y-52500000D01*
X135005000Y-50800000D02*
X135005000Y-51905000D01*
%TO.N,Net-(GPS1-TXD)*%
X143800000Y-63200000D02*
X145200000Y-61800000D01*
X145200000Y-61800000D02*
X145200000Y-55612500D01*
%TO.N,Net-(GPS1-RXD)*%
X144100000Y-65300000D02*
X147000000Y-62400000D01*
X147000000Y-62400000D02*
X147000000Y-55612500D01*
X141524500Y-65300000D02*
X144100000Y-65300000D01*
%TO.N,Net-(MAIN1-B)*%
X129500000Y-65750000D02*
X133412500Y-65750000D01*
X131100000Y-71400000D02*
X129600000Y-71400000D01*
X133700000Y-68800000D02*
X131100000Y-71400000D01*
X129600000Y-71400000D02*
X128850000Y-72150000D01*
X133412500Y-65750000D02*
X134062500Y-66400000D01*
X128850000Y-72150000D02*
X128850000Y-72695000D01*
X134062500Y-66400000D02*
X134062500Y-68800000D01*
X134062500Y-68800000D02*
X133700000Y-68800000D01*
%TD*%
%TA.AperFunction,Conductor*%
%TO.N,GND*%
G36*
X111560803Y-45419685D02*
G01*
X111606558Y-45472489D01*
X111616502Y-45541647D01*
X111587477Y-45605203D01*
X111558861Y-45629538D01*
X111476961Y-45680054D01*
X111355056Y-45801959D01*
X111264546Y-45948698D01*
X111210318Y-46112348D01*
X111200319Y-46210222D01*
X111200000Y-46216500D01*
X111200000Y-46250000D01*
X112313500Y-46250000D01*
X112380539Y-46269685D01*
X112426294Y-46322489D01*
X112437500Y-46374000D01*
X112437500Y-47474999D01*
X112483497Y-47474999D01*
X112489779Y-47474678D01*
X112587650Y-47464681D01*
X112751301Y-47410453D01*
X112898040Y-47319943D01*
X113019944Y-47198039D01*
X113083621Y-47094802D01*
X113135568Y-47048077D01*
X113204531Y-47036854D01*
X113268613Y-47064697D01*
X113287536Y-47084412D01*
X113343132Y-47156867D01*
X113446151Y-47235915D01*
X113465963Y-47251117D01*
X113609001Y-47310365D01*
X113723960Y-47325500D01*
X113728013Y-47325500D01*
X114296987Y-47325500D01*
X114301040Y-47325500D01*
X114415999Y-47310365D01*
X114559037Y-47251117D01*
X114681867Y-47156867D01*
X114776117Y-47034037D01*
X114835365Y-46890999D01*
X114850500Y-46776040D01*
X114850500Y-46223960D01*
X114835365Y-46109001D01*
X114776117Y-45965963D01*
X114739462Y-45918193D01*
X114681867Y-45843132D01*
X114546086Y-45738945D01*
X114547345Y-45737303D01*
X114510143Y-45707323D01*
X114488079Y-45641028D01*
X114488000Y-45636604D01*
X114488000Y-45524000D01*
X114507685Y-45456961D01*
X114560489Y-45411206D01*
X114612000Y-45400000D01*
X115117909Y-45400000D01*
X115184948Y-45419685D01*
X115230703Y-45472489D01*
X115232056Y-45475562D01*
X115596087Y-46333634D01*
X117999999Y-51999999D01*
X118000000Y-52000000D01*
X118000001Y-52000000D01*
X120251179Y-52000000D01*
X120318218Y-52019685D01*
X120338860Y-52036319D01*
X120465360Y-52162819D01*
X120498845Y-52224142D01*
X120493861Y-52293834D01*
X120451989Y-52349767D01*
X120386525Y-52374184D01*
X120377679Y-52374500D01*
X118816737Y-52374500D01*
X118748609Y-52384426D01*
X118643515Y-52435802D01*
X118560802Y-52518515D01*
X118509426Y-52623609D01*
X118499500Y-52691736D01*
X118499500Y-54358263D01*
X118509426Y-54426390D01*
X118509426Y-54426391D01*
X118509427Y-54426393D01*
X118521178Y-54450430D01*
X118560802Y-54531484D01*
X118643515Y-54614197D01*
X118643516Y-54614197D01*
X118643517Y-54614198D01*
X118748607Y-54665573D01*
X118775860Y-54669543D01*
X118816737Y-54675500D01*
X118816740Y-54675500D01*
X121083263Y-54675500D01*
X121124139Y-54669543D01*
X121151393Y-54665573D01*
X121206519Y-54638623D01*
X121275390Y-54626864D01*
X121339687Y-54654207D01*
X121378995Y-54711971D01*
X121380833Y-54781816D01*
X121378020Y-54790977D01*
X121363686Y-54831941D01*
X121344750Y-55000000D01*
X121363686Y-55168056D01*
X121363686Y-55168058D01*
X121363687Y-55168059D01*
X121419544Y-55327690D01*
X121509523Y-55470890D01*
X121629110Y-55590477D01*
X121772310Y-55680456D01*
X121931941Y-55736313D01*
X122100000Y-55755249D01*
X122268059Y-55736313D01*
X122427690Y-55680456D01*
X122570890Y-55590477D01*
X122690477Y-55470890D01*
X122780456Y-55327690D01*
X122836313Y-55168059D01*
X122850522Y-55041951D01*
X122877588Y-54977538D01*
X122935183Y-54937982D01*
X123005020Y-54935845D01*
X123025475Y-54945846D01*
X123025880Y-54944870D01*
X123104749Y-54977538D01*
X123184001Y-55010365D01*
X123298960Y-55025500D01*
X123303013Y-55025500D01*
X123871987Y-55025500D01*
X123876040Y-55025500D01*
X123990999Y-55010365D01*
X124134037Y-54951117D01*
X124256867Y-54856867D01*
X124351117Y-54734037D01*
X124385438Y-54651176D01*
X124429279Y-54596772D01*
X124495573Y-54574707D01*
X124563273Y-54591986D01*
X124610884Y-54643123D01*
X124614561Y-54651176D01*
X124648882Y-54734036D01*
X124743132Y-54856867D01*
X124855557Y-54943132D01*
X124865963Y-54951117D01*
X125009001Y-55010365D01*
X125123960Y-55025500D01*
X125128013Y-55025500D01*
X125696987Y-55025500D01*
X125701040Y-55025500D01*
X125815999Y-55010365D01*
X125959037Y-54951117D01*
X126081867Y-54856867D01*
X126176117Y-54734037D01*
X126235365Y-54590999D01*
X126250500Y-54476040D01*
X126250500Y-54085819D01*
X126270185Y-54018781D01*
X126286815Y-53998143D01*
X127040654Y-53244303D01*
X127061292Y-53227673D01*
X127064589Y-53225555D01*
X127064592Y-53225552D01*
X127095340Y-53190066D01*
X127101373Y-53183586D01*
X127111990Y-53172969D01*
X127173313Y-53139484D01*
X127243005Y-53144468D01*
X127298938Y-53186340D01*
X127320833Y-53234273D01*
X127321662Y-53238081D01*
X127324500Y-53264458D01*
X127324500Y-55557622D01*
X127321666Y-55583980D01*
X127320833Y-55587809D01*
X127324184Y-55634655D01*
X127324500Y-55643502D01*
X127324500Y-55656092D01*
X127326293Y-55668572D01*
X127327237Y-55677356D01*
X127330588Y-55724196D01*
X127331956Y-55727862D01*
X127338510Y-55753539D01*
X127338970Y-55756735D01*
X127339069Y-55757424D01*
X127351685Y-55785048D01*
X127356903Y-55796475D01*
X127358571Y-55800126D01*
X127361959Y-55808304D01*
X127378373Y-55852312D01*
X127380722Y-55855450D01*
X127394240Y-55878231D01*
X127395870Y-55881799D01*
X127426627Y-55917295D01*
X127432170Y-55924174D01*
X127439721Y-55934261D01*
X127448627Y-55943167D01*
X127454659Y-55949646D01*
X127485411Y-55985136D01*
X127488708Y-55987255D01*
X127509349Y-56003889D01*
X129106112Y-57600652D01*
X129122744Y-57621291D01*
X129124864Y-57624589D01*
X129160370Y-57655354D01*
X129166833Y-57661373D01*
X129175734Y-57670275D01*
X129175737Y-57670277D01*
X129175739Y-57670279D01*
X129185835Y-57677837D01*
X129192706Y-57683374D01*
X129228201Y-57714130D01*
X129231761Y-57715756D01*
X129254554Y-57729279D01*
X129257693Y-57731629D01*
X129301678Y-57748034D01*
X129309857Y-57751422D01*
X129352572Y-57770929D01*
X129352577Y-57770931D01*
X129356454Y-57771488D01*
X129382134Y-57778042D01*
X129385804Y-57779411D01*
X129432651Y-57782761D01*
X129441433Y-57783706D01*
X129453908Y-57785500D01*
X129466497Y-57785500D01*
X129475343Y-57785816D01*
X129478937Y-57786073D01*
X129522190Y-57789167D01*
X129522191Y-57789166D01*
X129529678Y-57789702D01*
X129595142Y-57814119D01*
X129631832Y-57858114D01*
X129674941Y-57944688D01*
X129809019Y-58122237D01*
X129973437Y-58272124D01*
X130162595Y-58389245D01*
X130162597Y-58389245D01*
X130162599Y-58389247D01*
X130370060Y-58469618D01*
X130588757Y-58510500D01*
X130588759Y-58510500D01*
X130811241Y-58510500D01*
X130811243Y-58510500D01*
X131029940Y-58469618D01*
X131237401Y-58389247D01*
X131426562Y-58272124D01*
X131484949Y-58218896D01*
X131547751Y-58188281D01*
X131617138Y-58196478D01*
X131662196Y-58229330D01*
X131671630Y-58240218D01*
X131677170Y-58247093D01*
X131684721Y-58257180D01*
X131693627Y-58266086D01*
X131699659Y-58272565D01*
X131730411Y-58308055D01*
X131733708Y-58310174D01*
X131754349Y-58326808D01*
X138088181Y-64660640D01*
X138121666Y-64721963D01*
X138124500Y-64748321D01*
X138124500Y-72935541D01*
X138121666Y-72961899D01*
X138120833Y-72965728D01*
X138124184Y-73012574D01*
X138124500Y-73021421D01*
X138124500Y-73034011D01*
X138126293Y-73046491D01*
X138127237Y-73055275D01*
X138130588Y-73102115D01*
X138131956Y-73105781D01*
X138138510Y-73131458D01*
X138138731Y-73132989D01*
X138139069Y-73135343D01*
X138149462Y-73158099D01*
X138155411Y-73171127D01*
X138158571Y-73178045D01*
X138161957Y-73186219D01*
X138175521Y-73222586D01*
X138178373Y-73230231D01*
X138180722Y-73233369D01*
X138194240Y-73256150D01*
X138195870Y-73259718D01*
X138226627Y-73295214D01*
X138232170Y-73302093D01*
X138239721Y-73312180D01*
X138248627Y-73321086D01*
X138254659Y-73327565D01*
X138285411Y-73363055D01*
X138288708Y-73365174D01*
X138309349Y-73381808D01*
X138773934Y-73846393D01*
X139040361Y-74112819D01*
X139073846Y-74174142D01*
X139068862Y-74243833D01*
X139026990Y-74299767D01*
X138961526Y-74324184D01*
X138952680Y-74324500D01*
X133898640Y-74324500D01*
X133831601Y-74304815D01*
X133785846Y-74252011D01*
X133775902Y-74182853D01*
X133804927Y-74119297D01*
X133844180Y-74089099D01*
X133851393Y-74085573D01*
X133956483Y-74034198D01*
X134039198Y-73951483D01*
X134090573Y-73846393D01*
X134096658Y-73804631D01*
X134100500Y-73778263D01*
X134100500Y-72911736D01*
X134093521Y-72863839D01*
X134090573Y-72843607D01*
X134039198Y-72738517D01*
X134039197Y-72738516D01*
X134039197Y-72738515D01*
X133956484Y-72655802D01*
X133878298Y-72617580D01*
X133851393Y-72604427D01*
X133851391Y-72604426D01*
X133851390Y-72604426D01*
X133783263Y-72594500D01*
X133783260Y-72594500D01*
X132922320Y-72594500D01*
X132855281Y-72574815D01*
X132809526Y-72522011D01*
X132799582Y-72452853D01*
X132828607Y-72389297D01*
X132834639Y-72382819D01*
X132944417Y-72273041D01*
X133139429Y-72078028D01*
X133200750Y-72044545D01*
X133213226Y-72042491D01*
X133268059Y-72036313D01*
X133427690Y-71980456D01*
X133570890Y-71890477D01*
X133690477Y-71770890D01*
X133780456Y-71627690D01*
X133836313Y-71468059D01*
X133855249Y-71300000D01*
X133836313Y-71131941D01*
X133780456Y-70972310D01*
X133690477Y-70829110D01*
X133570890Y-70709523D01*
X133427690Y-70619544D01*
X133268059Y-70563687D01*
X133268058Y-70563686D01*
X133268056Y-70563686D01*
X133099999Y-70544750D01*
X132919876Y-70565045D01*
X132851055Y-70552990D01*
X132799675Y-70505641D01*
X132782051Y-70438031D01*
X132803778Y-70371625D01*
X132818303Y-70354153D01*
X133328757Y-69843699D01*
X133390078Y-69810216D01*
X133459770Y-69815200D01*
X133463888Y-69816821D01*
X133471563Y-69820000D01*
X133568238Y-69860044D01*
X133685639Y-69875500D01*
X134439360Y-69875499D01*
X134556762Y-69860044D01*
X134702841Y-69799536D01*
X134828282Y-69703282D01*
X134915422Y-69589718D01*
X134971847Y-69548517D01*
X135041593Y-69544362D01*
X135102514Y-69578574D01*
X135119335Y-69600109D01*
X135207684Y-69743346D01*
X135331654Y-69867316D01*
X135480877Y-69959357D01*
X135647303Y-70014506D01*
X135746890Y-70024680D01*
X135753168Y-70024999D01*
X135887499Y-70024999D01*
X135887500Y-70024998D01*
X135887500Y-69050000D01*
X136387500Y-69050000D01*
X136387500Y-70024999D01*
X136521829Y-70024999D01*
X136528111Y-70024678D01*
X136627695Y-70014506D01*
X136794122Y-69959357D01*
X136943345Y-69867316D01*
X137067316Y-69743345D01*
X137159357Y-69594122D01*
X137214506Y-69427696D01*
X137224680Y-69328109D01*
X137225000Y-69321831D01*
X137225000Y-69050000D01*
X136387500Y-69050000D01*
X135887500Y-69050000D01*
X135887500Y-66650000D01*
X136387500Y-66650000D01*
X136387500Y-68550000D01*
X137224999Y-68550000D01*
X137224999Y-68278170D01*
X137224678Y-68271888D01*
X137214506Y-68172304D01*
X137159357Y-68005877D01*
X137067316Y-67856654D01*
X136943345Y-67732683D01*
X136899337Y-67705539D01*
X136852612Y-67653591D01*
X136841389Y-67584629D01*
X136869233Y-67520546D01*
X136899337Y-67494461D01*
X136943345Y-67467316D01*
X137067316Y-67343345D01*
X137159357Y-67194122D01*
X137214506Y-67027696D01*
X137224680Y-66928109D01*
X137225000Y-66921831D01*
X137225000Y-66650000D01*
X136387500Y-66650000D01*
X135887500Y-66650000D01*
X135887500Y-65175000D01*
X136387500Y-65175000D01*
X136387500Y-66150000D01*
X137224999Y-66150000D01*
X137224999Y-65878170D01*
X137224678Y-65871888D01*
X137214506Y-65772304D01*
X137159357Y-65605877D01*
X137067316Y-65456654D01*
X136943345Y-65332683D01*
X136794122Y-65240642D01*
X136627696Y-65185493D01*
X136528109Y-65175319D01*
X136521832Y-65175000D01*
X136387500Y-65175000D01*
X135887500Y-65175000D01*
X135753171Y-65175000D01*
X135746888Y-65175321D01*
X135647304Y-65185493D01*
X135480877Y-65240642D01*
X135331654Y-65332683D01*
X135207682Y-65456655D01*
X135119334Y-65599890D01*
X135067386Y-65646615D01*
X134998424Y-65657836D01*
X134934342Y-65629993D01*
X134915420Y-65610279D01*
X134828282Y-65496717D01*
X134702840Y-65400463D01*
X134556762Y-65339956D01*
X134443380Y-65325029D01*
X134443378Y-65325028D01*
X134439361Y-65324500D01*
X134435307Y-65324500D01*
X133689694Y-65324500D01*
X133689678Y-65324500D01*
X133685640Y-65324501D01*
X133681628Y-65325029D01*
X133681614Y-65325030D01*
X133676838Y-65325659D01*
X133617339Y-65318902D01*
X133611394Y-65316685D01*
X133598711Y-65311954D01*
X133590559Y-65308577D01*
X133565668Y-65297209D01*
X133547843Y-65289069D01*
X133547154Y-65288970D01*
X133543958Y-65288510D01*
X133518281Y-65281956D01*
X133514615Y-65280588D01*
X133467775Y-65277237D01*
X133458991Y-65276293D01*
X133446512Y-65274500D01*
X133446511Y-65274500D01*
X133433922Y-65274500D01*
X133425075Y-65274184D01*
X133409921Y-65273100D01*
X133378229Y-65270833D01*
X133378228Y-65270833D01*
X133374400Y-65271666D01*
X133348041Y-65274500D01*
X130529125Y-65274500D01*
X130462086Y-65254815D01*
X130454814Y-65249767D01*
X130445047Y-65242455D01*
X130445046Y-65242454D01*
X130329831Y-65156204D01*
X130194983Y-65105909D01*
X130194983Y-65105908D01*
X130138666Y-65099854D01*
X130138665Y-65099853D01*
X130135373Y-65099500D01*
X130132050Y-65099500D01*
X128867939Y-65099500D01*
X128867920Y-65099500D01*
X128864628Y-65099501D01*
X128861339Y-65099854D01*
X128861330Y-65099855D01*
X128850249Y-65101046D01*
X128781490Y-65088638D01*
X128730355Y-65041025D01*
X128712999Y-64977759D01*
X128712999Y-64773605D01*
X128732684Y-64706568D01*
X128785488Y-64660813D01*
X128847441Y-64650051D01*
X128841994Y-64649713D01*
X128849303Y-64650000D01*
X129250000Y-64650000D01*
X129250000Y-64100000D01*
X129750000Y-64100000D01*
X129750000Y-64650000D01*
X130150697Y-64650000D01*
X130155576Y-64649808D01*
X130189993Y-64647099D01*
X130347697Y-64601282D01*
X130489057Y-64517682D01*
X130605182Y-64401557D01*
X130688780Y-64260200D01*
X130734599Y-64102488D01*
X130734795Y-64100000D01*
X129750000Y-64100000D01*
X129250000Y-64100000D01*
X129250000Y-63724000D01*
X129269685Y-63656961D01*
X129322489Y-63611206D01*
X129374000Y-63600000D01*
X130734795Y-63600000D01*
X130734795Y-63599999D01*
X130734599Y-63597511D01*
X130688780Y-63439799D01*
X130605182Y-63298442D01*
X130489057Y-63182317D01*
X130347697Y-63098717D01*
X130189993Y-63052900D01*
X130155576Y-63050191D01*
X130150697Y-63050000D01*
X130085446Y-63050000D01*
X130018407Y-63030315D01*
X129972652Y-62977511D01*
X129962708Y-62908353D01*
X129991733Y-62844797D01*
X130046442Y-62808294D01*
X130194122Y-62759357D01*
X130343345Y-62667316D01*
X130467316Y-62543345D01*
X130559357Y-62394122D01*
X130614506Y-62227696D01*
X130624680Y-62128109D01*
X130625000Y-62121831D01*
X130625000Y-61850000D01*
X129411500Y-61850000D01*
X129344461Y-61830315D01*
X129298706Y-61777511D01*
X129287500Y-61726000D01*
X129287500Y-61349999D01*
X129787499Y-61349999D01*
X129787500Y-61350000D01*
X130624999Y-61350000D01*
X130624999Y-61078170D01*
X130624678Y-61071888D01*
X130614506Y-60972304D01*
X130559357Y-60805877D01*
X130467316Y-60656654D01*
X130343345Y-60532683D01*
X130194122Y-60440642D01*
X130027696Y-60385493D01*
X129928109Y-60375319D01*
X129921832Y-60375000D01*
X129787500Y-60375000D01*
X129787499Y-61349999D01*
X129287500Y-61349999D01*
X129287499Y-60375000D01*
X129153171Y-60375000D01*
X129146888Y-60375321D01*
X129047304Y-60385493D01*
X128880877Y-60440642D01*
X128731654Y-60532683D01*
X128607682Y-60656655D01*
X128519334Y-60799890D01*
X128467386Y-60846615D01*
X128398424Y-60857836D01*
X128334342Y-60829993D01*
X128315420Y-60810279D01*
X128228282Y-60696717D01*
X128102840Y-60600463D01*
X127956762Y-60539956D01*
X127843380Y-60525029D01*
X127843378Y-60525028D01*
X127839361Y-60524500D01*
X127835307Y-60524500D01*
X127089694Y-60524500D01*
X127089678Y-60524500D01*
X127085640Y-60524501D01*
X127081627Y-60525029D01*
X127081615Y-60525030D01*
X126968239Y-60539955D01*
X126822158Y-60600464D01*
X126696717Y-60696717D01*
X126600464Y-60822158D01*
X126545811Y-60954102D01*
X126501970Y-61008505D01*
X126435676Y-61030570D01*
X126367976Y-61013291D01*
X126320366Y-60962153D01*
X126316689Y-60954102D01*
X126294693Y-60901000D01*
X126262036Y-60822159D01*
X126225249Y-60774217D01*
X126165782Y-60696717D01*
X126040340Y-60600463D01*
X125894262Y-60539956D01*
X125780880Y-60525029D01*
X125780878Y-60525028D01*
X125776861Y-60524500D01*
X125772807Y-60524500D01*
X125027194Y-60524500D01*
X125027178Y-60524500D01*
X125023140Y-60524501D01*
X125019127Y-60525029D01*
X125019115Y-60525030D01*
X124905739Y-60539955D01*
X124845584Y-60564872D01*
X124776114Y-60572341D01*
X124713635Y-60541066D01*
X124710450Y-60537992D01*
X122962112Y-58789654D01*
X121181808Y-57009349D01*
X121165174Y-56988708D01*
X121163055Y-56985411D01*
X121127565Y-56954659D01*
X121121086Y-56948627D01*
X121112180Y-56939721D01*
X121102093Y-56932170D01*
X121095214Y-56926627D01*
X121059718Y-56895870D01*
X121059716Y-56895869D01*
X121056150Y-56894240D01*
X121033369Y-56880722D01*
X121030231Y-56878373D01*
X121022037Y-56875317D01*
X120986219Y-56861957D01*
X120978045Y-56858571D01*
X120935343Y-56839069D01*
X120934654Y-56838970D01*
X120931458Y-56838510D01*
X120905781Y-56831956D01*
X120902115Y-56830588D01*
X120855275Y-56827237D01*
X120846491Y-56826293D01*
X120834012Y-56824500D01*
X120834011Y-56824500D01*
X120821422Y-56824500D01*
X120812575Y-56824184D01*
X120765729Y-56820833D01*
X120765728Y-56820833D01*
X120761900Y-56821666D01*
X120735541Y-56824500D01*
X120148321Y-56824500D01*
X120081282Y-56804815D01*
X120060640Y-56788181D01*
X118756808Y-55484349D01*
X118740174Y-55463708D01*
X118738055Y-55460411D01*
X118702565Y-55429659D01*
X118696086Y-55423627D01*
X118687180Y-55414721D01*
X118677093Y-55407170D01*
X118670214Y-55401627D01*
X118634718Y-55370870D01*
X118634716Y-55370869D01*
X118631150Y-55369240D01*
X118608369Y-55355722D01*
X118605231Y-55353373D01*
X118569234Y-55339947D01*
X118561219Y-55336957D01*
X118553045Y-55333571D01*
X118548764Y-55331616D01*
X118519276Y-55318149D01*
X118466472Y-55272394D01*
X118459387Y-55259815D01*
X118455869Y-55252619D01*
X118439198Y-55218517D01*
X118439196Y-55218515D01*
X118439196Y-55218514D01*
X118356484Y-55135802D01*
X118280959Y-55098881D01*
X118251393Y-55084427D01*
X118251391Y-55084426D01*
X118251390Y-55084426D01*
X118183263Y-55074500D01*
X118183260Y-55074500D01*
X116316740Y-55074500D01*
X116316737Y-55074500D01*
X116248609Y-55084426D01*
X116143515Y-55135802D01*
X116060802Y-55218515D01*
X116009426Y-55323609D01*
X115999500Y-55391736D01*
X115999500Y-55391740D01*
X115999500Y-56158260D01*
X116001116Y-56169348D01*
X116010444Y-56233377D01*
X116000630Y-56302554D01*
X115987006Y-56325565D01*
X115906647Y-56432910D01*
X115856400Y-56567628D01*
X115850354Y-56623867D01*
X115850000Y-56630481D01*
X115850000Y-56775000D01*
X118651179Y-56775000D01*
X118718218Y-56794685D01*
X118738860Y-56811319D01*
X119518193Y-57590652D01*
X119534825Y-57611291D01*
X119536945Y-57614589D01*
X119572451Y-57645354D01*
X119578914Y-57651373D01*
X119587815Y-57660275D01*
X119587818Y-57660277D01*
X119587820Y-57660279D01*
X119597916Y-57667837D01*
X119604787Y-57673374D01*
X119640282Y-57704130D01*
X119643588Y-57705639D01*
X119643840Y-57705755D01*
X119666635Y-57719280D01*
X119669773Y-57721629D01*
X119713760Y-57738034D01*
X119721943Y-57741424D01*
X119764652Y-57760929D01*
X119764654Y-57760929D01*
X119764658Y-57760931D01*
X119768531Y-57761487D01*
X119794216Y-57768043D01*
X119797886Y-57769412D01*
X119844732Y-57772762D01*
X119853525Y-57773708D01*
X119865986Y-57775500D01*
X119865989Y-57775500D01*
X119878574Y-57775500D01*
X119887420Y-57775815D01*
X119934271Y-57779167D01*
X119938100Y-57778333D01*
X119964459Y-57775500D01*
X120551679Y-57775500D01*
X120618718Y-57795185D01*
X120639360Y-57811819D01*
X120740360Y-57912819D01*
X120773845Y-57974142D01*
X120768861Y-58043834D01*
X120726989Y-58099767D01*
X120661525Y-58124184D01*
X120652679Y-58124500D01*
X118816737Y-58124500D01*
X118748609Y-58134426D01*
X118643515Y-58185802D01*
X118560802Y-58268515D01*
X118509426Y-58373609D01*
X118499500Y-58441736D01*
X118499500Y-60108263D01*
X118509426Y-60176390D01*
X118509426Y-60176391D01*
X118509427Y-60176393D01*
X118525470Y-60209209D01*
X118560802Y-60281484D01*
X118643515Y-60364197D01*
X118643516Y-60364197D01*
X118643517Y-60364198D01*
X118748607Y-60415573D01*
X118775860Y-60419543D01*
X118816737Y-60425500D01*
X118816740Y-60425500D01*
X121083263Y-60425500D01*
X121117326Y-60420536D01*
X121151393Y-60415573D01*
X121256483Y-60364198D01*
X121339198Y-60281483D01*
X121390573Y-60176393D01*
X121400500Y-60108260D01*
X121400499Y-58872319D01*
X121420184Y-58805281D01*
X121472987Y-58759526D01*
X121542146Y-58749582D01*
X121605702Y-58778607D01*
X121612181Y-58784639D01*
X122908193Y-60080652D01*
X122993459Y-60165917D01*
X123026944Y-60227240D01*
X123021960Y-60296932D01*
X122980088Y-60352865D01*
X122918380Y-60376956D01*
X122834804Y-60385493D01*
X122668377Y-60440642D01*
X122519154Y-60532683D01*
X122395183Y-60656654D01*
X122303142Y-60805877D01*
X122247993Y-60972303D01*
X122237819Y-61071890D01*
X122237500Y-61078168D01*
X122237500Y-61350000D01*
X123451000Y-61350000D01*
X123518039Y-61369685D01*
X123563794Y-61422489D01*
X123575000Y-61474000D01*
X123575000Y-61726000D01*
X123555315Y-61793039D01*
X123502511Y-61838794D01*
X123451000Y-61850000D01*
X122237501Y-61850000D01*
X122237501Y-62121829D01*
X122237821Y-62128111D01*
X122247993Y-62227695D01*
X122303142Y-62394122D01*
X122395183Y-62543345D01*
X122519154Y-62667316D01*
X122668377Y-62759357D01*
X122771817Y-62793634D01*
X122829262Y-62833407D01*
X122856085Y-62897922D01*
X122843770Y-62966698D01*
X122820498Y-62999018D01*
X122817556Y-63001959D01*
X122727046Y-63148698D01*
X122672818Y-63312348D01*
X122662819Y-63410222D01*
X122662500Y-63416500D01*
X122662500Y-63450000D01*
X123776000Y-63450000D01*
X123843039Y-63469685D01*
X123888794Y-63522489D01*
X123900000Y-63574000D01*
X123900000Y-64651138D01*
X123887500Y-64693707D01*
X123887500Y-67124999D01*
X124021829Y-67124999D01*
X124028111Y-67124678D01*
X124127695Y-67114506D01*
X124294120Y-67059358D01*
X124307901Y-67050858D01*
X124375293Y-67032417D01*
X124441957Y-67053339D01*
X124486727Y-67106980D01*
X124496999Y-67156395D01*
X124497000Y-67250499D01*
X124477316Y-67317538D01*
X124424513Y-67363294D01*
X124373000Y-67374500D01*
X123939237Y-67374500D01*
X123871109Y-67384426D01*
X123766015Y-67435802D01*
X123683302Y-67518515D01*
X123631926Y-67623609D01*
X123622000Y-67691736D01*
X123622000Y-68408263D01*
X123634720Y-68495567D01*
X123633371Y-68495763D01*
X123640823Y-68539420D01*
X123633050Y-68565888D01*
X123622000Y-68641736D01*
X123622000Y-69358263D01*
X123634720Y-69445567D01*
X123633371Y-69445763D01*
X123640823Y-69489420D01*
X123633050Y-69515888D01*
X123622000Y-69591736D01*
X123622000Y-70308263D01*
X123631926Y-70376390D01*
X123631926Y-70376391D01*
X123631927Y-70376393D01*
X123649246Y-70411819D01*
X123665975Y-70446040D01*
X123677733Y-70514913D01*
X123650390Y-70579210D01*
X123592625Y-70618517D01*
X123554574Y-70624500D01*
X122970425Y-70624500D01*
X122903386Y-70604815D01*
X122857631Y-70552011D01*
X122847687Y-70482853D01*
X122859025Y-70446039D01*
X122862940Y-70438031D01*
X122893073Y-70376393D01*
X122901052Y-70321629D01*
X122903000Y-70308263D01*
X122903000Y-69732395D01*
X122922685Y-69665356D01*
X122927734Y-69658084D01*
X122995851Y-69567091D01*
X123046099Y-69432371D01*
X123052145Y-69376132D01*
X123052500Y-69369518D01*
X123052500Y-69250000D01*
X120052500Y-69250000D01*
X120052500Y-69369518D01*
X120052854Y-69376132D01*
X120058900Y-69432371D01*
X120109148Y-69567091D01*
X120177266Y-69658084D01*
X120201684Y-69723548D01*
X120202000Y-69732395D01*
X120202000Y-70308263D01*
X120211926Y-70376390D01*
X120211926Y-70376391D01*
X120211927Y-70376393D01*
X120229246Y-70411819D01*
X120263302Y-70481484D01*
X120346015Y-70564197D01*
X120346016Y-70564197D01*
X120346017Y-70564198D01*
X120451107Y-70615573D01*
X120471313Y-70618517D01*
X120519237Y-70625500D01*
X120519240Y-70625500D01*
X121504179Y-70625500D01*
X121571218Y-70645185D01*
X121591860Y-70661819D01*
X122320693Y-71390652D01*
X122337325Y-71411291D01*
X122339445Y-71414589D01*
X122374951Y-71445354D01*
X122381414Y-71451373D01*
X122390315Y-71460275D01*
X122390318Y-71460277D01*
X122390320Y-71460279D01*
X122400416Y-71467837D01*
X122407287Y-71473374D01*
X122442782Y-71504130D01*
X122446088Y-71505639D01*
X122446340Y-71505755D01*
X122469135Y-71519280D01*
X122472273Y-71521629D01*
X122516260Y-71538034D01*
X122524443Y-71541424D01*
X122567152Y-71560929D01*
X122567154Y-71560929D01*
X122567158Y-71560931D01*
X122571031Y-71561487D01*
X122596716Y-71568043D01*
X122600386Y-71569412D01*
X122647232Y-71572762D01*
X122656025Y-71573708D01*
X122668486Y-71575500D01*
X122668489Y-71575500D01*
X122681074Y-71575500D01*
X122689920Y-71575815D01*
X122736771Y-71579167D01*
X122740600Y-71578333D01*
X122766959Y-71575500D01*
X126591851Y-71575500D01*
X126658890Y-71595185D01*
X126704645Y-71647989D01*
X126714589Y-71717147D01*
X126703252Y-71753960D01*
X126659426Y-71843609D01*
X126649500Y-71911736D01*
X126649500Y-72475345D01*
X126629815Y-72542384D01*
X126577011Y-72588139D01*
X126507853Y-72598083D01*
X126507622Y-72598049D01*
X126483263Y-72594500D01*
X126483260Y-72594500D01*
X125416740Y-72594500D01*
X125416737Y-72594500D01*
X125348609Y-72604426D01*
X125243515Y-72655802D01*
X125160802Y-72738515D01*
X125109426Y-72843609D01*
X125099500Y-72911736D01*
X125099500Y-73778263D01*
X125109426Y-73846390D01*
X125109426Y-73846391D01*
X125109427Y-73846393D01*
X125130841Y-73890196D01*
X125160802Y-73951484D01*
X125243515Y-74034197D01*
X125243516Y-74034197D01*
X125243517Y-74034198D01*
X125348607Y-74085573D01*
X125375860Y-74089543D01*
X125416737Y-74095500D01*
X125416740Y-74095500D01*
X126483263Y-74095500D01*
X126517326Y-74090536D01*
X126551393Y-74085573D01*
X126656483Y-74034198D01*
X126739198Y-73951483D01*
X126785772Y-73856212D01*
X126832898Y-73804631D01*
X126900432Y-73786716D01*
X126915050Y-73787969D01*
X126966737Y-73795500D01*
X127472892Y-73795500D01*
X127539931Y-73815185D01*
X127585686Y-73867989D01*
X127595630Y-73937147D01*
X127566605Y-74000703D01*
X127565815Y-74001604D01*
X127536941Y-74034197D01*
X127519265Y-74054149D01*
X127440209Y-74204775D01*
X127410701Y-74324500D01*
X127399500Y-74369944D01*
X127399500Y-74540056D01*
X127402214Y-74551066D01*
X127440209Y-74705224D01*
X127479573Y-74780224D01*
X127519266Y-74855852D01*
X127607356Y-74955285D01*
X127632072Y-74983184D01*
X127659500Y-75002116D01*
X127772070Y-75079818D01*
X127931128Y-75140140D01*
X128057628Y-75155500D01*
X128061377Y-75155500D01*
X128138623Y-75155500D01*
X128142372Y-75155500D01*
X128268872Y-75140140D01*
X128427930Y-75079818D01*
X128567929Y-74983183D01*
X128680734Y-74855852D01*
X128759790Y-74705225D01*
X128800500Y-74540056D01*
X128800500Y-74369944D01*
X128759790Y-74204775D01*
X128680734Y-74054148D01*
X128634290Y-74001724D01*
X128604571Y-73938494D01*
X128613755Y-73869230D01*
X128658927Y-73815927D01*
X128725746Y-73795507D01*
X128727108Y-73795500D01*
X129233263Y-73795500D01*
X129267326Y-73790536D01*
X129301393Y-73785573D01*
X129406483Y-73734198D01*
X129489198Y-73651483D01*
X129540573Y-73546393D01*
X129549559Y-73484718D01*
X129550500Y-73478263D01*
X129550500Y-72173321D01*
X129570185Y-72106282D01*
X129586819Y-72085640D01*
X129760640Y-71911819D01*
X129821963Y-71878334D01*
X129848321Y-71875500D01*
X131025500Y-71875500D01*
X131092539Y-71895185D01*
X131138294Y-71947989D01*
X131149500Y-71999500D01*
X131149500Y-73478263D01*
X131159426Y-73546391D01*
X131173920Y-73576039D01*
X131185680Y-73644912D01*
X131158337Y-73709209D01*
X131100573Y-73748517D01*
X131063682Y-73754317D01*
X131065114Y-73754274D01*
X131063234Y-73754387D01*
X131062520Y-73754500D01*
X131057628Y-73754500D01*
X131053920Y-73754950D01*
X131053907Y-73754951D01*
X130931127Y-73769860D01*
X130772069Y-73830182D01*
X130632072Y-73926815D01*
X130519265Y-74054149D01*
X130440209Y-74204775D01*
X130410701Y-74324500D01*
X130399500Y-74369944D01*
X130399500Y-74540056D01*
X130402214Y-74551066D01*
X130440209Y-74705224D01*
X130479573Y-74780224D01*
X130519266Y-74855852D01*
X130607356Y-74955285D01*
X130632072Y-74983184D01*
X130659500Y-75002116D01*
X130772070Y-75079818D01*
X130931128Y-75140140D01*
X131057628Y-75155500D01*
X131061377Y-75155500D01*
X131138623Y-75155500D01*
X131142372Y-75155500D01*
X131268872Y-75140140D01*
X131427930Y-75079818D01*
X131567929Y-74983183D01*
X131680734Y-74855852D01*
X131759790Y-74705225D01*
X131782903Y-74611447D01*
X131818060Y-74551066D01*
X131880279Y-74519277D01*
X131949808Y-74526173D01*
X131990982Y-74553440D01*
X132375825Y-74938283D01*
X132409310Y-74999606D01*
X132410849Y-75043840D01*
X132399500Y-75121740D01*
X132399500Y-75988263D01*
X132409426Y-76056390D01*
X132460802Y-76161484D01*
X132543514Y-76244196D01*
X132543515Y-76244196D01*
X132543517Y-76244198D01*
X132584226Y-76264099D01*
X132635808Y-76311227D01*
X132653723Y-76378761D01*
X132632283Y-76445259D01*
X132578294Y-76489610D01*
X132529766Y-76499500D01*
X128001305Y-76499500D01*
X127998742Y-76499474D01*
X127052104Y-76479905D01*
X127046984Y-76479693D01*
X126731985Y-76460137D01*
X126666294Y-76436336D01*
X126623899Y-76380798D01*
X126618259Y-76311157D01*
X126651167Y-76249522D01*
X126651987Y-76248693D01*
X126656481Y-76244198D01*
X126656483Y-76244198D01*
X126739198Y-76161483D01*
X126790573Y-76056393D01*
X126800500Y-75988260D01*
X126800500Y-75121740D01*
X126800500Y-75121739D01*
X126800500Y-75121736D01*
X126791240Y-75058184D01*
X126790573Y-75053607D01*
X126739198Y-74948517D01*
X126739197Y-74948516D01*
X126739197Y-74948515D01*
X126656484Y-74865802D01*
X126594583Y-74835541D01*
X126551393Y-74814427D01*
X126551391Y-74814426D01*
X126551390Y-74814426D01*
X126483263Y-74804500D01*
X126483260Y-74804500D01*
X125416740Y-74804500D01*
X125416737Y-74804500D01*
X125348609Y-74814426D01*
X125243515Y-74865802D01*
X125160802Y-74948515D01*
X125109426Y-75053609D01*
X125099500Y-75121736D01*
X125099500Y-75988263D01*
X125109426Y-76056390D01*
X125109426Y-76056391D01*
X125109427Y-76056393D01*
X125136127Y-76111009D01*
X125143022Y-76125113D01*
X125154780Y-76193986D01*
X125127437Y-76258283D01*
X125069673Y-76297590D01*
X125013743Y-76302277D01*
X124474064Y-76223648D01*
X124204191Y-76183796D01*
X124199373Y-76182987D01*
X123573344Y-76065174D01*
X123263950Y-76006154D01*
X123259236Y-76005159D01*
X122664627Y-75867595D01*
X122331937Y-75789563D01*
X122327335Y-75788390D01*
X121756934Y-75631332D01*
X121409689Y-75534379D01*
X121405205Y-75533035D01*
X120854713Y-75356682D01*
X120498922Y-75241079D01*
X120494562Y-75239572D01*
X119961419Y-75044136D01*
X119601124Y-74910144D01*
X119601121Y-74910143D01*
X119601120Y-74910142D01*
X119596894Y-74908482D01*
X119493855Y-74865802D01*
X119079775Y-74694284D01*
X118717875Y-74542155D01*
X118713782Y-74540346D01*
X118211873Y-74307704D01*
X117850696Y-74137746D01*
X117846742Y-74135799D01*
X117359668Y-73885081D01*
X117001147Y-73697651D01*
X116997337Y-73695574D01*
X116524807Y-73427082D01*
X116170610Y-73222586D01*
X116166949Y-73220387D01*
X115709079Y-72934571D01*
X115360579Y-72713406D01*
X115357070Y-72711095D01*
X114914060Y-72408417D01*
X114572375Y-72170940D01*
X114569043Y-72168542D01*
X114141122Y-71849456D01*
X113807461Y-71596193D01*
X113804325Y-71593731D01*
X113391809Y-71258740D01*
X113228464Y-71123609D01*
X113067136Y-70990145D01*
X113064099Y-70987549D01*
X112667462Y-70637284D01*
X112514991Y-70499999D01*
X115494356Y-70499999D01*
X115514891Y-70747816D01*
X115514891Y-70747819D01*
X115514892Y-70747821D01*
X115575937Y-70988881D01*
X115618279Y-71085411D01*
X115675825Y-71216604D01*
X115675827Y-71216607D01*
X115811836Y-71424785D01*
X115980256Y-71607738D01*
X116034345Y-71649837D01*
X116176485Y-71760470D01*
X116176487Y-71760471D01*
X116176491Y-71760474D01*
X116395190Y-71878828D01*
X116630386Y-71959571D01*
X116875665Y-72000500D01*
X117124335Y-72000500D01*
X117369614Y-71959571D01*
X117604810Y-71878828D01*
X117823509Y-71760474D01*
X118019744Y-71607738D01*
X118188164Y-71424785D01*
X118324173Y-71216607D01*
X118424063Y-70988881D01*
X118485108Y-70747821D01*
X118505643Y-70500000D01*
X118485108Y-70252179D01*
X118424063Y-70011119D01*
X118325456Y-69786317D01*
X118324174Y-69783395D01*
X118324173Y-69783393D01*
X118188164Y-69575215D01*
X118019744Y-69392262D01*
X117973417Y-69356204D01*
X117823514Y-69239529D01*
X117823510Y-69239526D01*
X117823509Y-69239526D01*
X117604810Y-69121172D01*
X117604806Y-69121170D01*
X117604805Y-69121170D01*
X117369615Y-69040429D01*
X117124335Y-68999500D01*
X116875665Y-68999500D01*
X116630384Y-69040429D01*
X116395194Y-69121170D01*
X116395190Y-69121171D01*
X116395190Y-69121172D01*
X116307710Y-69168513D01*
X116176485Y-69239529D01*
X115980259Y-69392259D01*
X115980256Y-69392261D01*
X115980256Y-69392262D01*
X115811836Y-69575215D01*
X115795694Y-69599923D01*
X115675825Y-69783395D01*
X115598642Y-69959357D01*
X115575937Y-70011119D01*
X115537026Y-70164774D01*
X115514891Y-70252183D01*
X115494356Y-70499999D01*
X112514991Y-70499999D01*
X112360603Y-70360988D01*
X112352637Y-70353815D01*
X112349764Y-70351145D01*
X112347154Y-70348641D01*
X112152249Y-70161630D01*
X111969238Y-69986031D01*
X111665282Y-69688375D01*
X111662568Y-69685633D01*
X111298531Y-69306230D01*
X111268677Y-69274439D01*
X111006151Y-68994877D01*
X111003612Y-68992088D01*
X110656516Y-68599040D01*
X110376496Y-68274634D01*
X110374107Y-68271780D01*
X110044309Y-67865659D01*
X109777298Y-67528776D01*
X109775071Y-67525880D01*
X109527691Y-67194122D01*
X109463042Y-67107422D01*
X109462721Y-67106980D01*
X109209643Y-66758648D01*
X109207595Y-66755741D01*
X108913692Y-66325574D01*
X108674553Y-65965640D01*
X108672649Y-65962684D01*
X108533383Y-65739585D01*
X108397225Y-65521463D01*
X108394696Y-65517287D01*
X108172879Y-65151024D01*
X108171162Y-65148097D01*
X108129425Y-65074642D01*
X107914612Y-64696584D01*
X107705480Y-64316176D01*
X107704000Y-64313393D01*
X107466613Y-63852215D01*
X107273312Y-63462814D01*
X107271935Y-63459944D01*
X107054072Y-62989921D01*
X107048547Y-62977511D01*
X106876978Y-62592159D01*
X106875728Y-62589251D01*
X106677701Y-62111170D01*
X106639408Y-62014453D01*
X106517193Y-61705774D01*
X106516105Y-61702920D01*
X106338131Y-61217411D01*
X106309860Y-61136229D01*
X106194606Y-60805264D01*
X106193625Y-60802326D01*
X106185692Y-60777564D01*
X106036013Y-60310336D01*
X105995573Y-60176390D01*
X105909735Y-59892082D01*
X105908924Y-59889273D01*
X105771834Y-59391389D01*
X105732023Y-59236336D01*
X105663092Y-58967866D01*
X105662411Y-58965072D01*
X105588402Y-58645174D01*
X105546081Y-58462247D01*
X105531513Y-58393711D01*
X105463769Y-58075000D01*
X109044529Y-58075000D01*
X109107685Y-58245530D01*
X109209890Y-58409501D01*
X109343003Y-58549535D01*
X109501585Y-58659912D01*
X109679137Y-58736106D01*
X109868395Y-58775000D01*
X110115000Y-58775000D01*
X110115000Y-58125000D01*
X110615000Y-58125000D01*
X110615000Y-58775000D01*
X110810033Y-58775000D01*
X110816298Y-58774682D01*
X110957222Y-58760351D01*
X111141566Y-58702512D01*
X111235829Y-58650192D01*
X111303997Y-58634869D01*
X111369629Y-58658832D01*
X111411886Y-58714475D01*
X111419691Y-58749763D01*
X111420833Y-58765728D01*
X111420833Y-58765729D01*
X111422544Y-58789654D01*
X111424184Y-58812573D01*
X111424500Y-58821421D01*
X111424500Y-58834011D01*
X111426293Y-58846491D01*
X111427237Y-58855275D01*
X111430588Y-58902115D01*
X111431956Y-58905781D01*
X111438510Y-58931458D01*
X111438970Y-58934654D01*
X111439069Y-58935343D01*
X111458571Y-58978045D01*
X111461959Y-58986223D01*
X111478373Y-59030231D01*
X111480722Y-59033369D01*
X111494240Y-59056150D01*
X111495870Y-59059718D01*
X111526627Y-59095214D01*
X111532170Y-59102093D01*
X111539721Y-59112180D01*
X111548627Y-59121086D01*
X111554659Y-59127565D01*
X111585411Y-59163055D01*
X111588708Y-59165174D01*
X111609349Y-59181808D01*
X118618190Y-66190648D01*
X118634823Y-66211287D01*
X118636944Y-66214588D01*
X118672448Y-66245352D01*
X118678926Y-66251384D01*
X118687820Y-66260278D01*
X118697908Y-66267830D01*
X118704778Y-66273367D01*
X118733195Y-66297989D01*
X118740283Y-66304131D01*
X118743839Y-66305755D01*
X118766643Y-66319285D01*
X118769771Y-66321627D01*
X118785415Y-66327462D01*
X118813776Y-66338040D01*
X118821926Y-66341416D01*
X118864658Y-66360931D01*
X118868534Y-66361488D01*
X118894216Y-66368042D01*
X118897885Y-66369411D01*
X118944719Y-66372760D01*
X118953511Y-66373705D01*
X118965989Y-66375500D01*
X118978587Y-66375500D01*
X118987433Y-66375815D01*
X119034270Y-66379166D01*
X119034270Y-66379165D01*
X119034271Y-66379166D01*
X119038096Y-66378334D01*
X119064454Y-66375500D01*
X120510639Y-66375500D01*
X120577678Y-66395185D01*
X120623433Y-66447989D01*
X120633578Y-66483317D01*
X120639954Y-66531760D01*
X120700464Y-66677841D01*
X120796717Y-66803282D01*
X120878936Y-66866370D01*
X120922159Y-66899536D01*
X121010452Y-66936108D01*
X121064856Y-66979948D01*
X121086921Y-67046242D01*
X121087000Y-67050669D01*
X121087000Y-67250500D01*
X121067315Y-67317539D01*
X121014511Y-67363294D01*
X120963000Y-67374500D01*
X120519237Y-67374500D01*
X120451109Y-67384426D01*
X120346015Y-67435802D01*
X120263302Y-67518515D01*
X120211926Y-67623609D01*
X120202000Y-67691736D01*
X120202000Y-68267604D01*
X120182315Y-68334643D01*
X120177267Y-68341915D01*
X120109147Y-68432910D01*
X120058900Y-68567628D01*
X120052854Y-68623867D01*
X120052500Y-68630481D01*
X120052500Y-68750000D01*
X123052500Y-68750000D01*
X123052500Y-68630481D01*
X123052145Y-68623867D01*
X123046099Y-68567628D01*
X122995852Y-68432910D01*
X122927733Y-68341915D01*
X122903316Y-68276451D01*
X122903000Y-68267604D01*
X122903000Y-67691736D01*
X122893073Y-67623609D01*
X122893073Y-67623607D01*
X122841698Y-67518517D01*
X122841697Y-67518516D01*
X122841697Y-67518515D01*
X122758984Y-67435802D01*
X122697083Y-67405541D01*
X122653893Y-67384427D01*
X122653891Y-67384426D01*
X122653890Y-67384426D01*
X122585763Y-67374500D01*
X122585760Y-67374500D01*
X122162000Y-67374500D01*
X122094961Y-67354815D01*
X122049206Y-67302011D01*
X122038000Y-67250500D01*
X122038000Y-67050669D01*
X122057685Y-66983630D01*
X122110489Y-66937875D01*
X122114537Y-66936112D01*
X122202841Y-66899536D01*
X122328282Y-66803282D01*
X122415422Y-66689718D01*
X122471847Y-66648517D01*
X122541593Y-66644362D01*
X122602514Y-66678574D01*
X122619335Y-66700109D01*
X122707684Y-66843346D01*
X122831654Y-66967316D01*
X122980877Y-67059357D01*
X123147303Y-67114506D01*
X123246890Y-67124680D01*
X123253168Y-67124999D01*
X123387499Y-67124999D01*
X123387500Y-67124998D01*
X123387500Y-64698862D01*
X123400000Y-64656292D01*
X123400000Y-63950000D01*
X122662501Y-63950000D01*
X122662501Y-63983497D01*
X122662821Y-63989779D01*
X122672818Y-64087650D01*
X122727046Y-64251301D01*
X122817556Y-64398040D01*
X122939460Y-64519944D01*
X122967967Y-64537527D01*
X123014692Y-64589474D01*
X123025915Y-64658437D01*
X122998072Y-64722519D01*
X122967968Y-64748605D01*
X122831653Y-64832684D01*
X122707682Y-64956655D01*
X122619334Y-65099890D01*
X122567386Y-65146615D01*
X122498424Y-65157836D01*
X122434342Y-65129993D01*
X122415420Y-65110279D01*
X122407421Y-65099855D01*
X122388075Y-65074642D01*
X122328282Y-64996717D01*
X122202840Y-64900463D01*
X122056762Y-64839956D01*
X121943380Y-64825029D01*
X121943378Y-64825028D01*
X121939361Y-64824500D01*
X121935307Y-64824500D01*
X121189694Y-64824500D01*
X121189678Y-64824500D01*
X121185640Y-64824501D01*
X121181627Y-64825029D01*
X121181615Y-64825030D01*
X121068239Y-64839955D01*
X120922158Y-64900464D01*
X120796717Y-64996717D01*
X120700463Y-65122159D01*
X120639956Y-65268237D01*
X120638813Y-65276922D01*
X120634404Y-65310414D01*
X120633578Y-65316685D01*
X120605312Y-65380582D01*
X120546987Y-65419053D01*
X120510639Y-65424500D01*
X119248320Y-65424500D01*
X119181281Y-65404815D01*
X119160639Y-65388181D01*
X112749061Y-58976602D01*
X112715576Y-58915279D01*
X112720560Y-58845587D01*
X112762432Y-58789654D01*
X112827896Y-58765237D01*
X112861704Y-58767460D01*
X112898392Y-58775000D01*
X113495000Y-58775000D01*
X113495000Y-58125000D01*
X113995000Y-58125000D01*
X113995000Y-58775000D01*
X114540033Y-58775000D01*
X114546298Y-58774682D01*
X114687222Y-58760351D01*
X114871569Y-58702511D01*
X115040503Y-58608746D01*
X115187104Y-58482894D01*
X115305368Y-58330109D01*
X115390458Y-58156641D01*
X115411597Y-58075000D01*
X114661111Y-58075000D01*
X114700610Y-58050543D01*
X114768201Y-57961038D01*
X114798895Y-57853160D01*
X114788546Y-57741479D01*
X114738552Y-57641078D01*
X114666069Y-57575000D01*
X115415471Y-57575000D01*
X115415471Y-57574999D01*
X115352314Y-57404469D01*
X115271614Y-57275000D01*
X115850000Y-57275000D01*
X115850000Y-57419518D01*
X115850354Y-57426132D01*
X115856400Y-57482371D01*
X115906647Y-57617089D01*
X115992811Y-57732188D01*
X116107910Y-57818352D01*
X116242628Y-57868599D01*
X116298867Y-57874645D01*
X116305482Y-57875000D01*
X117000000Y-57875000D01*
X117000000Y-57275000D01*
X117500000Y-57275000D01*
X117500000Y-57875000D01*
X118194518Y-57875000D01*
X118201132Y-57874645D01*
X118257371Y-57868599D01*
X118392089Y-57818352D01*
X118507188Y-57732188D01*
X118593352Y-57617089D01*
X118643599Y-57482371D01*
X118649645Y-57426132D01*
X118650000Y-57419518D01*
X118650000Y-57275000D01*
X117500000Y-57275000D01*
X117000000Y-57275000D01*
X115850000Y-57275000D01*
X115271614Y-57275000D01*
X115250109Y-57240498D01*
X115186445Y-57173523D01*
X115154525Y-57111372D01*
X115161273Y-57041829D01*
X115194091Y-56995278D01*
X115253183Y-56942929D01*
X115349818Y-56802930D01*
X115410140Y-56643872D01*
X115430645Y-56475000D01*
X115410140Y-56306128D01*
X115349818Y-56147070D01*
X115337830Y-56129703D01*
X115331436Y-56120439D01*
X115309553Y-56054085D01*
X115327018Y-55986433D01*
X115331432Y-55979565D01*
X115349818Y-55952930D01*
X115351064Y-55949646D01*
X115392467Y-55840473D01*
X115410140Y-55793872D01*
X115430645Y-55625000D01*
X115410140Y-55456128D01*
X115349818Y-55297070D01*
X115331437Y-55270441D01*
X115309553Y-55204087D01*
X115327018Y-55136435D01*
X115331437Y-55129559D01*
X115336405Y-55122362D01*
X115349818Y-55102930D01*
X115410140Y-54943872D01*
X115430645Y-54775000D01*
X115430125Y-54770721D01*
X115422992Y-54711971D01*
X115410140Y-54606128D01*
X115349818Y-54447070D01*
X115342230Y-54436078D01*
X115331436Y-54420439D01*
X115309553Y-54354085D01*
X115327018Y-54286433D01*
X115331424Y-54279577D01*
X115349818Y-54252930D01*
X115410140Y-54093872D01*
X115430645Y-53925000D01*
X115410140Y-53756128D01*
X115349818Y-53597070D01*
X115331437Y-53570441D01*
X115309553Y-53504087D01*
X115327018Y-53436435D01*
X115331437Y-53429559D01*
X115332481Y-53428046D01*
X115349818Y-53402930D01*
X115410140Y-53243872D01*
X115430645Y-53075000D01*
X115410140Y-52906128D01*
X115349818Y-52747070D01*
X115339670Y-52732369D01*
X115331436Y-52720439D01*
X115309553Y-52654085D01*
X115327018Y-52586433D01*
X115331436Y-52579560D01*
X115349818Y-52552930D01*
X115351102Y-52549546D01*
X115383029Y-52465359D01*
X115410140Y-52393872D01*
X115430645Y-52225000D01*
X115410140Y-52056128D01*
X115349818Y-51897070D01*
X115331436Y-51870439D01*
X115309553Y-51804085D01*
X115327018Y-51736433D01*
X115331437Y-51729558D01*
X115349818Y-51702930D01*
X115358063Y-51681191D01*
X115395872Y-51581494D01*
X115410140Y-51543872D01*
X115430645Y-51375000D01*
X115410140Y-51206128D01*
X115391131Y-51156007D01*
X115385765Y-51086345D01*
X115410019Y-51038704D01*
X115409936Y-51038656D01*
X115410846Y-51037079D01*
X115414930Y-51029058D01*
X115416455Y-51027364D01*
X115505791Y-50872630D01*
X115561004Y-50702699D01*
X115579681Y-50525000D01*
X115561004Y-50347300D01*
X115505791Y-50177371D01*
X115476651Y-50126900D01*
X114954975Y-50648577D01*
X114893652Y-50682062D01*
X114849583Y-50681457D01*
X114885387Y-50652905D01*
X114925000Y-50570649D01*
X114925000Y-50479351D01*
X114885387Y-50397095D01*
X114814008Y-50340173D01*
X114747532Y-50325000D01*
X114702468Y-50325000D01*
X114635992Y-50340173D01*
X114564613Y-50397095D01*
X114525000Y-50479351D01*
X114525000Y-50570649D01*
X114564613Y-50652905D01*
X114599501Y-50680727D01*
X114542575Y-50678223D01*
X114495024Y-50648577D01*
X114459127Y-50612680D01*
X114425642Y-50551357D01*
X114430626Y-50481665D01*
X114459127Y-50437318D01*
X115089867Y-49806579D01*
X115151190Y-49773094D01*
X115196372Y-49776325D01*
X115232673Y-49774023D01*
X115305368Y-49680109D01*
X115390458Y-49506640D01*
X115411597Y-49425000D01*
X114661111Y-49425000D01*
X114700610Y-49400543D01*
X114768201Y-49311038D01*
X114798895Y-49203160D01*
X114788546Y-49091479D01*
X114738552Y-48991078D01*
X114666069Y-48925000D01*
X115415471Y-48925000D01*
X115415471Y-48924999D01*
X115352314Y-48754469D01*
X115250109Y-48590498D01*
X115116996Y-48450464D01*
X114958414Y-48340087D01*
X114780862Y-48263893D01*
X114591605Y-48225000D01*
X113995000Y-48225000D01*
X113995000Y-48875000D01*
X113495000Y-48875000D01*
X113495000Y-48225000D01*
X112949967Y-48225000D01*
X112943701Y-48225317D01*
X112802777Y-48239648D01*
X112618430Y-48297488D01*
X112449496Y-48391253D01*
X112302895Y-48517105D01*
X112184631Y-48669890D01*
X112099541Y-48843358D01*
X112078403Y-48925000D01*
X112828889Y-48925000D01*
X112789390Y-48949457D01*
X112721799Y-49038962D01*
X112691105Y-49146840D01*
X112701454Y-49258521D01*
X112751448Y-49358922D01*
X112823931Y-49425000D01*
X112074529Y-49425000D01*
X112137685Y-49595530D01*
X112239890Y-49759501D01*
X112373003Y-49899535D01*
X112531584Y-50009911D01*
X112671463Y-50069939D01*
X112725306Y-50114466D01*
X112746529Y-50181035D01*
X112738504Y-50227860D01*
X112689860Y-50356125D01*
X112669354Y-50525000D01*
X112689860Y-50693872D01*
X112750182Y-50852930D01*
X112768562Y-50879558D01*
X112790446Y-50945913D01*
X112772981Y-51013564D01*
X112768564Y-51020437D01*
X112750182Y-51047067D01*
X112689860Y-51206127D01*
X112669354Y-51375000D01*
X112689860Y-51543872D01*
X112750182Y-51702930D01*
X112768562Y-51729558D01*
X112790446Y-51795913D01*
X112772981Y-51863564D01*
X112768564Y-51870437D01*
X112750182Y-51897067D01*
X112689860Y-52056127D01*
X112669354Y-52225000D01*
X112689860Y-52393872D01*
X112750182Y-52552930D01*
X112768563Y-52579560D01*
X112790446Y-52645915D01*
X112772980Y-52713567D01*
X112768563Y-52720440D01*
X112750182Y-52747069D01*
X112689860Y-52906127D01*
X112669354Y-53074999D01*
X112689860Y-53243872D01*
X112750182Y-53402930D01*
X112768563Y-53429560D01*
X112790446Y-53495915D01*
X112772980Y-53563567D01*
X112768563Y-53570440D01*
X112750182Y-53597069D01*
X112689860Y-53756127D01*
X112669354Y-53924999D01*
X112689860Y-54093872D01*
X112750182Y-54252930D01*
X112768562Y-54279558D01*
X112790446Y-54345913D01*
X112772981Y-54413564D01*
X112768564Y-54420437D01*
X112750182Y-54447067D01*
X112689860Y-54606127D01*
X112669354Y-54775000D01*
X112685481Y-54907810D01*
X112689860Y-54943872D01*
X112716395Y-55013841D01*
X112726901Y-55041543D01*
X112732267Y-55111207D01*
X112699119Y-55172712D01*
X112654295Y-55201693D01*
X112649800Y-55203369D01*
X112646656Y-55205723D01*
X112623883Y-55219235D01*
X112620310Y-55220867D01*
X112584826Y-55251613D01*
X112577947Y-55257158D01*
X112567844Y-55264722D01*
X112558924Y-55273641D01*
X112552455Y-55279663D01*
X112516970Y-55310411D01*
X112514851Y-55313709D01*
X112498220Y-55334345D01*
X111609345Y-56223220D01*
X111588709Y-56239851D01*
X111585411Y-56241970D01*
X111554663Y-56277455D01*
X111548641Y-56283924D01*
X111539722Y-56292844D01*
X111532158Y-56302947D01*
X111526613Y-56309826D01*
X111495867Y-56345310D01*
X111494235Y-56348883D01*
X111480723Y-56371656D01*
X111478370Y-56374799D01*
X111461960Y-56418796D01*
X111458574Y-56426970D01*
X111439068Y-56469683D01*
X111438511Y-56473561D01*
X111431958Y-56499238D01*
X111430589Y-56502909D01*
X111427237Y-56549751D01*
X111426293Y-56558535D01*
X111424500Y-56571014D01*
X111424500Y-56583603D01*
X111424184Y-56592450D01*
X111420833Y-56639295D01*
X111421666Y-56643124D01*
X111424500Y-56669485D01*
X111424499Y-56889182D01*
X111404814Y-56956221D01*
X111352010Y-57001976D01*
X111282851Y-57011919D01*
X111240012Y-56995035D01*
X111240002Y-56995060D01*
X111239175Y-56994705D01*
X111229660Y-56990955D01*
X111228411Y-56990086D01*
X111050862Y-56913893D01*
X110861605Y-56875000D01*
X110615000Y-56875000D01*
X110615000Y-57525000D01*
X110115000Y-57525000D01*
X110115000Y-56875000D01*
X109919967Y-56875000D01*
X109913701Y-56875317D01*
X109772777Y-56889648D01*
X109588430Y-56947488D01*
X109419496Y-57041253D01*
X109272895Y-57167105D01*
X109154631Y-57319890D01*
X109069541Y-57493358D01*
X109048403Y-57575000D01*
X109798889Y-57575000D01*
X109759390Y-57599457D01*
X109691799Y-57688962D01*
X109661105Y-57796840D01*
X109671454Y-57908521D01*
X109721448Y-58008922D01*
X109793931Y-58075000D01*
X109044529Y-58075000D01*
X105463769Y-58075000D01*
X105455112Y-58034274D01*
X105454546Y-58031447D01*
X105453185Y-58024217D01*
X105385721Y-57665728D01*
X105359139Y-57524477D01*
X105353876Y-57493358D01*
X105286103Y-57092664D01*
X105285715Y-57090203D01*
X105211337Y-56579706D01*
X105156426Y-56145036D01*
X105156132Y-56142479D01*
X105102938Y-55629567D01*
X105066263Y-55192812D01*
X105066083Y-55190357D01*
X105034205Y-54676889D01*
X105034083Y-54674546D01*
X105015777Y-54237770D01*
X105015699Y-54235291D01*
X105005070Y-53721079D01*
X105005044Y-53718517D01*
X105005044Y-53281481D01*
X105005070Y-53278919D01*
X105006984Y-53186340D01*
X105015699Y-52764702D01*
X105015777Y-52762235D01*
X105034084Y-52325442D01*
X105034204Y-52323119D01*
X105066083Y-51809655D01*
X105066267Y-51807131D01*
X105102939Y-51370419D01*
X105156134Y-50857500D01*
X105156434Y-50854897D01*
X105211333Y-50420323D01*
X105285721Y-49909754D01*
X105286096Y-49907376D01*
X105359142Y-49475504D01*
X105368646Y-49425000D01*
X109044529Y-49425000D01*
X109107685Y-49595530D01*
X109209890Y-49759501D01*
X109343003Y-49899535D01*
X109501585Y-50009912D01*
X109679137Y-50086106D01*
X109868395Y-50125000D01*
X110115000Y-50125000D01*
X110115000Y-49475000D01*
X110615000Y-49475000D01*
X110615000Y-50125000D01*
X110810033Y-50125000D01*
X110816298Y-50124682D01*
X110957222Y-50110351D01*
X111141569Y-50052511D01*
X111310503Y-49958746D01*
X111457104Y-49832894D01*
X111575368Y-49680109D01*
X111660458Y-49506641D01*
X111681597Y-49425000D01*
X110931111Y-49425000D01*
X110970610Y-49400543D01*
X111038201Y-49311038D01*
X111068895Y-49203160D01*
X111058546Y-49091479D01*
X111008552Y-48991078D01*
X110936069Y-48925000D01*
X111685471Y-48925000D01*
X111685471Y-48924999D01*
X111622314Y-48754469D01*
X111520109Y-48590498D01*
X111386996Y-48450464D01*
X111228414Y-48340087D01*
X111050862Y-48263893D01*
X110861605Y-48225000D01*
X110615000Y-48225000D01*
X110615000Y-48875000D01*
X110115000Y-48875000D01*
X110115000Y-48225000D01*
X109919967Y-48225000D01*
X109913701Y-48225317D01*
X109772777Y-48239648D01*
X109588430Y-48297488D01*
X109419496Y-48391253D01*
X109272895Y-48517105D01*
X109154631Y-48669890D01*
X109069541Y-48843358D01*
X109048403Y-48925000D01*
X109798889Y-48925000D01*
X109759390Y-48949457D01*
X109691799Y-49038962D01*
X109661105Y-49146840D01*
X109671454Y-49258521D01*
X109721448Y-49358922D01*
X109793931Y-49425000D01*
X109044529Y-49425000D01*
X105368646Y-49425000D01*
X105454555Y-48968504D01*
X105455116Y-48965709D01*
X105546076Y-48537772D01*
X105662418Y-48034896D01*
X105663115Y-48032043D01*
X105771837Y-47608599D01*
X105908931Y-47110703D01*
X105909722Y-47107960D01*
X106017797Y-46750000D01*
X111200001Y-46750000D01*
X111200001Y-46783497D01*
X111200321Y-46789779D01*
X111210318Y-46887650D01*
X111264546Y-47051301D01*
X111355056Y-47198040D01*
X111476959Y-47319943D01*
X111623698Y-47410453D01*
X111787348Y-47464681D01*
X111885203Y-47474678D01*
X111891520Y-47474999D01*
X111937499Y-47474999D01*
X111937500Y-47474998D01*
X111937500Y-46750000D01*
X111200001Y-46750000D01*
X106017797Y-46750000D01*
X106036015Y-46689659D01*
X106193651Y-46197591D01*
X106194590Y-46194783D01*
X106338130Y-45782589D01*
X106448572Y-45481308D01*
X106490123Y-45425150D01*
X106555450Y-45400367D01*
X106564988Y-45400000D01*
X111493764Y-45400000D01*
X111560803Y-45419685D01*
G37*
%TD.AperFunction*%
%TA.AperFunction,Conductor*%
G36*
X162001257Y-30500525D02*
G01*
X162947901Y-30520094D01*
X162953011Y-30520305D01*
X163879087Y-30577801D01*
X163897278Y-30578945D01*
X163902129Y-30579350D01*
X164653985Y-30657326D01*
X164849055Y-30677829D01*
X164853836Y-30678429D01*
X165526153Y-30776383D01*
X165795853Y-30816209D01*
X165800580Y-30817003D01*
X166426894Y-30934870D01*
X166736102Y-30993855D01*
X166740700Y-30994825D01*
X167335401Y-31132411D01*
X167668110Y-31210447D01*
X167672627Y-31211598D01*
X168066408Y-31320025D01*
X168243065Y-31368667D01*
X168590330Y-31465625D01*
X168594773Y-31466957D01*
X168983076Y-31591352D01*
X169145286Y-31643317D01*
X169221816Y-31668183D01*
X169501104Y-31758928D01*
X169505410Y-31760417D01*
X169935818Y-31918193D01*
X170038580Y-31955863D01*
X170398937Y-32089878D01*
X170403042Y-32091491D01*
X170920237Y-32305720D01*
X171282138Y-32457849D01*
X171286216Y-32459652D01*
X171788126Y-32692295D01*
X172149302Y-32862252D01*
X172153214Y-32864178D01*
X172640376Y-33114941D01*
X172998864Y-33302354D01*
X173002650Y-33304418D01*
X173475229Y-33572938D01*
X173829414Y-33777428D01*
X173833048Y-33779610D01*
X174268623Y-34051510D01*
X174290920Y-34065428D01*
X174639419Y-34286592D01*
X174642914Y-34288893D01*
X174897677Y-34462955D01*
X175085940Y-34591582D01*
X175427623Y-34829058D01*
X175430978Y-34831474D01*
X175858846Y-35150520D01*
X176192555Y-35403818D01*
X176195657Y-35406254D01*
X176608202Y-35741269D01*
X176717808Y-35831943D01*
X176932862Y-36009853D01*
X176935899Y-36012449D01*
X177332537Y-36362715D01*
X177647356Y-36646178D01*
X177650222Y-36648842D01*
X177761121Y-36755249D01*
X178030761Y-37013968D01*
X178334716Y-37311623D01*
X178337430Y-37314365D01*
X178701468Y-37693769D01*
X178989507Y-38000500D01*
X178993834Y-38005107D01*
X178996386Y-38007909D01*
X179343483Y-38400958D01*
X179623502Y-38725364D01*
X179625891Y-38728218D01*
X179955690Y-39134340D01*
X180222700Y-39471222D01*
X180224927Y-39474118D01*
X180536949Y-39892566D01*
X180790338Y-40241326D01*
X180792403Y-40244257D01*
X181086307Y-40674425D01*
X181325445Y-41034358D01*
X181327349Y-41037314D01*
X181602759Y-41478511D01*
X181827091Y-41848927D01*
X181828836Y-41851901D01*
X182085382Y-42303405D01*
X182294490Y-42683771D01*
X182296027Y-42686661D01*
X182533387Y-43147784D01*
X182726658Y-43537126D01*
X182728090Y-43540111D01*
X182945920Y-44010063D01*
X183123009Y-44407814D01*
X183124289Y-44410792D01*
X183322298Y-44888829D01*
X183482778Y-45294153D01*
X183483908Y-45297119D01*
X183661859Y-45782562D01*
X183805389Y-46194727D01*
X183806373Y-46197672D01*
X183963984Y-46689659D01*
X184090252Y-47107880D01*
X184091094Y-47110797D01*
X184228162Y-47608599D01*
X184336884Y-48032043D01*
X184337587Y-48034925D01*
X184453917Y-48537747D01*
X184544883Y-48965709D01*
X184545452Y-48968551D01*
X184640857Y-49475504D01*
X184713872Y-49907191D01*
X184714312Y-49909987D01*
X184788661Y-50420288D01*
X184843559Y-50854852D01*
X184843874Y-50857595D01*
X184897060Y-51370419D01*
X184933725Y-51807049D01*
X184933921Y-51809734D01*
X184965789Y-52323036D01*
X184965918Y-52325527D01*
X184984218Y-52762151D01*
X184984301Y-52764781D01*
X184994930Y-53278918D01*
X184994956Y-53281481D01*
X184994956Y-53718517D01*
X184994930Y-53721080D01*
X184984301Y-54235217D01*
X184984218Y-54237847D01*
X184965918Y-54674471D01*
X184965789Y-54676962D01*
X184933921Y-55190260D01*
X184933724Y-55192952D01*
X184897060Y-55629580D01*
X184843874Y-56142402D01*
X184843558Y-56145146D01*
X184788661Y-56579711D01*
X184747764Y-56860414D01*
X184716595Y-57074349D01*
X184714319Y-57089968D01*
X184713879Y-57092764D01*
X184675464Y-57319890D01*
X184647983Y-57482371D01*
X184640861Y-57524477D01*
X184545452Y-58031447D01*
X184544882Y-58034290D01*
X184453917Y-58462252D01*
X184337587Y-58965073D01*
X184336883Y-58967955D01*
X184228162Y-59391400D01*
X184091094Y-59889201D01*
X184090252Y-59892118D01*
X183963984Y-60310340D01*
X183806373Y-60802326D01*
X183805389Y-60805271D01*
X183661859Y-61217437D01*
X183483909Y-61702879D01*
X183482778Y-61705845D01*
X183322298Y-62111170D01*
X183124290Y-62589205D01*
X183123010Y-62592184D01*
X182945920Y-62989936D01*
X182728090Y-63459888D01*
X182726657Y-63462873D01*
X182533387Y-63852215D01*
X182296038Y-64313317D01*
X182294450Y-64316300D01*
X182085388Y-64696584D01*
X181828835Y-65148098D01*
X181827090Y-65151071D01*
X181602759Y-65521488D01*
X181327350Y-65962684D01*
X181325445Y-65965640D01*
X181086307Y-66325573D01*
X180792403Y-66755741D01*
X180790338Y-66758672D01*
X180536949Y-67107433D01*
X180224927Y-67525880D01*
X180222700Y-67528776D01*
X179955691Y-67865659D01*
X179625892Y-68271781D01*
X179623502Y-68274635D01*
X179343483Y-68599041D01*
X178996387Y-68992088D01*
X178993834Y-68994891D01*
X178701468Y-69306230D01*
X178337430Y-69685633D01*
X178334715Y-69688375D01*
X178030761Y-69986030D01*
X177650233Y-70351146D01*
X177647356Y-70353820D01*
X177332538Y-70637284D01*
X176935900Y-70987549D01*
X176932863Y-70990145D01*
X176608189Y-71258740D01*
X176195723Y-71593692D01*
X176192525Y-71596203D01*
X175858846Y-71849479D01*
X175430978Y-72168525D01*
X175427624Y-72170940D01*
X175085941Y-72408416D01*
X174642929Y-72711095D01*
X174639419Y-72713407D01*
X174290920Y-72934571D01*
X173833048Y-73220388D01*
X173829387Y-73222586D01*
X173475192Y-73427082D01*
X173002661Y-73695574D01*
X172998852Y-73697651D01*
X172640331Y-73885081D01*
X172153256Y-74135799D01*
X172149303Y-74137745D01*
X171788126Y-74307703D01*
X171286217Y-74540346D01*
X171282123Y-74542155D01*
X170920206Y-74694292D01*
X170403103Y-74908481D01*
X170398874Y-74910143D01*
X170038580Y-75044136D01*
X169505437Y-75239572D01*
X169501077Y-75241079D01*
X169145286Y-75356682D01*
X168594793Y-75533035D01*
X168590309Y-75534379D01*
X168243065Y-75631332D01*
X167672663Y-75788390D01*
X167668061Y-75789563D01*
X167335373Y-75867595D01*
X166740763Y-76005159D01*
X166736049Y-76006154D01*
X166426655Y-76065174D01*
X165800625Y-76182987D01*
X165795807Y-76183796D01*
X165526117Y-76223621D01*
X165334124Y-76251593D01*
X165264947Y-76241779D01*
X165212057Y-76196123D01*
X165192247Y-76129120D01*
X165193543Y-76111009D01*
X165200500Y-76063261D01*
X165200500Y-75196736D01*
X165193882Y-75151317D01*
X165190573Y-75128607D01*
X165139198Y-75023517D01*
X165139197Y-75023516D01*
X165139197Y-75023515D01*
X165056484Y-74940802D01*
X164998741Y-74912574D01*
X164951393Y-74889427D01*
X164951391Y-74889426D01*
X164951390Y-74889426D01*
X164883263Y-74879500D01*
X164883260Y-74879500D01*
X163816740Y-74879500D01*
X163816737Y-74879500D01*
X163748609Y-74889426D01*
X163643515Y-74940802D01*
X163560802Y-75023515D01*
X163509426Y-75128609D01*
X163499500Y-75196736D01*
X163499500Y-76063263D01*
X163509426Y-76131390D01*
X163509426Y-76131391D01*
X163509427Y-76131393D01*
X163534650Y-76182987D01*
X163564466Y-76243979D01*
X163593344Y-76296864D01*
X163588360Y-76366556D01*
X163546488Y-76422489D01*
X163481024Y-76446906D01*
X163479862Y-76446984D01*
X162953017Y-76479693D01*
X162947896Y-76479905D01*
X162001258Y-76499474D01*
X161998695Y-76499500D01*
X157875544Y-76499500D01*
X157808505Y-76479815D01*
X157762750Y-76427011D01*
X157752806Y-76357853D01*
X157781831Y-76294297D01*
X157787863Y-76287819D01*
X157839197Y-76236484D01*
X157839197Y-76236483D01*
X157839198Y-76236483D01*
X157890573Y-76131393D01*
X157895536Y-76097326D01*
X157900500Y-76063263D01*
X157900500Y-75752320D01*
X157920185Y-75685281D01*
X157972989Y-75639526D01*
X158042147Y-75629582D01*
X158105703Y-75658607D01*
X158112181Y-75664639D01*
X158238190Y-75790648D01*
X158254822Y-75811286D01*
X158256945Y-75814589D01*
X158292434Y-75845340D01*
X158292447Y-75845351D01*
X158298928Y-75851386D01*
X158307818Y-75860277D01*
X158317905Y-75867828D01*
X158324776Y-75873365D01*
X158360282Y-75904130D01*
X158363838Y-75905754D01*
X158386641Y-75919284D01*
X158389771Y-75921627D01*
X158389772Y-75921627D01*
X158389773Y-75921628D01*
X158389776Y-75921629D01*
X158433765Y-75938036D01*
X158441932Y-75941418D01*
X158484658Y-75960931D01*
X158488534Y-75961488D01*
X158514216Y-75968042D01*
X158517885Y-75969411D01*
X158564719Y-75972760D01*
X158573511Y-75973705D01*
X158585989Y-75975500D01*
X158598587Y-75975500D01*
X158607433Y-75975815D01*
X158654270Y-75979166D01*
X158654270Y-75979165D01*
X158654271Y-75979166D01*
X158658096Y-75978334D01*
X158684454Y-75975500D01*
X159635541Y-75975500D01*
X159661899Y-75978333D01*
X159665729Y-75979167D01*
X159712575Y-75975815D01*
X159721422Y-75975500D01*
X159734011Y-75975500D01*
X159746485Y-75973706D01*
X159755269Y-75972761D01*
X159802115Y-75969411D01*
X159804488Y-75968525D01*
X159805778Y-75968045D01*
X159831465Y-75961488D01*
X159835342Y-75960931D01*
X159878072Y-75941415D01*
X159886207Y-75938045D01*
X159930226Y-75921629D01*
X159933361Y-75919281D01*
X159956153Y-75905757D01*
X159959718Y-75904130D01*
X159995203Y-75873380D01*
X160002084Y-75867835D01*
X160012180Y-75860279D01*
X160012184Y-75860275D01*
X160021083Y-75851376D01*
X160027566Y-75845340D01*
X160063052Y-75814592D01*
X160063052Y-75814591D01*
X160063055Y-75814589D01*
X160065173Y-75811292D01*
X160081803Y-75790654D01*
X160590654Y-75281803D01*
X160611292Y-75265173D01*
X160614589Y-75263055D01*
X160633631Y-75241079D01*
X160645340Y-75227566D01*
X160651376Y-75221083D01*
X160660275Y-75212184D01*
X160660275Y-75212183D01*
X160660279Y-75212180D01*
X160667835Y-75202084D01*
X160673387Y-75195196D01*
X160704130Y-75159718D01*
X160705757Y-75156153D01*
X160719281Y-75133361D01*
X160721629Y-75130226D01*
X160738045Y-75086207D01*
X160741415Y-75078072D01*
X160760931Y-75035342D01*
X160761488Y-75031465D01*
X160768045Y-75005778D01*
X160768525Y-75004488D01*
X160769411Y-75002115D01*
X160772761Y-74955269D01*
X160773707Y-74946478D01*
X160775500Y-74934010D01*
X160775500Y-74921421D01*
X160775816Y-74912574D01*
X160776109Y-74908481D01*
X160779167Y-74865729D01*
X160778334Y-74861899D01*
X160775500Y-74835541D01*
X160775500Y-73184459D01*
X160778334Y-73158099D01*
X160779167Y-73154271D01*
X160775816Y-73107420D01*
X160775500Y-73098574D01*
X160775500Y-73085991D01*
X160774120Y-73076393D01*
X160773705Y-73073511D01*
X160772761Y-73064719D01*
X160769412Y-73017885D01*
X160768045Y-73014220D01*
X160761486Y-72988521D01*
X160761230Y-72986740D01*
X160760931Y-72984658D01*
X160741424Y-72941944D01*
X160738039Y-72933772D01*
X160721629Y-72889775D01*
X160721629Y-72889774D01*
X160719277Y-72886633D01*
X160705756Y-72863842D01*
X160704130Y-72860282D01*
X160704128Y-72860280D01*
X160704128Y-72860279D01*
X160680786Y-72833340D01*
X160651762Y-72769784D01*
X160650500Y-72752139D01*
X160650500Y-71986736D01*
X160640573Y-71918609D01*
X160640573Y-71918607D01*
X160589198Y-71813517D01*
X160589197Y-71813516D01*
X160589197Y-71813515D01*
X160506484Y-71730802D01*
X160452712Y-71704515D01*
X160401393Y-71679427D01*
X160401391Y-71679426D01*
X160401390Y-71679426D01*
X160333263Y-71669500D01*
X160333260Y-71669500D01*
X159566740Y-71669500D01*
X159566737Y-71669500D01*
X159498609Y-71679426D01*
X159393515Y-71730802D01*
X159304783Y-71819534D01*
X159264271Y-71863874D01*
X159196737Y-71881788D01*
X159130239Y-71860346D01*
X159092657Y-71816975D01*
X159006484Y-71730802D01*
X158952712Y-71704515D01*
X158901393Y-71679427D01*
X158901391Y-71679426D01*
X158901390Y-71679426D01*
X158833263Y-71669500D01*
X158833260Y-71669500D01*
X158602321Y-71669500D01*
X158535282Y-71649815D01*
X158489527Y-71597011D01*
X158479583Y-71527853D01*
X158508608Y-71464297D01*
X158514640Y-71457819D01*
X158760640Y-71211819D01*
X158821963Y-71178334D01*
X158848321Y-71175500D01*
X161351679Y-71175500D01*
X161418718Y-71195185D01*
X161439360Y-71211819D01*
X162213181Y-71985639D01*
X162246666Y-72046962D01*
X162249500Y-72073320D01*
X162249500Y-73553263D01*
X162259426Y-73621391D01*
X162273920Y-73651039D01*
X162285680Y-73719912D01*
X162258337Y-73784209D01*
X162200573Y-73823517D01*
X162163682Y-73829317D01*
X162165114Y-73829274D01*
X162163234Y-73829387D01*
X162162520Y-73829500D01*
X162157628Y-73829500D01*
X162153920Y-73829950D01*
X162153907Y-73829951D01*
X162031127Y-73844860D01*
X161872069Y-73905182D01*
X161732072Y-74001815D01*
X161619265Y-74129149D01*
X161540209Y-74279775D01*
X161499500Y-74444944D01*
X161499500Y-74615055D01*
X161540209Y-74780224D01*
X161583076Y-74861899D01*
X161619266Y-74930852D01*
X161728017Y-75053607D01*
X161732072Y-75058184D01*
X161763413Y-75079817D01*
X161872070Y-75154818D01*
X162031128Y-75215140D01*
X162157628Y-75230500D01*
X162161377Y-75230500D01*
X162238623Y-75230500D01*
X162242372Y-75230500D01*
X162368872Y-75215140D01*
X162527930Y-75154818D01*
X162667929Y-75058183D01*
X162780734Y-74930852D01*
X162859790Y-74780225D01*
X162900500Y-74615056D01*
X162900500Y-74444944D01*
X162859790Y-74279775D01*
X162780734Y-74129148D01*
X162734290Y-74076724D01*
X162704571Y-74013494D01*
X162713755Y-73944230D01*
X162758927Y-73890927D01*
X162825746Y-73870507D01*
X162827108Y-73870500D01*
X163333262Y-73870500D01*
X163384948Y-73862969D01*
X163454125Y-73872782D01*
X163507016Y-73918437D01*
X163514225Y-73931208D01*
X163527350Y-73958055D01*
X163560803Y-74026485D01*
X163643515Y-74109197D01*
X163643516Y-74109197D01*
X163643517Y-74109198D01*
X163748607Y-74160573D01*
X163775860Y-74164543D01*
X163816737Y-74170500D01*
X163816740Y-74170500D01*
X164883263Y-74170500D01*
X164917326Y-74165536D01*
X164951393Y-74160573D01*
X165056483Y-74109198D01*
X165139198Y-74026483D01*
X165190573Y-73921393D01*
X165198354Y-73867989D01*
X165200500Y-73853263D01*
X165200500Y-72986736D01*
X165192899Y-72934571D01*
X165190573Y-72918607D01*
X165139198Y-72813517D01*
X165139197Y-72813516D01*
X165139197Y-72813515D01*
X165056484Y-72730802D01*
X165000367Y-72703369D01*
X164951393Y-72679427D01*
X164951391Y-72679426D01*
X164951390Y-72679426D01*
X164883263Y-72669500D01*
X164883260Y-72669500D01*
X163816740Y-72669500D01*
X163816737Y-72669500D01*
X163792378Y-72673049D01*
X163723201Y-72663236D01*
X163670311Y-72617580D01*
X163650500Y-72550578D01*
X163650500Y-71986736D01*
X163640573Y-71918609D01*
X163640573Y-71918607D01*
X163589198Y-71813517D01*
X163589197Y-71813516D01*
X163589197Y-71813515D01*
X163506484Y-71730802D01*
X163452712Y-71704515D01*
X163401393Y-71679427D01*
X163401391Y-71679426D01*
X163401390Y-71679426D01*
X163333263Y-71669500D01*
X163333260Y-71669500D01*
X163293320Y-71669500D01*
X163226281Y-71649815D01*
X163205639Y-71633181D01*
X162604141Y-71031683D01*
X162072458Y-70499999D01*
X171494356Y-70499999D01*
X171514891Y-70747816D01*
X171514891Y-70747819D01*
X171514892Y-70747821D01*
X171575937Y-70988881D01*
X171618279Y-71085411D01*
X171675825Y-71216604D01*
X171675827Y-71216607D01*
X171811836Y-71424785D01*
X171980256Y-71607738D01*
X172034345Y-71649837D01*
X172176485Y-71760470D01*
X172176487Y-71760471D01*
X172176491Y-71760474D01*
X172395190Y-71878828D01*
X172630386Y-71959571D01*
X172875665Y-72000500D01*
X173124335Y-72000500D01*
X173369614Y-71959571D01*
X173604810Y-71878828D01*
X173823509Y-71760474D01*
X174019744Y-71607738D01*
X174188164Y-71424785D01*
X174324173Y-71216607D01*
X174424063Y-70988881D01*
X174485108Y-70747821D01*
X174505643Y-70500000D01*
X174485108Y-70252179D01*
X174424063Y-70011119D01*
X174325456Y-69786317D01*
X174324174Y-69783395D01*
X174324173Y-69783393D01*
X174188164Y-69575215D01*
X174019744Y-69392262D01*
X173973417Y-69356204D01*
X173823514Y-69239529D01*
X173823510Y-69239526D01*
X173823509Y-69239526D01*
X173604810Y-69121172D01*
X173604806Y-69121170D01*
X173604805Y-69121170D01*
X173369615Y-69040429D01*
X173124335Y-68999500D01*
X172875665Y-68999500D01*
X172630384Y-69040429D01*
X172395194Y-69121170D01*
X172395190Y-69121171D01*
X172395190Y-69121172D01*
X172307710Y-69168513D01*
X172176485Y-69239529D01*
X171980259Y-69392259D01*
X171980256Y-69392261D01*
X171980256Y-69392262D01*
X171811836Y-69575215D01*
X171795694Y-69599923D01*
X171675825Y-69783395D01*
X171598642Y-69959357D01*
X171575937Y-70011119D01*
X171537026Y-70164774D01*
X171514891Y-70252183D01*
X171494356Y-70499999D01*
X162072458Y-70499999D01*
X161981808Y-70409349D01*
X161965174Y-70388708D01*
X161963055Y-70385411D01*
X161927565Y-70354659D01*
X161921086Y-70348627D01*
X161912180Y-70339721D01*
X161902093Y-70332170D01*
X161895214Y-70326627D01*
X161859718Y-70295870D01*
X161859716Y-70295869D01*
X161856150Y-70294240D01*
X161833369Y-70280722D01*
X161830231Y-70278373D01*
X161825823Y-70276729D01*
X161786219Y-70261957D01*
X161778045Y-70258571D01*
X161735343Y-70239069D01*
X161734654Y-70238970D01*
X161731458Y-70238510D01*
X161705781Y-70231956D01*
X161702115Y-70230588D01*
X161655275Y-70227237D01*
X161646491Y-70226293D01*
X161634012Y-70224500D01*
X161634011Y-70224500D01*
X161621422Y-70224500D01*
X161612575Y-70224184D01*
X161607780Y-70223841D01*
X161565729Y-70220833D01*
X161565728Y-70220833D01*
X161561900Y-70221666D01*
X161535541Y-70224500D01*
X158664459Y-70224500D01*
X158638101Y-70221666D01*
X158634271Y-70220833D01*
X158634270Y-70220833D01*
X158587420Y-70224184D01*
X158578574Y-70224500D01*
X158565989Y-70224500D01*
X158553520Y-70226292D01*
X158544728Y-70227237D01*
X158497883Y-70230588D01*
X158494210Y-70231958D01*
X158468536Y-70238511D01*
X158464657Y-70239068D01*
X158421945Y-70258574D01*
X158413772Y-70261960D01*
X158369772Y-70278371D01*
X158366633Y-70280722D01*
X158343854Y-70294237D01*
X158340283Y-70295867D01*
X158304800Y-70326613D01*
X158297921Y-70332158D01*
X158287818Y-70339722D01*
X158278898Y-70348641D01*
X158272429Y-70354663D01*
X158236944Y-70385411D01*
X158234825Y-70388709D01*
X158218194Y-70409345D01*
X157884291Y-70743248D01*
X157822968Y-70776733D01*
X157753276Y-70771749D01*
X157708928Y-70743247D01*
X157686484Y-70720802D01*
X157605348Y-70681138D01*
X157581393Y-70669427D01*
X157581391Y-70669426D01*
X157581390Y-70669426D01*
X157513263Y-70659500D01*
X157513260Y-70659500D01*
X157463926Y-70659500D01*
X157396887Y-70639815D01*
X157351132Y-70587011D01*
X157341188Y-70517853D01*
X157370213Y-70454297D01*
X157392802Y-70433925D01*
X157501081Y-70358106D01*
X157668106Y-70191081D01*
X157803600Y-69997576D01*
X157903430Y-69783492D01*
X157960636Y-69570000D01*
X157063686Y-69570000D01*
X157089493Y-69529844D01*
X157130000Y-69391889D01*
X157130000Y-69248111D01*
X157089493Y-69110156D01*
X157063686Y-69070000D01*
X157960636Y-69070000D01*
X157960635Y-69069999D01*
X157903430Y-68856507D01*
X157803599Y-68642421D01*
X157668109Y-68448921D01*
X157501081Y-68281893D01*
X157307576Y-68146398D01*
X157171079Y-68082748D01*
X157118640Y-68036575D01*
X157099488Y-67969381D01*
X157119704Y-67902500D01*
X157158207Y-67864939D01*
X157167398Y-67859248D01*
X157167401Y-67859247D01*
X157356562Y-67742124D01*
X157520981Y-67592236D01*
X157655058Y-67414689D01*
X157754229Y-67215528D01*
X157764744Y-67178574D01*
X157784985Y-67107433D01*
X157815115Y-67001536D01*
X157835643Y-66780000D01*
X157815115Y-66558464D01*
X157771569Y-66405415D01*
X157754230Y-66344473D01*
X157655058Y-66145311D01*
X157520980Y-65967762D01*
X157356562Y-65817875D01*
X157167404Y-65700754D01*
X157130189Y-65686337D01*
X156973475Y-65625625D01*
X156918076Y-65583054D01*
X156894485Y-65517287D01*
X156910196Y-65449207D01*
X156960220Y-65400428D01*
X156973466Y-65394377D01*
X157167401Y-65319247D01*
X157356562Y-65202124D01*
X157417452Y-65146615D01*
X157520980Y-65052237D01*
X157540820Y-65025965D01*
X157655058Y-64874689D01*
X157754229Y-64675528D01*
X157761493Y-64650000D01*
X157780709Y-64582461D01*
X157815115Y-64461536D01*
X157835643Y-64240000D01*
X157815115Y-64018464D01*
X157778655Y-63890320D01*
X157754230Y-63804473D01*
X157655058Y-63605311D01*
X157520980Y-63427762D01*
X157356562Y-63277875D01*
X157167404Y-63160754D01*
X157096224Y-63133179D01*
X156973475Y-63085625D01*
X156918076Y-63043054D01*
X156894485Y-62977287D01*
X156910196Y-62909207D01*
X156960220Y-62860428D01*
X156973466Y-62854377D01*
X157167401Y-62779247D01*
X157356562Y-62662124D01*
X157520981Y-62512236D01*
X157655058Y-62334689D01*
X157754229Y-62135528D01*
X157756340Y-62128111D01*
X157792471Y-62001122D01*
X157815115Y-61921536D01*
X157835643Y-61700000D01*
X157815115Y-61478464D01*
X157767121Y-61309781D01*
X157754230Y-61264473D01*
X157655058Y-61065311D01*
X157520980Y-60887762D01*
X157356562Y-60737875D01*
X157167404Y-60620754D01*
X157075995Y-60585342D01*
X156959940Y-60540382D01*
X156741243Y-60499500D01*
X156518757Y-60499500D01*
X156341246Y-60532683D01*
X156300060Y-60540382D01*
X156092595Y-60620754D01*
X155903437Y-60737875D01*
X155739019Y-60887762D01*
X155604941Y-61065311D01*
X155505769Y-61264473D01*
X155444885Y-61478462D01*
X155424357Y-61700000D01*
X155444885Y-61921537D01*
X155505769Y-62135526D01*
X155604941Y-62334688D01*
X155739019Y-62512237D01*
X155903437Y-62662124D01*
X156024138Y-62736858D01*
X156092599Y-62779247D01*
X156286522Y-62854373D01*
X156341924Y-62896946D01*
X156365514Y-62962713D01*
X156349803Y-63030793D01*
X156299779Y-63079572D01*
X156286526Y-63085624D01*
X156236003Y-63105198D01*
X156092596Y-63160754D01*
X155903437Y-63277875D01*
X155739019Y-63427762D01*
X155604941Y-63605311D01*
X155505769Y-63804473D01*
X155444885Y-64018462D01*
X155424656Y-64236771D01*
X155424357Y-64240000D01*
X155431151Y-64313317D01*
X155444885Y-64461537D01*
X155505769Y-64675526D01*
X155604941Y-64874688D01*
X155739019Y-65052237D01*
X155903437Y-65202124D01*
X156024241Y-65276922D01*
X156092599Y-65319247D01*
X156286522Y-65394373D01*
X156341924Y-65436946D01*
X156365514Y-65502713D01*
X156349803Y-65570793D01*
X156299779Y-65619572D01*
X156286526Y-65625624D01*
X156183814Y-65665416D01*
X156092596Y-65700754D01*
X155903437Y-65817875D01*
X155739019Y-65967762D01*
X155604941Y-66145311D01*
X155505769Y-66344473D01*
X155444885Y-66558462D01*
X155424357Y-66780000D01*
X155444885Y-67001537D01*
X155505769Y-67215526D01*
X155604941Y-67414688D01*
X155739019Y-67592237D01*
X155903437Y-67742124D01*
X156101793Y-67864940D01*
X156148429Y-67916968D01*
X156159533Y-67985949D01*
X156131580Y-68049984D01*
X156088921Y-68082749D01*
X155952421Y-68146400D01*
X155758921Y-68281890D01*
X155591890Y-68448921D01*
X155456400Y-68642421D01*
X155356569Y-68856507D01*
X155299364Y-69069999D01*
X155299364Y-69070000D01*
X156196314Y-69070000D01*
X156170507Y-69110156D01*
X156130000Y-69248111D01*
X156130000Y-69391889D01*
X156170507Y-69529844D01*
X156196314Y-69570000D01*
X155299364Y-69570000D01*
X155356569Y-69783492D01*
X155456399Y-69997576D01*
X155591893Y-70191081D01*
X155758918Y-70358106D01*
X155867198Y-70433925D01*
X155910822Y-70488502D01*
X155918015Y-70558001D01*
X155886493Y-70620355D01*
X155826263Y-70655769D01*
X155796074Y-70659500D01*
X155746737Y-70659500D01*
X155678609Y-70669426D01*
X155573515Y-70720802D01*
X155490802Y-70803515D01*
X155439426Y-70908609D01*
X155429500Y-70976736D01*
X155429500Y-72743263D01*
X155439426Y-72811390D01*
X155439426Y-72811391D01*
X155439427Y-72811393D01*
X155459185Y-72851808D01*
X155490802Y-72916484D01*
X155573515Y-72999197D01*
X155573516Y-72999197D01*
X155573517Y-72999198D01*
X155678607Y-73050573D01*
X155705860Y-73054543D01*
X155746737Y-73060500D01*
X155746740Y-73060500D01*
X156075500Y-73060500D01*
X156142539Y-73080185D01*
X156188294Y-73132989D01*
X156199500Y-73184500D01*
X156199500Y-73853263D01*
X156209426Y-73921390D01*
X156209426Y-73921391D01*
X156209427Y-73921393D01*
X156225674Y-73954626D01*
X156260802Y-74026484D01*
X156347137Y-74112819D01*
X156380622Y-74174142D01*
X156375638Y-74243834D01*
X156333766Y-74299767D01*
X156268302Y-74324184D01*
X156259456Y-74324500D01*
X151747320Y-74324500D01*
X151680281Y-74304815D01*
X151634526Y-74252011D01*
X151624582Y-74182853D01*
X151653607Y-74119297D01*
X151659619Y-74112839D01*
X151795658Y-73976799D01*
X151816292Y-73960173D01*
X151819589Y-73958055D01*
X151819592Y-73958052D01*
X151850340Y-73922566D01*
X151856376Y-73916083D01*
X151865275Y-73907184D01*
X151865275Y-73907183D01*
X151865279Y-73907180D01*
X151872835Y-73897084D01*
X151878387Y-73890196D01*
X151878397Y-73890185D01*
X151909130Y-73854718D01*
X151910757Y-73851153D01*
X151924281Y-73828361D01*
X151926629Y-73825226D01*
X151943045Y-73781207D01*
X151946415Y-73773072D01*
X151965931Y-73730342D01*
X151966488Y-73726465D01*
X151973045Y-73700777D01*
X151974411Y-73697115D01*
X151977761Y-73650260D01*
X151978703Y-73641503D01*
X151980500Y-73629011D01*
X151980500Y-73616413D01*
X151980816Y-73607566D01*
X151984166Y-73560729D01*
X151983334Y-73556905D01*
X151980500Y-73530547D01*
X151980500Y-73429590D01*
X152000185Y-73362551D01*
X152052989Y-73316796D01*
X152122147Y-73306852D01*
X152147642Y-73314704D01*
X152221737Y-73325500D01*
X152221740Y-73325500D01*
X152988263Y-73325500D01*
X153022326Y-73320536D01*
X153056393Y-73315573D01*
X153161483Y-73264198D01*
X153244198Y-73181483D01*
X153244199Y-73181482D01*
X153262015Y-73145040D01*
X153309142Y-73093457D01*
X153373415Y-73075500D01*
X154488263Y-73075500D01*
X154522326Y-73070536D01*
X154556393Y-73065573D01*
X154661483Y-73014198D01*
X154744198Y-72931483D01*
X154795573Y-72826393D01*
X154801917Y-72782853D01*
X154805500Y-72758263D01*
X154805500Y-71191736D01*
X154798882Y-71146317D01*
X154795573Y-71123607D01*
X154744198Y-71018517D01*
X154744197Y-71018516D01*
X154744197Y-71018515D01*
X154661484Y-70935802D01*
X154600538Y-70906008D01*
X154556393Y-70884427D01*
X154556391Y-70884426D01*
X154556390Y-70884426D01*
X154488263Y-70874500D01*
X154488260Y-70874500D01*
X153121740Y-70874500D01*
X153121738Y-70874500D01*
X153072879Y-70881619D01*
X153037121Y-70881619D01*
X152988262Y-70874500D01*
X152988260Y-70874500D01*
X152221740Y-70874500D01*
X152221737Y-70874500D01*
X152153605Y-70884426D01*
X152109458Y-70906008D01*
X152040585Y-70917766D01*
X152000542Y-70906008D01*
X151956394Y-70884426D01*
X151888263Y-70874500D01*
X151888260Y-70874500D01*
X151162396Y-70874500D01*
X151095357Y-70854815D01*
X151088085Y-70849767D01*
X150997089Y-70781647D01*
X150862371Y-70731400D01*
X150806132Y-70725354D01*
X150799518Y-70725000D01*
X150655000Y-70725000D01*
X150655000Y-73475000D01*
X150655756Y-73475756D01*
X150720218Y-73494685D01*
X150765973Y-73547489D01*
X150775917Y-73616647D01*
X150746892Y-73680203D01*
X150740860Y-73686681D01*
X150589360Y-73838181D01*
X150528037Y-73871666D01*
X150501679Y-73874500D01*
X147427320Y-73874500D01*
X147360281Y-73854815D01*
X147314526Y-73802011D01*
X147304582Y-73732853D01*
X147333607Y-73669297D01*
X147339638Y-73662820D01*
X147360988Y-73641470D01*
X147395653Y-73606804D01*
X147416292Y-73590173D01*
X147419589Y-73588055D01*
X147430001Y-73576039D01*
X147450340Y-73552566D01*
X147456376Y-73546083D01*
X147465275Y-73537184D01*
X147465275Y-73537183D01*
X147465279Y-73537180D01*
X147472835Y-73527084D01*
X147478387Y-73520196D01*
X147509130Y-73484718D01*
X147510757Y-73481153D01*
X147524281Y-73458361D01*
X147526629Y-73455226D01*
X147543045Y-73411207D01*
X147546420Y-73403062D01*
X147564015Y-73364536D01*
X147609770Y-73311735D01*
X147676810Y-73292052D01*
X147731267Y-73304651D01*
X147753607Y-73315573D01*
X147762001Y-73316796D01*
X147821737Y-73325500D01*
X147821740Y-73325500D01*
X148588263Y-73325500D01*
X148629139Y-73319543D01*
X148656393Y-73315573D01*
X148700540Y-73293990D01*
X148769412Y-73282231D01*
X148809459Y-73293990D01*
X148853607Y-73315573D01*
X148862001Y-73316796D01*
X148921737Y-73325500D01*
X149647604Y-73325500D01*
X149714643Y-73345185D01*
X149721915Y-73350233D01*
X149812910Y-73418352D01*
X149947628Y-73468599D01*
X150003867Y-73474645D01*
X150010482Y-73475000D01*
X150155000Y-73475000D01*
X150155000Y-70768819D01*
X150174685Y-70701780D01*
X150191319Y-70681138D01*
X150203031Y-70669427D01*
X150460638Y-70411819D01*
X150521962Y-70378334D01*
X150548320Y-70375500D01*
X150835541Y-70375500D01*
X150861899Y-70378333D01*
X150865729Y-70379167D01*
X150912575Y-70375815D01*
X150921422Y-70375500D01*
X150934011Y-70375500D01*
X150946485Y-70373706D01*
X150955269Y-70372761D01*
X151002115Y-70369411D01*
X151004488Y-70368525D01*
X151005778Y-70368045D01*
X151031465Y-70361488D01*
X151035342Y-70360931D01*
X151078072Y-70341415D01*
X151086207Y-70338045D01*
X151130226Y-70321629D01*
X151133361Y-70319281D01*
X151156153Y-70305757D01*
X151159718Y-70304130D01*
X151195203Y-70273380D01*
X151202084Y-70267835D01*
X151212180Y-70260279D01*
X151217210Y-70255249D01*
X151221083Y-70251376D01*
X151227566Y-70245340D01*
X151263052Y-70214592D01*
X151263052Y-70214591D01*
X151263055Y-70214589D01*
X151265173Y-70211292D01*
X151281803Y-70190654D01*
X153620654Y-67851803D01*
X153641292Y-67835173D01*
X153644589Y-67833055D01*
X153644592Y-67833052D01*
X153675340Y-67797566D01*
X153681376Y-67791083D01*
X153690275Y-67782184D01*
X153690275Y-67782183D01*
X153690279Y-67782180D01*
X153697835Y-67772084D01*
X153703387Y-67765196D01*
X153706049Y-67762124D01*
X153734130Y-67729718D01*
X153735757Y-67726153D01*
X153749281Y-67703361D01*
X153751629Y-67700226D01*
X153768045Y-67656207D01*
X153771415Y-67648072D01*
X153790931Y-67605342D01*
X153791488Y-67601465D01*
X153798045Y-67575778D01*
X153798525Y-67574488D01*
X153799411Y-67572115D01*
X153802761Y-67525269D01*
X153803707Y-67516478D01*
X153805500Y-67504010D01*
X153805500Y-67491421D01*
X153805816Y-67482574D01*
X153807251Y-67462513D01*
X153809167Y-67435729D01*
X153808334Y-67431899D01*
X153805500Y-67405541D01*
X153805500Y-65599500D01*
X153825185Y-65532461D01*
X153877989Y-65486706D01*
X153929500Y-65475500D01*
X154488263Y-65475500D01*
X154522326Y-65470536D01*
X154556393Y-65465573D01*
X154661483Y-65414198D01*
X154744198Y-65331483D01*
X154795573Y-65226393D01*
X154803014Y-65175321D01*
X154805500Y-65158263D01*
X154805500Y-63782395D01*
X154825185Y-63715356D01*
X154830234Y-63708084D01*
X154898351Y-63617091D01*
X154948599Y-63482371D01*
X154954645Y-63426132D01*
X154955000Y-63419518D01*
X154955000Y-63125000D01*
X152505000Y-63125000D01*
X152505000Y-63133179D01*
X152485315Y-63200218D01*
X152432511Y-63245973D01*
X152363353Y-63255917D01*
X152299797Y-63226892D01*
X152293319Y-63220860D01*
X152111819Y-63039359D01*
X152078334Y-62978036D01*
X152075500Y-62951678D01*
X152075500Y-62625000D01*
X152505000Y-62625000D01*
X153480000Y-62625000D01*
X153480000Y-61875000D01*
X153980000Y-61875000D01*
X153980000Y-62625000D01*
X154955000Y-62625000D01*
X154955000Y-62330481D01*
X154954645Y-62323867D01*
X154948599Y-62267628D01*
X154898352Y-62132910D01*
X154812188Y-62017811D01*
X154697089Y-61931647D01*
X154562371Y-61881400D01*
X154506132Y-61875354D01*
X154499518Y-61875000D01*
X153980000Y-61875000D01*
X153480000Y-61875000D01*
X152960482Y-61875000D01*
X152953867Y-61875354D01*
X152897628Y-61881400D01*
X152762910Y-61931647D01*
X152647811Y-62017811D01*
X152561647Y-62132910D01*
X152511400Y-62267628D01*
X152505354Y-62323867D01*
X152505000Y-62330481D01*
X152505000Y-62625000D01*
X152075500Y-62625000D01*
X152075500Y-62014453D01*
X152078334Y-61988094D01*
X152079166Y-61984269D01*
X152075816Y-61937432D01*
X152075500Y-61928586D01*
X152075500Y-61915990D01*
X152075500Y-61915989D01*
X152073705Y-61903511D01*
X152072760Y-61894716D01*
X152069411Y-61847885D01*
X152068042Y-61844216D01*
X152061488Y-61818534D01*
X152060931Y-61814658D01*
X152041416Y-61771926D01*
X152038038Y-61763771D01*
X152021627Y-61719771D01*
X152019285Y-61716643D01*
X152005755Y-61693839D01*
X152004131Y-61690283D01*
X152000646Y-61686261D01*
X151973367Y-61654778D01*
X151967830Y-61647908D01*
X151961430Y-61639359D01*
X151960278Y-61637820D01*
X151951384Y-61628926D01*
X151945352Y-61622448D01*
X151914588Y-61586944D01*
X151911287Y-61584823D01*
X151890648Y-61568190D01*
X150611819Y-60289360D01*
X150578334Y-60228037D01*
X150575500Y-60201679D01*
X150575500Y-57300033D01*
X150595185Y-57232994D01*
X150647989Y-57187239D01*
X150717147Y-57177295D01*
X150780703Y-57206320D01*
X150811882Y-57247629D01*
X150825962Y-57277826D01*
X150825965Y-57277830D01*
X150961505Y-57471401D01*
X151128599Y-57638495D01*
X151322170Y-57774035D01*
X151536337Y-57873903D01*
X151764592Y-57935063D01*
X152000000Y-57955659D01*
X152235408Y-57935063D01*
X152463663Y-57873903D01*
X152677830Y-57774035D01*
X152871401Y-57638495D01*
X153038495Y-57471401D01*
X153174035Y-57277830D01*
X153273903Y-57063663D01*
X153335063Y-56835408D01*
X153355659Y-56600000D01*
X154994858Y-56600000D01*
X155015386Y-56847732D01*
X155076413Y-57088721D01*
X155176268Y-57316370D01*
X155276563Y-57469882D01*
X155276564Y-57469882D01*
X155974070Y-56772376D01*
X155976884Y-56785915D01*
X156046442Y-56920156D01*
X156149638Y-57030652D01*
X156278819Y-57109209D01*
X156330002Y-57123549D01*
X155629942Y-57823609D01*
X155629942Y-57823610D01*
X155676766Y-57860055D01*
X155895393Y-57978368D01*
X156130506Y-58059083D01*
X156375707Y-58100000D01*
X156624293Y-58100000D01*
X156869493Y-58059083D01*
X157104606Y-57978368D01*
X157323233Y-57860053D01*
X157370056Y-57823609D01*
X156671568Y-57125121D01*
X156788458Y-57074349D01*
X156905739Y-56978934D01*
X156992928Y-56855415D01*
X157023355Y-56769801D01*
X157723434Y-57469882D01*
X157823730Y-57316369D01*
X157923586Y-57088721D01*
X157984613Y-56847732D01*
X158005141Y-56599999D01*
X157984613Y-56352267D01*
X157923586Y-56111278D01*
X157823730Y-55883630D01*
X157723434Y-55730116D01*
X157025928Y-56427621D01*
X157023116Y-56414085D01*
X156953558Y-56279844D01*
X156850362Y-56169348D01*
X156721181Y-56090791D01*
X156669997Y-56076450D01*
X157370057Y-55376390D01*
X157370056Y-55376388D01*
X157323235Y-55339947D01*
X157104606Y-55221631D01*
X156869493Y-55140916D01*
X156624293Y-55100000D01*
X156375707Y-55100000D01*
X156130506Y-55140916D01*
X155895393Y-55221631D01*
X155676764Y-55339946D01*
X155629942Y-55376388D01*
X155629942Y-55376390D01*
X156328431Y-56074878D01*
X156211542Y-56125651D01*
X156094261Y-56221066D01*
X156007072Y-56344585D01*
X155976645Y-56430197D01*
X155276564Y-55730116D01*
X155176266Y-55883634D01*
X155076413Y-56111278D01*
X155015386Y-56352267D01*
X154994858Y-56600000D01*
X153355659Y-56600000D01*
X153335063Y-56364592D01*
X153273903Y-56136337D01*
X153174035Y-55922171D01*
X153038495Y-55728599D01*
X152871401Y-55561505D01*
X152677830Y-55425965D01*
X152559680Y-55370870D01*
X152547094Y-55365001D01*
X152494655Y-55318828D01*
X152475500Y-55252619D01*
X152475500Y-51447379D01*
X152495185Y-51380340D01*
X152547095Y-51334997D01*
X152677830Y-51274035D01*
X152871401Y-51138495D01*
X153038495Y-50971401D01*
X153174035Y-50777830D01*
X153273903Y-50563663D01*
X153335063Y-50335408D01*
X153355659Y-50100000D01*
X153355659Y-50099999D01*
X154994858Y-50099999D01*
X155015386Y-50347732D01*
X155076413Y-50588721D01*
X155176268Y-50816370D01*
X155276563Y-50969882D01*
X155276564Y-50969882D01*
X155974070Y-50272375D01*
X155976884Y-50285915D01*
X156046442Y-50420156D01*
X156149638Y-50530652D01*
X156278819Y-50609209D01*
X156330002Y-50623549D01*
X155629942Y-51323609D01*
X155629942Y-51323610D01*
X155676766Y-51360055D01*
X155895393Y-51478368D01*
X156130506Y-51559083D01*
X156375707Y-51600000D01*
X156624293Y-51600000D01*
X156869493Y-51559083D01*
X157104606Y-51478368D01*
X157323233Y-51360053D01*
X157370056Y-51323609D01*
X156671568Y-50625121D01*
X156788458Y-50574349D01*
X156905739Y-50478934D01*
X156992928Y-50355415D01*
X157023354Y-50269802D01*
X157723434Y-50969882D01*
X157823730Y-50816369D01*
X157923586Y-50588721D01*
X157984613Y-50347732D01*
X158005141Y-50099999D01*
X157984613Y-49852267D01*
X157923586Y-49611278D01*
X157823730Y-49383630D01*
X157723434Y-49230116D01*
X157025929Y-49927622D01*
X157023116Y-49914085D01*
X156953558Y-49779844D01*
X156850362Y-49669348D01*
X156721181Y-49590791D01*
X156669997Y-49576450D01*
X157370057Y-48876390D01*
X157370056Y-48876388D01*
X157323235Y-48839947D01*
X157104606Y-48721631D01*
X156869493Y-48640916D01*
X156624293Y-48600000D01*
X156375707Y-48600000D01*
X156130506Y-48640916D01*
X155895393Y-48721631D01*
X155676764Y-48839946D01*
X155629942Y-48876388D01*
X155629942Y-48876390D01*
X156328431Y-49574878D01*
X156211542Y-49625651D01*
X156094261Y-49721066D01*
X156007072Y-49844585D01*
X155976645Y-49930196D01*
X155276564Y-49230117D01*
X155176266Y-49383634D01*
X155076413Y-49611278D01*
X155015386Y-49852267D01*
X154994858Y-50099999D01*
X153355659Y-50099999D01*
X153351806Y-50055966D01*
X153335063Y-49864592D01*
X153326570Y-49832894D01*
X153273903Y-49636337D01*
X153174035Y-49422171D01*
X153038495Y-49228599D01*
X152871401Y-49061505D01*
X152677830Y-48925965D01*
X152463663Y-48826097D01*
X152402502Y-48809709D01*
X152235407Y-48764936D01*
X152000000Y-48744340D01*
X151764592Y-48764936D01*
X151536336Y-48826097D01*
X151521061Y-48833220D01*
X151451983Y-48843711D01*
X151388199Y-48815190D01*
X151380977Y-48808518D01*
X150046808Y-47474349D01*
X150030174Y-47453708D01*
X150028055Y-47450411D01*
X149992565Y-47419659D01*
X149986086Y-47413627D01*
X149977180Y-47404721D01*
X149967093Y-47397170D01*
X149960211Y-47391625D01*
X149943295Y-47376967D01*
X149905522Y-47318189D01*
X149900500Y-47283256D01*
X149900500Y-47281736D01*
X149890574Y-47213610D01*
X149890573Y-47213607D01*
X149876323Y-47184459D01*
X149864564Y-47115589D01*
X149876324Y-47075539D01*
X149881625Y-47064697D01*
X149890573Y-47046393D01*
X149890573Y-47046392D01*
X149893679Y-47040039D01*
X149940807Y-46988457D01*
X150005079Y-46970500D01*
X156246679Y-46970500D01*
X156313718Y-46990185D01*
X156334360Y-47006819D01*
X158808518Y-49480977D01*
X158842003Y-49542300D01*
X158837019Y-49611992D01*
X158833220Y-49621061D01*
X158826097Y-49636336D01*
X158764936Y-49864592D01*
X158744340Y-50099999D01*
X158764936Y-50335407D01*
X158799309Y-50463687D01*
X158826097Y-50563663D01*
X158925965Y-50777830D01*
X159061505Y-50971401D01*
X159228599Y-51138495D01*
X159421937Y-51273872D01*
X159422173Y-51274037D01*
X159457970Y-51290729D01*
X159552904Y-51334997D01*
X159605344Y-51381169D01*
X159624500Y-51447379D01*
X159624500Y-55252619D01*
X159604815Y-55319658D01*
X159552906Y-55365001D01*
X159422168Y-55425966D01*
X159228598Y-55561505D01*
X159061505Y-55728598D01*
X158925965Y-55922170D01*
X158826097Y-56136336D01*
X158764936Y-56364592D01*
X158744340Y-56600000D01*
X158764936Y-56835407D01*
X158796593Y-56953553D01*
X158826097Y-57063663D01*
X158925965Y-57277830D01*
X159061505Y-57471401D01*
X159228599Y-57638495D01*
X159422170Y-57774035D01*
X159636337Y-57873903D01*
X159846529Y-57930223D01*
X159864592Y-57935063D01*
X160099999Y-57955659D01*
X160099999Y-57955658D01*
X160100000Y-57955659D01*
X160335408Y-57935063D01*
X160563663Y-57873903D01*
X160777830Y-57774035D01*
X160971401Y-57638495D01*
X161138495Y-57471401D01*
X161274035Y-57277830D01*
X161373903Y-57063663D01*
X161380725Y-57038201D01*
X161417090Y-56978541D01*
X161479937Y-56948012D01*
X161549312Y-56956307D01*
X161603190Y-57000792D01*
X161624465Y-57067344D01*
X161624500Y-57070295D01*
X161624500Y-57451678D01*
X161604815Y-57518717D01*
X161588181Y-57539359D01*
X160719022Y-58408518D01*
X160657699Y-58442003D01*
X160588007Y-58437019D01*
X160578937Y-58433219D01*
X160563665Y-58426097D01*
X160335407Y-58364936D01*
X160100000Y-58344340D01*
X159864592Y-58364936D01*
X159636336Y-58426097D01*
X159422170Y-58525965D01*
X159228598Y-58661505D01*
X159061505Y-58828598D01*
X158925965Y-59022170D01*
X158826097Y-59236336D01*
X158764936Y-59464592D01*
X158744340Y-59699999D01*
X158764936Y-59935407D01*
X158809709Y-60102501D01*
X158826097Y-60163663D01*
X158925965Y-60377830D01*
X159061505Y-60571401D01*
X159228599Y-60738495D01*
X159399538Y-60858188D01*
X159422173Y-60874037D01*
X159499411Y-60910053D01*
X159552904Y-60934997D01*
X159605344Y-60981169D01*
X159624500Y-61047379D01*
X159624500Y-64852619D01*
X159604815Y-64919658D01*
X159552906Y-64965001D01*
X159422168Y-65025966D01*
X159228598Y-65161505D01*
X159061505Y-65328598D01*
X158925965Y-65522170D01*
X158826097Y-65736336D01*
X158764936Y-65964592D01*
X158744340Y-66200000D01*
X158764936Y-66435407D01*
X158809709Y-66602502D01*
X158826097Y-66663663D01*
X158925965Y-66877830D01*
X159061505Y-67071401D01*
X159228599Y-67238495D01*
X159422170Y-67374035D01*
X159636337Y-67473903D01*
X159864592Y-67535062D01*
X159864592Y-67535063D01*
X160099999Y-67555659D01*
X160099999Y-67555658D01*
X160100000Y-67555659D01*
X160335408Y-67535063D01*
X160563663Y-67473903D01*
X160777830Y-67374035D01*
X160971401Y-67238495D01*
X161138495Y-67071401D01*
X161274035Y-66877830D01*
X161373903Y-66663663D01*
X161435063Y-66435408D01*
X161455659Y-66200000D01*
X161455659Y-66199999D01*
X163094858Y-66199999D01*
X163115386Y-66447732D01*
X163176413Y-66688721D01*
X163276268Y-66916370D01*
X163376563Y-67069882D01*
X163376564Y-67069882D01*
X164074070Y-66372376D01*
X164076884Y-66385915D01*
X164146442Y-66520156D01*
X164249638Y-66630652D01*
X164378819Y-66709209D01*
X164430002Y-66723549D01*
X163729942Y-67423609D01*
X163729942Y-67423610D01*
X163776766Y-67460055D01*
X163995393Y-67578368D01*
X164230506Y-67659083D01*
X164475707Y-67700000D01*
X164724293Y-67700000D01*
X164969493Y-67659083D01*
X165204606Y-67578368D01*
X165423233Y-67460053D01*
X165470056Y-67423609D01*
X164771568Y-66725121D01*
X164888458Y-66674349D01*
X165005739Y-66578934D01*
X165092928Y-66455415D01*
X165123354Y-66369802D01*
X165823434Y-67069882D01*
X165923730Y-66916369D01*
X166023586Y-66688721D01*
X166084613Y-66447732D01*
X166105141Y-66200000D01*
X166084613Y-65952267D01*
X166023586Y-65711278D01*
X165923730Y-65483630D01*
X165823434Y-65330116D01*
X165125929Y-66027622D01*
X165123116Y-66014085D01*
X165053558Y-65879844D01*
X164950362Y-65769348D01*
X164821181Y-65690791D01*
X164769997Y-65676450D01*
X165470057Y-64976390D01*
X165470056Y-64976388D01*
X165423235Y-64939947D01*
X165204606Y-64821631D01*
X164969493Y-64740916D01*
X164724293Y-64700000D01*
X164475707Y-64700000D01*
X164230506Y-64740916D01*
X163995393Y-64821631D01*
X163776764Y-64939946D01*
X163729942Y-64976388D01*
X163729942Y-64976390D01*
X164428431Y-65674878D01*
X164311542Y-65725651D01*
X164194261Y-65821066D01*
X164107072Y-65944585D01*
X164076645Y-66030197D01*
X163376564Y-65330116D01*
X163276266Y-65483634D01*
X163176413Y-65711278D01*
X163115386Y-65952267D01*
X163094858Y-66199999D01*
X161455659Y-66199999D01*
X161435063Y-65964592D01*
X161373903Y-65736337D01*
X161274035Y-65522171D01*
X161138495Y-65328599D01*
X160971401Y-65161505D01*
X160777830Y-65025965D01*
X160647094Y-64965001D01*
X160594655Y-64918828D01*
X160575500Y-64852619D01*
X160575500Y-61047379D01*
X160595185Y-60980340D01*
X160647095Y-60934997D01*
X160748392Y-60887762D01*
X160777826Y-60874037D01*
X160777826Y-60874036D01*
X160777830Y-60874035D01*
X160971401Y-60738495D01*
X161138495Y-60571401D01*
X161274035Y-60377830D01*
X161373903Y-60163663D01*
X161435063Y-59935408D01*
X161455659Y-59700000D01*
X163094858Y-59700000D01*
X163115386Y-59947732D01*
X163176413Y-60188721D01*
X163276268Y-60416370D01*
X163376563Y-60569882D01*
X163376564Y-60569882D01*
X164074070Y-59872376D01*
X164076884Y-59885915D01*
X164146442Y-60020156D01*
X164249638Y-60130652D01*
X164378819Y-60209209D01*
X164430002Y-60223549D01*
X163729942Y-60923609D01*
X163729942Y-60923610D01*
X163776766Y-60960055D01*
X163995393Y-61078368D01*
X164230506Y-61159083D01*
X164475707Y-61200000D01*
X164724293Y-61200000D01*
X164969493Y-61159083D01*
X165204606Y-61078368D01*
X165423233Y-60960053D01*
X165470056Y-60923609D01*
X164771568Y-60225121D01*
X164888458Y-60174349D01*
X165005739Y-60078934D01*
X165092928Y-59955415D01*
X165123354Y-59869802D01*
X165823434Y-60569882D01*
X165923730Y-60416369D01*
X166023586Y-60188721D01*
X166084613Y-59947732D01*
X166105141Y-59699999D01*
X166084613Y-59452267D01*
X166023586Y-59211278D01*
X165923730Y-58983630D01*
X165823434Y-58830116D01*
X165125929Y-59527622D01*
X165123116Y-59514085D01*
X165053558Y-59379844D01*
X164950362Y-59269348D01*
X164821181Y-59190791D01*
X164769997Y-59176450D01*
X165470057Y-58476390D01*
X165470056Y-58476388D01*
X165423235Y-58439947D01*
X165204606Y-58321631D01*
X165046290Y-58267281D01*
X164989275Y-58226896D01*
X164963144Y-58162096D01*
X164976195Y-58093456D01*
X165024284Y-58042768D01*
X165046290Y-58032719D01*
X165204606Y-57978368D01*
X165423233Y-57860053D01*
X165470056Y-57823609D01*
X164771568Y-57125121D01*
X164888458Y-57074349D01*
X165005739Y-56978934D01*
X165092928Y-56855415D01*
X165123354Y-56769802D01*
X165823434Y-57469882D01*
X165923730Y-57316369D01*
X166023586Y-57088721D01*
X166084613Y-56847732D01*
X166105141Y-56600000D01*
X166844340Y-56600000D01*
X166864936Y-56835407D01*
X166896593Y-56953553D01*
X166926097Y-57063663D01*
X167025965Y-57277830D01*
X167161505Y-57471401D01*
X167328599Y-57638495D01*
X167522170Y-57774035D01*
X167736337Y-57873903D01*
X167964592Y-57935063D01*
X168200000Y-57955659D01*
X168435408Y-57935063D01*
X168663663Y-57873903D01*
X168877830Y-57774035D01*
X169071401Y-57638495D01*
X169238495Y-57471401D01*
X169374035Y-57277830D01*
X169473903Y-57063663D01*
X169535063Y-56835408D01*
X169555659Y-56600000D01*
X169535063Y-56364592D01*
X169473903Y-56136337D01*
X169374035Y-55922171D01*
X169238495Y-55728599D01*
X169071401Y-55561505D01*
X168877830Y-55425965D01*
X168663663Y-55326097D01*
X168595037Y-55307709D01*
X168435407Y-55264936D01*
X168200000Y-55244340D01*
X167964592Y-55264936D01*
X167736336Y-55326097D01*
X167522170Y-55425965D01*
X167328598Y-55561505D01*
X167161505Y-55728598D01*
X167025965Y-55922170D01*
X166926097Y-56136336D01*
X166864936Y-56364592D01*
X166844340Y-56600000D01*
X166105141Y-56600000D01*
X166084613Y-56352267D01*
X166023586Y-56111278D01*
X165923730Y-55883630D01*
X165823434Y-55730116D01*
X165125929Y-56427622D01*
X165123116Y-56414085D01*
X165053558Y-56279844D01*
X164950362Y-56169348D01*
X164821181Y-56090791D01*
X164769997Y-56076450D01*
X165470057Y-55376390D01*
X165470056Y-55376388D01*
X165423235Y-55339947D01*
X165204606Y-55221631D01*
X164969493Y-55140916D01*
X164724293Y-55100000D01*
X164475707Y-55100000D01*
X164230506Y-55140916D01*
X163995393Y-55221631D01*
X163776764Y-55339946D01*
X163729942Y-55376388D01*
X163729942Y-55376390D01*
X164428431Y-56074878D01*
X164311542Y-56125651D01*
X164194261Y-56221066D01*
X164107072Y-56344585D01*
X164076645Y-56430197D01*
X163376564Y-55730116D01*
X163276266Y-55883634D01*
X163176413Y-56111278D01*
X163115386Y-56352267D01*
X163094858Y-56599999D01*
X163115386Y-56847732D01*
X163176413Y-57088721D01*
X163276268Y-57316370D01*
X163376563Y-57469882D01*
X163376564Y-57469882D01*
X164074070Y-56772376D01*
X164076884Y-56785915D01*
X164146442Y-56920156D01*
X164249638Y-57030652D01*
X164378819Y-57109209D01*
X164430002Y-57123549D01*
X163729942Y-57823609D01*
X163729942Y-57823610D01*
X163776766Y-57860055D01*
X163995393Y-57978368D01*
X164153709Y-58032719D01*
X164210724Y-58073105D01*
X164236855Y-58137904D01*
X164223803Y-58206544D01*
X164175715Y-58257232D01*
X164153709Y-58267281D01*
X163995393Y-58321631D01*
X163776764Y-58439946D01*
X163729942Y-58476388D01*
X163729942Y-58476390D01*
X164428431Y-59174878D01*
X164311542Y-59225651D01*
X164194261Y-59321066D01*
X164107072Y-59444585D01*
X164076645Y-59530197D01*
X163376564Y-58830116D01*
X163276266Y-58983634D01*
X163176413Y-59211278D01*
X163115386Y-59452267D01*
X163094858Y-59700000D01*
X161455659Y-59700000D01*
X161451284Y-59650000D01*
X161435063Y-59464592D01*
X161416305Y-59394585D01*
X161373903Y-59236337D01*
X161366781Y-59221063D01*
X161356288Y-59151986D01*
X161384807Y-59088202D01*
X161391468Y-59080989D01*
X162390654Y-58081803D01*
X162411292Y-58065173D01*
X162414589Y-58063055D01*
X162414592Y-58063052D01*
X162445340Y-58027566D01*
X162451376Y-58021083D01*
X162460275Y-58012184D01*
X162460275Y-58012183D01*
X162460279Y-58012180D01*
X162467835Y-58002084D01*
X162473387Y-57995196D01*
X162504130Y-57959718D01*
X162505757Y-57956153D01*
X162519281Y-57933361D01*
X162521629Y-57930226D01*
X162538045Y-57886207D01*
X162541415Y-57878072D01*
X162560931Y-57835342D01*
X162561488Y-57831465D01*
X162568045Y-57805778D01*
X162568525Y-57804488D01*
X162569411Y-57802115D01*
X162572761Y-57755269D01*
X162573707Y-57746478D01*
X162575500Y-57734010D01*
X162575500Y-57721421D01*
X162575816Y-57712574D01*
X162577997Y-57682081D01*
X162579167Y-57665729D01*
X162578334Y-57661899D01*
X162575500Y-57635541D01*
X162575500Y-50100000D01*
X163094858Y-50100000D01*
X163115386Y-50347732D01*
X163176413Y-50588721D01*
X163276268Y-50816370D01*
X163376563Y-50969882D01*
X163376564Y-50969882D01*
X164074070Y-50272375D01*
X164076884Y-50285915D01*
X164146442Y-50420156D01*
X164249638Y-50530652D01*
X164378819Y-50609209D01*
X164430002Y-50623549D01*
X163729942Y-51323609D01*
X163729942Y-51323610D01*
X163776766Y-51360055D01*
X163995393Y-51478368D01*
X164230506Y-51559083D01*
X164475707Y-51600000D01*
X164724293Y-51600000D01*
X164969493Y-51559083D01*
X165204606Y-51478368D01*
X165423233Y-51360053D01*
X165470056Y-51323609D01*
X164771568Y-50625121D01*
X164888458Y-50574349D01*
X165005739Y-50478934D01*
X165092928Y-50355415D01*
X165123354Y-50269802D01*
X165823434Y-50969882D01*
X165923730Y-50816369D01*
X166023586Y-50588721D01*
X166084613Y-50347732D01*
X166105141Y-50099999D01*
X166084613Y-49852267D01*
X166023586Y-49611278D01*
X165923730Y-49383630D01*
X165823434Y-49230116D01*
X165125929Y-49927622D01*
X165123116Y-49914085D01*
X165053558Y-49779844D01*
X164950362Y-49669348D01*
X164821181Y-49590791D01*
X164769997Y-49576450D01*
X165470057Y-48876390D01*
X165470056Y-48876388D01*
X165423235Y-48839947D01*
X165204606Y-48721631D01*
X165119112Y-48692281D01*
X165062097Y-48651896D01*
X165035966Y-48587096D01*
X165049017Y-48518456D01*
X165097106Y-48467769D01*
X165119112Y-48457719D01*
X165204606Y-48428368D01*
X165423233Y-48310053D01*
X165470056Y-48273609D01*
X164771568Y-47575121D01*
X164888458Y-47524349D01*
X165005739Y-47428934D01*
X165092928Y-47305415D01*
X165123354Y-47219802D01*
X165823434Y-47919882D01*
X165923730Y-47766369D01*
X166023586Y-47538721D01*
X166084613Y-47297732D01*
X166105141Y-47050000D01*
X166084613Y-46802267D01*
X166023586Y-46561278D01*
X165923730Y-46333630D01*
X165823434Y-46180116D01*
X165125929Y-46877622D01*
X165123116Y-46864085D01*
X165053558Y-46729844D01*
X164950362Y-46619348D01*
X164821181Y-46540791D01*
X164769995Y-46526449D01*
X165470056Y-45826389D01*
X165470056Y-45826387D01*
X165423235Y-45789947D01*
X165204606Y-45671631D01*
X164969493Y-45590916D01*
X164724293Y-45550000D01*
X164475707Y-45550000D01*
X164230506Y-45590916D01*
X163995393Y-45671631D01*
X163776764Y-45789946D01*
X163729942Y-45826388D01*
X163729941Y-45826389D01*
X164428431Y-46524878D01*
X164311542Y-46575651D01*
X164194261Y-46671066D01*
X164107072Y-46794585D01*
X164076645Y-46880197D01*
X163376564Y-46180116D01*
X163276266Y-46333634D01*
X163176413Y-46561278D01*
X163115386Y-46802267D01*
X163094858Y-47050000D01*
X163115386Y-47297732D01*
X163176413Y-47538721D01*
X163276268Y-47766370D01*
X163376563Y-47919882D01*
X163376564Y-47919882D01*
X164074070Y-47222376D01*
X164076884Y-47235915D01*
X164146442Y-47370156D01*
X164249638Y-47480652D01*
X164378819Y-47559209D01*
X164430002Y-47573549D01*
X163729942Y-48273609D01*
X163729942Y-48273610D01*
X163776766Y-48310055D01*
X163995393Y-48428368D01*
X164080887Y-48457719D01*
X164137902Y-48498105D01*
X164164033Y-48562904D01*
X164150981Y-48631544D01*
X164102892Y-48682232D01*
X164080887Y-48692281D01*
X163995393Y-48721631D01*
X163776764Y-48839946D01*
X163729942Y-48876388D01*
X163729942Y-48876390D01*
X164428431Y-49574878D01*
X164311542Y-49625651D01*
X164194261Y-49721066D01*
X164107072Y-49844585D01*
X164076645Y-49930196D01*
X163376564Y-49230117D01*
X163276266Y-49383634D01*
X163176413Y-49611278D01*
X163115386Y-49852267D01*
X163094858Y-50100000D01*
X162575500Y-50100000D01*
X162575500Y-46364458D01*
X162578334Y-46338098D01*
X162579167Y-46334271D01*
X162575816Y-46287424D01*
X162575500Y-46278577D01*
X162575500Y-46265988D01*
X162573707Y-46253521D01*
X162572761Y-46244732D01*
X162569411Y-46197885D01*
X162568042Y-46194215D01*
X162561488Y-46168535D01*
X162560931Y-46164658D01*
X162560929Y-46164653D01*
X162541422Y-46121938D01*
X162538034Y-46113759D01*
X162521629Y-46069774D01*
X162519279Y-46066635D01*
X162505756Y-46043842D01*
X162504130Y-46040282D01*
X162473374Y-46004787D01*
X162467837Y-45997916D01*
X162460279Y-45987820D01*
X162460277Y-45987818D01*
X162460275Y-45987815D01*
X162451373Y-45978914D01*
X162445354Y-45972451D01*
X162414589Y-45936945D01*
X162411291Y-45934825D01*
X162390652Y-45918193D01*
X160870911Y-44398452D01*
X160865146Y-44387895D01*
X160857147Y-44384242D01*
X160850668Y-44378209D01*
X151659640Y-35187181D01*
X151626155Y-35125858D01*
X151631139Y-35056166D01*
X151673011Y-35000233D01*
X151738475Y-34975816D01*
X151747321Y-34975500D01*
X151751679Y-34975500D01*
X151818718Y-34995185D01*
X151839360Y-35011819D01*
X161018190Y-44190648D01*
X161034824Y-44211288D01*
X161037514Y-44215474D01*
X161039792Y-44217055D01*
X161072447Y-44245351D01*
X161078928Y-44251386D01*
X161087818Y-44260277D01*
X161097905Y-44267828D01*
X161104776Y-44273365D01*
X161140282Y-44304130D01*
X161143838Y-44305754D01*
X161166641Y-44319284D01*
X161169771Y-44321627D01*
X161169772Y-44321627D01*
X161169773Y-44321628D01*
X161201439Y-44333438D01*
X161213765Y-44338036D01*
X161221932Y-44341418D01*
X161264658Y-44360931D01*
X161268534Y-44361488D01*
X161294216Y-44368042D01*
X161297885Y-44369411D01*
X161344719Y-44372760D01*
X161353511Y-44373705D01*
X161365989Y-44375500D01*
X161378587Y-44375500D01*
X161387433Y-44375815D01*
X161434270Y-44379166D01*
X161434270Y-44379165D01*
X161434271Y-44379166D01*
X161438096Y-44378334D01*
X161464454Y-44375500D01*
X164451679Y-44375500D01*
X164518718Y-44395185D01*
X164539360Y-44411819D01*
X167211953Y-47084412D01*
X168732547Y-48605005D01*
X168766032Y-48666328D01*
X168761048Y-48736020D01*
X168719176Y-48791953D01*
X168653712Y-48816370D01*
X168612773Y-48812461D01*
X168435407Y-48764936D01*
X168200000Y-48744340D01*
X167964592Y-48764936D01*
X167736336Y-48826097D01*
X167522170Y-48925965D01*
X167328598Y-49061505D01*
X167161505Y-49228598D01*
X167025965Y-49422170D01*
X166926097Y-49636336D01*
X166864936Y-49864592D01*
X166844340Y-50099999D01*
X166864936Y-50335407D01*
X166899309Y-50463687D01*
X166926097Y-50563663D01*
X167025965Y-50777830D01*
X167161505Y-50971401D01*
X167328599Y-51138495D01*
X167522170Y-51274035D01*
X167736337Y-51373903D01*
X167964592Y-51435063D01*
X168200000Y-51455659D01*
X168435408Y-51435063D01*
X168663663Y-51373903D01*
X168877830Y-51274035D01*
X169071401Y-51138495D01*
X169238495Y-50971401D01*
X169374035Y-50777830D01*
X169473903Y-50563663D01*
X169535063Y-50335408D01*
X169555659Y-50100000D01*
X169535063Y-49864592D01*
X169487538Y-49687224D01*
X169489201Y-49617377D01*
X169528363Y-49559514D01*
X169592592Y-49532010D01*
X169661494Y-49543596D01*
X169694994Y-49567452D01*
X169888181Y-49760639D01*
X169921666Y-49821962D01*
X169924500Y-49848320D01*
X169924500Y-57935541D01*
X169921666Y-57961899D01*
X169920833Y-57965729D01*
X169921737Y-57978368D01*
X169924184Y-58012574D01*
X169924500Y-58021421D01*
X169924500Y-58034011D01*
X169926293Y-58046491D01*
X169927237Y-58055275D01*
X169930588Y-58102115D01*
X169931956Y-58105781D01*
X169938510Y-58131458D01*
X169939069Y-58135342D01*
X169957283Y-58175226D01*
X169958571Y-58178045D01*
X169961957Y-58186219D01*
X169971249Y-58211132D01*
X169978373Y-58230231D01*
X169980722Y-58233369D01*
X169994240Y-58256150D01*
X169995869Y-58259716D01*
X169995870Y-58259718D01*
X170026627Y-58295214D01*
X170032170Y-58302093D01*
X170039721Y-58312180D01*
X170048627Y-58321086D01*
X170054659Y-58327565D01*
X170085411Y-58363055D01*
X170088708Y-58365174D01*
X170109349Y-58381808D01*
X170758518Y-59030977D01*
X170792003Y-59092300D01*
X170787019Y-59161992D01*
X170783220Y-59171061D01*
X170776097Y-59186336D01*
X170714936Y-59414592D01*
X170694340Y-59649999D01*
X170714936Y-59885407D01*
X170736528Y-59965989D01*
X170776097Y-60113663D01*
X170875965Y-60327830D01*
X171011505Y-60521401D01*
X171178599Y-60688495D01*
X171372170Y-60824035D01*
X171586337Y-60923903D01*
X171632592Y-60936296D01*
X171692252Y-60972659D01*
X171722783Y-61035506D01*
X171724500Y-61056071D01*
X171724500Y-64743927D01*
X171704815Y-64810966D01*
X171652011Y-64856721D01*
X171632595Y-64863701D01*
X171586339Y-64876095D01*
X171372170Y-64975965D01*
X171178598Y-65111505D01*
X171011505Y-65278598D01*
X170875965Y-65472170D01*
X170776097Y-65686336D01*
X170714936Y-65914592D01*
X170694340Y-66150000D01*
X170714936Y-66385407D01*
X170728334Y-66435407D01*
X170776097Y-66613663D01*
X170875965Y-66827830D01*
X171011505Y-67021401D01*
X171178599Y-67188495D01*
X171372170Y-67324035D01*
X171586337Y-67423903D01*
X171772942Y-67473903D01*
X171814592Y-67485063D01*
X172049999Y-67505659D01*
X172049999Y-67505658D01*
X172050000Y-67505659D01*
X172285408Y-67485063D01*
X172513663Y-67423903D01*
X172727830Y-67324035D01*
X172921401Y-67188495D01*
X173088495Y-67021401D01*
X173224035Y-66827830D01*
X173323903Y-66613663D01*
X173385063Y-66385408D01*
X173405659Y-66150000D01*
X175044858Y-66150000D01*
X175065386Y-66397732D01*
X175126413Y-66638721D01*
X175226268Y-66866370D01*
X175326563Y-67019882D01*
X175326564Y-67019882D01*
X176024070Y-66322376D01*
X176026884Y-66335915D01*
X176096442Y-66470156D01*
X176199638Y-66580652D01*
X176328819Y-66659209D01*
X176380002Y-66673549D01*
X175679942Y-67373609D01*
X175679942Y-67373610D01*
X175726766Y-67410055D01*
X175945393Y-67528368D01*
X176180506Y-67609083D01*
X176425707Y-67650000D01*
X176674293Y-67650000D01*
X176919493Y-67609083D01*
X177154606Y-67528368D01*
X177373233Y-67410053D01*
X177420056Y-67373609D01*
X176721568Y-66675121D01*
X176838458Y-66624349D01*
X176955739Y-66528934D01*
X177042928Y-66405415D01*
X177073354Y-66319802D01*
X177773434Y-67019882D01*
X177873730Y-66866369D01*
X177973586Y-66638721D01*
X178034613Y-66397732D01*
X178055141Y-66150000D01*
X178034613Y-65902267D01*
X177973586Y-65661278D01*
X177873730Y-65433630D01*
X177773434Y-65280116D01*
X177075929Y-65977622D01*
X177073116Y-65964085D01*
X177003558Y-65829844D01*
X176900362Y-65719348D01*
X176771181Y-65640791D01*
X176719997Y-65626450D01*
X177420057Y-64926390D01*
X177420056Y-64926388D01*
X177373235Y-64889947D01*
X177154606Y-64771631D01*
X176919493Y-64690916D01*
X176674293Y-64650000D01*
X176425707Y-64650000D01*
X176180506Y-64690916D01*
X175945393Y-64771631D01*
X175726764Y-64889946D01*
X175679942Y-64926388D01*
X175679942Y-64926390D01*
X176378431Y-65624878D01*
X176261542Y-65675651D01*
X176144261Y-65771066D01*
X176057072Y-65894585D01*
X176026645Y-65980197D01*
X175326564Y-65280116D01*
X175226266Y-65433634D01*
X175126413Y-65661278D01*
X175065386Y-65902267D01*
X175044858Y-66150000D01*
X173405659Y-66150000D01*
X173385063Y-65914592D01*
X173323903Y-65686337D01*
X173224035Y-65472171D01*
X173088495Y-65278599D01*
X172921401Y-65111505D01*
X172728374Y-64976346D01*
X172684752Y-64921771D01*
X172675500Y-64874773D01*
X172675500Y-60925227D01*
X172695185Y-60858188D01*
X172728373Y-60823654D01*
X172921401Y-60688495D01*
X173088495Y-60521401D01*
X173224035Y-60327830D01*
X173323903Y-60113663D01*
X173385063Y-59885408D01*
X173405659Y-59650000D01*
X175044858Y-59650000D01*
X175065386Y-59897732D01*
X175126413Y-60138721D01*
X175226268Y-60366370D01*
X175326563Y-60519882D01*
X175326564Y-60519882D01*
X176024070Y-59822376D01*
X176026884Y-59835915D01*
X176096442Y-59970156D01*
X176199638Y-60080652D01*
X176328819Y-60159209D01*
X176380002Y-60173549D01*
X175679942Y-60873609D01*
X175679942Y-60873610D01*
X175726766Y-60910055D01*
X175945393Y-61028368D01*
X176180506Y-61109083D01*
X176425707Y-61150000D01*
X176674293Y-61150000D01*
X176919493Y-61109083D01*
X177154606Y-61028368D01*
X177373233Y-60910053D01*
X177420056Y-60873609D01*
X176721568Y-60175121D01*
X176838458Y-60124349D01*
X176955739Y-60028934D01*
X177042928Y-59905415D01*
X177073354Y-59819802D01*
X177773434Y-60519882D01*
X177873730Y-60366369D01*
X177973586Y-60138721D01*
X178034613Y-59897732D01*
X178055141Y-59650000D01*
X178034613Y-59402267D01*
X177973586Y-59161278D01*
X177873730Y-58933630D01*
X177773434Y-58780116D01*
X177075929Y-59477622D01*
X177073116Y-59464085D01*
X177003558Y-59329844D01*
X176900362Y-59219348D01*
X176771181Y-59140791D01*
X176719997Y-59126450D01*
X177420057Y-58426390D01*
X177420056Y-58426388D01*
X177373235Y-58389947D01*
X177154606Y-58271631D01*
X176919493Y-58190916D01*
X176674293Y-58150000D01*
X176425707Y-58150000D01*
X176180506Y-58190916D01*
X175945393Y-58271631D01*
X175726764Y-58389946D01*
X175679942Y-58426388D01*
X175679942Y-58426390D01*
X176378431Y-59124878D01*
X176261542Y-59175651D01*
X176144261Y-59271066D01*
X176057072Y-59394585D01*
X176026645Y-59480197D01*
X175326564Y-58780116D01*
X175226266Y-58933634D01*
X175126413Y-59161278D01*
X175065386Y-59402267D01*
X175044858Y-59650000D01*
X173405659Y-59650000D01*
X173385063Y-59414592D01*
X173323903Y-59186337D01*
X173224035Y-58972171D01*
X173088495Y-58778599D01*
X172921401Y-58611505D01*
X172727830Y-58475965D01*
X172513663Y-58376097D01*
X172452501Y-58359709D01*
X172285407Y-58314936D01*
X172050000Y-58294340D01*
X171814592Y-58314936D01*
X171586336Y-58376097D01*
X171571061Y-58383220D01*
X171501983Y-58393711D01*
X171438199Y-58365190D01*
X171430977Y-58358518D01*
X170911819Y-57839360D01*
X170878334Y-57778037D01*
X170875500Y-57751679D01*
X170875500Y-56599999D01*
X171194858Y-56599999D01*
X171215386Y-56847732D01*
X171276413Y-57088721D01*
X171376268Y-57316370D01*
X171476563Y-57469882D01*
X171476564Y-57469882D01*
X172174070Y-56772376D01*
X172176884Y-56785915D01*
X172246442Y-56920156D01*
X172349638Y-57030652D01*
X172478819Y-57109209D01*
X172530002Y-57123549D01*
X171829942Y-57823609D01*
X171829942Y-57823610D01*
X171876766Y-57860055D01*
X172095393Y-57978368D01*
X172330506Y-58059083D01*
X172575707Y-58100000D01*
X172824293Y-58100000D01*
X173069493Y-58059083D01*
X173304606Y-57978368D01*
X173523233Y-57860053D01*
X173570056Y-57823609D01*
X172871568Y-57125121D01*
X172988458Y-57074349D01*
X173105739Y-56978934D01*
X173192928Y-56855415D01*
X173223354Y-56769802D01*
X173923434Y-57469882D01*
X174023730Y-57316369D01*
X174123586Y-57088721D01*
X174184613Y-56847732D01*
X174205141Y-56600000D01*
X174184613Y-56352267D01*
X174123586Y-56111278D01*
X174023730Y-55883630D01*
X173923434Y-55730116D01*
X173225929Y-56427622D01*
X173223116Y-56414085D01*
X173153558Y-56279844D01*
X173050362Y-56169348D01*
X172921181Y-56090791D01*
X172869997Y-56076450D01*
X173570057Y-55376390D01*
X173570056Y-55376388D01*
X173523235Y-55339947D01*
X173304606Y-55221631D01*
X173069493Y-55140916D01*
X172824293Y-55100000D01*
X172575707Y-55100000D01*
X172330506Y-55140916D01*
X172095393Y-55221631D01*
X171876764Y-55339946D01*
X171829942Y-55376388D01*
X171829942Y-55376390D01*
X172528431Y-56074878D01*
X172411542Y-56125651D01*
X172294261Y-56221066D01*
X172207072Y-56344585D01*
X172176645Y-56430197D01*
X171476564Y-55730116D01*
X171376266Y-55883634D01*
X171276413Y-56111278D01*
X171215386Y-56352267D01*
X171194858Y-56599999D01*
X170875500Y-56599999D01*
X170875500Y-53500000D01*
X179994389Y-53500000D01*
X180014804Y-53785429D01*
X180075629Y-54065041D01*
X180102989Y-54138395D01*
X180150406Y-54265526D01*
X180175634Y-54333163D01*
X180312772Y-54584313D01*
X180352009Y-54636727D01*
X180484261Y-54813395D01*
X180686605Y-55015739D01*
X180842975Y-55132796D01*
X180915686Y-55187227D01*
X181035443Y-55252619D01*
X181166839Y-55324367D01*
X181434954Y-55424369D01*
X181434957Y-55424369D01*
X181434958Y-55424370D01*
X181487217Y-55435738D01*
X181714572Y-55485196D01*
X182000000Y-55505610D01*
X182285428Y-55485196D01*
X182565046Y-55424369D01*
X182833161Y-55324367D01*
X183084315Y-55187226D01*
X183313395Y-55015739D01*
X183515739Y-54813395D01*
X183687226Y-54584315D01*
X183824367Y-54333161D01*
X183924369Y-54065046D01*
X183985196Y-53785428D01*
X184005610Y-53500000D01*
X183985196Y-53214572D01*
X183924369Y-52934954D01*
X183824367Y-52666839D01*
X183753439Y-52536945D01*
X183687227Y-52415686D01*
X183625369Y-52333054D01*
X183515739Y-52186605D01*
X183313395Y-51984261D01*
X183169208Y-51876324D01*
X183084313Y-51812772D01*
X182833163Y-51675634D01*
X182833162Y-51675633D01*
X182833161Y-51675633D01*
X182585500Y-51583260D01*
X182565041Y-51575629D01*
X182285429Y-51514804D01*
X182000000Y-51494389D01*
X181714570Y-51514804D01*
X181434958Y-51575629D01*
X181166836Y-51675634D01*
X180915686Y-51812772D01*
X180686602Y-51984263D01*
X180484263Y-52186602D01*
X180312772Y-52415686D01*
X180175634Y-52666836D01*
X180075629Y-52934958D01*
X180014804Y-53214570D01*
X179994389Y-53500000D01*
X170875500Y-53500000D01*
X170875500Y-50100000D01*
X171194858Y-50100000D01*
X171215386Y-50347732D01*
X171276413Y-50588721D01*
X171376268Y-50816370D01*
X171476563Y-50969882D01*
X171476564Y-50969882D01*
X172174070Y-50272375D01*
X172176884Y-50285915D01*
X172246442Y-50420156D01*
X172349638Y-50530652D01*
X172478819Y-50609209D01*
X172530002Y-50623549D01*
X171829942Y-51323609D01*
X171829942Y-51323610D01*
X171876766Y-51360055D01*
X172095393Y-51478368D01*
X172330506Y-51559083D01*
X172575707Y-51600000D01*
X172824293Y-51600000D01*
X173069493Y-51559083D01*
X173304606Y-51478368D01*
X173523233Y-51360053D01*
X173570056Y-51323609D01*
X172871568Y-50625121D01*
X172988458Y-50574349D01*
X173105739Y-50478934D01*
X173192928Y-50355415D01*
X173223354Y-50269802D01*
X173923434Y-50969882D01*
X174023730Y-50816369D01*
X174123586Y-50588721D01*
X174184613Y-50347732D01*
X174205141Y-50099999D01*
X174184613Y-49852267D01*
X174123586Y-49611278D01*
X174023730Y-49383630D01*
X173923434Y-49230116D01*
X173225929Y-49927622D01*
X173223116Y-49914085D01*
X173153558Y-49779844D01*
X173050362Y-49669348D01*
X172921181Y-49590791D01*
X172869997Y-49576450D01*
X173570057Y-48876390D01*
X173570056Y-48876388D01*
X173523235Y-48839947D01*
X173304606Y-48721631D01*
X173069493Y-48640916D01*
X172824293Y-48600000D01*
X172575707Y-48600000D01*
X172330506Y-48640916D01*
X172095393Y-48721631D01*
X171876764Y-48839946D01*
X171829942Y-48876388D01*
X171829942Y-48876390D01*
X172528431Y-49574878D01*
X172411542Y-49625651D01*
X172294261Y-49721066D01*
X172207072Y-49844585D01*
X172176645Y-49930196D01*
X171476564Y-49230117D01*
X171376266Y-49383634D01*
X171276413Y-49611278D01*
X171215386Y-49852267D01*
X171194858Y-50100000D01*
X170875500Y-50100000D01*
X170875500Y-49664453D01*
X170878334Y-49638094D01*
X170878716Y-49636337D01*
X170879166Y-49634270D01*
X170877997Y-49617921D01*
X170875816Y-49587432D01*
X170875500Y-49578586D01*
X170875500Y-49565990D01*
X170875500Y-49565989D01*
X170873705Y-49553511D01*
X170872760Y-49544716D01*
X170871851Y-49532010D01*
X170869411Y-49497885D01*
X170868042Y-49494216D01*
X170861488Y-49468534D01*
X170860931Y-49464658D01*
X170841416Y-49421926D01*
X170838038Y-49413771D01*
X170821627Y-49369771D01*
X170819285Y-49366643D01*
X170805755Y-49343839D01*
X170804131Y-49340283D01*
X170800646Y-49336261D01*
X170773367Y-49304778D01*
X170767830Y-49297908D01*
X170767813Y-49297885D01*
X170760278Y-49287820D01*
X170751384Y-49278926D01*
X170745352Y-49272448D01*
X170714588Y-49236944D01*
X170711287Y-49234823D01*
X170690648Y-49218190D01*
X165081808Y-43609349D01*
X165065174Y-43588708D01*
X165063055Y-43585411D01*
X165027565Y-43554659D01*
X165021086Y-43548627D01*
X165012180Y-43539721D01*
X165002093Y-43532170D01*
X164995214Y-43526627D01*
X164959718Y-43495870D01*
X164959716Y-43495869D01*
X164956150Y-43494240D01*
X164933369Y-43480722D01*
X164930231Y-43478373D01*
X164912436Y-43471736D01*
X164886219Y-43461957D01*
X164878045Y-43458571D01*
X164835343Y-43439069D01*
X164834654Y-43438970D01*
X164831458Y-43438510D01*
X164805781Y-43431956D01*
X164802115Y-43430588D01*
X164755275Y-43427237D01*
X164746491Y-43426293D01*
X164734012Y-43424500D01*
X164734011Y-43424500D01*
X164721422Y-43424500D01*
X164712575Y-43424184D01*
X164665729Y-43420833D01*
X164665728Y-43420833D01*
X164661900Y-43421666D01*
X164635541Y-43424500D01*
X161648320Y-43424500D01*
X161581281Y-43404815D01*
X161560639Y-43388181D01*
X160267911Y-42095452D01*
X160234426Y-42034129D01*
X160239410Y-41964437D01*
X160281282Y-41908504D01*
X160325892Y-41891463D01*
X160324930Y-41887871D01*
X160388732Y-41870774D01*
X160563663Y-41823903D01*
X160777830Y-41724035D01*
X160971401Y-41588495D01*
X161138495Y-41421401D01*
X161274035Y-41227830D01*
X161373903Y-41013663D01*
X161435063Y-40785408D01*
X161455659Y-40550000D01*
X163094858Y-40550000D01*
X163115386Y-40797732D01*
X163176413Y-41038721D01*
X163276268Y-41266370D01*
X163376563Y-41419882D01*
X163376564Y-41419882D01*
X164074070Y-40722375D01*
X164076884Y-40735915D01*
X164146442Y-40870156D01*
X164249638Y-40980652D01*
X164378819Y-41059209D01*
X164430002Y-41073549D01*
X163729942Y-41773609D01*
X163729942Y-41773610D01*
X163776766Y-41810055D01*
X163995393Y-41928368D01*
X164230506Y-42009083D01*
X164475707Y-42050000D01*
X164724293Y-42050000D01*
X164969493Y-42009083D01*
X165204606Y-41928368D01*
X165423233Y-41810053D01*
X165470056Y-41773609D01*
X164771568Y-41075121D01*
X164888458Y-41024349D01*
X165005739Y-40928934D01*
X165092928Y-40805415D01*
X165123354Y-40719802D01*
X165823434Y-41419882D01*
X165923730Y-41266369D01*
X166023586Y-41038721D01*
X166084613Y-40797732D01*
X166105141Y-40550000D01*
X166084613Y-40302267D01*
X166023586Y-40061278D01*
X165923730Y-39833630D01*
X165823434Y-39680116D01*
X165125929Y-40377622D01*
X165123116Y-40364085D01*
X165053558Y-40229844D01*
X164950362Y-40119348D01*
X164821181Y-40040791D01*
X164769995Y-40026449D01*
X165470056Y-39326389D01*
X165470056Y-39326387D01*
X165423235Y-39289947D01*
X165204606Y-39171631D01*
X164969493Y-39090916D01*
X164724293Y-39050000D01*
X164475707Y-39050000D01*
X164230506Y-39090916D01*
X163995393Y-39171631D01*
X163776764Y-39289946D01*
X163729942Y-39326388D01*
X163729941Y-39326389D01*
X164428431Y-40024878D01*
X164311542Y-40075651D01*
X164194261Y-40171066D01*
X164107072Y-40294585D01*
X164076645Y-40380196D01*
X163376564Y-39680117D01*
X163276266Y-39833634D01*
X163176413Y-40061278D01*
X163115386Y-40302267D01*
X163094858Y-40550000D01*
X161455659Y-40550000D01*
X161435063Y-40314592D01*
X161373903Y-40086337D01*
X161274035Y-39872171D01*
X161138495Y-39678599D01*
X160971401Y-39511505D01*
X160777830Y-39375965D01*
X160563663Y-39276097D01*
X160466278Y-39250003D01*
X160335407Y-39214936D01*
X160100000Y-39194340D01*
X159864592Y-39214936D01*
X159636336Y-39276097D01*
X159422170Y-39375965D01*
X159228601Y-39511503D01*
X159143962Y-39596142D01*
X159082638Y-39629626D01*
X159012947Y-39624642D01*
X158968600Y-39596141D01*
X155872459Y-36500000D01*
X171494356Y-36500000D01*
X171514891Y-36747816D01*
X171514891Y-36747819D01*
X171514892Y-36747821D01*
X171575937Y-36988881D01*
X171620960Y-37091523D01*
X171675825Y-37216604D01*
X171675827Y-37216607D01*
X171811836Y-37424785D01*
X171980256Y-37607738D01*
X171980259Y-37607740D01*
X172176485Y-37760470D01*
X172176487Y-37760471D01*
X172176491Y-37760474D01*
X172395190Y-37878828D01*
X172630386Y-37959571D01*
X172875665Y-38000500D01*
X173124335Y-38000500D01*
X173369614Y-37959571D01*
X173604810Y-37878828D01*
X173823509Y-37760474D01*
X174019744Y-37607738D01*
X174188164Y-37424785D01*
X174324173Y-37216607D01*
X174424063Y-36988881D01*
X174485108Y-36747821D01*
X174505643Y-36500000D01*
X174485108Y-36252179D01*
X174424063Y-36011119D01*
X174324173Y-35783393D01*
X174188164Y-35575215D01*
X174019744Y-35392262D01*
X173965655Y-35350163D01*
X173823514Y-35239529D01*
X173823510Y-35239526D01*
X173823509Y-35239526D01*
X173604810Y-35121172D01*
X173604806Y-35121170D01*
X173604805Y-35121170D01*
X173369615Y-35040429D01*
X173124335Y-34999500D01*
X172875665Y-34999500D01*
X172630384Y-35040429D01*
X172395194Y-35121170D01*
X172176485Y-35239529D01*
X171980259Y-35392259D01*
X171980256Y-35392261D01*
X171980256Y-35392262D01*
X171811836Y-35575215D01*
X171768595Y-35641401D01*
X171675825Y-35783395D01*
X171602988Y-35949448D01*
X171575937Y-36011119D01*
X171557228Y-36085000D01*
X171514891Y-36252183D01*
X171494356Y-36500000D01*
X155872459Y-36500000D01*
X154274140Y-34901681D01*
X154240655Y-34840358D01*
X154245639Y-34770666D01*
X154287511Y-34714733D01*
X154352975Y-34690316D01*
X154361821Y-34690000D01*
X154570000Y-34690000D01*
X154570000Y-33775501D01*
X154677685Y-33824680D01*
X154784237Y-33840000D01*
X154855763Y-33840000D01*
X154962315Y-33824680D01*
X155070000Y-33775501D01*
X155070000Y-34690000D01*
X155714518Y-34690000D01*
X155721132Y-34689645D01*
X155777371Y-34683599D01*
X155912089Y-34633352D01*
X156027188Y-34547188D01*
X156113352Y-34432089D01*
X156163599Y-34297371D01*
X156169645Y-34241132D01*
X156170000Y-34234518D01*
X156170000Y-34126236D01*
X156189685Y-34059197D01*
X156242489Y-34013442D01*
X156311647Y-34003498D01*
X156375203Y-34032523D01*
X156392954Y-34051510D01*
X156469017Y-34152235D01*
X156633437Y-34302124D01*
X156822595Y-34419245D01*
X156822597Y-34419245D01*
X156822599Y-34419247D01*
X157030060Y-34499618D01*
X157248757Y-34540500D01*
X157248759Y-34540500D01*
X157471241Y-34540500D01*
X157471243Y-34540500D01*
X157689940Y-34499618D01*
X157897401Y-34419247D01*
X158086562Y-34302124D01*
X158250981Y-34152236D01*
X158385058Y-33974689D01*
X158484229Y-33775528D01*
X158487239Y-33764952D01*
X158510734Y-33682374D01*
X158548013Y-33623281D01*
X158611322Y-33593723D01*
X158680562Y-33603085D01*
X158733749Y-33648395D01*
X158749266Y-33682374D01*
X158775769Y-33775526D01*
X158874941Y-33974688D01*
X159009019Y-34152237D01*
X159173437Y-34302124D01*
X159362595Y-34419245D01*
X159362597Y-34419245D01*
X159362599Y-34419247D01*
X159570060Y-34499618D01*
X159788757Y-34540500D01*
X159788759Y-34540500D01*
X160011241Y-34540500D01*
X160011243Y-34540500D01*
X160229940Y-34499618D01*
X160437401Y-34419247D01*
X160626562Y-34302124D01*
X160790981Y-34152236D01*
X160925058Y-33974689D01*
X161024229Y-33775528D01*
X161027239Y-33764952D01*
X161073293Y-33603085D01*
X161085115Y-33561536D01*
X161105643Y-33340000D01*
X161085115Y-33118464D01*
X161054027Y-33009202D01*
X161024230Y-32904473D01*
X160925058Y-32705311D01*
X160790980Y-32527762D01*
X160626562Y-32377875D01*
X160437404Y-32260754D01*
X160341692Y-32223675D01*
X160229940Y-32180382D01*
X160011243Y-32139500D01*
X159788757Y-32139500D01*
X159610165Y-32172885D01*
X159570060Y-32180382D01*
X159362595Y-32260754D01*
X159173437Y-32377875D01*
X159009019Y-32527762D01*
X158874941Y-32705311D01*
X158775769Y-32904473D01*
X158749266Y-32997625D01*
X158711987Y-33056719D01*
X158648677Y-33086276D01*
X158579438Y-33076914D01*
X158526251Y-33031604D01*
X158510734Y-32997625D01*
X158484230Y-32904473D01*
X158385058Y-32705311D01*
X158250980Y-32527762D01*
X158086562Y-32377875D01*
X157897404Y-32260754D01*
X157801692Y-32223675D01*
X157689940Y-32180382D01*
X157471243Y-32139500D01*
X157248757Y-32139500D01*
X157070165Y-32172885D01*
X157030060Y-32180382D01*
X156822595Y-32260754D01*
X156633437Y-32377875D01*
X156469019Y-32527762D01*
X156392954Y-32628490D01*
X156336845Y-32670126D01*
X156267133Y-32674817D01*
X156205951Y-32641075D01*
X156172724Y-32579612D01*
X156170000Y-32553763D01*
X156170000Y-32445481D01*
X156169645Y-32438867D01*
X156163599Y-32382628D01*
X156113352Y-32247910D01*
X156027188Y-32132811D01*
X155912089Y-32046647D01*
X155777371Y-31996400D01*
X155721132Y-31990354D01*
X155714518Y-31990000D01*
X155070000Y-31990000D01*
X155070000Y-32904498D01*
X154962315Y-32855320D01*
X154855763Y-32840000D01*
X154784237Y-32840000D01*
X154677685Y-32855320D01*
X154570000Y-32904498D01*
X154570000Y-31990000D01*
X153925482Y-31990000D01*
X153918867Y-31990354D01*
X153862628Y-31996400D01*
X153727910Y-32046647D01*
X153612811Y-32132811D01*
X153526647Y-32247910D01*
X153476400Y-32382628D01*
X153470354Y-32438867D01*
X153470000Y-32445481D01*
X153470000Y-33090000D01*
X154386314Y-33090000D01*
X154360507Y-33130156D01*
X154320000Y-33268111D01*
X154320000Y-33411889D01*
X154360507Y-33549844D01*
X154386314Y-33590000D01*
X153470000Y-33590000D01*
X153470000Y-33798179D01*
X153450315Y-33865218D01*
X153397511Y-33910973D01*
X153328353Y-33920917D01*
X153264797Y-33891892D01*
X153258319Y-33885860D01*
X150256808Y-30884349D01*
X150240174Y-30863708D01*
X150238055Y-30860411D01*
X150202565Y-30829659D01*
X150196086Y-30823627D01*
X150187180Y-30814721D01*
X150177093Y-30807170D01*
X150170214Y-30801627D01*
X150134718Y-30770870D01*
X150134716Y-30770869D01*
X150131150Y-30769240D01*
X150108369Y-30755722D01*
X150105230Y-30753372D01*
X150071205Y-30740682D01*
X150015271Y-30698811D01*
X149990854Y-30633346D01*
X150005706Y-30565073D01*
X150055111Y-30515668D01*
X150114538Y-30500500D01*
X161998695Y-30500500D01*
X162001257Y-30500525D01*
G37*
%TD.AperFunction*%
%TA.AperFunction,Conductor*%
G36*
X136063718Y-48995185D02*
G01*
X136084360Y-49011819D01*
X136560360Y-49487819D01*
X136593845Y-49549142D01*
X136588861Y-49618834D01*
X136546989Y-49674767D01*
X136481525Y-49699184D01*
X136472679Y-49699500D01*
X135791737Y-49699500D01*
X135723609Y-49709426D01*
X135723606Y-49709427D01*
X135723607Y-49709427D01*
X135694992Y-49723416D01*
X135694460Y-49723676D01*
X135625587Y-49735434D01*
X135585540Y-49723676D01*
X135585538Y-49723675D01*
X135556393Y-49709427D01*
X135556391Y-49709426D01*
X135556390Y-49709426D01*
X135488263Y-49699500D01*
X135488260Y-49699500D01*
X134521740Y-49699500D01*
X134521737Y-49699500D01*
X134453609Y-49709426D01*
X134453606Y-49709427D01*
X134453607Y-49709427D01*
X134424992Y-49723416D01*
X134424460Y-49723676D01*
X134355587Y-49735434D01*
X134315540Y-49723676D01*
X134315538Y-49723675D01*
X134286393Y-49709427D01*
X134286391Y-49709426D01*
X134286390Y-49709426D01*
X134218263Y-49699500D01*
X134218260Y-49699500D01*
X133251740Y-49699500D01*
X133251737Y-49699500D01*
X133183606Y-49709426D01*
X133154456Y-49723676D01*
X133085582Y-49735433D01*
X133045540Y-49723675D01*
X133016392Y-49709426D01*
X132948263Y-49699500D01*
X132948260Y-49699500D01*
X132052396Y-49699500D01*
X131985357Y-49679815D01*
X131978085Y-49674767D01*
X131887089Y-49606647D01*
X131752371Y-49556400D01*
X131696132Y-49550354D01*
X131689518Y-49550000D01*
X131445000Y-49550000D01*
X131445000Y-52031178D01*
X131425315Y-52098217D01*
X131408681Y-52118859D01*
X131068467Y-52459072D01*
X131007144Y-52492557D01*
X130937452Y-52487573D01*
X130881519Y-52445701D01*
X130857102Y-52380237D01*
X130861936Y-52353503D01*
X130858393Y-52352994D01*
X130860929Y-52335344D01*
X130860931Y-52335342D01*
X130861488Y-52331465D01*
X130868045Y-52305778D01*
X130868525Y-52304488D01*
X130869411Y-52302115D01*
X130872761Y-52255269D01*
X130873707Y-52246478D01*
X130875500Y-52234010D01*
X130875500Y-52221421D01*
X130875816Y-52212574D01*
X130877387Y-52190606D01*
X130879167Y-52165729D01*
X130879166Y-52165727D01*
X130879711Y-52158119D01*
X130904128Y-52092655D01*
X130915714Y-52079284D01*
X130945000Y-52049998D01*
X130945000Y-49578820D01*
X130964685Y-49511781D01*
X130981319Y-49491139D01*
X131190730Y-49281729D01*
X131460639Y-49011819D01*
X131521963Y-48978334D01*
X131548321Y-48975500D01*
X135996679Y-48975500D01*
X136063718Y-48995185D01*
G37*
%TD.AperFunction*%
%TA.AperFunction,Conductor*%
G36*
X139504457Y-51876322D02*
G01*
X139533607Y-51890573D01*
X139533608Y-51890573D01*
X139533610Y-51890574D01*
X139601737Y-51900500D01*
X139601740Y-51900500D01*
X139976679Y-51900500D01*
X140043718Y-51920185D01*
X140064360Y-51936819D01*
X141188181Y-53060640D01*
X141221666Y-53121963D01*
X141224500Y-53148321D01*
X141224500Y-57251677D01*
X141204815Y-57318716D01*
X141188181Y-57339358D01*
X138909345Y-59618194D01*
X138888709Y-59634825D01*
X138885411Y-59636944D01*
X138854663Y-59672429D01*
X138848641Y-59678898D01*
X138839722Y-59687818D01*
X138832158Y-59697921D01*
X138826613Y-59704800D01*
X138795867Y-59740284D01*
X138794235Y-59743857D01*
X138780723Y-59766630D01*
X138778370Y-59769773D01*
X138761960Y-59813770D01*
X138758574Y-59821944D01*
X138739068Y-59864657D01*
X138738511Y-59868535D01*
X138731958Y-59894212D01*
X138724361Y-59914584D01*
X138719702Y-59912846D01*
X138707319Y-59945895D01*
X138651323Y-59987682D01*
X138581624Y-59992561D01*
X138520483Y-59959116D01*
X138470891Y-59909524D01*
X138470890Y-59909523D01*
X138327690Y-59819544D01*
X138168059Y-59763687D01*
X138168058Y-59763686D01*
X138168056Y-59763686D01*
X138000000Y-59744750D01*
X137984932Y-59746448D01*
X137916110Y-59734393D01*
X137883368Y-59710909D01*
X136565968Y-58393509D01*
X136532483Y-58332186D01*
X136537467Y-58262494D01*
X136570111Y-58214191D01*
X136578500Y-58206544D01*
X136670981Y-58122236D01*
X136678597Y-58112151D01*
X136747046Y-58021510D01*
X136803154Y-57979873D01*
X136872866Y-57975181D01*
X136934048Y-58008923D01*
X136967276Y-58070387D01*
X136970000Y-58096236D01*
X136970000Y-58204518D01*
X136970354Y-58211132D01*
X136976400Y-58267371D01*
X137026647Y-58402089D01*
X137112811Y-58517188D01*
X137227910Y-58603352D01*
X137362628Y-58653599D01*
X137418867Y-58659645D01*
X137425482Y-58660000D01*
X138070000Y-58660000D01*
X138070000Y-57745501D01*
X138177685Y-57794680D01*
X138284237Y-57810000D01*
X138355763Y-57810000D01*
X138462315Y-57794680D01*
X138570000Y-57745501D01*
X138570000Y-58660000D01*
X139214518Y-58660000D01*
X139221132Y-58659645D01*
X139277371Y-58653599D01*
X139412089Y-58603352D01*
X139527188Y-58517188D01*
X139613352Y-58402089D01*
X139663599Y-58267371D01*
X139669645Y-58211132D01*
X139670000Y-58204518D01*
X139670000Y-57560000D01*
X138753686Y-57560000D01*
X138779493Y-57519844D01*
X138820000Y-57381889D01*
X138820000Y-57238111D01*
X138779493Y-57100156D01*
X138753686Y-57060000D01*
X139670000Y-57060000D01*
X139670000Y-56415481D01*
X139669645Y-56408867D01*
X139663599Y-56352628D01*
X139613352Y-56217910D01*
X139527188Y-56102811D01*
X139412089Y-56016647D01*
X139277371Y-55966400D01*
X139221132Y-55960354D01*
X139214518Y-55960000D01*
X138570000Y-55960000D01*
X138570000Y-56874498D01*
X138462315Y-56825320D01*
X138355763Y-56810000D01*
X138284237Y-56810000D01*
X138177685Y-56825320D01*
X138070000Y-56874498D01*
X138070000Y-55960000D01*
X137425482Y-55960000D01*
X137418867Y-55960354D01*
X137362628Y-55966400D01*
X137227910Y-56016647D01*
X137112811Y-56102811D01*
X137026647Y-56217910D01*
X136976400Y-56352628D01*
X136970354Y-56408867D01*
X136970000Y-56415481D01*
X136970000Y-56523763D01*
X136950315Y-56590802D01*
X136897511Y-56636557D01*
X136828353Y-56646501D01*
X136764797Y-56617476D01*
X136747046Y-56598490D01*
X136670980Y-56497762D01*
X136506564Y-56347877D01*
X136314222Y-56228784D01*
X136267587Y-56176756D01*
X136255500Y-56123357D01*
X136255500Y-55872729D01*
X136275185Y-55805690D01*
X136291819Y-55785048D01*
X136323322Y-55753545D01*
X136370477Y-55706390D01*
X136460456Y-55563190D01*
X136516313Y-55403559D01*
X136535249Y-55235500D01*
X136519982Y-55100000D01*
X136516664Y-55070555D01*
X136528718Y-55001733D01*
X136576067Y-54950354D01*
X136643677Y-54932729D01*
X136684674Y-54941043D01*
X136810060Y-54989618D01*
X137028757Y-55030500D01*
X137028759Y-55030500D01*
X137251241Y-55030500D01*
X137251243Y-55030500D01*
X137469940Y-54989618D01*
X137677401Y-54909247D01*
X137866562Y-54792124D01*
X137930281Y-54734036D01*
X138030980Y-54642237D01*
X138030981Y-54642236D01*
X138165058Y-54464689D01*
X138264229Y-54265528D01*
X138264228Y-54265528D01*
X138264230Y-54265526D01*
X138290734Y-54172374D01*
X138328013Y-54113281D01*
X138391322Y-54083723D01*
X138460562Y-54093085D01*
X138513749Y-54138395D01*
X138529266Y-54172374D01*
X138555769Y-54265526D01*
X138654941Y-54464688D01*
X138789019Y-54642237D01*
X138953437Y-54792124D01*
X139142595Y-54909245D01*
X139142597Y-54909245D01*
X139142599Y-54909247D01*
X139350060Y-54989618D01*
X139568757Y-55030500D01*
X139568759Y-55030500D01*
X139791241Y-55030500D01*
X139791243Y-55030500D01*
X140009940Y-54989618D01*
X140217401Y-54909247D01*
X140406562Y-54792124D01*
X140470281Y-54734036D01*
X140570980Y-54642237D01*
X140570981Y-54642236D01*
X140705058Y-54464689D01*
X140804229Y-54265528D01*
X140804228Y-54265528D01*
X140804230Y-54265526D01*
X140840401Y-54138395D01*
X140865115Y-54051536D01*
X140885643Y-53830000D01*
X140865115Y-53608464D01*
X140834027Y-53499202D01*
X140804230Y-53394473D01*
X140705058Y-53195311D01*
X140570980Y-53017762D01*
X140406562Y-52867875D01*
X140217404Y-52750754D01*
X140090404Y-52701554D01*
X140009940Y-52670382D01*
X139791243Y-52629500D01*
X139568757Y-52629500D01*
X139350059Y-52670382D01*
X139350060Y-52670382D01*
X139142595Y-52750754D01*
X138953437Y-52867875D01*
X138789019Y-53017762D01*
X138654941Y-53195311D01*
X138555769Y-53394473D01*
X138529266Y-53487625D01*
X138491987Y-53546719D01*
X138428677Y-53576276D01*
X138359438Y-53566914D01*
X138306251Y-53521604D01*
X138290734Y-53487625D01*
X138264230Y-53394473D01*
X138165058Y-53195311D01*
X138030980Y-53017762D01*
X137858071Y-52860135D01*
X137860530Y-52857436D01*
X137827397Y-52820461D01*
X137816303Y-52751478D01*
X137834325Y-52701106D01*
X137837727Y-52695693D01*
X137880456Y-52627690D01*
X137936313Y-52468059D01*
X137955249Y-52300000D01*
X137936313Y-52131941D01*
X137913047Y-52065452D01*
X137909487Y-51995676D01*
X137944216Y-51935048D01*
X138006209Y-51902821D01*
X138024602Y-51901033D01*
X138096389Y-51890574D01*
X138096390Y-51890573D01*
X138096393Y-51890573D01*
X138125540Y-51876323D01*
X138194411Y-51864564D01*
X138234457Y-51876322D01*
X138263607Y-51890573D01*
X138263608Y-51890573D01*
X138263610Y-51890574D01*
X138331737Y-51900500D01*
X138331740Y-51900500D01*
X139298263Y-51900500D01*
X139366389Y-51890574D01*
X139366390Y-51890573D01*
X139366393Y-51890573D01*
X139395540Y-51876323D01*
X139464411Y-51864564D01*
X139504457Y-51876322D01*
G37*
%TD.AperFunction*%
%TA.AperFunction,Conductor*%
G36*
X129770000Y-55180000D02*
G01*
X130414518Y-55180000D01*
X130421130Y-55179645D01*
X130456368Y-55175857D01*
X130525127Y-55188261D01*
X130557305Y-55211465D01*
X131026296Y-55680456D01*
X131375442Y-56029601D01*
X131408927Y-56090924D01*
X131403943Y-56160615D01*
X131362071Y-56216549D01*
X131296607Y-56240966D01*
X131242967Y-56232909D01*
X131098019Y-56176756D01*
X131029940Y-56150382D01*
X130811243Y-56109500D01*
X130588757Y-56109500D01*
X130370060Y-56150382D01*
X130162595Y-56230754D01*
X129973437Y-56347875D01*
X129809019Y-56497762D01*
X129696599Y-56646632D01*
X129640490Y-56688268D01*
X129570778Y-56692959D01*
X129509964Y-56659586D01*
X128311818Y-55461440D01*
X128278333Y-55400117D01*
X128275499Y-55373768D01*
X128275499Y-55245096D01*
X128295184Y-55178061D01*
X128347988Y-55132306D01*
X128417146Y-55122362D01*
X128442833Y-55128918D01*
X128562628Y-55173599D01*
X128618867Y-55179645D01*
X128625482Y-55180000D01*
X129270000Y-55180000D01*
X129269999Y-54265501D01*
X129377685Y-54314680D01*
X129484237Y-54330000D01*
X129555763Y-54330000D01*
X129662315Y-54314680D01*
X129770000Y-54265501D01*
X129770000Y-55180000D01*
G37*
%TD.AperFunction*%
%TA.AperFunction,Conductor*%
G36*
X131388039Y-33069685D02*
G01*
X131433794Y-33122489D01*
X131445000Y-33174000D01*
X131444999Y-34549999D01*
X131468181Y-34573181D01*
X131501666Y-34634504D01*
X131504500Y-34660862D01*
X131504499Y-35362771D01*
X131484814Y-35429811D01*
X131468181Y-35450452D01*
X131389523Y-35529110D01*
X131299544Y-35672310D01*
X131243686Y-35831943D01*
X131224750Y-36000000D01*
X131243686Y-36168056D01*
X131243686Y-36168058D01*
X131243687Y-36168059D01*
X131299544Y-36327690D01*
X131389523Y-36470890D01*
X131509110Y-36590477D01*
X131652310Y-36680456D01*
X131811941Y-36736313D01*
X131914076Y-36747821D01*
X131979999Y-36755249D01*
X131979999Y-36755248D01*
X131980000Y-36755249D01*
X132148059Y-36736313D01*
X132307690Y-36680456D01*
X132450890Y-36590477D01*
X132570477Y-36470890D01*
X132660456Y-36327690D01*
X132716313Y-36168059D01*
X132735249Y-36000000D01*
X132716313Y-35831941D01*
X132660456Y-35672310D01*
X132570477Y-35529110D01*
X132491817Y-35450451D01*
X132458333Y-35389128D01*
X132455499Y-35362770D01*
X132455499Y-34995185D01*
X132455499Y-34613317D01*
X132475184Y-34546282D01*
X132491819Y-34525639D01*
X132580642Y-34436818D01*
X132641965Y-34403333D01*
X132668322Y-34400500D01*
X132948263Y-34400500D01*
X133016389Y-34390574D01*
X133016390Y-34390573D01*
X133016393Y-34390573D01*
X133045538Y-34376324D01*
X133114408Y-34364564D01*
X133154459Y-34376323D01*
X133183607Y-34390573D01*
X133191754Y-34391760D01*
X133251737Y-34400500D01*
X133251740Y-34400500D01*
X134218263Y-34400500D01*
X134286389Y-34390574D01*
X134286390Y-34390573D01*
X134286393Y-34390573D01*
X134315538Y-34376324D01*
X134384408Y-34364564D01*
X134424459Y-34376323D01*
X134453607Y-34390573D01*
X134461754Y-34391760D01*
X134521737Y-34400500D01*
X134521740Y-34400500D01*
X135488263Y-34400500D01*
X135556389Y-34390574D01*
X135556390Y-34390573D01*
X135556393Y-34390573D01*
X135585540Y-34376323D01*
X135654411Y-34364564D01*
X135694457Y-34376322D01*
X135723607Y-34390573D01*
X135723608Y-34390573D01*
X135723610Y-34390574D01*
X135791737Y-34400500D01*
X135791740Y-34400500D01*
X136758263Y-34400500D01*
X136826389Y-34390574D01*
X136826390Y-34390573D01*
X136826393Y-34390573D01*
X136855540Y-34376323D01*
X136924411Y-34364564D01*
X136964457Y-34376322D01*
X136993607Y-34390573D01*
X136993608Y-34390573D01*
X136993610Y-34390574D01*
X137061737Y-34400500D01*
X137061740Y-34400500D01*
X138028263Y-34400500D01*
X138096389Y-34390574D01*
X138096390Y-34390573D01*
X138096393Y-34390573D01*
X138125540Y-34376323D01*
X138194411Y-34364564D01*
X138234457Y-34376322D01*
X138263607Y-34390573D01*
X138263608Y-34390573D01*
X138263610Y-34390574D01*
X138331737Y-34400500D01*
X138331740Y-34400500D01*
X139298263Y-34400500D01*
X139366389Y-34390574D01*
X139366390Y-34390573D01*
X139366393Y-34390573D01*
X139395540Y-34376323D01*
X139464411Y-34364564D01*
X139504457Y-34376322D01*
X139533607Y-34390573D01*
X139533608Y-34390573D01*
X139533610Y-34390574D01*
X139601737Y-34400500D01*
X139601740Y-34400500D01*
X140568263Y-34400500D01*
X140636389Y-34390574D01*
X140636390Y-34390573D01*
X140636393Y-34390573D01*
X140665540Y-34376323D01*
X140734411Y-34364564D01*
X140774457Y-34376322D01*
X140803607Y-34390573D01*
X140803608Y-34390573D01*
X140803610Y-34390574D01*
X140871737Y-34400500D01*
X140871740Y-34400500D01*
X141838263Y-34400500D01*
X141906389Y-34390574D01*
X141906390Y-34390573D01*
X141906393Y-34390573D01*
X141935540Y-34376323D01*
X142004411Y-34364564D01*
X142044457Y-34376322D01*
X142073607Y-34390573D01*
X142073608Y-34390573D01*
X142073610Y-34390574D01*
X142141737Y-34400500D01*
X142141740Y-34400500D01*
X143108263Y-34400500D01*
X143176389Y-34390574D01*
X143176390Y-34390573D01*
X143176393Y-34390573D01*
X143205540Y-34376323D01*
X143274411Y-34364564D01*
X143314457Y-34376322D01*
X143343607Y-34390573D01*
X143351761Y-34391761D01*
X143415261Y-34420902D01*
X143446678Y-34462953D01*
X143453572Y-34478047D01*
X143456959Y-34486223D01*
X143473373Y-34530231D01*
X143475722Y-34533369D01*
X143489240Y-34556150D01*
X143490869Y-34559716D01*
X143490870Y-34559718D01*
X143521627Y-34595214D01*
X143527170Y-34602093D01*
X143534721Y-34612180D01*
X143543627Y-34621086D01*
X143549659Y-34627565D01*
X143580411Y-34663055D01*
X143583708Y-34665174D01*
X143604349Y-34681808D01*
X144313193Y-35390652D01*
X144329825Y-35411291D01*
X144331945Y-35414589D01*
X144367451Y-35445354D01*
X144373914Y-35451373D01*
X144382815Y-35460275D01*
X144382818Y-35460277D01*
X144382820Y-35460279D01*
X144392916Y-35467837D01*
X144399787Y-35473374D01*
X144435282Y-35504130D01*
X144438842Y-35505756D01*
X144461633Y-35519277D01*
X144464774Y-35521629D01*
X144484832Y-35529110D01*
X144508772Y-35538039D01*
X144516944Y-35541424D01*
X144559658Y-35560931D01*
X144563522Y-35561486D01*
X144589220Y-35568045D01*
X144592885Y-35569412D01*
X144639730Y-35572762D01*
X144648511Y-35573705D01*
X144660989Y-35575500D01*
X144673574Y-35575500D01*
X144682420Y-35575816D01*
X144729271Y-35579167D01*
X144733101Y-35578333D01*
X144759459Y-35575500D01*
X147453196Y-35575500D01*
X147520235Y-35595185D01*
X147565990Y-35647989D01*
X147575934Y-35717147D01*
X147569378Y-35742833D01*
X147556400Y-35777626D01*
X147550354Y-35833867D01*
X147550000Y-35840481D01*
X147550000Y-36085000D01*
X150050000Y-36085000D01*
X150050000Y-35840481D01*
X150049645Y-35833867D01*
X150043599Y-35777626D01*
X150030622Y-35742833D01*
X150025638Y-35673141D01*
X150059123Y-35611818D01*
X150120447Y-35578334D01*
X150146804Y-35575500D01*
X150651679Y-35575500D01*
X150718718Y-35595185D01*
X150739360Y-35611819D01*
X160703423Y-45575882D01*
X160736908Y-45637205D01*
X160731924Y-45706897D01*
X160690052Y-45762830D01*
X160624588Y-45787247D01*
X160574388Y-45777984D01*
X160574142Y-45778905D01*
X160563663Y-45776097D01*
X160514149Y-45762830D01*
X160335407Y-45714936D01*
X160100000Y-45694340D01*
X159864592Y-45714936D01*
X159636336Y-45776097D01*
X159422170Y-45875965D01*
X159228598Y-46011505D01*
X159061505Y-46178598D01*
X158925965Y-46372170D01*
X158826097Y-46586336D01*
X158764936Y-46814592D01*
X158744340Y-47050000D01*
X158764936Y-47285407D01*
X158794172Y-47394517D01*
X158826097Y-47513663D01*
X158925965Y-47727830D01*
X159061505Y-47921401D01*
X159228599Y-48088495D01*
X159422170Y-48224035D01*
X159636337Y-48323903D01*
X159864592Y-48385063D01*
X160099999Y-48405659D01*
X160099999Y-48405658D01*
X160100000Y-48405659D01*
X160335408Y-48385063D01*
X160563663Y-48323903D01*
X160777830Y-48224035D01*
X160971401Y-48088495D01*
X161138495Y-47921401D01*
X161274035Y-47727830D01*
X161373903Y-47513663D01*
X161380725Y-47488201D01*
X161417090Y-47428541D01*
X161479937Y-47398012D01*
X161549312Y-47406307D01*
X161603190Y-47450792D01*
X161624465Y-47517344D01*
X161624500Y-47520295D01*
X161624500Y-49629703D01*
X161604815Y-49696742D01*
X161552011Y-49742497D01*
X161482853Y-49752441D01*
X161419297Y-49723416D01*
X161381523Y-49664638D01*
X161380725Y-49661797D01*
X161379551Y-49657416D01*
X161373903Y-49636337D01*
X161274035Y-49422171D01*
X161138495Y-49228599D01*
X160971401Y-49061505D01*
X160777830Y-48925965D01*
X160563663Y-48826097D01*
X160502501Y-48809709D01*
X160335407Y-48764936D01*
X160100000Y-48744340D01*
X159864592Y-48764936D01*
X159636336Y-48826097D01*
X159621061Y-48833220D01*
X159551983Y-48843711D01*
X159488199Y-48815190D01*
X159480977Y-48808518D01*
X156876808Y-46204349D01*
X156860174Y-46183708D01*
X156858055Y-46180411D01*
X156822565Y-46149659D01*
X156816086Y-46143627D01*
X156807180Y-46134721D01*
X156797093Y-46127170D01*
X156790214Y-46121627D01*
X156754718Y-46090870D01*
X156754716Y-46090869D01*
X156751150Y-46089240D01*
X156728369Y-46075722D01*
X156725231Y-46073373D01*
X156681223Y-46056959D01*
X156673045Y-46053571D01*
X156630343Y-46034069D01*
X156629654Y-46033970D01*
X156626458Y-46033510D01*
X156600781Y-46026956D01*
X156597115Y-46025588D01*
X156550275Y-46022237D01*
X156541491Y-46021293D01*
X156529012Y-46019500D01*
X156529011Y-46019500D01*
X156516422Y-46019500D01*
X156507575Y-46019184D01*
X156460729Y-46015833D01*
X156460728Y-46015833D01*
X156456900Y-46016666D01*
X156430541Y-46019500D01*
X150005080Y-46019500D01*
X149938041Y-45999815D01*
X149893680Y-45949962D01*
X149886281Y-45934827D01*
X149876323Y-45914459D01*
X149864564Y-45845588D01*
X149876323Y-45805540D01*
X149890573Y-45776393D01*
X149890574Y-45776389D01*
X149900500Y-45708263D01*
X149900500Y-44741736D01*
X149890573Y-44673608D01*
X149890572Y-44673606D01*
X149876323Y-44644459D01*
X149864564Y-44575587D01*
X149876323Y-44535540D01*
X149890573Y-44506393D01*
X149900500Y-44438260D01*
X149900500Y-43471740D01*
X149900500Y-43471739D01*
X149900500Y-43471736D01*
X149890574Y-43403610D01*
X149888173Y-43398698D01*
X149876323Y-43374459D01*
X149864564Y-43305589D01*
X149876322Y-43265542D01*
X149890573Y-43236393D01*
X149890573Y-43236390D01*
X149890574Y-43236389D01*
X149900500Y-43168263D01*
X149900500Y-42201736D01*
X149890574Y-42133610D01*
X149890573Y-42133607D01*
X149876323Y-42104459D01*
X149864564Y-42035589D01*
X149876322Y-41995542D01*
X149890573Y-41966393D01*
X149890573Y-41966390D01*
X149890574Y-41966389D01*
X149900500Y-41898263D01*
X149900500Y-40931736D01*
X149890574Y-40863610D01*
X149890573Y-40863607D01*
X149876323Y-40834459D01*
X149864564Y-40765589D01*
X149876322Y-40725542D01*
X149890573Y-40696393D01*
X149890573Y-40696390D01*
X149890574Y-40696389D01*
X149900500Y-40628263D01*
X149900500Y-39661736D01*
X149890573Y-39593608D01*
X149890572Y-39593606D01*
X149876323Y-39564459D01*
X149864564Y-39495587D01*
X149876323Y-39455540D01*
X149890573Y-39426393D01*
X149890574Y-39426389D01*
X149900500Y-39358263D01*
X149900500Y-38391736D01*
X149890574Y-38323610D01*
X149890573Y-38323607D01*
X149876323Y-38294459D01*
X149864564Y-38225589D01*
X149876322Y-38185542D01*
X149890573Y-38156393D01*
X149900500Y-38088260D01*
X149900500Y-37192395D01*
X149920185Y-37125356D01*
X149925234Y-37118084D01*
X149993351Y-37027091D01*
X150043599Y-36892371D01*
X150049645Y-36836132D01*
X150050000Y-36829518D01*
X150050000Y-36585000D01*
X147550000Y-36585000D01*
X147550000Y-36829518D01*
X147550354Y-36836132D01*
X147556400Y-36892371D01*
X147582433Y-36962166D01*
X147587417Y-37031858D01*
X147553933Y-37093181D01*
X147492610Y-37126666D01*
X147466251Y-37129500D01*
X147460986Y-37129500D01*
X147448519Y-37131292D01*
X147439725Y-37132238D01*
X147392885Y-37135588D01*
X147390006Y-37136662D01*
X147389212Y-37136958D01*
X147363536Y-37143511D01*
X147359658Y-37144068D01*
X147316943Y-37163575D01*
X147308771Y-37166961D01*
X147264770Y-37183373D01*
X147261637Y-37185719D01*
X147238849Y-37199240D01*
X147235284Y-37200868D01*
X147235281Y-37200870D01*
X147235282Y-37200870D01*
X147217120Y-37216607D01*
X147199785Y-37231627D01*
X147192902Y-37237174D01*
X147182817Y-37244724D01*
X147173905Y-37253635D01*
X147167436Y-37259657D01*
X147131945Y-37290410D01*
X147129823Y-37293713D01*
X147113192Y-37314348D01*
X145966631Y-38460909D01*
X145905308Y-38494394D01*
X145865066Y-38496448D01*
X145849999Y-38494750D01*
X145681943Y-38513686D01*
X145522310Y-38569544D01*
X145379108Y-38659524D01*
X145259524Y-38779108D01*
X145169544Y-38922310D01*
X145113686Y-39081943D01*
X145094750Y-39250000D01*
X145113686Y-39418056D01*
X145113686Y-39418058D01*
X145113687Y-39418059D01*
X145169544Y-39577690D01*
X145259523Y-39720890D01*
X145379110Y-39840477D01*
X145522310Y-39930456D01*
X145681941Y-39986313D01*
X145850000Y-40005249D01*
X146018059Y-39986313D01*
X146177690Y-39930456D01*
X146320890Y-39840477D01*
X146440477Y-39720890D01*
X146530456Y-39577690D01*
X146586313Y-39418059D01*
X146605249Y-39250000D01*
X146603551Y-39234933D01*
X146615604Y-39166113D01*
X146639087Y-39133370D01*
X147489600Y-38282857D01*
X147550921Y-38249374D01*
X147620613Y-38254358D01*
X147676546Y-38296230D01*
X147700963Y-38361694D01*
X147699984Y-38388412D01*
X147699500Y-38391734D01*
X147699500Y-39358263D01*
X147709426Y-39426392D01*
X147723675Y-39455540D01*
X147735433Y-39524414D01*
X147723676Y-39564456D01*
X147709426Y-39593606D01*
X147699500Y-39661736D01*
X147699500Y-40628263D01*
X147709426Y-40696390D01*
X147723676Y-40725540D01*
X147735434Y-40794413D01*
X147723676Y-40834460D01*
X147709426Y-40863609D01*
X147699500Y-40931736D01*
X147699500Y-41898263D01*
X147709426Y-41966390D01*
X147709426Y-41966391D01*
X147709427Y-41966393D01*
X147720640Y-41989330D01*
X147723676Y-41995540D01*
X147735434Y-42064413D01*
X147723676Y-42104460D01*
X147709426Y-42133609D01*
X147699500Y-42201736D01*
X147699500Y-43168263D01*
X147709426Y-43236390D01*
X147723676Y-43265540D01*
X147735434Y-43334413D01*
X147723676Y-43374460D01*
X147709426Y-43403609D01*
X147699500Y-43471736D01*
X147699500Y-44438263D01*
X147709426Y-44506392D01*
X147723675Y-44535540D01*
X147735433Y-44604414D01*
X147723676Y-44644456D01*
X147709426Y-44673606D01*
X147699500Y-44741736D01*
X147699500Y-45708263D01*
X147709426Y-45776392D01*
X147723675Y-45805540D01*
X147735433Y-45874414D01*
X147723676Y-45914456D01*
X147709426Y-45943606D01*
X147699500Y-46011736D01*
X147699500Y-46978263D01*
X147709426Y-47046390D01*
X147709426Y-47046391D01*
X147709427Y-47046393D01*
X147723676Y-47075540D01*
X147735434Y-47144413D01*
X147723676Y-47184460D01*
X147709426Y-47213609D01*
X147699500Y-47281736D01*
X147699500Y-48248263D01*
X147709426Y-48316390D01*
X147709426Y-48316391D01*
X147709427Y-48316393D01*
X147721010Y-48340087D01*
X147760802Y-48421484D01*
X147843515Y-48504197D01*
X147843516Y-48504197D01*
X147843517Y-48504198D01*
X147948607Y-48555573D01*
X147975860Y-48559543D01*
X148016737Y-48565500D01*
X148016740Y-48565500D01*
X149583263Y-48565500D01*
X149651388Y-48555574D01*
X149651388Y-48555573D01*
X149651393Y-48555573D01*
X149660323Y-48551207D01*
X149729191Y-48539446D01*
X149793490Y-48566786D01*
X149802466Y-48574925D01*
X150708518Y-49480977D01*
X150742003Y-49542300D01*
X150737019Y-49611992D01*
X150733220Y-49621061D01*
X150726097Y-49636336D01*
X150664936Y-49864592D01*
X150661744Y-49901075D01*
X150636290Y-49966144D01*
X150579699Y-50007121D01*
X150509937Y-50010998D01*
X150449153Y-49976544D01*
X150444519Y-49971487D01*
X150414589Y-49936945D01*
X150411291Y-49934825D01*
X150390652Y-49918193D01*
X149581808Y-49109349D01*
X149565174Y-49088708D01*
X149563055Y-49085411D01*
X149527565Y-49054659D01*
X149521086Y-49048627D01*
X149512180Y-49039721D01*
X149502093Y-49032170D01*
X149495214Y-49026627D01*
X149459718Y-48995870D01*
X149459714Y-48995868D01*
X149456150Y-48994240D01*
X149433369Y-48980722D01*
X149430231Y-48978373D01*
X149430126Y-48978334D01*
X149386219Y-48961957D01*
X149378045Y-48958571D01*
X149335343Y-48939069D01*
X149334654Y-48938970D01*
X149331458Y-48938510D01*
X149305781Y-48931956D01*
X149302115Y-48930588D01*
X149255275Y-48927237D01*
X149246491Y-48926293D01*
X149234012Y-48924500D01*
X149234011Y-48924500D01*
X149221422Y-48924500D01*
X149212575Y-48924184D01*
X149165729Y-48920833D01*
X149165728Y-48920833D01*
X149161900Y-48921666D01*
X149135541Y-48924500D01*
X141819454Y-48924500D01*
X141793096Y-48921666D01*
X141789271Y-48920833D01*
X141742434Y-48924184D01*
X141733587Y-48924500D01*
X141720986Y-48924500D01*
X141708519Y-48926292D01*
X141699725Y-48927238D01*
X141652885Y-48930588D01*
X141650006Y-48931662D01*
X141649212Y-48931958D01*
X141623536Y-48938511D01*
X141619658Y-48939068D01*
X141576943Y-48958575D01*
X141568771Y-48961961D01*
X141524770Y-48978373D01*
X141521637Y-48980719D01*
X141498849Y-48994240D01*
X141495284Y-48995868D01*
X141495281Y-48995870D01*
X141495282Y-48995870D01*
X141459798Y-49026616D01*
X141459785Y-49026627D01*
X141452902Y-49032174D01*
X141442817Y-49039724D01*
X141433905Y-49048635D01*
X141427436Y-49054657D01*
X141391945Y-49085410D01*
X141389823Y-49088713D01*
X141373192Y-49109348D01*
X141064347Y-49418193D01*
X141043707Y-49434826D01*
X141040412Y-49436943D01*
X141009663Y-49472429D01*
X141003641Y-49478898D01*
X140994722Y-49487818D01*
X140987158Y-49497921D01*
X140981613Y-49504800D01*
X140950867Y-49540284D01*
X140949235Y-49543857D01*
X140935723Y-49566630D01*
X140933370Y-49569773D01*
X140916960Y-49613770D01*
X140913575Y-49621943D01*
X140906680Y-49637042D01*
X140860926Y-49689848D01*
X140811763Y-49708238D01*
X140803609Y-49709426D01*
X140803606Y-49709427D01*
X140803607Y-49709427D01*
X140774992Y-49723416D01*
X140774460Y-49723676D01*
X140705587Y-49735434D01*
X140665540Y-49723676D01*
X140665538Y-49723675D01*
X140636393Y-49709427D01*
X140636391Y-49709426D01*
X140636390Y-49709426D01*
X140568263Y-49699500D01*
X140568260Y-49699500D01*
X139601740Y-49699500D01*
X139601737Y-49699500D01*
X139533609Y-49709426D01*
X139533606Y-49709427D01*
X139533607Y-49709427D01*
X139504992Y-49723416D01*
X139504460Y-49723676D01*
X139435587Y-49735434D01*
X139395540Y-49723676D01*
X139395538Y-49723675D01*
X139366393Y-49709427D01*
X139366391Y-49709426D01*
X139366390Y-49709426D01*
X139298263Y-49699500D01*
X139298260Y-49699500D01*
X138331740Y-49699500D01*
X138331737Y-49699500D01*
X138263609Y-49709426D01*
X138263606Y-49709427D01*
X138263607Y-49709427D01*
X138234992Y-49723416D01*
X138234460Y-49723676D01*
X138165587Y-49735434D01*
X138125540Y-49723676D01*
X138125538Y-49723675D01*
X138096393Y-49709427D01*
X138096391Y-49709426D01*
X138096390Y-49709426D01*
X138088237Y-49708238D01*
X138024736Y-49679094D01*
X137993321Y-49637047D01*
X137986423Y-49621943D01*
X137983034Y-49613760D01*
X137966629Y-49569773D01*
X137964280Y-49566635D01*
X137950755Y-49543840D01*
X137950639Y-49543588D01*
X137949130Y-49540282D01*
X137918374Y-49504787D01*
X137912837Y-49497916D01*
X137905279Y-49487820D01*
X137905277Y-49487818D01*
X137905275Y-49487815D01*
X137896373Y-49478914D01*
X137890354Y-49472451D01*
X137859589Y-49436945D01*
X137856291Y-49434825D01*
X137835652Y-49418193D01*
X136626808Y-48209349D01*
X136610174Y-48188708D01*
X136608055Y-48185411D01*
X136572565Y-48154659D01*
X136566086Y-48148627D01*
X136557180Y-48139721D01*
X136547093Y-48132170D01*
X136540214Y-48126627D01*
X136504718Y-48095870D01*
X136504716Y-48095869D01*
X136501150Y-48094240D01*
X136478369Y-48080722D01*
X136475231Y-48078373D01*
X136431223Y-48061959D01*
X136423045Y-48058571D01*
X136380343Y-48039069D01*
X136379654Y-48038970D01*
X136376458Y-48038510D01*
X136350781Y-48031956D01*
X136347115Y-48030588D01*
X136300275Y-48027237D01*
X136291491Y-48026293D01*
X136279012Y-48024500D01*
X136279011Y-48024500D01*
X136266422Y-48024500D01*
X136257575Y-48024184D01*
X136210729Y-48020833D01*
X136210728Y-48020833D01*
X136206900Y-48021666D01*
X136180541Y-48024500D01*
X131364458Y-48024500D01*
X131338099Y-48021666D01*
X131334270Y-48020833D01*
X131287425Y-48024184D01*
X131278578Y-48024500D01*
X131265988Y-48024500D01*
X131253509Y-48026293D01*
X131244725Y-48027237D01*
X131197883Y-48030589D01*
X131194212Y-48031958D01*
X131168535Y-48038511D01*
X131164657Y-48039068D01*
X131121944Y-48058574D01*
X131113770Y-48061960D01*
X131087335Y-48071820D01*
X131017643Y-48076805D01*
X130956320Y-48043321D01*
X130922834Y-47981998D01*
X130920000Y-47955639D01*
X130920000Y-34626362D01*
X130939685Y-34559323D01*
X130945000Y-34552727D01*
X130945000Y-33174000D01*
X130964685Y-33106961D01*
X131017489Y-33061206D01*
X131069000Y-33050000D01*
X131321000Y-33050000D01*
X131388039Y-33069685D01*
G37*
%TD.AperFunction*%
%TD*%
M02*
