%TF.GenerationSoftware,KiCad,Pcbnew,7.0.2-1.fc38*%
%TF.CreationDate,2023-06-06T12:07:17+02:00*%
%TF.ProjectId,gps_compass,6770735f-636f-46d7-9061-73732e6b6963,rev?*%
%TF.SameCoordinates,Original*%
%TF.FileFunction,Legend,Bot*%
%TF.FilePolarity,Positive*%
%FSLAX46Y46*%
G04 Gerber Fmt 4.6, Leading zero omitted, Abs format (unit mm)*
G04 Created by KiCad (PCBNEW 7.0.2-1.fc38) date 2023-06-06 12:07:17*
%MOMM*%
%LPD*%
G01*
G04 APERTURE LIST*
%ADD10C,0.150000*%
%ADD11C,0.120000*%
G04 APERTURE END LIST*
D10*
X178101904Y-43147619D02*
X178101904Y-42147619D01*
X178101904Y-42147619D02*
X177863809Y-42147619D01*
X177863809Y-42147619D02*
X177720952Y-42195238D01*
X177720952Y-42195238D02*
X177625714Y-42290476D01*
X177625714Y-42290476D02*
X177578095Y-42385714D01*
X177578095Y-42385714D02*
X177530476Y-42576190D01*
X177530476Y-42576190D02*
X177530476Y-42719047D01*
X177530476Y-42719047D02*
X177578095Y-42909523D01*
X177578095Y-42909523D02*
X177625714Y-43004761D01*
X177625714Y-43004761D02*
X177720952Y-43100000D01*
X177720952Y-43100000D02*
X177863809Y-43147619D01*
X177863809Y-43147619D02*
X178101904Y-43147619D01*
X176673333Y-43147619D02*
X176673333Y-42623809D01*
X176673333Y-42623809D02*
X176720952Y-42528571D01*
X176720952Y-42528571D02*
X176816190Y-42480952D01*
X176816190Y-42480952D02*
X177006666Y-42480952D01*
X177006666Y-42480952D02*
X177101904Y-42528571D01*
X176673333Y-43100000D02*
X176768571Y-43147619D01*
X176768571Y-43147619D02*
X177006666Y-43147619D01*
X177006666Y-43147619D02*
X177101904Y-43100000D01*
X177101904Y-43100000D02*
X177149523Y-43004761D01*
X177149523Y-43004761D02*
X177149523Y-42909523D01*
X177149523Y-42909523D02*
X177101904Y-42814285D01*
X177101904Y-42814285D02*
X177006666Y-42766666D01*
X177006666Y-42766666D02*
X176768571Y-42766666D01*
X176768571Y-42766666D02*
X176673333Y-42719047D01*
X175768571Y-43147619D02*
X175768571Y-42147619D01*
X175768571Y-43100000D02*
X175863809Y-43147619D01*
X175863809Y-43147619D02*
X176054285Y-43147619D01*
X176054285Y-43147619D02*
X176149523Y-43100000D01*
X176149523Y-43100000D02*
X176197142Y-43052380D01*
X176197142Y-43052380D02*
X176244761Y-42957142D01*
X176244761Y-42957142D02*
X176244761Y-42671428D01*
X176244761Y-42671428D02*
X176197142Y-42576190D01*
X176197142Y-42576190D02*
X176149523Y-42528571D01*
X176149523Y-42528571D02*
X176054285Y-42480952D01*
X176054285Y-42480952D02*
X175863809Y-42480952D01*
X175863809Y-42480952D02*
X175768571Y-42528571D01*
X174911428Y-43100000D02*
X175006666Y-43147619D01*
X175006666Y-43147619D02*
X175197142Y-43147619D01*
X175197142Y-43147619D02*
X175292380Y-43100000D01*
X175292380Y-43100000D02*
X175339999Y-43004761D01*
X175339999Y-43004761D02*
X175339999Y-42623809D01*
X175339999Y-42623809D02*
X175292380Y-42528571D01*
X175292380Y-42528571D02*
X175197142Y-42480952D01*
X175197142Y-42480952D02*
X175006666Y-42480952D01*
X175006666Y-42480952D02*
X174911428Y-42528571D01*
X174911428Y-42528571D02*
X174863809Y-42623809D01*
X174863809Y-42623809D02*
X174863809Y-42719047D01*
X174863809Y-42719047D02*
X175339999Y-42814285D01*
X174530475Y-42147619D02*
X173911428Y-42147619D01*
X173911428Y-42147619D02*
X174244761Y-42528571D01*
X174244761Y-42528571D02*
X174101904Y-42528571D01*
X174101904Y-42528571D02*
X174006666Y-42576190D01*
X174006666Y-42576190D02*
X173959047Y-42623809D01*
X173959047Y-42623809D02*
X173911428Y-42719047D01*
X173911428Y-42719047D02*
X173911428Y-42957142D01*
X173911428Y-42957142D02*
X173959047Y-43052380D01*
X173959047Y-43052380D02*
X174006666Y-43100000D01*
X174006666Y-43100000D02*
X174101904Y-43147619D01*
X174101904Y-43147619D02*
X174387618Y-43147619D01*
X174387618Y-43147619D02*
X174482856Y-43100000D01*
X174482856Y-43100000D02*
X174530475Y-43052380D01*
X173101904Y-43100000D02*
X173197142Y-43147619D01*
X173197142Y-43147619D02*
X173387618Y-43147619D01*
X173387618Y-43147619D02*
X173482856Y-43100000D01*
X173482856Y-43100000D02*
X173530475Y-43004761D01*
X173530475Y-43004761D02*
X173530475Y-42623809D01*
X173530475Y-42623809D02*
X173482856Y-42528571D01*
X173482856Y-42528571D02*
X173387618Y-42480952D01*
X173387618Y-42480952D02*
X173197142Y-42480952D01*
X173197142Y-42480952D02*
X173101904Y-42528571D01*
X173101904Y-42528571D02*
X173054285Y-42623809D01*
X173054285Y-42623809D02*
X173054285Y-42719047D01*
X173054285Y-42719047D02*
X173530475Y-42814285D01*
X171911427Y-42242857D02*
X171863808Y-42195238D01*
X171863808Y-42195238D02*
X171768570Y-42147619D01*
X171768570Y-42147619D02*
X171530475Y-42147619D01*
X171530475Y-42147619D02*
X171435237Y-42195238D01*
X171435237Y-42195238D02*
X171387618Y-42242857D01*
X171387618Y-42242857D02*
X171339999Y-42338095D01*
X171339999Y-42338095D02*
X171339999Y-42433333D01*
X171339999Y-42433333D02*
X171387618Y-42576190D01*
X171387618Y-42576190D02*
X171959046Y-43147619D01*
X171959046Y-43147619D02*
X171339999Y-43147619D01*
X170720951Y-42147619D02*
X170625713Y-42147619D01*
X170625713Y-42147619D02*
X170530475Y-42195238D01*
X170530475Y-42195238D02*
X170482856Y-42242857D01*
X170482856Y-42242857D02*
X170435237Y-42338095D01*
X170435237Y-42338095D02*
X170387618Y-42528571D01*
X170387618Y-42528571D02*
X170387618Y-42766666D01*
X170387618Y-42766666D02*
X170435237Y-42957142D01*
X170435237Y-42957142D02*
X170482856Y-43052380D01*
X170482856Y-43052380D02*
X170530475Y-43100000D01*
X170530475Y-43100000D02*
X170625713Y-43147619D01*
X170625713Y-43147619D02*
X170720951Y-43147619D01*
X170720951Y-43147619D02*
X170816189Y-43100000D01*
X170816189Y-43100000D02*
X170863808Y-43052380D01*
X170863808Y-43052380D02*
X170911427Y-42957142D01*
X170911427Y-42957142D02*
X170959046Y-42766666D01*
X170959046Y-42766666D02*
X170959046Y-42528571D01*
X170959046Y-42528571D02*
X170911427Y-42338095D01*
X170911427Y-42338095D02*
X170863808Y-42242857D01*
X170863808Y-42242857D02*
X170816189Y-42195238D01*
X170816189Y-42195238D02*
X170720951Y-42147619D01*
X170006665Y-42242857D02*
X169959046Y-42195238D01*
X169959046Y-42195238D02*
X169863808Y-42147619D01*
X169863808Y-42147619D02*
X169625713Y-42147619D01*
X169625713Y-42147619D02*
X169530475Y-42195238D01*
X169530475Y-42195238D02*
X169482856Y-42242857D01*
X169482856Y-42242857D02*
X169435237Y-42338095D01*
X169435237Y-42338095D02*
X169435237Y-42433333D01*
X169435237Y-42433333D02*
X169482856Y-42576190D01*
X169482856Y-42576190D02*
X170054284Y-43147619D01*
X170054284Y-43147619D02*
X169435237Y-43147619D01*
X169101903Y-42147619D02*
X168482856Y-42147619D01*
X168482856Y-42147619D02*
X168816189Y-42528571D01*
X168816189Y-42528571D02*
X168673332Y-42528571D01*
X168673332Y-42528571D02*
X168578094Y-42576190D01*
X168578094Y-42576190D02*
X168530475Y-42623809D01*
X168530475Y-42623809D02*
X168482856Y-42719047D01*
X168482856Y-42719047D02*
X168482856Y-42957142D01*
X168482856Y-42957142D02*
X168530475Y-43052380D01*
X168530475Y-43052380D02*
X168578094Y-43100000D01*
X168578094Y-43100000D02*
X168673332Y-43147619D01*
X168673332Y-43147619D02*
X168959046Y-43147619D01*
X168959046Y-43147619D02*
X169054284Y-43100000D01*
X169054284Y-43100000D02*
X169101903Y-43052380D01*
X178101904Y-44283809D02*
X177768571Y-44283809D01*
X177625714Y-44807619D02*
X178101904Y-44807619D01*
X178101904Y-44807619D02*
X178101904Y-43807619D01*
X178101904Y-43807619D02*
X177625714Y-43807619D01*
X177244761Y-44760000D02*
X177149523Y-44807619D01*
X177149523Y-44807619D02*
X176959047Y-44807619D01*
X176959047Y-44807619D02*
X176863809Y-44760000D01*
X176863809Y-44760000D02*
X176816190Y-44664761D01*
X176816190Y-44664761D02*
X176816190Y-44617142D01*
X176816190Y-44617142D02*
X176863809Y-44521904D01*
X176863809Y-44521904D02*
X176959047Y-44474285D01*
X176959047Y-44474285D02*
X177101904Y-44474285D01*
X177101904Y-44474285D02*
X177197142Y-44426666D01*
X177197142Y-44426666D02*
X177244761Y-44331428D01*
X177244761Y-44331428D02*
X177244761Y-44283809D01*
X177244761Y-44283809D02*
X177197142Y-44188571D01*
X177197142Y-44188571D02*
X177101904Y-44140952D01*
X177101904Y-44140952D02*
X176959047Y-44140952D01*
X176959047Y-44140952D02*
X176863809Y-44188571D01*
X176387618Y-44140952D02*
X176387618Y-45140952D01*
X176387618Y-44188571D02*
X176292380Y-44140952D01*
X176292380Y-44140952D02*
X176101904Y-44140952D01*
X176101904Y-44140952D02*
X176006666Y-44188571D01*
X176006666Y-44188571D02*
X175959047Y-44236190D01*
X175959047Y-44236190D02*
X175911428Y-44331428D01*
X175911428Y-44331428D02*
X175911428Y-44617142D01*
X175911428Y-44617142D02*
X175959047Y-44712380D01*
X175959047Y-44712380D02*
X176006666Y-44760000D01*
X176006666Y-44760000D02*
X176101904Y-44807619D01*
X176101904Y-44807619D02*
X176292380Y-44807619D01*
X176292380Y-44807619D02*
X176387618Y-44760000D01*
X175578094Y-43807619D02*
X174959047Y-43807619D01*
X174959047Y-43807619D02*
X175292380Y-44188571D01*
X175292380Y-44188571D02*
X175149523Y-44188571D01*
X175149523Y-44188571D02*
X175054285Y-44236190D01*
X175054285Y-44236190D02*
X175006666Y-44283809D01*
X175006666Y-44283809D02*
X174959047Y-44379047D01*
X174959047Y-44379047D02*
X174959047Y-44617142D01*
X174959047Y-44617142D02*
X175006666Y-44712380D01*
X175006666Y-44712380D02*
X175054285Y-44760000D01*
X175054285Y-44760000D02*
X175149523Y-44807619D01*
X175149523Y-44807619D02*
X175435237Y-44807619D01*
X175435237Y-44807619D02*
X175530475Y-44760000D01*
X175530475Y-44760000D02*
X175578094Y-44712380D01*
X174578094Y-43902857D02*
X174530475Y-43855238D01*
X174530475Y-43855238D02*
X174435237Y-43807619D01*
X174435237Y-43807619D02*
X174197142Y-43807619D01*
X174197142Y-43807619D02*
X174101904Y-43855238D01*
X174101904Y-43855238D02*
X174054285Y-43902857D01*
X174054285Y-43902857D02*
X174006666Y-43998095D01*
X174006666Y-43998095D02*
X174006666Y-44093333D01*
X174006666Y-44093333D02*
X174054285Y-44236190D01*
X174054285Y-44236190D02*
X174625713Y-44807619D01*
X174625713Y-44807619D02*
X174006666Y-44807619D01*
X172292380Y-43855238D02*
X172387618Y-43807619D01*
X172387618Y-43807619D02*
X172530475Y-43807619D01*
X172530475Y-43807619D02*
X172673332Y-43855238D01*
X172673332Y-43855238D02*
X172768570Y-43950476D01*
X172768570Y-43950476D02*
X172816189Y-44045714D01*
X172816189Y-44045714D02*
X172863808Y-44236190D01*
X172863808Y-44236190D02*
X172863808Y-44379047D01*
X172863808Y-44379047D02*
X172816189Y-44569523D01*
X172816189Y-44569523D02*
X172768570Y-44664761D01*
X172768570Y-44664761D02*
X172673332Y-44760000D01*
X172673332Y-44760000D02*
X172530475Y-44807619D01*
X172530475Y-44807619D02*
X172435237Y-44807619D01*
X172435237Y-44807619D02*
X172292380Y-44760000D01*
X172292380Y-44760000D02*
X172244761Y-44712380D01*
X172244761Y-44712380D02*
X172244761Y-44379047D01*
X172244761Y-44379047D02*
X172435237Y-44379047D01*
X171816189Y-44140952D02*
X171816189Y-45140952D01*
X171816189Y-44188571D02*
X171720951Y-44140952D01*
X171720951Y-44140952D02*
X171530475Y-44140952D01*
X171530475Y-44140952D02*
X171435237Y-44188571D01*
X171435237Y-44188571D02*
X171387618Y-44236190D01*
X171387618Y-44236190D02*
X171339999Y-44331428D01*
X171339999Y-44331428D02*
X171339999Y-44617142D01*
X171339999Y-44617142D02*
X171387618Y-44712380D01*
X171387618Y-44712380D02*
X171435237Y-44760000D01*
X171435237Y-44760000D02*
X171530475Y-44807619D01*
X171530475Y-44807619D02*
X171720951Y-44807619D01*
X171720951Y-44807619D02*
X171816189Y-44760000D01*
X170959046Y-44760000D02*
X170863808Y-44807619D01*
X170863808Y-44807619D02*
X170673332Y-44807619D01*
X170673332Y-44807619D02*
X170578094Y-44760000D01*
X170578094Y-44760000D02*
X170530475Y-44664761D01*
X170530475Y-44664761D02*
X170530475Y-44617142D01*
X170530475Y-44617142D02*
X170578094Y-44521904D01*
X170578094Y-44521904D02*
X170673332Y-44474285D01*
X170673332Y-44474285D02*
X170816189Y-44474285D01*
X170816189Y-44474285D02*
X170911427Y-44426666D01*
X170911427Y-44426666D02*
X170959046Y-44331428D01*
X170959046Y-44331428D02*
X170959046Y-44283809D01*
X170959046Y-44283809D02*
X170911427Y-44188571D01*
X170911427Y-44188571D02*
X170816189Y-44140952D01*
X170816189Y-44140952D02*
X170673332Y-44140952D01*
X170673332Y-44140952D02*
X170578094Y-44188571D01*
X169530475Y-44712380D02*
X169578094Y-44760000D01*
X169578094Y-44760000D02*
X169720951Y-44807619D01*
X169720951Y-44807619D02*
X169816189Y-44807619D01*
X169816189Y-44807619D02*
X169959046Y-44760000D01*
X169959046Y-44760000D02*
X170054284Y-44664761D01*
X170054284Y-44664761D02*
X170101903Y-44569523D01*
X170101903Y-44569523D02*
X170149522Y-44379047D01*
X170149522Y-44379047D02*
X170149522Y-44236190D01*
X170149522Y-44236190D02*
X170101903Y-44045714D01*
X170101903Y-44045714D02*
X170054284Y-43950476D01*
X170054284Y-43950476D02*
X169959046Y-43855238D01*
X169959046Y-43855238D02*
X169816189Y-43807619D01*
X169816189Y-43807619D02*
X169720951Y-43807619D01*
X169720951Y-43807619D02*
X169578094Y-43855238D01*
X169578094Y-43855238D02*
X169530475Y-43902857D01*
X168959046Y-44807619D02*
X169054284Y-44760000D01*
X169054284Y-44760000D02*
X169101903Y-44712380D01*
X169101903Y-44712380D02*
X169149522Y-44617142D01*
X169149522Y-44617142D02*
X169149522Y-44331428D01*
X169149522Y-44331428D02*
X169101903Y-44236190D01*
X169101903Y-44236190D02*
X169054284Y-44188571D01*
X169054284Y-44188571D02*
X168959046Y-44140952D01*
X168959046Y-44140952D02*
X168816189Y-44140952D01*
X168816189Y-44140952D02*
X168720951Y-44188571D01*
X168720951Y-44188571D02*
X168673332Y-44236190D01*
X168673332Y-44236190D02*
X168625713Y-44331428D01*
X168625713Y-44331428D02*
X168625713Y-44617142D01*
X168625713Y-44617142D02*
X168673332Y-44712380D01*
X168673332Y-44712380D02*
X168720951Y-44760000D01*
X168720951Y-44760000D02*
X168816189Y-44807619D01*
X168816189Y-44807619D02*
X168959046Y-44807619D01*
X168197141Y-44807619D02*
X168197141Y-44140952D01*
X168197141Y-44236190D02*
X168149522Y-44188571D01*
X168149522Y-44188571D02*
X168054284Y-44140952D01*
X168054284Y-44140952D02*
X167911427Y-44140952D01*
X167911427Y-44140952D02*
X167816189Y-44188571D01*
X167816189Y-44188571D02*
X167768570Y-44283809D01*
X167768570Y-44283809D02*
X167768570Y-44807619D01*
X167768570Y-44283809D02*
X167720951Y-44188571D01*
X167720951Y-44188571D02*
X167625713Y-44140952D01*
X167625713Y-44140952D02*
X167482856Y-44140952D01*
X167482856Y-44140952D02*
X167387617Y-44188571D01*
X167387617Y-44188571D02*
X167339998Y-44283809D01*
X167339998Y-44283809D02*
X167339998Y-44807619D01*
X166863808Y-44140952D02*
X166863808Y-45140952D01*
X166863808Y-44188571D02*
X166768570Y-44140952D01*
X166768570Y-44140952D02*
X166578094Y-44140952D01*
X166578094Y-44140952D02*
X166482856Y-44188571D01*
X166482856Y-44188571D02*
X166435237Y-44236190D01*
X166435237Y-44236190D02*
X166387618Y-44331428D01*
X166387618Y-44331428D02*
X166387618Y-44617142D01*
X166387618Y-44617142D02*
X166435237Y-44712380D01*
X166435237Y-44712380D02*
X166482856Y-44760000D01*
X166482856Y-44760000D02*
X166578094Y-44807619D01*
X166578094Y-44807619D02*
X166768570Y-44807619D01*
X166768570Y-44807619D02*
X166863808Y-44760000D01*
X165530475Y-44807619D02*
X165530475Y-44283809D01*
X165530475Y-44283809D02*
X165578094Y-44188571D01*
X165578094Y-44188571D02*
X165673332Y-44140952D01*
X165673332Y-44140952D02*
X165863808Y-44140952D01*
X165863808Y-44140952D02*
X165959046Y-44188571D01*
X165530475Y-44760000D02*
X165625713Y-44807619D01*
X165625713Y-44807619D02*
X165863808Y-44807619D01*
X165863808Y-44807619D02*
X165959046Y-44760000D01*
X165959046Y-44760000D02*
X166006665Y-44664761D01*
X166006665Y-44664761D02*
X166006665Y-44569523D01*
X166006665Y-44569523D02*
X165959046Y-44474285D01*
X165959046Y-44474285D02*
X165863808Y-44426666D01*
X165863808Y-44426666D02*
X165625713Y-44426666D01*
X165625713Y-44426666D02*
X165530475Y-44379047D01*
X165101903Y-44760000D02*
X165006665Y-44807619D01*
X165006665Y-44807619D02*
X164816189Y-44807619D01*
X164816189Y-44807619D02*
X164720951Y-44760000D01*
X164720951Y-44760000D02*
X164673332Y-44664761D01*
X164673332Y-44664761D02*
X164673332Y-44617142D01*
X164673332Y-44617142D02*
X164720951Y-44521904D01*
X164720951Y-44521904D02*
X164816189Y-44474285D01*
X164816189Y-44474285D02*
X164959046Y-44474285D01*
X164959046Y-44474285D02*
X165054284Y-44426666D01*
X165054284Y-44426666D02*
X165101903Y-44331428D01*
X165101903Y-44331428D02*
X165101903Y-44283809D01*
X165101903Y-44283809D02*
X165054284Y-44188571D01*
X165054284Y-44188571D02*
X164959046Y-44140952D01*
X164959046Y-44140952D02*
X164816189Y-44140952D01*
X164816189Y-44140952D02*
X164720951Y-44188571D01*
X164292379Y-44760000D02*
X164197141Y-44807619D01*
X164197141Y-44807619D02*
X164006665Y-44807619D01*
X164006665Y-44807619D02*
X163911427Y-44760000D01*
X163911427Y-44760000D02*
X163863808Y-44664761D01*
X163863808Y-44664761D02*
X163863808Y-44617142D01*
X163863808Y-44617142D02*
X163911427Y-44521904D01*
X163911427Y-44521904D02*
X164006665Y-44474285D01*
X164006665Y-44474285D02*
X164149522Y-44474285D01*
X164149522Y-44474285D02*
X164244760Y-44426666D01*
X164244760Y-44426666D02*
X164292379Y-44331428D01*
X164292379Y-44331428D02*
X164292379Y-44283809D01*
X164292379Y-44283809D02*
X164244760Y-44188571D01*
X164244760Y-44188571D02*
X164149522Y-44140952D01*
X164149522Y-44140952D02*
X164006665Y-44140952D01*
X164006665Y-44140952D02*
X163911427Y-44188571D01*
X157490476Y-36177619D02*
X157823809Y-35701428D01*
X158061904Y-36177619D02*
X158061904Y-35177619D01*
X158061904Y-35177619D02*
X157680952Y-35177619D01*
X157680952Y-35177619D02*
X157585714Y-35225238D01*
X157585714Y-35225238D02*
X157538095Y-35272857D01*
X157538095Y-35272857D02*
X157490476Y-35368095D01*
X157490476Y-35368095D02*
X157490476Y-35510952D01*
X157490476Y-35510952D02*
X157538095Y-35606190D01*
X157538095Y-35606190D02*
X157585714Y-35653809D01*
X157585714Y-35653809D02*
X157680952Y-35701428D01*
X157680952Y-35701428D02*
X158061904Y-35701428D01*
X157157142Y-35177619D02*
X156490476Y-36177619D01*
X156490476Y-35177619D02*
X157157142Y-36177619D01*
X161004761Y-35177619D02*
X160433333Y-35177619D01*
X160719047Y-36177619D02*
X160719047Y-35177619D01*
X160195237Y-35177619D02*
X159528571Y-36177619D01*
X159528571Y-35177619D02*
X160195237Y-36177619D01*
X155238095Y-35225238D02*
X155333333Y-35177619D01*
X155333333Y-35177619D02*
X155476190Y-35177619D01*
X155476190Y-35177619D02*
X155619047Y-35225238D01*
X155619047Y-35225238D02*
X155714285Y-35320476D01*
X155714285Y-35320476D02*
X155761904Y-35415714D01*
X155761904Y-35415714D02*
X155809523Y-35606190D01*
X155809523Y-35606190D02*
X155809523Y-35749047D01*
X155809523Y-35749047D02*
X155761904Y-35939523D01*
X155761904Y-35939523D02*
X155714285Y-36034761D01*
X155714285Y-36034761D02*
X155619047Y-36130000D01*
X155619047Y-36130000D02*
X155476190Y-36177619D01*
X155476190Y-36177619D02*
X155380952Y-36177619D01*
X155380952Y-36177619D02*
X155238095Y-36130000D01*
X155238095Y-36130000D02*
X155190476Y-36082380D01*
X155190476Y-36082380D02*
X155190476Y-35749047D01*
X155190476Y-35749047D02*
X155380952Y-35749047D01*
X154761904Y-36177619D02*
X154761904Y-35177619D01*
X154761904Y-35177619D02*
X154190476Y-36177619D01*
X154190476Y-36177619D02*
X154190476Y-35177619D01*
X153714285Y-36177619D02*
X153714285Y-35177619D01*
X153714285Y-35177619D02*
X153476190Y-35177619D01*
X153476190Y-35177619D02*
X153333333Y-35225238D01*
X153333333Y-35225238D02*
X153238095Y-35320476D01*
X153238095Y-35320476D02*
X153190476Y-35415714D01*
X153190476Y-35415714D02*
X153142857Y-35606190D01*
X153142857Y-35606190D02*
X153142857Y-35749047D01*
X153142857Y-35749047D02*
X153190476Y-35939523D01*
X153190476Y-35939523D02*
X153238095Y-36034761D01*
X153238095Y-36034761D02*
X153333333Y-36130000D01*
X153333333Y-36130000D02*
X153476190Y-36177619D01*
X153476190Y-36177619D02*
X153714285Y-36177619D01*
%TO.C,LED*%
X111262619Y-42157142D02*
X111262619Y-41680952D01*
X111262619Y-41680952D02*
X110262619Y-41680952D01*
X110738809Y-42490476D02*
X110738809Y-42823809D01*
X111262619Y-42966666D02*
X111262619Y-42490476D01*
X111262619Y-42490476D02*
X110262619Y-42490476D01*
X110262619Y-42490476D02*
X110262619Y-42966666D01*
X111262619Y-43395238D02*
X110262619Y-43395238D01*
X110262619Y-43395238D02*
X110262619Y-43633333D01*
X110262619Y-43633333D02*
X110310238Y-43776190D01*
X110310238Y-43776190D02*
X110405476Y-43871428D01*
X110405476Y-43871428D02*
X110500714Y-43919047D01*
X110500714Y-43919047D02*
X110691190Y-43966666D01*
X110691190Y-43966666D02*
X110834047Y-43966666D01*
X110834047Y-43966666D02*
X111024523Y-43919047D01*
X111024523Y-43919047D02*
X111119761Y-43871428D01*
X111119761Y-43871428D02*
X111215000Y-43776190D01*
X111215000Y-43776190D02*
X111262619Y-43633333D01*
X111262619Y-43633333D02*
X111262619Y-43395238D01*
%TO.C,Q1*%
X128657738Y-71957857D02*
X128752976Y-71910238D01*
X128752976Y-71910238D02*
X128848214Y-71815000D01*
X128848214Y-71815000D02*
X128991071Y-71672142D01*
X128991071Y-71672142D02*
X129086309Y-71624523D01*
X129086309Y-71624523D02*
X129181547Y-71624523D01*
X129133928Y-71862619D02*
X129229166Y-71815000D01*
X129229166Y-71815000D02*
X129324404Y-71719761D01*
X129324404Y-71719761D02*
X129372023Y-71529285D01*
X129372023Y-71529285D02*
X129372023Y-71195952D01*
X129372023Y-71195952D02*
X129324404Y-71005476D01*
X129324404Y-71005476D02*
X129229166Y-70910238D01*
X129229166Y-70910238D02*
X129133928Y-70862619D01*
X129133928Y-70862619D02*
X128943452Y-70862619D01*
X128943452Y-70862619D02*
X128848214Y-70910238D01*
X128848214Y-70910238D02*
X128752976Y-71005476D01*
X128752976Y-71005476D02*
X128705357Y-71195952D01*
X128705357Y-71195952D02*
X128705357Y-71529285D01*
X128705357Y-71529285D02*
X128752976Y-71719761D01*
X128752976Y-71719761D02*
X128848214Y-71815000D01*
X128848214Y-71815000D02*
X128943452Y-71862619D01*
X128943452Y-71862619D02*
X129133928Y-71862619D01*
X127752976Y-71862619D02*
X128324404Y-71862619D01*
X128038690Y-71862619D02*
X128038690Y-70862619D01*
X128038690Y-70862619D02*
X128133928Y-71005476D01*
X128133928Y-71005476D02*
X128229166Y-71100714D01*
X128229166Y-71100714D02*
X128324404Y-71148333D01*
%TO.C,R6*%
X127266666Y-58562619D02*
X127599999Y-58086428D01*
X127838094Y-58562619D02*
X127838094Y-57562619D01*
X127838094Y-57562619D02*
X127457142Y-57562619D01*
X127457142Y-57562619D02*
X127361904Y-57610238D01*
X127361904Y-57610238D02*
X127314285Y-57657857D01*
X127314285Y-57657857D02*
X127266666Y-57753095D01*
X127266666Y-57753095D02*
X127266666Y-57895952D01*
X127266666Y-57895952D02*
X127314285Y-57991190D01*
X127314285Y-57991190D02*
X127361904Y-58038809D01*
X127361904Y-58038809D02*
X127457142Y-58086428D01*
X127457142Y-58086428D02*
X127838094Y-58086428D01*
X126409523Y-57562619D02*
X126599999Y-57562619D01*
X126599999Y-57562619D02*
X126695237Y-57610238D01*
X126695237Y-57610238D02*
X126742856Y-57657857D01*
X126742856Y-57657857D02*
X126838094Y-57800714D01*
X126838094Y-57800714D02*
X126885713Y-57991190D01*
X126885713Y-57991190D02*
X126885713Y-58372142D01*
X126885713Y-58372142D02*
X126838094Y-58467380D01*
X126838094Y-58467380D02*
X126790475Y-58515000D01*
X126790475Y-58515000D02*
X126695237Y-58562619D01*
X126695237Y-58562619D02*
X126504761Y-58562619D01*
X126504761Y-58562619D02*
X126409523Y-58515000D01*
X126409523Y-58515000D02*
X126361904Y-58467380D01*
X126361904Y-58467380D02*
X126314285Y-58372142D01*
X126314285Y-58372142D02*
X126314285Y-58134047D01*
X126314285Y-58134047D02*
X126361904Y-58038809D01*
X126361904Y-58038809D02*
X126409523Y-57991190D01*
X126409523Y-57991190D02*
X126504761Y-57943571D01*
X126504761Y-57943571D02*
X126695237Y-57943571D01*
X126695237Y-57943571D02*
X126790475Y-57991190D01*
X126790475Y-57991190D02*
X126838094Y-58038809D01*
X126838094Y-58038809D02*
X126885713Y-58134047D01*
%TO.C,R1*%
X145662619Y-57233333D02*
X145186428Y-56900000D01*
X145662619Y-56661905D02*
X144662619Y-56661905D01*
X144662619Y-56661905D02*
X144662619Y-57042857D01*
X144662619Y-57042857D02*
X144710238Y-57138095D01*
X144710238Y-57138095D02*
X144757857Y-57185714D01*
X144757857Y-57185714D02*
X144853095Y-57233333D01*
X144853095Y-57233333D02*
X144995952Y-57233333D01*
X144995952Y-57233333D02*
X145091190Y-57185714D01*
X145091190Y-57185714D02*
X145138809Y-57138095D01*
X145138809Y-57138095D02*
X145186428Y-57042857D01*
X145186428Y-57042857D02*
X145186428Y-56661905D01*
X145662619Y-58185714D02*
X145662619Y-57614286D01*
X145662619Y-57900000D02*
X144662619Y-57900000D01*
X144662619Y-57900000D02*
X144805476Y-57804762D01*
X144805476Y-57804762D02*
X144900714Y-57709524D01*
X144900714Y-57709524D02*
X144948333Y-57614286D01*
%TO.C,R2*%
X147462619Y-57233333D02*
X146986428Y-56900000D01*
X147462619Y-56661905D02*
X146462619Y-56661905D01*
X146462619Y-56661905D02*
X146462619Y-57042857D01*
X146462619Y-57042857D02*
X146510238Y-57138095D01*
X146510238Y-57138095D02*
X146557857Y-57185714D01*
X146557857Y-57185714D02*
X146653095Y-57233333D01*
X146653095Y-57233333D02*
X146795952Y-57233333D01*
X146795952Y-57233333D02*
X146891190Y-57185714D01*
X146891190Y-57185714D02*
X146938809Y-57138095D01*
X146938809Y-57138095D02*
X146986428Y-57042857D01*
X146986428Y-57042857D02*
X146986428Y-56661905D01*
X146557857Y-57614286D02*
X146510238Y-57661905D01*
X146510238Y-57661905D02*
X146462619Y-57757143D01*
X146462619Y-57757143D02*
X146462619Y-57995238D01*
X146462619Y-57995238D02*
X146510238Y-58090476D01*
X146510238Y-58090476D02*
X146557857Y-58138095D01*
X146557857Y-58138095D02*
X146653095Y-58185714D01*
X146653095Y-58185714D02*
X146748333Y-58185714D01*
X146748333Y-58185714D02*
X146891190Y-58138095D01*
X146891190Y-58138095D02*
X147462619Y-57566667D01*
X147462619Y-57566667D02*
X147462619Y-58185714D01*
%TO.C,C5*%
X121529166Y-61967380D02*
X121576785Y-62015000D01*
X121576785Y-62015000D02*
X121719642Y-62062619D01*
X121719642Y-62062619D02*
X121814880Y-62062619D01*
X121814880Y-62062619D02*
X121957737Y-62015000D01*
X121957737Y-62015000D02*
X122052975Y-61919761D01*
X122052975Y-61919761D02*
X122100594Y-61824523D01*
X122100594Y-61824523D02*
X122148213Y-61634047D01*
X122148213Y-61634047D02*
X122148213Y-61491190D01*
X122148213Y-61491190D02*
X122100594Y-61300714D01*
X122100594Y-61300714D02*
X122052975Y-61205476D01*
X122052975Y-61205476D02*
X121957737Y-61110238D01*
X121957737Y-61110238D02*
X121814880Y-61062619D01*
X121814880Y-61062619D02*
X121719642Y-61062619D01*
X121719642Y-61062619D02*
X121576785Y-61110238D01*
X121576785Y-61110238D02*
X121529166Y-61157857D01*
X120624404Y-61062619D02*
X121100594Y-61062619D01*
X121100594Y-61062619D02*
X121148213Y-61538809D01*
X121148213Y-61538809D02*
X121100594Y-61491190D01*
X121100594Y-61491190D02*
X121005356Y-61443571D01*
X121005356Y-61443571D02*
X120767261Y-61443571D01*
X120767261Y-61443571D02*
X120672023Y-61491190D01*
X120672023Y-61491190D02*
X120624404Y-61538809D01*
X120624404Y-61538809D02*
X120576785Y-61634047D01*
X120576785Y-61634047D02*
X120576785Y-61872142D01*
X120576785Y-61872142D02*
X120624404Y-61967380D01*
X120624404Y-61967380D02*
X120672023Y-62015000D01*
X120672023Y-62015000D02*
X120767261Y-62062619D01*
X120767261Y-62062619D02*
X121005356Y-62062619D01*
X121005356Y-62062619D02*
X121100594Y-62015000D01*
X121100594Y-62015000D02*
X121148213Y-61967380D01*
%TO.C,R3*%
X121829166Y-64162619D02*
X122162499Y-63686428D01*
X122400594Y-64162619D02*
X122400594Y-63162619D01*
X122400594Y-63162619D02*
X122019642Y-63162619D01*
X122019642Y-63162619D02*
X121924404Y-63210238D01*
X121924404Y-63210238D02*
X121876785Y-63257857D01*
X121876785Y-63257857D02*
X121829166Y-63353095D01*
X121829166Y-63353095D02*
X121829166Y-63495952D01*
X121829166Y-63495952D02*
X121876785Y-63591190D01*
X121876785Y-63591190D02*
X121924404Y-63638809D01*
X121924404Y-63638809D02*
X122019642Y-63686428D01*
X122019642Y-63686428D02*
X122400594Y-63686428D01*
X121495832Y-63162619D02*
X120876785Y-63162619D01*
X120876785Y-63162619D02*
X121210118Y-63543571D01*
X121210118Y-63543571D02*
X121067261Y-63543571D01*
X121067261Y-63543571D02*
X120972023Y-63591190D01*
X120972023Y-63591190D02*
X120924404Y-63638809D01*
X120924404Y-63638809D02*
X120876785Y-63734047D01*
X120876785Y-63734047D02*
X120876785Y-63972142D01*
X120876785Y-63972142D02*
X120924404Y-64067380D01*
X120924404Y-64067380D02*
X120972023Y-64115000D01*
X120972023Y-64115000D02*
X121067261Y-64162619D01*
X121067261Y-64162619D02*
X121352975Y-64162619D01*
X121352975Y-64162619D02*
X121448213Y-64115000D01*
X121448213Y-64115000D02*
X121495832Y-64067380D01*
%TO.C,U3*%
X124024404Y-70912619D02*
X124024404Y-71722142D01*
X124024404Y-71722142D02*
X123976785Y-71817380D01*
X123976785Y-71817380D02*
X123929166Y-71865000D01*
X123929166Y-71865000D02*
X123833928Y-71912619D01*
X123833928Y-71912619D02*
X123643452Y-71912619D01*
X123643452Y-71912619D02*
X123548214Y-71865000D01*
X123548214Y-71865000D02*
X123500595Y-71817380D01*
X123500595Y-71817380D02*
X123452976Y-71722142D01*
X123452976Y-71722142D02*
X123452976Y-70912619D01*
X123072023Y-70912619D02*
X122452976Y-70912619D01*
X122452976Y-70912619D02*
X122786309Y-71293571D01*
X122786309Y-71293571D02*
X122643452Y-71293571D01*
X122643452Y-71293571D02*
X122548214Y-71341190D01*
X122548214Y-71341190D02*
X122500595Y-71388809D01*
X122500595Y-71388809D02*
X122452976Y-71484047D01*
X122452976Y-71484047D02*
X122452976Y-71722142D01*
X122452976Y-71722142D02*
X122500595Y-71817380D01*
X122500595Y-71817380D02*
X122548214Y-71865000D01*
X122548214Y-71865000D02*
X122643452Y-71912619D01*
X122643452Y-71912619D02*
X122929166Y-71912619D01*
X122929166Y-71912619D02*
X123024404Y-71865000D01*
X123024404Y-71865000D02*
X123072023Y-71817380D01*
%TO.C,ESP32-S*%
X134918809Y-35811905D02*
X134918809Y-36145238D01*
X135442619Y-36288095D02*
X135442619Y-35811905D01*
X135442619Y-35811905D02*
X134442619Y-35811905D01*
X134442619Y-35811905D02*
X134442619Y-36288095D01*
X135395000Y-36669048D02*
X135442619Y-36811905D01*
X135442619Y-36811905D02*
X135442619Y-37050000D01*
X135442619Y-37050000D02*
X135395000Y-37145238D01*
X135395000Y-37145238D02*
X135347380Y-37192857D01*
X135347380Y-37192857D02*
X135252142Y-37240476D01*
X135252142Y-37240476D02*
X135156904Y-37240476D01*
X135156904Y-37240476D02*
X135061666Y-37192857D01*
X135061666Y-37192857D02*
X135014047Y-37145238D01*
X135014047Y-37145238D02*
X134966428Y-37050000D01*
X134966428Y-37050000D02*
X134918809Y-36859524D01*
X134918809Y-36859524D02*
X134871190Y-36764286D01*
X134871190Y-36764286D02*
X134823571Y-36716667D01*
X134823571Y-36716667D02*
X134728333Y-36669048D01*
X134728333Y-36669048D02*
X134633095Y-36669048D01*
X134633095Y-36669048D02*
X134537857Y-36716667D01*
X134537857Y-36716667D02*
X134490238Y-36764286D01*
X134490238Y-36764286D02*
X134442619Y-36859524D01*
X134442619Y-36859524D02*
X134442619Y-37097619D01*
X134442619Y-37097619D02*
X134490238Y-37240476D01*
X135442619Y-37669048D02*
X134442619Y-37669048D01*
X134442619Y-37669048D02*
X134442619Y-38050000D01*
X134442619Y-38050000D02*
X134490238Y-38145238D01*
X134490238Y-38145238D02*
X134537857Y-38192857D01*
X134537857Y-38192857D02*
X134633095Y-38240476D01*
X134633095Y-38240476D02*
X134775952Y-38240476D01*
X134775952Y-38240476D02*
X134871190Y-38192857D01*
X134871190Y-38192857D02*
X134918809Y-38145238D01*
X134918809Y-38145238D02*
X134966428Y-38050000D01*
X134966428Y-38050000D02*
X134966428Y-37669048D01*
X134442619Y-38573810D02*
X134442619Y-39192857D01*
X134442619Y-39192857D02*
X134823571Y-38859524D01*
X134823571Y-38859524D02*
X134823571Y-39002381D01*
X134823571Y-39002381D02*
X134871190Y-39097619D01*
X134871190Y-39097619D02*
X134918809Y-39145238D01*
X134918809Y-39145238D02*
X135014047Y-39192857D01*
X135014047Y-39192857D02*
X135252142Y-39192857D01*
X135252142Y-39192857D02*
X135347380Y-39145238D01*
X135347380Y-39145238D02*
X135395000Y-39097619D01*
X135395000Y-39097619D02*
X135442619Y-39002381D01*
X135442619Y-39002381D02*
X135442619Y-38716667D01*
X135442619Y-38716667D02*
X135395000Y-38621429D01*
X135395000Y-38621429D02*
X135347380Y-38573810D01*
X134537857Y-39573810D02*
X134490238Y-39621429D01*
X134490238Y-39621429D02*
X134442619Y-39716667D01*
X134442619Y-39716667D02*
X134442619Y-39954762D01*
X134442619Y-39954762D02*
X134490238Y-40050000D01*
X134490238Y-40050000D02*
X134537857Y-40097619D01*
X134537857Y-40097619D02*
X134633095Y-40145238D01*
X134633095Y-40145238D02*
X134728333Y-40145238D01*
X134728333Y-40145238D02*
X134871190Y-40097619D01*
X134871190Y-40097619D02*
X135442619Y-39526191D01*
X135442619Y-39526191D02*
X135442619Y-40145238D01*
X135061666Y-40573810D02*
X135061666Y-41335715D01*
X135395000Y-41764286D02*
X135442619Y-41907143D01*
X135442619Y-41907143D02*
X135442619Y-42145238D01*
X135442619Y-42145238D02*
X135395000Y-42240476D01*
X135395000Y-42240476D02*
X135347380Y-42288095D01*
X135347380Y-42288095D02*
X135252142Y-42335714D01*
X135252142Y-42335714D02*
X135156904Y-42335714D01*
X135156904Y-42335714D02*
X135061666Y-42288095D01*
X135061666Y-42288095D02*
X135014047Y-42240476D01*
X135014047Y-42240476D02*
X134966428Y-42145238D01*
X134966428Y-42145238D02*
X134918809Y-41954762D01*
X134918809Y-41954762D02*
X134871190Y-41859524D01*
X134871190Y-41859524D02*
X134823571Y-41811905D01*
X134823571Y-41811905D02*
X134728333Y-41764286D01*
X134728333Y-41764286D02*
X134633095Y-41764286D01*
X134633095Y-41764286D02*
X134537857Y-41811905D01*
X134537857Y-41811905D02*
X134490238Y-41859524D01*
X134490238Y-41859524D02*
X134442619Y-41954762D01*
X134442619Y-41954762D02*
X134442619Y-42192857D01*
X134442619Y-42192857D02*
X134490238Y-42335714D01*
%TO.C,C7*%
X136266666Y-70767380D02*
X136314285Y-70815000D01*
X136314285Y-70815000D02*
X136457142Y-70862619D01*
X136457142Y-70862619D02*
X136552380Y-70862619D01*
X136552380Y-70862619D02*
X136695237Y-70815000D01*
X136695237Y-70815000D02*
X136790475Y-70719761D01*
X136790475Y-70719761D02*
X136838094Y-70624523D01*
X136838094Y-70624523D02*
X136885713Y-70434047D01*
X136885713Y-70434047D02*
X136885713Y-70291190D01*
X136885713Y-70291190D02*
X136838094Y-70100714D01*
X136838094Y-70100714D02*
X136790475Y-70005476D01*
X136790475Y-70005476D02*
X136695237Y-69910238D01*
X136695237Y-69910238D02*
X136552380Y-69862619D01*
X136552380Y-69862619D02*
X136457142Y-69862619D01*
X136457142Y-69862619D02*
X136314285Y-69910238D01*
X136314285Y-69910238D02*
X136266666Y-69957857D01*
X135933332Y-69862619D02*
X135266666Y-69862619D01*
X135266666Y-69862619D02*
X135695237Y-70862619D01*
%TO.C,C6*%
X136366666Y-68367380D02*
X136414285Y-68415000D01*
X136414285Y-68415000D02*
X136557142Y-68462619D01*
X136557142Y-68462619D02*
X136652380Y-68462619D01*
X136652380Y-68462619D02*
X136795237Y-68415000D01*
X136795237Y-68415000D02*
X136890475Y-68319761D01*
X136890475Y-68319761D02*
X136938094Y-68224523D01*
X136938094Y-68224523D02*
X136985713Y-68034047D01*
X136985713Y-68034047D02*
X136985713Y-67891190D01*
X136985713Y-67891190D02*
X136938094Y-67700714D01*
X136938094Y-67700714D02*
X136890475Y-67605476D01*
X136890475Y-67605476D02*
X136795237Y-67510238D01*
X136795237Y-67510238D02*
X136652380Y-67462619D01*
X136652380Y-67462619D02*
X136557142Y-67462619D01*
X136557142Y-67462619D02*
X136414285Y-67510238D01*
X136414285Y-67510238D02*
X136366666Y-67557857D01*
X135509523Y-67462619D02*
X135699999Y-67462619D01*
X135699999Y-67462619D02*
X135795237Y-67510238D01*
X135795237Y-67510238D02*
X135842856Y-67557857D01*
X135842856Y-67557857D02*
X135938094Y-67700714D01*
X135938094Y-67700714D02*
X135985713Y-67891190D01*
X135985713Y-67891190D02*
X135985713Y-68272142D01*
X135985713Y-68272142D02*
X135938094Y-68367380D01*
X135938094Y-68367380D02*
X135890475Y-68415000D01*
X135890475Y-68415000D02*
X135795237Y-68462619D01*
X135795237Y-68462619D02*
X135604761Y-68462619D01*
X135604761Y-68462619D02*
X135509523Y-68415000D01*
X135509523Y-68415000D02*
X135461904Y-68367380D01*
X135461904Y-68367380D02*
X135414285Y-68272142D01*
X135414285Y-68272142D02*
X135414285Y-68034047D01*
X135414285Y-68034047D02*
X135461904Y-67938809D01*
X135461904Y-67938809D02*
X135509523Y-67891190D01*
X135509523Y-67891190D02*
X135604761Y-67843571D01*
X135604761Y-67843571D02*
X135795237Y-67843571D01*
X135795237Y-67843571D02*
X135890475Y-67891190D01*
X135890475Y-67891190D02*
X135938094Y-67938809D01*
X135938094Y-67938809D02*
X135985713Y-68034047D01*
%TO.C,U1*%
X132161904Y-64262619D02*
X132161904Y-65072142D01*
X132161904Y-65072142D02*
X132114285Y-65167380D01*
X132114285Y-65167380D02*
X132066666Y-65215000D01*
X132066666Y-65215000D02*
X131971428Y-65262619D01*
X131971428Y-65262619D02*
X131780952Y-65262619D01*
X131780952Y-65262619D02*
X131685714Y-65215000D01*
X131685714Y-65215000D02*
X131638095Y-65167380D01*
X131638095Y-65167380D02*
X131590476Y-65072142D01*
X131590476Y-65072142D02*
X131590476Y-64262619D01*
X130590476Y-65262619D02*
X131161904Y-65262619D01*
X130876190Y-65262619D02*
X130876190Y-64262619D01*
X130876190Y-64262619D02*
X130971428Y-64405476D01*
X130971428Y-64405476D02*
X131066666Y-64500714D01*
X131066666Y-64500714D02*
X131161904Y-64548333D01*
%TO.C,MAIN*%
X126323808Y-74862619D02*
X126323808Y-73862619D01*
X126323808Y-73862619D02*
X125990475Y-74576904D01*
X125990475Y-74576904D02*
X125657142Y-73862619D01*
X125657142Y-73862619D02*
X125657142Y-74862619D01*
X125228570Y-74576904D02*
X124752380Y-74576904D01*
X125323808Y-74862619D02*
X124990475Y-73862619D01*
X124990475Y-73862619D02*
X124657142Y-74862619D01*
X124323808Y-74862619D02*
X124323808Y-73862619D01*
X123847618Y-74862619D02*
X123847618Y-73862619D01*
X123847618Y-73862619D02*
X123276190Y-74862619D01*
X123276190Y-74862619D02*
X123276190Y-73862619D01*
%TO.C,R5*%
X127254166Y-56862619D02*
X127587499Y-56386428D01*
X127825594Y-56862619D02*
X127825594Y-55862619D01*
X127825594Y-55862619D02*
X127444642Y-55862619D01*
X127444642Y-55862619D02*
X127349404Y-55910238D01*
X127349404Y-55910238D02*
X127301785Y-55957857D01*
X127301785Y-55957857D02*
X127254166Y-56053095D01*
X127254166Y-56053095D02*
X127254166Y-56195952D01*
X127254166Y-56195952D02*
X127301785Y-56291190D01*
X127301785Y-56291190D02*
X127349404Y-56338809D01*
X127349404Y-56338809D02*
X127444642Y-56386428D01*
X127444642Y-56386428D02*
X127825594Y-56386428D01*
X126349404Y-55862619D02*
X126825594Y-55862619D01*
X126825594Y-55862619D02*
X126873213Y-56338809D01*
X126873213Y-56338809D02*
X126825594Y-56291190D01*
X126825594Y-56291190D02*
X126730356Y-56243571D01*
X126730356Y-56243571D02*
X126492261Y-56243571D01*
X126492261Y-56243571D02*
X126397023Y-56291190D01*
X126397023Y-56291190D02*
X126349404Y-56338809D01*
X126349404Y-56338809D02*
X126301785Y-56434047D01*
X126301785Y-56434047D02*
X126301785Y-56672142D01*
X126301785Y-56672142D02*
X126349404Y-56767380D01*
X126349404Y-56767380D02*
X126397023Y-56815000D01*
X126397023Y-56815000D02*
X126492261Y-56862619D01*
X126492261Y-56862619D02*
X126730356Y-56862619D01*
X126730356Y-56862619D02*
X126825594Y-56815000D01*
X126825594Y-56815000D02*
X126873213Y-56767380D01*
%TO.C,C1*%
X131566666Y-61967380D02*
X131614285Y-62015000D01*
X131614285Y-62015000D02*
X131757142Y-62062619D01*
X131757142Y-62062619D02*
X131852380Y-62062619D01*
X131852380Y-62062619D02*
X131995237Y-62015000D01*
X131995237Y-62015000D02*
X132090475Y-61919761D01*
X132090475Y-61919761D02*
X132138094Y-61824523D01*
X132138094Y-61824523D02*
X132185713Y-61634047D01*
X132185713Y-61634047D02*
X132185713Y-61491190D01*
X132185713Y-61491190D02*
X132138094Y-61300714D01*
X132138094Y-61300714D02*
X132090475Y-61205476D01*
X132090475Y-61205476D02*
X131995237Y-61110238D01*
X131995237Y-61110238D02*
X131852380Y-61062619D01*
X131852380Y-61062619D02*
X131757142Y-61062619D01*
X131757142Y-61062619D02*
X131614285Y-61110238D01*
X131614285Y-61110238D02*
X131566666Y-61157857D01*
X130614285Y-62062619D02*
X131185713Y-62062619D01*
X130899999Y-62062619D02*
X130899999Y-61062619D01*
X130899999Y-61062619D02*
X130995237Y-61205476D01*
X130995237Y-61205476D02*
X131090475Y-61300714D01*
X131090475Y-61300714D02*
X131185713Y-61348333D01*
%TO.C,microsd*%
X150819285Y-59587619D02*
X150819285Y-58920952D01*
X150819285Y-59016190D02*
X150771666Y-58968571D01*
X150771666Y-58968571D02*
X150676428Y-58920952D01*
X150676428Y-58920952D02*
X150533571Y-58920952D01*
X150533571Y-58920952D02*
X150438333Y-58968571D01*
X150438333Y-58968571D02*
X150390714Y-59063809D01*
X150390714Y-59063809D02*
X150390714Y-59587619D01*
X150390714Y-59063809D02*
X150343095Y-58968571D01*
X150343095Y-58968571D02*
X150247857Y-58920952D01*
X150247857Y-58920952D02*
X150105000Y-58920952D01*
X150105000Y-58920952D02*
X150009761Y-58968571D01*
X150009761Y-58968571D02*
X149962142Y-59063809D01*
X149962142Y-59063809D02*
X149962142Y-59587619D01*
X149485952Y-59587619D02*
X149485952Y-58920952D01*
X149485952Y-58587619D02*
X149533571Y-58635238D01*
X149533571Y-58635238D02*
X149485952Y-58682857D01*
X149485952Y-58682857D02*
X149438333Y-58635238D01*
X149438333Y-58635238D02*
X149485952Y-58587619D01*
X149485952Y-58587619D02*
X149485952Y-58682857D01*
X148581191Y-59540000D02*
X148676429Y-59587619D01*
X148676429Y-59587619D02*
X148866905Y-59587619D01*
X148866905Y-59587619D02*
X148962143Y-59540000D01*
X148962143Y-59540000D02*
X149009762Y-59492380D01*
X149009762Y-59492380D02*
X149057381Y-59397142D01*
X149057381Y-59397142D02*
X149057381Y-59111428D01*
X149057381Y-59111428D02*
X149009762Y-59016190D01*
X149009762Y-59016190D02*
X148962143Y-58968571D01*
X148962143Y-58968571D02*
X148866905Y-58920952D01*
X148866905Y-58920952D02*
X148676429Y-58920952D01*
X148676429Y-58920952D02*
X148581191Y-58968571D01*
X148152619Y-59587619D02*
X148152619Y-58920952D01*
X148152619Y-59111428D02*
X148105000Y-59016190D01*
X148105000Y-59016190D02*
X148057381Y-58968571D01*
X148057381Y-58968571D02*
X147962143Y-58920952D01*
X147962143Y-58920952D02*
X147866905Y-58920952D01*
X147390714Y-59587619D02*
X147485952Y-59540000D01*
X147485952Y-59540000D02*
X147533571Y-59492380D01*
X147533571Y-59492380D02*
X147581190Y-59397142D01*
X147581190Y-59397142D02*
X147581190Y-59111428D01*
X147581190Y-59111428D02*
X147533571Y-59016190D01*
X147533571Y-59016190D02*
X147485952Y-58968571D01*
X147485952Y-58968571D02*
X147390714Y-58920952D01*
X147390714Y-58920952D02*
X147247857Y-58920952D01*
X147247857Y-58920952D02*
X147152619Y-58968571D01*
X147152619Y-58968571D02*
X147105000Y-59016190D01*
X147105000Y-59016190D02*
X147057381Y-59111428D01*
X147057381Y-59111428D02*
X147057381Y-59397142D01*
X147057381Y-59397142D02*
X147105000Y-59492380D01*
X147105000Y-59492380D02*
X147152619Y-59540000D01*
X147152619Y-59540000D02*
X147247857Y-59587619D01*
X147247857Y-59587619D02*
X147390714Y-59587619D01*
X146676428Y-59540000D02*
X146581190Y-59587619D01*
X146581190Y-59587619D02*
X146390714Y-59587619D01*
X146390714Y-59587619D02*
X146295476Y-59540000D01*
X146295476Y-59540000D02*
X146247857Y-59444761D01*
X146247857Y-59444761D02*
X146247857Y-59397142D01*
X146247857Y-59397142D02*
X146295476Y-59301904D01*
X146295476Y-59301904D02*
X146390714Y-59254285D01*
X146390714Y-59254285D02*
X146533571Y-59254285D01*
X146533571Y-59254285D02*
X146628809Y-59206666D01*
X146628809Y-59206666D02*
X146676428Y-59111428D01*
X146676428Y-59111428D02*
X146676428Y-59063809D01*
X146676428Y-59063809D02*
X146628809Y-58968571D01*
X146628809Y-58968571D02*
X146533571Y-58920952D01*
X146533571Y-58920952D02*
X146390714Y-58920952D01*
X146390714Y-58920952D02*
X146295476Y-58968571D01*
X145390714Y-59587619D02*
X145390714Y-58587619D01*
X145390714Y-59540000D02*
X145485952Y-59587619D01*
X145485952Y-59587619D02*
X145676428Y-59587619D01*
X145676428Y-59587619D02*
X145771666Y-59540000D01*
X145771666Y-59540000D02*
X145819285Y-59492380D01*
X145819285Y-59492380D02*
X145866904Y-59397142D01*
X145866904Y-59397142D02*
X145866904Y-59111428D01*
X145866904Y-59111428D02*
X145819285Y-59016190D01*
X145819285Y-59016190D02*
X145771666Y-58968571D01*
X145771666Y-58968571D02*
X145676428Y-58920952D01*
X145676428Y-58920952D02*
X145485952Y-58920952D01*
X145485952Y-58920952D02*
X145390714Y-58968571D01*
%TO.C,C2*%
X125666666Y-66267380D02*
X125714285Y-66315000D01*
X125714285Y-66315000D02*
X125857142Y-66362619D01*
X125857142Y-66362619D02*
X125952380Y-66362619D01*
X125952380Y-66362619D02*
X126095237Y-66315000D01*
X126095237Y-66315000D02*
X126190475Y-66219761D01*
X126190475Y-66219761D02*
X126238094Y-66124523D01*
X126238094Y-66124523D02*
X126285713Y-65934047D01*
X126285713Y-65934047D02*
X126285713Y-65791190D01*
X126285713Y-65791190D02*
X126238094Y-65600714D01*
X126238094Y-65600714D02*
X126190475Y-65505476D01*
X126190475Y-65505476D02*
X126095237Y-65410238D01*
X126095237Y-65410238D02*
X125952380Y-65362619D01*
X125952380Y-65362619D02*
X125857142Y-65362619D01*
X125857142Y-65362619D02*
X125714285Y-65410238D01*
X125714285Y-65410238D02*
X125666666Y-65457857D01*
X125285713Y-65457857D02*
X125238094Y-65410238D01*
X125238094Y-65410238D02*
X125142856Y-65362619D01*
X125142856Y-65362619D02*
X124904761Y-65362619D01*
X124904761Y-65362619D02*
X124809523Y-65410238D01*
X124809523Y-65410238D02*
X124761904Y-65457857D01*
X124761904Y-65457857D02*
X124714285Y-65553095D01*
X124714285Y-65553095D02*
X124714285Y-65648333D01*
X124714285Y-65648333D02*
X124761904Y-65791190D01*
X124761904Y-65791190D02*
X125333332Y-66362619D01*
X125333332Y-66362619D02*
X124714285Y-66362619D01*
%TO.C,ESP32*%
X166270050Y-70162613D02*
X165941781Y-70220496D01*
X165892052Y-70761155D02*
X166361008Y-70678465D01*
X166361008Y-70678465D02*
X166187360Y-69693657D01*
X166187360Y-69693657D02*
X165718404Y-69776347D01*
X165508618Y-70780411D02*
X165376201Y-70852113D01*
X165376201Y-70852113D02*
X165141723Y-70893458D01*
X165141723Y-70893458D02*
X165039662Y-70863100D01*
X165039662Y-70863100D02*
X164984498Y-70824474D01*
X164984498Y-70824474D02*
X164921064Y-70738952D01*
X164921064Y-70738952D02*
X164904526Y-70645160D01*
X164904526Y-70645160D02*
X164934884Y-70543100D01*
X164934884Y-70543100D02*
X164973511Y-70487936D01*
X164973511Y-70487936D02*
X165059033Y-70424502D01*
X165059033Y-70424502D02*
X165238346Y-70344531D01*
X165238346Y-70344531D02*
X165323869Y-70281097D01*
X165323869Y-70281097D02*
X165362495Y-70225933D01*
X165362495Y-70225933D02*
X165392853Y-70123872D01*
X165392853Y-70123872D02*
X165376315Y-70030081D01*
X165376315Y-70030081D02*
X165312882Y-69944559D01*
X165312882Y-69944559D02*
X165257717Y-69905932D01*
X165257717Y-69905932D02*
X165155657Y-69875575D01*
X165155657Y-69875575D02*
X164921179Y-69916919D01*
X164921179Y-69916919D02*
X164788761Y-69988622D01*
X164532080Y-71000955D02*
X164358431Y-70016147D01*
X164358431Y-70016147D02*
X163983267Y-70082299D01*
X163983267Y-70082299D02*
X163897744Y-70145732D01*
X163897744Y-70145732D02*
X163859118Y-70200897D01*
X163859118Y-70200897D02*
X163828760Y-70302957D01*
X163828760Y-70302957D02*
X163853567Y-70443644D01*
X163853567Y-70443644D02*
X163917000Y-70529166D01*
X163917000Y-70529166D02*
X163972165Y-70567793D01*
X163972165Y-70567793D02*
X164074225Y-70598150D01*
X164074225Y-70598150D02*
X164449390Y-70531999D01*
X163467415Y-70173257D02*
X162857772Y-70280754D01*
X162857772Y-70280754D02*
X163252193Y-70598036D01*
X163252193Y-70598036D02*
X163111506Y-70622843D01*
X163111506Y-70622843D02*
X163025984Y-70686276D01*
X163025984Y-70686276D02*
X162987357Y-70741441D01*
X162987357Y-70741441D02*
X162957000Y-70843501D01*
X162957000Y-70843501D02*
X162998344Y-71077979D01*
X162998344Y-71077979D02*
X163061778Y-71163501D01*
X163061778Y-71163501D02*
X163116942Y-71202128D01*
X163116942Y-71202128D02*
X163219003Y-71232486D01*
X163219003Y-71232486D02*
X163500376Y-71182872D01*
X163500376Y-71182872D02*
X163585898Y-71119438D01*
X163585898Y-71119438D02*
X163624525Y-71064274D01*
X162499145Y-70440697D02*
X162443980Y-70402070D01*
X162443980Y-70402070D02*
X162341920Y-70371712D01*
X162341920Y-70371712D02*
X162107442Y-70413057D01*
X162107442Y-70413057D02*
X162021920Y-70476491D01*
X162021920Y-70476491D02*
X161983293Y-70531655D01*
X161983293Y-70531655D02*
X161952936Y-70633715D01*
X161952936Y-70633715D02*
X161969474Y-70727507D01*
X161969474Y-70727507D02*
X162041176Y-70859924D01*
X162041176Y-70859924D02*
X162703151Y-71323444D01*
X162703151Y-71323444D02*
X162093508Y-71430941D01*
D11*
%TO.C,LED*%
X115236000Y-44390000D02*
X115080000Y-44390000D01*
X112920000Y-44390000D02*
X112764000Y-44390000D01*
X115235515Y-44389999D02*
G75*
G03*
X115078608Y-41157666I-1235515J1559999D01*
G01*
X115079999Y-43870960D02*
G75*
G03*
X115079836Y-41788871I-1079999J1040960D01*
G01*
X112920164Y-41788871D02*
G75*
G03*
X112920001Y-43870960I1079836J-1041129D01*
G01*
X112921392Y-41157666D02*
G75*
G03*
X112764485Y-44389999I1078608J-1672334D01*
G01*
%TO.C,Q1*%
X128562500Y-70560000D02*
X129212500Y-70560000D01*
X128562500Y-70560000D02*
X127912500Y-70560000D01*
X128562500Y-67440000D02*
X130237500Y-67440000D01*
X128562500Y-67440000D02*
X127912500Y-67440000D01*
%TO.C,R6*%
X124145276Y-57577500D02*
X124654724Y-57577500D01*
X124145276Y-58622500D02*
X124654724Y-58622500D01*
%TO.C,R1*%
X145722500Y-54445276D02*
X145722500Y-54954724D01*
X144677500Y-54445276D02*
X144677500Y-54954724D01*
%TO.C,R2*%
X147522500Y-54445276D02*
X147522500Y-54954724D01*
X146477500Y-54445276D02*
X146477500Y-54954724D01*
%TO.C,BT1*%
X121750000Y-53475000D02*
X121750000Y-59325000D01*
X121310000Y-53475000D02*
X121750000Y-53475000D01*
X118150000Y-53475000D02*
X118590000Y-53475000D01*
X118150000Y-55165000D02*
X118150000Y-53475000D01*
X118150000Y-55165000D02*
X116350000Y-55165000D01*
X118150000Y-57635000D02*
X118150000Y-59325000D01*
X121750000Y-59325000D02*
X121310000Y-59325000D01*
X118150000Y-59325000D02*
X118590000Y-59325000D01*
%TO.C,C5*%
X124623752Y-62335000D02*
X124101248Y-62335000D01*
X124623752Y-60865000D02*
X124101248Y-60865000D01*
%TO.C,R3*%
X124817224Y-64222500D02*
X124307776Y-64222500D01*
X124817224Y-63177500D02*
X124307776Y-63177500D01*
%TO.C,U3*%
X122382500Y-67440000D02*
X124142500Y-67440000D01*
X124142500Y-70510000D02*
X121712500Y-70510000D01*
%TO.C,ESP32-S*%
X149170000Y-32930000D02*
X149170000Y-33930000D01*
X148550000Y-32930000D02*
X149170000Y-32930000D01*
X130150000Y-32930000D02*
X130150000Y-32550000D01*
X129730000Y-32930000D02*
X130150000Y-32930000D01*
X129730000Y-32930000D02*
X129730000Y-51170000D01*
X149170000Y-51170000D02*
X149170000Y-50170000D01*
X148550000Y-51170000D02*
X149170000Y-51170000D01*
X129730000Y-51170000D02*
X130150000Y-51170000D01*
%TO.C,C7*%
X132838748Y-69665000D02*
X133361252Y-69665000D01*
X132838748Y-71135000D02*
X133361252Y-71135000D01*
%TO.C,C6*%
X132838748Y-67265000D02*
X133361252Y-67265000D01*
X132838748Y-68735000D02*
X133361252Y-68735000D01*
%TO.C,U1*%
X128562500Y-66360000D02*
X129212500Y-66360000D01*
X128562500Y-66360000D02*
X127912500Y-66360000D01*
X128562500Y-63240000D02*
X130237500Y-63240000D01*
X128562500Y-63240000D02*
X127912500Y-63240000D01*
%TO.C,MAIN*%
X134550000Y-74400000D02*
X134550000Y-75190000D01*
X133950000Y-76200000D02*
X128250000Y-76200000D01*
X132700000Y-73350000D02*
X131000000Y-73350000D01*
X132500000Y-77490000D02*
X132300000Y-77700000D01*
X132500000Y-76200000D02*
X132500000Y-77490000D01*
X132300000Y-77700000D02*
X131400000Y-77700000D01*
X131200000Y-77490000D02*
X131400000Y-77700000D01*
X131200000Y-77490000D02*
X131200000Y-76200000D01*
X129700000Y-73350000D02*
X129500000Y-73350000D01*
X127650000Y-75190000D02*
X127650000Y-74400000D01*
%TO.C,R5*%
X124654724Y-56922500D02*
X124145276Y-56922500D01*
X124654724Y-55877500D02*
X124145276Y-55877500D01*
%TO.C,C1*%
X128238748Y-60865000D02*
X128761252Y-60865000D01*
X128238748Y-62335000D02*
X128761252Y-62335000D01*
%TO.C,microsd*%
X154515000Y-65375000D02*
X154515000Y-70975000D01*
X154515000Y-62125000D02*
X154515000Y-60965000D01*
X154515000Y-60965000D02*
X143255000Y-60965000D01*
X141755000Y-60965000D02*
X141645000Y-60965000D01*
X141645000Y-64675000D02*
X141645000Y-70975000D01*
X141645000Y-60965000D02*
X141645000Y-62775000D01*
%TO.C,C2*%
X122338748Y-65165000D02*
X122861252Y-65165000D01*
X122338748Y-66635000D02*
X122861252Y-66635000D01*
%TO.C,J1*%
X105595000Y-58095000D02*
X105595000Y-48905000D01*
X108325000Y-58095000D02*
X105595000Y-58095000D01*
X111925000Y-58095000D02*
X111025000Y-58095000D01*
X115005000Y-57975000D02*
X115005000Y-49025000D01*
X108325000Y-48905000D02*
X105595000Y-48905000D01*
X111925000Y-48905000D02*
X111025000Y-48905000D01*
%TO.C,ESP32*%
X168115820Y-73102960D02*
X168253002Y-73880958D01*
X167837502Y-74979803D02*
X162224098Y-75969598D01*
X166111595Y-72390161D02*
X164437422Y-72685363D01*
X166633537Y-76501995D02*
X166473042Y-76743534D01*
X166409531Y-75231593D02*
X166633537Y-76501995D01*
X166473042Y-76743534D02*
X165586715Y-76899818D01*
X165353287Y-76727738D02*
X165586715Y-76899818D01*
X165353287Y-76727738D02*
X165129281Y-75457336D01*
X163157172Y-72911106D02*
X162960211Y-72945835D01*
X161457829Y-75079131D02*
X161320647Y-74301133D01*
%TD*%
M02*
