%TF.GenerationSoftware,KiCad,Pcbnew,7.0.2-1.fc38*%
%TF.CreationDate,2023-06-07T17:49:04+02:00*%
%TF.ProjectId,gps_compass,6770735f-636f-46d7-9061-73732e6b6963,rev?*%
%TF.SameCoordinates,Original*%
%TF.FileFunction,Legend,Bot*%
%TF.FilePolarity,Positive*%
%FSLAX46Y46*%
G04 Gerber Fmt 4.6, Leading zero omitted, Abs format (unit mm)*
G04 Created by KiCad (PCBNEW 7.0.2-1.fc38) date 2023-06-07 17:49:04*
%MOMM*%
%LPD*%
G01*
G04 APERTURE LIST*
%ADD10C,0.100000*%
%ADD11C,0.150000*%
%ADD12C,0.120000*%
G04 APERTURE END LIST*
D10*
X157552380Y-35602095D02*
X157819047Y-35221142D01*
X158009523Y-35602095D02*
X158009523Y-34802095D01*
X158009523Y-34802095D02*
X157704761Y-34802095D01*
X157704761Y-34802095D02*
X157628571Y-34840190D01*
X157628571Y-34840190D02*
X157590476Y-34878285D01*
X157590476Y-34878285D02*
X157552380Y-34954476D01*
X157552380Y-34954476D02*
X157552380Y-35068761D01*
X157552380Y-35068761D02*
X157590476Y-35144952D01*
X157590476Y-35144952D02*
X157628571Y-35183047D01*
X157628571Y-35183047D02*
X157704761Y-35221142D01*
X157704761Y-35221142D02*
X158009523Y-35221142D01*
X157285714Y-34802095D02*
X156752380Y-35602095D01*
X156752380Y-34802095D02*
X157285714Y-35602095D01*
X177309523Y-63783047D02*
X177042857Y-63783047D01*
X176928571Y-64202095D02*
X177309523Y-64202095D01*
X177309523Y-64202095D02*
X177309523Y-63402095D01*
X177309523Y-63402095D02*
X176928571Y-63402095D01*
X176623809Y-64164000D02*
X176547618Y-64202095D01*
X176547618Y-64202095D02*
X176395237Y-64202095D01*
X176395237Y-64202095D02*
X176319047Y-64164000D01*
X176319047Y-64164000D02*
X176280951Y-64087809D01*
X176280951Y-64087809D02*
X176280951Y-64049714D01*
X176280951Y-64049714D02*
X176319047Y-63973523D01*
X176319047Y-63973523D02*
X176395237Y-63935428D01*
X176395237Y-63935428D02*
X176509523Y-63935428D01*
X176509523Y-63935428D02*
X176585713Y-63897333D01*
X176585713Y-63897333D02*
X176623809Y-63821142D01*
X176623809Y-63821142D02*
X176623809Y-63783047D01*
X176623809Y-63783047D02*
X176585713Y-63706857D01*
X176585713Y-63706857D02*
X176509523Y-63668761D01*
X176509523Y-63668761D02*
X176395237Y-63668761D01*
X176395237Y-63668761D02*
X176319047Y-63706857D01*
X175938094Y-63668761D02*
X175938094Y-64468761D01*
X175938094Y-63706857D02*
X175861904Y-63668761D01*
X175861904Y-63668761D02*
X175709523Y-63668761D01*
X175709523Y-63668761D02*
X175633332Y-63706857D01*
X175633332Y-63706857D02*
X175595237Y-63744952D01*
X175595237Y-63744952D02*
X175557142Y-63821142D01*
X175557142Y-63821142D02*
X175557142Y-64049714D01*
X175557142Y-64049714D02*
X175595237Y-64125904D01*
X175595237Y-64125904D02*
X175633332Y-64164000D01*
X175633332Y-64164000D02*
X175709523Y-64202095D01*
X175709523Y-64202095D02*
X175861904Y-64202095D01*
X175861904Y-64202095D02*
X175938094Y-64164000D01*
X175290475Y-63402095D02*
X174795237Y-63402095D01*
X174795237Y-63402095D02*
X175061903Y-63706857D01*
X175061903Y-63706857D02*
X174947618Y-63706857D01*
X174947618Y-63706857D02*
X174871427Y-63744952D01*
X174871427Y-63744952D02*
X174833332Y-63783047D01*
X174833332Y-63783047D02*
X174795237Y-63859238D01*
X174795237Y-63859238D02*
X174795237Y-64049714D01*
X174795237Y-64049714D02*
X174833332Y-64125904D01*
X174833332Y-64125904D02*
X174871427Y-64164000D01*
X174871427Y-64164000D02*
X174947618Y-64202095D01*
X174947618Y-64202095D02*
X175176189Y-64202095D01*
X175176189Y-64202095D02*
X175252380Y-64164000D01*
X175252380Y-64164000D02*
X175290475Y-64125904D01*
X174490475Y-63478285D02*
X174452379Y-63440190D01*
X174452379Y-63440190D02*
X174376189Y-63402095D01*
X174376189Y-63402095D02*
X174185713Y-63402095D01*
X174185713Y-63402095D02*
X174109522Y-63440190D01*
X174109522Y-63440190D02*
X174071427Y-63478285D01*
X174071427Y-63478285D02*
X174033332Y-63554476D01*
X174033332Y-63554476D02*
X174033332Y-63630666D01*
X174033332Y-63630666D02*
X174071427Y-63744952D01*
X174071427Y-63744952D02*
X174528570Y-64202095D01*
X174528570Y-64202095D02*
X174033332Y-64202095D01*
X172661903Y-63440190D02*
X172738093Y-63402095D01*
X172738093Y-63402095D02*
X172852379Y-63402095D01*
X172852379Y-63402095D02*
X172966665Y-63440190D01*
X172966665Y-63440190D02*
X173042855Y-63516380D01*
X173042855Y-63516380D02*
X173080950Y-63592571D01*
X173080950Y-63592571D02*
X173119046Y-63744952D01*
X173119046Y-63744952D02*
X173119046Y-63859238D01*
X173119046Y-63859238D02*
X173080950Y-64011619D01*
X173080950Y-64011619D02*
X173042855Y-64087809D01*
X173042855Y-64087809D02*
X172966665Y-64164000D01*
X172966665Y-64164000D02*
X172852379Y-64202095D01*
X172852379Y-64202095D02*
X172776188Y-64202095D01*
X172776188Y-64202095D02*
X172661903Y-64164000D01*
X172661903Y-64164000D02*
X172623807Y-64125904D01*
X172623807Y-64125904D02*
X172623807Y-63859238D01*
X172623807Y-63859238D02*
X172776188Y-63859238D01*
X172280950Y-63668761D02*
X172280950Y-64468761D01*
X172280950Y-63706857D02*
X172204760Y-63668761D01*
X172204760Y-63668761D02*
X172052379Y-63668761D01*
X172052379Y-63668761D02*
X171976188Y-63706857D01*
X171976188Y-63706857D02*
X171938093Y-63744952D01*
X171938093Y-63744952D02*
X171899998Y-63821142D01*
X171899998Y-63821142D02*
X171899998Y-64049714D01*
X171899998Y-64049714D02*
X171938093Y-64125904D01*
X171938093Y-64125904D02*
X171976188Y-64164000D01*
X171976188Y-64164000D02*
X172052379Y-64202095D01*
X172052379Y-64202095D02*
X172204760Y-64202095D01*
X172204760Y-64202095D02*
X172280950Y-64164000D01*
X171595236Y-64164000D02*
X171519045Y-64202095D01*
X171519045Y-64202095D02*
X171366664Y-64202095D01*
X171366664Y-64202095D02*
X171290474Y-64164000D01*
X171290474Y-64164000D02*
X171252378Y-64087809D01*
X171252378Y-64087809D02*
X171252378Y-64049714D01*
X171252378Y-64049714D02*
X171290474Y-63973523D01*
X171290474Y-63973523D02*
X171366664Y-63935428D01*
X171366664Y-63935428D02*
X171480950Y-63935428D01*
X171480950Y-63935428D02*
X171557140Y-63897333D01*
X171557140Y-63897333D02*
X171595236Y-63821142D01*
X171595236Y-63821142D02*
X171595236Y-63783047D01*
X171595236Y-63783047D02*
X171557140Y-63706857D01*
X171557140Y-63706857D02*
X171480950Y-63668761D01*
X171480950Y-63668761D02*
X171366664Y-63668761D01*
X171366664Y-63668761D02*
X171290474Y-63706857D01*
X170452378Y-64125904D02*
X170490474Y-64164000D01*
X170490474Y-64164000D02*
X170604759Y-64202095D01*
X170604759Y-64202095D02*
X170680950Y-64202095D01*
X170680950Y-64202095D02*
X170795236Y-64164000D01*
X170795236Y-64164000D02*
X170871426Y-64087809D01*
X170871426Y-64087809D02*
X170909521Y-64011619D01*
X170909521Y-64011619D02*
X170947617Y-63859238D01*
X170947617Y-63859238D02*
X170947617Y-63744952D01*
X170947617Y-63744952D02*
X170909521Y-63592571D01*
X170909521Y-63592571D02*
X170871426Y-63516380D01*
X170871426Y-63516380D02*
X170795236Y-63440190D01*
X170795236Y-63440190D02*
X170680950Y-63402095D01*
X170680950Y-63402095D02*
X170604759Y-63402095D01*
X170604759Y-63402095D02*
X170490474Y-63440190D01*
X170490474Y-63440190D02*
X170452378Y-63478285D01*
X169995236Y-64202095D02*
X170071426Y-64164000D01*
X170071426Y-64164000D02*
X170109521Y-64125904D01*
X170109521Y-64125904D02*
X170147617Y-64049714D01*
X170147617Y-64049714D02*
X170147617Y-63821142D01*
X170147617Y-63821142D02*
X170109521Y-63744952D01*
X170109521Y-63744952D02*
X170071426Y-63706857D01*
X170071426Y-63706857D02*
X169995236Y-63668761D01*
X169995236Y-63668761D02*
X169880950Y-63668761D01*
X169880950Y-63668761D02*
X169804759Y-63706857D01*
X169804759Y-63706857D02*
X169766664Y-63744952D01*
X169766664Y-63744952D02*
X169728569Y-63821142D01*
X169728569Y-63821142D02*
X169728569Y-64049714D01*
X169728569Y-64049714D02*
X169766664Y-64125904D01*
X169766664Y-64125904D02*
X169804759Y-64164000D01*
X169804759Y-64164000D02*
X169880950Y-64202095D01*
X169880950Y-64202095D02*
X169995236Y-64202095D01*
X169385711Y-64202095D02*
X169385711Y-63668761D01*
X169385711Y-63744952D02*
X169347616Y-63706857D01*
X169347616Y-63706857D02*
X169271426Y-63668761D01*
X169271426Y-63668761D02*
X169157140Y-63668761D01*
X169157140Y-63668761D02*
X169080949Y-63706857D01*
X169080949Y-63706857D02*
X169042854Y-63783047D01*
X169042854Y-63783047D02*
X169042854Y-64202095D01*
X169042854Y-63783047D02*
X169004759Y-63706857D01*
X169004759Y-63706857D02*
X168928568Y-63668761D01*
X168928568Y-63668761D02*
X168814283Y-63668761D01*
X168814283Y-63668761D02*
X168738092Y-63706857D01*
X168738092Y-63706857D02*
X168699997Y-63783047D01*
X168699997Y-63783047D02*
X168699997Y-64202095D01*
X168319044Y-63668761D02*
X168319044Y-64468761D01*
X168319044Y-63706857D02*
X168242854Y-63668761D01*
X168242854Y-63668761D02*
X168090473Y-63668761D01*
X168090473Y-63668761D02*
X168014282Y-63706857D01*
X168014282Y-63706857D02*
X167976187Y-63744952D01*
X167976187Y-63744952D02*
X167938092Y-63821142D01*
X167938092Y-63821142D02*
X167938092Y-64049714D01*
X167938092Y-64049714D02*
X167976187Y-64125904D01*
X167976187Y-64125904D02*
X168014282Y-64164000D01*
X168014282Y-64164000D02*
X168090473Y-64202095D01*
X168090473Y-64202095D02*
X168242854Y-64202095D01*
X168242854Y-64202095D02*
X168319044Y-64164000D01*
X167252377Y-64202095D02*
X167252377Y-63783047D01*
X167252377Y-63783047D02*
X167290472Y-63706857D01*
X167290472Y-63706857D02*
X167366663Y-63668761D01*
X167366663Y-63668761D02*
X167519044Y-63668761D01*
X167519044Y-63668761D02*
X167595234Y-63706857D01*
X167252377Y-64164000D02*
X167328568Y-64202095D01*
X167328568Y-64202095D02*
X167519044Y-64202095D01*
X167519044Y-64202095D02*
X167595234Y-64164000D01*
X167595234Y-64164000D02*
X167633330Y-64087809D01*
X167633330Y-64087809D02*
X167633330Y-64011619D01*
X167633330Y-64011619D02*
X167595234Y-63935428D01*
X167595234Y-63935428D02*
X167519044Y-63897333D01*
X167519044Y-63897333D02*
X167328568Y-63897333D01*
X167328568Y-63897333D02*
X167252377Y-63859238D01*
X166909520Y-64164000D02*
X166833329Y-64202095D01*
X166833329Y-64202095D02*
X166680948Y-64202095D01*
X166680948Y-64202095D02*
X166604758Y-64164000D01*
X166604758Y-64164000D02*
X166566662Y-64087809D01*
X166566662Y-64087809D02*
X166566662Y-64049714D01*
X166566662Y-64049714D02*
X166604758Y-63973523D01*
X166604758Y-63973523D02*
X166680948Y-63935428D01*
X166680948Y-63935428D02*
X166795234Y-63935428D01*
X166795234Y-63935428D02*
X166871424Y-63897333D01*
X166871424Y-63897333D02*
X166909520Y-63821142D01*
X166909520Y-63821142D02*
X166909520Y-63783047D01*
X166909520Y-63783047D02*
X166871424Y-63706857D01*
X166871424Y-63706857D02*
X166795234Y-63668761D01*
X166795234Y-63668761D02*
X166680948Y-63668761D01*
X166680948Y-63668761D02*
X166604758Y-63706857D01*
X166261901Y-64164000D02*
X166185710Y-64202095D01*
X166185710Y-64202095D02*
X166033329Y-64202095D01*
X166033329Y-64202095D02*
X165957139Y-64164000D01*
X165957139Y-64164000D02*
X165919043Y-64087809D01*
X165919043Y-64087809D02*
X165919043Y-64049714D01*
X165919043Y-64049714D02*
X165957139Y-63973523D01*
X165957139Y-63973523D02*
X166033329Y-63935428D01*
X166033329Y-63935428D02*
X166147615Y-63935428D01*
X166147615Y-63935428D02*
X166223805Y-63897333D01*
X166223805Y-63897333D02*
X166261901Y-63821142D01*
X166261901Y-63821142D02*
X166261901Y-63783047D01*
X166261901Y-63783047D02*
X166223805Y-63706857D01*
X166223805Y-63706857D02*
X166147615Y-63668761D01*
X166147615Y-63668761D02*
X166033329Y-63668761D01*
X166033329Y-63668761D02*
X165957139Y-63706857D01*
X160523809Y-34802095D02*
X160066666Y-34802095D01*
X160295238Y-35602095D02*
X160295238Y-34802095D01*
X159876190Y-34802095D02*
X159342856Y-35602095D01*
X159342856Y-34802095D02*
X159876190Y-35602095D01*
X155390476Y-34840190D02*
X155466666Y-34802095D01*
X155466666Y-34802095D02*
X155580952Y-34802095D01*
X155580952Y-34802095D02*
X155695238Y-34840190D01*
X155695238Y-34840190D02*
X155771428Y-34916380D01*
X155771428Y-34916380D02*
X155809523Y-34992571D01*
X155809523Y-34992571D02*
X155847619Y-35144952D01*
X155847619Y-35144952D02*
X155847619Y-35259238D01*
X155847619Y-35259238D02*
X155809523Y-35411619D01*
X155809523Y-35411619D02*
X155771428Y-35487809D01*
X155771428Y-35487809D02*
X155695238Y-35564000D01*
X155695238Y-35564000D02*
X155580952Y-35602095D01*
X155580952Y-35602095D02*
X155504761Y-35602095D01*
X155504761Y-35602095D02*
X155390476Y-35564000D01*
X155390476Y-35564000D02*
X155352380Y-35525904D01*
X155352380Y-35525904D02*
X155352380Y-35259238D01*
X155352380Y-35259238D02*
X155504761Y-35259238D01*
X155009523Y-35602095D02*
X155009523Y-34802095D01*
X155009523Y-34802095D02*
X154552380Y-35602095D01*
X154552380Y-35602095D02*
X154552380Y-34802095D01*
X154171428Y-35602095D02*
X154171428Y-34802095D01*
X154171428Y-34802095D02*
X153980952Y-34802095D01*
X153980952Y-34802095D02*
X153866666Y-34840190D01*
X153866666Y-34840190D02*
X153790476Y-34916380D01*
X153790476Y-34916380D02*
X153752381Y-34992571D01*
X153752381Y-34992571D02*
X153714285Y-35144952D01*
X153714285Y-35144952D02*
X153714285Y-35259238D01*
X153714285Y-35259238D02*
X153752381Y-35411619D01*
X153752381Y-35411619D02*
X153790476Y-35487809D01*
X153790476Y-35487809D02*
X153866666Y-35564000D01*
X153866666Y-35564000D02*
X153980952Y-35602095D01*
X153980952Y-35602095D02*
X154171428Y-35602095D01*
X177309523Y-63002095D02*
X177309523Y-62202095D01*
X177309523Y-62202095D02*
X177119047Y-62202095D01*
X177119047Y-62202095D02*
X177004761Y-62240190D01*
X177004761Y-62240190D02*
X176928571Y-62316380D01*
X176928571Y-62316380D02*
X176890476Y-62392571D01*
X176890476Y-62392571D02*
X176852380Y-62544952D01*
X176852380Y-62544952D02*
X176852380Y-62659238D01*
X176852380Y-62659238D02*
X176890476Y-62811619D01*
X176890476Y-62811619D02*
X176928571Y-62887809D01*
X176928571Y-62887809D02*
X177004761Y-62964000D01*
X177004761Y-62964000D02*
X177119047Y-63002095D01*
X177119047Y-63002095D02*
X177309523Y-63002095D01*
X176166666Y-63002095D02*
X176166666Y-62583047D01*
X176166666Y-62583047D02*
X176204761Y-62506857D01*
X176204761Y-62506857D02*
X176280952Y-62468761D01*
X176280952Y-62468761D02*
X176433333Y-62468761D01*
X176433333Y-62468761D02*
X176509523Y-62506857D01*
X176166666Y-62964000D02*
X176242857Y-63002095D01*
X176242857Y-63002095D02*
X176433333Y-63002095D01*
X176433333Y-63002095D02*
X176509523Y-62964000D01*
X176509523Y-62964000D02*
X176547619Y-62887809D01*
X176547619Y-62887809D02*
X176547619Y-62811619D01*
X176547619Y-62811619D02*
X176509523Y-62735428D01*
X176509523Y-62735428D02*
X176433333Y-62697333D01*
X176433333Y-62697333D02*
X176242857Y-62697333D01*
X176242857Y-62697333D02*
X176166666Y-62659238D01*
X175442856Y-63002095D02*
X175442856Y-62202095D01*
X175442856Y-62964000D02*
X175519047Y-63002095D01*
X175519047Y-63002095D02*
X175671428Y-63002095D01*
X175671428Y-63002095D02*
X175747618Y-62964000D01*
X175747618Y-62964000D02*
X175785713Y-62925904D01*
X175785713Y-62925904D02*
X175823809Y-62849714D01*
X175823809Y-62849714D02*
X175823809Y-62621142D01*
X175823809Y-62621142D02*
X175785713Y-62544952D01*
X175785713Y-62544952D02*
X175747618Y-62506857D01*
X175747618Y-62506857D02*
X175671428Y-62468761D01*
X175671428Y-62468761D02*
X175519047Y-62468761D01*
X175519047Y-62468761D02*
X175442856Y-62506857D01*
X174757141Y-62964000D02*
X174833332Y-63002095D01*
X174833332Y-63002095D02*
X174985713Y-63002095D01*
X174985713Y-63002095D02*
X175061903Y-62964000D01*
X175061903Y-62964000D02*
X175099999Y-62887809D01*
X175099999Y-62887809D02*
X175099999Y-62583047D01*
X175099999Y-62583047D02*
X175061903Y-62506857D01*
X175061903Y-62506857D02*
X174985713Y-62468761D01*
X174985713Y-62468761D02*
X174833332Y-62468761D01*
X174833332Y-62468761D02*
X174757141Y-62506857D01*
X174757141Y-62506857D02*
X174719046Y-62583047D01*
X174719046Y-62583047D02*
X174719046Y-62659238D01*
X174719046Y-62659238D02*
X175099999Y-62735428D01*
X174452380Y-62202095D02*
X173957142Y-62202095D01*
X173957142Y-62202095D02*
X174223808Y-62506857D01*
X174223808Y-62506857D02*
X174109523Y-62506857D01*
X174109523Y-62506857D02*
X174033332Y-62544952D01*
X174033332Y-62544952D02*
X173995237Y-62583047D01*
X173995237Y-62583047D02*
X173957142Y-62659238D01*
X173957142Y-62659238D02*
X173957142Y-62849714D01*
X173957142Y-62849714D02*
X173995237Y-62925904D01*
X173995237Y-62925904D02*
X174033332Y-62964000D01*
X174033332Y-62964000D02*
X174109523Y-63002095D01*
X174109523Y-63002095D02*
X174338094Y-63002095D01*
X174338094Y-63002095D02*
X174414285Y-62964000D01*
X174414285Y-62964000D02*
X174452380Y-62925904D01*
X173309522Y-62964000D02*
X173385713Y-63002095D01*
X173385713Y-63002095D02*
X173538094Y-63002095D01*
X173538094Y-63002095D02*
X173614284Y-62964000D01*
X173614284Y-62964000D02*
X173652380Y-62887809D01*
X173652380Y-62887809D02*
X173652380Y-62583047D01*
X173652380Y-62583047D02*
X173614284Y-62506857D01*
X173614284Y-62506857D02*
X173538094Y-62468761D01*
X173538094Y-62468761D02*
X173385713Y-62468761D01*
X173385713Y-62468761D02*
X173309522Y-62506857D01*
X173309522Y-62506857D02*
X173271427Y-62583047D01*
X173271427Y-62583047D02*
X173271427Y-62659238D01*
X173271427Y-62659238D02*
X173652380Y-62735428D01*
X172357142Y-62278285D02*
X172319046Y-62240190D01*
X172319046Y-62240190D02*
X172242856Y-62202095D01*
X172242856Y-62202095D02*
X172052380Y-62202095D01*
X172052380Y-62202095D02*
X171976189Y-62240190D01*
X171976189Y-62240190D02*
X171938094Y-62278285D01*
X171938094Y-62278285D02*
X171899999Y-62354476D01*
X171899999Y-62354476D02*
X171899999Y-62430666D01*
X171899999Y-62430666D02*
X171938094Y-62544952D01*
X171938094Y-62544952D02*
X172395237Y-63002095D01*
X172395237Y-63002095D02*
X171899999Y-63002095D01*
X171404760Y-62202095D02*
X171328570Y-62202095D01*
X171328570Y-62202095D02*
X171252379Y-62240190D01*
X171252379Y-62240190D02*
X171214284Y-62278285D01*
X171214284Y-62278285D02*
X171176189Y-62354476D01*
X171176189Y-62354476D02*
X171138094Y-62506857D01*
X171138094Y-62506857D02*
X171138094Y-62697333D01*
X171138094Y-62697333D02*
X171176189Y-62849714D01*
X171176189Y-62849714D02*
X171214284Y-62925904D01*
X171214284Y-62925904D02*
X171252379Y-62964000D01*
X171252379Y-62964000D02*
X171328570Y-63002095D01*
X171328570Y-63002095D02*
X171404760Y-63002095D01*
X171404760Y-63002095D02*
X171480951Y-62964000D01*
X171480951Y-62964000D02*
X171519046Y-62925904D01*
X171519046Y-62925904D02*
X171557141Y-62849714D01*
X171557141Y-62849714D02*
X171595237Y-62697333D01*
X171595237Y-62697333D02*
X171595237Y-62506857D01*
X171595237Y-62506857D02*
X171557141Y-62354476D01*
X171557141Y-62354476D02*
X171519046Y-62278285D01*
X171519046Y-62278285D02*
X171480951Y-62240190D01*
X171480951Y-62240190D02*
X171404760Y-62202095D01*
X170833332Y-62278285D02*
X170795236Y-62240190D01*
X170795236Y-62240190D02*
X170719046Y-62202095D01*
X170719046Y-62202095D02*
X170528570Y-62202095D01*
X170528570Y-62202095D02*
X170452379Y-62240190D01*
X170452379Y-62240190D02*
X170414284Y-62278285D01*
X170414284Y-62278285D02*
X170376189Y-62354476D01*
X170376189Y-62354476D02*
X170376189Y-62430666D01*
X170376189Y-62430666D02*
X170414284Y-62544952D01*
X170414284Y-62544952D02*
X170871427Y-63002095D01*
X170871427Y-63002095D02*
X170376189Y-63002095D01*
X170109522Y-62202095D02*
X169614284Y-62202095D01*
X169614284Y-62202095D02*
X169880950Y-62506857D01*
X169880950Y-62506857D02*
X169766665Y-62506857D01*
X169766665Y-62506857D02*
X169690474Y-62544952D01*
X169690474Y-62544952D02*
X169652379Y-62583047D01*
X169652379Y-62583047D02*
X169614284Y-62659238D01*
X169614284Y-62659238D02*
X169614284Y-62849714D01*
X169614284Y-62849714D02*
X169652379Y-62925904D01*
X169652379Y-62925904D02*
X169690474Y-62964000D01*
X169690474Y-62964000D02*
X169766665Y-63002095D01*
X169766665Y-63002095D02*
X169995236Y-63002095D01*
X169995236Y-63002095D02*
X170071427Y-62964000D01*
X170071427Y-62964000D02*
X170109522Y-62925904D01*
D11*
%TO.C,Q1*%
X131495238Y-69557857D02*
X131590476Y-69510238D01*
X131590476Y-69510238D02*
X131685714Y-69415000D01*
X131685714Y-69415000D02*
X131828571Y-69272142D01*
X131828571Y-69272142D02*
X131923809Y-69224523D01*
X131923809Y-69224523D02*
X132019047Y-69224523D01*
X131971428Y-69462619D02*
X132066666Y-69415000D01*
X132066666Y-69415000D02*
X132161904Y-69319761D01*
X132161904Y-69319761D02*
X132209523Y-69129285D01*
X132209523Y-69129285D02*
X132209523Y-68795952D01*
X132209523Y-68795952D02*
X132161904Y-68605476D01*
X132161904Y-68605476D02*
X132066666Y-68510238D01*
X132066666Y-68510238D02*
X131971428Y-68462619D01*
X131971428Y-68462619D02*
X131780952Y-68462619D01*
X131780952Y-68462619D02*
X131685714Y-68510238D01*
X131685714Y-68510238D02*
X131590476Y-68605476D01*
X131590476Y-68605476D02*
X131542857Y-68795952D01*
X131542857Y-68795952D02*
X131542857Y-69129285D01*
X131542857Y-69129285D02*
X131590476Y-69319761D01*
X131590476Y-69319761D02*
X131685714Y-69415000D01*
X131685714Y-69415000D02*
X131780952Y-69462619D01*
X131780952Y-69462619D02*
X131971428Y-69462619D01*
X130590476Y-69462619D02*
X131161904Y-69462619D01*
X130876190Y-69462619D02*
X130876190Y-68462619D01*
X130876190Y-68462619D02*
X130971428Y-68605476D01*
X130971428Y-68605476D02*
X131066666Y-68700714D01*
X131066666Y-68700714D02*
X131161904Y-68748333D01*
D10*
%TO.C,R6*%
X110833332Y-46870095D02*
X111099999Y-46489142D01*
X111290475Y-46870095D02*
X111290475Y-46070095D01*
X111290475Y-46070095D02*
X110985713Y-46070095D01*
X110985713Y-46070095D02*
X110909523Y-46108190D01*
X110909523Y-46108190D02*
X110871428Y-46146285D01*
X110871428Y-46146285D02*
X110833332Y-46222476D01*
X110833332Y-46222476D02*
X110833332Y-46336761D01*
X110833332Y-46336761D02*
X110871428Y-46412952D01*
X110871428Y-46412952D02*
X110909523Y-46451047D01*
X110909523Y-46451047D02*
X110985713Y-46489142D01*
X110985713Y-46489142D02*
X111290475Y-46489142D01*
X110147618Y-46070095D02*
X110299999Y-46070095D01*
X110299999Y-46070095D02*
X110376190Y-46108190D01*
X110376190Y-46108190D02*
X110414285Y-46146285D01*
X110414285Y-46146285D02*
X110490475Y-46260571D01*
X110490475Y-46260571D02*
X110528571Y-46412952D01*
X110528571Y-46412952D02*
X110528571Y-46717714D01*
X110528571Y-46717714D02*
X110490475Y-46793904D01*
X110490475Y-46793904D02*
X110452380Y-46832000D01*
X110452380Y-46832000D02*
X110376190Y-46870095D01*
X110376190Y-46870095D02*
X110223809Y-46870095D01*
X110223809Y-46870095D02*
X110147618Y-46832000D01*
X110147618Y-46832000D02*
X110109523Y-46793904D01*
X110109523Y-46793904D02*
X110071428Y-46717714D01*
X110071428Y-46717714D02*
X110071428Y-46527238D01*
X110071428Y-46527238D02*
X110109523Y-46451047D01*
X110109523Y-46451047D02*
X110147618Y-46412952D01*
X110147618Y-46412952D02*
X110223809Y-46374857D01*
X110223809Y-46374857D02*
X110376190Y-46374857D01*
X110376190Y-46374857D02*
X110452380Y-46412952D01*
X110452380Y-46412952D02*
X110490475Y-46451047D01*
X110490475Y-46451047D02*
X110528571Y-46527238D01*
%TO.C,R1*%
X145570095Y-57866667D02*
X145189142Y-57600000D01*
X145570095Y-57409524D02*
X144770095Y-57409524D01*
X144770095Y-57409524D02*
X144770095Y-57714286D01*
X144770095Y-57714286D02*
X144808190Y-57790476D01*
X144808190Y-57790476D02*
X144846285Y-57828571D01*
X144846285Y-57828571D02*
X144922476Y-57866667D01*
X144922476Y-57866667D02*
X145036761Y-57866667D01*
X145036761Y-57866667D02*
X145112952Y-57828571D01*
X145112952Y-57828571D02*
X145151047Y-57790476D01*
X145151047Y-57790476D02*
X145189142Y-57714286D01*
X145189142Y-57714286D02*
X145189142Y-57409524D01*
X145570095Y-58628571D02*
X145570095Y-58171428D01*
X145570095Y-58400000D02*
X144770095Y-58400000D01*
X144770095Y-58400000D02*
X144884380Y-58323809D01*
X144884380Y-58323809D02*
X144960571Y-58247619D01*
X144960571Y-58247619D02*
X144998666Y-58171428D01*
%TO.C,R2*%
X147370095Y-57866667D02*
X146989142Y-57600000D01*
X147370095Y-57409524D02*
X146570095Y-57409524D01*
X146570095Y-57409524D02*
X146570095Y-57714286D01*
X146570095Y-57714286D02*
X146608190Y-57790476D01*
X146608190Y-57790476D02*
X146646285Y-57828571D01*
X146646285Y-57828571D02*
X146722476Y-57866667D01*
X146722476Y-57866667D02*
X146836761Y-57866667D01*
X146836761Y-57866667D02*
X146912952Y-57828571D01*
X146912952Y-57828571D02*
X146951047Y-57790476D01*
X146951047Y-57790476D02*
X146989142Y-57714286D01*
X146989142Y-57714286D02*
X146989142Y-57409524D01*
X146646285Y-58171428D02*
X146608190Y-58209524D01*
X146608190Y-58209524D02*
X146570095Y-58285714D01*
X146570095Y-58285714D02*
X146570095Y-58476190D01*
X146570095Y-58476190D02*
X146608190Y-58552381D01*
X146608190Y-58552381D02*
X146646285Y-58590476D01*
X146646285Y-58590476D02*
X146722476Y-58628571D01*
X146722476Y-58628571D02*
X146798666Y-58628571D01*
X146798666Y-58628571D02*
X146912952Y-58590476D01*
X146912952Y-58590476D02*
X147370095Y-58133333D01*
X147370095Y-58133333D02*
X147370095Y-58628571D01*
D11*
%TO.C,ESP*%
X167690475Y-74438809D02*
X167357142Y-74438809D01*
X167214285Y-74962619D02*
X167690475Y-74962619D01*
X167690475Y-74962619D02*
X167690475Y-73962619D01*
X167690475Y-73962619D02*
X167214285Y-73962619D01*
X166833332Y-74915000D02*
X166690475Y-74962619D01*
X166690475Y-74962619D02*
X166452380Y-74962619D01*
X166452380Y-74962619D02*
X166357142Y-74915000D01*
X166357142Y-74915000D02*
X166309523Y-74867380D01*
X166309523Y-74867380D02*
X166261904Y-74772142D01*
X166261904Y-74772142D02*
X166261904Y-74676904D01*
X166261904Y-74676904D02*
X166309523Y-74581666D01*
X166309523Y-74581666D02*
X166357142Y-74534047D01*
X166357142Y-74534047D02*
X166452380Y-74486428D01*
X166452380Y-74486428D02*
X166642856Y-74438809D01*
X166642856Y-74438809D02*
X166738094Y-74391190D01*
X166738094Y-74391190D02*
X166785713Y-74343571D01*
X166785713Y-74343571D02*
X166833332Y-74248333D01*
X166833332Y-74248333D02*
X166833332Y-74153095D01*
X166833332Y-74153095D02*
X166785713Y-74057857D01*
X166785713Y-74057857D02*
X166738094Y-74010238D01*
X166738094Y-74010238D02*
X166642856Y-73962619D01*
X166642856Y-73962619D02*
X166404761Y-73962619D01*
X166404761Y-73962619D02*
X166261904Y-74010238D01*
X165833332Y-74962619D02*
X165833332Y-73962619D01*
X165833332Y-73962619D02*
X165452380Y-73962619D01*
X165452380Y-73962619D02*
X165357142Y-74010238D01*
X165357142Y-74010238D02*
X165309523Y-74057857D01*
X165309523Y-74057857D02*
X165261904Y-74153095D01*
X165261904Y-74153095D02*
X165261904Y-74295952D01*
X165261904Y-74295952D02*
X165309523Y-74391190D01*
X165309523Y-74391190D02*
X165357142Y-74438809D01*
X165357142Y-74438809D02*
X165452380Y-74486428D01*
X165452380Y-74486428D02*
X165833332Y-74486428D01*
D10*
%TO.C,C5*%
X137233332Y-69293904D02*
X137271428Y-69332000D01*
X137271428Y-69332000D02*
X137385713Y-69370095D01*
X137385713Y-69370095D02*
X137461904Y-69370095D01*
X137461904Y-69370095D02*
X137576190Y-69332000D01*
X137576190Y-69332000D02*
X137652380Y-69255809D01*
X137652380Y-69255809D02*
X137690475Y-69179619D01*
X137690475Y-69179619D02*
X137728571Y-69027238D01*
X137728571Y-69027238D02*
X137728571Y-68912952D01*
X137728571Y-68912952D02*
X137690475Y-68760571D01*
X137690475Y-68760571D02*
X137652380Y-68684380D01*
X137652380Y-68684380D02*
X137576190Y-68608190D01*
X137576190Y-68608190D02*
X137461904Y-68570095D01*
X137461904Y-68570095D02*
X137385713Y-68570095D01*
X137385713Y-68570095D02*
X137271428Y-68608190D01*
X137271428Y-68608190D02*
X137233332Y-68646285D01*
X136509523Y-68570095D02*
X136890475Y-68570095D01*
X136890475Y-68570095D02*
X136928571Y-68951047D01*
X136928571Y-68951047D02*
X136890475Y-68912952D01*
X136890475Y-68912952D02*
X136814285Y-68874857D01*
X136814285Y-68874857D02*
X136623809Y-68874857D01*
X136623809Y-68874857D02*
X136547618Y-68912952D01*
X136547618Y-68912952D02*
X136509523Y-68951047D01*
X136509523Y-68951047D02*
X136471428Y-69027238D01*
X136471428Y-69027238D02*
X136471428Y-69217714D01*
X136471428Y-69217714D02*
X136509523Y-69293904D01*
X136509523Y-69293904D02*
X136547618Y-69332000D01*
X136547618Y-69332000D02*
X136623809Y-69370095D01*
X136623809Y-69370095D02*
X136814285Y-69370095D01*
X136814285Y-69370095D02*
X136890475Y-69332000D01*
X136890475Y-69332000D02*
X136928571Y-69293904D01*
%TO.C,R3*%
X120633332Y-63870095D02*
X120899999Y-63489142D01*
X121090475Y-63870095D02*
X121090475Y-63070095D01*
X121090475Y-63070095D02*
X120785713Y-63070095D01*
X120785713Y-63070095D02*
X120709523Y-63108190D01*
X120709523Y-63108190D02*
X120671428Y-63146285D01*
X120671428Y-63146285D02*
X120633332Y-63222476D01*
X120633332Y-63222476D02*
X120633332Y-63336761D01*
X120633332Y-63336761D02*
X120671428Y-63412952D01*
X120671428Y-63412952D02*
X120709523Y-63451047D01*
X120709523Y-63451047D02*
X120785713Y-63489142D01*
X120785713Y-63489142D02*
X121090475Y-63489142D01*
X120366666Y-63070095D02*
X119871428Y-63070095D01*
X119871428Y-63070095D02*
X120138094Y-63374857D01*
X120138094Y-63374857D02*
X120023809Y-63374857D01*
X120023809Y-63374857D02*
X119947618Y-63412952D01*
X119947618Y-63412952D02*
X119909523Y-63451047D01*
X119909523Y-63451047D02*
X119871428Y-63527238D01*
X119871428Y-63527238D02*
X119871428Y-63717714D01*
X119871428Y-63717714D02*
X119909523Y-63793904D01*
X119909523Y-63793904D02*
X119947618Y-63832000D01*
X119947618Y-63832000D02*
X120023809Y-63870095D01*
X120023809Y-63870095D02*
X120252380Y-63870095D01*
X120252380Y-63870095D02*
X120328571Y-63832000D01*
X120328571Y-63832000D02*
X120366666Y-63793904D01*
D11*
%TO.C,U3*%
X120061904Y-68462619D02*
X120061904Y-69272142D01*
X120061904Y-69272142D02*
X120014285Y-69367380D01*
X120014285Y-69367380D02*
X119966666Y-69415000D01*
X119966666Y-69415000D02*
X119871428Y-69462619D01*
X119871428Y-69462619D02*
X119680952Y-69462619D01*
X119680952Y-69462619D02*
X119585714Y-69415000D01*
X119585714Y-69415000D02*
X119538095Y-69367380D01*
X119538095Y-69367380D02*
X119490476Y-69272142D01*
X119490476Y-69272142D02*
X119490476Y-68462619D01*
X119109523Y-68462619D02*
X118490476Y-68462619D01*
X118490476Y-68462619D02*
X118823809Y-68843571D01*
X118823809Y-68843571D02*
X118680952Y-68843571D01*
X118680952Y-68843571D02*
X118585714Y-68891190D01*
X118585714Y-68891190D02*
X118538095Y-68938809D01*
X118538095Y-68938809D02*
X118490476Y-69034047D01*
X118490476Y-69034047D02*
X118490476Y-69272142D01*
X118490476Y-69272142D02*
X118538095Y-69367380D01*
X118538095Y-69367380D02*
X118585714Y-69415000D01*
X118585714Y-69415000D02*
X118680952Y-69462619D01*
X118680952Y-69462619D02*
X118966666Y-69462619D01*
X118966666Y-69462619D02*
X119061904Y-69415000D01*
X119061904Y-69415000D02*
X119109523Y-69367380D01*
%TO.C,ESP32-S*%
X134918809Y-35811905D02*
X134918809Y-36145238D01*
X135442619Y-36288095D02*
X135442619Y-35811905D01*
X135442619Y-35811905D02*
X134442619Y-35811905D01*
X134442619Y-35811905D02*
X134442619Y-36288095D01*
X135395000Y-36669048D02*
X135442619Y-36811905D01*
X135442619Y-36811905D02*
X135442619Y-37050000D01*
X135442619Y-37050000D02*
X135395000Y-37145238D01*
X135395000Y-37145238D02*
X135347380Y-37192857D01*
X135347380Y-37192857D02*
X135252142Y-37240476D01*
X135252142Y-37240476D02*
X135156904Y-37240476D01*
X135156904Y-37240476D02*
X135061666Y-37192857D01*
X135061666Y-37192857D02*
X135014047Y-37145238D01*
X135014047Y-37145238D02*
X134966428Y-37050000D01*
X134966428Y-37050000D02*
X134918809Y-36859524D01*
X134918809Y-36859524D02*
X134871190Y-36764286D01*
X134871190Y-36764286D02*
X134823571Y-36716667D01*
X134823571Y-36716667D02*
X134728333Y-36669048D01*
X134728333Y-36669048D02*
X134633095Y-36669048D01*
X134633095Y-36669048D02*
X134537857Y-36716667D01*
X134537857Y-36716667D02*
X134490238Y-36764286D01*
X134490238Y-36764286D02*
X134442619Y-36859524D01*
X134442619Y-36859524D02*
X134442619Y-37097619D01*
X134442619Y-37097619D02*
X134490238Y-37240476D01*
X135442619Y-37669048D02*
X134442619Y-37669048D01*
X134442619Y-37669048D02*
X134442619Y-38050000D01*
X134442619Y-38050000D02*
X134490238Y-38145238D01*
X134490238Y-38145238D02*
X134537857Y-38192857D01*
X134537857Y-38192857D02*
X134633095Y-38240476D01*
X134633095Y-38240476D02*
X134775952Y-38240476D01*
X134775952Y-38240476D02*
X134871190Y-38192857D01*
X134871190Y-38192857D02*
X134918809Y-38145238D01*
X134918809Y-38145238D02*
X134966428Y-38050000D01*
X134966428Y-38050000D02*
X134966428Y-37669048D01*
X134442619Y-38573810D02*
X134442619Y-39192857D01*
X134442619Y-39192857D02*
X134823571Y-38859524D01*
X134823571Y-38859524D02*
X134823571Y-39002381D01*
X134823571Y-39002381D02*
X134871190Y-39097619D01*
X134871190Y-39097619D02*
X134918809Y-39145238D01*
X134918809Y-39145238D02*
X135014047Y-39192857D01*
X135014047Y-39192857D02*
X135252142Y-39192857D01*
X135252142Y-39192857D02*
X135347380Y-39145238D01*
X135347380Y-39145238D02*
X135395000Y-39097619D01*
X135395000Y-39097619D02*
X135442619Y-39002381D01*
X135442619Y-39002381D02*
X135442619Y-38716667D01*
X135442619Y-38716667D02*
X135395000Y-38621429D01*
X135395000Y-38621429D02*
X135347380Y-38573810D01*
X134537857Y-39573810D02*
X134490238Y-39621429D01*
X134490238Y-39621429D02*
X134442619Y-39716667D01*
X134442619Y-39716667D02*
X134442619Y-39954762D01*
X134442619Y-39954762D02*
X134490238Y-40050000D01*
X134490238Y-40050000D02*
X134537857Y-40097619D01*
X134537857Y-40097619D02*
X134633095Y-40145238D01*
X134633095Y-40145238D02*
X134728333Y-40145238D01*
X134728333Y-40145238D02*
X134871190Y-40097619D01*
X134871190Y-40097619D02*
X135442619Y-39526191D01*
X135442619Y-39526191D02*
X135442619Y-40145238D01*
X135061666Y-40573810D02*
X135061666Y-41335715D01*
X135395000Y-41764286D02*
X135442619Y-41907143D01*
X135442619Y-41907143D02*
X135442619Y-42145238D01*
X135442619Y-42145238D02*
X135395000Y-42240476D01*
X135395000Y-42240476D02*
X135347380Y-42288095D01*
X135347380Y-42288095D02*
X135252142Y-42335714D01*
X135252142Y-42335714D02*
X135156904Y-42335714D01*
X135156904Y-42335714D02*
X135061666Y-42288095D01*
X135061666Y-42288095D02*
X135014047Y-42240476D01*
X135014047Y-42240476D02*
X134966428Y-42145238D01*
X134966428Y-42145238D02*
X134918809Y-41954762D01*
X134918809Y-41954762D02*
X134871190Y-41859524D01*
X134871190Y-41859524D02*
X134823571Y-41811905D01*
X134823571Y-41811905D02*
X134728333Y-41764286D01*
X134728333Y-41764286D02*
X134633095Y-41764286D01*
X134633095Y-41764286D02*
X134537857Y-41811905D01*
X134537857Y-41811905D02*
X134490238Y-41859524D01*
X134490238Y-41859524D02*
X134442619Y-41954762D01*
X134442619Y-41954762D02*
X134442619Y-42192857D01*
X134442619Y-42192857D02*
X134490238Y-42335714D01*
D10*
%TO.C,C7*%
X138333332Y-65993904D02*
X138371428Y-66032000D01*
X138371428Y-66032000D02*
X138485713Y-66070095D01*
X138485713Y-66070095D02*
X138561904Y-66070095D01*
X138561904Y-66070095D02*
X138676190Y-66032000D01*
X138676190Y-66032000D02*
X138752380Y-65955809D01*
X138752380Y-65955809D02*
X138790475Y-65879619D01*
X138790475Y-65879619D02*
X138828571Y-65727238D01*
X138828571Y-65727238D02*
X138828571Y-65612952D01*
X138828571Y-65612952D02*
X138790475Y-65460571D01*
X138790475Y-65460571D02*
X138752380Y-65384380D01*
X138752380Y-65384380D02*
X138676190Y-65308190D01*
X138676190Y-65308190D02*
X138561904Y-65270095D01*
X138561904Y-65270095D02*
X138485713Y-65270095D01*
X138485713Y-65270095D02*
X138371428Y-65308190D01*
X138371428Y-65308190D02*
X138333332Y-65346285D01*
X138066666Y-65270095D02*
X137533332Y-65270095D01*
X137533332Y-65270095D02*
X137876190Y-66070095D01*
%TO.C,LED*%
X111570095Y-42285714D02*
X111570095Y-41904762D01*
X111570095Y-41904762D02*
X110770095Y-41904762D01*
X111151047Y-42552381D02*
X111151047Y-42819047D01*
X111570095Y-42933333D02*
X111570095Y-42552381D01*
X111570095Y-42552381D02*
X110770095Y-42552381D01*
X110770095Y-42552381D02*
X110770095Y-42933333D01*
X111570095Y-43276191D02*
X110770095Y-43276191D01*
X110770095Y-43276191D02*
X110770095Y-43466667D01*
X110770095Y-43466667D02*
X110808190Y-43580953D01*
X110808190Y-43580953D02*
X110884380Y-43657143D01*
X110884380Y-43657143D02*
X110960571Y-43695238D01*
X110960571Y-43695238D02*
X111112952Y-43733334D01*
X111112952Y-43733334D02*
X111227238Y-43733334D01*
X111227238Y-43733334D02*
X111379619Y-43695238D01*
X111379619Y-43695238D02*
X111455809Y-43657143D01*
X111455809Y-43657143D02*
X111532000Y-43580953D01*
X111532000Y-43580953D02*
X111570095Y-43466667D01*
X111570095Y-43466667D02*
X111570095Y-43276191D01*
D11*
%TO.C,MAIN*%
X124623808Y-74862619D02*
X124623808Y-73862619D01*
X124623808Y-73862619D02*
X124290475Y-74576904D01*
X124290475Y-74576904D02*
X123957142Y-73862619D01*
X123957142Y-73862619D02*
X123957142Y-74862619D01*
X123528570Y-74576904D02*
X123052380Y-74576904D01*
X123623808Y-74862619D02*
X123290475Y-73862619D01*
X123290475Y-73862619D02*
X122957142Y-74862619D01*
X122623808Y-74862619D02*
X122623808Y-73862619D01*
X122147618Y-74862619D02*
X122147618Y-73862619D01*
X122147618Y-73862619D02*
X121576190Y-74862619D01*
X121576190Y-74862619D02*
X121576190Y-73862619D01*
D10*
%TO.C,C6*%
X138333332Y-63593904D02*
X138371428Y-63632000D01*
X138371428Y-63632000D02*
X138485713Y-63670095D01*
X138485713Y-63670095D02*
X138561904Y-63670095D01*
X138561904Y-63670095D02*
X138676190Y-63632000D01*
X138676190Y-63632000D02*
X138752380Y-63555809D01*
X138752380Y-63555809D02*
X138790475Y-63479619D01*
X138790475Y-63479619D02*
X138828571Y-63327238D01*
X138828571Y-63327238D02*
X138828571Y-63212952D01*
X138828571Y-63212952D02*
X138790475Y-63060571D01*
X138790475Y-63060571D02*
X138752380Y-62984380D01*
X138752380Y-62984380D02*
X138676190Y-62908190D01*
X138676190Y-62908190D02*
X138561904Y-62870095D01*
X138561904Y-62870095D02*
X138485713Y-62870095D01*
X138485713Y-62870095D02*
X138371428Y-62908190D01*
X138371428Y-62908190D02*
X138333332Y-62946285D01*
X137647618Y-62870095D02*
X137799999Y-62870095D01*
X137799999Y-62870095D02*
X137876190Y-62908190D01*
X137876190Y-62908190D02*
X137914285Y-62946285D01*
X137914285Y-62946285D02*
X137990475Y-63060571D01*
X137990475Y-63060571D02*
X138028571Y-63212952D01*
X138028571Y-63212952D02*
X138028571Y-63517714D01*
X138028571Y-63517714D02*
X137990475Y-63593904D01*
X137990475Y-63593904D02*
X137952380Y-63632000D01*
X137952380Y-63632000D02*
X137876190Y-63670095D01*
X137876190Y-63670095D02*
X137723809Y-63670095D01*
X137723809Y-63670095D02*
X137647618Y-63632000D01*
X137647618Y-63632000D02*
X137609523Y-63593904D01*
X137609523Y-63593904D02*
X137571428Y-63517714D01*
X137571428Y-63517714D02*
X137571428Y-63327238D01*
X137571428Y-63327238D02*
X137609523Y-63251047D01*
X137609523Y-63251047D02*
X137647618Y-63212952D01*
X137647618Y-63212952D02*
X137723809Y-63174857D01*
X137723809Y-63174857D02*
X137876190Y-63174857D01*
X137876190Y-63174857D02*
X137952380Y-63212952D01*
X137952380Y-63212952D02*
X137990475Y-63251047D01*
X137990475Y-63251047D02*
X138028571Y-63327238D01*
D11*
%TO.C,U1*%
X133061904Y-63512619D02*
X133061904Y-64322142D01*
X133061904Y-64322142D02*
X133014285Y-64417380D01*
X133014285Y-64417380D02*
X132966666Y-64465000D01*
X132966666Y-64465000D02*
X132871428Y-64512619D01*
X132871428Y-64512619D02*
X132680952Y-64512619D01*
X132680952Y-64512619D02*
X132585714Y-64465000D01*
X132585714Y-64465000D02*
X132538095Y-64417380D01*
X132538095Y-64417380D02*
X132490476Y-64322142D01*
X132490476Y-64322142D02*
X132490476Y-63512619D01*
X131490476Y-64512619D02*
X132061904Y-64512619D01*
X131776190Y-64512619D02*
X131776190Y-63512619D01*
X131776190Y-63512619D02*
X131871428Y-63655476D01*
X131871428Y-63655476D02*
X131966666Y-63750714D01*
X131966666Y-63750714D02*
X132061904Y-63798333D01*
%TO.C,R5*%
X125766666Y-55762619D02*
X126099999Y-55286428D01*
X126338094Y-55762619D02*
X126338094Y-54762619D01*
X126338094Y-54762619D02*
X125957142Y-54762619D01*
X125957142Y-54762619D02*
X125861904Y-54810238D01*
X125861904Y-54810238D02*
X125814285Y-54857857D01*
X125814285Y-54857857D02*
X125766666Y-54953095D01*
X125766666Y-54953095D02*
X125766666Y-55095952D01*
X125766666Y-55095952D02*
X125814285Y-55191190D01*
X125814285Y-55191190D02*
X125861904Y-55238809D01*
X125861904Y-55238809D02*
X125957142Y-55286428D01*
X125957142Y-55286428D02*
X126338094Y-55286428D01*
X124861904Y-54762619D02*
X125338094Y-54762619D01*
X125338094Y-54762619D02*
X125385713Y-55238809D01*
X125385713Y-55238809D02*
X125338094Y-55191190D01*
X125338094Y-55191190D02*
X125242856Y-55143571D01*
X125242856Y-55143571D02*
X125004761Y-55143571D01*
X125004761Y-55143571D02*
X124909523Y-55191190D01*
X124909523Y-55191190D02*
X124861904Y-55238809D01*
X124861904Y-55238809D02*
X124814285Y-55334047D01*
X124814285Y-55334047D02*
X124814285Y-55572142D01*
X124814285Y-55572142D02*
X124861904Y-55667380D01*
X124861904Y-55667380D02*
X124909523Y-55715000D01*
X124909523Y-55715000D02*
X125004761Y-55762619D01*
X125004761Y-55762619D02*
X125242856Y-55762619D01*
X125242856Y-55762619D02*
X125338094Y-55715000D01*
X125338094Y-55715000D02*
X125385713Y-55667380D01*
D10*
%TO.C,C1*%
X122233332Y-61793904D02*
X122271428Y-61832000D01*
X122271428Y-61832000D02*
X122385713Y-61870095D01*
X122385713Y-61870095D02*
X122461904Y-61870095D01*
X122461904Y-61870095D02*
X122576190Y-61832000D01*
X122576190Y-61832000D02*
X122652380Y-61755809D01*
X122652380Y-61755809D02*
X122690475Y-61679619D01*
X122690475Y-61679619D02*
X122728571Y-61527238D01*
X122728571Y-61527238D02*
X122728571Y-61412952D01*
X122728571Y-61412952D02*
X122690475Y-61260571D01*
X122690475Y-61260571D02*
X122652380Y-61184380D01*
X122652380Y-61184380D02*
X122576190Y-61108190D01*
X122576190Y-61108190D02*
X122461904Y-61070095D01*
X122461904Y-61070095D02*
X122385713Y-61070095D01*
X122385713Y-61070095D02*
X122271428Y-61108190D01*
X122271428Y-61108190D02*
X122233332Y-61146285D01*
X121471428Y-61870095D02*
X121928571Y-61870095D01*
X121699999Y-61870095D02*
X121699999Y-61070095D01*
X121699999Y-61070095D02*
X121776190Y-61184380D01*
X121776190Y-61184380D02*
X121852380Y-61260571D01*
X121852380Y-61260571D02*
X121928571Y-61298666D01*
D11*
%TO.C,microsd*%
X151014285Y-65462619D02*
X151014285Y-64795952D01*
X151014285Y-64891190D02*
X150966666Y-64843571D01*
X150966666Y-64843571D02*
X150871428Y-64795952D01*
X150871428Y-64795952D02*
X150728571Y-64795952D01*
X150728571Y-64795952D02*
X150633333Y-64843571D01*
X150633333Y-64843571D02*
X150585714Y-64938809D01*
X150585714Y-64938809D02*
X150585714Y-65462619D01*
X150585714Y-64938809D02*
X150538095Y-64843571D01*
X150538095Y-64843571D02*
X150442857Y-64795952D01*
X150442857Y-64795952D02*
X150300000Y-64795952D01*
X150300000Y-64795952D02*
X150204761Y-64843571D01*
X150204761Y-64843571D02*
X150157142Y-64938809D01*
X150157142Y-64938809D02*
X150157142Y-65462619D01*
X149680952Y-65462619D02*
X149680952Y-64795952D01*
X149680952Y-64462619D02*
X149728571Y-64510238D01*
X149728571Y-64510238D02*
X149680952Y-64557857D01*
X149680952Y-64557857D02*
X149633333Y-64510238D01*
X149633333Y-64510238D02*
X149680952Y-64462619D01*
X149680952Y-64462619D02*
X149680952Y-64557857D01*
X148776191Y-65415000D02*
X148871429Y-65462619D01*
X148871429Y-65462619D02*
X149061905Y-65462619D01*
X149061905Y-65462619D02*
X149157143Y-65415000D01*
X149157143Y-65415000D02*
X149204762Y-65367380D01*
X149204762Y-65367380D02*
X149252381Y-65272142D01*
X149252381Y-65272142D02*
X149252381Y-64986428D01*
X149252381Y-64986428D02*
X149204762Y-64891190D01*
X149204762Y-64891190D02*
X149157143Y-64843571D01*
X149157143Y-64843571D02*
X149061905Y-64795952D01*
X149061905Y-64795952D02*
X148871429Y-64795952D01*
X148871429Y-64795952D02*
X148776191Y-64843571D01*
X148347619Y-65462619D02*
X148347619Y-64795952D01*
X148347619Y-64986428D02*
X148300000Y-64891190D01*
X148300000Y-64891190D02*
X148252381Y-64843571D01*
X148252381Y-64843571D02*
X148157143Y-64795952D01*
X148157143Y-64795952D02*
X148061905Y-64795952D01*
X147585714Y-65462619D02*
X147680952Y-65415000D01*
X147680952Y-65415000D02*
X147728571Y-65367380D01*
X147728571Y-65367380D02*
X147776190Y-65272142D01*
X147776190Y-65272142D02*
X147776190Y-64986428D01*
X147776190Y-64986428D02*
X147728571Y-64891190D01*
X147728571Y-64891190D02*
X147680952Y-64843571D01*
X147680952Y-64843571D02*
X147585714Y-64795952D01*
X147585714Y-64795952D02*
X147442857Y-64795952D01*
X147442857Y-64795952D02*
X147347619Y-64843571D01*
X147347619Y-64843571D02*
X147300000Y-64891190D01*
X147300000Y-64891190D02*
X147252381Y-64986428D01*
X147252381Y-64986428D02*
X147252381Y-65272142D01*
X147252381Y-65272142D02*
X147300000Y-65367380D01*
X147300000Y-65367380D02*
X147347619Y-65415000D01*
X147347619Y-65415000D02*
X147442857Y-65462619D01*
X147442857Y-65462619D02*
X147585714Y-65462619D01*
X146871428Y-65415000D02*
X146776190Y-65462619D01*
X146776190Y-65462619D02*
X146585714Y-65462619D01*
X146585714Y-65462619D02*
X146490476Y-65415000D01*
X146490476Y-65415000D02*
X146442857Y-65319761D01*
X146442857Y-65319761D02*
X146442857Y-65272142D01*
X146442857Y-65272142D02*
X146490476Y-65176904D01*
X146490476Y-65176904D02*
X146585714Y-65129285D01*
X146585714Y-65129285D02*
X146728571Y-65129285D01*
X146728571Y-65129285D02*
X146823809Y-65081666D01*
X146823809Y-65081666D02*
X146871428Y-64986428D01*
X146871428Y-64986428D02*
X146871428Y-64938809D01*
X146871428Y-64938809D02*
X146823809Y-64843571D01*
X146823809Y-64843571D02*
X146728571Y-64795952D01*
X146728571Y-64795952D02*
X146585714Y-64795952D01*
X146585714Y-64795952D02*
X146490476Y-64843571D01*
X145585714Y-65462619D02*
X145585714Y-64462619D01*
X145585714Y-65415000D02*
X145680952Y-65462619D01*
X145680952Y-65462619D02*
X145871428Y-65462619D01*
X145871428Y-65462619D02*
X145966666Y-65415000D01*
X145966666Y-65415000D02*
X146014285Y-65367380D01*
X146014285Y-65367380D02*
X146061904Y-65272142D01*
X146061904Y-65272142D02*
X146061904Y-64986428D01*
X146061904Y-64986428D02*
X146014285Y-64891190D01*
X146014285Y-64891190D02*
X145966666Y-64843571D01*
X145966666Y-64843571D02*
X145871428Y-64795952D01*
X145871428Y-64795952D02*
X145680952Y-64795952D01*
X145680952Y-64795952D02*
X145585714Y-64843571D01*
D10*
%TO.C,C2*%
X120133332Y-66193904D02*
X120171428Y-66232000D01*
X120171428Y-66232000D02*
X120285713Y-66270095D01*
X120285713Y-66270095D02*
X120361904Y-66270095D01*
X120361904Y-66270095D02*
X120476190Y-66232000D01*
X120476190Y-66232000D02*
X120552380Y-66155809D01*
X120552380Y-66155809D02*
X120590475Y-66079619D01*
X120590475Y-66079619D02*
X120628571Y-65927238D01*
X120628571Y-65927238D02*
X120628571Y-65812952D01*
X120628571Y-65812952D02*
X120590475Y-65660571D01*
X120590475Y-65660571D02*
X120552380Y-65584380D01*
X120552380Y-65584380D02*
X120476190Y-65508190D01*
X120476190Y-65508190D02*
X120361904Y-65470095D01*
X120361904Y-65470095D02*
X120285713Y-65470095D01*
X120285713Y-65470095D02*
X120171428Y-65508190D01*
X120171428Y-65508190D02*
X120133332Y-65546285D01*
X119828571Y-65546285D02*
X119790475Y-65508190D01*
X119790475Y-65508190D02*
X119714285Y-65470095D01*
X119714285Y-65470095D02*
X119523809Y-65470095D01*
X119523809Y-65470095D02*
X119447618Y-65508190D01*
X119447618Y-65508190D02*
X119409523Y-65546285D01*
X119409523Y-65546285D02*
X119371428Y-65622476D01*
X119371428Y-65622476D02*
X119371428Y-65698666D01*
X119371428Y-65698666D02*
X119409523Y-65812952D01*
X119409523Y-65812952D02*
X119866666Y-66270095D01*
X119866666Y-66270095D02*
X119371428Y-66270095D01*
D12*
%TO.C,Q1*%
X128562500Y-70560000D02*
X129212500Y-70560000D01*
X128562500Y-70560000D02*
X127912500Y-70560000D01*
X128562500Y-67440000D02*
X130237500Y-67440000D01*
X128562500Y-67440000D02*
X127912500Y-67440000D01*
%TO.C,R6*%
X113354724Y-47022500D02*
X112845276Y-47022500D01*
X113354724Y-45977500D02*
X112845276Y-45977500D01*
%TO.C,R1*%
X145722500Y-55245276D02*
X145722500Y-55754724D01*
X144677500Y-55245276D02*
X144677500Y-55754724D01*
%TO.C,R2*%
X147522500Y-55245276D02*
X147522500Y-55754724D01*
X146477500Y-55245276D02*
X146477500Y-55754724D01*
%TO.C,ESP*%
X164150000Y-74100000D02*
X164150000Y-74890000D01*
X163550000Y-75900000D02*
X157850000Y-75900000D01*
X162300000Y-73050000D02*
X160600000Y-73050000D01*
X162100000Y-77190000D02*
X161900000Y-77400000D01*
X162100000Y-75900000D02*
X162100000Y-77190000D01*
X161900000Y-77400000D02*
X161000000Y-77400000D01*
X160800000Y-77190000D02*
X161000000Y-77400000D01*
X160800000Y-77190000D02*
X160800000Y-75900000D01*
X159300000Y-73050000D02*
X159100000Y-73050000D01*
X157250000Y-74890000D02*
X157250000Y-74100000D01*
%TO.C,BT1*%
X121750000Y-53475000D02*
X121750000Y-59325000D01*
X121310000Y-53475000D02*
X121750000Y-53475000D01*
X118150000Y-53475000D02*
X118590000Y-53475000D01*
X118150000Y-55165000D02*
X118150000Y-53475000D01*
X118150000Y-55165000D02*
X116350000Y-55165000D01*
X118150000Y-57635000D02*
X118150000Y-59325000D01*
X121750000Y-59325000D02*
X121310000Y-59325000D01*
X118150000Y-59325000D02*
X118590000Y-59325000D01*
%TO.C,C5*%
X134138748Y-68265000D02*
X134661252Y-68265000D01*
X134138748Y-69735000D02*
X134661252Y-69735000D01*
%TO.C,R3*%
X123142224Y-64022500D02*
X122632776Y-64022500D01*
X123142224Y-62977500D02*
X122632776Y-62977500D01*
%TO.C,U3*%
X122382500Y-67440000D02*
X124142500Y-67440000D01*
X124142500Y-70510000D02*
X121712500Y-70510000D01*
%TO.C,ESP32-S*%
X149170000Y-32930000D02*
X149170000Y-33930000D01*
X148550000Y-32930000D02*
X149170000Y-32930000D01*
X130150000Y-32930000D02*
X130150000Y-32550000D01*
X129730000Y-32930000D02*
X130150000Y-32930000D01*
X129730000Y-32930000D02*
X129730000Y-51170000D01*
X149170000Y-51170000D02*
X149170000Y-50170000D01*
X148550000Y-51170000D02*
X149170000Y-51170000D01*
X129730000Y-51170000D02*
X130150000Y-51170000D01*
%TO.C,C7*%
X135238748Y-64965000D02*
X135761252Y-64965000D01*
X135238748Y-66435000D02*
X135761252Y-66435000D01*
%TO.C,LED*%
X112920000Y-44390000D02*
X112764000Y-44390000D01*
X115236000Y-44390000D02*
X115080000Y-44390000D01*
X112921392Y-41157666D02*
G75*
G03*
X112764485Y-44389999I1078608J-1672334D01*
G01*
X112920164Y-41788871D02*
G75*
G03*
X112920001Y-43870960I1079836J-1041129D01*
G01*
X115079999Y-43870960D02*
G75*
G03*
X115079836Y-41788871I-1079999J1040960D01*
G01*
X115235515Y-44389999D02*
G75*
G03*
X115078608Y-41157666I-1235515J1559999D01*
G01*
%TO.C,MAIN*%
X133050000Y-74055000D02*
X133050000Y-74845000D01*
X132450000Y-75855000D02*
X126750000Y-75855000D01*
X131200000Y-73005000D02*
X129500000Y-73005000D01*
X131000000Y-77145000D02*
X130800000Y-77355000D01*
X131000000Y-75855000D02*
X131000000Y-77145000D01*
X130800000Y-77355000D02*
X129900000Y-77355000D01*
X129700000Y-77145000D02*
X129900000Y-77355000D01*
X129700000Y-77145000D02*
X129700000Y-75855000D01*
X128200000Y-73005000D02*
X128000000Y-73005000D01*
X126150000Y-74845000D02*
X126150000Y-74055000D01*
%TO.C,C6*%
X135238748Y-62565000D02*
X135761252Y-62565000D01*
X135238748Y-64035000D02*
X135761252Y-64035000D01*
%TO.C,U1*%
X129462500Y-65610000D02*
X130112500Y-65610000D01*
X129462500Y-65610000D02*
X128812500Y-65610000D01*
X129462500Y-62490000D02*
X131137500Y-62490000D01*
X129462500Y-62490000D02*
X128812500Y-62490000D01*
%TO.C,R5*%
X125854724Y-54322500D02*
X125345276Y-54322500D01*
X125854724Y-53277500D02*
X125345276Y-53277500D01*
%TO.C,C1*%
X124961252Y-62235000D02*
X124438748Y-62235000D01*
X124961252Y-60765000D02*
X124438748Y-60765000D01*
%TO.C,microsd*%
X154515000Y-65375000D02*
X154515000Y-70975000D01*
X154515000Y-62125000D02*
X154515000Y-60965000D01*
X154515000Y-60965000D02*
X143255000Y-60965000D01*
X141755000Y-60965000D02*
X141645000Y-60965000D01*
X141645000Y-64675000D02*
X141645000Y-70975000D01*
X141645000Y-60965000D02*
X141645000Y-62775000D01*
%TO.C,C2*%
X122338748Y-65165000D02*
X122861252Y-65165000D01*
X122338748Y-66635000D02*
X122861252Y-66635000D01*
%TO.C,J1*%
X105995000Y-58095000D02*
X105995000Y-48905000D01*
X108725000Y-58095000D02*
X105995000Y-58095000D01*
X112325000Y-58095000D02*
X111425000Y-58095000D01*
X115405000Y-57975000D02*
X115405000Y-49025000D01*
X108725000Y-48905000D02*
X105995000Y-48905000D01*
X112325000Y-48905000D02*
X111425000Y-48905000D01*
%TD*%
M02*
