%TF.GenerationSoftware,KiCad,Pcbnew,7.0.2-1.fc38*%
%TF.CreationDate,2023-06-07T17:49:04+02:00*%
%TF.ProjectId,gps_compass,6770735f-636f-46d7-9061-73732e6b6963,rev?*%
%TF.SameCoordinates,Original*%
%TF.FileFunction,Soldermask,Top*%
%TF.FilePolarity,Negative*%
%FSLAX46Y46*%
G04 Gerber Fmt 4.6, Leading zero omitted, Abs format (unit mm)*
G04 Created by KiCad (PCBNEW 7.0.2-1.fc38) date 2023-06-07 17:49:04*
%MOMM*%
%LPD*%
G01*
G04 APERTURE LIST*
G04 Aperture macros list*
%AMRoundRect*
0 Rectangle with rounded corners*
0 $1 Rounding radius*
0 $2 $3 $4 $5 $6 $7 $8 $9 X,Y pos of 4 corners*
0 Add a 4 corners polygon primitive as box body*
4,1,4,$2,$3,$4,$5,$6,$7,$8,$9,$2,$3,0*
0 Add four circle primitives for the rounded corners*
1,1,$1+$1,$2,$3*
1,1,$1+$1,$4,$5*
1,1,$1+$1,$6,$7*
1,1,$1+$1,$8,$9*
0 Add four rect primitives between the rounded corners*
20,1,$1+$1,$2,$3,$4,$5,0*
20,1,$1+$1,$4,$5,$6,$7,0*
20,1,$1+$1,$6,$7,$8,$9,0*
20,1,$1+$1,$8,$9,$2,$3,0*%
G04 Aperture macros list end*
%ADD10C,2.000000*%
%ADD11RoundRect,0.237500X0.237500X-0.250000X0.237500X0.250000X-0.237500X0.250000X-0.237500X-0.250000X0*%
%ADD12R,1.700000X1.700000*%
%ADD13O,1.700000X1.700000*%
%ADD14C,1.700000*%
%ADD15RoundRect,0.237500X-0.237500X0.250000X-0.237500X-0.250000X0.237500X-0.250000X0.237500X0.250000X0*%
%ADD16RoundRect,0.000001X-0.900000X-0.750000X0.900000X-0.750000X0.900000X0.750000X-0.900000X0.750000X0*%
%ADD17RoundRect,0.000001X-0.750000X-0.900000X0.750000X-0.900000X0.750000X0.900000X-0.750000X0.900000X0*%
%ADD18R,1.600000X2.000000*%
%ADD19RoundRect,0.250000X0.475000X-0.337500X0.475000X0.337500X-0.475000X0.337500X-0.475000X-0.337500X0*%
%ADD20RoundRect,0.250000X-0.475000X0.337500X-0.475000X-0.337500X0.475000X-0.337500X0.475000X0.337500X0*%
%ADD21C,0.900000*%
%ADD22R,1.800000X1.800000*%
%ADD23C,1.800000*%
%ADD24C,0.700000*%
%ADD25O,1.700000X0.900000*%
%ADD26O,2.400000X0.900000*%
G04 APERTURE END LIST*
D10*
%TO.C,SWdown1*%
X170600000Y-56600000D03*
X170600000Y-50100000D03*
X175100000Y-56600000D03*
X175100000Y-50100000D03*
%TD*%
D11*
%TO.C,R8*%
X117000000Y-54812500D03*
X117000000Y-52987500D03*
%TD*%
D12*
%TO.C,GY-271*%
X156630000Y-71860000D03*
D13*
X156630000Y-69320000D03*
X156630000Y-66780000D03*
X156630000Y-64240000D03*
X156630000Y-61700000D03*
%TD*%
D12*
%TO.C,LCD*%
X129520000Y-53830000D03*
D13*
X132060000Y-53830000D03*
X134600000Y-53830000D03*
X137140000Y-53830000D03*
X139680000Y-53830000D03*
%TD*%
D10*
%TO.C,SWright1*%
X161300000Y-47050000D03*
X161300000Y-40550000D03*
X165800000Y-47050000D03*
X165800000Y-40550000D03*
%TD*%
D12*
%TO.C,Serial1*%
X154820000Y-33340000D03*
D13*
X157360000Y-33340000D03*
D14*
X159900000Y-33340000D03*
%TD*%
D15*
%TO.C,R7*%
X110800000Y-54012500D03*
X110800000Y-52187500D03*
%TD*%
D10*
%TO.C,SWleft1*%
X161300000Y-56600000D03*
X161300000Y-50100000D03*
X165800000Y-56600000D03*
X165800000Y-50100000D03*
%TD*%
D12*
%TO.C,Oled*%
X138320000Y-57310000D03*
D13*
X135780000Y-57310000D03*
X133240000Y-57310000D03*
X130700000Y-57310000D03*
%TD*%
D10*
%TO.C,SWb1*%
X173700000Y-66150000D03*
X173700000Y-59650000D03*
X178200000Y-66150000D03*
X178200000Y-59650000D03*
%TD*%
D15*
%TO.C,R4*%
X121250000Y-61837500D03*
X121250000Y-63662500D03*
%TD*%
D10*
%TO.C,SWa1*%
X161300000Y-66200000D03*
X161300000Y-59700000D03*
X165800000Y-66200000D03*
X165800000Y-59700000D03*
%TD*%
%TO.C,SWup1*%
X152000000Y-56600000D03*
X152000000Y-50100000D03*
X156500000Y-56600000D03*
X156500000Y-50100000D03*
%TD*%
D16*
%TO.C,GPS*%
X123900000Y-63875000D03*
X123900000Y-65775000D03*
X123900000Y-67675000D03*
X123900000Y-69575000D03*
X123900000Y-71475000D03*
D17*
X126700000Y-74275000D03*
X132400000Y-74275000D03*
X134300000Y-74275000D03*
D16*
X137100000Y-71475000D03*
X137100000Y-69575000D03*
X137100000Y-67675000D03*
X137100000Y-65775000D03*
X137100000Y-63875000D03*
D17*
X134300000Y-61075000D03*
X132400000Y-61075000D03*
X130500000Y-61075000D03*
X128600000Y-61075000D03*
X126700000Y-61075000D03*
%TD*%
D11*
%TO.C,R9*%
X118100000Y-48100000D03*
X118100000Y-46275000D03*
%TD*%
D18*
%TO.C,En*%
X113700000Y-66600000D03*
X113700000Y-61200000D03*
%TD*%
%TO.C,Prog*%
X117800000Y-61200000D03*
X117800000Y-66600000D03*
%TD*%
D19*
%TO.C,C3*%
X121200000Y-69300000D03*
X121200000Y-67225000D03*
%TD*%
D20*
%TO.C,C4*%
X121200000Y-71362500D03*
X121200000Y-73437500D03*
%TD*%
D11*
%TO.C,R10*%
X118100000Y-44500000D03*
X118100000Y-42675000D03*
%TD*%
D21*
%TO.C,ESP*%
X162200000Y-74500000D03*
X159200000Y-74500000D03*
%TD*%
D22*
%TO.C,LED*%
X114000000Y-44100000D03*
D23*
X114000000Y-41560000D03*
%TD*%
D21*
%TO.C,MAIN*%
X131100000Y-74455000D03*
X128100000Y-74455000D03*
%TD*%
D24*
%TO.C,J1*%
X114725000Y-56475000D03*
X114725000Y-55625000D03*
X114725000Y-54775000D03*
X114725000Y-53925000D03*
X114725000Y-53075000D03*
X114725000Y-52225000D03*
X114725000Y-51375000D03*
X114725000Y-50525000D03*
X113375000Y-50525000D03*
X113375000Y-51375000D03*
X113375000Y-52225000D03*
X113375000Y-53075000D03*
X113375000Y-53925000D03*
X113375000Y-54775000D03*
X113375000Y-55625000D03*
X113375000Y-56475000D03*
D25*
X110365000Y-57825000D03*
D26*
X113745000Y-57825000D03*
D25*
X110365000Y-49175000D03*
D26*
X113745000Y-49175000D03*
%TD*%
M02*
