%TF.GenerationSoftware,KiCad,Pcbnew,7.0.2-1.fc38*%
%TF.CreationDate,2023-06-07T17:49:04+02:00*%
%TF.ProjectId,gps_compass,6770735f-636f-46d7-9061-73732e6b6963,rev?*%
%TF.SameCoordinates,Original*%
%TF.FileFunction,Copper,L1,Top*%
%TF.FilePolarity,Positive*%
%FSLAX46Y46*%
G04 Gerber Fmt 4.6, Leading zero omitted, Abs format (unit mm)*
G04 Created by KiCad (PCBNEW 7.0.2-1.fc38) date 2023-06-07 17:49:04*
%MOMM*%
%LPD*%
G01*
G04 APERTURE LIST*
G04 Aperture macros list*
%AMRoundRect*
0 Rectangle with rounded corners*
0 $1 Rounding radius*
0 $2 $3 $4 $5 $6 $7 $8 $9 X,Y pos of 4 corners*
0 Add a 4 corners polygon primitive as box body*
4,1,4,$2,$3,$4,$5,$6,$7,$8,$9,$2,$3,0*
0 Add four circle primitives for the rounded corners*
1,1,$1+$1,$2,$3*
1,1,$1+$1,$4,$5*
1,1,$1+$1,$6,$7*
1,1,$1+$1,$8,$9*
0 Add four rect primitives between the rounded corners*
20,1,$1+$1,$2,$3,$4,$5,0*
20,1,$1+$1,$4,$5,$6,$7,0*
20,1,$1+$1,$6,$7,$8,$9,0*
20,1,$1+$1,$8,$9,$2,$3,0*%
G04 Aperture macros list end*
%TA.AperFunction,ComponentPad*%
%ADD10C,2.000000*%
%TD*%
%TA.AperFunction,SMDPad,CuDef*%
%ADD11RoundRect,0.237500X0.237500X-0.250000X0.237500X0.250000X-0.237500X0.250000X-0.237500X-0.250000X0*%
%TD*%
%TA.AperFunction,ComponentPad*%
%ADD12R,1.700000X1.700000*%
%TD*%
%TA.AperFunction,ComponentPad*%
%ADD13O,1.700000X1.700000*%
%TD*%
%TA.AperFunction,ComponentPad*%
%ADD14C,1.700000*%
%TD*%
%TA.AperFunction,SMDPad,CuDef*%
%ADD15RoundRect,0.237500X-0.237500X0.250000X-0.237500X-0.250000X0.237500X-0.250000X0.237500X0.250000X0*%
%TD*%
%TA.AperFunction,SMDPad,CuDef*%
%ADD16R,1.800000X1.500000*%
%TD*%
%TA.AperFunction,SMDPad,CuDef*%
%ADD17R,1.500000X1.800000*%
%TD*%
%TA.AperFunction,SMDPad,CuDef*%
%ADD18R,1.600000X2.000000*%
%TD*%
%TA.AperFunction,SMDPad,CuDef*%
%ADD19RoundRect,0.250000X0.475000X-0.337500X0.475000X0.337500X-0.475000X0.337500X-0.475000X-0.337500X0*%
%TD*%
%TA.AperFunction,SMDPad,CuDef*%
%ADD20RoundRect,0.250000X-0.475000X0.337500X-0.475000X-0.337500X0.475000X-0.337500X0.475000X0.337500X0*%
%TD*%
%TA.AperFunction,ComponentPad*%
%ADD21R,1.800000X1.800000*%
%TD*%
%TA.AperFunction,ComponentPad*%
%ADD22C,1.800000*%
%TD*%
%TA.AperFunction,ComponentPad*%
%ADD23C,0.700000*%
%TD*%
%TA.AperFunction,ComponentPad*%
%ADD24O,1.700000X0.900000*%
%TD*%
%TA.AperFunction,ComponentPad*%
%ADD25O,2.400000X0.900000*%
%TD*%
%TA.AperFunction,ViaPad*%
%ADD26C,0.800000*%
%TD*%
%TA.AperFunction,Conductor*%
%ADD27C,0.250000*%
%TD*%
G04 APERTURE END LIST*
D10*
%TO.P,SWdown1,1,A*%
%TO.N,B2*%
X170600000Y-56600000D03*
X170600000Y-50100000D03*
%TO.P,SWdown1,2,B*%
%TO.N,GND*%
X175100000Y-56600000D03*
X175100000Y-50100000D03*
%TD*%
D11*
%TO.P,R8,1*%
%TO.N,Net-(J1-CC1)*%
X117000000Y-54812500D03*
%TO.P,R8,2*%
%TO.N,GND*%
X117000000Y-52987500D03*
%TD*%
D12*
%TO.P,GY-271,1,Pin_1*%
%TO.N,VCC*%
X156630000Y-71860000D03*
D13*
%TO.P,GY-271,2,Pin_2*%
%TO.N,GND*%
X156630000Y-69320000D03*
%TO.P,GY-271,3,Pin_3*%
%TO.N,SCL*%
X156630000Y-66780000D03*
%TO.P,GY-271,4,Pin_4*%
%TO.N,SDA*%
X156630000Y-64240000D03*
%TO.P,GY-271,5,Pin_5*%
%TO.N,unconnected-(GY-271-Pin_5-Pad5)*%
X156630000Y-61700000D03*
%TD*%
D12*
%TO.P,LCD,1,Pin_1*%
%TO.N,GND*%
X129520000Y-53830000D03*
D13*
%TO.P,LCD,2,Pin_2*%
%TO.N,VCC*%
X132060000Y-53830000D03*
%TO.P,LCD,3,Pin_3*%
%TO.N,lcd_data*%
X134600000Y-53830000D03*
%TO.P,LCD,4,Pin_4*%
%TO.N,lcd_wr*%
X137140000Y-53830000D03*
%TO.P,LCD,5,Pin_5*%
%TO.N,lcd_cs*%
X139680000Y-53830000D03*
%TD*%
D10*
%TO.P,SWright1,1,A*%
%TO.N,B4*%
X161300000Y-47050000D03*
X161300000Y-40550000D03*
%TO.P,SWright1,2,B*%
%TO.N,GND*%
X165800000Y-47050000D03*
X165800000Y-40550000D03*
%TD*%
D12*
%TO.P,Serial1,3,Pin_3*%
%TO.N,GND*%
X154820000Y-33340000D03*
D13*
%TO.P,Serial1,2,Pin_2*%
%TO.N,Net-(ESP32-S1-RXD0{slash}IO3)*%
X157360000Y-33340000D03*
D14*
%TO.P,Serial1,1,Pin_1*%
%TO.N,Net-(ESP32-S1-TXD0{slash}IO1)*%
X159900000Y-33340000D03*
%TD*%
D15*
%TO.P,R7,2*%
%TO.N,GND*%
X110800000Y-54012500D03*
%TO.P,R7,1*%
%TO.N,Net-(J1-CC2)*%
X110800000Y-52187500D03*
%TD*%
D10*
%TO.P,SWleft1,1,A*%
%TO.N,B3*%
X161300000Y-56600000D03*
X161300000Y-50100000D03*
%TO.P,SWleft1,2,B*%
%TO.N,GND*%
X165800000Y-56600000D03*
X165800000Y-50100000D03*
%TD*%
D12*
%TO.P,Oled,1,Pin_1*%
%TO.N,GND*%
X138320000Y-57310000D03*
D13*
%TO.P,Oled,2,Pin_2*%
%TO.N,VCC*%
X135780000Y-57310000D03*
%TO.P,Oled,3,Pin_3*%
%TO.N,SCL*%
X133240000Y-57310000D03*
%TO.P,Oled,4,Pin_4*%
%TO.N,SDA*%
X130700000Y-57310000D03*
%TD*%
D10*
%TO.P,SWb1,1,A*%
%TO.N,B6*%
X173700000Y-66150000D03*
X173700000Y-59650000D03*
%TO.P,SWb1,2,B*%
%TO.N,GND*%
X178200000Y-66150000D03*
X178200000Y-59650000D03*
%TD*%
D15*
%TO.P,R4,1*%
%TO.N,Net-(GPS1-~{RESET})*%
X121250000Y-61837500D03*
%TO.P,R4,2*%
%TO.N,+3V3*%
X121250000Y-63662500D03*
%TD*%
D10*
%TO.P,SWa1,1,A*%
%TO.N,B5*%
X161300000Y-66200000D03*
X161300000Y-59700000D03*
%TO.P,SWa1,2,B*%
%TO.N,GND*%
X165800000Y-66200000D03*
X165800000Y-59700000D03*
%TD*%
%TO.P,SWup1,1,A*%
%TO.N,B1*%
X152000000Y-56600000D03*
X152000000Y-50100000D03*
%TO.P,SWup1,2,B*%
%TO.N,GND*%
X156500000Y-56600000D03*
X156500000Y-50100000D03*
%TD*%
D16*
%TO.P,GPS,1,GND*%
%TO.N,GND*%
X123900000Y-63875000D03*
%TO.P,GPS,2,VCC_IO*%
%TO.N,+3V3*%
X123900000Y-65775000D03*
%TO.P,GPS,3,V_BCKP*%
X123900000Y-67675000D03*
%TO.P,GPS,4,GND*%
%TO.N,GND*%
X123900000Y-69575000D03*
%TO.P,GPS,5,GND*%
X123900000Y-71475000D03*
D17*
%TO.P,GPS,6,GND*%
X126700000Y-74275000D03*
%TO.P,GPS,9,SDA*%
%TO.N,SDA*%
X132400000Y-74275000D03*
%TO.P,GPS,10,GND*%
%TO.N,GND*%
X134300000Y-74275000D03*
D16*
%TO.P,GPS,11,GND*%
X137100000Y-71475000D03*
%TO.P,GPS,12,SCL*%
%TO.N,SCL*%
X137100000Y-69575000D03*
%TO.P,GPS,13,TXD*%
%TO.N,Net-(GPS1-TXD)*%
X137100000Y-67675000D03*
%TO.P,GPS,14,RXD*%
%TO.N,Net-(GPS1-RXD)*%
X137100000Y-65775000D03*
%TO.P,GPS,15,GND*%
%TO.N,GND*%
X137100000Y-63875000D03*
D17*
%TO.P,GPS,16,GND*%
X134300000Y-61075000D03*
%TO.P,GPS,17,VCC*%
%TO.N,+3V3*%
X132400000Y-61075000D03*
%TO.P,GPS,18,~{RESET}*%
%TO.N,Net-(GPS1-~{RESET})*%
X130500000Y-61075000D03*
%TO.P,GPS,19,EXTINT*%
%TO.N,unconnected-(GPS1-EXTINT-Pad19)*%
X128600000Y-61075000D03*
%TO.P,GPS,20,GND*%
%TO.N,GND*%
X126700000Y-61075000D03*
%TD*%
D11*
%TO.P,R9,1*%
%TO.N,+BATT*%
X118100000Y-48100000D03*
%TO.P,R9,2*%
%TO.N,battery_level*%
X118100000Y-46275000D03*
%TD*%
D18*
%TO.P,En,1,A*%
%TO.N,GND*%
X113700000Y-66600000D03*
%TO.P,En,2,B*%
%TO.N,Net-(ESP32-S1-EN)*%
X113700000Y-61200000D03*
%TD*%
%TO.P,Prog,1,A*%
%TO.N,Net-(ESP32-S1-IO0)*%
X117800000Y-61200000D03*
%TO.P,Prog,2,B*%
%TO.N,GND*%
X117800000Y-66600000D03*
%TD*%
D19*
%TO.P,C3,1*%
%TO.N,+3V3*%
X121200000Y-69300000D03*
%TO.P,C3,2*%
%TO.N,GND*%
X121200000Y-67225000D03*
%TD*%
D20*
%TO.P,C4,1*%
%TO.N,+3V3*%
X121200000Y-71362500D03*
%TO.P,C4,2*%
%TO.N,GND*%
X121200000Y-73437500D03*
%TD*%
D11*
%TO.P,R10,1*%
%TO.N,battery_level*%
X118100000Y-44500000D03*
%TO.P,R10,2*%
%TO.N,GND*%
X118100000Y-42675000D03*
%TD*%
D21*
%TO.P,LED,1,K*%
%TO.N,Net-(LED1-K)*%
X114000000Y-44100000D03*
D22*
%TO.P,LED,2,A*%
%TO.N,Net-(ESP32-S1-IO32)*%
X114000000Y-41560000D03*
%TD*%
D23*
%TO.P,J1,A1*%
%TO.N,N/C*%
X114725000Y-56475000D03*
%TO.P,J1,A4*%
X114725000Y-55625000D03*
%TO.P,J1,A5,CC1*%
%TO.N,Net-(J1-CC1)*%
X114725000Y-54775000D03*
%TO.P,J1,A6*%
%TO.N,N/C*%
X114725000Y-53925000D03*
%TO.P,J1,A7*%
X114725000Y-53075000D03*
%TO.P,J1,A8*%
X114725000Y-52225000D03*
%TO.P,J1,A9,VBUS*%
%TO.N,Net-(U3-VCC)*%
X114725000Y-51375000D03*
%TO.P,J1,A12,GND*%
%TO.N,GND*%
X114725000Y-50525000D03*
%TO.P,J1,B1*%
%TO.N,N/C*%
X113375000Y-50525000D03*
%TO.P,J1,B4*%
X113375000Y-51375000D03*
%TO.P,J1,B5,CC2*%
%TO.N,Net-(J1-CC2)*%
X113375000Y-52225000D03*
%TO.P,J1,B6*%
%TO.N,N/C*%
X113375000Y-53075000D03*
%TO.P,J1,B7*%
X113375000Y-53925000D03*
%TO.P,J1,B8*%
X113375000Y-54775000D03*
%TO.P,J1,B9,VBUS*%
%TO.N,Net-(U3-VCC)*%
X113375000Y-55625000D03*
%TO.P,J1,B12,GND*%
%TO.N,GND*%
X113375000Y-56475000D03*
D24*
%TO.P,J1,S1,SHIELD*%
X110365000Y-57825000D03*
D25*
X113745000Y-57825000D03*
D24*
X110365000Y-49175000D03*
D25*
X113745000Y-49175000D03*
%TD*%
D26*
%TO.N,GND*%
X132700000Y-49300000D03*
X152800000Y-74800000D03*
X134000000Y-70700000D03*
X133400000Y-41700000D03*
X117400000Y-59100000D03*
X118100000Y-63700000D03*
X153700000Y-69700000D03*
X128300000Y-57800000D03*
X139100000Y-36800000D03*
X143100000Y-47900000D03*
X140500000Y-57200000D03*
%TO.N,+3V3*%
X132500000Y-63200000D03*
%TO.N,VCC*%
X138000000Y-60500000D03*
X149100000Y-69500000D03*
X126750000Y-52500000D03*
X135780000Y-55235500D03*
%TO.N,Net-(ESP32-S1-EN)*%
X124800000Y-52500000D03*
%TO.N,B2*%
X148800000Y-53200000D03*
%TO.N,+BATT*%
X118200000Y-49500000D03*
%TO.N,lcd_data*%
X146700000Y-31900000D03*
%TO.N,lcd_wr*%
X145850000Y-39250000D03*
%TO.N,lcd_cs*%
X150500000Y-33200000D03*
%TO.N,Net-(ESP32-S1-IO0)*%
X148800000Y-51200000D03*
%TO.N,Net-(ESP32-S1-RXD0{slash}IO3)*%
X137200000Y-52300000D03*
%TO.N,Net-(ESP32-S1-TXD0{slash}IO1)*%
X135600000Y-52500000D03*
%TO.N,Net-(GPS1-TXD)*%
X143800000Y-63200000D03*
%TO.N,Net-(GPS1-RXD)*%
X142500000Y-65300000D03*
%TO.N,battery_level*%
X140900000Y-31700000D03*
%TD*%
D27*
%TO.N,Net-(ESP32-S1-RXD0{slash}IO3)*%
X157360000Y-33340000D02*
X156170000Y-32150000D01*
%TO.N,Net-(ESP32-S1-TXD0{slash}IO1)*%
X159900000Y-33340000D02*
X158260000Y-31700000D01*
%TO.N,Net-(ESP32-S1-RXD0{slash}IO3)*%
X156170000Y-32150000D02*
X150150000Y-32150000D01*
%TO.N,Net-(ESP32-S1-TXD0{slash}IO1)*%
X158260000Y-31700000D02*
X149400000Y-31700000D01*
%TO.N,Net-(ESP32-S1-RXD0{slash}IO3)*%
X137200000Y-45100000D02*
X137200000Y-52300000D01*
X150150000Y-32150000D02*
X137200000Y-45100000D01*
%TO.N,Net-(ESP32-S1-TXD0{slash}IO1)*%
X135600000Y-45500000D02*
X135600000Y-52500000D01*
X149400000Y-31700000D02*
X135600000Y-45500000D01*
%TO.N,+3V3*%
X132400000Y-62225000D02*
X128850000Y-65775000D01*
X121200000Y-69300000D02*
X121200000Y-71362500D01*
X123900000Y-67675000D02*
X123900000Y-65775000D01*
X121200000Y-69300000D02*
X122825000Y-67675000D01*
X132500000Y-61175000D02*
X132400000Y-61075000D01*
X122825000Y-67675000D02*
X123900000Y-67675000D01*
X132400000Y-61075000D02*
X132400000Y-62225000D01*
X123362500Y-65775000D02*
X123900000Y-65775000D01*
X121250000Y-63662500D02*
X123362500Y-65775000D01*
X132500000Y-63200000D02*
X132500000Y-61175000D01*
X128850000Y-65775000D02*
X123900000Y-65775000D01*
%TO.N,Net-(J1-CC1)*%
X116962500Y-54775000D02*
X117000000Y-54812500D01*
X114725000Y-54775000D02*
X116962500Y-54775000D01*
%TO.N,Net-(J1-CC2)*%
X110837500Y-52225000D02*
X113375000Y-52225000D01*
X110800000Y-52187500D02*
X110837500Y-52225000D01*
%TO.N,VCC*%
X138000000Y-60500000D02*
X139200000Y-61700000D01*
X149100000Y-66590000D02*
X149100000Y-69500000D01*
X144210000Y-61700000D02*
X149100000Y-66590000D01*
X133465500Y-55235500D02*
X132060000Y-53830000D01*
X126750000Y-52500000D02*
X130730000Y-52500000D01*
X151450000Y-71850000D02*
X149100000Y-69500000D01*
X135780000Y-55235500D02*
X133465500Y-55235500D01*
X130730000Y-52500000D02*
X132060000Y-53830000D01*
X139200000Y-61700000D02*
X144210000Y-61700000D01*
X156650000Y-71850000D02*
X151450000Y-71850000D01*
%TO.N,SCL*%
X138250000Y-69575000D02*
X142675000Y-74000000D01*
X158400000Y-73000000D02*
X158400000Y-68550000D01*
X133230000Y-57300000D02*
X134530000Y-58600000D01*
X157900000Y-65520000D02*
X156650000Y-66770000D01*
X137100000Y-69575000D02*
X138250000Y-69575000D01*
X134530000Y-58600000D02*
X155500000Y-58600000D01*
X158400000Y-68550000D02*
X156630000Y-66780000D01*
X157900000Y-61000000D02*
X157900000Y-65520000D01*
X142675000Y-74000000D02*
X157400000Y-74000000D01*
X157400000Y-74000000D02*
X158400000Y-73000000D01*
X155500000Y-58600000D02*
X157900000Y-61000000D01*
%TO.N,SDA*%
X132440000Y-59050000D02*
X135700000Y-59050000D01*
X135400000Y-71600000D02*
X135400000Y-59050000D01*
X134800000Y-72200000D02*
X135400000Y-71600000D01*
X133325000Y-72200000D02*
X134800000Y-72200000D01*
X132400000Y-73125000D02*
X133325000Y-72200000D01*
X151470000Y-59050000D02*
X156650000Y-64230000D01*
X132400000Y-74275000D02*
X132400000Y-73125000D01*
X135700000Y-59050000D02*
X151470000Y-59050000D01*
X130700000Y-57310000D02*
X132440000Y-59050000D01*
%TO.N,Net-(ESP32-S1-EN)*%
X124800000Y-52500000D02*
X122400000Y-52500000D01*
X122400000Y-52500000D02*
X113700000Y-61200000D01*
%TO.N,B2*%
X159900000Y-58100000D02*
X169100000Y-58100000D01*
X156026167Y-53200000D02*
X158900000Y-56073833D01*
X169100000Y-58100000D02*
X170600000Y-56600000D01*
X148800000Y-53200000D02*
X156026167Y-53200000D01*
X158900000Y-56073833D02*
X158900000Y-57100000D01*
X158900000Y-57100000D02*
X159900000Y-58100000D01*
X170600000Y-56600000D02*
X170600000Y-50100000D01*
%TO.N,B3*%
X161300000Y-50100000D02*
X161300000Y-56600000D01*
%TO.N,B4*%
X161300000Y-40550000D02*
X161300000Y-47050000D01*
%TO.N,+BATT*%
X118200000Y-49500000D02*
X118200000Y-48200000D01*
X118200000Y-48200000D02*
X118100000Y-48100000D01*
%TO.N,lcd_data*%
X134600000Y-53830000D02*
X134600000Y-44000000D01*
X134600000Y-44000000D02*
X146700000Y-31900000D01*
%TO.N,lcd_wr*%
X145850000Y-39250000D02*
X141400000Y-43700000D01*
X140600000Y-55300000D02*
X138610000Y-55300000D01*
X138610000Y-55300000D02*
X137140000Y-53830000D01*
X141400000Y-54500000D02*
X140600000Y-55300000D01*
X141400000Y-43700000D02*
X141400000Y-54500000D01*
%TO.N,lcd_cs*%
X150500000Y-33200000D02*
X140030000Y-43670000D01*
X139680000Y-44020000D02*
X140030000Y-43670000D01*
X139680000Y-53830000D02*
X139680000Y-44020000D01*
%TO.N,Net-(ESP32-S1-IO0)*%
X124790000Y-55960000D02*
X144214695Y-55960000D01*
X117800000Y-61200000D02*
X119550000Y-61200000D01*
X119550000Y-61200000D02*
X124790000Y-55960000D01*
X148800000Y-51374695D02*
X148800000Y-51200000D01*
X144214695Y-55960000D02*
X148800000Y-51374695D01*
%TO.N,Net-(GPS1-TXD)*%
X141320000Y-67680000D02*
X137145000Y-67680000D01*
X143800000Y-65200000D02*
X141320000Y-67680000D01*
X143800000Y-63200000D02*
X143800000Y-65200000D01*
%TO.N,Net-(GPS1-RXD)*%
X142500000Y-65300000D02*
X137575000Y-65300000D01*
X137575000Y-65300000D02*
X137100000Y-65775000D01*
%TO.N,Net-(GPS1-~{RESET})*%
X129475000Y-62500000D02*
X130500000Y-61475000D01*
X121250000Y-61837500D02*
X121912500Y-62500000D01*
X121912500Y-62500000D02*
X129475000Y-62500000D01*
X130500000Y-61475000D02*
X130500000Y-61075000D01*
%TO.N,battery_level*%
X119400000Y-34100000D02*
X121800000Y-31700000D01*
X119400000Y-43200000D02*
X119400000Y-34100000D01*
X118100000Y-44500000D02*
X119400000Y-43200000D01*
X118100000Y-44500000D02*
X118100000Y-46275000D01*
X121800000Y-31700000D02*
X140900000Y-31700000D01*
%TD*%
%TA.AperFunction,Conductor*%
%TO.N,GND*%
G36*
X131515167Y-62186276D02*
G01*
X131518854Y-62188645D01*
X131552260Y-62210966D01*
X131600595Y-62220580D01*
X131662505Y-62252965D01*
X131697079Y-62313680D01*
X131693340Y-62383450D01*
X131664084Y-62429878D01*
X128730781Y-65363181D01*
X128669458Y-65396666D01*
X128643100Y-65399500D01*
X125174500Y-65399500D01*
X125107461Y-65379815D01*
X125061706Y-65327011D01*
X125050500Y-65275500D01*
X125050500Y-65124125D01*
X125070185Y-65057086D01*
X125100190Y-65024858D01*
X125157188Y-64982190D01*
X125243352Y-64867089D01*
X125293599Y-64732371D01*
X125299645Y-64676132D01*
X125300000Y-64669518D01*
X125300000Y-64125000D01*
X122500000Y-64125000D01*
X122482166Y-64142833D01*
X122480315Y-64149138D01*
X122427511Y-64194893D01*
X122358353Y-64204837D01*
X122294797Y-64175812D01*
X122288319Y-64169780D01*
X122011819Y-63893280D01*
X121978334Y-63831957D01*
X121975500Y-63805599D01*
X121975500Y-63369135D01*
X121975500Y-63365826D01*
X121969251Y-63307701D01*
X121920212Y-63176222D01*
X121843546Y-63073810D01*
X121819130Y-63008346D01*
X121833982Y-62940073D01*
X121883387Y-62890668D01*
X121942814Y-62875500D01*
X122383636Y-62875500D01*
X122450675Y-62895185D01*
X122496430Y-62947989D01*
X122506925Y-63012756D01*
X122500354Y-63073869D01*
X122500000Y-63080481D01*
X122500000Y-63625000D01*
X125300000Y-63625000D01*
X125300000Y-63080481D01*
X125299645Y-63073869D01*
X125293075Y-63012756D01*
X125305480Y-62943996D01*
X125353090Y-62892859D01*
X125416364Y-62875500D01*
X129423195Y-62875500D01*
X129448641Y-62878139D01*
X129452440Y-62878935D01*
X129459268Y-62880367D01*
X129489138Y-62876643D01*
X129490677Y-62876452D01*
X129506014Y-62875500D01*
X129506111Y-62875500D01*
X129506114Y-62875500D01*
X129526643Y-62872073D01*
X129531659Y-62871342D01*
X129583626Y-62864866D01*
X129583628Y-62864864D01*
X129591457Y-62863889D01*
X129591666Y-62863822D01*
X129598607Y-62860065D01*
X129598610Y-62860065D01*
X129644666Y-62835140D01*
X129649144Y-62832835D01*
X129696211Y-62809826D01*
X129696212Y-62809824D01*
X129703308Y-62806356D01*
X129703476Y-62806230D01*
X129708824Y-62800419D01*
X129708826Y-62800419D01*
X129744293Y-62761890D01*
X129747770Y-62758265D01*
X130244220Y-62261816D01*
X130305542Y-62228334D01*
X130331900Y-62225500D01*
X131274675Y-62225500D01*
X131299408Y-62220580D01*
X131347740Y-62210966D01*
X131381111Y-62188668D01*
X131447787Y-62167791D01*
X131515167Y-62186276D01*
G37*
%TD.AperFunction*%
%TA.AperFunction,Conductor*%
G36*
X162001257Y-30500525D02*
G01*
X162947901Y-30520094D01*
X162953011Y-30520305D01*
X163879087Y-30577801D01*
X163897278Y-30578945D01*
X163902129Y-30579350D01*
X164653985Y-30657326D01*
X164849055Y-30677829D01*
X164853836Y-30678429D01*
X165526153Y-30776383D01*
X165795853Y-30816209D01*
X165800580Y-30817003D01*
X166426894Y-30934870D01*
X166736102Y-30993855D01*
X166740700Y-30994825D01*
X167335401Y-31132411D01*
X167668110Y-31210447D01*
X167672627Y-31211598D01*
X168147411Y-31342329D01*
X168243065Y-31368667D01*
X168590330Y-31465625D01*
X168594773Y-31466957D01*
X168832709Y-31543181D01*
X169145286Y-31643317D01*
X169222244Y-31668322D01*
X169501104Y-31758928D01*
X169505410Y-31760417D01*
X169768389Y-31856818D01*
X170038580Y-31955863D01*
X170398937Y-32089878D01*
X170403042Y-32091491D01*
X170920237Y-32305720D01*
X171282138Y-32457849D01*
X171286216Y-32459652D01*
X171788126Y-32692295D01*
X172149302Y-32862252D01*
X172153214Y-32864178D01*
X172640376Y-33114941D01*
X172998864Y-33302354D01*
X173002650Y-33304418D01*
X173475229Y-33572938D01*
X173829414Y-33777428D01*
X173833049Y-33779611D01*
X174290897Y-34065414D01*
X174537608Y-34221981D01*
X174639419Y-34286592D01*
X174642914Y-34288893D01*
X174809959Y-34403023D01*
X175085940Y-34591582D01*
X175427623Y-34829058D01*
X175430978Y-34831474D01*
X175858846Y-35150520D01*
X176192555Y-35403818D01*
X176195657Y-35406254D01*
X176608202Y-35741269D01*
X176727951Y-35840334D01*
X176932862Y-36009853D01*
X176935899Y-36012449D01*
X177332537Y-36362715D01*
X177647356Y-36646178D01*
X177650222Y-36648842D01*
X177838645Y-36829633D01*
X178030761Y-37013968D01*
X178334716Y-37311623D01*
X178337430Y-37314365D01*
X178701468Y-37693769D01*
X178989507Y-38000500D01*
X178993834Y-38005107D01*
X178996386Y-38007909D01*
X179343483Y-38400958D01*
X179623502Y-38725364D01*
X179625891Y-38728218D01*
X179955690Y-39134340D01*
X180222700Y-39471222D01*
X180224927Y-39474118D01*
X180536949Y-39892566D01*
X180790338Y-40241326D01*
X180792403Y-40244257D01*
X181086307Y-40674425D01*
X181325445Y-41034358D01*
X181327349Y-41037314D01*
X181602759Y-41478511D01*
X181827091Y-41848927D01*
X181828836Y-41851901D01*
X182085382Y-42303405D01*
X182294490Y-42683771D01*
X182296027Y-42686661D01*
X182467302Y-43019399D01*
X182533387Y-43147784D01*
X182726658Y-43537126D01*
X182728090Y-43540111D01*
X182945920Y-44010063D01*
X183123009Y-44407814D01*
X183124289Y-44410792D01*
X183322298Y-44888829D01*
X183482778Y-45294153D01*
X183483908Y-45297119D01*
X183661859Y-45782562D01*
X183805389Y-46194727D01*
X183806373Y-46197672D01*
X183963984Y-46689659D01*
X184090252Y-47107880D01*
X184091094Y-47110797D01*
X184228162Y-47608599D01*
X184336884Y-48032043D01*
X184337587Y-48034925D01*
X184453917Y-48537747D01*
X184544883Y-48965709D01*
X184545452Y-48968551D01*
X184640857Y-49475504D01*
X184713872Y-49907191D01*
X184714312Y-49909987D01*
X184788661Y-50420288D01*
X184843559Y-50854852D01*
X184843874Y-50857595D01*
X184897060Y-51370419D01*
X184933725Y-51807049D01*
X184933921Y-51809734D01*
X184965789Y-52323036D01*
X184965918Y-52325527D01*
X184984218Y-52762151D01*
X184984301Y-52764781D01*
X184994930Y-53278918D01*
X184994956Y-53281481D01*
X184994956Y-53718517D01*
X184994930Y-53721080D01*
X184984301Y-54235217D01*
X184984218Y-54237847D01*
X184965918Y-54674471D01*
X184965789Y-54676962D01*
X184933921Y-55190260D01*
X184933724Y-55192952D01*
X184897060Y-55629580D01*
X184843874Y-56142402D01*
X184843558Y-56145146D01*
X184788661Y-56579711D01*
X184739060Y-56920156D01*
X184715150Y-57084267D01*
X184714319Y-57089968D01*
X184713879Y-57092764D01*
X184640861Y-57524477D01*
X184545452Y-58031447D01*
X184544882Y-58034290D01*
X184453917Y-58462252D01*
X184337587Y-58965073D01*
X184336883Y-58967955D01*
X184228162Y-59391400D01*
X184091094Y-59889201D01*
X184090252Y-59892118D01*
X183963984Y-60310340D01*
X183806373Y-60802326D01*
X183805389Y-60805271D01*
X183661859Y-61217437D01*
X183483909Y-61702879D01*
X183482778Y-61705845D01*
X183322298Y-62111170D01*
X183124290Y-62589205D01*
X183123010Y-62592184D01*
X182945920Y-62989936D01*
X182728090Y-63459888D01*
X182726657Y-63462873D01*
X182533387Y-63852215D01*
X182296038Y-64313317D01*
X182294450Y-64316300D01*
X182085388Y-64696584D01*
X181828835Y-65148098D01*
X181827090Y-65151071D01*
X181602759Y-65521488D01*
X181327350Y-65962684D01*
X181325445Y-65965640D01*
X181086307Y-66325573D01*
X180792403Y-66755741D01*
X180790338Y-66758672D01*
X180536949Y-67107433D01*
X180224927Y-67525880D01*
X180222700Y-67528776D01*
X179955691Y-67865659D01*
X179625892Y-68271781D01*
X179623502Y-68274635D01*
X179343483Y-68599041D01*
X178996387Y-68992088D01*
X178993834Y-68994891D01*
X178701468Y-69306230D01*
X178337430Y-69685633D01*
X178334715Y-69688375D01*
X178030761Y-69986030D01*
X177650233Y-70351146D01*
X177647356Y-70353820D01*
X177332538Y-70637284D01*
X176935900Y-70987549D01*
X176932863Y-70990145D01*
X176608189Y-71258740D01*
X176195723Y-71593692D01*
X176192525Y-71596203D01*
X175858846Y-71849479D01*
X175430978Y-72168525D01*
X175427624Y-72170940D01*
X175085941Y-72408416D01*
X174642929Y-72711095D01*
X174639419Y-72713407D01*
X174290920Y-72934571D01*
X173833048Y-73220388D01*
X173829387Y-73222586D01*
X173475192Y-73427082D01*
X173002661Y-73695574D01*
X172998852Y-73697651D01*
X172640331Y-73885081D01*
X172153256Y-74135799D01*
X172149303Y-74137745D01*
X171788126Y-74307703D01*
X171286217Y-74540346D01*
X171282123Y-74542155D01*
X170920206Y-74694292D01*
X170403103Y-74908481D01*
X170398874Y-74910143D01*
X170038580Y-75044136D01*
X169505437Y-75239572D01*
X169501077Y-75241079D01*
X169145286Y-75356682D01*
X168594793Y-75533035D01*
X168590309Y-75534379D01*
X168243065Y-75631332D01*
X167672663Y-75788390D01*
X167668061Y-75789563D01*
X167335373Y-75867595D01*
X166740763Y-76005159D01*
X166736049Y-76006154D01*
X166426655Y-76065174D01*
X165800625Y-76182987D01*
X165795807Y-76183796D01*
X165525935Y-76223648D01*
X164853904Y-76321560D01*
X164848988Y-76322177D01*
X164653526Y-76342721D01*
X163902198Y-76420642D01*
X163897196Y-76421059D01*
X163881534Y-76422044D01*
X163878830Y-76422214D01*
X162953017Y-76479693D01*
X162947896Y-76479905D01*
X162001258Y-76499474D01*
X161998695Y-76499500D01*
X128001305Y-76499500D01*
X127998742Y-76499474D01*
X127052104Y-76479905D01*
X127046983Y-76479693D01*
X126121077Y-76422209D01*
X126102805Y-76421059D01*
X126097798Y-76420642D01*
X125346474Y-76342721D01*
X125151010Y-76322177D01*
X125146094Y-76321560D01*
X124474064Y-76223648D01*
X124204191Y-76183796D01*
X124199373Y-76182987D01*
X123573344Y-76065174D01*
X123263950Y-76006154D01*
X123259236Y-76005159D01*
X122664627Y-75867595D01*
X122331937Y-75789563D01*
X122327335Y-75788390D01*
X121756934Y-75631332D01*
X121409689Y-75534379D01*
X121405205Y-75533035D01*
X120854713Y-75356682D01*
X120498922Y-75241079D01*
X120494562Y-75239572D01*
X119961419Y-75044136D01*
X119601124Y-74910144D01*
X119601121Y-74910143D01*
X119601120Y-74910142D01*
X119596894Y-74908482D01*
X119214827Y-74750225D01*
X119079775Y-74694284D01*
X118717875Y-74542155D01*
X118713782Y-74540346D01*
X118680674Y-74525000D01*
X125450000Y-74525000D01*
X125450000Y-75219518D01*
X125450354Y-75226132D01*
X125456400Y-75282371D01*
X125506647Y-75417089D01*
X125592811Y-75532188D01*
X125707910Y-75618352D01*
X125842628Y-75668599D01*
X125898867Y-75674645D01*
X125905482Y-75675000D01*
X126450000Y-75675000D01*
X126450000Y-74525000D01*
X125450000Y-74525000D01*
X118680674Y-74525000D01*
X118211873Y-74307704D01*
X117850696Y-74137746D01*
X117846742Y-74135799D01*
X117359668Y-73885081D01*
X117001147Y-73697651D01*
X116997337Y-73695574D01*
X116983127Y-73687500D01*
X119975001Y-73687500D01*
X119975001Y-73821829D01*
X119975321Y-73828111D01*
X119985493Y-73927695D01*
X120040642Y-74094122D01*
X120132683Y-74243345D01*
X120256654Y-74367316D01*
X120405877Y-74459357D01*
X120572303Y-74514506D01*
X120671890Y-74524680D01*
X120678168Y-74524999D01*
X120949999Y-74524999D01*
X120950000Y-74524998D01*
X120950000Y-73687500D01*
X121450000Y-73687500D01*
X121450000Y-74524999D01*
X121721829Y-74524999D01*
X121728111Y-74524678D01*
X121827695Y-74514506D01*
X121994122Y-74459357D01*
X122143345Y-74367316D01*
X122267316Y-74243345D01*
X122359357Y-74094122D01*
X122382262Y-74025000D01*
X125450000Y-74025000D01*
X126450000Y-74025000D01*
X126450000Y-72875000D01*
X126950000Y-72875000D01*
X126950000Y-75675000D01*
X127494518Y-75675000D01*
X127501132Y-75674645D01*
X127557371Y-75668599D01*
X127692089Y-75618352D01*
X127807188Y-75532188D01*
X127893352Y-75417089D01*
X127943597Y-75282375D01*
X127945332Y-75266245D01*
X127972070Y-75201694D01*
X128029463Y-75161846D01*
X128068622Y-75155500D01*
X128138623Y-75155500D01*
X128142372Y-75155500D01*
X128268872Y-75140140D01*
X128427930Y-75079818D01*
X128567929Y-74983183D01*
X128680734Y-74855852D01*
X128759790Y-74705225D01*
X128800500Y-74540056D01*
X128800500Y-74369944D01*
X128759790Y-74204775D01*
X128680734Y-74054148D01*
X128567929Y-73926817D01*
X128567928Y-73926816D01*
X128567927Y-73926815D01*
X128427930Y-73830182D01*
X128268872Y-73769860D01*
X128146092Y-73754951D01*
X128146080Y-73754950D01*
X128142372Y-73754500D01*
X128074000Y-73754500D01*
X128006961Y-73734815D01*
X127961206Y-73682011D01*
X127950000Y-73630500D01*
X127950000Y-73330481D01*
X127949645Y-73323867D01*
X127943599Y-73267628D01*
X127893352Y-73132910D01*
X127807188Y-73017811D01*
X127692089Y-72931647D01*
X127557371Y-72881400D01*
X127501132Y-72875354D01*
X127494518Y-72875000D01*
X126950000Y-72875000D01*
X126450000Y-72875000D01*
X125905482Y-72875000D01*
X125898867Y-72875354D01*
X125842628Y-72881400D01*
X125707910Y-72931647D01*
X125592811Y-73017811D01*
X125506647Y-73132910D01*
X125456400Y-73267628D01*
X125450354Y-73323867D01*
X125450000Y-73330481D01*
X125450000Y-74025000D01*
X122382262Y-74025000D01*
X122414506Y-73927696D01*
X122424680Y-73828109D01*
X122425000Y-73821831D01*
X122425000Y-73687500D01*
X121450000Y-73687500D01*
X120950000Y-73687500D01*
X119975001Y-73687500D01*
X116983127Y-73687500D01*
X116524807Y-73427082D01*
X116170610Y-73222586D01*
X116166949Y-73220387D01*
X116114265Y-73187500D01*
X119975000Y-73187500D01*
X122424999Y-73187500D01*
X122424999Y-73053170D01*
X122424678Y-73046888D01*
X122414506Y-72947304D01*
X122359357Y-72780877D01*
X122267316Y-72631654D01*
X122143345Y-72507683D01*
X121994122Y-72415642D01*
X121901858Y-72385069D01*
X121844413Y-72345296D01*
X121817590Y-72280781D01*
X121829905Y-72212005D01*
X121877448Y-72160805D01*
X121897527Y-72151182D01*
X121917331Y-72143796D01*
X122032546Y-72057546D01*
X122118796Y-71942331D01*
X122169091Y-71807483D01*
X122175500Y-71747873D01*
X122175500Y-71725000D01*
X122500000Y-71725000D01*
X122500000Y-72269518D01*
X122500354Y-72276132D01*
X122506400Y-72332371D01*
X122556647Y-72467089D01*
X122642811Y-72582188D01*
X122757910Y-72668352D01*
X122892628Y-72718599D01*
X122948867Y-72724645D01*
X122955482Y-72725000D01*
X123650000Y-72725000D01*
X123650000Y-71725000D01*
X124150000Y-71725000D01*
X124150000Y-72725000D01*
X124844518Y-72725000D01*
X124851132Y-72724645D01*
X124907371Y-72718599D01*
X125042089Y-72668352D01*
X125157188Y-72582188D01*
X125243352Y-72467089D01*
X125293599Y-72332371D01*
X125299645Y-72276132D01*
X125300000Y-72269518D01*
X125300000Y-71725000D01*
X124150000Y-71725000D01*
X123650000Y-71725000D01*
X122500000Y-71725000D01*
X122175500Y-71725000D01*
X122175499Y-70977128D01*
X122169091Y-70917517D01*
X122118796Y-70782669D01*
X122032546Y-70667454D01*
X121917331Y-70581204D01*
X121782483Y-70530909D01*
X121722873Y-70524500D01*
X121719551Y-70524500D01*
X121699500Y-70524500D01*
X121632461Y-70504815D01*
X121586706Y-70452011D01*
X121575500Y-70400500D01*
X121575500Y-70261999D01*
X121595185Y-70194960D01*
X121647989Y-70149205D01*
X121699500Y-70137999D01*
X121719561Y-70137999D01*
X121722872Y-70137999D01*
X121782483Y-70131591D01*
X121917331Y-70081296D01*
X122032546Y-69995046D01*
X122118796Y-69879831D01*
X122139247Y-69825000D01*
X122500000Y-69825000D01*
X122500000Y-70369518D01*
X122500354Y-70376132D01*
X122506400Y-70432373D01*
X122524786Y-70481667D01*
X122529770Y-70551359D01*
X122524786Y-70568333D01*
X122506400Y-70617626D01*
X122500354Y-70673867D01*
X122500000Y-70680481D01*
X122500000Y-71225000D01*
X123650000Y-71225000D01*
X123650000Y-69825000D01*
X124150000Y-69825000D01*
X124150000Y-71225000D01*
X125300000Y-71225000D01*
X125300000Y-70680481D01*
X125299646Y-70673885D01*
X125293597Y-70617621D01*
X125275214Y-70568335D01*
X125270228Y-70498643D01*
X125275214Y-70481665D01*
X125293597Y-70432378D01*
X125299646Y-70376114D01*
X125300000Y-70369518D01*
X125300000Y-69825000D01*
X124150000Y-69825000D01*
X123650000Y-69825000D01*
X122500000Y-69825000D01*
X122139247Y-69825000D01*
X122169091Y-69744983D01*
X122175500Y-69685373D01*
X122175499Y-68914628D01*
X122175379Y-68913518D01*
X122191354Y-68845927D01*
X122211421Y-68819614D01*
X122288321Y-68742714D01*
X122349642Y-68709231D01*
X122419334Y-68714215D01*
X122475267Y-68756087D01*
X122499684Y-68821551D01*
X122500000Y-68830397D01*
X122499999Y-69324999D01*
X122500000Y-69325000D01*
X125300000Y-69325000D01*
X125300000Y-68780481D01*
X125299645Y-68773867D01*
X125293599Y-68717628D01*
X125243352Y-68582910D01*
X125157188Y-68467810D01*
X125100189Y-68425141D01*
X125058318Y-68369207D01*
X125050500Y-68325874D01*
X125050500Y-66900325D01*
X125035966Y-66827261D01*
X125035966Y-66827260D01*
X125013668Y-66793888D01*
X124992791Y-66727213D01*
X125011276Y-66659833D01*
X125013645Y-66656145D01*
X125035966Y-66622740D01*
X125050500Y-66549674D01*
X125050500Y-66274500D01*
X125070185Y-66207461D01*
X125122989Y-66161706D01*
X125174500Y-66150500D01*
X128798195Y-66150500D01*
X128823641Y-66153139D01*
X128827440Y-66153935D01*
X128834268Y-66155367D01*
X128864138Y-66151643D01*
X128865677Y-66151452D01*
X128881014Y-66150500D01*
X128881111Y-66150500D01*
X128881114Y-66150500D01*
X128901643Y-66147073D01*
X128906659Y-66146342D01*
X128958626Y-66139866D01*
X128958628Y-66139864D01*
X128966457Y-66138889D01*
X128966666Y-66138822D01*
X128973607Y-66135065D01*
X128973610Y-66135065D01*
X129019666Y-66110140D01*
X129024144Y-66107835D01*
X129071211Y-66084826D01*
X129071212Y-66084824D01*
X129078308Y-66081356D01*
X129078476Y-66081230D01*
X129083824Y-66075419D01*
X129083826Y-66075419D01*
X129119294Y-66036889D01*
X129122795Y-66033240D01*
X131710402Y-63445633D01*
X131771723Y-63412150D01*
X131841415Y-63417134D01*
X131897348Y-63459006D01*
X131914022Y-63489343D01*
X131919778Y-63504521D01*
X132009515Y-63634528D01*
X132009516Y-63634529D01*
X132009517Y-63634530D01*
X132127760Y-63739283D01*
X132267635Y-63812696D01*
X132421015Y-63850500D01*
X132578985Y-63850500D01*
X132732365Y-63812696D01*
X132872240Y-63739283D01*
X132990483Y-63634530D01*
X133080220Y-63504523D01*
X133136237Y-63356818D01*
X133155278Y-63200000D01*
X133136237Y-63043182D01*
X133080220Y-62895477D01*
X132990483Y-62765470D01*
X132917271Y-62700610D01*
X132880145Y-62641422D01*
X132875500Y-62607803D01*
X132875500Y-62349500D01*
X132895185Y-62282460D01*
X132947989Y-62236705D01*
X132999500Y-62225500D01*
X133050874Y-62225500D01*
X133117913Y-62245185D01*
X133150141Y-62275189D01*
X133192810Y-62332188D01*
X133307910Y-62418352D01*
X133442628Y-62468599D01*
X133498867Y-62474645D01*
X133505482Y-62475000D01*
X134050000Y-62475000D01*
X134050000Y-59675000D01*
X133505482Y-59675000D01*
X133498867Y-59675354D01*
X133442628Y-59681400D01*
X133307910Y-59731647D01*
X133192810Y-59817811D01*
X133150141Y-59874811D01*
X133094207Y-59916682D01*
X133050874Y-59924500D01*
X131625325Y-59924500D01*
X131552259Y-59939034D01*
X131518889Y-59961331D01*
X131452211Y-59982208D01*
X131384832Y-59963722D01*
X131381111Y-59961331D01*
X131347740Y-59939034D01*
X131274675Y-59924500D01*
X131274674Y-59924500D01*
X129725326Y-59924500D01*
X129725325Y-59924500D01*
X129652259Y-59939034D01*
X129618887Y-59961332D01*
X129552209Y-59982208D01*
X129484830Y-59963722D01*
X129481145Y-59961354D01*
X129447740Y-59939034D01*
X129447739Y-59939033D01*
X129447738Y-59939033D01*
X129374675Y-59924500D01*
X129374674Y-59924500D01*
X127949126Y-59924500D01*
X127882087Y-59904815D01*
X127849859Y-59874811D01*
X127807189Y-59817811D01*
X127692089Y-59731647D01*
X127557371Y-59681400D01*
X127501132Y-59675354D01*
X127494518Y-59675000D01*
X126950000Y-59675000D01*
X126950000Y-61201000D01*
X126930315Y-61268039D01*
X126877511Y-61313794D01*
X126826000Y-61325000D01*
X125450000Y-61325000D01*
X125450000Y-62000500D01*
X125430315Y-62067539D01*
X125377511Y-62113294D01*
X125326000Y-62124500D01*
X122119401Y-62124500D01*
X122052362Y-62104815D01*
X122031718Y-62088179D01*
X122011817Y-62068277D01*
X121978333Y-62006953D01*
X121975500Y-61980598D01*
X121975500Y-61544135D01*
X121975500Y-61544134D01*
X121975500Y-61540826D01*
X121969251Y-61482701D01*
X121920212Y-61351222D01*
X121836116Y-61238884D01*
X121723778Y-61154788D01*
X121592299Y-61105749D01*
X121592299Y-61105748D01*
X121537460Y-61099853D01*
X121537454Y-61099852D01*
X121534174Y-61099500D01*
X120965826Y-61099500D01*
X120962546Y-61099852D01*
X120962539Y-61099853D01*
X120907700Y-61105749D01*
X120776222Y-61154788D01*
X120663884Y-61238884D01*
X120579788Y-61351222D01*
X120530749Y-61482700D01*
X120525362Y-61532810D01*
X120524500Y-61540826D01*
X120524500Y-62134174D01*
X120524852Y-62137454D01*
X120524853Y-62137460D01*
X120528114Y-62167791D01*
X120530749Y-62192299D01*
X120579788Y-62323778D01*
X120663884Y-62436116D01*
X120776222Y-62520212D01*
X120907701Y-62569251D01*
X120965826Y-62575500D01*
X121405601Y-62575500D01*
X121472640Y-62595185D01*
X121493282Y-62611819D01*
X121594282Y-62712819D01*
X121627767Y-62774142D01*
X121622783Y-62843834D01*
X121580911Y-62899767D01*
X121515447Y-62924184D01*
X121506601Y-62924500D01*
X120965826Y-62924500D01*
X120962546Y-62924852D01*
X120962539Y-62924853D01*
X120907700Y-62930749D01*
X120776222Y-62979788D01*
X120663884Y-63063884D01*
X120579788Y-63176222D01*
X120530749Y-63307700D01*
X120525934Y-63352492D01*
X120524500Y-63365826D01*
X120524500Y-63959174D01*
X120530749Y-64017299D01*
X120579788Y-64148778D01*
X120663884Y-64261116D01*
X120776222Y-64345212D01*
X120907701Y-64394251D01*
X120965826Y-64400500D01*
X121405601Y-64400500D01*
X121472640Y-64420185D01*
X121493282Y-64436819D01*
X122713182Y-65656719D01*
X122746666Y-65718040D01*
X122749500Y-65744398D01*
X122749500Y-66549674D01*
X122764034Y-66622740D01*
X122786331Y-66656111D01*
X122807208Y-66722789D01*
X122788722Y-66790168D01*
X122786331Y-66793889D01*
X122764034Y-66827259D01*
X122749499Y-66900325D01*
X122749499Y-67215011D01*
X122729814Y-67282051D01*
X122684512Y-67324068D01*
X122655369Y-67339838D01*
X122650820Y-67342180D01*
X122596715Y-67368632D01*
X122596505Y-67368788D01*
X122555731Y-67413080D01*
X122552186Y-67416774D01*
X122530282Y-67438679D01*
X122468960Y-67472166D01*
X122442599Y-67475000D01*
X119975001Y-67475000D01*
X119975001Y-67609329D01*
X119975321Y-67615611D01*
X119985493Y-67715195D01*
X120040642Y-67881622D01*
X120132683Y-68030845D01*
X120256654Y-68154816D01*
X120405878Y-68246858D01*
X120498140Y-68277430D01*
X120555585Y-68317202D01*
X120582409Y-68381718D01*
X120570094Y-68450494D01*
X120522552Y-68501694D01*
X120502473Y-68511317D01*
X120482670Y-68518703D01*
X120367454Y-68604954D01*
X120281204Y-68720168D01*
X120240092Y-68830397D01*
X120230909Y-68855017D01*
X120224500Y-68914627D01*
X120224500Y-68917948D01*
X120224500Y-68917949D01*
X120224500Y-69682060D01*
X120224500Y-69682078D01*
X120224501Y-69685372D01*
X120224853Y-69688652D01*
X120224854Y-69688659D01*
X120230909Y-69744984D01*
X120256056Y-69812407D01*
X120281204Y-69879831D01*
X120367454Y-69995046D01*
X120482669Y-70081296D01*
X120617517Y-70131591D01*
X120677127Y-70138000D01*
X120700497Y-70137999D01*
X120767535Y-70157681D01*
X120813292Y-70210483D01*
X120824500Y-70261999D01*
X120824500Y-70400500D01*
X120804815Y-70467539D01*
X120752011Y-70513294D01*
X120700505Y-70524500D01*
X120680441Y-70524500D01*
X120680422Y-70524500D01*
X120677128Y-70524501D01*
X120673848Y-70524853D01*
X120673840Y-70524854D01*
X120617515Y-70530909D01*
X120482669Y-70581204D01*
X120367454Y-70667454D01*
X120281204Y-70782668D01*
X120230910Y-70917515D01*
X120230909Y-70917517D01*
X120224500Y-70977127D01*
X120224500Y-70980448D01*
X120224500Y-70980449D01*
X120224500Y-71744560D01*
X120224500Y-71744578D01*
X120224501Y-71747872D01*
X120224853Y-71751152D01*
X120224854Y-71751159D01*
X120230909Y-71807484D01*
X120243013Y-71839935D01*
X120281204Y-71942331D01*
X120367454Y-72057546D01*
X120482669Y-72143796D01*
X120502470Y-72151181D01*
X120558404Y-72193052D01*
X120582821Y-72258517D01*
X120567969Y-72326790D01*
X120518564Y-72376195D01*
X120498141Y-72385069D01*
X120405877Y-72415642D01*
X120256654Y-72507683D01*
X120132683Y-72631654D01*
X120040642Y-72780877D01*
X119985493Y-72947303D01*
X119975319Y-73046890D01*
X119975000Y-73053168D01*
X119975000Y-73187500D01*
X116114265Y-73187500D01*
X115709079Y-72934571D01*
X115360579Y-72713406D01*
X115357070Y-72711095D01*
X114914060Y-72408417D01*
X114572375Y-72170940D01*
X114569043Y-72168542D01*
X114141122Y-71849456D01*
X113807461Y-71596193D01*
X113804325Y-71593731D01*
X113391809Y-71258740D01*
X113299248Y-71182167D01*
X113067136Y-70990145D01*
X113064099Y-70987549D01*
X112667462Y-70637284D01*
X112514991Y-70499999D01*
X115494356Y-70499999D01*
X115514891Y-70747816D01*
X115514891Y-70747819D01*
X115514892Y-70747821D01*
X115575937Y-70988881D01*
X115620960Y-71091523D01*
X115675825Y-71216604D01*
X115675827Y-71216607D01*
X115811836Y-71424785D01*
X115980256Y-71607738D01*
X115980259Y-71607740D01*
X116176485Y-71760470D01*
X116176487Y-71760471D01*
X116176491Y-71760474D01*
X116395190Y-71878828D01*
X116630386Y-71959571D01*
X116875665Y-72000500D01*
X117124335Y-72000500D01*
X117369614Y-71959571D01*
X117604810Y-71878828D01*
X117823509Y-71760474D01*
X118019744Y-71607738D01*
X118188164Y-71424785D01*
X118324173Y-71216607D01*
X118424063Y-70988881D01*
X118485108Y-70747821D01*
X118505643Y-70500000D01*
X118485108Y-70252179D01*
X118424063Y-70011119D01*
X118325456Y-69786317D01*
X118324174Y-69783395D01*
X118299079Y-69744984D01*
X118188164Y-69575215D01*
X118019744Y-69392262D01*
X117997612Y-69375036D01*
X117823514Y-69239529D01*
X117823510Y-69239526D01*
X117823509Y-69239526D01*
X117604810Y-69121172D01*
X117604806Y-69121170D01*
X117604805Y-69121170D01*
X117369615Y-69040429D01*
X117124335Y-68999500D01*
X116875665Y-68999500D01*
X116630384Y-69040429D01*
X116395194Y-69121170D01*
X116176485Y-69239529D01*
X115980259Y-69392259D01*
X115811837Y-69575214D01*
X115675825Y-69783395D01*
X115587412Y-69984959D01*
X115575937Y-70011119D01*
X115530364Y-70191081D01*
X115514891Y-70252183D01*
X115494356Y-70499999D01*
X112514991Y-70499999D01*
X112377402Y-70376114D01*
X112352637Y-70353815D01*
X112349764Y-70351145D01*
X112246620Y-70252179D01*
X111981270Y-69997576D01*
X111969238Y-69986031D01*
X111665282Y-69688375D01*
X111662568Y-69685633D01*
X111298531Y-69306230D01*
X111214263Y-69216494D01*
X111006151Y-68994877D01*
X111003612Y-68992088D01*
X110656516Y-68599040D01*
X110376496Y-68274634D01*
X110374107Y-68271780D01*
X110044309Y-67865659D01*
X109777298Y-67528776D01*
X109775071Y-67525880D01*
X109652736Y-67361818D01*
X109463042Y-67107422D01*
X109435768Y-67069882D01*
X109276014Y-66850000D01*
X112400000Y-66850000D01*
X112400000Y-67644518D01*
X112400354Y-67651132D01*
X112406400Y-67707371D01*
X112456647Y-67842089D01*
X112542811Y-67957188D01*
X112657910Y-68043352D01*
X112792628Y-68093599D01*
X112848867Y-68099645D01*
X112855482Y-68100000D01*
X113450000Y-68100000D01*
X113450000Y-66850000D01*
X113950000Y-66850000D01*
X113950000Y-68100000D01*
X114544518Y-68100000D01*
X114551132Y-68099645D01*
X114607371Y-68093599D01*
X114742089Y-68043352D01*
X114857188Y-67957188D01*
X114943352Y-67842089D01*
X114993599Y-67707371D01*
X114999645Y-67651132D01*
X115000000Y-67644518D01*
X115000000Y-66850000D01*
X116500000Y-66850000D01*
X116500000Y-67644518D01*
X116500354Y-67651132D01*
X116506400Y-67707371D01*
X116556647Y-67842089D01*
X116642811Y-67957188D01*
X116757910Y-68043352D01*
X116892628Y-68093599D01*
X116948867Y-68099645D01*
X116955482Y-68100000D01*
X117550000Y-68100000D01*
X117550000Y-66850000D01*
X118050000Y-66850000D01*
X118050000Y-68100000D01*
X118644518Y-68100000D01*
X118651132Y-68099645D01*
X118707371Y-68093599D01*
X118842089Y-68043352D01*
X118957188Y-67957188D01*
X119043352Y-67842089D01*
X119093599Y-67707371D01*
X119099645Y-67651132D01*
X119100000Y-67644518D01*
X119100000Y-66975000D01*
X119975000Y-66975000D01*
X120950000Y-66975000D01*
X120950000Y-66137500D01*
X121450000Y-66137500D01*
X121450000Y-66975000D01*
X122424999Y-66975000D01*
X122424999Y-66840670D01*
X122424678Y-66834388D01*
X122414506Y-66734804D01*
X122359357Y-66568377D01*
X122267316Y-66419154D01*
X122143345Y-66295183D01*
X121994122Y-66203142D01*
X121827696Y-66147993D01*
X121728109Y-66137819D01*
X121721832Y-66137500D01*
X121450000Y-66137500D01*
X120950000Y-66137500D01*
X120678171Y-66137500D01*
X120671888Y-66137821D01*
X120572304Y-66147993D01*
X120405877Y-66203142D01*
X120256654Y-66295183D01*
X120132683Y-66419154D01*
X120040642Y-66568377D01*
X119985493Y-66734803D01*
X119975319Y-66834390D01*
X119975000Y-66840668D01*
X119975000Y-66975000D01*
X119100000Y-66975000D01*
X119100000Y-66850000D01*
X118050000Y-66850000D01*
X117550000Y-66850000D01*
X116500000Y-66850000D01*
X115000000Y-66850000D01*
X113950000Y-66850000D01*
X113450000Y-66850000D01*
X112400000Y-66850000D01*
X109276014Y-66850000D01*
X109209643Y-66758648D01*
X109207595Y-66755741D01*
X108930380Y-66349999D01*
X112399999Y-66349999D01*
X112400000Y-66350000D01*
X113450000Y-66350000D01*
X113450000Y-65100000D01*
X113950000Y-65100000D01*
X113950000Y-66350000D01*
X115000000Y-66350000D01*
X116500000Y-66350000D01*
X117550000Y-66350000D01*
X117550000Y-65100000D01*
X118050000Y-65100000D01*
X118050000Y-66350000D01*
X119100000Y-66350000D01*
X119100000Y-65555481D01*
X119099645Y-65548867D01*
X119093599Y-65492628D01*
X119043352Y-65357910D01*
X118957188Y-65242811D01*
X118842089Y-65156647D01*
X118707371Y-65106400D01*
X118651132Y-65100354D01*
X118644518Y-65100000D01*
X118050000Y-65100000D01*
X117550000Y-65100000D01*
X116955482Y-65100000D01*
X116948867Y-65100354D01*
X116892628Y-65106400D01*
X116757910Y-65156647D01*
X116642811Y-65242811D01*
X116556647Y-65357910D01*
X116506400Y-65492628D01*
X116500354Y-65548867D01*
X116500000Y-65555481D01*
X116500000Y-66350000D01*
X115000000Y-66350000D01*
X115000000Y-65555481D01*
X114999645Y-65548867D01*
X114993599Y-65492628D01*
X114943352Y-65357910D01*
X114857188Y-65242811D01*
X114742089Y-65156647D01*
X114607371Y-65106400D01*
X114551132Y-65100354D01*
X114544518Y-65100000D01*
X113950000Y-65100000D01*
X113450000Y-65100000D01*
X112855482Y-65100000D01*
X112848867Y-65100354D01*
X112792628Y-65106400D01*
X112657910Y-65156647D01*
X112542811Y-65242811D01*
X112456647Y-65357910D01*
X112406400Y-65492628D01*
X112400354Y-65548867D01*
X112400000Y-65555481D01*
X112399999Y-66349999D01*
X108930380Y-66349999D01*
X108913692Y-66325574D01*
X108674553Y-65965640D01*
X108672649Y-65962684D01*
X108528936Y-65732461D01*
X108397225Y-65521463D01*
X108172879Y-65151024D01*
X108171162Y-65148097D01*
X108132747Y-65080489D01*
X107914612Y-64696584D01*
X107705480Y-64316176D01*
X107704000Y-64313393D01*
X107466613Y-63852215D01*
X107273312Y-63462814D01*
X107271935Y-63459944D01*
X107054072Y-62989921D01*
X107031879Y-62940073D01*
X106876978Y-62592159D01*
X106875728Y-62589251D01*
X106677701Y-62111170D01*
X106656848Y-62058501D01*
X106517193Y-61705774D01*
X106516105Y-61702920D01*
X106338131Y-61217411D01*
X106321685Y-61170185D01*
X106194606Y-60805264D01*
X106193625Y-60802326D01*
X106184283Y-60773165D01*
X106036013Y-60310336D01*
X106026141Y-60277636D01*
X105909735Y-59892082D01*
X105908924Y-59889273D01*
X105771834Y-59391389D01*
X105758003Y-59337519D01*
X105663092Y-58967866D01*
X105662411Y-58965072D01*
X105576524Y-58593834D01*
X105546081Y-58462247D01*
X105533416Y-58402660D01*
X105463769Y-58075000D01*
X109044529Y-58075000D01*
X109107685Y-58245530D01*
X109209890Y-58409501D01*
X109343003Y-58549535D01*
X109501585Y-58659912D01*
X109679137Y-58736106D01*
X109868395Y-58775000D01*
X110115000Y-58775000D01*
X110115000Y-58125000D01*
X110615000Y-58125000D01*
X110615000Y-58775000D01*
X110810033Y-58775000D01*
X110816298Y-58774682D01*
X110957222Y-58760351D01*
X111141569Y-58702511D01*
X111310503Y-58608746D01*
X111457104Y-58482894D01*
X111575368Y-58330109D01*
X111660458Y-58156641D01*
X111681597Y-58075000D01*
X110931111Y-58075000D01*
X110970610Y-58050543D01*
X111038201Y-57961038D01*
X111068895Y-57853160D01*
X111058546Y-57741479D01*
X111008552Y-57641078D01*
X110936069Y-57575000D01*
X111685471Y-57575000D01*
X111685471Y-57574999D01*
X111622314Y-57404469D01*
X111520109Y-57240498D01*
X111386996Y-57100464D01*
X111228414Y-56990087D01*
X111050862Y-56913893D01*
X110861605Y-56875000D01*
X110615000Y-56875000D01*
X110615000Y-57525000D01*
X110115000Y-57525000D01*
X110115000Y-56875000D01*
X109919967Y-56875000D01*
X109913701Y-56875317D01*
X109772777Y-56889648D01*
X109588430Y-56947488D01*
X109419496Y-57041253D01*
X109272895Y-57167105D01*
X109154631Y-57319890D01*
X109069541Y-57493358D01*
X109048403Y-57575000D01*
X109798889Y-57575000D01*
X109759390Y-57599457D01*
X109691799Y-57688962D01*
X109661105Y-57796840D01*
X109671454Y-57908521D01*
X109721448Y-58008922D01*
X109793931Y-58075000D01*
X109044529Y-58075000D01*
X105463769Y-58075000D01*
X105455112Y-58034274D01*
X105454546Y-58031447D01*
X105431412Y-57908521D01*
X105389947Y-57688181D01*
X105359139Y-57524477D01*
X105338841Y-57404469D01*
X105286103Y-57092664D01*
X105285715Y-57090203D01*
X105211337Y-56579706D01*
X105156426Y-56145036D01*
X105156132Y-56142479D01*
X105102938Y-55629567D01*
X105102738Y-55627180D01*
X105066263Y-55192812D01*
X105066083Y-55190357D01*
X105034205Y-54676889D01*
X105034083Y-54674546D01*
X105016813Y-54262500D01*
X109825001Y-54262500D01*
X109825001Y-54308497D01*
X109825321Y-54314779D01*
X109835318Y-54412650D01*
X109889546Y-54576301D01*
X109980056Y-54723040D01*
X110101959Y-54844943D01*
X110248698Y-54935453D01*
X110412348Y-54989681D01*
X110510203Y-54999678D01*
X110516519Y-54999999D01*
X110549999Y-54999999D01*
X110550000Y-54262500D01*
X111050000Y-54262500D01*
X111050000Y-54999999D01*
X111083497Y-54999999D01*
X111089779Y-54999678D01*
X111187650Y-54989681D01*
X111351301Y-54935453D01*
X111498040Y-54844943D01*
X111619943Y-54723040D01*
X111710453Y-54576301D01*
X111764681Y-54412651D01*
X111774680Y-54314777D01*
X111775000Y-54308499D01*
X111775000Y-54262500D01*
X111050000Y-54262500D01*
X110550000Y-54262500D01*
X109825001Y-54262500D01*
X105016813Y-54262500D01*
X105015777Y-54237770D01*
X105015699Y-54235291D01*
X105005926Y-53762500D01*
X109825000Y-53762500D01*
X111774999Y-53762500D01*
X111774999Y-53716502D01*
X111774678Y-53710220D01*
X111764681Y-53612349D01*
X111710453Y-53448698D01*
X111619943Y-53301959D01*
X111498040Y-53180056D01*
X111351301Y-53089546D01*
X111319850Y-53079125D01*
X111262405Y-53039353D01*
X111235582Y-52974837D01*
X111247897Y-52906061D01*
X111284542Y-52862153D01*
X111386116Y-52786116D01*
X111470212Y-52673778D01*
X111470212Y-52673775D01*
X111480896Y-52659505D01*
X111482674Y-52660836D01*
X111509330Y-52625231D01*
X111574796Y-52600816D01*
X111583638Y-52600500D01*
X112735988Y-52600500D01*
X112803027Y-52620185D01*
X112848782Y-52672989D01*
X112858726Y-52742147D01*
X112850549Y-52771952D01*
X112789956Y-52918237D01*
X112769317Y-53075000D01*
X112789956Y-53231762D01*
X112850463Y-53377840D01*
X112886277Y-53424515D01*
X112911470Y-53489684D01*
X112897431Y-53558129D01*
X112886277Y-53575485D01*
X112850463Y-53622159D01*
X112789956Y-53768237D01*
X112769317Y-53924999D01*
X112789956Y-54081762D01*
X112850463Y-54227840D01*
X112886277Y-54274515D01*
X112911470Y-54339684D01*
X112897431Y-54408129D01*
X112886277Y-54425485D01*
X112850463Y-54472159D01*
X112789956Y-54618237D01*
X112769317Y-54775000D01*
X112789956Y-54931762D01*
X112850463Y-55077840D01*
X112886276Y-55124513D01*
X112911470Y-55189682D01*
X112897431Y-55258127D01*
X112886277Y-55275483D01*
X112850464Y-55322156D01*
X112789956Y-55468237D01*
X112769317Y-55624999D01*
X112789956Y-55781762D01*
X112850463Y-55927840D01*
X112939348Y-56043678D01*
X112942407Y-56051590D01*
X112956313Y-56060644D01*
X113072159Y-56149536D01*
X113218238Y-56210044D01*
X113375000Y-56230682D01*
X113410901Y-56225955D01*
X113479933Y-56236720D01*
X113514766Y-56261212D01*
X113640872Y-56387317D01*
X113674357Y-56448640D01*
X113669373Y-56518332D01*
X113640872Y-56562680D01*
X113462680Y-56740872D01*
X113401357Y-56774357D01*
X113331665Y-56769373D01*
X113287318Y-56740872D01*
X113067095Y-56520649D01*
X113175000Y-56520649D01*
X113214613Y-56602905D01*
X113285992Y-56659827D01*
X113352468Y-56675000D01*
X113397532Y-56675000D01*
X113464008Y-56659827D01*
X113535387Y-56602905D01*
X113575000Y-56520649D01*
X113575000Y-56429351D01*
X113535387Y-56347095D01*
X113464008Y-56290173D01*
X113397532Y-56275000D01*
X113352468Y-56275000D01*
X113285992Y-56290173D01*
X113214613Y-56347095D01*
X113175000Y-56429351D01*
X113175000Y-56520649D01*
X113067095Y-56520649D01*
X112793155Y-56246708D01*
X112780720Y-56223935D01*
X112767848Y-56219308D01*
X112753291Y-56206845D01*
X112623347Y-56076901D01*
X112623346Y-56076901D01*
X112594208Y-56127369D01*
X112538995Y-56297300D01*
X112520318Y-56475000D01*
X112538995Y-56652699D01*
X112598236Y-56835025D01*
X112595900Y-56835783D01*
X112608094Y-56886059D01*
X112585238Y-56952085D01*
X112544413Y-56988570D01*
X112449495Y-57041254D01*
X112302895Y-57167105D01*
X112184631Y-57319890D01*
X112099541Y-57493358D01*
X112078403Y-57575000D01*
X112828889Y-57575000D01*
X112789390Y-57599457D01*
X112721799Y-57688962D01*
X112691105Y-57796840D01*
X112701454Y-57908521D01*
X112751448Y-58008922D01*
X112823931Y-58075000D01*
X112074529Y-58075000D01*
X112137685Y-58245530D01*
X112239890Y-58409501D01*
X112373003Y-58549535D01*
X112531585Y-58659912D01*
X112709137Y-58736106D01*
X112898395Y-58775000D01*
X113495000Y-58775000D01*
X113495000Y-58125000D01*
X113995000Y-58125000D01*
X113995000Y-58775000D01*
X114540033Y-58775000D01*
X114546298Y-58774682D01*
X114687222Y-58760351D01*
X114871569Y-58702511D01*
X115040503Y-58608746D01*
X115187104Y-58482894D01*
X115305368Y-58330109D01*
X115390458Y-58156641D01*
X115411597Y-58075000D01*
X114661111Y-58075000D01*
X114700610Y-58050543D01*
X114768201Y-57961038D01*
X114798895Y-57853160D01*
X114788546Y-57741479D01*
X114738552Y-57641078D01*
X114666069Y-57575000D01*
X115415471Y-57575000D01*
X115415471Y-57574999D01*
X115352314Y-57404469D01*
X115250109Y-57240498D01*
X115118881Y-57102446D01*
X115086960Y-57040294D01*
X115093708Y-56970751D01*
X115133268Y-56918638D01*
X115153282Y-56903282D01*
X115249536Y-56777841D01*
X115310044Y-56631762D01*
X115330682Y-56475000D01*
X115310044Y-56318238D01*
X115249536Y-56172159D01*
X115213722Y-56125486D01*
X115188528Y-56060318D01*
X115202566Y-55991873D01*
X115213723Y-55974513D01*
X115249536Y-55927841D01*
X115310044Y-55781762D01*
X115330682Y-55625000D01*
X115310044Y-55468238D01*
X115278597Y-55392318D01*
X115249451Y-55321952D01*
X115241982Y-55252483D01*
X115273257Y-55190004D01*
X115333347Y-55154352D01*
X115364012Y-55150500D01*
X116188389Y-55150500D01*
X116255428Y-55170185D01*
X116301183Y-55222989D01*
X116304565Y-55231154D01*
X116329788Y-55298778D01*
X116413884Y-55411116D01*
X116526222Y-55495212D01*
X116657701Y-55544251D01*
X116715826Y-55550500D01*
X116719136Y-55550500D01*
X117280864Y-55550500D01*
X117284174Y-55550500D01*
X117342299Y-55544251D01*
X117473778Y-55495212D01*
X117586116Y-55411116D01*
X117670212Y-55298778D01*
X117719251Y-55167299D01*
X117725500Y-55109174D01*
X117725500Y-54515826D01*
X117719251Y-54457701D01*
X117670212Y-54326222D01*
X117586116Y-54213884D01*
X117484542Y-54137846D01*
X117442672Y-54081913D01*
X117437688Y-54012222D01*
X117471173Y-53950899D01*
X117519853Y-53920873D01*
X117551302Y-53910452D01*
X117698040Y-53819943D01*
X117819943Y-53698040D01*
X117910453Y-53551301D01*
X117964681Y-53387651D01*
X117974680Y-53289777D01*
X117975000Y-53283499D01*
X117975000Y-53237500D01*
X116025001Y-53237500D01*
X116025001Y-53283497D01*
X116025321Y-53289779D01*
X116035318Y-53387650D01*
X116089546Y-53551301D01*
X116180056Y-53698040D01*
X116301959Y-53819943D01*
X116448696Y-53910452D01*
X116480147Y-53920873D01*
X116537593Y-53960645D01*
X116564417Y-54025160D01*
X116552103Y-54093936D01*
X116515456Y-54137847D01*
X116413884Y-54213883D01*
X116380969Y-54257853D01*
X116329788Y-54326222D01*
X116329787Y-54326223D01*
X116319104Y-54340495D01*
X116317325Y-54339163D01*
X116290670Y-54374769D01*
X116225204Y-54399184D01*
X116216362Y-54399500D01*
X115364012Y-54399500D01*
X115296973Y-54379815D01*
X115251218Y-54327011D01*
X115241274Y-54257853D01*
X115249451Y-54228048D01*
X115285439Y-54141164D01*
X115310044Y-54081762D01*
X115330682Y-53925000D01*
X115310044Y-53768238D01*
X115254660Y-53634530D01*
X115249537Y-53622161D01*
X115249536Y-53622160D01*
X115249536Y-53622159D01*
X115213721Y-53575484D01*
X115188528Y-53510316D01*
X115202566Y-53441872D01*
X115213719Y-53424517D01*
X115249536Y-53377841D01*
X115310044Y-53231762D01*
X115330682Y-53075000D01*
X115310044Y-52918238D01*
X115249536Y-52772159D01*
X115222941Y-52737500D01*
X116025000Y-52737500D01*
X116750000Y-52737500D01*
X116750000Y-52000000D01*
X117250000Y-52000000D01*
X117250000Y-52737500D01*
X117974999Y-52737500D01*
X117974999Y-52691502D01*
X117974678Y-52685220D01*
X117964681Y-52587349D01*
X117910453Y-52423698D01*
X117819943Y-52276959D01*
X117698040Y-52155056D01*
X117551301Y-52064546D01*
X117387651Y-52010318D01*
X117289777Y-52000319D01*
X117283500Y-52000000D01*
X117250000Y-52000000D01*
X116750000Y-52000000D01*
X116716504Y-52000000D01*
X116710219Y-52000321D01*
X116612349Y-52010318D01*
X116448698Y-52064546D01*
X116301959Y-52155056D01*
X116180056Y-52276959D01*
X116089546Y-52423698D01*
X116035318Y-52587348D01*
X116025319Y-52685222D01*
X116025000Y-52691500D01*
X116025000Y-52737500D01*
X115222941Y-52737500D01*
X115213721Y-52725484D01*
X115188528Y-52660316D01*
X115202566Y-52591872D01*
X115213719Y-52574517D01*
X115249536Y-52527841D01*
X115310044Y-52381762D01*
X115330682Y-52225000D01*
X115330382Y-52222725D01*
X115326837Y-52195797D01*
X115310044Y-52068238D01*
X115249536Y-51922159D01*
X115213722Y-51875485D01*
X115188528Y-51810318D01*
X115202566Y-51741873D01*
X115213723Y-51724513D01*
X115213725Y-51724511D01*
X115249536Y-51677841D01*
X115310044Y-51531762D01*
X115330682Y-51375000D01*
X115310044Y-51218238D01*
X115249536Y-51072159D01*
X115227301Y-51043182D01*
X115160651Y-50956321D01*
X115157591Y-50948407D01*
X115143678Y-50939348D01*
X115027840Y-50850463D01*
X114881762Y-50789956D01*
X114725000Y-50769317D01*
X114689095Y-50774044D01*
X114620060Y-50763276D01*
X114585232Y-50738785D01*
X114459128Y-50612681D01*
X114436177Y-50570649D01*
X114525000Y-50570649D01*
X114564613Y-50652905D01*
X114635992Y-50709827D01*
X114702468Y-50725000D01*
X114747532Y-50725000D01*
X114814008Y-50709827D01*
X114885387Y-50652905D01*
X114925000Y-50570649D01*
X114925000Y-50524998D01*
X115078552Y-50524998D01*
X115306845Y-50753291D01*
X115319279Y-50776063D01*
X115332151Y-50780691D01*
X115346708Y-50793154D01*
X115476651Y-50923097D01*
X115505790Y-50872629D01*
X115561004Y-50702699D01*
X115579681Y-50525000D01*
X115561004Y-50347300D01*
X115505791Y-50177371D01*
X115476651Y-50126900D01*
X115078553Y-50524998D01*
X115078552Y-50524998D01*
X114925000Y-50524998D01*
X114925000Y-50479351D01*
X114885387Y-50397095D01*
X114814008Y-50340173D01*
X114747532Y-50325000D01*
X114702468Y-50325000D01*
X114635992Y-50340173D01*
X114564613Y-50397095D01*
X114525000Y-50479351D01*
X114525000Y-50570649D01*
X114436177Y-50570649D01*
X114425643Y-50551358D01*
X114430627Y-50481666D01*
X114459128Y-50437319D01*
X114725000Y-50171447D01*
X115089867Y-49806579D01*
X115151190Y-49773094D01*
X115196371Y-49776325D01*
X115232673Y-49774023D01*
X115305368Y-49680109D01*
X115390458Y-49506640D01*
X115411597Y-49425000D01*
X114661111Y-49425000D01*
X114700610Y-49400543D01*
X114768201Y-49311038D01*
X114798895Y-49203160D01*
X114788546Y-49091479D01*
X114738552Y-48991078D01*
X114666069Y-48925000D01*
X115415471Y-48925000D01*
X115415471Y-48924999D01*
X115352314Y-48754469D01*
X115250109Y-48590498D01*
X115116996Y-48450464D01*
X114958414Y-48340087D01*
X114780862Y-48263893D01*
X114591605Y-48225000D01*
X113995000Y-48225000D01*
X113995000Y-48875000D01*
X113495000Y-48875000D01*
X113495000Y-48225000D01*
X112949967Y-48225000D01*
X112943701Y-48225317D01*
X112802777Y-48239648D01*
X112618430Y-48297488D01*
X112449496Y-48391253D01*
X112302895Y-48517105D01*
X112184631Y-48669890D01*
X112099541Y-48843358D01*
X112078403Y-48925000D01*
X112828889Y-48925000D01*
X112789390Y-48949457D01*
X112721799Y-49038962D01*
X112691105Y-49146840D01*
X112701454Y-49258521D01*
X112751448Y-49358922D01*
X112823931Y-49425000D01*
X112074529Y-49425000D01*
X112137685Y-49595530D01*
X112239890Y-49759501D01*
X112373003Y-49899535D01*
X112531585Y-50009912D01*
X112709137Y-50086106D01*
X112744261Y-50093324D01*
X112805966Y-50126100D01*
X112840155Y-50187033D01*
X112835975Y-50256777D01*
X112833862Y-50262238D01*
X112789956Y-50368237D01*
X112769317Y-50524999D01*
X112789956Y-50681762D01*
X112850463Y-50827840D01*
X112886276Y-50874513D01*
X112911470Y-50939682D01*
X112897431Y-51008127D01*
X112886277Y-51025483D01*
X112850464Y-51072156D01*
X112789956Y-51218237D01*
X112769317Y-51375000D01*
X112789956Y-51531762D01*
X112850549Y-51678048D01*
X112858018Y-51747517D01*
X112826743Y-51809996D01*
X112766653Y-51845648D01*
X112735988Y-51849500D01*
X111611611Y-51849500D01*
X111544572Y-51829815D01*
X111498817Y-51777011D01*
X111495434Y-51768845D01*
X111470212Y-51701222D01*
X111386116Y-51588884D01*
X111273778Y-51504788D01*
X111142299Y-51455749D01*
X111142298Y-51455748D01*
X111087460Y-51449853D01*
X111087454Y-51449852D01*
X111084174Y-51449500D01*
X110515826Y-51449500D01*
X110512546Y-51449852D01*
X110512539Y-51449853D01*
X110457700Y-51455749D01*
X110326222Y-51504788D01*
X110213884Y-51588884D01*
X110129788Y-51701222D01*
X110080749Y-51832700D01*
X110074879Y-51887304D01*
X110074500Y-51890826D01*
X110074500Y-52484174D01*
X110074852Y-52487454D01*
X110074853Y-52487460D01*
X110079195Y-52527841D01*
X110080749Y-52542299D01*
X110129788Y-52673778D01*
X110213884Y-52786116D01*
X110315457Y-52862153D01*
X110357327Y-52918086D01*
X110362311Y-52987777D01*
X110328826Y-53049100D01*
X110280149Y-53079125D01*
X110248699Y-53089546D01*
X110101959Y-53180056D01*
X109980056Y-53301959D01*
X109889546Y-53448698D01*
X109835318Y-53612348D01*
X109825319Y-53710222D01*
X109825000Y-53716500D01*
X109825000Y-53762500D01*
X105005926Y-53762500D01*
X105005070Y-53721079D01*
X105005044Y-53718517D01*
X105005044Y-53281481D01*
X105005070Y-53278919D01*
X105006774Y-53196491D01*
X105015699Y-52764702D01*
X105015777Y-52762235D01*
X105034084Y-52325442D01*
X105034204Y-52323119D01*
X105066083Y-51809655D01*
X105066267Y-51807131D01*
X105102939Y-51370419D01*
X105156134Y-50857500D01*
X105156434Y-50854897D01*
X105211333Y-50420323D01*
X105285721Y-49909754D01*
X105286096Y-49907376D01*
X105359142Y-49475504D01*
X105368646Y-49425000D01*
X109044529Y-49425000D01*
X109107685Y-49595530D01*
X109209890Y-49759501D01*
X109343003Y-49899535D01*
X109501585Y-50009912D01*
X109679137Y-50086106D01*
X109868395Y-50125000D01*
X110115000Y-50125000D01*
X110115000Y-49475000D01*
X110615000Y-49475000D01*
X110615000Y-50125000D01*
X110810033Y-50125000D01*
X110816298Y-50124682D01*
X110957222Y-50110351D01*
X111141569Y-50052511D01*
X111310503Y-49958746D01*
X111457104Y-49832894D01*
X111575368Y-49680109D01*
X111660458Y-49506641D01*
X111681597Y-49425000D01*
X110931111Y-49425000D01*
X110970610Y-49400543D01*
X111038201Y-49311038D01*
X111068895Y-49203160D01*
X111058546Y-49091479D01*
X111008552Y-48991078D01*
X110936069Y-48925000D01*
X111685471Y-48925000D01*
X111685471Y-48924999D01*
X111622314Y-48754469D01*
X111520109Y-48590498D01*
X111386996Y-48450464D01*
X111228414Y-48340087D01*
X111050862Y-48263893D01*
X110861605Y-48225000D01*
X110615000Y-48225000D01*
X110615000Y-48875000D01*
X110115000Y-48875000D01*
X110115000Y-48225000D01*
X109919967Y-48225000D01*
X109913701Y-48225317D01*
X109772777Y-48239648D01*
X109588430Y-48297488D01*
X109419496Y-48391253D01*
X109272895Y-48517105D01*
X109154631Y-48669890D01*
X109069541Y-48843358D01*
X109048403Y-48925000D01*
X109798889Y-48925000D01*
X109759390Y-48949457D01*
X109691799Y-49038962D01*
X109661105Y-49146840D01*
X109671454Y-49258521D01*
X109721448Y-49358922D01*
X109793931Y-49425000D01*
X109044529Y-49425000D01*
X105368646Y-49425000D01*
X105454555Y-48968504D01*
X105455116Y-48965709D01*
X105546076Y-48537772D01*
X105662418Y-48034896D01*
X105663115Y-48032043D01*
X105771837Y-47608599D01*
X105908931Y-47110703D01*
X105909722Y-47107960D01*
X106036015Y-46689659D01*
X106193651Y-46197591D01*
X106194590Y-46194783D01*
X106338130Y-45782589D01*
X106448572Y-45481308D01*
X106490123Y-45425150D01*
X106555450Y-45400367D01*
X106564988Y-45400000D01*
X115117909Y-45400000D01*
X115184948Y-45419685D01*
X115230703Y-45472489D01*
X115232056Y-45475562D01*
X115596087Y-46333634D01*
X117999999Y-51999999D01*
X118000000Y-52000000D01*
X118000001Y-52000000D01*
X122067209Y-52000000D01*
X122134248Y-52019685D01*
X122180003Y-52072489D01*
X122189947Y-52141647D01*
X122160922Y-52205203D01*
X122158436Y-52207986D01*
X122130717Y-52238095D01*
X122127171Y-52241790D01*
X114455781Y-59913181D01*
X114394458Y-59946666D01*
X114368100Y-59949500D01*
X112875325Y-59949500D01*
X112802261Y-59964033D01*
X112719399Y-60019399D01*
X112664033Y-60102261D01*
X112649500Y-60175325D01*
X112649500Y-62224674D01*
X112664033Y-62297738D01*
X112664033Y-62297739D01*
X112664034Y-62297740D01*
X112719399Y-62380601D01*
X112802260Y-62435966D01*
X112838792Y-62443232D01*
X112875325Y-62450500D01*
X112875326Y-62450500D01*
X114524675Y-62450500D01*
X114554440Y-62444579D01*
X114597740Y-62435966D01*
X114680601Y-62380601D01*
X114735966Y-62297740D01*
X114750500Y-62224674D01*
X114750500Y-60731899D01*
X114770185Y-60664860D01*
X114786819Y-60644218D01*
X122519219Y-52911819D01*
X122580542Y-52878334D01*
X122606900Y-52875500D01*
X124203692Y-52875500D01*
X124270731Y-52895185D01*
X124305743Y-52929062D01*
X124309515Y-52934528D01*
X124309516Y-52934529D01*
X124309517Y-52934530D01*
X124427760Y-53039283D01*
X124567635Y-53112696D01*
X124721015Y-53150500D01*
X124878985Y-53150500D01*
X125032365Y-53112696D01*
X125172240Y-53039283D01*
X125290483Y-52934530D01*
X125380220Y-52804523D01*
X125436237Y-52656818D01*
X125455278Y-52500000D01*
X125436237Y-52343182D01*
X125380220Y-52195477D01*
X125379504Y-52194440D01*
X125377353Y-52187918D01*
X125374881Y-52181399D01*
X125375167Y-52181290D01*
X125357621Y-52128088D01*
X125375085Y-52060436D01*
X125426352Y-52012965D01*
X125481554Y-52000000D01*
X126068446Y-52000000D01*
X126135485Y-52019685D01*
X126181240Y-52072489D01*
X126191184Y-52141647D01*
X126170495Y-52194440D01*
X126169781Y-52195476D01*
X126169779Y-52195479D01*
X126113763Y-52343181D01*
X126094721Y-52500000D01*
X126113763Y-52656818D01*
X126169780Y-52804523D01*
X126259515Y-52934528D01*
X126259516Y-52934529D01*
X126259517Y-52934530D01*
X126377760Y-53039283D01*
X126517635Y-53112696D01*
X126671015Y-53150500D01*
X126828985Y-53150500D01*
X126982365Y-53112696D01*
X127122240Y-53039283D01*
X127240483Y-52934530D01*
X127244257Y-52929061D01*
X127298538Y-52885071D01*
X127346308Y-52875500D01*
X128046000Y-52875500D01*
X128113039Y-52895185D01*
X128158794Y-52947989D01*
X128170000Y-52999500D01*
X128170000Y-53580000D01*
X129086314Y-53580000D01*
X129060507Y-53620156D01*
X129020000Y-53758111D01*
X129020000Y-53901889D01*
X129060507Y-54039844D01*
X129086314Y-54080000D01*
X128170000Y-54080000D01*
X128170000Y-54724518D01*
X128170354Y-54731132D01*
X128176400Y-54787371D01*
X128226647Y-54922089D01*
X128312811Y-55037188D01*
X128427910Y-55123352D01*
X128562628Y-55173599D01*
X128618867Y-55179645D01*
X128625482Y-55180000D01*
X129270000Y-55180000D01*
X129270000Y-54265501D01*
X129377685Y-54314680D01*
X129484237Y-54330000D01*
X129555763Y-54330000D01*
X129662315Y-54314680D01*
X129770000Y-54265501D01*
X129770000Y-55180000D01*
X130414518Y-55180000D01*
X130421132Y-55179645D01*
X130477371Y-55173599D01*
X130612089Y-55123352D01*
X130727188Y-55037188D01*
X130813352Y-54922089D01*
X130863599Y-54787371D01*
X130869645Y-54731132D01*
X130869999Y-54724518D01*
X130869999Y-54436312D01*
X130889683Y-54369273D01*
X130942487Y-54323518D01*
X131011646Y-54313574D01*
X131075201Y-54342599D01*
X131104999Y-54381039D01*
X131120327Y-54411821D01*
X131243236Y-54574580D01*
X131393958Y-54711981D01*
X131567361Y-54819347D01*
X131567363Y-54819348D01*
X131757544Y-54893024D01*
X131958024Y-54930500D01*
X131958026Y-54930500D01*
X132161974Y-54930500D01*
X132161976Y-54930500D01*
X132362456Y-54893024D01*
X132452552Y-54858119D01*
X132522176Y-54852257D01*
X132583916Y-54884967D01*
X132585028Y-54886065D01*
X133071782Y-55372819D01*
X133105267Y-55434142D01*
X133100283Y-55503834D01*
X133058411Y-55559767D01*
X132992947Y-55584184D01*
X132984101Y-55584500D01*
X124841805Y-55584500D01*
X124816359Y-55581861D01*
X124805733Y-55579633D01*
X124805732Y-55579633D01*
X124789422Y-55581666D01*
X124774323Y-55583548D01*
X124758986Y-55584500D01*
X124758884Y-55584500D01*
X124738399Y-55587918D01*
X124733332Y-55588657D01*
X124673567Y-55596107D01*
X124673312Y-55596189D01*
X124620370Y-55624838D01*
X124615820Y-55627180D01*
X124561715Y-55653632D01*
X124561505Y-55653788D01*
X124520718Y-55698094D01*
X124517171Y-55701790D01*
X119430781Y-60788181D01*
X119369458Y-60821666D01*
X119343100Y-60824500D01*
X118974500Y-60824500D01*
X118907461Y-60804815D01*
X118861706Y-60752011D01*
X118850500Y-60700500D01*
X118850500Y-60449142D01*
X118850500Y-60175326D01*
X118835966Y-60102260D01*
X118780601Y-60019399D01*
X118697740Y-59964034D01*
X118697739Y-59964033D01*
X118697738Y-59964033D01*
X118624675Y-59949500D01*
X118624674Y-59949500D01*
X116975326Y-59949500D01*
X116975325Y-59949500D01*
X116902261Y-59964033D01*
X116819399Y-60019399D01*
X116764033Y-60102261D01*
X116749500Y-60175325D01*
X116749500Y-62224674D01*
X116764033Y-62297738D01*
X116764033Y-62297739D01*
X116764034Y-62297740D01*
X116819399Y-62380601D01*
X116902260Y-62435966D01*
X116938792Y-62443232D01*
X116975325Y-62450500D01*
X116975326Y-62450500D01*
X118624675Y-62450500D01*
X118654440Y-62444579D01*
X118697740Y-62435966D01*
X118780601Y-62380601D01*
X118835966Y-62297740D01*
X118850500Y-62224674D01*
X118850500Y-61699500D01*
X118870185Y-61632461D01*
X118922989Y-61586706D01*
X118974500Y-61575500D01*
X119498195Y-61575500D01*
X119523641Y-61578139D01*
X119527440Y-61578935D01*
X119534268Y-61580367D01*
X119564138Y-61576643D01*
X119565677Y-61576452D01*
X119581014Y-61575500D01*
X119581111Y-61575500D01*
X119581114Y-61575500D01*
X119601643Y-61572073D01*
X119606659Y-61571342D01*
X119658626Y-61564866D01*
X119658628Y-61564864D01*
X119666457Y-61563889D01*
X119666666Y-61563822D01*
X119673607Y-61560065D01*
X119673610Y-61560065D01*
X119719666Y-61535140D01*
X119724144Y-61532835D01*
X119771211Y-61509826D01*
X119771212Y-61509824D01*
X119778308Y-61506356D01*
X119778476Y-61506230D01*
X119783824Y-61500419D01*
X119783826Y-61500419D01*
X119819294Y-61461889D01*
X119822795Y-61458240D01*
X120456035Y-60825000D01*
X125450000Y-60825000D01*
X126450000Y-60825000D01*
X126450000Y-59675000D01*
X125905482Y-59675000D01*
X125898867Y-59675354D01*
X125842628Y-59681400D01*
X125707910Y-59731647D01*
X125592811Y-59817811D01*
X125506647Y-59932910D01*
X125456400Y-60067628D01*
X125450354Y-60123867D01*
X125450000Y-60130481D01*
X125450000Y-60825000D01*
X120456035Y-60825000D01*
X124909217Y-56371819D01*
X124970541Y-56338334D01*
X124996899Y-56335500D01*
X129815366Y-56335500D01*
X129882405Y-56355185D01*
X129928160Y-56407989D01*
X129938104Y-56477147D01*
X129909079Y-56540703D01*
X129898905Y-56551137D01*
X129883234Y-56565422D01*
X129760324Y-56728181D01*
X129669418Y-56910748D01*
X129613602Y-57106916D01*
X129594785Y-57309999D01*
X129613602Y-57513083D01*
X129669418Y-57709251D01*
X129760324Y-57891818D01*
X129883236Y-58054580D01*
X130033958Y-58191981D01*
X130207361Y-58299347D01*
X130207363Y-58299348D01*
X130397544Y-58373024D01*
X130598024Y-58410500D01*
X130598026Y-58410500D01*
X130801974Y-58410500D01*
X130801976Y-58410500D01*
X131002456Y-58373024D01*
X131092552Y-58338119D01*
X131162176Y-58332257D01*
X131223916Y-58364967D01*
X131225028Y-58366065D01*
X132137850Y-59278887D01*
X132153977Y-59298746D01*
X132159915Y-59307836D01*
X132184893Y-59327277D01*
X132196410Y-59337448D01*
X132196481Y-59337519D01*
X132213397Y-59349597D01*
X132217505Y-59352660D01*
X132265041Y-59389659D01*
X132265232Y-59389756D01*
X132272799Y-59392009D01*
X132272801Y-59392010D01*
X132322974Y-59406947D01*
X132327804Y-59408494D01*
X132377340Y-59425500D01*
X132377342Y-59425500D01*
X132384799Y-59428060D01*
X132385033Y-59428094D01*
X132392909Y-59427768D01*
X132392912Y-59427769D01*
X132443227Y-59425687D01*
X132445207Y-59425606D01*
X132450331Y-59425500D01*
X134900500Y-59425500D01*
X134967539Y-59445185D01*
X135013294Y-59497989D01*
X135024500Y-59549500D01*
X135024500Y-59551000D01*
X135004815Y-59618039D01*
X134952011Y-59663794D01*
X134900500Y-59675000D01*
X134550000Y-59675000D01*
X134550000Y-62475000D01*
X134900500Y-62475000D01*
X134967539Y-62494685D01*
X135013294Y-62547489D01*
X135024500Y-62599000D01*
X135024500Y-71393099D01*
X135004815Y-71460138D01*
X134988181Y-71480780D01*
X134680781Y-71788181D01*
X134619458Y-71821666D01*
X134593100Y-71824500D01*
X133376804Y-71824500D01*
X133351358Y-71821861D01*
X133340732Y-71819633D01*
X133309323Y-71823548D01*
X133293986Y-71824500D01*
X133293884Y-71824500D01*
X133273381Y-71827920D01*
X133268320Y-71828657D01*
X133208572Y-71836105D01*
X133208308Y-71836190D01*
X133155365Y-71864840D01*
X133150814Y-71867183D01*
X133096718Y-71893630D01*
X133096505Y-71893788D01*
X133055719Y-71938093D01*
X133052172Y-71941789D01*
X132171108Y-72822852D01*
X132151254Y-72838976D01*
X132142165Y-72844914D01*
X132122722Y-72869894D01*
X132112563Y-72881398D01*
X132112484Y-72881476D01*
X132112479Y-72881482D01*
X132112480Y-72881482D01*
X132100390Y-72898414D01*
X132097341Y-72902504D01*
X132060354Y-72950024D01*
X132060237Y-72950253D01*
X132043057Y-73007955D01*
X132041497Y-73012823D01*
X132031907Y-73040760D01*
X131991525Y-73097776D01*
X131926726Y-73123908D01*
X131914626Y-73124500D01*
X131625325Y-73124500D01*
X131552261Y-73139033D01*
X131469399Y-73194399D01*
X131414033Y-73277261D01*
X131399499Y-73350325D01*
X131399499Y-73645753D01*
X131379814Y-73712793D01*
X131327010Y-73758548D01*
X131260553Y-73768849D01*
X131146095Y-73754951D01*
X131146077Y-73754949D01*
X131142372Y-73754500D01*
X131057628Y-73754500D01*
X131053920Y-73754950D01*
X131053907Y-73754951D01*
X130931127Y-73769860D01*
X130772069Y-73830182D01*
X130632072Y-73926815D01*
X130519265Y-74054149D01*
X130440209Y-74204775D01*
X130401009Y-74363822D01*
X130399500Y-74369944D01*
X130399500Y-74540056D01*
X130404990Y-74562329D01*
X130440209Y-74705224D01*
X130511780Y-74841588D01*
X130519266Y-74855852D01*
X130632071Y-74983183D01*
X130772070Y-75079818D01*
X130931128Y-75140140D01*
X131057628Y-75155500D01*
X131061377Y-75155500D01*
X131138623Y-75155500D01*
X131142372Y-75155500D01*
X131268872Y-75140140D01*
X131268873Y-75140139D01*
X131270722Y-75139915D01*
X131339645Y-75151375D01*
X131391432Y-75198279D01*
X131407286Y-75238818D01*
X131414033Y-75272738D01*
X131414033Y-75272739D01*
X131414034Y-75272740D01*
X131469399Y-75355601D01*
X131552260Y-75410966D01*
X131583042Y-75417089D01*
X131625325Y-75425500D01*
X133050874Y-75425500D01*
X133117913Y-75445185D01*
X133150141Y-75475189D01*
X133192810Y-75532188D01*
X133307910Y-75618352D01*
X133442628Y-75668599D01*
X133498867Y-75674645D01*
X133505482Y-75675000D01*
X134050000Y-75675000D01*
X134050000Y-74525000D01*
X134550000Y-74525000D01*
X134550000Y-75675000D01*
X135094518Y-75675000D01*
X135101132Y-75674645D01*
X135157371Y-75668599D01*
X135292089Y-75618352D01*
X135407188Y-75532188D01*
X135493352Y-75417089D01*
X135543599Y-75282371D01*
X135549645Y-75226132D01*
X135550000Y-75219518D01*
X135550000Y-74585055D01*
X158499500Y-74585055D01*
X158540209Y-74750224D01*
X158595647Y-74855850D01*
X158619266Y-74900852D01*
X158692205Y-74983183D01*
X158732072Y-75028184D01*
X158802070Y-75076500D01*
X158872070Y-75124818D01*
X159031128Y-75185140D01*
X159157628Y-75200500D01*
X159161377Y-75200500D01*
X159238623Y-75200500D01*
X159242372Y-75200500D01*
X159368872Y-75185140D01*
X159527930Y-75124818D01*
X159667929Y-75028183D01*
X159780734Y-74900852D01*
X159859790Y-74750225D01*
X159900500Y-74585056D01*
X159900500Y-74585055D01*
X161499500Y-74585055D01*
X161540209Y-74750224D01*
X161595647Y-74855850D01*
X161619266Y-74900852D01*
X161692205Y-74983183D01*
X161732072Y-75028184D01*
X161802070Y-75076500D01*
X161872070Y-75124818D01*
X162031128Y-75185140D01*
X162157628Y-75200500D01*
X162161377Y-75200500D01*
X162238623Y-75200500D01*
X162242372Y-75200500D01*
X162368872Y-75185140D01*
X162527930Y-75124818D01*
X162667929Y-75028183D01*
X162780734Y-74900852D01*
X162859790Y-74750225D01*
X162900500Y-74585056D01*
X162900500Y-74414944D01*
X162859790Y-74249775D01*
X162780734Y-74099148D01*
X162667929Y-73971817D01*
X162667928Y-73971816D01*
X162667927Y-73971815D01*
X162527930Y-73875182D01*
X162368872Y-73814860D01*
X162246092Y-73799951D01*
X162246080Y-73799950D01*
X162242372Y-73799500D01*
X162157628Y-73799500D01*
X162153920Y-73799950D01*
X162153907Y-73799951D01*
X162031127Y-73814860D01*
X161872069Y-73875182D01*
X161732072Y-73971815D01*
X161619265Y-74099149D01*
X161540209Y-74249775D01*
X161499500Y-74414944D01*
X161499500Y-74585055D01*
X159900500Y-74585055D01*
X159900500Y-74414944D01*
X159859790Y-74249775D01*
X159780734Y-74099148D01*
X159667929Y-73971817D01*
X159667928Y-73971816D01*
X159667927Y-73971815D01*
X159527930Y-73875182D01*
X159368872Y-73814860D01*
X159246092Y-73799951D01*
X159246080Y-73799950D01*
X159242372Y-73799500D01*
X159157628Y-73799500D01*
X159153920Y-73799950D01*
X159153907Y-73799951D01*
X159031127Y-73814860D01*
X158872069Y-73875182D01*
X158732072Y-73971815D01*
X158619265Y-74099149D01*
X158540209Y-74249775D01*
X158499500Y-74414944D01*
X158499500Y-74585055D01*
X135550000Y-74585055D01*
X135550000Y-74525000D01*
X134550000Y-74525000D01*
X134050000Y-74525000D01*
X134050000Y-72875000D01*
X134550000Y-72875000D01*
X134550000Y-74025000D01*
X135550000Y-74025000D01*
X135550000Y-73330481D01*
X135549645Y-73323867D01*
X135543599Y-73267628D01*
X135493352Y-73132910D01*
X135407188Y-73017811D01*
X135292089Y-72931647D01*
X135157371Y-72881400D01*
X135101132Y-72875354D01*
X135094518Y-72875000D01*
X134550000Y-72875000D01*
X134050000Y-72875000D01*
X133505482Y-72875000D01*
X133498865Y-72875354D01*
X133491824Y-72876111D01*
X133423065Y-72863701D01*
X133371931Y-72816088D01*
X133354656Y-72748387D01*
X133376725Y-72682095D01*
X133390891Y-72665145D01*
X133444219Y-72611817D01*
X133505542Y-72578334D01*
X133531899Y-72575500D01*
X134748195Y-72575500D01*
X134773641Y-72578139D01*
X134777440Y-72578935D01*
X134784268Y-72580367D01*
X134814138Y-72576643D01*
X134815677Y-72576452D01*
X134831014Y-72575500D01*
X134831111Y-72575500D01*
X134831114Y-72575500D01*
X134851643Y-72572073D01*
X134856659Y-72571342D01*
X134908626Y-72564866D01*
X134908628Y-72564864D01*
X134916457Y-72563889D01*
X134916666Y-72563822D01*
X134923607Y-72560065D01*
X134923610Y-72560065D01*
X134969666Y-72535140D01*
X134974144Y-72532835D01*
X135021211Y-72509826D01*
X135021212Y-72509824D01*
X135028308Y-72506356D01*
X135028476Y-72506230D01*
X135033824Y-72500419D01*
X135033826Y-72500419D01*
X135069294Y-72461889D01*
X135072795Y-72458240D01*
X135488321Y-72042714D01*
X135549642Y-72009231D01*
X135619334Y-72014215D01*
X135675267Y-72056087D01*
X135699684Y-72121551D01*
X135700000Y-72130397D01*
X135700000Y-72269518D01*
X135700354Y-72276132D01*
X135706400Y-72332371D01*
X135756647Y-72467089D01*
X135842811Y-72582188D01*
X135957910Y-72668352D01*
X136092628Y-72718599D01*
X136148867Y-72724645D01*
X136155482Y-72725000D01*
X136850000Y-72725000D01*
X136850000Y-71725000D01*
X137350000Y-71725000D01*
X137350000Y-72725000D01*
X138044518Y-72725000D01*
X138051132Y-72724645D01*
X138107371Y-72718599D01*
X138242089Y-72668352D01*
X138357188Y-72582188D01*
X138443352Y-72467089D01*
X138493599Y-72332371D01*
X138499645Y-72276132D01*
X138500000Y-72269518D01*
X138500000Y-71725000D01*
X137350000Y-71725000D01*
X136850000Y-71725000D01*
X136850000Y-71349000D01*
X136869685Y-71281961D01*
X136922489Y-71236206D01*
X136974000Y-71225000D01*
X138500000Y-71225000D01*
X138500000Y-70680481D01*
X138499646Y-70673876D01*
X138498889Y-70666836D01*
X138511292Y-70598076D01*
X138558901Y-70546937D01*
X138626600Y-70529656D01*
X138692895Y-70551719D01*
X138709858Y-70565895D01*
X140552378Y-72408416D01*
X142372850Y-74228888D01*
X142388974Y-74248742D01*
X142394916Y-74257836D01*
X142419890Y-74277274D01*
X142431408Y-74287446D01*
X142431482Y-74287520D01*
X142441410Y-74294608D01*
X142448399Y-74299598D01*
X142452508Y-74302662D01*
X142500041Y-74339658D01*
X142500232Y-74339757D01*
X142534601Y-74349988D01*
X142557955Y-74356941D01*
X142562792Y-74358490D01*
X142612340Y-74375500D01*
X142619797Y-74378060D01*
X142620030Y-74378093D01*
X142627909Y-74377767D01*
X142627912Y-74377768D01*
X142680193Y-74375605D01*
X142685316Y-74375500D01*
X157348195Y-74375500D01*
X157373641Y-74378139D01*
X157377440Y-74378935D01*
X157384268Y-74380367D01*
X157414138Y-74376643D01*
X157415677Y-74376452D01*
X157431014Y-74375500D01*
X157431111Y-74375500D01*
X157431114Y-74375500D01*
X157451643Y-74372073D01*
X157456659Y-74371342D01*
X157508626Y-74364866D01*
X157508628Y-74364864D01*
X157516457Y-74363889D01*
X157516666Y-74363822D01*
X157523607Y-74360065D01*
X157523610Y-74360065D01*
X157569666Y-74335140D01*
X157574144Y-74332835D01*
X157621211Y-74309826D01*
X157621212Y-74309824D01*
X157628308Y-74306356D01*
X157628476Y-74306230D01*
X157633824Y-74300419D01*
X157633826Y-74300419D01*
X157669294Y-74261889D01*
X157672795Y-74258240D01*
X158628889Y-73302146D01*
X158648741Y-73286025D01*
X158657836Y-73280084D01*
X158677277Y-73255104D01*
X158687449Y-73243587D01*
X158687520Y-73243517D01*
X158699614Y-73226576D01*
X158702648Y-73222508D01*
X158734809Y-73181189D01*
X158734809Y-73181187D01*
X158739666Y-73174948D01*
X158739753Y-73174779D01*
X158749817Y-73140974D01*
X158756954Y-73117001D01*
X158758491Y-73112202D01*
X158775500Y-73062660D01*
X158775500Y-73062656D01*
X158778060Y-73055199D01*
X158778094Y-73054966D01*
X158777768Y-73047090D01*
X158777769Y-73047088D01*
X158775606Y-72994792D01*
X158775500Y-72989668D01*
X158775500Y-70499999D01*
X171494356Y-70499999D01*
X171514891Y-70747816D01*
X171514891Y-70747819D01*
X171514892Y-70747821D01*
X171575937Y-70988881D01*
X171620960Y-71091523D01*
X171675825Y-71216604D01*
X171675827Y-71216607D01*
X171811836Y-71424785D01*
X171980256Y-71607738D01*
X171980259Y-71607740D01*
X172176485Y-71760470D01*
X172176487Y-71760471D01*
X172176491Y-71760474D01*
X172395190Y-71878828D01*
X172630386Y-71959571D01*
X172875665Y-72000500D01*
X173124335Y-72000500D01*
X173369614Y-71959571D01*
X173604810Y-71878828D01*
X173823509Y-71760474D01*
X174019744Y-71607738D01*
X174188164Y-71424785D01*
X174324173Y-71216607D01*
X174424063Y-70988881D01*
X174485108Y-70747821D01*
X174505643Y-70500000D01*
X174485108Y-70252179D01*
X174424063Y-70011119D01*
X174325456Y-69786317D01*
X174324174Y-69783395D01*
X174299079Y-69744984D01*
X174188164Y-69575215D01*
X174019744Y-69392262D01*
X173997612Y-69375036D01*
X173823514Y-69239529D01*
X173823510Y-69239526D01*
X173823509Y-69239526D01*
X173604810Y-69121172D01*
X173604806Y-69121170D01*
X173604805Y-69121170D01*
X173369615Y-69040429D01*
X173124335Y-68999500D01*
X172875665Y-68999500D01*
X172630384Y-69040429D01*
X172395194Y-69121170D01*
X172176485Y-69239529D01*
X171980259Y-69392259D01*
X171811837Y-69575214D01*
X171675825Y-69783395D01*
X171587412Y-69984959D01*
X171575937Y-70011119D01*
X171530364Y-70191081D01*
X171514891Y-70252183D01*
X171494356Y-70499999D01*
X158775500Y-70499999D01*
X158775500Y-68601804D01*
X158778139Y-68576357D01*
X158780367Y-68565732D01*
X158776452Y-68534323D01*
X158775500Y-68518986D01*
X158775500Y-68518887D01*
X158775500Y-68518886D01*
X158772075Y-68498369D01*
X158771341Y-68493325D01*
X158763891Y-68433550D01*
X158763821Y-68433332D01*
X158760065Y-68426392D01*
X158760065Y-68426390D01*
X158735148Y-68380348D01*
X158732828Y-68375840D01*
X158709826Y-68328789D01*
X158709825Y-68328788D01*
X158706360Y-68321700D01*
X158706225Y-68321519D01*
X158700419Y-68316174D01*
X158661892Y-68280707D01*
X158658219Y-68277182D01*
X157689894Y-67308856D01*
X157656409Y-67247533D01*
X157658309Y-67187240D01*
X157716397Y-66983083D01*
X157718825Y-66956877D01*
X157735215Y-66780000D01*
X157716397Y-66576917D01*
X157713486Y-66566687D01*
X157671509Y-66419154D01*
X157660582Y-66380750D01*
X157660581Y-66380748D01*
X157660523Y-66380543D01*
X157661109Y-66310676D01*
X157692106Y-66258929D01*
X157751035Y-66200000D01*
X160044722Y-66200000D01*
X160063792Y-66417974D01*
X160120425Y-66629331D01*
X160146190Y-66684584D01*
X160212898Y-66827639D01*
X160338402Y-67006877D01*
X160493123Y-67161598D01*
X160672361Y-67287102D01*
X160870670Y-67379575D01*
X161082023Y-67436207D01*
X161300000Y-67455277D01*
X161517977Y-67436207D01*
X161729330Y-67379575D01*
X161927639Y-67287102D01*
X162106877Y-67161598D01*
X162261598Y-67006877D01*
X162387102Y-66827639D01*
X162479575Y-66629330D01*
X162536207Y-66417977D01*
X162555277Y-66200000D01*
X162555277Y-66199999D01*
X164294858Y-66199999D01*
X164315386Y-66447732D01*
X164376413Y-66688721D01*
X164476268Y-66916370D01*
X164576563Y-67069882D01*
X164576564Y-67069882D01*
X165274070Y-66372376D01*
X165276884Y-66385915D01*
X165346442Y-66520156D01*
X165449638Y-66630652D01*
X165578819Y-66709209D01*
X165630002Y-66723549D01*
X164929942Y-67423609D01*
X164929942Y-67423610D01*
X164976766Y-67460055D01*
X165195393Y-67578368D01*
X165430506Y-67659083D01*
X165675707Y-67700000D01*
X165924293Y-67700000D01*
X166169493Y-67659083D01*
X166404606Y-67578368D01*
X166623233Y-67460053D01*
X166670056Y-67423609D01*
X165971568Y-66725121D01*
X166088458Y-66674349D01*
X166205739Y-66578934D01*
X166292928Y-66455415D01*
X166323354Y-66369802D01*
X167023434Y-67069882D01*
X167123730Y-66916369D01*
X167223586Y-66688721D01*
X167284613Y-66447732D01*
X167305141Y-66200000D01*
X167300998Y-66149999D01*
X172444722Y-66149999D01*
X172463792Y-66367974D01*
X172520425Y-66579331D01*
X172557673Y-66659209D01*
X172612898Y-66777639D01*
X172738402Y-66956877D01*
X172893123Y-67111598D01*
X173072361Y-67237102D01*
X173270670Y-67329575D01*
X173482023Y-67386207D01*
X173700000Y-67405277D01*
X173917977Y-67386207D01*
X174129330Y-67329575D01*
X174327639Y-67237102D01*
X174506877Y-67111598D01*
X174661598Y-66956877D01*
X174787102Y-66777639D01*
X174879575Y-66579330D01*
X174936207Y-66367977D01*
X174955277Y-66150000D01*
X176694858Y-66150000D01*
X176715386Y-66397732D01*
X176776413Y-66638721D01*
X176876268Y-66866370D01*
X176976563Y-67019882D01*
X176976564Y-67019882D01*
X177674070Y-66322376D01*
X177676884Y-66335915D01*
X177746442Y-66470156D01*
X177849638Y-66580652D01*
X177978819Y-66659209D01*
X178030002Y-66673549D01*
X177329942Y-67373609D01*
X177329942Y-67373610D01*
X177376766Y-67410055D01*
X177595393Y-67528368D01*
X177830506Y-67609083D01*
X178075707Y-67650000D01*
X178324293Y-67650000D01*
X178569493Y-67609083D01*
X178804606Y-67528368D01*
X179023233Y-67410053D01*
X179070056Y-67373609D01*
X178371568Y-66675121D01*
X178488458Y-66624349D01*
X178605739Y-66528934D01*
X178692928Y-66405415D01*
X178723355Y-66319801D01*
X179423434Y-67019882D01*
X179523730Y-66866369D01*
X179623586Y-66638721D01*
X179684613Y-66397732D01*
X179705141Y-66150000D01*
X179684613Y-65902267D01*
X179623586Y-65661278D01*
X179523730Y-65433630D01*
X179423434Y-65280116D01*
X178725928Y-65977621D01*
X178723116Y-65964085D01*
X178653558Y-65829844D01*
X178550362Y-65719348D01*
X178421181Y-65640791D01*
X178369997Y-65626450D01*
X179070057Y-64926390D01*
X179070056Y-64926388D01*
X179023235Y-64889947D01*
X178804606Y-64771631D01*
X178569493Y-64690916D01*
X178324293Y-64650000D01*
X178075707Y-64650000D01*
X177830506Y-64690916D01*
X177595393Y-64771631D01*
X177376764Y-64889946D01*
X177329942Y-64926388D01*
X177329942Y-64926390D01*
X178028431Y-65624878D01*
X177911542Y-65675651D01*
X177794261Y-65771066D01*
X177707072Y-65894585D01*
X177676645Y-65980197D01*
X176976564Y-65280116D01*
X176876266Y-65433634D01*
X176776413Y-65661278D01*
X176715386Y-65902267D01*
X176694858Y-66150000D01*
X174955277Y-66150000D01*
X174955101Y-66147993D01*
X174945253Y-66035419D01*
X174936207Y-65932023D01*
X174879575Y-65720670D01*
X174787102Y-65522362D01*
X174661598Y-65343123D01*
X174506877Y-65188402D01*
X174327639Y-65062898D01*
X174193453Y-65000326D01*
X174129331Y-64970425D01*
X173917974Y-64913792D01*
X173700000Y-64894722D01*
X173482025Y-64913792D01*
X173270668Y-64970425D01*
X173072361Y-65062898D01*
X172893122Y-65188402D01*
X172738402Y-65343122D01*
X172612898Y-65522361D01*
X172520425Y-65720668D01*
X172463792Y-65932025D01*
X172444722Y-66149999D01*
X167300998Y-66149999D01*
X167284613Y-65952267D01*
X167223586Y-65711278D01*
X167123730Y-65483630D01*
X167023434Y-65330116D01*
X166325929Y-66027622D01*
X166323116Y-66014085D01*
X166253558Y-65879844D01*
X166150362Y-65769348D01*
X166021181Y-65690791D01*
X165969997Y-65676450D01*
X166670057Y-64976390D01*
X166670056Y-64976388D01*
X166623235Y-64939947D01*
X166404606Y-64821631D01*
X166169493Y-64740916D01*
X165924293Y-64700000D01*
X165675707Y-64700000D01*
X165430506Y-64740916D01*
X165195393Y-64821631D01*
X164976764Y-64939946D01*
X164929942Y-64976388D01*
X164929942Y-64976390D01*
X165628431Y-65674878D01*
X165511542Y-65725651D01*
X165394261Y-65821066D01*
X165307072Y-65944585D01*
X165276645Y-66030197D01*
X164576564Y-65330116D01*
X164476266Y-65483634D01*
X164376413Y-65711278D01*
X164315386Y-65952267D01*
X164294858Y-66199999D01*
X162555277Y-66199999D01*
X162551962Y-66162114D01*
X162541009Y-66036917D01*
X162536207Y-65982023D01*
X162479575Y-65770670D01*
X162387102Y-65572362D01*
X162261598Y-65393123D01*
X162106877Y-65238402D01*
X161927639Y-65112898D01*
X161780878Y-65044462D01*
X161729331Y-65020425D01*
X161517974Y-64963792D01*
X161300000Y-64944722D01*
X161082025Y-64963792D01*
X160870668Y-65020425D01*
X160672361Y-65112898D01*
X160493122Y-65238402D01*
X160338402Y-65393122D01*
X160212898Y-65572361D01*
X160120425Y-65770668D01*
X160063792Y-65982025D01*
X160044722Y-66200000D01*
X157751035Y-66200000D01*
X158128892Y-65822144D01*
X158148743Y-65806024D01*
X158157836Y-65800084D01*
X158177280Y-65775101D01*
X158187453Y-65763584D01*
X158187520Y-65763518D01*
X158199619Y-65746570D01*
X158202641Y-65742515D01*
X158234809Y-65701189D01*
X158234810Y-65701185D01*
X158239666Y-65694947D01*
X158239753Y-65694778D01*
X158242008Y-65687200D01*
X158242010Y-65687199D01*
X158256951Y-65637009D01*
X158258479Y-65632238D01*
X158275500Y-65582660D01*
X158275500Y-65582655D01*
X158278060Y-65575199D01*
X158278093Y-65574970D01*
X158277767Y-65567090D01*
X158277768Y-65567088D01*
X158275605Y-65514806D01*
X158275500Y-65509684D01*
X158275500Y-61051803D01*
X158278139Y-61026356D01*
X158280367Y-61015732D01*
X158276452Y-60984322D01*
X158275500Y-60968985D01*
X158275500Y-60968888D01*
X158275500Y-60968886D01*
X158272074Y-60948357D01*
X158271342Y-60943334D01*
X158264866Y-60891375D01*
X158264864Y-60891371D01*
X158263889Y-60883547D01*
X158263819Y-60883327D01*
X158260065Y-60876390D01*
X158235159Y-60830369D01*
X158232822Y-60825829D01*
X158229004Y-60818019D01*
X158209826Y-60778789D01*
X158209825Y-60778788D01*
X158206360Y-60771700D01*
X158206225Y-60771519D01*
X158200419Y-60766174D01*
X158161892Y-60730707D01*
X158158219Y-60727182D01*
X155802149Y-58371111D01*
X155786022Y-58351253D01*
X155780083Y-58342162D01*
X155755110Y-58322725D01*
X155743593Y-58312554D01*
X155743519Y-58312480D01*
X155726594Y-58300397D01*
X155722480Y-58297330D01*
X155681189Y-58265191D01*
X155681186Y-58265190D01*
X155674963Y-58260346D01*
X155674761Y-58260242D01*
X155667200Y-58257990D01*
X155667199Y-58257990D01*
X155617036Y-58243055D01*
X155612174Y-58241497D01*
X155600780Y-58237586D01*
X155555202Y-58221939D01*
X155554969Y-58221906D01*
X155509910Y-58223769D01*
X155494806Y-58224394D01*
X155489684Y-58224500D01*
X139794000Y-58224500D01*
X139726961Y-58204815D01*
X139681206Y-58152011D01*
X139670000Y-58100500D01*
X139670000Y-57560000D01*
X138753686Y-57560000D01*
X138779493Y-57519844D01*
X138820000Y-57381889D01*
X138820000Y-57238111D01*
X138779493Y-57100156D01*
X138753686Y-57060000D01*
X139670000Y-57060000D01*
X139670000Y-56600000D01*
X150744722Y-56600000D01*
X150763792Y-56817974D01*
X150820425Y-57029331D01*
X150856604Y-57106916D01*
X150912898Y-57227639D01*
X151038402Y-57406877D01*
X151193123Y-57561598D01*
X151372361Y-57687102D01*
X151570670Y-57779575D01*
X151782023Y-57836207D01*
X152000000Y-57855277D01*
X152217977Y-57836207D01*
X152429330Y-57779575D01*
X152627639Y-57687102D01*
X152806877Y-57561598D01*
X152961598Y-57406877D01*
X153087102Y-57227639D01*
X153179575Y-57029330D01*
X153236207Y-56817977D01*
X153255277Y-56600000D01*
X153236207Y-56382023D01*
X153179575Y-56170670D01*
X153087102Y-55972362D01*
X152961598Y-55793123D01*
X152806877Y-55638402D01*
X152627639Y-55512898D01*
X152521149Y-55463241D01*
X152429331Y-55420425D01*
X152217974Y-55363792D01*
X152000000Y-55344722D01*
X151782025Y-55363792D01*
X151570668Y-55420425D01*
X151372361Y-55512898D01*
X151193122Y-55638402D01*
X151038402Y-55793122D01*
X150912898Y-55972361D01*
X150820425Y-56170668D01*
X150763792Y-56382025D01*
X150744722Y-56600000D01*
X139670000Y-56600000D01*
X139670000Y-56459500D01*
X139689685Y-56392461D01*
X139742489Y-56346706D01*
X139794000Y-56335500D01*
X144162890Y-56335500D01*
X144188336Y-56338139D01*
X144192135Y-56338935D01*
X144198963Y-56340367D01*
X144228833Y-56336643D01*
X144230372Y-56336452D01*
X144245709Y-56335500D01*
X144245806Y-56335500D01*
X144245809Y-56335500D01*
X144266338Y-56332073D01*
X144271354Y-56331342D01*
X144323321Y-56324866D01*
X144323323Y-56324864D01*
X144331152Y-56323889D01*
X144331361Y-56323822D01*
X144338302Y-56320065D01*
X144338305Y-56320065D01*
X144384361Y-56295140D01*
X144388839Y-56292835D01*
X144435906Y-56269826D01*
X144435907Y-56269824D01*
X144443003Y-56266356D01*
X144443171Y-56266230D01*
X144448519Y-56260419D01*
X144448521Y-56260419D01*
X144483989Y-56221889D01*
X144487490Y-56218240D01*
X147505732Y-53199999D01*
X148144721Y-53199999D01*
X148163763Y-53356818D01*
X148219780Y-53504523D01*
X148309515Y-53634528D01*
X148309516Y-53634529D01*
X148309517Y-53634530D01*
X148427760Y-53739283D01*
X148567635Y-53812696D01*
X148721015Y-53850500D01*
X148878985Y-53850500D01*
X149032365Y-53812696D01*
X149172240Y-53739283D01*
X149290483Y-53634530D01*
X149294257Y-53629061D01*
X149348538Y-53585071D01*
X149396308Y-53575500D01*
X155819268Y-53575500D01*
X155886307Y-53595185D01*
X155906949Y-53611819D01*
X157401079Y-55105949D01*
X157434564Y-55167272D01*
X157429580Y-55236964D01*
X157387708Y-55292897D01*
X157322244Y-55317314D01*
X157254381Y-55302685D01*
X157104606Y-55221631D01*
X156869493Y-55140916D01*
X156624293Y-55100000D01*
X156375707Y-55100000D01*
X156130506Y-55140916D01*
X155895393Y-55221631D01*
X155676764Y-55339946D01*
X155629942Y-55376388D01*
X155629942Y-55376390D01*
X156328431Y-56074878D01*
X156211542Y-56125651D01*
X156094261Y-56221066D01*
X156007072Y-56344585D01*
X155976645Y-56430197D01*
X155276564Y-55730116D01*
X155176266Y-55883634D01*
X155076413Y-56111278D01*
X155015386Y-56352267D01*
X154994858Y-56600000D01*
X155015386Y-56847732D01*
X155076413Y-57088721D01*
X155176268Y-57316370D01*
X155276563Y-57469882D01*
X155276564Y-57469882D01*
X155974070Y-56772376D01*
X155976884Y-56785915D01*
X156046442Y-56920156D01*
X156149638Y-57030652D01*
X156278819Y-57109209D01*
X156330000Y-57123549D01*
X155629942Y-57823609D01*
X155629942Y-57823610D01*
X155676766Y-57860055D01*
X155895393Y-57978368D01*
X156130506Y-58059083D01*
X156375707Y-58100000D01*
X156624293Y-58100000D01*
X156869493Y-58059083D01*
X157104606Y-57978368D01*
X157323233Y-57860053D01*
X157370056Y-57823609D01*
X156671568Y-57125121D01*
X156788458Y-57074349D01*
X156905739Y-56978934D01*
X156992928Y-56855415D01*
X157023354Y-56769802D01*
X157723434Y-57469882D01*
X157823730Y-57316369D01*
X157923586Y-57088721D01*
X157984613Y-56847732D01*
X158005141Y-56599999D01*
X157984613Y-56352267D01*
X157923586Y-56111278D01*
X157823731Y-55883630D01*
X157808586Y-55860448D01*
X157788398Y-55793558D01*
X157807577Y-55726373D01*
X157860036Y-55680222D01*
X157929118Y-55669759D01*
X157992890Y-55698305D01*
X158000075Y-55704945D01*
X158488181Y-56193051D01*
X158521666Y-56254374D01*
X158524500Y-56280732D01*
X158524500Y-57048196D01*
X158521861Y-57073642D01*
X158519633Y-57084267D01*
X158523548Y-57115676D01*
X158524500Y-57131013D01*
X158524500Y-57131116D01*
X158527918Y-57151602D01*
X158528657Y-57156670D01*
X158536107Y-57216438D01*
X158536185Y-57216682D01*
X158564827Y-57269608D01*
X158567171Y-57274162D01*
X158593634Y-57328292D01*
X158593777Y-57328482D01*
X158599579Y-57333824D01*
X158599581Y-57333826D01*
X158638108Y-57369293D01*
X158641780Y-57372817D01*
X159597850Y-58328887D01*
X159613977Y-58348746D01*
X159619915Y-58357836D01*
X159644893Y-58377277D01*
X159656410Y-58387448D01*
X159656481Y-58387519D01*
X159673397Y-58399597D01*
X159677505Y-58402660D01*
X159725041Y-58439659D01*
X159725232Y-58439756D01*
X159732799Y-58442009D01*
X159732801Y-58442010D01*
X159782974Y-58456947D01*
X159787804Y-58458494D01*
X159837340Y-58475500D01*
X159837342Y-58475500D01*
X159844799Y-58478060D01*
X159845033Y-58478094D01*
X159852909Y-58477768D01*
X159852912Y-58477769D01*
X159903227Y-58475687D01*
X159905207Y-58475606D01*
X159910331Y-58475500D01*
X160475309Y-58475500D01*
X160542348Y-58495185D01*
X160588103Y-58547989D01*
X160598047Y-58617147D01*
X160569022Y-58680703D01*
X160546432Y-58701075D01*
X160493122Y-58738402D01*
X160338402Y-58893122D01*
X160212898Y-59072361D01*
X160120425Y-59270668D01*
X160063792Y-59482025D01*
X160044722Y-59700000D01*
X160063792Y-59917974D01*
X160120425Y-60129331D01*
X160141873Y-60175325D01*
X160212898Y-60327639D01*
X160338402Y-60506877D01*
X160493123Y-60661598D01*
X160672361Y-60787102D01*
X160870670Y-60879575D01*
X161082023Y-60936207D01*
X161300000Y-60955277D01*
X161517977Y-60936207D01*
X161729330Y-60879575D01*
X161927639Y-60787102D01*
X162106877Y-60661598D01*
X162261598Y-60506877D01*
X162387102Y-60327639D01*
X162479575Y-60129330D01*
X162536207Y-59917977D01*
X162555277Y-59700000D01*
X162552109Y-59663794D01*
X162545395Y-59587047D01*
X162536207Y-59482023D01*
X162479575Y-59270670D01*
X162387102Y-59072362D01*
X162261598Y-58893123D01*
X162106877Y-58738402D01*
X162053567Y-58701074D01*
X162009943Y-58646498D01*
X162002749Y-58577000D01*
X162034272Y-58514645D01*
X162094502Y-58479231D01*
X162124691Y-58475500D01*
X164877691Y-58475500D01*
X164944730Y-58495185D01*
X164965372Y-58511819D01*
X165628431Y-59174878D01*
X165511542Y-59225651D01*
X165394261Y-59321066D01*
X165307072Y-59444585D01*
X165276645Y-59530197D01*
X164576564Y-58830116D01*
X164476266Y-58983634D01*
X164376413Y-59211278D01*
X164315386Y-59452267D01*
X164294858Y-59700000D01*
X164315386Y-59947732D01*
X164376413Y-60188721D01*
X164476268Y-60416370D01*
X164576563Y-60569882D01*
X164576564Y-60569882D01*
X165274070Y-59872376D01*
X165276884Y-59885915D01*
X165346442Y-60020156D01*
X165449638Y-60130652D01*
X165578819Y-60209209D01*
X165630002Y-60223549D01*
X164929942Y-60923609D01*
X164929942Y-60923610D01*
X164976766Y-60960055D01*
X165195393Y-61078368D01*
X165430506Y-61159083D01*
X165675707Y-61200000D01*
X165924293Y-61200000D01*
X166169493Y-61159083D01*
X166404606Y-61078368D01*
X166623233Y-60960053D01*
X166670056Y-60923609D01*
X165971568Y-60225121D01*
X166088458Y-60174349D01*
X166205739Y-60078934D01*
X166292928Y-59955415D01*
X166323355Y-59869801D01*
X167023434Y-60569882D01*
X167123730Y-60416369D01*
X167223586Y-60188721D01*
X167284613Y-59947732D01*
X167305141Y-59699999D01*
X167300998Y-59649999D01*
X172444722Y-59649999D01*
X172463792Y-59867974D01*
X172520425Y-60079331D01*
X172543740Y-60129330D01*
X172612898Y-60277639D01*
X172738402Y-60456877D01*
X172893123Y-60611598D01*
X173072361Y-60737102D01*
X173270670Y-60829575D01*
X173482023Y-60886207D01*
X173700000Y-60905277D01*
X173917977Y-60886207D01*
X174129330Y-60829575D01*
X174327639Y-60737102D01*
X174506877Y-60611598D01*
X174661598Y-60456877D01*
X174787102Y-60277639D01*
X174879575Y-60079330D01*
X174936207Y-59867977D01*
X174955277Y-59650000D01*
X176694858Y-59650000D01*
X176715386Y-59897732D01*
X176776413Y-60138721D01*
X176876268Y-60366370D01*
X176976563Y-60519882D01*
X176976564Y-60519882D01*
X177674070Y-59822376D01*
X177676884Y-59835915D01*
X177746442Y-59970156D01*
X177849638Y-60080652D01*
X177978819Y-60159209D01*
X178030002Y-60173549D01*
X177329942Y-60873609D01*
X177329942Y-60873610D01*
X177376766Y-60910055D01*
X177595393Y-61028368D01*
X177830506Y-61109083D01*
X178075707Y-61150000D01*
X178324293Y-61150000D01*
X178569493Y-61109083D01*
X178804606Y-61028368D01*
X179023233Y-60910053D01*
X179070056Y-60873609D01*
X178371568Y-60175121D01*
X178488458Y-60124349D01*
X178605739Y-60028934D01*
X178692928Y-59905415D01*
X178723354Y-59819802D01*
X179423434Y-60519882D01*
X179523730Y-60366369D01*
X179623586Y-60138721D01*
X179684613Y-59897732D01*
X179705141Y-59649999D01*
X179684613Y-59402267D01*
X179623586Y-59161278D01*
X179523730Y-58933630D01*
X179423434Y-58780116D01*
X178725929Y-59477622D01*
X178723116Y-59464085D01*
X178653558Y-59329844D01*
X178550362Y-59219348D01*
X178421181Y-59140791D01*
X178369997Y-59126450D01*
X179070057Y-58426390D01*
X179070056Y-58426388D01*
X179023235Y-58389947D01*
X178804606Y-58271631D01*
X178569493Y-58190916D01*
X178324293Y-58150000D01*
X178075707Y-58150000D01*
X177830506Y-58190916D01*
X177595393Y-58271631D01*
X177376764Y-58389946D01*
X177329942Y-58426388D01*
X177329942Y-58426390D01*
X178028431Y-59124878D01*
X177911542Y-59175651D01*
X177794261Y-59271066D01*
X177707072Y-59394585D01*
X177676645Y-59480197D01*
X176976564Y-58780116D01*
X176876266Y-58933634D01*
X176776413Y-59161278D01*
X176715386Y-59402267D01*
X176694858Y-59650000D01*
X174955277Y-59650000D01*
X174951962Y-59612114D01*
X174936207Y-59432025D01*
X174936207Y-59432023D01*
X174879575Y-59220670D01*
X174787102Y-59022362D01*
X174661598Y-58843123D01*
X174506877Y-58688402D01*
X174327639Y-58562898D01*
X174182428Y-58495185D01*
X174129331Y-58470425D01*
X173917974Y-58413792D01*
X173700000Y-58394722D01*
X173482025Y-58413792D01*
X173270668Y-58470425D01*
X173072361Y-58562898D01*
X172893122Y-58688402D01*
X172738402Y-58843122D01*
X172612898Y-59022361D01*
X172520425Y-59220668D01*
X172463792Y-59432025D01*
X172444722Y-59649999D01*
X167300998Y-59649999D01*
X167284613Y-59452267D01*
X167223586Y-59211278D01*
X167123730Y-58983630D01*
X167023434Y-58830116D01*
X166325928Y-59527621D01*
X166323116Y-59514085D01*
X166253558Y-59379844D01*
X166150362Y-59269348D01*
X166021181Y-59190791D01*
X165969997Y-59176450D01*
X166634627Y-58511819D01*
X166695950Y-58478334D01*
X166722308Y-58475500D01*
X169048195Y-58475500D01*
X169073641Y-58478139D01*
X169077440Y-58478935D01*
X169084268Y-58480367D01*
X169114138Y-58476643D01*
X169115677Y-58476452D01*
X169131014Y-58475500D01*
X169131111Y-58475500D01*
X169131114Y-58475500D01*
X169151643Y-58472073D01*
X169156659Y-58471342D01*
X169208626Y-58464866D01*
X169208628Y-58464864D01*
X169216457Y-58463889D01*
X169216666Y-58463822D01*
X169223607Y-58460065D01*
X169223610Y-58460065D01*
X169269666Y-58435140D01*
X169274144Y-58432835D01*
X169321211Y-58409826D01*
X169321212Y-58409824D01*
X169328308Y-58406356D01*
X169328476Y-58406230D01*
X169333824Y-58400419D01*
X169333826Y-58400419D01*
X169369294Y-58361889D01*
X169372795Y-58358240D01*
X169959779Y-57771256D01*
X170021100Y-57737773D01*
X170090792Y-57742757D01*
X170099863Y-57746557D01*
X170170670Y-57779575D01*
X170382023Y-57836207D01*
X170600000Y-57855277D01*
X170817977Y-57836207D01*
X171029330Y-57779575D01*
X171227639Y-57687102D01*
X171406877Y-57561598D01*
X171561598Y-57406877D01*
X171687102Y-57227639D01*
X171779575Y-57029330D01*
X171836207Y-56817977D01*
X171855277Y-56600000D01*
X173594858Y-56600000D01*
X173615386Y-56847732D01*
X173676413Y-57088721D01*
X173776268Y-57316370D01*
X173876563Y-57469882D01*
X173876564Y-57469882D01*
X174574070Y-56772376D01*
X174576884Y-56785915D01*
X174646442Y-56920156D01*
X174749638Y-57030652D01*
X174878819Y-57109209D01*
X174930002Y-57123549D01*
X174229942Y-57823609D01*
X174229942Y-57823610D01*
X174276766Y-57860055D01*
X174495393Y-57978368D01*
X174730506Y-58059083D01*
X174975707Y-58100000D01*
X175224293Y-58100000D01*
X175469493Y-58059083D01*
X175704606Y-57978368D01*
X175923233Y-57860053D01*
X175970056Y-57823609D01*
X175271568Y-57125121D01*
X175388458Y-57074349D01*
X175505739Y-56978934D01*
X175592928Y-56855415D01*
X175623355Y-56769801D01*
X176323434Y-57469882D01*
X176423730Y-57316369D01*
X176523586Y-57088721D01*
X176584613Y-56847732D01*
X176605141Y-56599999D01*
X176584613Y-56352267D01*
X176523586Y-56111278D01*
X176423730Y-55883630D01*
X176323434Y-55730116D01*
X175625928Y-56427621D01*
X175623116Y-56414085D01*
X175553558Y-56279844D01*
X175450362Y-56169348D01*
X175321181Y-56090791D01*
X175269997Y-56076450D01*
X175970057Y-55376390D01*
X175970056Y-55376388D01*
X175923235Y-55339947D01*
X175704606Y-55221631D01*
X175469493Y-55140916D01*
X175224293Y-55100000D01*
X174975707Y-55100000D01*
X174730506Y-55140916D01*
X174495393Y-55221631D01*
X174276764Y-55339946D01*
X174229942Y-55376388D01*
X174229942Y-55376390D01*
X174928431Y-56074878D01*
X174811542Y-56125651D01*
X174694261Y-56221066D01*
X174607072Y-56344585D01*
X174576645Y-56430197D01*
X173876564Y-55730116D01*
X173776266Y-55883634D01*
X173676413Y-56111278D01*
X173615386Y-56352267D01*
X173594858Y-56600000D01*
X171855277Y-56600000D01*
X171851962Y-56562114D01*
X171842035Y-56448640D01*
X171836207Y-56382023D01*
X171779575Y-56170670D01*
X171687102Y-55972362D01*
X171561598Y-55793123D01*
X171406877Y-55638402D01*
X171227639Y-55512898D01*
X171143109Y-55473481D01*
X171047095Y-55428708D01*
X170994656Y-55382535D01*
X170975500Y-55316326D01*
X170975500Y-53500000D01*
X179994389Y-53500000D01*
X180014804Y-53785429D01*
X180075629Y-54065041D01*
X180081488Y-54080749D01*
X180172036Y-54323518D01*
X180175634Y-54333163D01*
X180312772Y-54584313D01*
X180357725Y-54644363D01*
X180484261Y-54813395D01*
X180686605Y-55015739D01*
X180831910Y-55124513D01*
X180915686Y-55187227D01*
X181004090Y-55235499D01*
X181166839Y-55324367D01*
X181434954Y-55424369D01*
X181434957Y-55424369D01*
X181434958Y-55424370D01*
X181454900Y-55428708D01*
X181714572Y-55485196D01*
X182000000Y-55505610D01*
X182285428Y-55485196D01*
X182565046Y-55424369D01*
X182833161Y-55324367D01*
X183084315Y-55187226D01*
X183313395Y-55015739D01*
X183515739Y-54813395D01*
X183687226Y-54584315D01*
X183824367Y-54333161D01*
X183924369Y-54065046D01*
X183985196Y-53785428D01*
X184005610Y-53500000D01*
X183985196Y-53214572D01*
X183927205Y-52947989D01*
X183924370Y-52934958D01*
X183924369Y-52934954D01*
X183824367Y-52666839D01*
X183722817Y-52480864D01*
X183687227Y-52415686D01*
X183632950Y-52343181D01*
X183515739Y-52186605D01*
X183313395Y-51984261D01*
X183188580Y-51890826D01*
X183084313Y-51812772D01*
X182833163Y-51675634D01*
X182833162Y-51675633D01*
X182833161Y-51675633D01*
X182630382Y-51600000D01*
X182565041Y-51575629D01*
X182285429Y-51514804D01*
X182000000Y-51494389D01*
X181714570Y-51514804D01*
X181434958Y-51575629D01*
X181166836Y-51675634D01*
X180915686Y-51812772D01*
X180686602Y-51984263D01*
X180484263Y-52186602D01*
X180312772Y-52415686D01*
X180175634Y-52666836D01*
X180075629Y-52934958D01*
X180014804Y-53214570D01*
X179994389Y-53500000D01*
X170975500Y-53500000D01*
X170975500Y-51383672D01*
X170995185Y-51316633D01*
X171047094Y-51271291D01*
X171227639Y-51187102D01*
X171406877Y-51061598D01*
X171561598Y-50906877D01*
X171687102Y-50727639D01*
X171779575Y-50529330D01*
X171836207Y-50317977D01*
X171855277Y-50100000D01*
X171855277Y-50099999D01*
X173594858Y-50099999D01*
X173615386Y-50347732D01*
X173676413Y-50588721D01*
X173776268Y-50816370D01*
X173876563Y-50969882D01*
X173876564Y-50969882D01*
X174574070Y-50272375D01*
X174576884Y-50285915D01*
X174646442Y-50420156D01*
X174749638Y-50530652D01*
X174878819Y-50609209D01*
X174930002Y-50623549D01*
X174229942Y-51323609D01*
X174229942Y-51323610D01*
X174276766Y-51360055D01*
X174495393Y-51478368D01*
X174730506Y-51559083D01*
X174975707Y-51600000D01*
X175224293Y-51600000D01*
X175469493Y-51559083D01*
X175704606Y-51478368D01*
X175923233Y-51360053D01*
X175970056Y-51323609D01*
X175271568Y-50625121D01*
X175388458Y-50574349D01*
X175505739Y-50478934D01*
X175592928Y-50355415D01*
X175623354Y-50269802D01*
X176323434Y-50969882D01*
X176423730Y-50816369D01*
X176523586Y-50588721D01*
X176584613Y-50347732D01*
X176605141Y-50100000D01*
X176584613Y-49852267D01*
X176523586Y-49611278D01*
X176423730Y-49383630D01*
X176323434Y-49230116D01*
X175625929Y-49927622D01*
X175623116Y-49914085D01*
X175553558Y-49779844D01*
X175450362Y-49669348D01*
X175321181Y-49590791D01*
X175269997Y-49576450D01*
X175970057Y-48876390D01*
X175970056Y-48876388D01*
X175923235Y-48839947D01*
X175704606Y-48721631D01*
X175469493Y-48640916D01*
X175224293Y-48600000D01*
X174975707Y-48600000D01*
X174730506Y-48640916D01*
X174495393Y-48721631D01*
X174276764Y-48839946D01*
X174229942Y-48876388D01*
X174229942Y-48876390D01*
X174928431Y-49574878D01*
X174811542Y-49625651D01*
X174694261Y-49721066D01*
X174607072Y-49844585D01*
X174576645Y-49930196D01*
X173876564Y-49230117D01*
X173776266Y-49383634D01*
X173676413Y-49611278D01*
X173615386Y-49852267D01*
X173594858Y-50099999D01*
X171855277Y-50099999D01*
X171854061Y-50086106D01*
X171836207Y-49882025D01*
X171836207Y-49882023D01*
X171779575Y-49670670D01*
X171687102Y-49472362D01*
X171561598Y-49293123D01*
X171406877Y-49138402D01*
X171227639Y-49012898D01*
X171121930Y-48963605D01*
X171029331Y-48920425D01*
X170817974Y-48863792D01*
X170600000Y-48844722D01*
X170382025Y-48863792D01*
X170170668Y-48920425D01*
X169972361Y-49012898D01*
X169793122Y-49138402D01*
X169638402Y-49293122D01*
X169512898Y-49472361D01*
X169420425Y-49670668D01*
X169363792Y-49882025D01*
X169344722Y-50099999D01*
X169363792Y-50317974D01*
X169420425Y-50529331D01*
X169447458Y-50587303D01*
X169512898Y-50727639D01*
X169638402Y-50906877D01*
X169793123Y-51061598D01*
X169972361Y-51187102D01*
X169972364Y-51187104D01*
X170039130Y-51218237D01*
X170152905Y-51271291D01*
X170205344Y-51317462D01*
X170224500Y-51383672D01*
X170224500Y-55316326D01*
X170204815Y-55383365D01*
X170152905Y-55428708D01*
X169972361Y-55512898D01*
X169793122Y-55638402D01*
X169638402Y-55793122D01*
X169512898Y-55972361D01*
X169420425Y-56170668D01*
X169363792Y-56382025D01*
X169344722Y-56599999D01*
X169363792Y-56817974D01*
X169420426Y-57029334D01*
X169453441Y-57100135D01*
X169463933Y-57169212D01*
X169435413Y-57232996D01*
X169428740Y-57240220D01*
X168980781Y-57688181D01*
X168919458Y-57721666D01*
X168893100Y-57724500D01*
X167086218Y-57724500D01*
X167019179Y-57704815D01*
X166973424Y-57652011D01*
X166963480Y-57582853D01*
X166982409Y-57532678D01*
X167123733Y-57316365D01*
X167223586Y-57088721D01*
X167284613Y-56847732D01*
X167305141Y-56600000D01*
X167284613Y-56352267D01*
X167223586Y-56111278D01*
X167123730Y-55883630D01*
X167023434Y-55730116D01*
X166325928Y-56427621D01*
X166323116Y-56414085D01*
X166253558Y-56279844D01*
X166150362Y-56169348D01*
X166021181Y-56090791D01*
X165969997Y-56076450D01*
X166670057Y-55376390D01*
X166670056Y-55376388D01*
X166623235Y-55339947D01*
X166404606Y-55221631D01*
X166169493Y-55140916D01*
X165924293Y-55100000D01*
X165675707Y-55100000D01*
X165430506Y-55140916D01*
X165195393Y-55221631D01*
X164976764Y-55339946D01*
X164929942Y-55376388D01*
X164929942Y-55376390D01*
X165628431Y-56074878D01*
X165511542Y-56125651D01*
X165394261Y-56221066D01*
X165307072Y-56344585D01*
X165276645Y-56430197D01*
X164576564Y-55730116D01*
X164476266Y-55883634D01*
X164376413Y-56111278D01*
X164315386Y-56352267D01*
X164294858Y-56599999D01*
X164315386Y-56847732D01*
X164376413Y-57088721D01*
X164476266Y-57316365D01*
X164617591Y-57532678D01*
X164637778Y-57599568D01*
X164618598Y-57666753D01*
X164566140Y-57712904D01*
X164513782Y-57724500D01*
X162243337Y-57724500D01*
X162176298Y-57704815D01*
X162130543Y-57652011D01*
X162120599Y-57582853D01*
X162149624Y-57519297D01*
X162155656Y-57512819D01*
X162198593Y-57469882D01*
X162261598Y-57406877D01*
X162387102Y-57227639D01*
X162479575Y-57029330D01*
X162536207Y-56817977D01*
X162555277Y-56600000D01*
X162551962Y-56562114D01*
X162542035Y-56448640D01*
X162536207Y-56382023D01*
X162479575Y-56170670D01*
X162387102Y-55972362D01*
X162261598Y-55793123D01*
X162106877Y-55638402D01*
X161927639Y-55512898D01*
X161843109Y-55473481D01*
X161747095Y-55428708D01*
X161694656Y-55382535D01*
X161675500Y-55316326D01*
X161675500Y-51383672D01*
X161695185Y-51316633D01*
X161747094Y-51271291D01*
X161927639Y-51187102D01*
X162106877Y-51061598D01*
X162261598Y-50906877D01*
X162387102Y-50727639D01*
X162479575Y-50529330D01*
X162536207Y-50317977D01*
X162555277Y-50100000D01*
X164294858Y-50100000D01*
X164315386Y-50347732D01*
X164376413Y-50588721D01*
X164476268Y-50816370D01*
X164576563Y-50969882D01*
X164576564Y-50969882D01*
X165274070Y-50272376D01*
X165276884Y-50285915D01*
X165346442Y-50420156D01*
X165449638Y-50530652D01*
X165578819Y-50609209D01*
X165630002Y-50623549D01*
X164929942Y-51323609D01*
X164929942Y-51323610D01*
X164976766Y-51360055D01*
X165195393Y-51478368D01*
X165430506Y-51559083D01*
X165675707Y-51600000D01*
X165924293Y-51600000D01*
X166169493Y-51559083D01*
X166404606Y-51478368D01*
X166623233Y-51360053D01*
X166670056Y-51323609D01*
X165971568Y-50625121D01*
X166088458Y-50574349D01*
X166205739Y-50478934D01*
X166292928Y-50355415D01*
X166323354Y-50269802D01*
X167023434Y-50969882D01*
X167123730Y-50816369D01*
X167223586Y-50588721D01*
X167284613Y-50347732D01*
X167305141Y-50099999D01*
X167284613Y-49852267D01*
X167223586Y-49611278D01*
X167123730Y-49383630D01*
X167023434Y-49230116D01*
X166325929Y-49927622D01*
X166323116Y-49914085D01*
X166253558Y-49779844D01*
X166150362Y-49669348D01*
X166021181Y-49590791D01*
X165969997Y-49576450D01*
X166670057Y-48876390D01*
X166670056Y-48876388D01*
X166623235Y-48839947D01*
X166404608Y-48721632D01*
X166319111Y-48692280D01*
X166262096Y-48651894D01*
X166235966Y-48587094D01*
X166249018Y-48518454D01*
X166297107Y-48467767D01*
X166319113Y-48457717D01*
X166404610Y-48428366D01*
X166623233Y-48310053D01*
X166670056Y-48273609D01*
X165971568Y-47575121D01*
X166088458Y-47524349D01*
X166205739Y-47428934D01*
X166292928Y-47305415D01*
X166323354Y-47219802D01*
X167023434Y-47919882D01*
X167123730Y-47766369D01*
X167223586Y-47538721D01*
X167284613Y-47297732D01*
X167305141Y-47050000D01*
X167284613Y-46802267D01*
X167223586Y-46561278D01*
X167123730Y-46333630D01*
X167023434Y-46180116D01*
X166325929Y-46877622D01*
X166323116Y-46864085D01*
X166253558Y-46729844D01*
X166150362Y-46619348D01*
X166021181Y-46540791D01*
X165969997Y-46526450D01*
X166670057Y-45826390D01*
X166670056Y-45826388D01*
X166623235Y-45789947D01*
X166404606Y-45671631D01*
X166169493Y-45590916D01*
X165924293Y-45550000D01*
X165675707Y-45550000D01*
X165430506Y-45590916D01*
X165195393Y-45671631D01*
X164976764Y-45789946D01*
X164929942Y-45826388D01*
X164929942Y-45826390D01*
X165628431Y-46524878D01*
X165511542Y-46575651D01*
X165394261Y-46671066D01*
X165307072Y-46794585D01*
X165276645Y-46880197D01*
X164576564Y-46180116D01*
X164476266Y-46333634D01*
X164376413Y-46561278D01*
X164315386Y-46802267D01*
X164294858Y-47050000D01*
X164315386Y-47297732D01*
X164376413Y-47538721D01*
X164476268Y-47766370D01*
X164576563Y-47919882D01*
X164576564Y-47919882D01*
X165274070Y-47222376D01*
X165276884Y-47235915D01*
X165346442Y-47370156D01*
X165449638Y-47480652D01*
X165578819Y-47559209D01*
X165630002Y-47573549D01*
X164929942Y-48273609D01*
X164929942Y-48273610D01*
X164976766Y-48310055D01*
X165195389Y-48428366D01*
X165280886Y-48457717D01*
X165337902Y-48498103D01*
X165364033Y-48562902D01*
X165350982Y-48631542D01*
X165302894Y-48682230D01*
X165280888Y-48692280D01*
X165195392Y-48721632D01*
X164976764Y-48839946D01*
X164929942Y-48876388D01*
X164929942Y-48876390D01*
X165628431Y-49574878D01*
X165511542Y-49625651D01*
X165394261Y-49721066D01*
X165307072Y-49844585D01*
X165276645Y-49930196D01*
X164576564Y-49230117D01*
X164476266Y-49383634D01*
X164376413Y-49611278D01*
X164315386Y-49852267D01*
X164294858Y-50100000D01*
X162555277Y-50100000D01*
X162554061Y-50086106D01*
X162536207Y-49882025D01*
X162536207Y-49882023D01*
X162479575Y-49670670D01*
X162387102Y-49472362D01*
X162261598Y-49293123D01*
X162106877Y-49138402D01*
X161927639Y-49012898D01*
X161821930Y-48963605D01*
X161729331Y-48920425D01*
X161517974Y-48863792D01*
X161300000Y-48844722D01*
X161082025Y-48863792D01*
X160870668Y-48920425D01*
X160672361Y-49012898D01*
X160493122Y-49138402D01*
X160338402Y-49293122D01*
X160212898Y-49472361D01*
X160120425Y-49670668D01*
X160063792Y-49882025D01*
X160044722Y-50100000D01*
X160063792Y-50317974D01*
X160120425Y-50529331D01*
X160147458Y-50587303D01*
X160212898Y-50727639D01*
X160338402Y-50906877D01*
X160493123Y-51061598D01*
X160672361Y-51187102D01*
X160672364Y-51187104D01*
X160739130Y-51218237D01*
X160852905Y-51271291D01*
X160905344Y-51317462D01*
X160924500Y-51383672D01*
X160924500Y-55316326D01*
X160904815Y-55383365D01*
X160852905Y-55428708D01*
X160672361Y-55512898D01*
X160493122Y-55638402D01*
X160338402Y-55793122D01*
X160212898Y-55972361D01*
X160120425Y-56170668D01*
X160063792Y-56382025D01*
X160044722Y-56600000D01*
X160063792Y-56817974D01*
X160120425Y-57029331D01*
X160156604Y-57106916D01*
X160212898Y-57227639D01*
X160338402Y-57406877D01*
X160338405Y-57406880D01*
X160444344Y-57512819D01*
X160477829Y-57574142D01*
X160472845Y-57643834D01*
X160430973Y-57699767D01*
X160365509Y-57724184D01*
X160356663Y-57724500D01*
X160106899Y-57724500D01*
X160039860Y-57704815D01*
X160019218Y-57688181D01*
X159311819Y-56980781D01*
X159278334Y-56919458D01*
X159275500Y-56893100D01*
X159275500Y-56125636D01*
X159278139Y-56100189D01*
X159280367Y-56089565D01*
X159276763Y-56060651D01*
X159276452Y-56058155D01*
X159275500Y-56042818D01*
X159275500Y-56042721D01*
X159275500Y-56042719D01*
X159272074Y-56022190D01*
X159271342Y-56017167D01*
X159264866Y-55965208D01*
X159264864Y-55965204D01*
X159263889Y-55957380D01*
X159263819Y-55957160D01*
X159247952Y-55927841D01*
X159235159Y-55904202D01*
X159232822Y-55899662D01*
X159232726Y-55899465D01*
X159209826Y-55852622D01*
X159209825Y-55852621D01*
X159206360Y-55845533D01*
X159206225Y-55845352D01*
X159200419Y-55840007D01*
X159161891Y-55804539D01*
X159158218Y-55801014D01*
X156328316Y-52971111D01*
X156312189Y-52951253D01*
X156306250Y-52942162D01*
X156281277Y-52922725D01*
X156269760Y-52912554D01*
X156269686Y-52912480D01*
X156252761Y-52900397D01*
X156248647Y-52897330D01*
X156207356Y-52865191D01*
X156207353Y-52865190D01*
X156201130Y-52860346D01*
X156200928Y-52860242D01*
X156193367Y-52857990D01*
X156193366Y-52857990D01*
X156143203Y-52843055D01*
X156138341Y-52841497D01*
X156126947Y-52837586D01*
X156081369Y-52821939D01*
X156081136Y-52821906D01*
X156036077Y-52823769D01*
X156020973Y-52824394D01*
X156015851Y-52824500D01*
X149396308Y-52824500D01*
X149329269Y-52804815D01*
X149294257Y-52770938D01*
X149290484Y-52765471D01*
X149286831Y-52762235D01*
X149172240Y-52660717D01*
X149151819Y-52649999D01*
X149032364Y-52587303D01*
X148878985Y-52549500D01*
X148721015Y-52549500D01*
X148567635Y-52587303D01*
X148427761Y-52660716D01*
X148309515Y-52765471D01*
X148219780Y-52895476D01*
X148163763Y-53043181D01*
X148144721Y-53199999D01*
X147505732Y-53199999D01*
X148823020Y-51882711D01*
X148881024Y-51849997D01*
X149032365Y-51812696D01*
X149172240Y-51739283D01*
X149290483Y-51634530D01*
X149380220Y-51504523D01*
X149436237Y-51356818D01*
X149455278Y-51200000D01*
X149436237Y-51043182D01*
X149380220Y-50895477D01*
X149309592Y-50793154D01*
X149290484Y-50765471D01*
X149288006Y-50763276D01*
X149172240Y-50660717D01*
X149151821Y-50650000D01*
X149032364Y-50587303D01*
X148878985Y-50549500D01*
X148721015Y-50549500D01*
X148567635Y-50587303D01*
X148427761Y-50660716D01*
X148309515Y-50765471D01*
X148219780Y-50895476D01*
X148163763Y-51043181D01*
X148144721Y-51200000D01*
X148163763Y-51356820D01*
X148169176Y-51371093D01*
X148174542Y-51440756D01*
X148141393Y-51502261D01*
X148140914Y-51502742D01*
X144095476Y-55548181D01*
X144034153Y-55581666D01*
X144007795Y-55584500D01*
X141145898Y-55584500D01*
X141078859Y-55564815D01*
X141033104Y-55512011D01*
X141023160Y-55442853D01*
X141052185Y-55379297D01*
X141058217Y-55372819D01*
X141251391Y-55179645D01*
X141628892Y-54802144D01*
X141648743Y-54786024D01*
X141657836Y-54780084D01*
X141677280Y-54755101D01*
X141687453Y-54743584D01*
X141687520Y-54743518D01*
X141699619Y-54726570D01*
X141702641Y-54722515D01*
X141734809Y-54681189D01*
X141734810Y-54681185D01*
X141739666Y-54674947D01*
X141739753Y-54674778D01*
X141742008Y-54667200D01*
X141742010Y-54667199D01*
X141756951Y-54617009D01*
X141758479Y-54612238D01*
X141775500Y-54562660D01*
X141775500Y-54562655D01*
X141778060Y-54555199D01*
X141778093Y-54554970D01*
X141777767Y-54547090D01*
X141777768Y-54547088D01*
X141775605Y-54494806D01*
X141775500Y-54489684D01*
X141775500Y-50100000D01*
X150744722Y-50100000D01*
X150763792Y-50317974D01*
X150820425Y-50529331D01*
X150847458Y-50587303D01*
X150912898Y-50727639D01*
X151038402Y-50906877D01*
X151193123Y-51061598D01*
X151372361Y-51187102D01*
X151570670Y-51279575D01*
X151782023Y-51336207D01*
X152000000Y-51355277D01*
X152217977Y-51336207D01*
X152429330Y-51279575D01*
X152627639Y-51187102D01*
X152806877Y-51061598D01*
X152961598Y-50906877D01*
X153087102Y-50727639D01*
X153179575Y-50529330D01*
X153236207Y-50317977D01*
X153255277Y-50100000D01*
X153255277Y-50099999D01*
X154994858Y-50099999D01*
X155015386Y-50347732D01*
X155076413Y-50588721D01*
X155176268Y-50816370D01*
X155276563Y-50969882D01*
X155276564Y-50969882D01*
X155974070Y-50272375D01*
X155976884Y-50285915D01*
X156046442Y-50420156D01*
X156149638Y-50530652D01*
X156278819Y-50609209D01*
X156330002Y-50623549D01*
X155629942Y-51323609D01*
X155629942Y-51323610D01*
X155676766Y-51360055D01*
X155895393Y-51478368D01*
X156130506Y-51559083D01*
X156375707Y-51600000D01*
X156624293Y-51600000D01*
X156869493Y-51559083D01*
X157104606Y-51478368D01*
X157323233Y-51360053D01*
X157370056Y-51323609D01*
X156671568Y-50625121D01*
X156788458Y-50574349D01*
X156905739Y-50478934D01*
X156992928Y-50355415D01*
X157023354Y-50269802D01*
X157723434Y-50969882D01*
X157823730Y-50816369D01*
X157923586Y-50588721D01*
X157984613Y-50347732D01*
X158005141Y-50099999D01*
X157984613Y-49852267D01*
X157923586Y-49611278D01*
X157823730Y-49383630D01*
X157723434Y-49230116D01*
X157025929Y-49927622D01*
X157023116Y-49914085D01*
X156953558Y-49779844D01*
X156850362Y-49669348D01*
X156721181Y-49590791D01*
X156669997Y-49576450D01*
X157370057Y-48876390D01*
X157370056Y-48876388D01*
X157323235Y-48839947D01*
X157104606Y-48721631D01*
X156869493Y-48640916D01*
X156624293Y-48600000D01*
X156375707Y-48600000D01*
X156130506Y-48640916D01*
X155895393Y-48721631D01*
X155676764Y-48839946D01*
X155629942Y-48876388D01*
X155629942Y-48876390D01*
X156328431Y-49574878D01*
X156211542Y-49625651D01*
X156094261Y-49721066D01*
X156007072Y-49844585D01*
X155976645Y-49930196D01*
X155276564Y-49230117D01*
X155176266Y-49383634D01*
X155076413Y-49611278D01*
X155015386Y-49852267D01*
X154994858Y-50099999D01*
X153255277Y-50099999D01*
X153236207Y-49882023D01*
X153179575Y-49670670D01*
X153087102Y-49472362D01*
X152961598Y-49293123D01*
X152806877Y-49138402D01*
X152627639Y-49012898D01*
X152521930Y-48963605D01*
X152429331Y-48920425D01*
X152217974Y-48863792D01*
X152000000Y-48844722D01*
X151782025Y-48863792D01*
X151570668Y-48920425D01*
X151372361Y-49012898D01*
X151193122Y-49138402D01*
X151038402Y-49293122D01*
X150912898Y-49472361D01*
X150820425Y-49670668D01*
X150763792Y-49882025D01*
X150744722Y-50100000D01*
X141775500Y-50100000D01*
X141775500Y-47049999D01*
X160044722Y-47049999D01*
X160063792Y-47267974D01*
X160120425Y-47479331D01*
X160148119Y-47538721D01*
X160212898Y-47677639D01*
X160338402Y-47856877D01*
X160493123Y-48011598D01*
X160672361Y-48137102D01*
X160870670Y-48229575D01*
X161082023Y-48286207D01*
X161210969Y-48297488D01*
X161299999Y-48305277D01*
X161299999Y-48305276D01*
X161300000Y-48305277D01*
X161517977Y-48286207D01*
X161729330Y-48229575D01*
X161927639Y-48137102D01*
X162106877Y-48011598D01*
X162261598Y-47856877D01*
X162387102Y-47677639D01*
X162479575Y-47479330D01*
X162536207Y-47267977D01*
X162555277Y-47050000D01*
X162536207Y-46832023D01*
X162479575Y-46620670D01*
X162387102Y-46422362D01*
X162261598Y-46243123D01*
X162106877Y-46088402D01*
X161927639Y-45962898D01*
X161874443Y-45938092D01*
X161747095Y-45878708D01*
X161694656Y-45832535D01*
X161675500Y-45766326D01*
X161675500Y-41833672D01*
X161695185Y-41766633D01*
X161747094Y-41721291D01*
X161927639Y-41637102D01*
X162106877Y-41511598D01*
X162261598Y-41356877D01*
X162387102Y-41177639D01*
X162479575Y-40979330D01*
X162536207Y-40767977D01*
X162555277Y-40550000D01*
X164294858Y-40550000D01*
X164315386Y-40797732D01*
X164376413Y-41038721D01*
X164476268Y-41266370D01*
X164576563Y-41419882D01*
X164576564Y-41419882D01*
X165274070Y-40722376D01*
X165276884Y-40735915D01*
X165346442Y-40870156D01*
X165449638Y-40980652D01*
X165578819Y-41059209D01*
X165630002Y-41073549D01*
X164929942Y-41773609D01*
X164929942Y-41773610D01*
X164976766Y-41810055D01*
X165195393Y-41928368D01*
X165430506Y-42009083D01*
X165675707Y-42050000D01*
X165924293Y-42050000D01*
X166169493Y-42009083D01*
X166404606Y-41928368D01*
X166623233Y-41810053D01*
X166670056Y-41773609D01*
X165971568Y-41075121D01*
X166088458Y-41024349D01*
X166205739Y-40928934D01*
X166292928Y-40805415D01*
X166323354Y-40719802D01*
X167023434Y-41419882D01*
X167123730Y-41266369D01*
X167223586Y-41038721D01*
X167284613Y-40797732D01*
X167305141Y-40550000D01*
X167284613Y-40302267D01*
X167223586Y-40061278D01*
X167123730Y-39833630D01*
X167023434Y-39680116D01*
X166325929Y-40377622D01*
X166323116Y-40364085D01*
X166253558Y-40229844D01*
X166150362Y-40119348D01*
X166021181Y-40040791D01*
X165969995Y-40026449D01*
X166670056Y-39326389D01*
X166670056Y-39326387D01*
X166623235Y-39289947D01*
X166404606Y-39171631D01*
X166169493Y-39090916D01*
X165924293Y-39050000D01*
X165675707Y-39050000D01*
X165430506Y-39090916D01*
X165195393Y-39171631D01*
X164976764Y-39289946D01*
X164929942Y-39326388D01*
X164929941Y-39326389D01*
X165628431Y-40024878D01*
X165511542Y-40075651D01*
X165394261Y-40171066D01*
X165307072Y-40294585D01*
X165276645Y-40380196D01*
X164576564Y-39680117D01*
X164476266Y-39833634D01*
X164376413Y-40061278D01*
X164315386Y-40302267D01*
X164294858Y-40550000D01*
X162555277Y-40550000D01*
X162552817Y-40521887D01*
X162536207Y-40332025D01*
X162536207Y-40332023D01*
X162479575Y-40120670D01*
X162387102Y-39922362D01*
X162261598Y-39743123D01*
X162106877Y-39588402D01*
X161927639Y-39462898D01*
X161807375Y-39406818D01*
X161729331Y-39370425D01*
X161517974Y-39313792D01*
X161300000Y-39294722D01*
X161082025Y-39313792D01*
X160870668Y-39370425D01*
X160672361Y-39462898D01*
X160493122Y-39588402D01*
X160338402Y-39743122D01*
X160212898Y-39922361D01*
X160120425Y-40120668D01*
X160063792Y-40332025D01*
X160044722Y-40550000D01*
X160063792Y-40767974D01*
X160120425Y-40979331D01*
X160146085Y-41034358D01*
X160212898Y-41177639D01*
X160338402Y-41356877D01*
X160493123Y-41511598D01*
X160672361Y-41637102D01*
X160672364Y-41637104D01*
X160764351Y-41679998D01*
X160852905Y-41721291D01*
X160905344Y-41767462D01*
X160924500Y-41833672D01*
X160924500Y-45766326D01*
X160904815Y-45833365D01*
X160852905Y-45878708D01*
X160672361Y-45962898D01*
X160493122Y-46088402D01*
X160338402Y-46243122D01*
X160212898Y-46422361D01*
X160120425Y-46620668D01*
X160063792Y-46832025D01*
X160044722Y-47049999D01*
X141775500Y-47049999D01*
X141775500Y-43906898D01*
X141795185Y-43839859D01*
X141811814Y-43819222D01*
X145694217Y-39936818D01*
X145755540Y-39903334D01*
X145781898Y-39900500D01*
X145928985Y-39900500D01*
X146082365Y-39862696D01*
X146222240Y-39789283D01*
X146340483Y-39684530D01*
X146430220Y-39554523D01*
X146486237Y-39406818D01*
X146505278Y-39250000D01*
X146486237Y-39093182D01*
X146430220Y-38945477D01*
X146340483Y-38815470D01*
X146222240Y-38710717D01*
X146208994Y-38703764D01*
X146082364Y-38637303D01*
X145914367Y-38595897D01*
X145914654Y-38594730D01*
X145863860Y-38579815D01*
X145818105Y-38527011D01*
X145808161Y-38457853D01*
X145837186Y-38394297D01*
X145843218Y-38387819D01*
X147731037Y-36500000D01*
X171494356Y-36500000D01*
X171514891Y-36747816D01*
X171514891Y-36747819D01*
X171514892Y-36747821D01*
X171575937Y-36988881D01*
X171620960Y-37091523D01*
X171675825Y-37216604D01*
X171675827Y-37216607D01*
X171811836Y-37424785D01*
X171980256Y-37607738D01*
X171980259Y-37607740D01*
X172176485Y-37760470D01*
X172176487Y-37760471D01*
X172176491Y-37760474D01*
X172395190Y-37878828D01*
X172630386Y-37959571D01*
X172875665Y-38000500D01*
X173124335Y-38000500D01*
X173369614Y-37959571D01*
X173604810Y-37878828D01*
X173823509Y-37760474D01*
X174019744Y-37607738D01*
X174188164Y-37424785D01*
X174324173Y-37216607D01*
X174424063Y-36988881D01*
X174485108Y-36747821D01*
X174505643Y-36500000D01*
X174485108Y-36252179D01*
X174424063Y-36011119D01*
X174324173Y-35783393D01*
X174188164Y-35575215D01*
X174019744Y-35392262D01*
X173965655Y-35350163D01*
X173823514Y-35239529D01*
X173823510Y-35239526D01*
X173823509Y-35239526D01*
X173604810Y-35121172D01*
X173604806Y-35121170D01*
X173604805Y-35121170D01*
X173369615Y-35040429D01*
X173124335Y-34999500D01*
X172875665Y-34999500D01*
X172630384Y-35040429D01*
X172395194Y-35121170D01*
X172176485Y-35239529D01*
X171980259Y-35392259D01*
X171811837Y-35575214D01*
X171675825Y-35783395D01*
X171650850Y-35840334D01*
X171575937Y-36011119D01*
X171514892Y-36252179D01*
X171514891Y-36252183D01*
X171494356Y-36500000D01*
X147731037Y-36500000D01*
X150344218Y-33886819D01*
X150405541Y-33853334D01*
X150431899Y-33850500D01*
X150578985Y-33850500D01*
X150732365Y-33812696D01*
X150872240Y-33739283D01*
X150990483Y-33634530D01*
X151080220Y-33504523D01*
X151136237Y-33356818D01*
X151155278Y-33200000D01*
X151136237Y-33043182D01*
X151080220Y-32895477D01*
X150990483Y-32765470D01*
X150964346Y-32742315D01*
X150927220Y-32683127D01*
X150927986Y-32613262D01*
X150966404Y-32554902D01*
X151030274Y-32526576D01*
X151046573Y-32525500D01*
X153346000Y-32525500D01*
X153413039Y-32545185D01*
X153458794Y-32597989D01*
X153470000Y-32649500D01*
X153470000Y-33090000D01*
X154386314Y-33090000D01*
X154360507Y-33130156D01*
X154320000Y-33268111D01*
X154320000Y-33411889D01*
X154360507Y-33549844D01*
X154386314Y-33590000D01*
X153470000Y-33590000D01*
X153470000Y-34234518D01*
X153470354Y-34241132D01*
X153476400Y-34297371D01*
X153526647Y-34432089D01*
X153612811Y-34547188D01*
X153727910Y-34633352D01*
X153862628Y-34683599D01*
X153918867Y-34689645D01*
X153925482Y-34690000D01*
X154570000Y-34690000D01*
X154570000Y-33775501D01*
X154677685Y-33824680D01*
X154784237Y-33840000D01*
X154855763Y-33840000D01*
X154962315Y-33824680D01*
X155070000Y-33775501D01*
X155070000Y-34690000D01*
X155714518Y-34690000D01*
X155721132Y-34689645D01*
X155777371Y-34683599D01*
X155912089Y-34633352D01*
X156027188Y-34547188D01*
X156113352Y-34432089D01*
X156163599Y-34297371D01*
X156169645Y-34241132D01*
X156170000Y-34234518D01*
X156170000Y-33946312D01*
X156189685Y-33879273D01*
X156242489Y-33833518D01*
X156311647Y-33823574D01*
X156375203Y-33852599D01*
X156404999Y-33891039D01*
X156420327Y-33921821D01*
X156420328Y-33921822D01*
X156543236Y-34084580D01*
X156693958Y-34221981D01*
X156815718Y-34297371D01*
X156867363Y-34329348D01*
X157057544Y-34403024D01*
X157258024Y-34440500D01*
X157258026Y-34440500D01*
X157461974Y-34440500D01*
X157461976Y-34440500D01*
X157662456Y-34403024D01*
X157852637Y-34329348D01*
X158026041Y-34221981D01*
X158176764Y-34084579D01*
X158299673Y-33921821D01*
X158299673Y-33921819D01*
X158299675Y-33921818D01*
X158356874Y-33806945D01*
X158390582Y-33739250D01*
X158446397Y-33543083D01*
X158465215Y-33340000D01*
X158446397Y-33136917D01*
X158444473Y-33130156D01*
X158419726Y-33043181D01*
X158390582Y-32940750D01*
X158390209Y-32940001D01*
X158299675Y-32758181D01*
X158176763Y-32595419D01*
X158026041Y-32458018D01*
X157852638Y-32350652D01*
X157767683Y-32317741D01*
X157760934Y-32315126D01*
X157705533Y-32272554D01*
X157681942Y-32206788D01*
X157697653Y-32138707D01*
X157747677Y-32089928D01*
X157805728Y-32075500D01*
X158053101Y-32075500D01*
X158120140Y-32095185D01*
X158140782Y-32111819D01*
X158840106Y-32811143D01*
X158873591Y-32872466D01*
X158871691Y-32932758D01*
X158813603Y-33136914D01*
X158794785Y-33339999D01*
X158813602Y-33543083D01*
X158869418Y-33739251D01*
X158960324Y-33921818D01*
X159083236Y-34084580D01*
X159233958Y-34221981D01*
X159355718Y-34297371D01*
X159407363Y-34329348D01*
X159597544Y-34403024D01*
X159798024Y-34440500D01*
X159798026Y-34440500D01*
X160001974Y-34440500D01*
X160001976Y-34440500D01*
X160202456Y-34403024D01*
X160392637Y-34329348D01*
X160566041Y-34221981D01*
X160716764Y-34084579D01*
X160839673Y-33921821D01*
X160839673Y-33921819D01*
X160839675Y-33921818D01*
X160896874Y-33806945D01*
X160930582Y-33739250D01*
X160986397Y-33543083D01*
X161005215Y-33340000D01*
X160986397Y-33136917D01*
X160984473Y-33130156D01*
X160959726Y-33043181D01*
X160930582Y-32940750D01*
X160930209Y-32940001D01*
X160839675Y-32758181D01*
X160716763Y-32595419D01*
X160566041Y-32458018D01*
X160392638Y-32350652D01*
X160202457Y-32276976D01*
X160135629Y-32264484D01*
X160001976Y-32239500D01*
X159798024Y-32239500D01*
X159597544Y-32276976D01*
X159535956Y-32300834D01*
X159507445Y-32311880D01*
X159437821Y-32317741D01*
X159376082Y-32285031D01*
X159374971Y-32283934D01*
X158991146Y-31900109D01*
X158562149Y-31471111D01*
X158546022Y-31451253D01*
X158540083Y-31442162D01*
X158515110Y-31422725D01*
X158503593Y-31412554D01*
X158503519Y-31412480D01*
X158486594Y-31400397D01*
X158482480Y-31397330D01*
X158441189Y-31365191D01*
X158441186Y-31365190D01*
X158434963Y-31360346D01*
X158434761Y-31360242D01*
X158427200Y-31357990D01*
X158427199Y-31357990D01*
X158377036Y-31343055D01*
X158372174Y-31341497D01*
X158353637Y-31335134D01*
X158315202Y-31321939D01*
X158314969Y-31321906D01*
X158275265Y-31323548D01*
X158254806Y-31324394D01*
X158249684Y-31324500D01*
X149451805Y-31324500D01*
X149426359Y-31321861D01*
X149415733Y-31319633D01*
X149415732Y-31319633D01*
X149397858Y-31321861D01*
X149384323Y-31323548D01*
X149368986Y-31324500D01*
X149368884Y-31324500D01*
X149348399Y-31327918D01*
X149343332Y-31328657D01*
X149283567Y-31336107D01*
X149283312Y-31336189D01*
X149230370Y-31364838D01*
X149225820Y-31367180D01*
X149171715Y-31393632D01*
X149171505Y-31393788D01*
X149130718Y-31438094D01*
X149127171Y-31441790D01*
X135371108Y-45197852D01*
X135351254Y-45213976D01*
X135342165Y-45219914D01*
X135322722Y-45244894D01*
X135312563Y-45256398D01*
X135312484Y-45256476D01*
X135312479Y-45256482D01*
X135312480Y-45256482D01*
X135300390Y-45273414D01*
X135297341Y-45277504D01*
X135260354Y-45325024D01*
X135260237Y-45325253D01*
X135243057Y-45382955D01*
X135241495Y-45387831D01*
X135221941Y-45444791D01*
X135219821Y-45459349D01*
X135223394Y-45481011D01*
X135224394Y-45505191D01*
X135224500Y-45510315D01*
X135224500Y-51907796D01*
X135204815Y-51974835D01*
X135182731Y-52000608D01*
X135181731Y-52001494D01*
X135118499Y-52031218D01*
X135049236Y-52022038D01*
X134995930Y-51976868D01*
X134975508Y-51910049D01*
X134975500Y-51908682D01*
X134975500Y-45486135D01*
X134983627Y-45458456D01*
X134975500Y-45430588D01*
X134975500Y-44206898D01*
X134995185Y-44139859D01*
X135011819Y-44119217D01*
X146544217Y-32586819D01*
X146605540Y-32553334D01*
X146631898Y-32550500D01*
X146778985Y-32550500D01*
X146932365Y-32512696D01*
X147072240Y-32439283D01*
X147190483Y-32334530D01*
X147280220Y-32204523D01*
X147336237Y-32056818D01*
X147355278Y-31900000D01*
X147336237Y-31743182D01*
X147280220Y-31595477D01*
X147190483Y-31465470D01*
X147072240Y-31360717D01*
X147030150Y-31338626D01*
X146932364Y-31287303D01*
X146778985Y-31249500D01*
X146621015Y-31249500D01*
X146467635Y-31287303D01*
X146327761Y-31360716D01*
X146209515Y-31465471D01*
X146119780Y-31595476D01*
X146063763Y-31743181D01*
X146044721Y-31900000D01*
X146050896Y-31950853D01*
X146039435Y-32019777D01*
X146015481Y-32053480D01*
X134371108Y-43697852D01*
X134351254Y-43713976D01*
X134342165Y-43719914D01*
X134322722Y-43744894D01*
X134312563Y-43756398D01*
X134312484Y-43756476D01*
X134312479Y-43756482D01*
X134312480Y-43756482D01*
X134300390Y-43773414D01*
X134297341Y-43777504D01*
X134260354Y-43825024D01*
X134260237Y-43825253D01*
X134243057Y-43882955D01*
X134241495Y-43887831D01*
X134221941Y-43944792D01*
X134221906Y-43945034D01*
X134224394Y-44005191D01*
X134224500Y-44010315D01*
X134224500Y-52710330D01*
X134204815Y-52777369D01*
X134152011Y-52823124D01*
X134145296Y-52825956D01*
X134107361Y-52840652D01*
X133933958Y-52948018D01*
X133783236Y-53085419D01*
X133660324Y-53248181D01*
X133569418Y-53430748D01*
X133513602Y-53626916D01*
X133494785Y-53829999D01*
X133513602Y-54033083D01*
X133569418Y-54229251D01*
X133660324Y-54411818D01*
X133783236Y-54574580D01*
X133859785Y-54644363D01*
X133896067Y-54704074D01*
X133894306Y-54773922D01*
X133855063Y-54831729D01*
X133790796Y-54859144D01*
X133776247Y-54860000D01*
X133672399Y-54860000D01*
X133605360Y-54840315D01*
X133584718Y-54823681D01*
X133119893Y-54358856D01*
X133086408Y-54297533D01*
X133088308Y-54237240D01*
X133090580Y-54229252D01*
X133090582Y-54229250D01*
X133146397Y-54033083D01*
X133165215Y-53830000D01*
X133146397Y-53626917D01*
X133145042Y-53622156D01*
X133111572Y-53504523D01*
X133090582Y-53430750D01*
X133077784Y-53405048D01*
X132999675Y-53248181D01*
X132876763Y-53085419D01*
X132726041Y-52948018D01*
X132552638Y-52840652D01*
X132362457Y-52766976D01*
X132295629Y-52754484D01*
X132161976Y-52729500D01*
X131958024Y-52729500D01*
X131757544Y-52766976D01*
X131719877Y-52781568D01*
X131667445Y-52801880D01*
X131597821Y-52807741D01*
X131536082Y-52775031D01*
X131534971Y-52773934D01*
X131303336Y-52542299D01*
X131032149Y-52271111D01*
X131016022Y-52251253D01*
X131010083Y-52242162D01*
X130985110Y-52222725D01*
X130973593Y-52212554D01*
X130973519Y-52212480D01*
X130956594Y-52200397D01*
X130952479Y-52197329D01*
X130943286Y-52190174D01*
X130934057Y-52182990D01*
X130893246Y-52126281D01*
X130889573Y-52056508D01*
X130920000Y-52002009D01*
X130920000Y-32199500D01*
X130939685Y-32132461D01*
X130992489Y-32086706D01*
X131044000Y-32075500D01*
X140303692Y-32075500D01*
X140370731Y-32095185D01*
X140405743Y-32129062D01*
X140409515Y-32134528D01*
X140409516Y-32134529D01*
X140409517Y-32134530D01*
X140527760Y-32239283D01*
X140667635Y-32312696D01*
X140821015Y-32350500D01*
X140978985Y-32350500D01*
X141132365Y-32312696D01*
X141272240Y-32239283D01*
X141390483Y-32134530D01*
X141480220Y-32004523D01*
X141536237Y-31856818D01*
X141555278Y-31700000D01*
X141536237Y-31543182D01*
X141480220Y-31395477D01*
X141405553Y-31287303D01*
X141390484Y-31265471D01*
X141372456Y-31249500D01*
X141272240Y-31160717D01*
X141218192Y-31132350D01*
X141132364Y-31087303D01*
X140978985Y-31049500D01*
X140821015Y-31049500D01*
X140667635Y-31087303D01*
X140527761Y-31160716D01*
X140409515Y-31265471D01*
X140405743Y-31270938D01*
X140351462Y-31314929D01*
X140303692Y-31324500D01*
X131044000Y-31324500D01*
X130976961Y-31304815D01*
X130931206Y-31252011D01*
X130920000Y-31200500D01*
X130920000Y-30624500D01*
X130939685Y-30557461D01*
X130992489Y-30511706D01*
X131044000Y-30500500D01*
X161998695Y-30500500D01*
X162001257Y-30500525D01*
G37*
%TD.AperFunction*%
%TA.AperFunction,Conductor*%
G36*
X151330140Y-59445185D02*
G01*
X151350782Y-59461819D01*
X155579642Y-63690679D01*
X155613127Y-63752002D01*
X155608143Y-63821694D01*
X155602964Y-63833626D01*
X155599418Y-63840747D01*
X155543602Y-64036916D01*
X155524785Y-64240000D01*
X155543602Y-64443083D01*
X155599418Y-64639251D01*
X155690324Y-64821818D01*
X155813236Y-64984580D01*
X155963958Y-65121981D01*
X156137361Y-65229347D01*
X156137363Y-65229348D01*
X156327544Y-65303024D01*
X156528024Y-65340500D01*
X156528026Y-65340500D01*
X156731974Y-65340500D01*
X156731976Y-65340500D01*
X156932456Y-65303024D01*
X157122637Y-65229348D01*
X157296041Y-65121981D01*
X157316960Y-65102910D01*
X157379765Y-65072292D01*
X157449152Y-65080489D01*
X157503093Y-65124899D01*
X157524461Y-65191421D01*
X157524500Y-65194546D01*
X157524500Y-65313099D01*
X157504815Y-65380138D01*
X157488181Y-65400780D01*
X157162235Y-65726726D01*
X157100912Y-65760211D01*
X157031220Y-65755227D01*
X157029803Y-65754688D01*
X156977769Y-65734530D01*
X156932457Y-65716976D01*
X156865629Y-65704484D01*
X156731976Y-65679500D01*
X156528024Y-65679500D01*
X156427783Y-65698238D01*
X156327542Y-65716976D01*
X156137361Y-65790652D01*
X155963958Y-65898018D01*
X155813236Y-66035419D01*
X155690324Y-66198181D01*
X155599418Y-66380748D01*
X155543602Y-66576916D01*
X155524785Y-66779999D01*
X155543602Y-66983083D01*
X155599418Y-67179251D01*
X155690324Y-67361818D01*
X155813236Y-67524580D01*
X155963958Y-67661981D01*
X156137361Y-67769347D01*
X156137363Y-67769348D01*
X156218285Y-67800697D01*
X156273686Y-67843268D01*
X156297277Y-67909035D01*
X156281566Y-67977115D01*
X156231543Y-68025895D01*
X156205586Y-68036097D01*
X156166511Y-68046567D01*
X155952421Y-68146400D01*
X155758921Y-68281890D01*
X155591890Y-68448921D01*
X155456400Y-68642421D01*
X155356569Y-68856507D01*
X155299364Y-69069999D01*
X155299364Y-69070000D01*
X156196314Y-69070000D01*
X156170507Y-69110156D01*
X156130000Y-69248111D01*
X156130000Y-69391889D01*
X156170507Y-69529844D01*
X156196314Y-69570000D01*
X155299364Y-69570000D01*
X155356569Y-69783492D01*
X155456399Y-69997576D01*
X155591893Y-70191081D01*
X155758918Y-70358106D01*
X155952423Y-70493600D01*
X156015723Y-70523118D01*
X156068162Y-70569290D01*
X156087314Y-70636484D01*
X156067098Y-70703365D01*
X156013933Y-70748700D01*
X155963318Y-70759500D01*
X155755325Y-70759500D01*
X155682261Y-70774033D01*
X155599399Y-70829399D01*
X155544033Y-70912261D01*
X155529500Y-70985325D01*
X155529500Y-71350500D01*
X155509815Y-71417539D01*
X155457011Y-71463294D01*
X155405500Y-71474500D01*
X151656899Y-71474500D01*
X151589860Y-71454815D01*
X151569218Y-71438181D01*
X149784518Y-69653481D01*
X149751033Y-69592158D01*
X149749103Y-69550852D01*
X149751654Y-69529844D01*
X149755278Y-69500000D01*
X149736237Y-69343182D01*
X149680220Y-69195477D01*
X149639949Y-69137134D01*
X149590482Y-69065468D01*
X149517273Y-69000611D01*
X149480146Y-68941422D01*
X149475500Y-68907796D01*
X149475500Y-66641803D01*
X149478139Y-66616357D01*
X149478365Y-66615274D01*
X149480367Y-66605731D01*
X149476452Y-66574323D01*
X149475500Y-66558986D01*
X149475500Y-66558889D01*
X149475500Y-66558888D01*
X149475500Y-66558886D01*
X149472070Y-66538336D01*
X149471342Y-66533340D01*
X149464865Y-66481374D01*
X149464864Y-66481373D01*
X149463888Y-66473538D01*
X149463821Y-66473331D01*
X149435160Y-66420368D01*
X149432814Y-66415812D01*
X149409826Y-66368788D01*
X149409825Y-66368787D01*
X149406361Y-66361701D01*
X149406225Y-66361519D01*
X149393711Y-66349999D01*
X149361904Y-66320718D01*
X149358231Y-66317193D01*
X144512149Y-61471111D01*
X144496022Y-61451253D01*
X144490083Y-61442162D01*
X144465110Y-61422725D01*
X144453593Y-61412554D01*
X144453519Y-61412480D01*
X144436594Y-61400397D01*
X144432480Y-61397330D01*
X144391189Y-61365191D01*
X144391186Y-61365190D01*
X144384963Y-61360346D01*
X144384761Y-61360242D01*
X144377200Y-61357990D01*
X144377199Y-61357990D01*
X144327036Y-61343055D01*
X144322174Y-61341497D01*
X144310780Y-61337586D01*
X144265202Y-61321939D01*
X144264969Y-61321906D01*
X144219910Y-61323769D01*
X144204806Y-61324394D01*
X144199684Y-61324500D01*
X139406899Y-61324500D01*
X139339860Y-61304815D01*
X139319218Y-61288181D01*
X138684518Y-60653481D01*
X138651033Y-60592158D01*
X138649103Y-60550852D01*
X138655278Y-60500000D01*
X138636237Y-60343182D01*
X138580220Y-60195477D01*
X138515877Y-60102260D01*
X138490484Y-60065471D01*
X138443031Y-60023432D01*
X138372240Y-59960717D01*
X138350868Y-59949500D01*
X138232364Y-59887303D01*
X138078985Y-59849500D01*
X137921015Y-59849500D01*
X137767635Y-59887303D01*
X137627761Y-59960716D01*
X137509515Y-60065471D01*
X137419780Y-60195476D01*
X137363763Y-60343181D01*
X137344721Y-60500000D01*
X137363763Y-60656818D01*
X137419780Y-60804523D01*
X137509515Y-60934528D01*
X137509516Y-60934529D01*
X137509517Y-60934530D01*
X137627760Y-61039283D01*
X137743165Y-61099853D01*
X137767635Y-61112696D01*
X137921015Y-61150500D01*
X138068101Y-61150500D01*
X138135140Y-61170185D01*
X138155782Y-61186819D01*
X138897850Y-61928887D01*
X138913977Y-61948746D01*
X138919915Y-61957835D01*
X138944894Y-61977277D01*
X138956412Y-61987449D01*
X138956481Y-61987518D01*
X138973389Y-61999590D01*
X138977499Y-62002654D01*
X139025044Y-62039660D01*
X139025233Y-62039757D01*
X139032801Y-62042010D01*
X139082959Y-62056943D01*
X139087819Y-62058499D01*
X139137340Y-62075500D01*
X139137342Y-62075500D01*
X139144796Y-62078059D01*
X139145029Y-62078093D01*
X139152908Y-62077767D01*
X139152911Y-62077768D01*
X139205192Y-62075605D01*
X139210315Y-62075500D01*
X144003101Y-62075500D01*
X144070140Y-62095185D01*
X144090782Y-62111819D01*
X148688181Y-66709218D01*
X148721666Y-66770541D01*
X148724500Y-66796899D01*
X148724500Y-68907796D01*
X148704815Y-68974835D01*
X148682727Y-69000611D01*
X148609517Y-69065468D01*
X148519780Y-69195476D01*
X148463763Y-69343181D01*
X148444721Y-69500000D01*
X148463763Y-69656818D01*
X148519780Y-69804523D01*
X148609515Y-69934528D01*
X148609516Y-69934529D01*
X148609517Y-69934530D01*
X148727760Y-70039283D01*
X148807808Y-70081296D01*
X148867635Y-70112696D01*
X149021015Y-70150500D01*
X149168100Y-70150500D01*
X149235139Y-70170185D01*
X149255781Y-70186819D01*
X151147850Y-72078888D01*
X151163976Y-72098744D01*
X151169916Y-72107836D01*
X151194890Y-72127274D01*
X151206408Y-72137446D01*
X151206482Y-72137520D01*
X151215271Y-72143795D01*
X151223399Y-72149598D01*
X151227508Y-72152662D01*
X151275041Y-72189658D01*
X151275232Y-72189757D01*
X151309601Y-72199988D01*
X151332955Y-72206941D01*
X151337792Y-72208490D01*
X151387340Y-72225500D01*
X151394797Y-72228060D01*
X151395030Y-72228093D01*
X151402909Y-72227767D01*
X151402912Y-72227768D01*
X151455193Y-72225605D01*
X151460316Y-72225500D01*
X155405500Y-72225500D01*
X155472539Y-72245185D01*
X155518294Y-72297989D01*
X155529500Y-72349500D01*
X155529500Y-72734674D01*
X155544033Y-72807738D01*
X155544033Y-72807739D01*
X155544034Y-72807740D01*
X155599399Y-72890601D01*
X155682260Y-72945966D01*
X155702661Y-72950024D01*
X155755325Y-72960500D01*
X155755326Y-72960500D01*
X157504675Y-72960500D01*
X157530714Y-72955320D01*
X157577740Y-72945966D01*
X157577740Y-72945965D01*
X157597399Y-72942055D01*
X157638089Y-72929313D01*
X157705470Y-72947796D01*
X157752162Y-72999773D01*
X157763340Y-73068743D01*
X157735456Y-73132808D01*
X157727987Y-73140974D01*
X157280781Y-73588181D01*
X157219458Y-73621666D01*
X157193100Y-73624500D01*
X142881899Y-73624500D01*
X142814860Y-73604815D01*
X142794218Y-73588181D01*
X140680537Y-71474500D01*
X138552149Y-69346111D01*
X138536022Y-69326253D01*
X138535203Y-69325000D01*
X138530084Y-69317164D01*
X138530083Y-69317162D01*
X138505110Y-69297725D01*
X138493593Y-69287554D01*
X138493519Y-69287480D01*
X138476594Y-69275397D01*
X138472480Y-69272330D01*
X138431189Y-69240191D01*
X138431186Y-69240190D01*
X138424963Y-69235346D01*
X138424761Y-69235242D01*
X138417200Y-69232990D01*
X138417199Y-69232990D01*
X138367036Y-69218055D01*
X138362186Y-69216501D01*
X138346431Y-69211093D01*
X138334235Y-69206906D01*
X138277220Y-69166519D01*
X138251091Y-69101719D01*
X138250500Y-69089625D01*
X138250500Y-68800325D01*
X138235966Y-68727261D01*
X138235966Y-68727260D01*
X138213668Y-68693888D01*
X138192791Y-68627213D01*
X138211276Y-68559833D01*
X138213645Y-68556145D01*
X138235966Y-68522740D01*
X138250500Y-68449674D01*
X138250500Y-68179499D01*
X138270185Y-68112461D01*
X138322989Y-68066706D01*
X138374500Y-68055500D01*
X141268195Y-68055500D01*
X141293641Y-68058139D01*
X141297440Y-68058935D01*
X141304268Y-68060367D01*
X141334138Y-68056643D01*
X141335677Y-68056452D01*
X141351014Y-68055500D01*
X141351111Y-68055500D01*
X141351114Y-68055500D01*
X141371643Y-68052073D01*
X141376659Y-68051342D01*
X141428626Y-68044866D01*
X141428628Y-68044864D01*
X141436457Y-68043889D01*
X141436666Y-68043822D01*
X141443607Y-68040065D01*
X141443610Y-68040065D01*
X141489666Y-68015140D01*
X141494144Y-68012835D01*
X141541211Y-67989826D01*
X141541212Y-67989824D01*
X141548308Y-67986356D01*
X141548476Y-67986230D01*
X141553824Y-67980419D01*
X141553826Y-67980419D01*
X141589294Y-67941889D01*
X141592795Y-67938240D01*
X144028889Y-65502146D01*
X144048741Y-65486025D01*
X144057836Y-65480084D01*
X144077277Y-65455104D01*
X144087449Y-65443587D01*
X144087520Y-65443517D01*
X144099614Y-65426576D01*
X144102648Y-65422508D01*
X144134809Y-65381189D01*
X144134809Y-65381187D01*
X144139666Y-65374948D01*
X144139753Y-65374779D01*
X144142010Y-65367199D01*
X144156954Y-65317001D01*
X144158491Y-65312202D01*
X144175500Y-65262660D01*
X144175500Y-65262656D01*
X144178060Y-65255199D01*
X144178094Y-65254966D01*
X144177768Y-65247090D01*
X144177769Y-65247088D01*
X144175606Y-65194792D01*
X144175500Y-65189668D01*
X144175500Y-63792202D01*
X144195185Y-63725163D01*
X144217269Y-63699390D01*
X144290483Y-63634530D01*
X144380220Y-63504523D01*
X144436237Y-63356818D01*
X144455278Y-63200000D01*
X144436237Y-63043182D01*
X144380220Y-62895477D01*
X144321100Y-62809826D01*
X144290484Y-62765471D01*
X144287721Y-62763023D01*
X144172240Y-62660717D01*
X144116382Y-62631400D01*
X144032364Y-62587303D01*
X143878985Y-62549500D01*
X143721015Y-62549500D01*
X143567635Y-62587303D01*
X143427761Y-62660716D01*
X143309515Y-62765471D01*
X143219780Y-62895476D01*
X143163763Y-63043181D01*
X143144721Y-63200000D01*
X143163763Y-63356818D01*
X143219780Y-63504523D01*
X143309515Y-63634528D01*
X143309516Y-63634529D01*
X143309517Y-63634530D01*
X143382727Y-63699387D01*
X143419853Y-63758574D01*
X143424500Y-63792202D01*
X143424500Y-64993099D01*
X143404815Y-65060138D01*
X143388181Y-65080780D01*
X143323969Y-65144992D01*
X143262646Y-65178477D01*
X143192954Y-65173493D01*
X143137021Y-65131621D01*
X143120346Y-65101281D01*
X143119994Y-65100354D01*
X143080220Y-64995477D01*
X143045187Y-64944723D01*
X142990484Y-64865471D01*
X142966698Y-64844399D01*
X142872240Y-64760717D01*
X142818232Y-64732371D01*
X142732364Y-64687303D01*
X142578985Y-64649500D01*
X142421015Y-64649500D01*
X142267635Y-64687303D01*
X142127761Y-64760716D01*
X142009515Y-64865471D01*
X142005743Y-64870938D01*
X141951462Y-64914929D01*
X141903692Y-64924500D01*
X138600534Y-64924500D01*
X138533495Y-64904815D01*
X138487740Y-64852011D01*
X138477796Y-64782853D01*
X138484352Y-64757168D01*
X138493598Y-64732375D01*
X138499645Y-64676132D01*
X138500000Y-64669518D01*
X138500000Y-64125000D01*
X136974000Y-64125000D01*
X136906961Y-64105315D01*
X136861206Y-64052511D01*
X136850000Y-64001000D01*
X136850000Y-62625000D01*
X137350000Y-62625000D01*
X137350000Y-63625000D01*
X138500000Y-63625000D01*
X138500000Y-63080481D01*
X138499645Y-63073867D01*
X138493599Y-63017628D01*
X138443352Y-62882910D01*
X138357188Y-62767811D01*
X138242089Y-62681647D01*
X138107371Y-62631400D01*
X138051132Y-62625354D01*
X138044518Y-62625000D01*
X137350000Y-62625000D01*
X136850000Y-62625000D01*
X136155482Y-62625000D01*
X136148867Y-62625354D01*
X136092628Y-62631400D01*
X135942834Y-62687271D01*
X135873142Y-62692255D01*
X135811819Y-62658770D01*
X135778334Y-62597447D01*
X135775500Y-62571089D01*
X135775500Y-59549500D01*
X135795185Y-59482461D01*
X135847989Y-59436706D01*
X135899500Y-59425500D01*
X151263101Y-59425500D01*
X151330140Y-59445185D01*
G37*
%TD.AperFunction*%
%TD*%
M02*
