%TF.GenerationSoftware,KiCad,Pcbnew,7.0.2-1.fc38*%
%TF.CreationDate,2023-06-07T17:49:04+02:00*%
%TF.ProjectId,gps_compass,6770735f-636f-46d7-9061-73732e6b6963,rev?*%
%TF.SameCoordinates,Original*%
%TF.FileFunction,Paste,Top*%
%TF.FilePolarity,Positive*%
%FSLAX46Y46*%
G04 Gerber Fmt 4.6, Leading zero omitted, Abs format (unit mm)*
G04 Created by KiCad (PCBNEW 7.0.2-1.fc38) date 2023-06-07 17:49:04*
%MOMM*%
%LPD*%
G01*
G04 APERTURE LIST*
G04 Aperture macros list*
%AMRoundRect*
0 Rectangle with rounded corners*
0 $1 Rounding radius*
0 $2 $3 $4 $5 $6 $7 $8 $9 X,Y pos of 4 corners*
0 Add a 4 corners polygon primitive as box body*
4,1,4,$2,$3,$4,$5,$6,$7,$8,$9,$2,$3,0*
0 Add four circle primitives for the rounded corners*
1,1,$1+$1,$2,$3*
1,1,$1+$1,$4,$5*
1,1,$1+$1,$6,$7*
1,1,$1+$1,$8,$9*
0 Add four rect primitives between the rounded corners*
20,1,$1+$1,$2,$3,$4,$5,0*
20,1,$1+$1,$4,$5,$6,$7,0*
20,1,$1+$1,$6,$7,$8,$9,0*
20,1,$1+$1,$8,$9,$2,$3,0*%
G04 Aperture macros list end*
%ADD10RoundRect,0.237500X0.237500X-0.250000X0.237500X0.250000X-0.237500X0.250000X-0.237500X-0.250000X0*%
%ADD11RoundRect,0.237500X-0.237500X0.250000X-0.237500X-0.250000X0.237500X-0.250000X0.237500X0.250000X0*%
%ADD12R,0.720000X0.580000*%
%ADD13R,0.580000X0.720000*%
%ADD14R,1.600000X2.000000*%
%ADD15RoundRect,0.250000X0.475000X-0.337500X0.475000X0.337500X-0.475000X0.337500X-0.475000X-0.337500X0*%
%ADD16RoundRect,0.250000X-0.475000X0.337500X-0.475000X-0.337500X0.475000X-0.337500X0.475000X0.337500X0*%
G04 APERTURE END LIST*
D10*
%TO.C,R8*%
X117000000Y-54812500D03*
X117000000Y-52987500D03*
%TD*%
D11*
%TO.C,R7*%
X110800000Y-54012500D03*
X110800000Y-52187500D03*
%TD*%
%TO.C,R4*%
X121250000Y-61837500D03*
X121250000Y-63662500D03*
%TD*%
D12*
%TO.C,GPS*%
X123400000Y-63450000D03*
X123400000Y-64300000D03*
X123400000Y-65350000D03*
X123400000Y-66200000D03*
X123400000Y-67250000D03*
X123400000Y-68100000D03*
X123400000Y-69150000D03*
X123400000Y-70000000D03*
X123400000Y-71050000D03*
X123400000Y-71900000D03*
X124400000Y-63450000D03*
X124400000Y-64300000D03*
X124400000Y-65350000D03*
X124400000Y-66200000D03*
X124400000Y-67250000D03*
X124400000Y-68100000D03*
X124400000Y-69150000D03*
X124400000Y-70000000D03*
X124400000Y-71050000D03*
X124400000Y-71900000D03*
D13*
X126275000Y-60575000D03*
X126275000Y-61575000D03*
X126275000Y-73775000D03*
X126275000Y-74775000D03*
X127125000Y-60575000D03*
X127125000Y-61575000D03*
X127125000Y-73775000D03*
X127125000Y-74775000D03*
X128175000Y-60575000D03*
X128175000Y-61575000D03*
X129025000Y-60575000D03*
X129025000Y-61575000D03*
X130075000Y-60575000D03*
X130075000Y-61575000D03*
X130925000Y-60575000D03*
X130925000Y-61575000D03*
X131975000Y-60575000D03*
X131975000Y-61575000D03*
X131975000Y-73775000D03*
X131975000Y-74775000D03*
X132825000Y-60575000D03*
X132825000Y-61575000D03*
X132825000Y-73775000D03*
X132825000Y-74775000D03*
X133875000Y-60575000D03*
X133875000Y-61575000D03*
X133875000Y-73775000D03*
X133875000Y-74775000D03*
X134725000Y-60575000D03*
X134725000Y-61575000D03*
X134725000Y-73775000D03*
X134725000Y-74775000D03*
D12*
X136600000Y-63450000D03*
X136600000Y-64300000D03*
X136600000Y-65350000D03*
X136600000Y-66200000D03*
X136600000Y-67250000D03*
X136600000Y-68100000D03*
X136600000Y-69150000D03*
X136600000Y-70000000D03*
X136600000Y-71050000D03*
X136600000Y-71900000D03*
X137600000Y-63450000D03*
X137600000Y-64300000D03*
X137600000Y-65350000D03*
X137600000Y-66200000D03*
X137600000Y-67250000D03*
X137600000Y-68100000D03*
X137600000Y-69150000D03*
X137600000Y-70000000D03*
X137600000Y-71050000D03*
X137600000Y-71900000D03*
%TD*%
D10*
%TO.C,R9*%
X118100000Y-48100000D03*
X118100000Y-46275000D03*
%TD*%
D14*
%TO.C,En*%
X113700000Y-66600000D03*
X113700000Y-61200000D03*
%TD*%
%TO.C,Prog*%
X117800000Y-61200000D03*
X117800000Y-66600000D03*
%TD*%
D15*
%TO.C,C3*%
X121200000Y-69300000D03*
X121200000Y-67225000D03*
%TD*%
D16*
%TO.C,C4*%
X121200000Y-71362500D03*
X121200000Y-73437500D03*
%TD*%
D10*
%TO.C,R10*%
X118100000Y-44500000D03*
X118100000Y-42675000D03*
%TD*%
M02*
