%TF.GenerationSoftware,KiCad,Pcbnew,7.0.2-1.fc38*%
%TF.CreationDate,2023-06-06T17:02:23+02:00*%
%TF.ProjectId,gps_compass,6770735f-636f-46d7-9061-73732e6b6963,rev?*%
%TF.SameCoordinates,Original*%
%TF.FileFunction,Soldermask,Bot*%
%TF.FilePolarity,Negative*%
%FSLAX46Y46*%
G04 Gerber Fmt 4.6, Leading zero omitted, Abs format (unit mm)*
G04 Created by KiCad (PCBNEW 7.0.2-1.fc38) date 2023-06-06 17:02:23*
%MOMM*%
%LPD*%
G01*
G04 APERTURE LIST*
G04 Aperture macros list*
%AMRoundRect*
0 Rectangle with rounded corners*
0 $1 Rounding radius*
0 $2 $3 $4 $5 $6 $7 $8 $9 X,Y pos of 4 corners*
0 Add a 4 corners polygon primitive as box body*
4,1,4,$2,$3,$4,$5,$6,$7,$8,$9,$2,$3,0*
0 Add four circle primitives for the rounded corners*
1,1,$1+$1,$2,$3*
1,1,$1+$1,$4,$5*
1,1,$1+$1,$6,$7*
1,1,$1+$1,$8,$9*
0 Add four rect primitives between the rounded corners*
20,1,$1+$1,$2,$3,$4,$5,0*
20,1,$1+$1,$4,$5,$6,$7,0*
20,1,$1+$1,$6,$7,$8,$9,0*
20,1,$1+$1,$8,$9,$2,$3,0*%
G04 Aperture macros list end*
%ADD10C,2.000000*%
%ADD11R,1.700000X1.700000*%
%ADD12O,1.700000X1.700000*%
%ADD13C,1.700000*%
%ADD14RoundRect,0.150000X0.587500X0.150000X-0.587500X0.150000X-0.587500X-0.150000X0.587500X-0.150000X0*%
%ADD15RoundRect,0.237500X0.250000X0.237500X-0.250000X0.237500X-0.250000X-0.237500X0.250000X-0.237500X0*%
%ADD16RoundRect,0.237500X-0.237500X0.250000X-0.237500X-0.250000X0.237500X-0.250000X0.237500X0.250000X0*%
%ADD17R,1.800000X0.700000*%
%ADD18R,2.200000X1.600000*%
%ADD19RoundRect,0.250000X0.337500X0.475000X-0.337500X0.475000X-0.337500X-0.475000X0.337500X-0.475000X0*%
%ADD20R,2.000000X0.650000*%
%ADD21R,0.900000X1.500000*%
%ADD22R,1.500000X0.900000*%
%ADD23RoundRect,0.250000X-0.337500X-0.475000X0.337500X-0.475000X0.337500X0.475000X-0.337500X0.475000X0*%
%ADD24R,1.800000X1.800000*%
%ADD25C,1.800000*%
%ADD26R,1.000000X0.800000*%
%ADD27C,0.900000*%
%ADD28R,0.700000X1.500000*%
%ADD29R,0.800000X1.400000*%
%ADD30R,1.500000X1.500000*%
%ADD31R,1.300000X1.500000*%
%ADD32R,0.800000X1.500000*%
%ADD33R,1.000000X1.550000*%
%ADD34R,1.450000X1.000000*%
%ADD35R,0.700000X1.750000*%
%ADD36C,0.700000*%
%ADD37O,1.700000X0.900000*%
%ADD38O,2.400000X0.900000*%
G04 APERTURE END LIST*
D10*
%TO.C,SWdown1*%
X168200000Y-56600000D03*
X168200000Y-50100000D03*
X172700000Y-56600000D03*
X172700000Y-50100000D03*
%TD*%
D11*
%TO.C,GY-271*%
X156630000Y-71860000D03*
D12*
X156630000Y-69320000D03*
X156630000Y-66780000D03*
X156630000Y-64240000D03*
X156630000Y-61700000D03*
%TD*%
D11*
%TO.C,LCD*%
X129520000Y-53830000D03*
D12*
X132060000Y-53830000D03*
X134600000Y-53830000D03*
X137140000Y-53830000D03*
X139680000Y-53830000D03*
%TD*%
D10*
%TO.C,SWright1*%
X160100000Y-47050000D03*
X160100000Y-40550000D03*
X164600000Y-47050000D03*
X164600000Y-40550000D03*
%TD*%
D13*
%TO.C,Serial1*%
X159900000Y-33340000D03*
D12*
X157360000Y-33340000D03*
D11*
X154820000Y-33340000D03*
%TD*%
D10*
%TO.C,SWleft1*%
X160100000Y-56600000D03*
X160100000Y-50100000D03*
X164600000Y-56600000D03*
X164600000Y-50100000D03*
%TD*%
D11*
%TO.C,Oled*%
X138320000Y-57310000D03*
D12*
X135780000Y-57310000D03*
X133240000Y-57310000D03*
X130700000Y-57310000D03*
%TD*%
D10*
%TO.C,SWb1*%
X172050000Y-66150000D03*
X172050000Y-59650000D03*
X176550000Y-66150000D03*
X176550000Y-59650000D03*
%TD*%
%TO.C,SWa1*%
X160100000Y-66200000D03*
X160100000Y-59700000D03*
X164600000Y-66200000D03*
X164600000Y-59700000D03*
%TD*%
%TO.C,SWup1*%
X152000000Y-56600000D03*
X152000000Y-50100000D03*
X156500000Y-56600000D03*
X156500000Y-50100000D03*
%TD*%
D14*
%TO.C,Q1*%
X129500000Y-68050000D03*
X129500000Y-69950000D03*
X127625000Y-69000000D03*
%TD*%
D15*
%TO.C,R6*%
X112187500Y-46500000D03*
X114012500Y-46500000D03*
%TD*%
D16*
%TO.C,R1*%
X145200000Y-53787500D03*
X145200000Y-55612500D03*
%TD*%
%TO.C,R2*%
X147000000Y-53787500D03*
X147000000Y-55612500D03*
%TD*%
D17*
%TO.C,BT1*%
X117250000Y-55775000D03*
X117250000Y-57025000D03*
D18*
X119950000Y-53525000D03*
X119950000Y-59275000D03*
%TD*%
D19*
%TO.C,C5*%
X125400000Y-61600000D03*
X123325000Y-61600000D03*
%TD*%
D15*
%TO.C,R3*%
X125475000Y-63700000D03*
X123650000Y-63700000D03*
%TD*%
D20*
%TO.C,U3*%
X121552500Y-69950000D03*
X121552500Y-69000000D03*
X121552500Y-68050000D03*
X124972500Y-68050000D03*
X124972500Y-69000000D03*
X124972500Y-69950000D03*
%TD*%
D21*
%TO.C,ESP32-S*%
X131195000Y-33300000D03*
X132465000Y-33300000D03*
X133735000Y-33300000D03*
X135005000Y-33300000D03*
X136275000Y-33300000D03*
X137545000Y-33300000D03*
X138815000Y-33300000D03*
X140085000Y-33300000D03*
X141355000Y-33300000D03*
X142625000Y-33300000D03*
X143895000Y-33300000D03*
X145165000Y-33300000D03*
X146435000Y-33300000D03*
X147705000Y-33300000D03*
D22*
X148800000Y-36335000D03*
X148800000Y-37605000D03*
X148800000Y-38875000D03*
X148800000Y-40145000D03*
X148800000Y-41415000D03*
X148800000Y-42685000D03*
X148800000Y-43955000D03*
X148800000Y-45225000D03*
X148800000Y-46495000D03*
X148800000Y-47765000D03*
D21*
X147705000Y-50800000D03*
X146435000Y-50800000D03*
X145165000Y-50800000D03*
X143895000Y-50800000D03*
X142625000Y-50800000D03*
X141355000Y-50800000D03*
X140085000Y-50800000D03*
X138815000Y-50800000D03*
X137545000Y-50800000D03*
X136275000Y-50800000D03*
X135005000Y-50800000D03*
X133735000Y-50800000D03*
X132465000Y-50800000D03*
X131195000Y-50800000D03*
%TD*%
D23*
%TO.C,C7*%
X134062500Y-68800000D03*
X136137500Y-68800000D03*
%TD*%
D24*
%TO.C,LED*%
X114000000Y-44100000D03*
D25*
X114000000Y-41560000D03*
%TD*%
D23*
%TO.C,C6*%
X134062500Y-66400000D03*
X136137500Y-66400000D03*
%TD*%
D14*
%TO.C,U1*%
X129500000Y-63850000D03*
X129500000Y-65750000D03*
X127625000Y-64800000D03*
%TD*%
D26*
%TO.C,MAIN*%
X133250000Y-75555000D03*
X133250000Y-73345000D03*
D27*
X131100000Y-74455000D03*
X128100000Y-74455000D03*
D26*
X125950000Y-75555000D03*
X125950000Y-73345000D03*
D28*
X131850000Y-72695000D03*
X128850000Y-72695000D03*
X127350000Y-72695000D03*
%TD*%
D15*
%TO.C,R5*%
X123587500Y-54200000D03*
X125412500Y-54200000D03*
%TD*%
D23*
%TO.C,C1*%
X127462500Y-61600000D03*
X129537500Y-61600000D03*
%TD*%
D29*
%TO.C,microsd*%
X142105000Y-63725000D03*
D30*
X142455000Y-71975000D03*
D31*
X153805000Y-71975000D03*
D32*
X154055000Y-64375000D03*
D33*
X142505000Y-61300000D03*
D34*
X153730000Y-62875000D03*
D35*
X152605000Y-72100000D03*
X151505000Y-72100000D03*
X150405000Y-72100000D03*
X149305000Y-72100000D03*
X148205000Y-72100000D03*
X147105000Y-72100000D03*
X146005000Y-72100000D03*
X144905000Y-72100000D03*
%TD*%
D23*
%TO.C,C2*%
X121562500Y-65900000D03*
X123637500Y-65900000D03*
%TD*%
D36*
%TO.C,J1*%
X114725000Y-56475000D03*
X114725000Y-55625000D03*
X114725000Y-54775000D03*
X114725000Y-53925000D03*
X114725000Y-53075000D03*
X114725000Y-52225000D03*
X114725000Y-51375000D03*
X114725000Y-50525000D03*
X113375000Y-50525000D03*
X113375000Y-51375000D03*
X113375000Y-52225000D03*
X113375000Y-53075000D03*
X113375000Y-53925000D03*
X113375000Y-54775000D03*
X113375000Y-55625000D03*
X113375000Y-56475000D03*
D37*
X110365000Y-57825000D03*
D38*
X113745000Y-57825000D03*
D37*
X110365000Y-49175000D03*
D38*
X113745000Y-49175000D03*
%TD*%
D26*
%TO.C,ESP32*%
X164350000Y-75630000D03*
X164350000Y-73420000D03*
D27*
X162200000Y-74530000D03*
X159200000Y-74530000D03*
D26*
X157050000Y-75630000D03*
X157050000Y-73420000D03*
D28*
X162950000Y-72770000D03*
X159950000Y-72770000D03*
X158450000Y-72770000D03*
%TD*%
M02*
